  0
SECTION
  2
HEADER
  9
$ACADVER
  1
AC1018
  9
$ACADMAINTVER
 70
   104
  9
$DWGCODEPAGE
  3
ANSI_1252
  9
$LASTSAVEDBY
  1
roger
  9
$INSBASE
 10
0.0
 20
0.0
 30
0.0
  9
$EXTMIN
 10
-56740.55962029692
 20
20653.51459491414
 30
0.0
  9
$EXTMAX
 10
86635.85011954216
 20
57791.61051009178
 30
2.0
  9
$LIMMIN
 10
0.0
 20
0.0
  9
$LIMMAX
 10
12.0
 20
9.0
  9
$ORTHOMODE
 70
     1
  9
$REGENMODE
 70
     1
  9
$FILLMODE
 70
     1
  9
$QTEXTMODE
 70
     0
  9
$MIRRTEXT
 70
     1
  9
$LTSCALE
 40
1.0
  9
$ATTMODE
 70
     1
  9
$TEXTSIZE
 40
12.0
  9
$TRACEWID
 40
0.05
  9
$TEXTSTYLE
  7
ARIAL
  9
$CLAYER
  8
Control object
  9
$CELTYPE
  6
CONTINUOUS
  9
$CECOLOR
 62
   256
  9
$CELTSCALE
 40
1.0
  9
$DISPSILH
 70
     0
  9
$DIMSCALE
 40
1.0
  9
$DIMASZ
 40
12.0
  9
$DIMEXO
 40
0.06
  9
$DIMDLI
 40
0.15
  9
$DIMRND
 40
0.0
  9
$DIMDLE
 40
0.0
  9
$DIMEXE
 40
0.3
  9
$DIMTP
 40
0.0
  9
$DIMTM
 40
0.0
  9
$DIMTXT
 40
12.0
  9
$DIMCEN
 40
0.09
  9
$DIMTSZ
 40
0.0
  9
$DIMTOL
 70
     0
  9
$DIMLIM
 70
     0
  9
$DIMTIH
 70
     1
  9
$DIMTOH
 70
     1
  9
$DIMSE1
 70
     0
  9
$DIMSE2
 70
     0
  9
$DIMTAD
 70
     0
  9
$DIMZIN
 70
     0
  9
$DIMBLK
  1

  9
$DIMASO
 70
     1
  9
$DIMSHO
 70
     1
  9
$DIMPOST
  1

  9
$DIMAPOST
  1

  9
$DIMALT
 70
     0
  9
$DIMALTD
 70
     2
  9
$DIMALTF
 40
25.4
  9
$DIMLFAC
 40
1.0
  9
$DIMTOFL
 70
     0
  9
$DIMTVP
 40
0.0
  9
$DIMTIX
 70
     0
  9
$DIMSOXD
 70
     0
  9
$DIMSAH
 70
     0
  9
$DIMBLK1
  1

  9
$DIMBLK2
  1

  9
$DIMSTYLE
  2
TST
  9
$DIMCLRD
 70
     7
  9
$DIMCLRE
 70
     0
  9
$DIMCLRT
 70
     7
  9
$DIMTFAC
 40
0.072
  9
$DIMGAP
 40
3.0
  9
$DIMJUST
 70
     0
  9
$DIMSD1
 70
     0
  9
$DIMSD2
 70
     0
  9
$DIMTOLJ
 70
     1
  9
$DIMTZIN
 70
     0
  9
$DIMALTZ
 70
     0
  9
$DIMALTTZ
 70
     0
  9
$DIMUPT
 70
     0
  9
$DIMDEC
 70
     1
  9
$DIMTDEC
 70
     1
  9
$DIMALTU
 70
     2
  9
$DIMALTTD
 70
     2
  9
$DIMTXSTY
  7
ARIAL
  9
$DIMAUNIT
 70
     0
  9
$DIMADEC
 70
     0
  9
$DIMALTRND
 40
0.0
  9
$DIMAZIN
 70
     0
  9
$DIMDSEP
 70
    46
  9
$DIMATFIT
 70
     3
  9
$DIMFRAC
 70
     0
  9
$DIMLDRBLK
  1

  9
$DIMLUNIT
 70
     2
  9
$DIMLWD
 70
    -2
  9
$DIMLWE
 70
    -2
  9
$DIMTMOVE
 70
     0
  9
$LUNITS
 70
     2
  9
$LUPREC
 70
     2
  9
$SKETCHINC
 40
0.1
  9
$FILLETRAD
 40
3.0
  9
$AUNITS
 70
     0
  9
$AUPREC
 70
     0
  9
$MENU
  1
acad
  9
$ELEVATION
 40
0.0
  9
$PELEVATION
 40
0.0
  9
$THICKNESS
 40
0.1
  9
$LIMCHECK
 70
     0
  9
$CHAMFERA
 40
0.0
  9
$CHAMFERB
 40
0.0
  9
$CHAMFERC
 40
10.0
  9
$CHAMFERD
 40
0.174532925199433
  9
$SKPOLY
 70
     0
  9
$TDCREATE
 40
2450830.318120255
  9
$TDUCREATE
 40
2450830.276453588
  9
$TDUPDATE
 40
2454493.653169479
  9
$TDUUPDATE
 40
2454493.611502813
  9
$TDINDWG
 40
2.2941973843
  9
$TDUSRTIMER
 40
2.2941297801
  9
$USRTIMER
 70
     1
  9
$ANGBASE
 50
0.0
  9
$ANGDIR
 70
     0
  9
$PDMODE
 70
     0
  9
$PDSIZE
 40
0.0
  9
$PLINEWID
 40
0.3
  9
$SPLFRAME
 70
     1
  9
$SPLINETYPE
 70
     6
  9
$SPLINESEGS
 70
     8
  9
$HANDSEED
  5
16887
  9
$SURFTAB1
 70
     6
  9
$SURFTAB2
 70
     6
  9
$SURFTYPE
 70
     6
  9
$SURFU
 70
     6
  9
$SURFV
 70
     6
  9
$UCSBASE
  2

  9
$UCSNAME
  2

  9
$UCSORG
 10
-1376.91011567699
 20
669.2683454919897
 30
0.0
  9
$UCSXDIR
 10
1.0
 20
0.0
 30
0.0
  9
$UCSYDIR
 10
0.0
 20
1.0
 30
0.0
  9
$UCSORTHOREF
  2

  9
$UCSORTHOVIEW
 70
     0
  9
$UCSORGTOP
 10
0.0
 20
0.0
 30
0.0
  9
$UCSORGBOTTOM
 10
0.0
 20
0.0
 30
0.0
  9
$UCSORGLEFT
 10
0.0
 20
0.0
 30
0.0
  9
$UCSORGRIGHT
 10
0.0
 20
0.0
 30
0.0
  9
$UCSORGFRONT
 10
0.0
 20
0.0
 30
0.0
  9
$UCSORGBACK
 10
0.0
 20
0.0
 30
0.0
  9
$PUCSBASE
  2

  9
$PUCSNAME
  2

  9
$PUCSORG
 10
0.0
 20
0.0
 30
0.0
  9
$PUCSXDIR
 10
1.0
 20
0.0
 30
0.0
  9
$PUCSYDIR
 10
0.0
 20
1.0
 30
0.0
  9
$PUCSORTHOREF
  2

  9
$PUCSORTHOVIEW
 70
     0
  9
$PUCSORGTOP
 10
0.0
 20
0.0
 30
0.0
  9
$PUCSORGBOTTOM
 10
0.0
 20
0.0
 30
0.0
  9
$PUCSORGLEFT
 10
0.0
 20
0.0
 30
0.0
  9
$PUCSORGRIGHT
 10
0.0
 20
0.0
 30
0.0
  9
$PUCSORGFRONT
 10
0.0
 20
0.0
 30
0.0
  9
$PUCSORGBACK
 10
0.0
 20
0.0
 30
0.0
  9
$USERI1
 70
     0
  9
$USERI2
 70
     0
  9
$USERI3
 70
     0
  9
$USERI4
 70
     0
  9
$USERI5
 70
     0
  9
$USERR1
 40
0.0
  9
$USERR2
 40
0.0
  9
$USERR3
 40
0.0
  9
$USERR4
 40
0.0
  9
$USERR5
 40
0.0
  9
$WORLDVIEW
 70
     1
  9
$SHADEDGE
 70
     3
  9
$SHADEDIF
 70
    70
  9
$TILEMODE
 70
     1
  9
$MAXACTVP
 70
    16
  9
$PINSBASE
 10
0.0
 20
0.0
 30
0.0
  9
$PLIMCHECK
 70
     0
  9
$PEXTMIN
 10
1.000000000000000E+20
 20
1.000000000000000E+20
 30
1.000000000000000E+20
  9
$PEXTMAX
 10
-1.000000000000000E+20
 20
-1.000000000000000E+20
 30
-1.000000000000000E+20
  9
$PLIMMIN
 10
0.0
 20
0.0
  9
$PLIMMAX
 10
12.0
 20
9.0
  9
$UNITMODE
 70
     0
  9
$VISRETAIN
 70
     0
  9
$PLINEGEN
 70
     0
  9
$PSLTSCALE
 70
     0
  9
$TREEDEPTH
 70
  3020
  9
$CMLSTYLE
  2
STANDARD
  9
$CMLJUST
 70
     0
  9
$CMLSCALE
 40
1.0
  9
$PROXYGRAPHICS
 70
     1
  9
$MEASUREMENT
 70
     0
  9
$CELWEIGHT
370
    -1
  9
$ENDCAPS
280
     0
  9
$JOINSTYLE
280
     0
  9
$LWDISPLAY
290
     0
  9
$INSUNITS
 70
     0
  9
$HYPERLINKBASE
  1

  9
$STYLESHEET
  1

  9
$XEDIT
290
     1
  9
$CEPSNTYPE
380
     0
  9
$PSTYLEMODE
290
     1
  9
$FINGERPRINTGUID
  2
{8CB4EE96-A2FC-4BAD-8A58-F7B03F62799B}
  9
$VERSIONGUID
  2
{C57FDDFD-AC44-4818-9A75-CD13C5263276}
  9
$EXTNAMES
290
     1
  9
$PSVPSCALE
 40
0.0
  9
$OLESTARTUP
290
     0
  9
$SORTENTS
280
    96
  9
$INDEXCTL
280
     0
  9
$HIDETEXT
280
     0
  9
$XCLIPFRAME
290
     0
  9
$HALOGAP
280
     0
  9
$OBSCOLOR
 70
   257
  9
$OBSLTYPE
280
     0
  9
$INTERSECTIONDISPLAY
280
     0
  9
$INTERSECTIONCOLOR
 70
   257
  9
$DIMASSOC
280
     1
  9
$PROJECTNAME
  1

  0
ENDSEC
  0
SECTION
  2
CLASSES
  0
CLASS
  1
DICTIONARYVAR
  2
AcDbDictionaryVar
  3
ObjectDBX Classes
 90
        0
 91
        8
280
     0
281
     0
  0
CLASS
  1
ACDBDICTIONARYWDFLT
  2
AcDbDictionaryWithDefault
  3
ObjectDBX Classes
 90
        0
 91
        1
280
     0
281
     0
  0
CLASS
  1
MATERIAL
  2
AcDbMaterial
  3
ObjectDBX Classes
 90
     1024
 91
        3
280
     0
281
     0
  0
CLASS
  1
VISUALSTYLE
  2
AcDbVisualStyle
  3
ObjectDBX Classes
 90
     4095
 91
       16
280
     0
281
     0
  0
CLASS
  1
TABLESTYLE
  2
AcDbTableStyle
  3
ObjectDBX Classes
 90
     4095
 91
        1
280
     0
281
     0
  0
CLASS
  1
SORTENTSTABLE
  2
AcDbSortentsTable
  3
ObjectDBX Classes
 90
        0
 91
        1
280
     0
281
     0
  0
ENDSEC
  0
SECTION
  2
TABLES
  0
TABLE
  2
VPORT
  5
2E2A
330
0
100
AcDbSymbolTable
 70
     1
  0
VPORT
  5
164AD
330
2E2A
100
AcDbSymbolTableRecord
100
AcDbViewportTableRecord
  2
*Active
 70
     0
 10
0.0
 20
0.0
 11
1.0
 21
1.0
 12
-34186.84444493716
 22
58366.94533015543
 13
0.0
 23
0.0
 14
0.5
 24
0.5
 15
1.0
 25
1.0
 16
0.0
 26
0.0
 36
1.0
 17
0.0
 27
0.0
 37
0.0
 40
216221.9450579276
 41
2.079928952042628
 42
50.0
 43
0.0
 44
0.0
 50
0.0
 51
0.0
 71
     0
 72
   100
 73
     1
 74
     1
 75
     0
 76
     0
 77
     0
 78
     0
281
     0
 65
     1
110
-1376.91011567699
120
669.2683454919897
130
0.0
111
1.0
121
0.0
131
0.0
112
0.0
122
1.0
132
0.0
 79
     0
146
0.0
  0
ENDTAB
  0
TABLE
  2
LTYPE
  5
2E27
330
0
100
AcDbSymbolTable
 70
     2
  0
LTYPE
  5
2E34
330
2E27
100
AcDbSymbolTableRecord
100
AcDbLinetypeTableRecord
  2
BYBLOCK
 70
     0
  3

 72
    65
 73
     0
 40
0.0
  0
LTYPE
  5
2E35
330
2E27
100
AcDbSymbolTableRecord
100
AcDbLinetypeTableRecord
  2
BYLAYER
 70
     0
  3

 72
    65
 73
     0
 40
0.0
  0
LTYPE
  5
2E36
330
2E27
100
AcDbSymbolTableRecord
100
AcDbLinetypeTableRecord
  2
CONTINUOUS
 70
     0
  3
Solid line
 72
    65
 73
     0
 40
0.0
  0
ENDTAB
  0
TABLE
  2
LAYER
  5
2E24
102
{ACAD_XDICTIONARY
360
15B01
102
}
330
0
100
AcDbSymbolTable
 70
     8
  0
LAYER
  5
2E31
330
2E24
100
AcDbSymbolTableRecord
100
AcDbLayerTableRecord
  2
0
 70
     0
 62
     7
  6
CONTINUOUS
370
    -3
390
158BF
  0
LAYER
  5
2E5D
330
2E24
100
AcDbSymbolTableRecord
100
AcDbLayerTableRecord
  2
LAYER1
 70
     0
 62
     7
  6
CONTINUOUS
370
    -3
390
158BF
  0
LAYER
  5
2E5F
330
2E24
100
AcDbSymbolTableRecord
100
AcDbLayerTableRecord
  2
TEKST
 70
     0
 62
     7
  6
CONTINUOUS
370
    -3
390
158BF
  0
LAYER
  5
2E60
330
2E24
100
AcDbSymbolTableRecord
100
AcDbLayerTableRecord
  2
DEFPOINTS
 70
     0
 62
     7
  6
CONTINUOUS
290
     0
370
    -3
390
158BF
  0
LAYER
  5
2E7C
330
2E24
100
AcDbSymbolTableRecord
100
AcDbLayerTableRecord
  2
ASHADE
 70
     4
 62
     7
  6
CONTINUOUS
370
    -3
390
158BF
  0
LAYER
  5
30B2
330
2E24
100
AcDbSymbolTableRecord
100
AcDbLayerTableRecord
  2
Omriss
 70
     0
 62
     8
  6
CONTINUOUS
370
    -3
390
158BF
  0
LAYER
  5
164D7
330
2E24
100
AcDbSymbolTableRecord
100
AcDbLayerTableRecord
  2
Omriss tanker
 70
     0
 62
   240
  6
CONTINUOUS
370
    -3
390
158BF
1001
AcAecLayerStandard
1000

1000

  0
LAYER
  5
1678F
330
2E24
100
AcDbSymbolTableRecord
100
AcDbLayerTableRecord
  2
Control object
 70
     0
 62
   240
  6
CONTINUOUS
370
    -3
390
158BF
1001
AcAecLayerStandard
1000

1000

  0
ENDTAB
  0
TABLE
  2
STYLE
  5
2E25
330
0
100
AcDbSymbolTable
 70
     3
  0
STYLE
  5
2E32
330
2E25
100
AcDbSymbolTableRecord
100
AcDbTextStyleTableRecord
  2
STANDARD
 70
     0
 40
3.0
 41
1.0
 50
0.0
 71
     0
 42
3.0
  3
txt
  4

  0
STYLE
  5
2E40
330
2E25
100
AcDbSymbolTableRecord
100
AcDbTextStyleTableRecord
  2
ROMANS
 70
     0
 40
3.0
 41
1.0
 50
0.0
 71
     0
 42
3.0
  3
romans
  4

  0
STYLE
  5
5980
330
2E25
100
AcDbSymbolTableRecord
100
AcDbTextStyleTableRecord
  2
ARIAL
 70
     0
 40
12.0
 41
1.0
 50
0.0
 71
     0
 42
12.0
  3
ARIAL.TTF
  4

1001
ACAD
1000
Arial
1071
       34
  0
ENDTAB
  0
TABLE
  2
VIEW
  5
2E28
330
0
100
AcDbSymbolTable
 70
     0
  0
ENDTAB
  0
TABLE
  2
UCS
  5
2E29
330
0
100
AcDbSymbolTable
 70
     0
  0
ENDTAB
  0
TABLE
  2
APPID
  5
2E2B
330
0
100
AcDbSymbolTable
 70
    11
  0
APPID
  5
2E33
330
2E2B
100
AcDbSymbolTableRecord
100
AcDbRegAppTableRecord
  2
ACAD
 70
     0
  0
APPID
  5
2E5B
330
2E2B
100
AcDbSymbolTableRecord
100
AcDbRegAppTableRecord
  2
AME_SOL
 70
     0
  0
APPID
  5
2E7A
330
2E2B
100
AcDbSymbolTableRecord
100
AcDbRegAppTableRecord
  2
AVE_RENDER
 70
     0
  0
APPID
  5
2E7B
330
2E2B
100
AcDbSymbolTableRecord
100
AcDbRegAppTableRecord
  2
AVE_ENTITY_MATERIAL
 70
     0
  0
APPID
  5
2E88
330
2E2B
100
AcDbSymbolTableRecord
100
AcDbRegAppTableRecord
  2
AVE_FINISH
 70
     0
  0
APPID
  5
2E89
330
2E2B
100
AcDbSymbolTableRecord
100
AcDbRegAppTableRecord
  2
AVE_MATERIAL
 70
     0
  0
APPID
  5
2E8A
330
2E2B
100
AcDbSymbolTableRecord
100
AcDbRegAppTableRecord
  2
AVE_GLOBAL
 70
     0
  0
APPID
  5
15AF6
330
2E2B
100
AcDbSymbolTableRecord
100
AcDbRegAppTableRecord
  2
DCO15
 70
     0
  0
APPID
  5
164D8
330
2E2B
100
AcDbSymbolTableRecord
100
AcDbRegAppTableRecord
  2
AcAecLayerStandard
 70
     0
  0
APPID
  5
1658A
330
2E2B
100
AcDbSymbolTableRecord
100
AcDbRegAppTableRecord
  2
ACAD_EXEMPT_FROM_CAD_STANDARDS
 70
     0
  0
APPID
  5
166A0
330
2E2B
100
AcDbSymbolTableRecord
100
AcDbRegAppTableRecord
  2
ACAD_PSEXT
 70
     0
  0
ENDTAB
  0
TABLE
  2
DIMSTYLE
  5
2E2C
330
0
100
AcDbSymbolTable
 70
     3
100
AcDbDimStyleTable
 71
     1
340
2E5C
  0
DIMSTYLE
105
2E5C
330
2E2C
100
AcDbSymbolTableRecord
100
AcDbDimStyleTableRecord
  2
TST
 70
     0
 41
1.0
 42
0.06
140
2.5
146
0.072
147
3.0
271
     2
272
     2
279
     2
340
2E40
  0
DIMSTYLE
105
10DF2
330
2E2C
100
AcDbSymbolTableRecord
100
AcDbDimStyleTableRecord
  2
STANDARD
 70
     0
340
2E32
  0
ENDTAB
  0
TABLE
  2
BLOCK_RECORD
  5
2E23
330
0
100
AcDbSymbolTable
 70
    13
  0
BLOCK_RECORD
  5
2E3A
102
{ACAD_XDICTIONARY
360
16591
102
}
330
2E23
100
AcDbSymbolTableRecord
100
AcDbBlockTableRecord
  2
*MODEL_SPACE
340
158C2
  0
BLOCK_RECORD
  5
2E37
330
2E23
100
AcDbSymbolTableRecord
100
AcDbBlockTableRecord
  2
*PAPER_SPACE
340
158C3
  0
BLOCK_RECORD
  5
2E3E
330
2E23
100
AcDbSymbolTableRecord
100
AcDbBlockTableRecord
  2
AME_NIL
340
0
102
{BLKREFS
331
17
331
10E9D
331
10EAA
331
10EB6
331
13A16
331
13A23
331
13A2F
102
}
  0
BLOCK_RECORD
  5
2E3F
330
2E23
100
AcDbSymbolTableRecord
100
AcDbBlockTableRecord
  2
AME_SOL
340
0
102
{BLKREFS
331
29
331
10E9E
331
10EAB
331
10EB7
331
13A17
331
13A24
331
13A30
102
}
  0
BLOCK_RECORD
  5
2E7D
330
2E23
100
AcDbSymbolTableRecord
100
AcDbBlockTableRecord
  2
AVE_RENDER
340
0
102
{BLKREFS
331
2E80
331
2E81
331
2E82
331
2E83
331
2E84
331
2E85
331
2E86
331
2E87
331
10EA0
331
10EA1
331
10EA2
331
10EA3
331
10EA4
331
10EA5
331
10EA6
331
10EA7
331
10EAD
331
10EAE
331
10EAF
331
10EB0
331
10EB1
331
10EB2
331
10EB3
331
10EB4
331
10EB9
331
10EBA
331
10EBB
331
10EBC
331
10EBD
331
10EBE
331
10EBF
331
10EC0
331
13A19
331
13A1A
331
13A1B
331
13A1C
331
13A1D
331
13A1E
331
13A1F
331
13A20
331
13A26
331
13A27
331
13A28
331
13A29
331
13A2A
331
13A2B
331
13A2C
331
13A2D
331
13A32
331
13A33
331
13A34
331
13A35
331
13A36
331
13A37
331
13A38
331
13A39
102
}
  0
BLOCK_RECORD
  5
2E8B
330
2E23
100
AcDbSymbolTableRecord
100
AcDbBlockTableRecord
  2
AVE_GLOBAL
340
0
102
{BLKREFS
331
2E8E
331
10EA8
331
10EB5
331
10EC1
331
13A21
331
13A2E
331
13A3A
102
}
  0
BLOCK_RECORD
  5
167B2
330
2E23
100
AcDbSymbolTableRecord
100
AcDbBlockTableRecord
  2
*D4
340
0
  0
BLOCK_RECORD
  5
167C0
330
2E23
100
AcDbSymbolTableRecord
100
AcDbBlockTableRecord
  2
*D5
340
0
  0
BLOCK_RECORD
  5
167D1
330
2E23
100
AcDbSymbolTableRecord
100
AcDbBlockTableRecord
  2
*D6
340
0
  0
BLOCK_RECORD
  5
167DF
330
2E23
100
AcDbSymbolTableRecord
100
AcDbBlockTableRecord
  2
*D7
340
0
  0
BLOCK_RECORD
  5
167F9
330
2E23
100
AcDbSymbolTableRecord
100
AcDbBlockTableRecord
  2
*D8
340
0
  0
BLOCK_RECORD
  5
16807
330
2E23
100
AcDbSymbolTableRecord
100
AcDbBlockTableRecord
  2
*D9
340
0
  0
BLOCK_RECORD
  5
16821
330
2E23
100
AcDbSymbolTableRecord
100
AcDbBlockTableRecord
  2
*D10
340
0
  0
BLOCK_RECORD
  5
1682F
330
2E23
100
AcDbSymbolTableRecord
100
AcDbBlockTableRecord
  2
*D11
340
0
  0
ENDTAB
  0
ENDSEC
  0
SECTION
  2
BLOCKS
  0
BLOCK
  5
2E63
330
2E3A
100
AcDbEntity
  8
0
100
AcDbBlockBegin
  2
*MODEL_SPACE
 70
     0
 10
0.0
 20
0.0
 30
0.0
  3
*MODEL_SPACE
  1

  0
ENDBLK
  5
2E64
330
2E3A
100
AcDbEntity
  8
0
100
AcDbBlockEnd
  0
BLOCK
  5
2E61
330
2E37
100
AcDbEntity
 67
     1
  8
0
100
AcDbBlockBegin
  2
*PAPER_SPACE
 70
     0
 10
0.0
 20
0.0
 30
0.0
  3
*PAPER_SPACE
  1

  0
ENDBLK
  5
2E62
330
2E37
100
AcDbEntity
 67
     1
  8
0
100
AcDbBlockEnd
  0
BLOCK
  5
E
330
2E3E
100
AcDbEntity
  8
0
100
AcDbBlockBegin
  2
AME_NIL
 70
     0
 10
0.0
 20
0.0
 30
0.0
  3
AME_NIL
  1
AME_NIL
  0
ENDBLK
  5
F
330
2E3E
100
AcDbEntity
  8
0
100
AcDbBlockEnd
  0
BLOCK
  5
11
330
2E3F
100
AcDbEntity
  8
0
100
AcDbBlockBegin
  2
AME_SOL
 70
     0
 10
0.0
 20
0.0
 30
0.0
  3
AME_SOL
  1
AME_SOL
  0
ENDBLK
  5
12
330
2E3F
100
AcDbEntity
  8
0
100
AcDbBlockEnd
  0
BLOCK
  5
2E7E
330
2E7D
100
AcDbEntity
  8
0
100
AcDbBlockBegin
  2
AVE_RENDER
 70
     0
 10
0.0
 20
0.0
 30
0.0
  3
AVE_RENDER
  1
AVE_RENDER
  0
ENDBLK
  5
2E7F
330
2E7D
100
AcDbEntity
  8
0
100
AcDbBlockEnd
  0
BLOCK
  5
2E8C
330
2E8B
100
AcDbEntity
  8
0
100
AcDbBlockBegin
  2
AVE_GLOBAL
 70
     0
 10
0.0
 20
0.0
 30
0.0
  3
AVE_GLOBAL
  1
AVE_GLOBAL
  0
ENDBLK
  5
2E8D
330
2E8B
100
AcDbEntity
  8
0
100
AcDbBlockEnd
  0
BLOCK
  5
167BD
330
167B2
100
AcDbEntity
  8
0
100
AcDbBlockBegin
  2
*D4
 70
     1
 10
0.0
 20
0.0
 30
0.0
  3
*D4
  1

  0
LINE
  5
167B3
330
167B2
100
AcDbEntity
  8
Control object
  6
Continuous
 62
     0
370
    -2
100
AcDbLine
 10
-21097.78978832525
 20
44695.49253616174
 30
0.0
 11
-21768.76870543668
 21
44695.49253616174
 31
0.0
  0
LINE
  5
167B4
330
167B2
100
AcDbEntity
  8
Control object
  6
Continuous
 62
     0
370
    -2
100
AcDbLine
 10
-21731.27492055512
 20
44824.71206846311
 30
0.0
 11
-21768.76870543668
 21
44824.71206846311
 31
0.0
  0
LINE
  5
167B5
330
167B2
100
AcDbEntity
  8
Control object
  6
Continuous
 62
     7
370
    -2
100
AcDbLine
 10
-21768.46870543668
 20
44707.49253616173
 30
0.0
 11
-21768.46870543668
 21
44750.97542645976
 31
0.0
  0
LINE
  5
167B6
330
167B2
100
AcDbEntity
  8
Control object
  6
Continuous
 62
     7
370
    -2
100
AcDbLine
 10
-21768.46870543668
 20
44812.71206846312
 30
0.0
 11
-21768.46870543668
 21
44769.22917816508
 31
0.0
  0
SOLID
  5
167B7
330
167B2
100
AcDbEntity
  8
Control object
  6
Continuous
 62
     7
100
AcDbTrace
 10
-21770.46870543668
 20
44707.49253616173
 30
0.0
 11
-21766.46870543668
 21
44707.49253616173
 31
0.0
 12
-21768.46870543668
 22
44695.49253616174
 32
0.0
 13
-21768.46870543668
 23
44695.49253616174
 33
0.0
  0
SOLID
  5
167B8
330
167B2
100
AcDbEntity
  8
Control object
  6
Continuous
 62
     7
100
AcDbTrace
 10
-21770.46870543668
 20
44812.71206846312
 30
0.0
 11
-21766.46870543668
 21
44812.71206846312
 31
0.0
 12
-21768.46870543668
 22
44824.71206846311
 32
0.0
 13
-21768.46870543668
 23
44824.71206846311
 33
0.0
  0
MTEXT
  5
167B9
330
167B2
100
AcDbEntity
  8
Control object
  6
Continuous
 62
     7
100
AcDbMText
 10
-21768.46870543669
 20
44760.10230231241
 30
0.0
 40
12.0
 41
0.0
 71
     5
 72
     1
  1
\A1;129.2
  7
ARIAL
 73
     1
 44
1.0
  0
POINT
  5
167BA
330
167B2
100
AcDbEntity
  8
DEFPOINTS
  6
Continuous
 62
     0
100
AcDbPoint
 10
-21097.72978832525
 20
44695.49253616174
 30
0.0
  0
POINT
  5
167BB
330
167B2
100
AcDbEntity
  8
DEFPOINTS
  6
Continuous
 62
     0
100
AcDbPoint
 10
-21731.21492055512
 20
44824.71206846311
 30
0.0
  0
POINT
  5
167BC
330
167B2
100
AcDbEntity
  8
DEFPOINTS
  6
Continuous
 62
     0
100
AcDbPoint
 10
-21768.46870543668
 20
44824.71206846311
 30
0.0
  0
ENDBLK
  5
167BE
330
167B2
100
AcDbEntity
  8
0
100
AcDbBlockEnd
  0
BLOCK
  5
167CB
330
167C0
100
AcDbEntity
  8
0
100
AcDbBlockBegin
  2
*D5
 70
     1
 10
0.0
 20
0.0
 30
0.0
  3
*D5
  1

  0
LINE
  5
167C1
330
167C0
100
AcDbEntity
  8
Control object
  6
Continuous
 62
     0
370
    -2
100
AcDbLine
 10
-21097.78978832525
 20
44993.00065116834
 30
0.0
 11
-21649.30132927165
 21
44993.00065116834
 31
0.0
  0
LINE
  5
167C2
330
167C0
100
AcDbEntity
  8
Control object
  6
Continuous
 62
     0
370
    -2
100
AcDbLine
 10
-21731.15492055512
 20
44824.71206846311
 30
0.0
 11
-21648.70132927165
 21
44824.71206846311
 31
0.0
  0
LINE
  5
167C3
330
167C0
100
AcDbEntity
  8
Control object
  6
Continuous
 62
     7
370
    -2
100
AcDbLine
 10
-21649.00132927165
 20
44981.00065116833
 30
0.0
 11
-21649.00132927165
 21
44917.98732843783
 31
0.0
  0
LINE
  5
167C4
330
167C0
100
AcDbEntity
  8
Control object
  6
Continuous
 62
     7
370
    -2
100
AcDbLine
 10
-21649.00132927165
 20
44836.71206846311
 30
0.0
 11
-21649.00132927165
 21
44899.72539119364
 31
0.0
  0
SOLID
  5
167C5
330
167C0
100
AcDbEntity
  8
Control object
  6
Continuous
 62
     7
100
AcDbTrace
 10
-21651.00132927165
 20
44981.00065116833
 30
0.0
 11
-21647.00132927165
 21
44981.00065116833
 31
0.0
 12
-21649.00132927165
 22
44993.00065116834
 32
0.0
 13
-21649.00132927165
 23
44993.00065116834
 33
0.0
  0
SOLID
  5
167C6
330
167C0
100
AcDbEntity
  8
Control object
  6
Continuous
 62
     7
100
AcDbTrace
 10
-21651.00132927165
 20
44836.71206846311
 30
0.0
 11
-21647.00132927165
 21
44836.71206846311
 31
0.0
 12
-21649.00132927165
 22
44824.71206846311
 32
0.0
 13
-21649.00132927165
 23
44824.71206846311
 33
0.0
  0
MTEXT
  5
167C7
330
167C0
100
AcDbEntity
  8
Control object
  6
Continuous
 62
     7
100
AcDbMText
 10
-21649.00132927165
 20
44908.85635981571
 30
0.0
 40
12.0
 41
0.0
 71
     5
 72
     1
  1
\A1;168.3
  7
ARIAL
 73
     1
 44
1.0
  0
POINT
  5
167C8
330
167C0
100
AcDbEntity
  8
DEFPOINTS
  6
Continuous
 62
     0
100
AcDbPoint
 10
-21097.72978832525
 20
44993.00065116834
 30
0.0
  0
POINT
  5
167C9
330
167C0
100
AcDbEntity
  8
DEFPOINTS
  6
Continuous
 62
     0
100
AcDbPoint
 10
-21731.21492055512
 20
44824.71206846311
 30
0.0
  0
POINT
  5
167CA
330
167C0
100
AcDbEntity
  8
DEFPOINTS
  6
Continuous
 62
     0
100
AcDbPoint
 10
-21649.00132927165
 20
44824.71206846311
 30
0.0
  0
ENDBLK
  5
167CC
330
167C0
100
AcDbEntity
  8
0
100
AcDbBlockEnd
  0
BLOCK
  5
167DC
330
167D1
100
AcDbEntity
  8
0
100
AcDbBlockBegin
  2
*D6
 70
     1
 10
0.0
 20
0.0
 30
0.0
  3
*D6
  1

  0
LINE
  5
167D2
330
167D1
100
AcDbEntity
  8
Control object
  6
Continuous
 62
     0
370
    -2
100
AcDbLine
 10
-21890.96530655451
 20
48037.91573161568
 30
0.0
 11
-21890.96530655451
 21
48170.14246688597
 31
0.0
  0
LINE
  5
167D3
330
167D1
100
AcDbEntity
  8
Control object
  6
Continuous
 62
     0
370
    -2
100
AcDbLine
 10
-21731.21492055512
 20
46348.39037508931
 30
0.0
 11
-21731.21492055512
 21
48170.14246688597
 31
0.0
  0
LINE
  5
167D4
330
167D1
100
AcDbEntity
  8
Control object
  6
Continuous
 62
     7
370
    -2
100
AcDbLine
 10
-21878.96530655451
 20
48169.84246688597
 30
0.0
 11
-21833.78452010325
 21
48169.84246688597
 31
0.0
  0
LINE
  5
167D5
330
167D1
100
AcDbEntity
  8
Control object
  6
Continuous
 62
     7
370
    -2
100
AcDbLine
 10
-21743.21492055512
 20
48169.84246688597
 30
0.0
 11
-21788.39570700639
 21
48169.84246688597
 31
0.0
  0
SOLID
  5
167D6
330
167D1
100
AcDbEntity
  8
Control object
  6
Continuous
 62
     7
100
AcDbTrace
 10
-21878.96530655451
 20
48171.84246688596
 30
0.0
 11
-21878.96530655451
 21
48167.84246688596
 31
0.0
 12
-21890.96530655451
 22
48169.84246688597
 32
0.0
 13
-21890.96530655451
 23
48169.84246688597
 33
0.0
  0
SOLID
  5
167D7
330
167D1
100
AcDbEntity
  8
Control object
  6
Continuous
 62
     7
100
AcDbTrace
 10
-21743.21492055512
 20
48171.84246688596
 30
0.0
 11
-21743.21492055512
 21
48167.84246688596
 31
0.0
 12
-21731.21492055512
 22
48169.84246688597
 32
0.0
 13
-21731.21492055512
 23
48169.84246688597
 33
0.0
  0
MTEXT
  5
167D8
330
167D1
100
AcDbEntity
  8
Control object
  6
Continuous
 62
     7
100
AcDbMText
 10
-21811.09011355482
 20
48169.84246688597
 30
0.0
 40
12.0
 41
0.0
 71
     5
 72
     1
  1
\A1;159.8
  7
ARIAL
 73
     1
 44
1.0
  0
POINT
  5
167D9
330
167D1
100
AcDbEntity
  8
DEFPOINTS
  6
Continuous
 62
     0
100
AcDbPoint
 10
-21890.96530655451
 20
48037.85573161568
 30
0.0
  0
POINT
  5
167DA
330
167D1
100
AcDbEntity
  8
DEFPOINTS
  6
Continuous
 62
     0
100
AcDbPoint
 10
-21731.21492055512
 20
46348.33037508932
 30
0.0
  0
POINT
  5
167DB
330
167D1
100
AcDbEntity
  8
DEFPOINTS
  6
Continuous
 62
     0
100
AcDbPoint
 10
-21731.21492055512
 20
48169.84246688597
 30
0.0
  0
ENDBLK
  5
167DD
330
167D1
100
AcDbEntity
  8
0
100
AcDbBlockEnd
  0
BLOCK
  5
167EA
330
167DF
100
AcDbEntity
  8
0
100
AcDbBlockBegin
  2
*D7
 70
     1
 10
0.0
 20
0.0
 30
0.0
  3
*D7
  1

  0
LINE
  5
167E0
330
167DF
100
AcDbEntity
  8
Control object
  6
Continuous
 62
     0
370
    -2
100
AcDbLine
 10
-21610.23006557627
 20
48037.91573161568
 30
0.0
 11
-21610.23006557627
 21
48793.84445080273
 31
0.0
  0
LINE
  5
167E1
330
167DF
100
AcDbEntity
  8
Control object
  6
Continuous
 62
     0
370
    -2
100
AcDbLine
 10
-21731.21492055512
 20
46348.39037508931
 30
0.0
 11
-21731.21492055512
 21
48793.84445080273
 31
0.0
  0
LINE
  5
167E2
330
167DF
100
AcDbEntity
  8
Control object
  6
Continuous
 62
     7
370
    -2
100
AcDbLine
 10
-21622.23006557627
 20
48793.54445080274
 30
0.0
 11
-21648.06082867279
 21
48793.54445080274
 31
0.0
  0
LINE
  5
167E3
330
167DF
100
AcDbEntity
  8
Control object
  6
Continuous
 62
     7
370
    -2
100
AcDbLine
 10
-21719.21492055512
 20
48793.54445080274
 30
0.0
 11
-21693.3841574586
 21
48793.54445080274
 31
0.0
  0
SOLID
  5
167E4
330
167DF
100
AcDbEntity
  8
Control object
  6
Continuous
 62
     7
100
AcDbTrace
 10
-21622.23006557627
 20
48795.54445080273
 30
0.0
 11
-21622.23006557627
 21
48791.54445080273
 31
0.0
 12
-21610.23006557627
 22
48793.54445080274
 32
0.0
 13
-21610.23006557627
 23
48793.54445080274
 33
0.0
  0
SOLID
  5
167E5
330
167DF
100
AcDbEntity
  8
Control object
  6
Continuous
 62
     7
100
AcDbTrace
 10
-21719.21492055512
 20
48795.54445080273
 30
0.0
 11
-21719.21492055512
 21
48791.54445080273
 31
0.0
 12
-21731.21492055512
 22
48793.54445080274
 32
0.0
 13
-21731.21492055512
 23
48793.54445080274
 33
0.0
  0
MTEXT
  5
167E6
330
167DF
100
AcDbEntity
  8
Control object
  6
Continuous
 62
     7
100
AcDbMText
 10
-21670.72249306569
 20
48793.54445080274
 30
0.0
 40
12.0
 41
0.0
 71
     5
 72
     1
  1
\A1;121.0
  7
ARIAL
 73
     1
 44
1.0
  0
POINT
  5
167E7
330
167DF
100
AcDbEntity
  8
DEFPOINTS
  6
Continuous
 62
     0
100
AcDbPoint
 10
-21610.23006557627
 20
48037.85573161568
 30
0.0
  0
POINT
  5
167E8
330
167DF
100
AcDbEntity
  8
DEFPOINTS
  6
Continuous
 62
     0
100
AcDbPoint
 10
-21731.21492055512
 20
46348.33037508932
 30
0.0
  0
POINT
  5
167E9
330
167DF
100
AcDbEntity
  8
DEFPOINTS
  6
Continuous
 62
     0
100
AcDbPoint
 10
-21731.21492055512
 20
48793.54445080274
 30
0.0
  0
ENDBLK
  5
167EB
330
167DF
100
AcDbEntity
  8
0
100
AcDbBlockEnd
  0
BLOCK
  5
16804
330
167F9
100
AcDbEntity
  8
0
100
AcDbBlockBegin
  2
*D8
 70
     1
 10
0.0
 20
0.0
 30
0.0
  3
*D8
  1

  0
LINE
  5
167FA
330
167F9
100
AcDbEntity
  8
Control object
  6
Continuous
 62
     0
370
    -2
100
AcDbLine
 10
-21097.78978832526
 20
37875.50598780422
 30
0.0
 11
-22034.40146501562
 21
37875.50598780422
 31
0.0
  0
LINE
  5
167FB
330
167F9
100
AcDbEntity
  8
Control object
  6
Continuous
 62
     0
370
    -2
100
AcDbLine
 10
-21731.27492055512
 20
37754.64460602643
 30
0.0
 11
-22034.40146501562
 21
37754.64460602643
 31
0.0
  0
LINE
  5
167FC
330
167F9
100
AcDbEntity
  8
Control object
  6
Continuous
 62
     7
370
    -2
100
AcDbLine
 10
-22034.10146501561
 20
37863.50598780422
 30
0.0
 11
-22034.10146501561
 21
37824.20217276798
 31
0.0
  0
LINE
  5
167FD
330
167F9
100
AcDbEntity
  8
Control object
  6
Continuous
 62
     7
370
    -2
100
AcDbLine
 10
-22034.10146501561
 20
37766.64460602643
 30
0.0
 11
-22034.10146501561
 21
37805.94842106266
 31
0.0
  0
SOLID
  5
167FE
330
167F9
100
AcDbEntity
  8
Control object
  6
Continuous
 62
     7
100
AcDbTrace
 10
-22036.10146501561
 20
37863.50598780422
 30
0.0
 11
-22032.10146501561
 21
37863.50598780422
 31
0.0
 12
-22034.10146501561
 22
37875.50598780422
 32
0.0
 13
-22034.10146501561
 23
37875.50598780422
 33
0.0
  0
SOLID
  5
167FF
330
167F9
100
AcDbEntity
  8
Control object
  6
Continuous
 62
     7
100
AcDbTrace
 10
-22036.10146501561
 20
37766.64460602643
 30
0.0
 11
-22032.10146501561
 21
37766.64460602643
 31
0.0
 12
-22034.10146501561
 22
37754.64460602643
 32
0.0
 13
-22034.10146501561
 23
37754.64460602643
 33
0.0
  0
MTEXT
  5
16800
330
167F9
100
AcDbEntity
  8
Control object
  6
Continuous
 62
     7
100
AcDbMText
 10
-22034.10146501562
 20
37815.07529691531
 30
0.0
 40
12.0
 41
0.0
 71
     5
 72
     1
  1
\A1;120.9
  7
ARIAL
 73
     1
 44
1.0
  0
POINT
  5
16801
330
167F9
100
AcDbEntity
  8
DEFPOINTS
  6
Continuous
 62
     0
100
AcDbPoint
 10
-21097.72978832526
 20
37875.50598780422
 30
0.0
  0
POINT
  5
16802
330
167F9
100
AcDbEntity
  8
DEFPOINTS
  6
Continuous
 62
     0
100
AcDbPoint
 10
-21731.21492055512
 20
37754.64460602643
 30
0.0
  0
POINT
  5
16803
330
167F9
100
AcDbEntity
  8
DEFPOINTS
  6
Continuous
 62
     0
100
AcDbPoint
 10
-22034.10146501561
 20
37754.64460602643
 30
0.0
  0
ENDBLK
  5
16805
330
167F9
100
AcDbEntity
  8
0
100
AcDbBlockEnd
  0
BLOCK
  5
16812
330
16807
100
AcDbEntity
  8
0
100
AcDbBlockBegin
  2
*D9
 70
     1
 10
0.0
 20
0.0
 30
0.0
  3
*D9
  1

  0
LINE
  5
16808
330
16807
100
AcDbEntity
  8
Control object
  6
Continuous
 62
     0
370
    -2
100
AcDbLine
 10
-21097.78978832526
 20
37631.52516925574
 30
0.0
 11
-25533.06549624667
 21
37631.52516925574
 31
0.0
  0
LINE
  5
16809
330
16807
100
AcDbEntity
  8
Control object
  6
Continuous
 62
     0
370
    -2
100
AcDbLine
 10
-21731.27492055512
 20
37754.79625449682
 30
0.0
 11
-25533.06549624667
 21
37754.79625449682
 31
0.0
  0
LINE
  5
1680A
330
16807
100
AcDbEntity
  8
Control object
  6
Continuous
 62
     7
370
    -2
100
AcDbLine
 10
-25532.76549624667
 20
37643.52516925574
 30
0.0
 11
-25532.76549624667
 21
37684.02974325418
 31
0.0
  0
LINE
  5
1680B
330
16807
100
AcDbEntity
  8
Control object
  6
Continuous
 62
     7
370
    -2
100
AcDbLine
 10
-25532.76549624667
 20
37742.79625449682
 30
0.0
 11
-25532.76549624667
 21
37702.29168049838
 31
0.0
  0
SOLID
  5
1680C
330
16807
100
AcDbEntity
  8
Control object
  6
Continuous
 62
     7
100
AcDbTrace
 10
-25534.76549624667
 20
37643.52516925574
 30
0.0
 11
-25530.76549624667
 21
37643.52516925574
 31
0.0
 12
-25532.76549624667
 22
37631.52516925574
 32
0.0
 13
-25532.76549624667
 23
37631.52516925574
 33
0.0
  0
SOLID
  5
1680D
330
16807
100
AcDbEntity
  8
Control object
  6
Continuous
 62
     7
100
AcDbTrace
 10
-25534.76549624667
 20
37742.79625449682
 30
0.0
 11
-25530.76549624667
 21
37742.79625449682
 31
0.0
 12
-25532.76549624667
 22
37754.79625449682
 32
0.0
 13
-25532.76549624667
 23
37754.79625449682
 33
0.0
  0
MTEXT
  5
1680E
330
16807
100
AcDbEntity
  8
Control object
  6
Continuous
 62
     7
100
AcDbMText
 10
-25532.76549624668
 20
37693.16071187627
 30
0.0
 40
12.0
 41
0.0
 71
     5
 72
     1
  1
\A1;123.3
  7
ARIAL
 73
     1
 44
1.0
  0
POINT
  5
1680F
330
16807
100
AcDbEntity
  8
DEFPOINTS
  6
Continuous
 62
     0
100
AcDbPoint
 10
-21097.72978832526
 20
37631.52516925574
 30
0.0
  0
POINT
  5
16810
330
16807
100
AcDbEntity
  8
DEFPOINTS
  6
Continuous
 62
     0
100
AcDbPoint
 10
-21731.21492055512
 20
37754.79625449682
 30
0.0
  0
POINT
  5
16811
330
16807
100
AcDbEntity
  8
DEFPOINTS
  6
Continuous
 62
     0
100
AcDbPoint
 10
-25532.76549624667
 20
37754.79625449682
 30
0.0
  0
ENDBLK
  5
16813
330
16807
100
AcDbEntity
  8
0
100
AcDbBlockEnd
  0
BLOCK
  5
1682C
330
16821
100
AcDbEntity
  8
0
100
AcDbBlockBegin
  2
*D10
 70
     1
 10
0.0
 20
0.0
 30
0.0
  3
*D10
  1

  0
LINE
  5
16822
330
16821
100
AcDbEntity
  8
Control object
  6
Continuous
 62
     0
370
    -2
100
AcDbLine
 10
-21731.27492055512
 20
37754.79625449682
 30
0.0
 11
-25533.06549624667
 21
37754.79625449682
 31
0.0
  0
LINE
  5
16823
330
16821
100
AcDbEntity
  8
Control object
  6
Continuous
 62
     0
370
    -2
100
AcDbLine
 10
-21097.78978832526
 20
37354.52516925574
 30
0.0
 11
-25533.06549624667
 21
37354.52516925574
 31
0.0
  0
LINE
  5
16824
330
16821
100
AcDbEntity
  8
Control object
  6
Continuous
 62
     7
370
    -2
100
AcDbLine
 10
-25532.76549624667
 20
37742.79625449682
 30
0.0
 11
-25532.76549624667
 21
37563.79168049838
 31
0.0
  0
LINE
  5
16825
330
16821
100
AcDbEntity
  8
Control object
  6
Continuous
 62
     7
370
    -2
100
AcDbLine
 10
-25532.76549624667
 20
37366.52516925574
 30
0.0
 11
-25532.76549624667
 21
37545.52974325418
 31
0.0
  0
SOLID
  5
16826
330
16821
100
AcDbEntity
  8
Control object
  6
Continuous
 62
     7
100
AcDbTrace
 10
-25534.76549624667
 20
37742.79625449682
 30
0.0
 11
-25530.76549624667
 21
37742.79625449682
 31
0.0
 12
-25532.76549624667
 22
37754.79625449682
 32
0.0
 13
-25532.76549624667
 23
37754.79625449682
 33
0.0
  0
SOLID
  5
16827
330
16821
100
AcDbEntity
  8
Control object
  6
Continuous
 62
     7
100
AcDbTrace
 10
-25534.76549624667
 20
37366.52516925574
 30
0.0
 11
-25530.76549624667
 21
37366.52516925574
 31
0.0
 12
-25532.76549624667
 22
37354.52516925574
 32
0.0
 13
-25532.76549624667
 23
37354.52516925574
 33
0.0
  0
MTEXT
  5
16828
330
16821
100
AcDbEntity
  8
Control object
  6
Continuous
 62
     7
100
AcDbMText
 10
-25532.76549624668
 20
37554.66071187627
 30
0.0
 40
12.0
 41
0.0
 71
     5
 72
     1
  1
\A1;400.3
  7
ARIAL
 73
     1
 44
1.0
  0
POINT
  5
16829
330
16821
100
AcDbEntity
  8
DEFPOINTS
  6
Continuous
 62
     0
100
AcDbPoint
 10
-21731.21492055512
 20
37754.79625449682
 30
0.0
  0
POINT
  5
1682A
330
16821
100
AcDbEntity
  8
DEFPOINTS
  6
Continuous
 62
     0
100
AcDbPoint
 10
-21097.72978832526
 20
37354.52516925574
 30
0.0
  0
POINT
  5
1682B
330
16821
100
AcDbEntity
  8
DEFPOINTS
  6
Continuous
 62
     0
100
AcDbPoint
 10
-25532.76549624667
 20
37354.52516925574
 30
0.0
  0
ENDBLK
  5
1682D
330
16821
100
AcDbEntity
  8
0
100
AcDbBlockEnd
  0
BLOCK
  5
1683A
330
1682F
100
AcDbEntity
  8
0
100
AcDbBlockBegin
  2
*D11
 70
     1
 10
0.0
 20
0.0
 30
0.0
  3
*D11
  1

  0
LINE
  5
16830
330
1682F
100
AcDbEntity
  8
Control object
  6
Continuous
 62
     0
370
    -2
100
AcDbLine
 10
-21097.66978832524
 20
45325.00065116829
 30
0.0
 11
-20436.40831884496
 21
45325.00065116829
 31
0.0
  0
LINE
  5
16831
330
1682F
100
AcDbEntity
  8
Control object
  6
Continuous
 62
     0
370
    -2
100
AcDbLine
 10
-21731.15492055511
 20
44824.71206846311
 30
0.0
 11
-20436.40831884496
 21
44824.71206846311
 31
0.0
  0
LINE
  5
16832
330
1682F
100
AcDbEntity
  8
Control object
  6
Continuous
 62
     7
370
    -2
100
AcDbLine
 10
-20436.70831884496
 20
45313.00065116829
 30
0.0
 11
-20436.70831884496
 21
45083.9873284378
 31
0.0
  0
LINE
  5
16833
330
1682F
100
AcDbEntity
  8
Control object
  6
Continuous
 62
     7
370
    -2
100
AcDbLine
 10
-20436.70831884496
 20
44836.71206846311
 30
0.0
 11
-20436.70831884496
 21
45065.7253911936
 31
0.0
  0
SOLID
  5
16834
330
1682F
100
AcDbEntity
  8
Control object
  6
Continuous
 62
     7
100
AcDbTrace
 10
-20438.70831884496
 20
45313.00065116829
 30
0.0
 11
-20434.70831884496
 21
45313.00065116829
 31
0.0
 12
-20436.70831884496
 22
45325.00065116829
 32
0.0
 13
-20436.70831884496
 23
45325.00065116829
 33
0.0
  0
SOLID
  5
16835
330
1682F
100
AcDbEntity
  8
Control object
  6
Continuous
 62
     7
100
AcDbTrace
 10
-20438.70831884496
 20
44836.71206846311
 30
0.0
 11
-20434.70831884496
 21
44836.71206846311
 31
0.0
 12
-20436.70831884496
 22
44824.71206846311
 32
0.0
 13
-20436.70831884496
 23
44824.71206846311
 33
0.0
  0
MTEXT
  5
16836
330
1682F
100
AcDbEntity
  8
Control object
  6
Continuous
 62
     7
100
AcDbMText
 10
-20436.70831884497
 20
45074.85635981568
 30
0.0
 40
12.0
 41
0.0
 71
     5
 72
     1
  1
\A1;500.3
  7
ARIAL
 73
     1
 44
1.0
  0
POINT
  5
16837
330
1682F
100
AcDbEntity
  8
DEFPOINTS
  6
Continuous
 62
     0
100
AcDbPoint
 10
-21097.72978832524
 20
45325.00065116829
 30
0.0
  0
POINT
  5
16838
330
1682F
100
AcDbEntity
  8
DEFPOINTS
  6
Continuous
 62
     0
100
AcDbPoint
 10
-21731.21492055511
 20
44824.71206846311
 30
0.0
  0
POINT
  5
16839
330
1682F
100
AcDbEntity
  8
DEFPOINTS
  6
Continuous
 62
     0
100
AcDbPoint
 10
-20436.70831884496
 20
44824.71206846311
 30
0.0
  0
ENDBLK
  5
1683B
330
1682F
100
AcDbEntity
  8
0
100
AcDbBlockEnd
  0
ENDSEC
  0
SECTION
  2
ENTITIES
  0
INSERT
  5
17
330
2E3A
100
AcDbEntity
  8
LAYER1
100
AcDbBlockReference
  2
AME_NIL
 10
0.0
 20
0.0
 30
0.0
  0
INSERT
  5
29
330
2E3A
100
AcDbEntity
  8
LAYER1
100
AcDbBlockReference
  2
AME_SOL
 10
0.0
 20
0.0
 30
0.0
1001
AME_SOL
1000
R2.1
1000
AME2
1000
sq m
1070
     3
1070
     0
1070
     3
1000
mesh
1040
45.0
1000
U
1040
1.0
1000
m
1000
gm
1000
MILD_STEEL
1070
    25
1000
CSG
1070
     1
1070
     3
1070
     3
1070
     3
1070
     0
1000
cu cm
1070
     1
1070
     0
1005
17
  0
TEXT
  5
50
330
2E3A
100
AcDbEntity
  8
TEKST
100
AcDbText
 10
11.52210026922298
 20
20.64189715824095
 30
0.0
 40
2.5
  1

  7
ROMANS
100
AcDbText
  0
INSERT
  5
2E80
330
2E3A
100
AcDbEntity
  8
ASHADE
 62
     1
100
AcDbBlockReference
  2
AVE_RENDER
 10
0.0
 20
0.0
 30
0.0
1001
AVE_RENDER
1002
{
1070
     6
1000
Pref
1070
    30
1070
    20
1070
     1
1070
     0
1000

1070
    10
1070
     1
1070
    30
1040
1.0
1070
     1
1040
0.3
1040
0.7
1040
0.0
1040
10.0
1010
-1.0
1020
-1.0
1030
-1.0
1040
0.3
1070
    49
1070
     0
1070
     0
1010
1.0
1020
1.0
1030
1.0
1040
45.0
1070
     1
1070
     0
1000
WCS
1040
0.0
1002
}
  0
INSERT
  5
2E81
330
2E3A
100
AcDbEntity
  8
ASHADE
 62
     3
100
AcDbBlockReference
  2
AVE_RENDER
 10
0.0
 20
0.0
 30
0.0
1001
AVE_RENDER
1002
{
1070
     0
1000
Full Opt
1070
     0
1070
     1
1070
     1
1070
     1
1070
     0
1070
     0
1070
     0
1070
     1
1070
     1
1040
0.0001
1040
0.0001
1002
}
  0
INSERT
  5
2E82
330
2E3A
100
AcDbEntity
  8
ASHADE
 62
     4
100
AcDbBlockReference
  2
AVE_RENDER
 10
0.0
 20
0.0
 30
0.0
1001
AVE_RENDER
1002
{
1070
     0
1000
Quick Opt
1070
     0
1070
     1
1070
     1
1070
     1
1070
     0
1070
     0
1070
     1
1002
}
  0
INSERT
  5
2E83
330
2E3A
100
AcDbEntity
  8
ASHADE
 62
     5
100
AcDbBlockReference
  2
AVE_RENDER
 10
0.0
 20
0.0
 30
0.0
1001
AVE_RENDER
1002
{
1070
     1
1000
Scanl Opt
1070
     2
1070
     0
1070
     2
1040
2.0
1040
4.0
1070
     0
1070
     1
1070
     0
1040
0.03
1002
}
  0
INSERT
  5
2E84
330
2E3A
100
AcDbEntity
  8
ASHADE
 62
     6
100
AcDbBlockReference
  2
AVE_RENDER
 10
0.0
 20
0.0
 30
0.0
1001
AVE_RENDER
1002
{
1070
     2
1000
Raytr Opt
1070
     2
1070
     0
1070
     2
1040
2.0
1040
4.0
1070
     0
1070
     1
1070
     1
1040
0.03
1070
     3
1040
0.03
1002
}
  0
INSERT
  5
2E85
330
2E3A
100
AcDbEntity
  8
ASHADE
 62
     7
100
AcDbBlockReference
  2
AVE_RENDER
 10
0.0
 20
0.0
 30
0.0
1001
AVE_RENDER
1002
{
1070
     0
1000
RFile Opt
1070
     5
1070
   640
1070
   480
1070
 10000
1070
     3
1070
    32
1070
    24
1070
     0
1070
     0
1070
     0
1070
     1
1070
     0
1070
     0
1070
     0
1002
}
  0
INSERT
  5
2E86
330
2E3A
100
AcDbEntity
  8
ASHADE
 62
     8
100
AcDbBlockReference
  2
AVE_RENDER
 10
0.0
 20
0.0
 30
0.0
1001
AVE_RENDER
1002
{
1070
     0
1000
Fog Opt
1070
     0
1070
     0
1040
0.0
1040
1.0
1040
0.0
1040
1.0
1010
0.5
1020
0.5
1030
0.5
1002
}
  0
INSERT
  5
2E87
330
2E3A
100
AcDbEntity
  8
ASHADE
 62
     9
100
AcDbBlockReference
  2
AVE_RENDER
 10
0.0
 20
0.0
 30
0.0
1001
AVE_RENDER
1002
{
1070
     0
1000
BG Opt
1070
     0
1070
     1
1010
0.0
1020
0.0
1030
0.0
1010
1.0
1020
0.0
1030
0.0
1010
0.0
1020
1.0
1030
0.0
1010
0.0
1020
0.0
1030
1.0
1040
0.5
1040
0.33
1040
0.0
1000

1070
     1
1000

1070
     1
1070
     1
1040
1.0
1040
1.0
1040
0.0
1040
0.0
1070
     0
1002
}
  0
INSERT
  5
2E8E
330
2E3A
100
AcDbEntity
  8
ASHADE
 62
     1
100
AcDbBlockReference
  2
AVE_GLOBAL
 10
0.0
 20
0.0
 30
0.0
1001
AVE_MATERIAL
1002
{
1000
*GLOBAL*
1000
1
1000
Global finish.
1002
{
1002
}
1002
{
1070
    63
1002
{
1002
{
1010
-1.0
1020
-1.0
1030
-1.0
1002
}
1040
0.1000000014901161
1000

1040
0.0
1002
{
1002
}
1040
0.0
1002
{
1002
}
1040
0.0
1002
}
1002
{
1002
{
1010
-1.0
1020
-1.0
1030
-1.0
1002
}
1040
0.6999999880790711
1000

1040
0.0
1002
{
1002
}
1040
0.0
1002
{
1002
}
1040
0.0
1002
}
1002
{
1002
{
1010
-1.0
1020
-1.0
1030
-1.0
1002
}
1040
0.2000000029802322
1000

1040
0.0
1002
{
1002
}
1040
0.0
1002
{
1002
}
1040
0.0
1002
}
1002
{
1070
     0
1002
{
1070
     1
1002
{
1040
1.0
1040
1.0
1000

1040
0.0
1002
{
1002
}
1040
0.0
1002
{
1002
}
1040
0.0
1002
}
1002
}
1040
1.0
1040
0.0
1040
0.0
1002
}
1002
{
1040
1.0
1040
1.0
1000

1040
0.0
1002
{
1002
}
1040
0.0
1002
{
1002
}
1040
0.0
1002
}
1002
{
1040
0.5
1040
1.0
1000

1040
0.0
1002
{
1002
}
1040
0.0
1002
{
1002
}
1040
0.0
1002
}
1002
{
1070
     0
1040
0.0
1002
{
1002
}
1040
1.0
1002
{
1002
}
1040
0.0
1002
}
1002
{
1040
0.0
1002
{
1002
{
1010
0.0
1020
0.0
1030
0.0
1002
}
1040
1.0
1000

1040
0.0
1002
{
1002
}
1040
0.0
1002
{
1002
}
1040
0.0
1002
}
1002
}
1002
{
1002
{
1070
     1
1002
{
1040
0.0
1040
1.0
1000

1040
0.0
1002
{
1002
}
1040
0.0
1002
{
1002
}
1040
0.0
1002
}
1002
}
1040
0.0
1002
{
1002
}
1010
1.0
1020
0.0
1030
0.0
1010
0.0
1020
1.0
1030
0.0
1010
0.0
1020
0.0
1030
1.0
1070
     0
1002
}
1002
{
1002
{
1040
1.0
1040
1.0
1002
{
1070
     1
1002
{
1040
1.0
1040
1.0
1000

1040
0.0
1002
{
1002
}
1040
0.0
1002
{
1002
}
1040
0.0
1002
}
1002
}
1002
}
1070
     0
1040
0.0
1002
{
1002
}
1002
}
1002
{
1002
}
1002
}
1002
{
1071
        3
1070
     3
1070
     0
1002
{
1070
     2
1070
     0
1070
     0
1040
0.0
1002
}
1070
     0
1070
     2
1002
{
1002
}
1002
}
1002
{
1040
8030.0
1040
190.3000030517578
1040
0.3050000071525574
1040
228.0
1040
545.0
1040
14.0
1040
17.39999961853027
1040
0.4560000002384186
1002
}
1002
}
  0
INSERT
  5
10E9D
330
2E3A
100
AcDbEntity
  8
LAYER1
100
AcDbBlockReference
  2
AME_NIL
 10
436.8103605630293
 20
-215.6608172053943
 30
0.0
  0
INSERT
  5
10E9E
330
2E3A
100
AcDbEntity
  8
LAYER1
100
AcDbBlockReference
  2
AME_SOL
 10
436.8103605630293
 20
-215.6608172053943
 30
0.0
1001
AME_SOL
1000
R2.1
1000
AME2
1000
sq m
1070
     3
1070
     0
1070
     3
1000
mesh
1040
45.0
1000
U
1040
1.0
1000
m
1000
gm
1000
MILD_STEEL
1070
    25
1000
CSG
1070
     1
1070
     3
1070
     3
1070
     3
1070
     0
1000
cu cm
1070
     1
1070
     0
1005
10E9D
  0
TEXT
  5
10E9F
330
2E3A
100
AcDbEntity
  8
TEKST
100
AcDbText
 10
448.3324608322523
 20
-195.0189200471533
 30
0.0
 40
2.5
  1

  7
ROMANS
100
AcDbText
  0
INSERT
  5
10EA0
330
2E3A
100
AcDbEntity
  8
ASHADE
 62
     1
100
AcDbBlockReference
  2
AVE_RENDER
 10
436.8103605630293
 20
-215.6608172053943
 30
0.0
1001
AVE_RENDER
1002
{
1070
     6
1000
Pref
1070
    30
1070
    20
1070
     1
1070
     0
1000

1070
    10
1070
     1
1070
    30
1040
1.0
1070
     1
1040
0.3
1040
0.7
1040
0.0
1040
10.0
1010
-1.0
1020
-1.0
1030
-1.0
1040
0.3
1070
    49
1070
     0
1070
     0
1010
1.0
1020
1.0
1030
1.0
1040
45.0
1070
     1
1070
     0
1000
WCS
1040
0.0
1002
}
  0
INSERT
  5
10EA1
330
2E3A
100
AcDbEntity
  8
ASHADE
 62
     3
100
AcDbBlockReference
  2
AVE_RENDER
 10
436.8103605630293
 20
-215.6608172053943
 30
0.0
1001
AVE_RENDER
1002
{
1070
     0
1000
Full Opt
1070
     0
1070
     1
1070
     1
1070
     1
1070
     0
1070
     0
1070
     0
1070
     1
1070
     1
1040
0.0001
1040
0.0001
1002
}
  0
INSERT
  5
10EA2
330
2E3A
100
AcDbEntity
  8
ASHADE
 62
     4
100
AcDbBlockReference
  2
AVE_RENDER
 10
436.8103605630293
 20
-215.6608172053943
 30
0.0
1001
AVE_RENDER
1002
{
1070
     0
1000
Quick Opt
1070
     0
1070
     1
1070
     1
1070
     1
1070
     0
1070
     0
1070
     1
1002
}
  0
INSERT
  5
10EA3
330
2E3A
100
AcDbEntity
  8
ASHADE
 62
     5
100
AcDbBlockReference
  2
AVE_RENDER
 10
436.8103605630293
 20
-215.6608172053943
 30
0.0
1001
AVE_RENDER
1002
{
1070
     1
1000
Scanl Opt
1070
     2
1070
     0
1070
     2
1040
2.0
1040
4.0
1070
     0
1070
     1
1070
     0
1040
0.03
1002
}
  0
INSERT
  5
10EA4
330
2E3A
100
AcDbEntity
  8
ASHADE
 62
     6
100
AcDbBlockReference
  2
AVE_RENDER
 10
436.8103605630293
 20
-215.6608172053943
 30
0.0
1001
AVE_RENDER
1002
{
1070
     2
1000
Raytr Opt
1070
     2
1070
     0
1070
     2
1040
2.0
1040
4.0
1070
     0
1070
     1
1070
     1
1040
0.03
1070
     3
1040
0.03
1002
}
  0
INSERT
  5
10EA5
330
2E3A
100
AcDbEntity
  8
ASHADE
 62
     7
100
AcDbBlockReference
  2
AVE_RENDER
 10
436.8103605630293
 20
-215.6608172053943
 30
0.0
1001
AVE_RENDER
1002
{
1070
     0
1000
RFile Opt
1070
     5
1070
   640
1070
   480
1070
 10000
1070
     3
1070
    32
1070
    24
1070
     0
1070
     0
1070
     0
1070
     1
1070
     0
1070
     0
1070
     0
1002
}
  0
INSERT
  5
10EA6
330
2E3A
100
AcDbEntity
  8
ASHADE
 62
     8
100
AcDbBlockReference
  2
AVE_RENDER
 10
436.8103605630293
 20
-215.6608172053943
 30
0.0
1001
AVE_RENDER
1002
{
1070
     0
1000
Fog Opt
1070
     0
1070
     0
1040
0.0
1040
1.0
1040
0.0
1040
1.0
1010
0.5
1020
0.5
1030
0.5
1002
}
  0
INSERT
  5
10EA7
330
2E3A
100
AcDbEntity
  8
ASHADE
 62
     9
100
AcDbBlockReference
  2
AVE_RENDER
 10
436.8103605630293
 20
-215.6608172053943
 30
0.0
1001
AVE_RENDER
1002
{
1070
     0
1000
BG Opt
1070
     0
1070
     1
1010
0.0
1020
0.0
1030
0.0
1010
1.0
1020
0.0
1030
0.0
1010
0.0
1020
1.0
1030
0.0
1010
0.0
1020
0.0
1030
1.0
1040
0.5
1040
0.33
1040
0.0
1000

1070
     1
1000

1070
     1
1070
     1
1040
1.0
1040
1.0
1040
0.0
1040
0.0
1070
     0
1002
}
  0
INSERT
  5
10EA8
330
2E3A
100
AcDbEntity
  8
ASHADE
 62
     1
100
AcDbBlockReference
  2
AVE_GLOBAL
 10
436.8103605630293
 20
-215.6608172053943
 30
0.0
1001
AVE_MATERIAL
1002
{
1000
*GLOBAL*
1000
1
1000
Global finish.
1002
{
1002
}
1002
{
1070
    63
1002
{
1002
{
1010
-1.0
1020
-1.0
1030
-1.0
1002
}
1040
0.1000000014901161
1000

1040
0.0
1002
{
1002
}
1040
0.0
1002
{
1002
}
1040
0.0
1002
}
1002
{
1002
{
1010
-1.0
1020
-1.0
1030
-1.0
1002
}
1040
0.6999999880790711
1000

1040
0.0
1002
{
1002
}
1040
0.0
1002
{
1002
}
1040
0.0
1002
}
1002
{
1002
{
1010
-1.0
1020
-1.0
1030
-1.0
1002
}
1040
0.2000000029802322
1000

1040
0.0
1002
{
1002
}
1040
0.0
1002
{
1002
}
1040
0.0
1002
}
1002
{
1070
     0
1002
{
1070
     1
1002
{
1040
1.0
1040
1.0
1000

1040
0.0
1002
{
1002
}
1040
0.0
1002
{
1002
}
1040
0.0
1002
}
1002
}
1040
1.0
1040
0.0
1040
0.0
1002
}
1002
{
1040
1.0
1040
1.0
1000

1040
0.0
1002
{
1002
}
1040
0.0
1002
{
1002
}
1040
0.0
1002
}
1002
{
1040
0.5
1040
1.0
1000

1040
0.0
1002
{
1002
}
1040
0.0
1002
{
1002
}
1040
0.0
1002
}
1002
{
1070
     0
1040
0.0
1002
{
1002
}
1040
1.0
1002
{
1002
}
1040
0.0
1002
}
1002
{
1040
0.0
1002
{
1002
{
1010
0.0
1020
0.0
1030
0.0
1002
}
1040
1.0
1000

1040
0.0
1002
{
1002
}
1040
0.0
1002
{
1002
}
1040
0.0
1002
}
1002
}
1002
{
1002
{
1070
     1
1002
{
1040
0.0
1040
1.0
1000

1040
0.0
1002
{
1002
}
1040
0.0
1002
{
1002
}
1040
0.0
1002
}
1002
}
1040
0.0
1002
{
1002
}
1010
1.0
1020
0.0
1030
0.0
1010
0.0
1020
1.0
1030
0.0
1010
0.0
1020
0.0
1030
1.0
1070
     0
1002
}
1002
{
1002
{
1040
1.0
1040
1.0
1002
{
1070
     1
1002
{
1040
1.0
1040
1.0
1000

1040
0.0
1002
{
1002
}
1040
0.0
1002
{
1002
}
1040
0.0
1002
}
1002
}
1002
}
1070
     0
1040
0.0
1002
{
1002
}
1002
}
1002
{
1002
}
1002
}
1002
{
1071
        3
1070
     3
1070
     0
1002
{
1070
     2
1070
     0
1070
     0
1040
0.0
1002
}
1070
     0
1070
     2
1002
{
1002
}
1002
}
1002
{
1040
8030.0
1040
190.3000030517578
1040
0.3050000071525574
1040
228.0
1040
545.0
1040
14.0
1040
17.39999961853027
1040
0.4560000002384186
1002
}
1002
}
  0
TEXT
  5
10EA9
330
2E3A
100
AcDbEntity
  8
0
 62
     7
 48
5.0
100
AcDbText
 10
-1248.752895886679
 20
165.3686324960031
 30
0.0
 40
3.809829827610412
  1
 
 41
0.75
100
AcDbText
  0
INSERT
  5
10EAA
330
2E3A
100
AcDbEntity
  8
LAYER1
100
AcDbBlockReference
  2
AME_NIL
 10
-2402.748217515968
 20
517.4898289907482
 30
0.0
  0
INSERT
  5
10EAB
330
2E3A
100
AcDbEntity
  8
LAYER1
100
AcDbBlockReference
  2
AME_SOL
 10
-2402.748217515968
 20
517.4898289907482
 30
0.0
1001
AME_SOL
1000
R2.1
1000
AME2
1000
sq m
1070
     3
1070
     0
1070
     3
1000
mesh
1040
45.0
1000
U
1040
1.0
1000
m
1000
gm
1000
MILD_STEEL
1070
    25
1000
CSG
1070
     1
1070
     3
1070
     3
1070
     3
1070
     0
1000
cu cm
1070
     1
1070
     0
1005
10EAA
  0
TEXT
  5
10EAC
330
2E3A
100
AcDbEntity
  8
TEKST
100
AcDbText
 10
-2391.226117246745
 20
538.1317261489892
 30
0.0
 40
2.5
  1

  7
ROMANS
100
AcDbText
  0
INSERT
  5
10EAD
330
2E3A
100
AcDbEntity
  8
ASHADE
 62
     1
100
AcDbBlockReference
  2
AVE_RENDER
 10
-2402.748217515968
 20
517.4898289907482
 30
0.0
1001
AVE_RENDER
1002
{
1070
     6
1000
Pref
1070
    30
1070
    20
1070
     1
1070
     0
1000

1070
    10
1070
     1
1070
    30
1040
1.0
1070
     1
1040
0.3
1040
0.7
1040
0.0
1040
10.0
1010
-1.0
1020
-1.0
1030
-1.0
1040
0.3
1070
    49
1070
     0
1070
     0
1010
1.0
1020
1.0
1030
1.0
1040
45.0
1070
     1
1070
     0
1000
WCS
1040
0.0
1002
}
  0
INSERT
  5
10EAE
330
2E3A
100
AcDbEntity
  8
ASHADE
 62
     3
100
AcDbBlockReference
  2
AVE_RENDER
 10
-2402.748217515968
 20
517.4898289907482
 30
0.0
1001
AVE_RENDER
1002
{
1070
     0
1000
Full Opt
1070
     0
1070
     1
1070
     1
1070
     1
1070
     0
1070
     0
1070
     0
1070
     1
1070
     1
1040
0.0001
1040
0.0001
1002
}
  0
INSERT
  5
10EAF
330
2E3A
100
AcDbEntity
  8
ASHADE
 62
     4
100
AcDbBlockReference
  2
AVE_RENDER
 10
-2402.748217515968
 20
517.4898289907482
 30
0.0
1001
AVE_RENDER
1002
{
1070
     0
1000
Quick Opt
1070
     0
1070
     1
1070
     1
1070
     1
1070
     0
1070
     0
1070
     1
1002
}
  0
INSERT
  5
10EB0
330
2E3A
100
AcDbEntity
  8
ASHADE
 62
     5
100
AcDbBlockReference
  2
AVE_RENDER
 10
-2402.748217515968
 20
517.4898289907482
 30
0.0
1001
AVE_RENDER
1002
{
1070
     1
1000
Scanl Opt
1070
     2
1070
     0
1070
     2
1040
2.0
1040
4.0
1070
     0
1070
     1
1070
     0
1040
0.03
1002
}
  0
INSERT
  5
10EB1
330
2E3A
100
AcDbEntity
  8
ASHADE
 62
     6
100
AcDbBlockReference
  2
AVE_RENDER
 10
-2402.748217515968
 20
517.4898289907482
 30
0.0
1001
AVE_RENDER
1002
{
1070
     2
1000
Raytr Opt
1070
     2
1070
     0
1070
     2
1040
2.0
1040
4.0
1070
     0
1070
     1
1070
     1
1040
0.03
1070
     3
1040
0.03
1002
}
  0
INSERT
  5
10EB2
330
2E3A
100
AcDbEntity
  8
ASHADE
 62
     7
100
AcDbBlockReference
  2
AVE_RENDER
 10
-2402.748217515968
 20
517.4898289907482
 30
0.0
1001
AVE_RENDER
1002
{
1070
     0
1000
RFile Opt
1070
     5
1070
   640
1070
   480
1070
 10000
1070
     3
1070
    32
1070
    24
1070
     0
1070
     0
1070
     0
1070
     1
1070
     0
1070
     0
1070
     0
1002
}
  0
INSERT
  5
10EB3
330
2E3A
100
AcDbEntity
  8
ASHADE
 62
     8
100
AcDbBlockReference
  2
AVE_RENDER
 10
-2402.748217515968
 20
517.4898289907482
 30
0.0
1001
AVE_RENDER
1002
{
1070
     0
1000
Fog Opt
1070
     0
1070
     0
1040
0.0
1040
1.0
1040
0.0
1040
1.0
1010
0.5
1020
0.5
1030
0.5
1002
}
  0
INSERT
  5
10EB4
330
2E3A
100
AcDbEntity
  8
ASHADE
 62
     9
100
AcDbBlockReference
  2
AVE_RENDER
 10
-2402.748217515968
 20
517.4898289907482
 30
0.0
1001
AVE_RENDER
1002
{
1070
     0
1000
BG Opt
1070
     0
1070
     1
1010
0.0
1020
0.0
1030
0.0
1010
1.0
1020
0.0
1030
0.0
1010
0.0
1020
1.0
1030
0.0
1010
0.0
1020
0.0
1030
1.0
1040
0.5
1040
0.33
1040
0.0
1000

1070
     1
1000

1070
     1
1070
     1
1040
1.0
1040
1.0
1040
0.0
1040
0.0
1070
     0
1002
}
  0
INSERT
  5
10EB5
330
2E3A
100
AcDbEntity
  8
ASHADE
 62
     1
100
AcDbBlockReference
  2
AVE_GLOBAL
 10
-2402.748217515968
 20
517.4898289907482
 30
0.0
1001
AVE_MATERIAL
1002
{
1000
*GLOBAL*
1000
1
1000
Global finish.
1002
{
1002
}
1002
{
1070
    63
1002
{
1002
{
1010
-1.0
1020
-1.0
1030
-1.0
1002
}
1040
0.1000000014901161
1000

1040
0.0
1002
{
1002
}
1040
0.0
1002
{
1002
}
1040
0.0
1002
}
1002
{
1002
{
1010
-1.0
1020
-1.0
1030
-1.0
1002
}
1040
0.6999999880790711
1000

1040
0.0
1002
{
1002
}
1040
0.0
1002
{
1002
}
1040
0.0
1002
}
1002
{
1002
{
1010
-1.0
1020
-1.0
1030
-1.0
1002
}
1040
0.2000000029802322
1000

1040
0.0
1002
{
1002
}
1040
0.0
1002
{
1002
}
1040
0.0
1002
}
1002
{
1070
     0
1002
{
1070
     1
1002
{
1040
1.0
1040
1.0
1000

1040
0.0
1002
{
1002
}
1040
0.0
1002
{
1002
}
1040
0.0
1002
}
1002
}
1040
1.0
1040
0.0
1040
0.0
1002
}
1002
{
1040
1.0
1040
1.0
1000

1040
0.0
1002
{
1002
}
1040
0.0
1002
{
1002
}
1040
0.0
1002
}
1002
{
1040
0.5
1040
1.0
1000

1040
0.0
1002
{
1002
}
1040
0.0
1002
{
1002
}
1040
0.0
1002
}
1002
{
1070
     0
1040
0.0
1002
{
1002
}
1040
1.0
1002
{
1002
}
1040
0.0
1002
}
1002
{
1040
0.0
1002
{
1002
{
1010
0.0
1020
0.0
1030
0.0
1002
}
1040
1.0
1000

1040
0.0
1002
{
1002
}
1040
0.0
1002
{
1002
}
1040
0.0
1002
}
1002
}
1002
{
1002
{
1070
     1
1002
{
1040
0.0
1040
1.0
1000

1040
0.0
1002
{
1002
}
1040
0.0
1002
{
1002
}
1040
0.0
1002
}
1002
}
1040
0.0
1002
{
1002
}
1010
1.0
1020
0.0
1030
0.0
1010
0.0
1020
1.0
1030
0.0
1010
0.0
1020
0.0
1030
1.0
1070
     0
1002
}
1002
{
1002
{
1040
1.0
1040
1.0
1002
{
1070
     1
1002
{
1040
1.0
1040
1.0
1000

1040
0.0
1002
{
1002
}
1040
0.0
1002
{
1002
}
1040
0.0
1002
}
1002
}
1002
}
1070
     0
1040
0.0
1002
{
1002
}
1002
}
1002
{
1002
}
1002
}
1002
{
1071
        3
1070
     3
1070
     0
1002
{
1070
     2
1070
     0
1070
     0
1040
0.0
1002
}
1070
     0
1070
     2
1002
{
1002
}
1002
}
1002
{
1040
8030.0
1040
190.3000030517578
1040
0.3050000071525574
1040
228.0
1040
545.0
1040
14.0
1040
17.39999961853027
1040
0.4560000002384186
1002
}
1002
}
  0
INSERT
  5
10EB6
330
2E3A
100
AcDbEntity
  8
LAYER1
100
AcDbBlockReference
  2
AME_NIL
 10
-484.0180840161846
 20
686.0103158393807
 30
0.0
  0
INSERT
  5
10EB7
330
2E3A
100
AcDbEntity
  8
LAYER1
100
AcDbBlockReference
  2
AME_SOL
 10
-484.0180840161846
 20
686.0103158393807
 30
0.0
1001
AME_SOL
1000
R2.1
1000
AME2
1000
sq m
1070
     3
1070
     0
1070
     3
1000
mesh
1040
45.0
1000
U
1040
1.0
1000
m
1000
gm
1000
MILD_STEEL
1070
    25
1000
CSG
1070
     1
1070
     3
1070
     3
1070
     3
1070
     0
1000
cu cm
1070
     1
1070
     0
1005
10EB6
  0
TEXT
  5
10EB8
330
2E3A
100
AcDbEntity
  8
TEKST
100
AcDbText
 10
-472.4959837469618
 20
706.6522129976217
 30
0.0
 40
2.5
  1

  7
ROMANS
100
AcDbText
  0
INSERT
  5
10EB9
330
2E3A
100
AcDbEntity
  8
ASHADE
 62
     1
100
AcDbBlockReference
  2
AVE_RENDER
 10
-484.0180840161846
 20
686.0103158393807
 30
0.0
1001
AVE_RENDER
1002
{
1070
     6
1000
Pref
1070
    30
1070
    20
1070
     1
1070
     0
1000

1070
    10
1070
     1
1070
    30
1040
1.0
1070
     1
1040
0.3
1040
0.7
1040
0.0
1040
10.0
1010
-1.0
1020
-1.0
1030
-1.0
1040
0.3
1070
    49
1070
     0
1070
     0
1010
1.0
1020
1.0
1030
1.0
1040
45.0
1070
     1
1070
     0
1000
WCS
1040
0.0
1002
}
  0
INSERT
  5
10EBA
330
2E3A
100
AcDbEntity
  8
ASHADE
 62
     3
100
AcDbBlockReference
  2
AVE_RENDER
 10
-484.0180840161846
 20
686.0103158393807
 30
0.0
1001
AVE_RENDER
1002
{
1070
     0
1000
Full Opt
1070
     0
1070
     1
1070
     1
1070
     1
1070
     0
1070
     0
1070
     0
1070
     1
1070
     1
1040
0.0001
1040
0.0001
1002
}
  0
INSERT
  5
10EBB
330
2E3A
100
AcDbEntity
  8
ASHADE
 62
     4
100
AcDbBlockReference
  2
AVE_RENDER
 10
-484.0180840161846
 20
686.0103158393807
 30
0.0
1001
AVE_RENDER
1002
{
1070
     0
1000
Quick Opt
1070
     0
1070
     1
1070
     1
1070
     1
1070
     0
1070
     0
1070
     1
1002
}
  0
INSERT
  5
10EBC
330
2E3A
100
AcDbEntity
  8
ASHADE
 62
     5
100
AcDbBlockReference
  2
AVE_RENDER
 10
-484.0180840161846
 20
686.0103158393807
 30
0.0
1001
AVE_RENDER
1002
{
1070
     1
1000
Scanl Opt
1070
     2
1070
     0
1070
     2
1040
2.0
1040
4.0
1070
     0
1070
     1
1070
     0
1040
0.03
1002
}
  0
INSERT
  5
10EBD
330
2E3A
100
AcDbEntity
  8
ASHADE
 62
     6
100
AcDbBlockReference
  2
AVE_RENDER
 10
-484.0180840161846
 20
686.0103158393807
 30
0.0
1001
AVE_RENDER
1002
{
1070
     2
1000
Raytr Opt
1070
     2
1070
     0
1070
     2
1040
2.0
1040
4.0
1070
     0
1070
     1
1070
     1
1040
0.03
1070
     3
1040
0.03
1002
}
  0
INSERT
  5
10EBE
330
2E3A
100
AcDbEntity
  8
ASHADE
 62
     7
100
AcDbBlockReference
  2
AVE_RENDER
 10
-484.0180840161846
 20
686.0103158393807
 30
0.0
1001
AVE_RENDER
1002
{
1070
     0
1000
RFile Opt
1070
     5
1070
   640
1070
   480
1070
 10000
1070
     3
1070
    32
1070
    24
1070
     0
1070
     0
1070
     0
1070
     1
1070
     0
1070
     0
1070
     0
1002
}
  0
INSERT
  5
10EBF
330
2E3A
100
AcDbEntity
  8
ASHADE
 62
     8
100
AcDbBlockReference
  2
AVE_RENDER
 10
-484.0180840161846
 20
686.0103158393807
 30
0.0
1001
AVE_RENDER
1002
{
1070
     0
1000
Fog Opt
1070
     0
1070
     0
1040
0.0
1040
1.0
1040
0.0
1040
1.0
1010
0.5
1020
0.5
1030
0.5
1002
}
  0
INSERT
  5
10EC0
330
2E3A
100
AcDbEntity
  8
ASHADE
 62
     9
100
AcDbBlockReference
  2
AVE_RENDER
 10
-484.0180840161846
 20
686.0103158393807
 30
0.0
1001
AVE_RENDER
1002
{
1070
     0
1000
BG Opt
1070
     0
1070
     1
1010
0.0
1020
0.0
1030
0.0
1010
1.0
1020
0.0
1030
0.0
1010
0.0
1020
1.0
1030
0.0
1010
0.0
1020
0.0
1030
1.0
1040
0.5
1040
0.33
1040
0.0
1000

1070
     1
1000

1070
     1
1070
     1
1040
1.0
1040
1.0
1040
0.0
1040
0.0
1070
     0
1002
}
  0
INSERT
  5
10EC1
330
2E3A
100
AcDbEntity
  8
ASHADE
 62
     1
100
AcDbBlockReference
  2
AVE_GLOBAL
 10
-484.0180840161846
 20
686.0103158393807
 30
0.0
1001
AVE_MATERIAL
1002
{
1000
*GLOBAL*
1000
1
1000
Global finish.
1002
{
1002
}
1002
{
1070
    63
1002
{
1002
{
1010
-1.0
1020
-1.0
1030
-1.0
1002
}
1040
0.1000000014901161
1000

1040
0.0
1002
{
1002
}
1040
0.0
1002
{
1002
}
1040
0.0
1002
}
1002
{
1002
{
1010
-1.0
1020
-1.0
1030
-1.0
1002
}
1040
0.6999999880790711
1000

1040
0.0
1002
{
1002
}
1040
0.0
1002
{
1002
}
1040
0.0
1002
}
1002
{
1002
{
1010
-1.0
1020
-1.0
1030
-1.0
1002
}
1040
0.2000000029802322
1000

1040
0.0
1002
{
1002
}
1040
0.0
1002
{
1002
}
1040
0.0
1002
}
1002
{
1070
     0
1002
{
1070
     1
1002
{
1040
1.0
1040
1.0
1000

1040
0.0
1002
{
1002
}
1040
0.0
1002
{
1002
}
1040
0.0
1002
}
1002
}
1040
1.0
1040
0.0
1040
0.0
1002
}
1002
{
1040
1.0
1040
1.0
1000

1040
0.0
1002
{
1002
}
1040
0.0
1002
{
1002
}
1040
0.0
1002
}
1002
{
1040
0.5
1040
1.0
1000

1040
0.0
1002
{
1002
}
1040
0.0
1002
{
1002
}
1040
0.0
1002
}
1002
{
1070
     0
1040
0.0
1002
{
1002
}
1040
1.0
1002
{
1002
}
1040
0.0
1002
}
1002
{
1040
0.0
1002
{
1002
{
1010
0.0
1020
0.0
1030
0.0
1002
}
1040
1.0
1000

1040
0.0
1002
{
1002
}
1040
0.0
1002
{
1002
}
1040
0.0
1002
}
1002
}
1002
{
1002
{
1070
     1
1002
{
1040
0.0
1040
1.0
1000

1040
0.0
1002
{
1002
}
1040
0.0
1002
{
1002
}
1040
0.0
1002
}
1002
}
1040
0.0
1002
{
1002
}
1010
1.0
1020
0.0
1030
0.0
1010
0.0
1020
1.0
1030
0.0
1010
0.0
1020
0.0
1030
1.0
1070
     0
1002
}
1002
{
1002
{
1040
1.0
1040
1.0
1002
{
1070
     1
1002
{
1040
1.0
1040
1.0
1000

1040
0.0
1002
{
1002
}
1040
0.0
1002
{
1002
}
1040
0.0
1002
}
1002
}
1002
}
1070
     0
1040
0.0
1002
{
1002
}
1002
}
1002
{
1002
}
1002
}
1002
{
1071
        3
1070
     3
1070
     0
1002
{
1070
     2
1070
     0
1070
     0
1040
0.0
1002
}
1070
     0
1070
     2
1002
{
1002
}
1002
}
1002
{
1040
8030.0
1040
190.3000030517578
1040
0.3050000071525574
1040
228.0
1040
545.0
1040
14.0
1040
17.39999961853027
1040
0.4560000002384186
1002
}
1002
}
  0
TEXT
  5
10EC2
330
2E3A
100
AcDbEntity
  8
0
 62
     7
 48
5.0
100
AcDbText
 10
-2169.581340465893
 20
1067.039765540778
 30
0.0
 40
3.809829827610412
  1
 
 41
0.75
100
AcDbText
  0
INSERT
  5
13A16
330
2E3A
100
AcDbEntity
  8
LAYER1
100
AcDbBlockReference
  2
AME_NIL
 10
1127.527252663858
 20
-264.6230569512117
 30
0.0
  0
INSERT
  5
13A17
330
2E3A
100
AcDbEntity
  8
LAYER1
100
AcDbBlockReference
  2
AME_SOL
 10
1127.527252663858
 20
-264.6230569512117
 30
0.0
1001
AME_SOL
1000
R2.1
1000
AME2
1000
sq m
1070
     3
1070
     0
1070
     3
1000
mesh
1040
45.0
1000
U
1040
1.0
1000
m
1000
gm
1000
MILD_STEEL
1070
    25
1000
CSG
1070
     1
1070
     3
1070
     3
1070
     3
1070
     0
1000
cu cm
1070
     1
1070
     0
1005
13A16
  0
TEXT
  5
13A18
330
2E3A
100
AcDbEntity
  8
TEKST
100
AcDbText
 10
1139.049352933081
 20
-243.9811597929708
 30
0.0
 40
2.5
  1

  7
ROMANS
100
AcDbText
  0
INSERT
  5
13A19
330
2E3A
100
AcDbEntity
  8
ASHADE
 62
     1
100
AcDbBlockReference
  2
AVE_RENDER
 10
1127.527252663858
 20
-264.6230569512117
 30
0.0
1001
AVE_RENDER
1002
{
1070
     6
1000
Pref
1070
    30
1070
    20
1070
     1
1070
     0
1000

1070
    10
1070
     1
1070
    30
1040
1.0
1070
     1
1040
0.3
1040
0.7
1040
0.0
1040
10.0
1010
-1.0
1020
-1.0
1030
-1.0
1040
0.3
1070
    49
1070
     0
1070
     0
1010
1.0
1020
1.0
1030
1.0
1040
45.0
1070
     1
1070
     0
1000
WCS
1040
0.0
1002
}
  0
INSERT
  5
13A1A
330
2E3A
100
AcDbEntity
  8
ASHADE
 62
     3
100
AcDbBlockReference
  2
AVE_RENDER
 10
1127.527252663858
 20
-264.6230569512117
 30
0.0
1001
AVE_RENDER
1002
{
1070
     0
1000
Full Opt
1070
     0
1070
     1
1070
     1
1070
     1
1070
     0
1070
     0
1070
     0
1070
     1
1070
     1
1040
0.0001
1040
0.0001
1002
}
  0
INSERT
  5
13A1B
330
2E3A
100
AcDbEntity
  8
ASHADE
 62
     4
100
AcDbBlockReference
  2
AVE_RENDER
 10
1127.527252663858
 20
-264.6230569512117
 30
0.0
1001
AVE_RENDER
1002
{
1070
     0
1000
Quick Opt
1070
     0
1070
     1
1070
     1
1070
     1
1070
     0
1070
     0
1070
     1
1002
}
  0
INSERT
  5
13A1C
330
2E3A
100
AcDbEntity
  8
ASHADE
 62
     5
100
AcDbBlockReference
  2
AVE_RENDER
 10
1127.527252663858
 20
-264.6230569512117
 30
0.0
1001
AVE_RENDER
1002
{
1070
     1
1000
Scanl Opt
1070
     2
1070
     0
1070
     2
1040
2.0
1040
4.0
1070
     0
1070
     1
1070
     0
1040
0.03
1002
}
  0
INSERT
  5
13A1D
330
2E3A
100
AcDbEntity
  8
ASHADE
 62
     6
100
AcDbBlockReference
  2
AVE_RENDER
 10
1127.527252663858
 20
-264.6230569512117
 30
0.0
1001
AVE_RENDER
1002
{
1070
     2
1000
Raytr Opt
1070
     2
1070
     0
1070
     2
1040
2.0
1040
4.0
1070
     0
1070
     1
1070
     1
1040
0.03
1070
     3
1040
0.03
1002
}
  0
INSERT
  5
13A1E
330
2E3A
100
AcDbEntity
  8
ASHADE
 62
     7
100
AcDbBlockReference
  2
AVE_RENDER
 10
1127.527252663858
 20
-264.6230569512117
 30
0.0
1001
AVE_RENDER
1002
{
1070
     0
1000
RFile Opt
1070
     5
1070
   640
1070
   480
1070
 10000
1070
     3
1070
    32
1070
    24
1070
     0
1070
     0
1070
     0
1070
     1
1070
     0
1070
     0
1070
     0
1002
}
  0
INSERT
  5
13A1F
330
2E3A
100
AcDbEntity
  8
ASHADE
 62
     8
100
AcDbBlockReference
  2
AVE_RENDER
 10
1127.527252663858
 20
-264.6230569512117
 30
0.0
1001
AVE_RENDER
1002
{
1070
     0
1000
Fog Opt
1070
     0
1070
     0
1040
0.0
1040
1.0
1040
0.0
1040
1.0
1010
0.5
1020
0.5
1030
0.5
1002
}
  0
INSERT
  5
13A20
330
2E3A
100
AcDbEntity
  8
ASHADE
 62
     9
100
AcDbBlockReference
  2
AVE_RENDER
 10
1127.527252663858
 20
-264.6230569512117
 30
0.0
1001
AVE_RENDER
1002
{
1070
     0
1000
BG Opt
1070
     0
1070
     1
1010
0.0
1020
0.0
1030
0.0
1010
1.0
1020
0.0
1030
0.0
1010
0.0
1020
1.0
1030
0.0
1010
0.0
1020
0.0
1030
1.0
1040
0.5
1040
0.33
1040
0.0
1000

1070
     1
1000

1070
     1
1070
     1
1040
1.0
1040
1.0
1040
0.0
1040
0.0
1070
     0
1002
}
  0
INSERT
  5
13A21
330
2E3A
100
AcDbEntity
  8
ASHADE
 62
     1
100
AcDbBlockReference
  2
AVE_GLOBAL
 10
1127.527252663858
 20
-264.6230569512117
 30
0.0
1001
AVE_MATERIAL
1002
{
1000
*GLOBAL*
1000
1
1000
Global finish.
1002
{
1002
}
1002
{
1070
    63
1002
{
1002
{
1010
-1.0
1020
-1.0
1030
-1.0
1002
}
1040
0.1000000014901161
1000

1040
0.0
1002
{
1002
}
1040
0.0
1002
{
1002
}
1040
0.0
1002
}
1002
{
1002
{
1010
-1.0
1020
-1.0
1030
-1.0
1002
}
1040
0.6999999880790711
1000

1040
0.0
1002
{
1002
}
1040
0.0
1002
{
1002
}
1040
0.0
1002
}
1002
{
1002
{
1010
-1.0
1020
-1.0
1030
-1.0
1002
}
1040
0.2000000029802322
1000

1040
0.0
1002
{
1002
}
1040
0.0
1002
{
1002
}
1040
0.0
1002
}
1002
{
1070
     0
1002
{
1070
     1
1002
{
1040
1.0
1040
1.0
1000

1040
0.0
1002
{
1002
}
1040
0.0
1002
{
1002
}
1040
0.0
1002
}
1002
}
1040
1.0
1040
0.0
1040
0.0
1002
}
1002
{
1040
1.0
1040
1.0
1000

1040
0.0
1002
{
1002
}
1040
0.0
1002
{
1002
}
1040
0.0
1002
}
1002
{
1040
0.5
1040
1.0
1000

1040
0.0
1002
{
1002
}
1040
0.0
1002
{
1002
}
1040
0.0
1002
}
1002
{
1070
     0
1040
0.0
1002
{
1002
}
1040
1.0
1002
{
1002
}
1040
0.0
1002
}
1002
{
1040
0.0
1002
{
1002
{
1010
0.0
1020
0.0
1030
0.0
1002
}
1040
1.0
1000

1040
0.0
1002
{
1002
}
1040
0.0
1002
{
1002
}
1040
0.0
1002
}
1002
}
1002
{
1002
{
1070
     1
1002
{
1040
0.0
1040
1.0
1000

1040
0.0
1002
{
1002
}
1040
0.0
1002
{
1002
}
1040
0.0
1002
}
1002
}
1040
0.0
1002
{
1002
}
1010
1.0
1020
0.0
1030
0.0
1010
0.0
1020
1.0
1030
0.0
1010
0.0
1020
0.0
1030
1.0
1070
     0
1002
}
1002
{
1002
{
1040
1.0
1040
1.0
1002
{
1070
     1
1002
{
1040
1.0
1040
1.0
1000

1040
0.0
1002
{
1002
}
1040
0.0
1002
{
1002
}
1040
0.0
1002
}
1002
}
1002
}
1070
     0
1040
0.0
1002
{
1002
}
1002
}
1002
{
1002
}
1002
}
1002
{
1071
        3
1070
     3
1070
     0
1002
{
1070
     2
1070
     0
1070
     0
1040
0.0
1002
}
1070
     0
1070
     2
1002
{
1002
}
1002
}
1002
{
1040
8030.0
1040
190.3000030517578
1040
0.3050000071525574
1040
228.0
1040
545.0
1040
14.0
1040
17.39999961853027
1040
0.4560000002384186
1002
}
1002
}
  0
TEXT
  5
13A22
330
2E3A
100
AcDbEntity
  8
0
 62
     7
 48
5.0
100
AcDbText
 10
-558.0360037858501
 20
116.4063927501858
 30
0.0
 40
3.809829827610412
  1
 
 41
0.75
100
AcDbText
  0
INSERT
  5
13A23
330
2E3A
100
AcDbEntity
  8
LAYER1
100
AcDbBlockReference
  2
AME_NIL
 10
-1712.031325415138
 20
468.5275892449308
 30
0.0
  0
INSERT
  5
13A24
330
2E3A
100
AcDbEntity
  8
LAYER1
100
AcDbBlockReference
  2
AME_SOL
 10
-1712.031325415138
 20
468.5275892449308
 30
0.0
1001
AME_SOL
1000
R2.1
1000
AME2
1000
sq m
1070
     3
1070
     0
1070
     3
1000
mesh
1040
45.0
1000
U
1040
1.0
1000
m
1000
gm
1000
MILD_STEEL
1070
    25
1000
CSG
1070
     1
1070
     3
1070
     3
1070
     3
1070
     0
1000
cu cm
1070
     1
1070
     0
1005
13A23
  0
TEXT
  5
13A25
330
2E3A
100
AcDbEntity
  8
TEKST
100
AcDbText
 10
-1700.509225145916
 20
489.1694864031718
 30
0.0
 40
2.5
  1

  7
ROMANS
100
AcDbText
  0
INSERT
  5
13A26
330
2E3A
100
AcDbEntity
  8
ASHADE
 62
     1
100
AcDbBlockReference
  2
AVE_RENDER
 10
-1712.031325415138
 20
468.5275892449308
 30
0.0
1001
AVE_RENDER
1002
{
1070
     6
1000
Pref
1070
    30
1070
    20
1070
     1
1070
     0
1000

1070
    10
1070
     1
1070
    30
1040
1.0
1070
     1
1040
0.3
1040
0.7
1040
0.0
1040
10.0
1010
-1.0
1020
-1.0
1030
-1.0
1040
0.3
1070
    49
1070
     0
1070
     0
1010
1.0
1020
1.0
1030
1.0
1040
45.0
1070
     1
1070
     0
1000
WCS
1040
0.0
1002
}
  0
INSERT
  5
13A27
330
2E3A
100
AcDbEntity
  8
ASHADE
 62
     3
100
AcDbBlockReference
  2
AVE_RENDER
 10
-1712.031325415138
 20
468.5275892449308
 30
0.0
1001
AVE_RENDER
1002
{
1070
     0
1000
Full Opt
1070
     0
1070
     1
1070
     1
1070
     1
1070
     0
1070
     0
1070
     0
1070
     1
1070
     1
1040
0.0001
1040
0.0001
1002
}
  0
INSERT
  5
13A28
330
2E3A
100
AcDbEntity
  8
ASHADE
 62
     4
100
AcDbBlockReference
  2
AVE_RENDER
 10
-1712.031325415138
 20
468.5275892449308
 30
0.0
1001
AVE_RENDER
1002
{
1070
     0
1000
Quick Opt
1070
     0
1070
     1
1070
     1
1070
     1
1070
     0
1070
     0
1070
     1
1002
}
  0
INSERT
  5
13A29
330
2E3A
100
AcDbEntity
  8
ASHADE
 62
     5
100
AcDbBlockReference
  2
AVE_RENDER
 10
-1712.031325415138
 20
468.5275892449308
 30
0.0
1001
AVE_RENDER
1002
{
1070
     1
1000
Scanl Opt
1070
     2
1070
     0
1070
     2
1040
2.0
1040
4.0
1070
     0
1070
     1
1070
     0
1040
0.03
1002
}
  0
INSERT
  5
13A2A
330
2E3A
100
AcDbEntity
  8
ASHADE
 62
     6
100
AcDbBlockReference
  2
AVE_RENDER
 10
-1712.031325415138
 20
468.5275892449308
 30
0.0
1001
AVE_RENDER
1002
{
1070
     2
1000
Raytr Opt
1070
     2
1070
     0
1070
     2
1040
2.0
1040
4.0
1070
     0
1070
     1
1070
     1
1040
0.03
1070
     3
1040
0.03
1002
}
  0
INSERT
  5
13A2B
330
2E3A
100
AcDbEntity
  8
ASHADE
 62
     7
100
AcDbBlockReference
  2
AVE_RENDER
 10
-1712.031325415138
 20
468.5275892449308
 30
0.0
1001
AVE_RENDER
1002
{
1070
     0
1000
RFile Opt
1070
     5
1070
   640
1070
   480
1070
 10000
1070
     3
1070
    32
1070
    24
1070
     0
1070
     0
1070
     0
1070
     1
1070
     0
1070
     0
1070
     0
1002
}
  0
INSERT
  5
13A2C
330
2E3A
100
AcDbEntity
  8
ASHADE
 62
     8
100
AcDbBlockReference
  2
AVE_RENDER
 10
-1712.031325415138
 20
468.5275892449308
 30
0.0
1001
AVE_RENDER
1002
{
1070
     0
1000
Fog Opt
1070
     0
1070
     0
1040
0.0
1040
1.0
1040
0.0
1040
1.0
1010
0.5
1020
0.5
1030
0.5
1002
}
  0
INSERT
  5
13A2D
330
2E3A
100
AcDbEntity
  8
ASHADE
 62
     9
100
AcDbBlockReference
  2
AVE_RENDER
 10
-1712.031325415138
 20
468.5275892449308
 30
0.0
1001
AVE_RENDER
1002
{
1070
     0
1000
BG Opt
1070
     0
1070
     1
1010
0.0
1020
0.0
1030
0.0
1010
1.0
1020
0.0
1030
0.0
1010
0.0
1020
1.0
1030
0.0
1010
0.0
1020
0.0
1030
1.0
1040
0.5
1040
0.33
1040
0.0
1000

1070
     1
1000

1070
     1
1070
     1
1040
1.0
1040
1.0
1040
0.0
1040
0.0
1070
     0
1002
}
  0
INSERT
  5
13A2E
330
2E3A
100
AcDbEntity
  8
ASHADE
 62
     1
100
AcDbBlockReference
  2
AVE_GLOBAL
 10
-1712.031325415138
 20
468.5275892449308
 30
0.0
1001
AVE_MATERIAL
1002
{
1000
*GLOBAL*
1000
1
1000
Global finish.
1002
{
1002
}
1002
{
1070
    63
1002
{
1002
{
1010
-1.0
1020
-1.0
1030
-1.0
1002
}
1040
0.1000000014901161
1000

1040
0.0
1002
{
1002
}
1040
0.0
1002
{
1002
}
1040
0.0
1002
}
1002
{
1002
{
1010
-1.0
1020
-1.0
1030
-1.0
1002
}
1040
0.6999999880790711
1000

1040
0.0
1002
{
1002
}
1040
0.0
1002
{
1002
}
1040
0.0
1002
}
1002
{
1002
{
1010
-1.0
1020
-1.0
1030
-1.0
1002
}
1040
0.2000000029802322
1000

1040
0.0
1002
{
1002
}
1040
0.0
1002
{
1002
}
1040
0.0
1002
}
1002
{
1070
     0
1002
{
1070
     1
1002
{
1040
1.0
1040
1.0
1000

1040
0.0
1002
{
1002
}
1040
0.0
1002
{
1002
}
1040
0.0
1002
}
1002
}
1040
1.0
1040
0.0
1040
0.0
1002
}
1002
{
1040
1.0
1040
1.0
1000

1040
0.0
1002
{
1002
}
1040
0.0
1002
{
1002
}
1040
0.0
1002
}
1002
{
1040
0.5
1040
1.0
1000

1040
0.0
1002
{
1002
}
1040
0.0
1002
{
1002
}
1040
0.0
1002
}
1002
{
1070
     0
1040
0.0
1002
{
1002
}
1040
1.0
1002
{
1002
}
1040
0.0
1002
}
1002
{
1040
0.0
1002
{
1002
{
1010
0.0
1020
0.0
1030
0.0
1002
}
1040
1.0
1000

1040
0.0
1002
{
1002
}
1040
0.0
1002
{
1002
}
1040
0.0
1002
}
1002
}
1002
{
1002
{
1070
     1
1002
{
1040
0.0
1040
1.0
1000

1040
0.0
1002
{
1002
}
1040
0.0
1002
{
1002
}
1040
0.0
1002
}
1002
}
1040
0.0
1002
{
1002
}
1010
1.0
1020
0.0
1030
0.0
1010
0.0
1020
1.0
1030
0.0
1010
0.0
1020
0.0
1030
1.0
1070
     0
1002
}
1002
{
1002
{
1040
1.0
1040
1.0
1002
{
1070
     1
1002
{
1040
1.0
1040
1.0
1000

1040
0.0
1002
{
1002
}
1040
0.0
1002
{
1002
}
1040
0.0
1002
}
1002
}
1002
}
1070
     0
1040
0.0
1002
{
1002
}
1002
}
1002
{
1002
}
1002
}
1002
{
1071
        3
1070
     3
1070
     0
1002
{
1070
     2
1070
     0
1070
     0
1040
0.0
1002
}
1070
     0
1070
     2
1002
{
1002
}
1002
}
1002
{
1040
8030.0
1040
190.3000030517578
1040
0.3050000071525574
1040
228.0
1040
545.0
1040
14.0
1040
17.39999961853027
1040
0.4560000002384186
1002
}
1002
}
  0
INSERT
  5
13A2F
330
2E3A
100
AcDbEntity
  8
LAYER1
100
AcDbBlockReference
  2
AME_NIL
 10
206.698808084644
 20
637.0480760935634
 30
0.0
  0
INSERT
  5
13A30
330
2E3A
100
AcDbEntity
  8
LAYER1
100
AcDbBlockReference
  2
AME_SOL
 10
206.698808084644
 20
637.0480760935634
 30
0.0
1001
AME_SOL
1000
R2.1
1000
AME2
1000
sq m
1070
     3
1070
     0
1070
     3
1000
mesh
1040
45.0
1000
U
1040
1.0
1000
m
1000
gm
1000
MILD_STEEL
1070
    25
1000
CSG
1070
     1
1070
     3
1070
     3
1070
     3
1070
     0
1000
cu cm
1070
     1
1070
     0
1005
13A2F
  0
TEXT
  5
13A31
330
2E3A
100
AcDbEntity
  8
TEKST
100
AcDbText
 10
218.220908353867
 20
657.6899732518043
 30
0.0
 40
2.5
  1

  7
ROMANS
100
AcDbText
  0
INSERT
  5
13A32
330
2E3A
100
AcDbEntity
  8
ASHADE
 62
     1
100
AcDbBlockReference
  2
AVE_RENDER
 10
206.698808084644
 20
637.0480760935634
 30
0.0
1001
AVE_RENDER
1002
{
1070
     6
1000
Pref
1070
    30
1070
    20
1070
     1
1070
     0
1000

1070
    10
1070
     1
1070
    30
1040
1.0
1070
     1
1040
0.3
1040
0.7
1040
0.0
1040
10.0
1010
-1.0
1020
-1.0
1030
-1.0
1040
0.3
1070
    49
1070
     0
1070
     0
1010
1.0
1020
1.0
1030
1.0
1040
45.0
1070
     1
1070
     0
1000
WCS
1040
0.0
1002
}
  0
INSERT
  5
13A33
330
2E3A
100
AcDbEntity
  8
ASHADE
 62
     3
100
AcDbBlockReference
  2
AVE_RENDER
 10
206.698808084644
 20
637.0480760935634
 30
0.0
1001
AVE_RENDER
1002
{
1070
     0
1000
Full Opt
1070
     0
1070
     1
1070
     1
1070
     1
1070
     0
1070
     0
1070
     0
1070
     1
1070
     1
1040
0.0001
1040
0.0001
1002
}
  0
INSERT
  5
13A34
330
2E3A
100
AcDbEntity
  8
ASHADE
 62
     4
100
AcDbBlockReference
  2
AVE_RENDER
 10
206.698808084644
 20
637.0480760935634
 30
0.0
1001
AVE_RENDER
1002
{
1070
     0
1000
Quick Opt
1070
     0
1070
     1
1070
     1
1070
     1
1070
     0
1070
     0
1070
     1
1002
}
  0
INSERT
  5
13A35
330
2E3A
100
AcDbEntity
  8
ASHADE
 62
     5
100
AcDbBlockReference
  2
AVE_RENDER
 10
206.698808084644
 20
637.0480760935634
 30
0.0
1001
AVE_RENDER
1002
{
1070
     1
1000
Scanl Opt
1070
     2
1070
     0
1070
     2
1040
2.0
1040
4.0
1070
     0
1070
     1
1070
     0
1040
0.03
1002
}
  0
INSERT
  5
13A36
330
2E3A
100
AcDbEntity
  8
ASHADE
 62
     6
100
AcDbBlockReference
  2
AVE_RENDER
 10
206.698808084644
 20
637.0480760935634
 30
0.0
1001
AVE_RENDER
1002
{
1070
     2
1000
Raytr Opt
1070
     2
1070
     0
1070
     2
1040
2.0
1040
4.0
1070
     0
1070
     1
1070
     1
1040
0.03
1070
     3
1040
0.03
1002
}
  0
INSERT
  5
13A37
330
2E3A
100
AcDbEntity
  8
ASHADE
 62
     7
100
AcDbBlockReference
  2
AVE_RENDER
 10
206.698808084644
 20
637.0480760935634
 30
0.0
1001
AVE_RENDER
1002
{
1070
     0
1000
RFile Opt
1070
     5
1070
   640
1070
   480
1070
 10000
1070
     3
1070
    32
1070
    24
1070
     0
1070
     0
1070
     0
1070
     1
1070
     0
1070
     0
1070
     0
1002
}
  0
INSERT
  5
13A38
330
2E3A
100
AcDbEntity
  8
ASHADE
 62
     8
100
AcDbBlockReference
  2
AVE_RENDER
 10
206.698808084644
 20
637.0480760935634
 30
0.0
1001
AVE_RENDER
1002
{
1070
     0
1000
Fog Opt
1070
     0
1070
     0
1040
0.0
1040
1.0
1040
0.0
1040
1.0
1010
0.5
1020
0.5
1030
0.5
1002
}
  0
INSERT
  5
13A39
330
2E3A
100
AcDbEntity
  8
ASHADE
 62
     9
100
AcDbBlockReference
  2
AVE_RENDER
 10
206.698808084644
 20
637.0480760935634
 30
0.0
1001
AVE_RENDER
1002
{
1070
     0
1000
BG Opt
1070
     0
1070
     1
1010
0.0
1020
0.0
1030
0.0
1010
1.0
1020
0.0
1030
0.0
1010
0.0
1020
1.0
1030
0.0
1010
0.0
1020
0.0
1030
1.0
1040
0.5
1040
0.33
1040
0.0
1000

1070
     1
1000

1070
     1
1070
     1
1040
1.0
1040
1.0
1040
0.0
1040
0.0
1070
     0
1002
}
  0
INSERT
  5
13A3A
330
2E3A
100
AcDbEntity
  8
ASHADE
 62
     1
100
AcDbBlockReference
  2
AVE_GLOBAL
 10
206.698808084644
 20
637.0480760935634
 30
0.0
1001
AVE_MATERIAL
1002
{
1000
*GLOBAL*
1000
1
1000
Global finish.
1002
{
1002
}
1002
{
1070
    63
1002
{
1002
{
1010
-1.0
1020
-1.0
1030
-1.0
1002
}
1040
0.1000000014901161
1000

1040
0.0
1002
{
1002
}
1040
0.0
1002
{
1002
}
1040
0.0
1002
}
1002
{
1002
{
1010
-1.0
1020
-1.0
1030
-1.0
1002
}
1040
0.6999999880790711
1000

1040
0.0
1002
{
1002
}
1040
0.0
1002
{
1002
}
1040
0.0
1002
}
1002
{
1002
{
1010
-1.0
1020
-1.0
1030
-1.0
1002
}
1040
0.2000000029802322
1000

1040
0.0
1002
{
1002
}
1040
0.0
1002
{
1002
}
1040
0.0
1002
}
1002
{
1070
     0
1002
{
1070
     1
1002
{
1040
1.0
1040
1.0
1000

1040
0.0
1002
{
1002
}
1040
0.0
1002
{
1002
}
1040
0.0
1002
}
1002
}
1040
1.0
1040
0.0
1040
0.0
1002
}
1002
{
1040
1.0
1040
1.0
1000

1040
0.0
1002
{
1002
}
1040
0.0
1002
{
1002
}
1040
0.0
1002
}
1002
{
1040
0.5
1040
1.0
1000

1040
0.0
1002
{
1002
}
1040
0.0
1002
{
1002
}
1040
0.0
1002
}
1002
{
1070
     0
1040
0.0
1002
{
1002
}
1040
1.0
1002
{
1002
}
1040
0.0
1002
}
1002
{
1040
0.0
1002
{
1002
{
1010
0.0
1020
0.0
1030
0.0
1002
}
1040
1.0
1000

1040
0.0
1002
{
1002
}
1040
0.0
1002
{
1002
}
1040
0.0
1002
}
1002
}
1002
{
1002
{
1070
     1
1002
{
1040
0.0
1040
1.0
1000

1040
0.0
1002
{
1002
}
1040
0.0
1002
{
1002
}
1040
0.0
1002
}
1002
}
1040
0.0
1002
{
1002
}
1010
1.0
1020
0.0
1030
0.0
1010
0.0
1020
1.0
1030
0.0
1010
0.0
1020
0.0
1030
1.0
1070
     0
1002
}
1002
{
1002
{
1040
1.0
1040
1.0
1002
{
1070
     1
1002
{
1040
1.0
1040
1.0
1000

1040
0.0
1002
{
1002
}
1040
0.0
1002
{
1002
}
1040
0.0
1002
}
1002
}
1002
}
1070
     0
1040
0.0
1002
{
1002
}
1002
}
1002
{
1002
}
1002
}
1002
{
1071
        3
1070
     3
1070
     0
1002
{
1070
     2
1070
     0
1070
     0
1040
0.0
1002
}
1070
     0
1070
     2
1002
{
1002
}
1002
}
1002
{
1040
8030.0
1040
190.3000030517578
1040
0.3050000071525574
1040
228.0
1040
545.0
1040
14.0
1040
17.39999961853027
1040
0.4560000002384186
1002
}
1002
}
  0
TEXT
  5
13A3B
330
2E3A
100
AcDbEntity
  8
0
 62
     7
 48
5.0
100
AcDbText
 10
-1478.864448365064
 20
1018.077525794961
 30
0.0
 40
3.809829827610412
  1
 
 41
0.75
100
AcDbText
  0
MTEXT
  5
1592D
330
2E3A
100
AcDbEntity
  8
Omriss
  6
Continuous
100
AcDbMText
 10
-2395.176181831748
 20
2489.102319280084
 30
0.0
 40
4.0
 41
0.0
 71
     1
 72
     1
  1

  7
ARIAL
 73
     1
 44
1.0
  0
TEXT
  5
163A0
330
2E3A
100
AcDbEntity
  8
TEKST
  6
Continuous
100
AcDbText
 10
-8079.41439252119
 20
20742.32769177635
 30
0.0
 40
300.0
  1
 
  7
ARIAL
100
AcDbText
  0
TEXT
  5
16507
330
2E3A
100
AcDbEntity
  8
Omriss tanker
  6
Continuous
100
AcDbText
 10
79973.29198320133
 20
41747.50365253865
 30
0.0
 40
600.0
  1
_tn 39
  7
ARIAL
100
AcDbText
  0
TEXT
  5
16508
330
2E3A
100
AcDbEntity
  8
Omriss tanker
  6
Continuous
100
AcDbText
 10
80031.23810705726
 20
40696.68489113461
 30
0.0
 40
600.0
  1
_tv 39
  7
ARIAL
100
AcDbText
  0
LWPOLYLINE
  5
16509
330
2E3A
100
AcDbEntity
  8
Omriss tanker
100
AcDbPolyline
 90
       15
 70
     1
 43
0.0
 10
86635.85011954216
 20
41289.75416147985
 10
85677.33249024596
 20
41992.436815542
 10
84443.68659767238
 20
42858.97999853076
 10
83420.39132889196
 20
43550.06230206955
 10
81415.24012942031
 20
44817.05991751421
 10
79914.23270630299
 20
45707.06192240917
 10
78384.15980466791
 20
46560.99845270134
 10
78388.66925231679
 20
36018.24194444486
 10
79088.31537970301
 20
36404.85718848005
 10
79986.03412989821
 20
36913.6916615923
 10
81168.00355037064
 20
37609.64708428162
 10
82587.76935497033
 20
38493.07939133506
 10
83420.39132889196
 20
39029.44602089043
 10
84707.60732539666
 20
39898.95847391827
 10
86635.85011954216
 20
41289.75416147985
  0
LWPOLYLINE
  5
1650A
330
2E3A
100
AcDbEntity
  8
Omriss tanker
  6
Continuous
100
AcDbPolyline
 90
       16
 70
     1
 43
0.0
 10
71183.94037970301
 20
50227.97855277929
 10
70038.30756720308
 20
50778.7775984799
 10
67939.08100470308
 20
51686.98853647991
 10
66279.19037970309
 20
52364.19947447988
 10
65250.87006720307
 20
52764.35181797991
 10
63847.44037970308
 20
53287.22681747991
 10
61700.97162970307
 20
54025.93775497991
 10
59083.94037970304
 20
54773.11970264683
 10
59083.94037970304
 20
27759.97243948414
 10
60615.47162970307
 20
28209.87134948003
 10
63326.14350470307
 20
29105.49830198003
 10
65029.87787970306
 20
29731.01197348002
 10
67339.48725470308
 20
30643.69166148003
 10
69108.42475470308
 20
31391.16822348003
 10
71183.94037970311
 20
32325.7054451972
 10
71183.94037970301
 20
50227.97855277929
  0
LWPOLYLINE
  5
1650B
330
2E3A
100
AcDbEntity
  8
Omriss tanker
  6
Continuous
100
AcDbPolyline
 90
       17
 70
     1
 43
0.0
 10
59058.30756720307
 20
54826.69556797991
 10
58314.47162970308
 20
55029.28541147991
 10
56317.01850471809
 20
55550.02369247627
 10
53321.65912970308
 20
56203.8557234799
 10
50955.09929210424
 20
56624.63867989853
 10
48316.33914856142
 20
57006.10467897987
 10
46543.19010496019
 20
57195.33481222991
 10
45459.56317301565
 20
57272.66499738616
 10
42839.44037970308
 20
57366.01880947992
 10
40219.22944220308
 20
57389.56666147991
 10
38964.35471043308
 20
57389.75416147996
 10
36034.43432082063
 20
57389.75416147996
 10
32271.43432082073
 20
57389.75416147996
 10
30118.9403797032
 20
57389.75416147996
 10
30118.94037970308
 20
41289.75416147985
 10
59083.94037970202
 20
41289.75416147985
 10
59083.94037970099
 20
54773.11970264593
  0
LWPOLYLINE
  5
1650C
330
2E3A
100
AcDbEntity
  8
Omriss tanker
  6
Continuous
100
AcDbPolyline
 90
       14
 70
     1
 43
0.0
 10
59083.94037970202
 20
41289.75416147985
 10
30118.94037984168
 20
41289.75416147993
 10
30118.94037970337
 20
25189.75416148003
 10
38964.35471043308
 20
25189.75416147997
 10
44711.39266128886
 20
25268.78115186284
 10
47804.69037970308
 20
25511.44166148003
 10
50080.85279327061
 20
25818.45757362847
 10
52572.2539827921
 20
26233.95336479254
 10
54069.41623012513
 20
26525.46328782378
 10
55567.25752534678
 20
26852.1171182144
 10
57064.47500586826
 20
27216.22921617534
 10
58209.44037970178
 20
27522.45728647967
 10
59083.94037970304
 20
27759.97243948414
 10
59083.94037969997
 20
41289.75416147985
  0
LWPOLYLINE
  5
1650D
330
2E3A
100
AcDbEntity
  8
Omriss tanker
  6
Continuous
100
AcDbPolyline
 90
        5
 70
     1
 43
0.0
 10
30118.9403797032
 20
57389.7541614798
 10
14218.94037970307
 20
57389.75416147991
 10
14218.94037970307
 20
41289.75416147997
 10
30118.94037968522
 20
41289.75416147985
 10
30118.94037970291
 20
57389.75416147996
  0
LWPOLYLINE
  5
1650E
330
2E3A
100
AcDbEntity
  8
Omriss tanker
  6
Continuous
100
AcDbPolyline
 90
        5
 70
     1
 43
0.0
 10
30118.94037968522
 20
41289.75416147993
 10
14218.94037970307
 20
41289.75416147984
 10
14218.94037970307
 20
25189.75416148003
 10
30118.94037970291
 20
25189.75416148003
 10
30118.94037970308
 20
41269.75416147996
  0
LWPOLYLINE
  5
1650F
330
2E3A
100
AcDbEntity
  8
Omriss tanker
  6
Continuous
100
AcDbPolyline
 90
        5
 70
     1
 43
0.0
 10
14218.94037970307
 20
53364.75416147996
 10
-4861.059620296877
 20
53364.75416147986
 10
-4861.05962029697
 20
29214.75416148009
 10
14218.94037970298
 20
29214.75416148007
 10
14218.94037970289
 20
53364.75416147996
  0
LWPOLYLINE
  5
16512
330
2E3A
100
AcDbEntity
  8
Omriss tanker
  6
Continuous
100
AcDbPolyline
 90
       12
 70
     1
 43
0.0
 10
-29845.79595154407
 20
57389.75416147991
 10
-32978.16313954402
 20
57389.3195914799
 10
-34443.04204229694
 20
57380.95728647991
 10
-36978.61821429698
 20
57352.81666147991
 10
-38727.68071429699
 20
57321.92603647991
 10
-40381.48149529692
 20
57279.78541147991
 10
-42037.52055829692
 20
57222.64478647991
 10
-43956.62212029692
 20
57117.75416147991
 10
-45346.63969829693
 20
57011.1330674799
 10
-46201.05962029701
 20
56916.71509947987
 10
-46204.55343905833
 20
41289.75494261521
 10
-29845.79595154402
 20
41289.75416147997
  0
LWPOLYLINE
  5
16513
330
2E3A
100
AcDbEntity
  8
Omriss tanker
  6
Continuous
100
AcDbPolyline
 90
        9
 70
     1
 43
0.0
 10
-29845.79595154402
 20
41289.75416147984
 10
-46204.5534390582
 20
41289.75494261506
 10
-46208.05180829694
 20
25642.44166148003
 10
-43364.89165179692
 20
25420.59009848002
 10
-39125.15337029693
 20
25266.42603648003
 10
-36899.11235479695
 20
25225.53541148003
 10
-33981.07329229694
 20
25195.26978648003
 10
-33025.29595154402
 20
25189.75416148003
 10
-29845.79595154415
 20
25189.75416148003
  0
LWPOLYLINE
  5
16514
330
2E3A
100
AcDbEntity
  8
Omriss tanker
  6
Continuous
100
AcDbPolyline
 90
       16
 70
     1
 43
0.0
 10
-46201.05962029701
 20
56916.71509947987
 10
-47690.19243229691
 20
56807.97291147991
 10
-49274.98540179691
 20
56646.69947347992
 10
-50933.39165129697
 20
56452.25416147991
 10
-52378.09087029692
 20
56265.39478647991
 10
-53896.7588387969
 20
56053.98853647991
 10
-54908.59087029692
 20
55902.05884947991
 10
-56181.1729012969
 20
55695.93185845602
 10
-56740.55962029692
 20
55603.78924343211
 10
-56740.55962029692
 20
26975.71907952784
 10
-55146.42290129697
 20
26714.80103648003
 10
-53420.13774529691
 20
26457.19947398003
 10
-51062.68462029691
 20
26143.39478648003
 10
-49063.82719829695
 20
25909.89869298003
 10
-47216.34868229691
 20
25728.13697348002
 10
-46208.05180829694
 20
25642.44166148003
  0
TEXT
  5
16515
330
2E3A
100
AcDbEntity
  8
Omriss tanker
  6
Continuous
100
AcDbText
 10
63411.51000429902
 20
45488.05222181038
 30
0.0
 40
600.0
  1
_tn 40
  7
ARIAL
100
AcDbText
  0
TEXT
  5
16516
330
2E3A
100
AcDbEntity
  8
Omriss tanker
  6
Continuous
100
AcDbText
 10
64967.67195666462
 20
43963.86646694508
 30
0.0
 40
600.0
  1
_tv 40
  7
ARIAL
100
AcDbText
  0
TEXT
  5
16517
330
2E3A
100
AcDbEntity
  8
Omriss tanker
  6
Continuous
100
AcDbText
 10
40474.56047257211
 20
50529.45430323664
 30
0.0
 40
600.0
  1
_tn 41
  7
ARIAL
100
AcDbText
  0
TEXT
  5
16518
330
2E3A
100
AcDbEntity
  8
Omriss tanker
  6
Continuous
100
AcDbText
 10
42030.72242493774
 20
49005.26854837131
 30
0.0
 40
600.0
  1
_tv 41
  7
ARIAL
100
AcDbText
  0
TEXT
  5
16519
330
2E3A
100
AcDbEntity
  8
Omriss tanker
  6
Continuous
100
AcDbText
 10
-54738.56773931715
 20
41747.50365253865
 30
0.0
 40
600.0
  1
_tn 52
  7
ARIAL
100
AcDbText
  0
TEXT
  5
1651A
330
2E3A
100
AcDbEntity
  8
Omriss tanker
  6
Continuous
100
AcDbText
 10
-53182.40578695155
 20
40223.31789767333
 30
0.0
 40
600.0
  1
_tv 52
  7
ARIAL
100
AcDbText
  0
TEXT
  5
1651B
330
2E3A
100
AcDbEntity
  8
Omriss tanker
  6
Continuous
100
AcDbText
 10
40474.56047257211
 20
33185.10177933316
 30
0.0
 40
600.0
  1
_tn 42
  7
ARIAL
100
AcDbText
  0
TEXT
  5
1651C
330
2E3A
100
AcDbEntity
  8
Omriss tanker
  6
Continuous
100
AcDbText
 10
42030.72242493774
 20
31660.91602446784
 30
0.0
 40
600.0
  1
_tv 42
  7
ARIAL
100
AcDbText
  0
TEXT
  5
1651D
330
2E3A
100
AcDbEntity
  8
Omriss tanker
  6
Continuous
100
AcDbText
 10
20565.84636086998
 20
50529.45430323664
 30
0.0
 40
600.0
  1
_tn 43
  7
ARIAL
100
AcDbText
  0
TEXT
  5
1651E
330
2E3A
100
AcDbEntity
  8
Omriss tanker
  6
Continuous
100
AcDbText
 10
22122.00831323558
 20
49005.26854837131
 30
0.0
 40
600.0
  1
_tv 43
  7
ARIAL
100
AcDbText
  0
TEXT
  5
1651F
330
2E3A
100
AcDbEntity
  8
Omriss tanker
  6
Continuous
100
AcDbText
 10
20565.84636086998
 20
33185.10177933316
 30
0.0
 40
600.0
  1
_tn 44
  7
ARIAL
100
AcDbText
  0
TEXT
  5
16520
330
2E3A
100
AcDbEntity
  8
Omriss tanker
  6
Continuous
100
AcDbText
 10
22122.00831323558
 20
31660.91602446784
 30
0.0
 40
600.0
  1
_tv 44
  7
ARIAL
100
AcDbText
  0
TEXT
  5
16521
330
2E3A
100
AcDbEntity
  8
Omriss tanker
  6
Continuous
100
AcDbText
 10
3263.950750294654
 20
55701.32263616097
 30
0.0
 40
600.0
  1
_tn 46
  7
ARIAL
100
AcDbText
  0
TEXT
  5
16522
330
2E3A
100
AcDbEntity
  8
Omriss tanker
  6
Continuous
100
AcDbText
 10
4820.112702660256
 20
54177.13688129563
 30
0.0
 40
600.0
  1
_tv 46
  7
ARIAL
100
AcDbText
  0
TEXT
  5
16523
330
2E3A
100
AcDbEntity
  8
Omriss tanker
  6
Continuous
100
AcDbText
 10
4498.878318249004
 20
27650.1907275073
 30
0.0
 40
600.0
  1
_tn 47
  7
ARIAL
100
AcDbText
  0
TEXT
  5
16524
330
2E3A
100
AcDbEntity
  8
Omriss tanker
  6
Continuous
100
AcDbText
 10
6055.040270614604
 20
26126.004972642
 30
0.0
 40
600.0
  1
_tv 47
  7
ARIAL
100
AcDbText
  0
TEXT
  5
16525
330
2E3A
100
AcDbEntity
  8
Omriss tanker
  6
Continuous
100
AcDbText
 10
-10057.64364209859
 20
54351.34447095247
 30
0.0
 40
600.0
  1
_tn 48
  7
ARIAL
100
AcDbText
  0
TEXT
  5
16526
330
2E3A
100
AcDbEntity
  8
Omriss tanker
  6
Continuous
100
AcDbText
 10
-8398.17644724426
 20
52827.15871608715
 30
0.0
 40
600.0
  1
_tv 48
  7
ARIAL
100
AcDbText
  0
TEXT
  5
16527
330
2E3A
100
AcDbEntity
  8
Omriss tanker
  6
Continuous
100
AcDbText
 10
-9751.486469105536
 20
29056.71699177898
 30
0.0
 40
600.0
  1
_tn 49
  7
ARIAL
100
AcDbText
  0
TEXT
  5
16528
330
2E3A
100
AcDbEntity
  8
Omriss tanker
  6
Continuous
100
AcDbText
 10
-8195.324516739946
 20
27532.53123691365
 30
0.0
 40
600.0
  1
_tv 49
  7
ARIAL
100
AcDbText
  0
TEXT
  5
16529
330
2E3A
100
AcDbEntity
  8
Omriss tanker
  6
Continuous
100
AcDbText
 10
-39540.66600989686
 20
50529.45430323664
 30
0.0
 40
600.0
  1
_tn 50
  7
ARIAL
100
AcDbText
  0
TEXT
  5
1652A
330
2E3A
100
AcDbEntity
  8
Omriss tanker
  6
Continuous
100
AcDbText
 10
-37984.50405753127
 20
49005.26854837131
 30
0.0
 40
600.0
  1
_tv 50
  7
ARIAL
100
AcDbText
  0
TEXT
  5
1652B
330
2E3A
100
AcDbEntity
  8
Omriss tanker
  6
Continuous
100
AcDbText
 10
-39540.66600989686
 20
33185.10177933316
 30
0.0
 40
600.0
  1
_tn 51
  7
ARIAL
100
AcDbText
  0
TEXT
  5
1652C
330
2E3A
100
AcDbEntity
  8
Omriss tanker
  6
Continuous
100
AcDbText
 10
-37984.50405753127
 20
31660.91602446784
 30
0.0
 40
600.0
  1
_tv 51
  7
ARIAL
100
AcDbText
  0
LWPOLYLINE
  5
1652D
330
2E3A
100
AcDbEntity
  8
Omriss tanker
  6
Continuous
100
AcDbPolyline
 90
        4
 70
     1
 43
0.3
 10
14218.94037970307
 20
57389.75416147991
 10
-4861.059620296863
 20
57389.7541614798
 10
-4861.059620296877
 20
53364.75416147985
 10
14218.94037970309
 20
53364.75416147996
  0
LWPOLYLINE
  5
1652E
330
2E3A
100
AcDbEntity
  8
Omriss tanker
  6
Continuous
100
AcDbPolyline
 90
        4
 70
     1
 43
2.0
 10
14218.94037970306
 20
29214.75416148007
 10
-4861.05962029697
 20
29214.75416148
 10
-4861.059620296983
 20
25189.75416148003
 10
14218.94037970307
 20
25189.75416148003
  0
TEXT
  5
1652F
330
2E3A
100
AcDbEntity
  8
Omriss tanker
  6
Continuous
100
AcDbText
 10
3191.3080581469
 20
40729.20528077862
 30
0.0
 40
600.0
  1
_tn 45
  7
ARIAL
100
AcDbText
  0
TEXT
  5
16530
330
2E3A
100
AcDbEntity
  8
Omriss tanker
  6
Continuous
100
AcDbText
 10
4747.4700105125
 20
39205.01952591328
 30
0.0
 40
600.0
  1
_tv 45
  7
ARIAL
100
AcDbText
  0
LWPOLYLINE
  5
16531
330
2E3A
100
AcDbEntity
  8
Control object
  6
Continuous
 62
    42
100
AcDbPolyline
 90
       11
 70
     1
 10
27969.54170603296
 20
47662.51058567823
 40
1.344
 41
1.344
 10
27969.54170603296
 20
48362.76836119256
 40
1.344
 41
1.344
 10
27537.9165624717
 20
48362.76836119256
 40
1.344
 41
1.344
 42
-0.8846768105770848
 10
28501.96684959424
 20
48362.76836119256
 40
1.344
 41
1.344
 10
28070.34170603296
 20
48362.76836119256
 40
1.344
 41
1.344
 10
28070.34170603296
 20
47662.51058567823
 40
1.344
 41
1.344
 10
28739.35462505396
 20
48023.58943919596
 40
0.0
 41
0.0
 10
28739.35462505396
 20
47247.02807656615
 40
1.344
 41
1.344
 10
28019.94170603297
 20
47635.30875788108
 40
1.344
 41
1.344
 10
27300.52878701199
 20
47247.02807656615
 40
0.0
 41
0.0
 10
27300.52878701199
 20
48023.58943919596
 40
1.344
 41
1.344
  0
TEXT
  5
16533
330
2E3A
100
AcDbEntity
  8
Control object
  6
Continuous
100
AcDbText
 10
28071.7887260994
 20
48747.90994732529
 30
0.0
 40
280.0
  1
_Col 41-0
  7
ARIAL
100
AcDbText
  0
LWPOLYLINE
  5
16537
330
2E3A
100
AcDbEntity
  8
Control object
  6
Continuous
 62
    42
100
AcDbPolyline
 90
       11
 70
     1
 10
28594.65013367104
 20
44851.91389626027
 40
1.344
 41
1.344
 10
28594.65013367104
 20
45552.17167177459
 40
1.344
 41
1.344
 10
28163.02499010976
 20
45552.17167177459
 40
1.344
 41
1.344
 42
-0.8846768105770848
 10
29127.07527723231
 20
45552.17167177459
 40
1.344
 41
1.344
 10
28695.45013367103
 20
45552.17167177459
 40
1.344
 41
1.344
 10
28695.45013367103
 20
44851.91389626027
 40
1.344
 41
1.344
 10
29364.46305269204
 20
45212.992749778
 40
0.0
 41
0.0
 10
29364.46305269204
 20
44436.43138714821
 40
1.344
 41
1.344
 10
28645.05013367104
 20
44824.71206846311
 40
1.344
 41
1.344
 10
27925.63721465003
 20
44436.43138714821
 40
0.0
 41
0.0
 10
27925.63721465003
 20
45212.992749778
 40
1.344
 41
1.344
  0
TEXT
  5
16539
330
2E3A
100
AcDbEntity
  8
Control object
  6
Continuous
100
AcDbText
 10
28820.38394302735
 20
45793.31326556328
 30
0.0
 40
280.0
  1
_Col 40-0
  7
ARIAL
100
AcDbText
  0
LWPOLYLINE
  5
1653A
330
2E3A
100
AcDbEntity
  8
Control object
  6
Continuous
 62
    42
100
AcDbPolyline
 90
       11
 70
     1
 10
28643.99131761516
 20
37781.84643382362
 40
1.344
 41
1.344
 10
28643.99131761516
 20
38482.10420933795
 40
1.344
 41
1.344
 10
28212.36617405388
 20
38482.10420933795
 40
1.344
 41
1.344
 42
-0.8846768105770848
 10
29176.41646117644
 20
38482.10420933795
 40
1.344
 41
1.344
 10
28744.79131761516
 20
38482.10420933795
 40
1.344
 41
1.344
 10
28744.79131761516
 20
37781.84643382362
 40
1.344
 41
1.344
 10
29413.80423663616
 20
38142.92528734135
 40
0.0
 41
0.0
 10
29413.80423663616
 20
37366.36392471155
 40
1.344
 41
1.344
 10
28694.39131761516
 20
37754.64460602649
 40
1.344
 41
1.344
 10
27974.97839859416
 20
37366.36392471155
 40
0.0
 41
0.0
 10
27974.97839859416
 20
38142.92528734135
 40
1.344
 41
1.344
  0
TEXT
  5
1653C
330
2E3A
100
AcDbEntity
  8
Omriss tanker
  6
Continuous
100
AcDbText
 10
28783.55391960424
 20
38843.01307958601
 30
0.0
 40
280.0
  1
_Col 39-0
  7
ARIAL
100
AcDbText
  0
LWPOLYLINE
  5
1653D
330
2E3A
100
AcDbEntity
  8
Control object
  6
Continuous
 62
    42
100
AcDbPolyline
 90
       11
 70
     1
 10
27969.54170603296
 20
34861.24974440567
 40
1.344
 41
1.344
 10
27969.54170603296
 20
35561.50751991998
 40
1.344
 41
1.344
 10
27537.9165624717
 20
35561.50751991998
 40
1.344
 41
1.344
 42
-0.8846768105770848
 10
28501.96684959424
 20
35561.50751991998
 40
1.344
 41
1.344
 10
28070.34170603296
 20
35561.50751991998
 40
1.344
 41
1.344
 10
28070.34170603296
 20
34861.24974440567
 40
1.344
 41
1.344
 10
28739.35462505396
 20
35222.32859792338
 40
0.0
 41
0.0
 10
28739.35462505396
 20
34445.76723529359
 40
1.344
 41
1.344
 10
28019.94170603297
 20
34834.0479166085
 40
1.344
 41
1.344
 10
27300.52878701199
 20
34445.76723529359
 40
0.0
 41
0.0
 10
27300.52878701199
 20
35222.32859792338
 40
1.344
 41
1.344
  0
TEXT
  5
1653F
330
2E3A
100
AcDbEntity
  8
Control object
  6
Continuous
100
AcDbText
 10
28154.11325229261
 20
35905.50620838464
 30
0.0
 40
280.0
  1
_Col 42-0
  7
ARIAL
100
AcDbText
  0
LWPOLYLINE
  5
16540
330
2E3A
100
AcDbEntity
  8
Control object
  6
Continuous
 62
    42
100
AcDbPolyline
 90
       11
 70
     1
 10
12978.45149037944
 20
46449.30174465433
 40
1.344
 41
1.344
 10
12978.45149037944
 20
47149.55952016863
 40
1.344
 41
1.344
 10
12546.82634681818
 20
47149.55952016863
 40
1.344
 41
1.344
 42
-0.8846768105770848
 10
13510.87663394072
 20
47149.55952016863
 40
1.344
 41
1.344
 10
13079.25149037944
 20
47149.55952016863
 40
1.344
 41
1.344
 10
13079.25149037944
 20
46449.30174465433
 40
1.344
 41
1.344
 10
13748.26440940045
 20
46810.38059817205
 40
0.0
 41
0.0
 10
13748.26440940045
 20
46033.81923554226
 40
1.344
 41
1.344
 10
13028.85149037944
 20
46422.09991685716
 40
1.344
 41
1.344
 10
12309.43857135845
 20
46033.81923554226
 40
0.0
 41
0.0
 10
12309.43857135845
 20
46810.38059817205
 40
1.344
 41
1.344
  0
TEXT
  5
16542
330
2E3A
100
AcDbEntity
  8
Control object
  6
Continuous
100
AcDbText
 10
13305.71754569517
 20
47430.03812164947
 30
0.0
 40
280.0
  1
_Col 43-0
  7
ARIAL
100
AcDbText
  0
LWPOLYLINE
  5
16543
330
2E3A
100
AcDbEntity
  8
Control object
  6
Continuous
 62
    42
100
AcDbPolyline
 90
       11
 70
     1
 10
12978.45149037939
 20
35210.33263671085
 40
1.344
 41
1.344
 10
12978.45149037939
 20
35910.59041222518
 40
1.344
 41
1.344
 10
12546.82634681813
 20
35910.59041222518
 40
1.344
 41
1.344
 42
-0.8846768105770848
 10
13510.87663394066
 20
35910.59041222518
 40
1.344
 41
1.344
 10
13079.2514903794
 20
35910.59041222518
 40
1.344
 41
1.344
 10
13079.2514903794
 20
35210.33263671085
 40
1.344
 41
1.344
 10
13748.26440940039
 20
35571.41149022859
 40
0.0
 41
0.0
 10
13748.26440940039
 20
34794.8501275988
 40
1.344
 41
1.344
 10
13028.8514903794
 20
35183.13080891373
 40
1.344
 41
1.344
 10
12309.43857135839
 20
34794.8501275988
 40
0.0
 41
0.0
 10
12309.43857135839
 20
35571.41149022859
 40
1.344
 41
1.344
  0
TEXT
  5
16545
330
2E3A
100
AcDbEntity
  8
Control object
  6
Continuous
100
AcDbText
 10
13090.06817104676
 20
36238.96875037504
 30
0.0
 40
280.0
  1
_Col 44-0
  7
ARIAL
100
AcDbText
  0
LWPOLYLINE
  5
16546
330
2E3A
100
AcDbEntity
  8
Control object
  6
Continuous
 62
    42
100
AcDbPolyline
 90
       11
 70
     1
 10
-32589.29380306213
 20
34861.24974440565
 40
1.344
 41
1.344
 10
-32589.29380306213
 20
35561.50751991996
 40
1.344
 41
1.344
 10
-33020.9189466234
 20
35561.50751991996
 40
1.344
 41
1.344
 42
-0.8846768105770848
 10
-32056.86865950087
 20
35561.50751991996
 40
1.344
 41
1.344
 10
-32488.49380306213
 20
35561.50751991996
 40
1.344
 41
1.344
 10
-32488.49380306213
 20
34861.24974440565
 40
1.344
 41
1.344
 10
-31819.48088404114
 20
35222.32859792338
 40
0.0
 41
0.0
 10
-31819.48088404114
 20
34445.76723529357
 40
1.344
 41
1.344
 10
-32538.89380306213
 20
34834.0479166085
 40
1.344
 41
1.344
 10
-33258.30672208317
 20
34445.76723529357
 40
0.0
 41
0.0
 10
-33258.30672208317
 20
35222.32859792338
 40
1.344
 41
1.344
  0
LWPOLYLINE
  5
16547
330
2E3A
100
AcDbEntity
  8
Control object
  6
Continuous
100
AcDbPolyline
 90
        2
 70
     1
 43
2.0
 39
2.0
 10
-31819.48088404114
 20
34834.0479166085
 10
-28814.21078472987
 20
34834.04791660852
  0
TEXT
  5
16548
330
2E3A
100
AcDbEntity
  8
Control object
  6
Continuous
100
AcDbText
 10
-31890.19514130337
 20
34979.7941502313
 30
0.0
 40
280.0
  1
_Col 49-0
  7
ARIAL
100
AcDbText
  0
LWPOLYLINE
  5
16549
330
2E3A
100
AcDbEntity
  8
Control object
  6
Continuous
 62
    42
100
AcDbPolyline
 90
       11
 70
     1
 10
-32561.59373535222
 20
46449.30174465434
 40
1.344
 41
1.344
 10
-32561.59373535222
 20
47149.55952016865
 40
1.344
 41
1.344
 10
-32993.21887891348
 20
47149.55952016865
 40
1.344
 41
1.344
 42
-0.8846768105770848
 10
-32029.16859179095
 20
47149.55952016865
 40
1.344
 41
1.344
 10
-32460.79373535224
 20
47149.55952016865
 40
1.344
 41
1.344
 10
-32460.79373535224
 20
46449.30174465434
 40
1.344
 41
1.344
 10
-31791.78081633123
 20
46810.38059817206
 40
0.0
 41
0.0
 10
-31791.78081633123
 20
46033.81923554229
 40
1.344
 41
1.344
 10
-32511.19373535221
 20
46422.09991685716
 40
1.344
 41
1.344
 10
-33230.60665437326
 20
46033.81923554229
 40
0.0
 41
0.0
 10
-33230.60665437326
 20
46810.38059817206
 40
1.344
 41
1.344
  0
TEXT
  5
1654B
330
2E3A
100
AcDbEntity
  8
Control object
  6
Continuous
100
AcDbText
 10
-32379.98201372569
 20
47472.39790213241
 30
0.0
 40
280.0
  1
_Col 48-0
  7
ARIAL
100
AcDbText
  0
LWPOLYLINE
  5
1654C
330
2E3A
100
AcDbEntity
  8
Control object
  6
Continuous
 62
    42
100
AcDbPolyline
 90
       11
 70
     1
 10
-47847.3276970821
 20
46449.30174465433
 40
1.344
 41
1.344
 10
-47847.3276970821
 20
47149.55952016863
 40
1.344
 41
1.344
 10
-48278.95284064338
 20
47149.55952016863
 40
1.344
 41
1.344
 42
-0.8846768105770848
 10
-47314.90255352079
 20
47149.55952016863
 40
1.344
 41
1.344
 10
-47746.5276970821
 20
47149.55952016863
 40
1.344
 41
1.344
 10
-47746.5276970821
 20
46449.30174465433
 40
1.344
 41
1.344
 10
-47077.51477806112
 20
46810.38059817205
 40
0.0
 41
0.0
 10
-47077.51477806112
 20
46033.81923554226
 40
1.344
 41
1.344
 10
-47796.92769708214
 20
46422.09991685716
 40
1.344
 41
1.344
 10
-48516.34061610313
 20
46033.81923554226
 40
0.0
 41
0.0
 10
-48516.34061610313
 20
46810.38059817205
 40
1.344
 41
1.344
  0
TEXT
  5
1654E
330
2E3A
100
AcDbEntity
  8
Control object
  6
Continuous
100
AcDbText
 10
-47148.22903532336
 20
46567.84615047998
 30
0.0
 40
280.0
  1
_Col 50-0
  7
ARIAL
100
AcDbText
  0
LWPOLYLINE
  5
1654F
330
2E3A
100
AcDbEntity
  8
Control object
  6
Continuous
 62
    42
100
AcDbPolyline
 90
       11
 70
     1
 10
-45143.81675619073
 20
44851.91389626027
 40
1.344
 41
1.344
 10
-45143.81675619073
 20
45552.17167177459
 40
1.344
 41
1.344
 10
-45575.44189975204
 20
45552.17167177459
 40
1.344
 41
1.344
 42
-0.8846768105770848
 10
-44611.39161262949
 20
45552.17167177459
 40
1.344
 41
1.344
 10
-45043.01675619077
 20
45552.17167177459
 40
1.344
 41
1.344
 10
-45043.01675619077
 20
44851.91389626027
 40
1.344
 41
1.344
 10
-44374.00383716973
 20
45212.992749778
 40
0.0
 41
0.0
 10
-44374.00383716973
 20
44436.43138714821
 40
1.344
 41
1.344
 10
-45093.41675619078
 20
44824.71206846311
 40
1.344
 41
1.344
 10
-45812.82967521179
 20
44436.43138714821
 40
0.0
 41
0.0
 10
-45812.82967521179
 20
45212.992749778
 40
1.344
 41
1.344
  0
TEXT
  5
16551
330
2E3A
100
AcDbEntity
  8
Control object
  6
Continuous
100
AcDbText
 10
-44444.71809443198
 20
44970.45830208593
 30
0.0
 40
280.0
  1
_Col 52-0
  7
ARIAL
100
AcDbText
  0
LWPOLYLINE
  5
16552
330
2E3A
100
AcDbEntity
  8
Control object
  6
Continuous
 62
    42
100
AcDbPolyline
 90
       11
 70
     1
 10
-5907.846229268852
 20
31469.75349237042
 40
1.344
 41
1.344
 10
-5907.846229268852
 20
32170.01126788475
 40
1.344
 41
1.344
 10
-6339.471372830118
 20
32170.01126788475
 40
1.344
 41
1.344
 42
-0.8846768105770848
 10
-5375.421085707579
 20
32170.01126788475
 40
1.344
 41
1.344
 10
-5807.046229268856
 20
32170.01126788475
 40
1.344
 41
1.344
 10
-5807.046229268856
 20
31469.75349237042
 40
1.344
 41
1.344
 10
-5138.033310247855
 20
31830.83234588817
 40
0.0
 41
0.0
 10
-5138.033310247855
 20
31054.27098325834
 40
1.344
 41
1.344
 10
-5857.446229268852
 20
31442.55166457327
 40
1.344
 41
1.344
 10
-6576.859148289854
 20
31054.27098325834
 40
0.0
 41
0.0
 10
-6576.859148289854
 20
31830.83234588817
 40
1.344
 41
1.344
  0
TEXT
  5
16554
330
2E3A
100
AcDbEntity
  8
Control object
  6
Continuous
100
AcDbText
 10
-5748.307256775833
 20
32453.24415056732
 30
0.0
 40
280.0
  1
_Col 45-1
  7
ARIAL
100
AcDbText
  0
TEXT
  5
16557
330
2E3A
100
AcDbEntity
  8
Control object
  6
Continuous
100
AcDbText
 10
-5748.307256775833
 20
49870.83236842885
 30
0.0
 40
280.0
  1
_Col 45-0
  7
ARIAL
100
AcDbText
  0
LWPOLYLINE
  5
16558
330
2E3A
100
AcDbEntity
  8
Control object
  6
Continuous
 62
    42
100
AcDbPolyline
 90
       11
 70
     1
 10
-28303.3779009305
 20
37781.84643382364
 40
1.344
 41
1.344
 10
-28303.3779009305
 20
38482.10420933793
 40
1.344
 41
1.344
 10
-28735.00304449176
 20
38482.10420933793
 40
1.344
 41
1.344
 42
-0.8846768105770848
 10
-27770.95275736923
 20
38482.10420933793
 40
1.344
 41
1.344
 10
-28202.5779009305
 20
38482.10420933793
 40
1.344
 41
1.344
 10
-28202.5779009305
 20
37781.84643382364
 40
1.344
 41
1.344
 10
-27533.56498190951
 20
38142.92528734137
 40
0.0
 41
0.0
 10
-27533.56498190951
 20
37366.36392471154
 40
1.344
 41
1.344
 10
-28252.9779009305
 20
37754.6446060265
 40
1.344
 41
1.344
 10
-28972.39081995149
 20
37366.36392471154
 40
0.0
 41
0.0
 10
-28972.39081995149
 20
38142.92528734137
 40
1.344
 41
1.344
  0
TEXT
  5
1655A
330
2E3A
100
AcDbEntity
  8
Control object
  6
Continuous
100
AcDbText
 10
-27960.31629338971
 20
38775.05062737434
 30
0.0
 40
280.0
  1
_Col 51-0
  7
ARIAL
100
AcDbText
  0
LWPOLYLINE
  5
1655B
330
2E3A
100
AcDbEntity
  8
Control object
  6
Continuous
 62
    42
100
AcDbPolyline
 90
       11
 70
     1
 10
370.2930316622436
 20
31485.15905521135
 40
1.344
 41
1.344
 10
1070.550807176556
 20
31485.15905521135
 40
1.344
 41
1.344
 10
1070.550807176556
 20
31916.7841987726
 40
1.344
 41
1.344
 42
-0.8846768105770848
 10
1070.550807176556
 20
30952.73391165006
 40
1.344
 41
1.344
 10
1070.550807176556
 20
31384.35905521135
 40
1.344
 41
1.344
 10
370.2930316622436
 20
31384.35905521135
 40
1.344
 41
1.344
 10
731.371885179968
 20
30715.34613619033
 40
0.0
 41
0.0
 10
-45.18947744983953
 20
30715.34613619033
 40
1.344
 41
1.344
 10
343.0912038650967
 20
31434.75905521134
 40
1.344
 41
1.344
 10
-45.18947744983953
 20
32154.17197423233
 40
0.0
 41
0.0
 10
731.371885179968
 20
32154.17197423233
 40
1.344
 41
1.344
  0
TEXT
  5
1655D
330
2E3A
100
AcDbEntity
  8
Control object
  6
Continuous
100
AcDbText
 10
1342.436677687633
 20
31562.27985287164
 30
0.0
 40
280.0
  1
_Col 47-0
  7
ARIAL
100
AcDbText
  0
LWPOLYLINE
  5
1655E
330
2E3A
100
AcDbEntity
  8
Control object
  6
Continuous
 62
    42
100
AcDbPolyline
 90
       11
 70
     1
 10
370.2930316622436
 20
51333.83986095218
 40
1.344
 41
1.344
 10
1070.550807176556
 20
51333.83986095218
 40
1.344
 41
1.344
 10
1070.550807176556
 20
51765.46500451345
 40
1.344
 41
1.344
 42
-0.8846768105770848
 10
1070.550807176556
 20
50801.4147173909
 40
1.344
 41
1.344
 10
1070.550807176556
 20
51233.03986095216
 40
1.344
 41
1.344
 10
370.2930316622436
 20
51233.03986095216
 40
1.344
 41
1.344
 10
731.371885179968
 20
50564.0269419312
 40
0.0
 41
0.0
 10
-45.18947744983953
 20
50564.0269419312
 40
1.344
 41
1.344
 10
343.0912038650967
 20
51283.43986095218
 40
1.344
 41
1.344
 10
-45.18947744983953
 20
52002.85277997318
 40
0.0
 41
0.0
 10
731.371885179968
 20
52002.85277997318
 40
1.344
 41
1.344
  0
TEXT
  5
1655F
330
2E3A
100
AcDbEntity
  8
Control object
  6
Continuous
100
AcDbText
 10
1255.332052774888
 20
51463.36280688386
 30
0.0
 40
280.0
  1
_Col 46-0
  7
ARIAL
100
AcDbText
  0
TEXT
  5
16560
330
2E3A
100
AcDbEntity
  8
Omriss tanker
  6
Continuous
100
AcDbText
 10
63411.51000429902
 20
47148.32791802101
 30
0.0
 40
600.0
  1
_tl 40
  7
ARIAL
100
AcDbText
  0
TEXT
  5
16561
330
2E3A
100
AcDbEntity
  8
Omriss tanker
  6
Continuous
100
AcDbText
 10
40474.56047257211
 20
52966.85575084628
 30
0.0
 40
600.0
  1
_tl 41
  7
ARIAL
100
AcDbText
  0
TEXT
  5
16562
330
2E3A
100
AcDbEntity
  8
Omriss tanker
  6
Continuous
100
AcDbText
 10
40474.56047257211
 20
35622.50322694281
 30
0.0
 40
600.0
  1
_tl 42
  7
ARIAL
100
AcDbText
  0
TEXT
  5
16563
330
2E3A
100
AcDbEntity
  8
Omriss tanker
  6
Continuous
100
AcDbText
 10
20565.84636086998
 20
52966.85575084628
 30
0.0
 40
600.0
  1
_tl 43
  7
ARIAL
100
AcDbText
  0
TEXT
  5
16564
330
2E3A
100
AcDbEntity
  8
Omriss tanker
  6
Continuous
100
AcDbText
 10
20565.84636086998
 20
35622.50322694281
 30
0.0
 40
600.0
  1
_tl 44
  7
ARIAL
100
AcDbText
  0
TEXT
  5
16567
330
2E3A
100
AcDbEntity
  8
Omriss tanker
  6
Continuous
100
AcDbText
 10
-11917.12832599204
 20
55883.42539727472
 30
0.0
 40
600.0
  1
_tl 48
  7
ARIAL
100
AcDbText
  0
TEXT
  5
16568
330
2E3A
100
AcDbEntity
  8
Omriss tanker
  6
Continuous
100
AcDbText
 10
-13883.67547155027
 20
30588.79791810123
 30
0.0
 40
600.0
  1
_tl 49
  7
ARIAL
100
AcDbText
  0
TEXT
  5
16569
330
2E3A
100
AcDbEntity
  8
Omriss tanker
  6
Continuous
100
AcDbText
 10
-39540.66600989686
 20
52061.53522955887
 30
0.0
 40
600.0
  1
_tl 50
  7
ARIAL
100
AcDbText
  0
TEXT
  5
1656A
330
2E3A
100
AcDbEntity
  8
Omriss tanker
  6
Continuous
100
AcDbText
 10
-39540.66600989686
 20
34717.18270565542
 30
0.0
 40
600.0
  1
_tl 51
  7
ARIAL
100
AcDbText
  0
TEXT
  5
1656B
330
2E3A
100
AcDbEntity
  8
Omriss tanker
  6
Continuous
100
AcDbText
 10
3191.3080581469
 20
43164.65968184913
 30
0.0
 40
600.0
  1
_tl 45
  7
ARIAL
100
AcDbText
  0
TEXT
  5
1656C
330
2E3A
100
AcDbEntity
  8
Omriss tanker
  6
Continuous
100
AcDbText
 10
-54738.56773931715
 20
43418.86463698723
 30
0.0
 40
600.0
  1
_tl 52
  7
ARIAL
100
AcDbText
  0
TEXT
  5
1656D
330
2E3A
100
AcDbEntity
  8
Omriss tanker
  6
Continuous
100
AcDbText
 10
9962.319526644003
 20
55991.54970360246
 30
0.0
 40
600.0
  1
_tl 46
  7
ARIAL
100
AcDbText
  0
TEXT
  5
1656E
330
2E3A
100
AcDbEntity
  8
Omriss tanker
  6
Continuous
100
AcDbText
 10
11197.24709459835
 20
27940.41779494881
 30
0.0
 40
600.0
  1
_tl 47
  7
ARIAL
100
AcDbText
  0
LWPOLYLINE
  5
1656F
330
2E3A
100
AcDbEntity
  8
Omriss tanker
  6
Continuous
100
AcDbPolyline
 90
        7
 70
     0
 43
0.0
 10
-29845.79595154407
 20
57389.75416147996
 10
-29845.79595154402
 20
41289.75416147997
 10
-14925.74071477229
 20
41289.75416147993
 10
-14925.74071477219
 20
53364.75416147979
 10
-14925.74071477219
 20
53364.75416147979
 10
-14925.74071477216
 20
57389.75416147988
 10
-29845.79595112451
 20
57389.75416147996
  0
LWPOLYLINE
  5
16570
330
2E3A
100
AcDbEntity
  8
Omriss tanker
  6
Continuous
100
AcDbPolyline
 90
        7
 70
     0
 43
0.0
 10
-29845.79595154412
 20
25189.75416147996
 10
-29845.79595154402
 20
41289.75416147996
 10
-14925.74071477229
 20
41289.75416147993
 10
-14925.74071477222
 20
29214.75416148012
 10
-14925.74071477222
 20
29214.75416148012
 10
-14925.7407147722
 20
25189.75416148003
 10
-29845.79595112455
 20
25189.75416147996
  0
LWPOLYLINE
  5
16571
330
2E3A
100
AcDbEntity
  8
Control object
  6
Continuous
 62
    42
100
AcDbPolyline
 90
       11
 70
     1
 10
-23778.52309449818
 20
47393.94967688323
 40
1.344
 41
1.344
 10
-23778.52309449818
 20
48094.20745239753
 40
1.344
 41
1.344
 10
-24210.14823805945
 20
48094.20745239753
 40
1.344
 41
1.344
 42
-0.8846768105770848
 10
-23246.09795093692
 20
48094.20745239753
 40
1.344
 41
1.344
 10
-23677.72309449818
 20
48094.20745239753
 40
1.344
 41
1.344
 10
-23677.72309449818
 20
47393.94967688323
 40
1.344
 41
1.344
 10
-23008.71017547717
 20
47755.02853040094
 40
0.0
 41
0.0
 10
-23008.71017547717
 20
46978.4671677711
 40
1.344
 41
1.344
 10
-23728.12309449818
 20
47366.74784908605
 40
1.344
 41
1.344
 10
-24447.53601351919
 20
46978.4671677711
 40
0.0
 41
0.0
 10
-24447.53601351919
 20
47755.02853040094
 40
1.344
 41
1.344
  0
LWPOLYLINE
  5
16577
330
2E3A
100
AcDbEntity
  8
Control object
  6
Continuous
 62
    42
100
AcDbPolyline
 90
       11
 70
     1
 10
-16751.09680886157
 20
55840.75305861698
 40
1.344
 41
1.344
 10
-16751.09680886157
 20
55140.49528310266
 40
1.344
 41
1.344
 10
-16319.4716653003
 20
55140.49528310266
 40
1.344
 41
1.344
 42
-0.8846768105770848
 10
-17283.52195242285
 20
55140.49528310266
 40
1.344
 41
1.344
 10
-16851.89680886157
 20
55140.49528310266
 40
1.344
 41
1.344
 10
-16851.89680886157
 20
55840.75305861698
 40
1.344
 41
1.344
 10
-17520.90972788256
 20
55479.67420509924
 40
0.0
 41
0.0
 10
-17520.90972788256
 20
56256.23556772906
 40
1.344
 41
1.344
 10
-16801.49680886157
 20
55867.95488641413
 40
1.344
 41
1.344
 10
-16082.08388984056
 20
56256.23556772906
 40
0.0
 41
0.0
 10
-16082.08388984056
 20
55479.67420509924
 40
1.344
 41
1.344
  0
LWPOLYLINE
  5
1657A
330
2E3A
100
AcDbEntity
  8
Control object
  6
Continuous
 62
    42
100
AcDbPolyline
 90
       11
 70
     1
 10
-20516.62188002643
 20
55840.75305861698
 40
1.344
 41
1.344
 10
-20516.62188002643
 20
55140.49528310263
 40
1.344
 41
1.344
 10
-20084.99673646519
 20
55140.49528310263
 40
1.344
 41
1.344
 42
-0.8846768105770848
 10
-21049.04702358771
 20
55140.49528310263
 40
1.344
 41
1.344
 10
-20617.42188002643
 20
55140.49528310263
 40
1.344
 41
1.344
 10
-20617.42188002643
 20
55840.75305861698
 40
1.344
 41
1.344
 10
-21286.43479904746
 20
55479.67420509924
 40
0.0
 41
0.0
 10
-21286.43479904746
 20
56256.23556772906
 40
1.344
 41
1.344
 10
-20567.02188002644
 20
55867.95488641412
 40
1.344
 41
1.344
 10
-19847.60896100544
 20
56256.23556772906
 40
0.0
 41
0.0
 10
-19847.60896100544
 20
55479.67420509924
 40
1.344
 41
1.344
  0
LWPOLYLINE
  5
1657D
330
2E3A
100
AcDbEntity
  8
Control object
  6
Continuous
 62
    42
100
AcDbPolyline
 90
       11
 70
     1
 10
-21758.4167483523
 20
53431.38975216336
 40
1.344
 41
1.344
 10
-22458.67452386661
 20
53431.38975216336
 40
1.344
 41
1.344
 10
-22458.67452386661
 20
52999.7646086021
 40
1.344
 41
1.344
 42
-0.8846768105770848
 10
-22458.67452386661
 20
53963.81489572465
 40
1.344
 41
1.344
 10
-22458.67452386661
 20
53532.18975216337
 40
1.344
 41
1.344
 10
-21758.4167483523
 20
53532.18975216337
 40
1.344
 41
1.344
 10
-22119.49560187001
 20
54201.20267118433
 40
0.0
 41
0.0
 10
-21342.9342392402
 20
54201.20267118433
 40
1.344
 41
1.344
 10
-21731.21492055513
 20
53481.78975216336
 40
1.344
 41
1.344
 10
-21342.9342392402
 20
52762.37683314236
 40
0.0
 41
0.0
 10
-22119.49560187001
 20
52762.37683314236
 40
1.344
 41
1.344
  0
LWPOLYLINE
  5
1657F
330
2E3A
100
AcDbEntity
  8
Control object
  6
Continuous
 62
    42
100
AcDbPolyline
 90
       11
 70
     1
 10
-23793.22836149267
 20
50423.00294813145
 40
1.344
 41
1.344
 10
-23793.22836149267
 20
49722.74517261712
 40
1.344
 41
1.344
 10
-23361.60321793141
 20
49722.74517261712
 40
1.344
 41
1.344
 42
-0.8846768105770848
 10
-24325.65350505396
 20
49722.74517261712
 40
1.344
 41
1.344
 10
-23894.02836149268
 20
49722.74517261712
 40
1.344
 41
1.344
 10
-23894.02836149268
 20
50423.00294813145
 40
1.344
 41
1.344
 10
-24563.04128051367
 20
50061.92409461372
 40
0.0
 41
0.0
 10
-24563.04128051367
 20
50838.48545724353
 40
1.344
 41
1.344
 10
-23843.62836149267
 20
50450.20477592861
 40
1.344
 41
1.344
 10
-23124.21544247166
 20
50838.48545724353
 40
0.0
 41
0.0
 10
-23124.21544247166
 20
50061.92409461372
 40
1.344
 41
1.344
  0
LWPOLYLINE
  5
16580
330
2E3A
100
AcDbEntity
  8
Control object
  6
Continuous
 62
    42
100
AcDbPolyline
 90
       11
 70
     1
 10
-25277.29693790117
 20
52135.57512801683
 40
1.344
 41
1.344
 10
-25977.55471341546
 20
52135.57512801683
 40
1.344
 41
1.344
 10
-25977.55471341546
 20
51703.94998445554
 40
1.344
 41
1.344
 42
-0.8846768105770848
 10
-25977.55471341546
 20
52668.00027157806
 40
1.344
 41
1.344
 10
-25977.55471341546
 20
52236.37512801677
 40
1.344
 41
1.344
 10
-25277.29693790117
 20
52236.37512801677
 40
1.344
 41
1.344
 10
-25638.37579141889
 20
52905.3880470378
 40
0.0
 41
0.0
 10
-24861.81442878909
 20
52905.3880470378
 40
1.344
 41
1.344
 10
-25250.09511010401
 20
52185.9751280168
 40
1.344
 41
1.344
 10
-24861.81442878909
 20
51466.56220899579
 40
0.0
 41
0.0
 10
-25638.37579141889
 20
51466.56220899579
 40
1.344
 41
1.344
  0
LWPOLYLINE
  5
16583
330
2E3A
100
AcDbEntity
  8
Control object
  6
Continuous
 62
    42
100
AcDbPolyline
 90
       11
 70
     1
 10
-25222.89328230681
 20
42995.05667733082
 40
1.344
 41
1.344
 10
-24522.6355067925
 20
42995.05667733082
 40
1.344
 41
1.344
 10
-24522.6355067925
 20
43426.68182089211
 40
1.344
 41
1.344
 42
-0.8846768105770848
 10
-24522.6355067925
 20
42462.63153376956
 40
1.344
 41
1.344
 10
-24522.6355067925
 20
42894.25667733087
 40
1.344
 41
1.344
 10
-25222.89328230681
 20
42894.25667733087
 40
1.344
 41
1.344
 10
-24861.81442878908
 20
42225.24375830983
 40
0.0
 41
0.0
 10
-25638.37579141889
 20
42225.24375830983
 40
1.344
 41
1.344
 10
-25250.09511010395
 20
42944.65667733086
 40
1.344
 41
1.344
 10
-25638.37579141889
 20
43664.06959635185
 40
0.0
 41
0.0
 10
-24861.81442878908
 20
43664.06959635185
 40
1.344
 41
1.344
  0
LWPOLYLINE
  5
16584
330
2E3A
100
AcDbEntity
  8
Control object
  6
Continuous
 62
    42
100
AcDbPolyline
 90
       11
 70
     1
 10
-21070.52796052805
 20
42948.0356631628
 40
1.344
 41
1.344
 10
-20370.27018501375
 20
42948.0356631628
 40
1.344
 41
1.344
 10
-20370.27018501375
 20
43379.66080672403
 40
1.344
 41
1.344
 42
-0.8846768105770848
 10
-20370.27018501375
 20
42415.61051960147
 40
1.344
 41
1.344
 10
-20370.27018501375
 20
42847.23566316278
 40
1.344
 41
1.344
 10
-21070.52796052805
 20
42847.23566316278
 40
1.344
 41
1.344
 10
-20709.44910701034
 20
42178.22274414178
 40
0.0
 41
0.0
 10
-21486.01046964015
 20
42178.22274414178
 40
1.344
 41
1.344
 10
-21097.72978832522
 20
42897.63566316281
 40
1.344
 41
1.344
 10
-21486.01046964015
 20
43617.04858218382
 40
0.0
 41
0.0
 10
-20709.44910701034
 20
43617.04858218382
 40
1.344
 41
1.344
  0
LWPOLYLINE
  5
16595
330
2E3A
100
AcDbEntity
  8
Control object
  6
Continuous
100
AcDbPolyline
 90
       20
 70
     1
 43
0.63
 10
-24479.76858152532
 20
55793.88066766416
 10
-24479.76858152532
 20
55942.02910516416
 10
-24577.18472292226
 20
55942.02910516416
 10
-24725.77683463183
 20
56066.1863513962
 10
-24725.77683463183
 20
55942.02910516416
 10
-24823.21575455668
 20
55942.02910516416
 42
1.926208417817558
 10
-25324.16932885397
 20
55443.57708853281
 10
-25324.16932885397
 20
55348.17492054542
 10
-25448.326575086
 20
55199.5828088358
 10
-25324.16932885397
 20
55199.5828088358
 10
-25324.16932885397
 20
54881.27697541758
 10
-25176.020891354
 20
54881.27697541758
 10
-25176.020891354
 20
55198.30002777861
 10
-25053.15886218089
 20
55198.30002777861
 10
-25176.020891354
 20
55347.09341127054
 10
-25176.020891354
 20
55443.20626625315
 42
0.3158256435086028
 10
-24823.21575455668
 20
55793.88066766416
 10
-24727.05961568901
 20
55793.88066766416
 10
-24727.05961568901
 20
55671.01863849114
 10
-24578.26623219707
 20
55793.88066766416
  0
LWPOLYLINE
  5
1659E
330
2E3A
100
AcDbEntity
  8
Control object
  6
Continuous
 62
     7
100
AcDbPolyline
 90
        9
 70
     1
 43
0.0
 10
-19178.85348489494
 20
42342.72775365758
 10
-18790.57280358004
 20
42342.72775365758
 10
-18939.37676457553
 20
42618.4342131681
 10
-18648.71314423749
 20
42618.4342131681
 10
-18648.71314423749
 20
42786.43421316812
 10
-18949.49308969203
 20
42786.43421316812
 10
-18622.57280358004
 20
43566.14067267861
 10
-19346.85348489495
 20
43566.14067267861
 10
-18984.71314423749
 20
42702.43421316812
  0
LWPOLYLINE
  5
165AE
330
2E3A
100
AcDbEntity
  8
Control object
  6
Continuous
100
AcDbPolyline
 90
        2
 70
     0
 43
2.0
 39
2.0
 10
29364.46305269204
 20
44824.71206846311
 10
60002.80864968737
 20
44824.71206846311
  0
LWPOLYLINE
  5
165F2
330
2E3A
100
AcDbEntity
  8
Control object
  6
Continuous
100
AcDbPolyline
 90
        3
 70
     1
 43
2.0
 39
2.0
 10
-45812.82967521179
 20
44824.71206846311
 10
-53438.34083634318
 20
44824.71206846311
 10
-45812.82967521179
 20
44824.71206846311
  0
LWPOLYLINE
  5
165F3
330
2E3A
100
AcDbEntity
  8
Control object
  6
Continuous
100
AcDbPolyline
 90
        3
 70
     1
 43
2.0
 39
2.0
 10
-44374.00383716973
 20
44824.71206846311
 10
27925.63721465003
 20
44824.71206846311
 10
-44374.00383716973
 20
44824.71206846311
  0
LWPOLYLINE
  5
165F4
330
2E3A
100
AcDbEntity
  8
Control object
  6
Continuous
100
AcDbPolyline
 90
        3
 70
     1
 43
2.0
 39
2.0
 10
29364.46305269204
 20
44824.71206846311
 10
60002.80864968737
 20
44824.71206846311
 10
29364.46305269204
 20
44824.71206846311
  0
LWPOLYLINE
  5
165F6
330
2E3A
100
AcDbEntity
  8
Control object
  6
Continuous
100
AcDbPolyline
 90
        3
 70
     1
 43
2.0
 39
2.0
 10
-28972.39081995149
 20
37754.64460602643
 10
-45236.05499678367
 20
37754.64460602643
 10
-28972.39081995149
 20
37754.64460602643
  0
LWPOLYLINE
  5
165F7
330
2E3A
100
AcDbEntity
  8
Control object
  6
Continuous
100
AcDbPolyline
 90
        3
 70
     1
 43
2.0
 39
2.0
 10
-27533.56498190951
 20
37754.64460602643
 10
27974.97839859417
 20
37754.64460602645
 10
-27533.56498190951
 20
37754.64460602643
  0
LWPOLYLINE
  5
165F8
330
2E3A
100
AcDbEntity
  8
Control object
  6
Continuous
100
AcDbPolyline
 90
        7
 70
     1
 43
2.0
 39
2.0
 10
29413.80423663616
 20
37754.64460602645
 10
55990.05189790308
 20
37754.64460602645
 10
55990.05189790313
 20
39721.48603168212
 10
80721.43453466393
 20
39721.48603168212
 10
55990.05189790313
 20
39721.48603168212
 10
55990.05189790308
 20
37754.64460602645
 10
29413.80423663616
 20
37754.64460602645
  0
LWPOLYLINE
  5
165F9
330
2E3A
100
AcDbEntity
  8
Control object
  6
Continuous
100
AcDbPolyline
 90
        3
 70
     1
 43
2.0
 39
2.0
 10
81620.70068344016
 20
39721.48603168212
 10
83485.38541049917
 20
39721.48603168212
 10
81620.70068344016
 20
39721.48603168212
  0
LWPOLYLINE
  5
165FA
330
2E3A
100
AcDbEntity
  8
Control object
  6
Continuous
100
AcDbPolyline
 90
        3
 70
     1
 43
2.0
 39
2.0
 10
-17520.90972788256
 20
55867.95488641413
 10
-18196.81622424146
 20
55867.95488641416
 10
-17520.90972788256
 20
55867.95488641413
  0
LWPOLYLINE
  5
165FB
330
2E3A
100
AcDbEntity
  8
Control object
  6
Continuous
100
AcDbPolyline
 90
        3
 70
     1
 43
2.0
 39
2.0
 10
-19096.08237301771
 20
55867.95488641416
 10
-19847.60896100544
 20
55867.95488641413
 10
-19096.08237301771
 20
55867.95488641416
  0
LWPOLYLINE
  5
165FC
330
2E3A
100
AcDbEntity
  8
Control object
  6
Continuous
100
AcDbPolyline
 90
        3
 70
     1
 43
2.0
 39
2.0
 10
-21286.43479904746
 20
55867.95488641413
 10
-23210.25951088494
 20
55867.95488641416
 10
-21286.43479904746
 20
55867.95488641413
  0
LWPOLYLINE
  5
165FD
330
2E3A
100
AcDbEntity
  8
Control object
  6
Continuous
100
AcDbPolyline
 90
        3
 70
     1
 43
2.0
 39
2.0
 10
-24109.5256596612
 20
55867.95488641416
 10
-24479.76858152532
 20
55867.95488641416
 10
-24109.5256596612
 20
55867.95488641416
  0
LWPOLYLINE
  5
165FE
330
2E3A
100
AcDbEntity
  8
Control object
  6
Continuous
100
AcDbPolyline
 90
        5
 70
     1
 43
2.0
 39
2.0
 10
-21286.43479904746
 20
55867.95488641413
 10
-21731.21492055511
 20
55867.9548864141
 10
-21731.21492055511
 20
54201.20267118433
 10
-21731.21492055511
 20
55867.9548864141
 10
-21286.43479904746
 20
55867.95488641413
  0
LWPOLYLINE
  5
165FF
330
2E3A
100
AcDbEntity
  8
Control object
  6
Continuous
100
AcDbPolyline
 90
        3
 70
     1
 43
2.0
 39
2.0
 10
-25250.09511010398
 20
54881.27697541758
 10
-25250.09511010398
 20
54211.38778925414
 10
-25250.09511010398
 20
54881.27697541758
  0
LWPOLYLINE
  5
16600
330
2E3A
100
AcDbEntity
  8
Control object
  6
Continuous
100
AcDbPolyline
 90
        3
 70
     1
 43
2.0
 39
2.0
 10
-25250.09511010398
 20
53312.1216404779
 10
-25250.09511010399
 20
52905.3880470378
 10
-25250.09511010398
 20
53312.1216404779
  0
LWPOLYLINE
  5
16605
330
2E3A
100
AcDbEntity
  8
Control object
  6
Continuous
100
AcDbPolyline
 90
        3
 70
     1
 43
2.0
 39
2.0
 10
-21731.21492055511
 20
52762.37683314236
 10
-21731.21492055512
 20
44824.71206846311
 10
-21731.21492055511
 20
52762.37683314236
  0
LWPOLYLINE
  5
1660C
330
2E3A
100
AcDbEntity
  8
Control object
  6
Continuous
100
AcDbPolyline
 90
        3
 70
     1
 43
0.3
 39
2.0
 10
-23124.21544247167
 20
50450.20477592862
 10
-21731.21492055511
 20
50450.20477592862
 10
-23124.21544247167
 20
50450.20477592862
  0
LWPOLYLINE
  5
16610
330
2E3A
100
AcDbEntity
  8
Control object
  6
Continuous
 62
    42
100
AcDbPolyline
 90
       11
 70
     1
 10
-16751.09680886159
 20
26738.75526434295
 40
1.344
 41
1.344
 10
-16751.09680886159
 20
27439.01303985727
 40
1.344
 41
1.344
 10
-16319.47166530032
 20
27439.01303985727
 40
1.344
 41
1.344
 42
0.8846768105770848
 10
-17283.52195242286
 20
27439.01303985727
 40
1.344
 41
1.344
 10
-16851.89680886159
 20
27439.01303985727
 40
1.344
 41
1.344
 10
-16851.89680886159
 20
26738.75526434295
 40
1.344
 41
1.344
 10
-17520.90972788258
 20
27099.83411786066
 40
0.0
 41
0.0
 10
-17520.90972788258
 20
26323.27275523088
 40
1.344
 41
1.344
 10
-16801.49680886158
 20
26711.55343654582
 40
1.344
 41
1.344
 10
-16082.08388984058
 20
26323.27275523088
 40
0.0
 41
0.0
 10
-16082.08388984058
 20
27099.83411786066
 40
1.344
 41
1.344
  0
LWPOLYLINE
  5
16611
330
2E3A
100
AcDbEntity
  8
Control object
  6
Continuous
 62
    42
100
AcDbPolyline
 90
       11
 70
     1
 10
-20516.62188002647
 20
26738.75526434295
 40
1.344
 41
1.344
 10
-20516.62188002647
 20
27439.01303985726
 40
1.344
 41
1.344
 10
-20084.9967364652
 20
27439.01303985726
 40
1.344
 41
1.344
 42
0.8846768105770848
 10
-21049.04702358776
 20
27439.01303985726
 40
1.344
 41
1.344
 10
-20617.42188002646
 20
27439.01303985726
 40
1.344
 41
1.344
 10
-20617.42188002646
 20
26738.75526434295
 40
1.344
 41
1.344
 10
-21286.43479904747
 20
27099.83411786068
 40
0.0
 41
0.0
 10
-21286.43479904747
 20
26323.27275523088
 40
1.344
 41
1.344
 10
-20567.02188002649
 20
26711.55343654581
 40
1.344
 41
1.344
 10
-19847.60896100547
 20
26323.27275523087
 40
0.0
 41
0.0
 10
-19847.60896100547
 20
27099.83411786066
 40
1.344
 41
1.344
  0
LWPOLYLINE
  5
16612
330
2E3A
100
AcDbEntity
  8
Control object
  6
Continuous
 62
    42
100
AcDbPolyline
 90
       11
 70
     1
 10
-21758.4167483523
 20
29148.11857079659
 40
1.344
 41
1.344
 10
-22458.67452386662
 20
29148.11857079659
 40
1.344
 41
1.344
 10
-22458.67452386662
 20
29579.74371435785
 40
1.344
 41
1.344
 42
0.8846768105770848
 10
-22458.67452386662
 20
28615.69342723532
 40
1.344
 41
1.344
 10
-22458.67452386662
 20
29047.31857079659
 40
1.344
 41
1.344
 10
-21758.4167483523
 20
29047.31857079659
 40
1.344
 41
1.344
 10
-22119.49560187003
 20
28378.30565177558
 40
0.0
 41
0.0
 10
-21342.93423924022
 20
28378.30565177558
 40
1.344
 41
1.344
 10
-21731.21492055517
 20
29097.71857079659
 40
1.344
 41
1.344
 10
-21342.93423924022
 20
29817.13148981759
 40
0.0
 41
0.0
 10
-22119.49560187003
 20
29817.13148981759
 40
1.344
 41
1.344
  0
LWPOLYLINE
  5
16613
330
2E3A
100
AcDbEntity
  8
Control object
  6
Continuous
 62
    42
100
AcDbPolyline
 90
       11
 70
     1
 10
-23793.22836149269
 20
32156.50537482849
 40
1.344
 41
1.344
 10
-23793.22836149269
 20
32856.76315034281
 40
1.344
 41
1.344
 10
-23361.60321793142
 20
32856.76315034281
 40
1.344
 41
1.344
 42
0.8846768105770848
 10
-24325.65350505396
 20
32856.76315034281
 40
1.344
 41
1.344
 10
-23894.02836149268
 20
32856.76315034281
 40
1.344
 41
1.344
 10
-23894.02836149268
 20
32156.50537482849
 40
1.344
 41
1.344
 10
-24563.0412805137
 20
32517.58422834623
 40
0.0
 41
0.0
 10
-24563.0412805137
 20
31741.02286571641
 40
1.344
 41
1.344
 10
-23843.62836149269
 20
32129.30354703135
 40
1.344
 41
1.344
 10
-23124.2154424717
 20
31741.02286571641
 40
0.0
 41
0.0
 10
-23124.21544247168
 20
32517.58422834623
 40
1.344
 41
1.344
  0
LWPOLYLINE
  5
16614
330
2E3A
100
AcDbEntity
  8
Control object
  6
Continuous
 62
    42
100
AcDbPolyline
 90
       11
 70
     1
 10
-25277.29693790118
 20
30443.93319494314
 40
1.344
 41
1.344
 10
-25977.55471341549
 20
30443.93319494314
 40
1.344
 41
1.344
 10
-25977.55471341549
 20
30875.55833850438
 40
1.344
 41
1.344
 42
0.8846768105770848
 10
-25977.55471341549
 20
29911.50805138188
 40
1.344
 41
1.344
 10
-25977.55471341549
 20
30343.13319494313
 40
1.344
 41
1.344
 10
-25277.29693790118
 20
30343.13319494313
 40
1.344
 41
1.344
 10
-25638.37579141889
 20
29674.12027592213
 40
0.0
 41
0.0
 10
-24861.81442878911
 20
29674.12027592213
 40
1.344
 41
1.344
 10
-25250.09511010404
 20
30393.53319494313
 40
1.344
 41
1.344
 10
-24861.81442878911
 20
31112.94611396413
 40
0.0
 41
0.0
 10
-25638.37579141889
 20
31112.94611396413
 40
1.344
 41
1.344
  0
LWPOLYLINE
  5
16615
330
2E3A
100
AcDbEntity
  8
Control object
  6
Continuous
 62
    42
100
AcDbPolyline
 90
       11
 70
     1
 10
-21070.52796052805
 20
39091.91297053137
 40
1.344
 41
1.344
 10
-20370.27018501375
 20
39091.91297053137
 40
1.344
 41
1.344
 10
-20370.27018501375
 20
38660.28782697012
 40
1.344
 41
1.344
 42
0.8846768105770848
 10
-20370.27018501375
 20
39624.33811409265
 40
1.344
 41
1.344
 10
-20370.27018501375
 20
39192.71297053136
 40
1.344
 41
1.344
 10
-21070.52796052805
 20
39192.71297053136
 40
1.344
 41
1.344
 10
-20709.44910701034
 20
39861.72588955239
 40
0.0
 41
0.0
 10
-21486.01046964015
 20
39861.72588955239
 40
1.344
 41
1.344
 10
-21097.72978832522
 20
39142.31297053136
 40
1.344
 41
1.344
 10
-21486.01046964016
 20
38422.90005151038
 40
0.0
 41
0.0
 10
-20709.44910701034
 20
38422.90005151038
 40
1.344
 41
1.344
  0
LWPOLYLINE
  5
16618
330
2E3A
100
AcDbEntity
  8
Control object
  6
Continuous
100
AcDbPolyline
 90
       20
 70
     1
 43
0.63
 10
-24479.76858152534
 20
26785.62765529577
 10
-24479.76858152534
 20
26637.47921779577
 10
-24577.18472292228
 20
26637.47921779577
 10
-24725.77683463185
 20
26513.32197156374
 10
-24725.77683463185
 20
26637.47921779577
 10
-24823.2157545567
 20
26637.47921779577
 42
-1.926208417817558
 10
-25324.16932885399
 20
27135.93123442712
 10
-25324.16932885399
 20
27231.33340241452
 10
-25448.32657508602
 20
27379.92551412413
 10
-25324.16932885399
 20
27379.92551412413
 10
-25324.16932885399
 20
27698.23134754235
 10
-25176.02089135402
 20
27698.23134754235
 10
-25176.02089135402
 20
27381.20829518132
 10
-25053.15886218091
 20
27381.20829518132
 10
-25176.02089135402
 20
27232.41491168938
 10
-25176.02089135402
 20
27136.30205670679
 42
-0.3158256435086028
 10
-24823.2157545567
 20
26785.62765529577
 10
-24727.05961568903
 20
26785.62765529577
 10
-24727.05961568903
 20
26908.48968446878
 10
-24578.26623219709
 20
26785.62765529577
  0
LWPOLYLINE
  5
1661B
330
2E3A
100
AcDbEntity
  8
Control object
  6
Continuous
100
AcDbPolyline
 90
        3
 70
     1
 43
2.0
 39
2.0
 10
-17520.90972788258
 20
26711.55343654577
 10
-18196.81622424148
 20
26711.55343654576
 10
-17520.90972788258
 20
26711.55343654577
  0
LWPOLYLINE
  5
1661C
330
2E3A
100
AcDbEntity
  8
Control object
  6
Continuous
100
AcDbPolyline
 90
        3
 70
     1
 43
2.0
 39
2.0
 10
-19096.08237301774
 20
26711.55343654576
 10
-19847.60896100547
 20
26711.55343654576
 10
-19096.08237301774
 20
26711.55343654576
  0
LWPOLYLINE
  5
1661D
330
2E3A
100
AcDbEntity
  8
Control object
  6
Continuous
100
AcDbPolyline
 90
        3
 70
     1
 43
2.0
 39
2.0
 10
-21286.43479904747
 20
26711.55343654578
 10
-23210.25951088496
 20
26711.55343654577
 10
-21286.43479904747
 20
26711.55343654578
  0
LWPOLYLINE
  5
1661E
330
2E3A
100
AcDbEntity
  8
Control object
  6
Continuous
100
AcDbPolyline
 90
        3
 70
     1
 43
0.3
 39
2.0
 10
-24109.52565966122
 20
26711.55343654577
 10
-24479.76858152534
 20
26711.55343654577
 10
-24109.52565966122
 20
26711.55343654577
  0
LWPOLYLINE
  5
1661F
330
2E3A
100
AcDbEntity
  8
Control object
  6
Continuous
100
AcDbPolyline
 90
        5
 70
     1
 43
2.0
 39
2.0
 10
-21286.43479904747
 20
26711.55343654578
 10
-21731.21492055513
 20
26711.55343654583
 10
-21731.21492055512
 20
28378.30565177558
 10
-21731.21492055513
 20
26711.55343654583
 10
-21286.43479904747
 20
26711.55343654578
  0
LWPOLYLINE
  5
16620
330
2E3A
100
AcDbEntity
  8
Control object
  6
Continuous
100
AcDbPolyline
 90
        3
 70
     1
 43
2.0
 39
2.0
 10
-25250.095110104
 20
27698.23134754235
 10
-25250.095110104
 20
28368.12053370578
 10
-25250.095110104
 20
27698.23134754235
  0
LWPOLYLINE
  5
16621
330
2E3A
100
AcDbEntity
  8
Control object
  6
Continuous
100
AcDbPolyline
 90
        3
 70
     1
 43
2.0
 39
2.0
 10
-25250.095110104
 20
29267.38668248204
 10
-25250.095110104
 20
29674.12027592213
 10
-25250.095110104
 20
29267.38668248204
  0
LWPOLYLINE
  5
16622
330
2E3A
100
AcDbEntity
  8
Control object
  6
Continuous
100
AcDbPolyline
 90
        5
 70
     1
 43
2.0
 39
2.0
 10
-24563.0412805137
 20
32129.30354703132
 10
-25250.095110104
 20
32129.30354703132
 10
-25250.095110104
 20
31112.94611396413
 10
-25250.095110104
 20
32129.30354703132
 10
-24563.0412805137
 20
32129.30354703132
  0
LWPOLYLINE
  5
16624
330
2E3A
100
AcDbEntity
  8
Control object
  6
Continuous
100
AcDbPolyline
 90
        3
 70
     1
 43
2.0
 39
2.0
 10
-21731.21492055513
 20
29817.13148981759
 10
-21731.21492055512
 20
37754.79625449682
 10
-21731.21492055513
 20
29817.13148981759
  0
LWPOLYLINE
  5
16626
330
2E3A
100
AcDbEntity
  8
Control object
  6
Continuous
100
AcDbPolyline
 90
        3
 70
     1
 43
2.0
 39
2.0
 10
-23124.21544247168
 20
32129.30354703132
 10
-21731.21492055512
 20
32129.30354703132
 10
-23124.21544247168
 20
32129.30354703132
  0
LWPOLYLINE
  5
1662A
330
2E3A
100
AcDbEntity
  8
Omriss tanker
  6
Continuous
100
AcDbPolyline
 90
        8
 70
     1
 43
0.0
 10
-4861.059620296863
 20
57389.7541614798
 10
-14925.74071477216
 20
57389.75416147988
 10
-14925.74071477219
 20
53364.75416147979
 10
-14925.74071477219
 20
53364.75416147979
 10
-14925.74071477229
 20
41289.75416147993
 10
-4861.059620296924
 20
41289.75416147997
 10
-4861.059620296863
 20
57389.7541614798
 10
-14925.74071477216
 20
57389.75416147988
  0
LWPOLYLINE
  5
1662B
330
2E3A
100
AcDbEntity
  8
Omriss tanker
  6
Continuous
100
AcDbPolyline
 90
        6
 70
     1
 43
0.0
 10
-4861.059620296983
 20
25189.75416148003
 10
-14925.7407147722
 20
25189.75416148003
 10
-14925.74071477222
 20
29214.75416148012
 10
-14925.74071477222
 20
29214.75416148012
 10
-14925.74071477229
 20
41289.75416147993
 10
-4861.059620296924
 20
41289.75416147997
  0
LWPOLYLINE
  5
16634
330
2E3A
100
AcDbEntity
  8
Control object
  6
Continuous
100
AcDbPolyline
 90
        3
 70
     1
 43
2.0
 39
2.0
 10
343.0912038650642
 20
52002.85277997318
 10
343.0912038650642
 20
53986.66389304388
 10
343.0912038650642
 20
52002.85277997318
  0
LWPOLYLINE
  5
16635
330
2E3A
100
AcDbEntity
  8
Control object
  6
Continuous
100
AcDbPolyline
 90
        3
 70
     1
 43
2.0
 39
2.0
 10
343.0912038650642
 20
50564.0269419312
 10
343.091203865064
 20
44824.71206846311
 10
343.0912038650642
 20
50564.0269419312
  0
LWPOLYLINE
  5
16636
330
2E3A
100
AcDbEntity
  8
Control object
  6
Continuous
 62
    42
100
AcDbPolyline
 90
       11
 70
     1
 10
-5907.846229268852
 20
50764.97328201204
 40
1.344
 41
1.344
 10
-5907.846229268852
 20
50064.71550649773
 40
1.344
 41
1.344
 10
-6339.471372830118
 20
50064.71550649773
 40
1.344
 41
1.344
 42
0.8846768105770848
 10
-5375.421085707579
 20
50064.71550649773
 40
1.344
 41
1.344
 10
-5807.046229268856
 20
50064.71550649773
 40
1.344
 41
1.344
 10
-5807.046229268856
 20
50764.97328201204
 40
1.344
 41
1.344
 10
-5138.033310247855
 20
50403.89442849432
 40
0.0
 41
0.0
 10
-5138.033310247855
 20
51180.45579112412
 40
1.344
 41
1.344
 10
-5857.446229268852
 20
50792.17510980919
 40
1.344
 41
1.344
 10
-6576.859148289854
 20
51180.45579112412
 40
0.0
 41
0.0
 10
-6576.859148289854
 20
50403.89442849432
 40
1.344
 41
1.344
  0
LWPOLYLINE
  5
16638
330
2E3A
100
AcDbEntity
  8
Control object
  6
Continuous
100
AcDbPolyline
 90
        7
 70
     1
 43
2.0
 39
2.0
 10
-6576.859148289854
 20
50792.17510980922
 10
-7273.599452882248
 20
50792.17510980922
 10
-7273.599452882248
 20
48315.66826183022
 10
343.0912038650642
 20
48315.66826183022
 10
-7273.599452882248
 20
48315.66826183022
 10
-7273.599452882248
 20
50792.17510980922
 10
-6576.859148289854
 20
50792.17510980922
  0
LWPOLYLINE
  5
16639
330
2E3A
100
AcDbEntity
  8
Control object
  6
Continuous
100
AcDbPolyline
 90
        3
 70
     1
 43
2.0
 39
2.0
 10
343.0912038650642
 20
30715.34613619033
 10
343.0912038650642
 20
28069.14887501369
 10
343.0912038650642
 20
30715.34613619033
  0
LWPOLYLINE
  5
1663A
330
2E3A
100
AcDbEntity
  8
Control object
  6
Continuous
100
AcDbPolyline
 90
        3
 70
     1
 43
2.0
 39
2.0
 10
343.0912038650642
 20
32154.17197423233
 10
343.091203865064
 20
37754.64460602643
 10
343.0912038650642
 20
32154.17197423233
  0
LWPOLYLINE
  5
1663B
330
2E3A
100
AcDbEntity
  8
Control object
  6
Continuous
100
AcDbPolyline
 90
        7
 70
     1
 43
2.0
 39
2.0
 10
-6576.859148289854
 20
31442.55166457324
 10
-7273.59945288225
 20
31442.55166457322
 10
-7273.59945288225
 20
33873.43399336632
 10
343.0912038650642
 20
33873.43399336632
 10
-7273.59945288225
 20
33873.43399336632
 10
-7273.59945288225
 20
31442.55166457322
 10
-6576.859148289854
 20
31442.55166457324
  0
LWPOLYLINE
  5
1663C
330
2E3A
100
AcDbEntity
  8
Control object
  6
Continuous
100
AcDbPolyline
 90
        3
 70
     1
 43
2.0
 39
2.0
 10
13748.26440940045
 20
46422.09991685716
 10
15039.77039182326
 20
46422.09991685716
 10
13748.26440940045
 20
46422.09991685716
  0
LWPOLYLINE
  5
1663D
330
2E3A
100
AcDbEntity
  8
Control object
  6
Continuous
100
AcDbPolyline
 90
        5
 70
     1
 43
2.0
 39
2.0
 10
12309.43857135845
 20
46422.09991685716
 10
11346.27372113609
 20
46422.09991685716
 10
11346.27372113609
 20
44824.71206846311
 10
11346.27372113609
 20
46422.09991685716
 10
12309.43857135845
 20
46422.09991685716
  0
LWPOLYLINE
  5
1663E
330
2E3A
100
AcDbEntity
  8
Control object
  6
Continuous
100
AcDbPolyline
 90
        3
 70
     1
 43
2.0
 39
2.0
 10
13748.26440940039
 20
35183.13080891369
 10
15039.77039182325
 20
35183.13080891369
 10
13748.26440940039
 20
35183.13080891369
  0
LWPOLYLINE
  5
1663F
330
2E3A
100
AcDbEntity
  8
Control object
  6
Continuous
100
AcDbPolyline
 90
        5
 70
     1
 43
2.0
 39
2.0
 10
12309.43857135839
 20
35183.13080891369
 10
11346.27372113609
 20
35183.1308089137
 10
11346.27372113609
 20
37754.64460602645
 10
11346.27372113609
 20
35183.1308089137
 10
12309.43857135839
 20
35183.13080891369
  0
LWPOLYLINE
  5
16640
330
2E3A
100
AcDbEntity
  8
Control object
  6
Continuous
100
AcDbPolyline
 90
        3
 70
     1
 43
2.0
 39
2.0
 10
28739.35462505396
 20
47635.30875788107
 10
31004.23181313218
 20
47635.30875788107
 10
28739.35462505396
 20
47635.30875788107
  0
LWPOLYLINE
  5
16642
330
2E3A
100
AcDbEntity
  8
Control object
  6
Continuous
100
AcDbPolyline
 90
        3
 70
     1
 43
2.0
 39
2.0
 10
28739.35462505396
 20
34834.04791660847
 10
31004.23181313218
 20
34834.04791660847
 10
28739.35462505396
 20
34834.04791660847
  0
LWPOLYLINE
  5
16643
330
2E3A
100
AcDbEntity
  8
Control object
  6
Continuous
100
AcDbPolyline
 90
        5
 70
     1
 43
2.0
 39
2.0
 10
27300.52878701199
 20
34834.04791660849
 10
26684.6485318836
 20
34834.04791660849
 10
26684.6485318836
 20
37754.64460602645
 10
26684.6485318836
 20
34834.04791660849
 10
27300.52878701199
 20
34834.04791660849
  0
LWPOLYLINE
  5
16644
330
2E3A
100
AcDbEntity
  8
Control object
  6
Continuous
100
AcDbPolyline
 90
        3
 70
     1
 43
0.3
 39
2.0
 10
-47077.51477806112
 20
46422.09991685716
 10
-45253.32226725429
 20
46422.09991685716
 10
-47077.51477806112
 20
46422.09991685716
  0
LWPOLYLINE
  5
16645
330
2E3A
100
AcDbEntity
  8
Control object
  6
Continuous
100
AcDbPolyline
 90
        9
 70
     1
 43
2.0
 39
2.0
 10
-48516.34061610313
 20
46422.09991685716
 10
-48959.72311625699
 20
46422.09991685716
 10
-48959.72311625699
 20
48828.64913634485
 10
-41546.92141825162
 20
48828.64913634485
 10
-41546.92141825162
 20
44824.71206846311
 10
-41546.92141825162
 20
48828.64913634485
 10
-48959.72311625699
 20
48828.64913634485
 10
-48959.72311625699
 20
46422.09991685716
 10
-48516.34061610313
 20
46422.09991685716
  0
LWPOLYLINE
  5
16647
330
2E3A
100
AcDbEntity
  8
Control object
  6
Continuous
100
AcDbPolyline
 90
        3
 70
     1
 43
2.0
 39
2.0
 10
-31791.78081633123
 20
46422.09991685716
 10
-29108.07368147822
 20
46422.09991685716
 10
-31791.78081633123
 20
46422.09991685716
  0
LWPOLYLINE
  5
16648
330
2E3A
100
AcDbEntity
  8
Control object
  6
Continuous
100
AcDbPolyline
 90
        5
 70
     1
 43
2.0
 39
2.0
 10
-33230.60665437326
 20
46422.09991685716
 10
-34376.29820114473
 20
46422.09991685716
 10
-34376.29820114473
 20
44824.71206846311
 10
-34376.29820114473
 20
46422.09991685716
 10
-33230.60665437326
 20
46422.09991685716
  0
TEXT
  5
16652
330
2E3A
100
AcDbEntity
  8
Omriss tanker
  6
Continuous
100
AcDbText
 10
-20570.821715549
 20
51153.05327530151
 30
0.0
 40
600.0
  1
_tl 53
  7
ARIAL
100
AcDbText
  0
TEXT
  5
16654
330
2E3A
100
AcDbEntity
  8
Omriss tanker
  6
Continuous
100
AcDbText
 10
-20570.821715549
 20
32274.8339146636
 30
0.0
 40
600.0
  1
_tl 54
  7
ARIAL
100
AcDbText
  0
LWPOLYLINE
  5
1667D
330
2E3A
100
AcDbEntity
  8
Control object
  6
Continuous
100
AcDbPolyline
 90
        3
 70
     1
 43
2.0
 39
2.0
 10
-21097.72978832525
 20
39861.72588955239
 10
-21097.72978832525
 20
42178.22274414178
 10
-21097.72978832525
 20
39861.72588955239
  0
LWPOLYLINE
  5
1667F
330
2E3A
100
AcDbEntity
  8
Control object
  6
Continuous
100
AcDbPolyline
 90
        3
 70
     1
 43
2.0
 39
2.0
 10
-18984.71314423749
 20
42342.72775365758
 10
-18984.71314423749
 20
41130.59863829918
 10
-18984.71314423749
 20
42342.72775365758
  0
LWPOLYLINE
  5
16680
330
2E3A
100
AcDbEntity
  8
Control object
  6
Continuous
100
AcDbPolyline
 90
        5
 70
     1
 43
0.3
 39
2.0
 10
-18984.71314423749
 20
40231.33248952293
 10
-18984.71314423749
 20
40103.84652113629
 10
-21097.72978832525
 20
40103.84652113629
 10
-18984.71314423749
 20
40103.84652113629
 10
-18984.71314423749
 20
40231.33248952293
  0
TEXT
  5
16681
330
2E3A
100
AcDbEntity
  8
Control object
  6
Continuous
100
AcDbText
 10
-16274.93055962986
 20
55802.46509407293
 30
0.0
 40
280.0
  1
_Col 53-1
  7
ARIAL
100
AcDbText
  0
TEXT
  5
16682
330
2E3A
100
AcDbEntity
  8
Control object
  6
Continuous
100
AcDbText
 10
-19915.95470676204
 20
56160.04422233706
 30
0.0
 40
280.0
  1
_Col 53-2
  7
ARIAL
100
AcDbText
  0
TEXT
  5
16683
330
2E3A
100
AcDbEntity
  8
Control object
  6
Continuous
100
AcDbText
 10
-25192.13299635978
 20
52784.1524920606
 30
0.0
 40
280.0
  1
_Col 53-3
  7
ARIAL
100
AcDbText
  0
TEXT
  5
16684
330
2E3A
100
AcDbEntity
  8
Control object
  6
Continuous
100
AcDbText
 10
-21670.98249631534
 20
54171.82756240666
 30
0.0
 40
280.0
  1
_Col 53-4
  7
ARIAL
100
AcDbText
  0
TEXT
  5
16685
330
2E3A
100
AcDbEntity
  8
Control object
  6
Continuous
100
AcDbText
 10
-23141.352648812
 20
50450.03970099683
 30
0.0
 40
280.0
  1
_Col 53-5
  7
ARIAL
100
AcDbText
  0
TEXT
  5
16686
330
2E3A
100
AcDbEntity
  8
Control object
  6
Continuous
100
AcDbText
 10
-23122.38429794728
 20
47625.2088828875
 30
0.0
 40
280.0
  1
_Col 53-6
  7
ARIAL
100
AcDbText
  0
TEXT
  5
16687
330
2E3A
100
AcDbEntity
  8
Control object
  6
Continuous
100
AcDbText
 10
-24329.10001657956
 20
43251.46161034405
 30
0.0
 40
280.0
  1
_Col 53-7
  7
ARIAL
100
AcDbText
  0
TEXT
  5
16688
330
2E3A
100
AcDbEntity
  8
Control object
  6
Continuous
100
AcDbText
 10
-20142.45050249651
 20
42987.1362981236
 30
0.0
 40
280.0
  1
_Col 53-8
  7
ARIAL
100
AcDbText
  0
TEXT
  5
1668A
330
2E3A
100
AcDbEntity
  8
Control object
  6
Continuous
100
AcDbText
 10
-20184.08520040982
 20
39215.55544078934
 30
0.0
 40
280.0
  1
_Col 54-5
  7
ARIAL
100
AcDbText
  0
TEXT
  5
1668B
330
2E3A
100
AcDbEntity
  8
Control object
  6
Continuous
100
AcDbText
 10
-21683.95093659286
 20
29778.77268075948
 30
0.0
 40
280.0
  1
_Col 54-2
  7
ARIAL
100
AcDbText
  0
TEXT
  5
1668C
330
2E3A
100
AcDbEntity
  8
Control object
  6
Continuous
100
AcDbText
 10
-25224.27058671173
 20
31027.78294699558
 30
0.0
 40
280.0
  1
_Col 54-3
  7
ARIAL
100
AcDbText
  0
TEXT
  5
1668D
330
2E3A
100
AcDbEntity
  8
Control object
  6
Continuous
100
AcDbText
 10
-23226.42969973392
 20
32258.04863828091
 30
0.0
 40
280.0
  1
_Col 54-4
  7
ARIAL
100
AcDbText
  0
TEXT
  5
1668E
330
2E3A
100
AcDbEntity
  8
Control object
  6
Continuous
100
AcDbText
 10
-16723.85783636857
 20
27812.07453380114
 30
0.0
 40
280.0
  1
_Col 54-0
  7
ARIAL
100
AcDbText
  0
TEXT
  5
1668F
330
2E3A
100
AcDbEntity
  8
Control object
  6
Continuous
100
AcDbText
 10
-20457.88290753345
 20
27772.38896922352
 30
0.0
 40
280.0
  1
_Col 54-1
  7
ARIAL
100
AcDbText
  0
LWPOLYLINE
  5
16690
330
2E3A
100
AcDbEntity
  8
Control object
  6
Continuous
100
AcDbPolyline
 90
        5
 70
     1
 43
2.0
 39
2.0
 10
-16082.08388984056
 20
55867.95488641416
 10
-15748.49049392389
 20
55867.95488641413
 10
-15748.49049392389
 20
57736.05784701626
 10
-15748.49049392389
 20
55867.95488641413
 10
-16082.08388984056
 20
55867.95488641416
  0
LWPOLYLINE
  5
16691
330
2E3A
100
AcDbEntity
  8
Control object
  6
Continuous
100
AcDbPolyline
 90
        5
 70
     1
 43
2.0
 39
2.0
 10
-16082.08388984058
 20
26711.55343654577
 10
-15494.147403554
 20
26711.55343654577
 10
-15494.147403554
 20
24406.48559357878
 10
-15494.147403554
 20
26711.55343654577
 10
-16082.08388984058
 20
26711.55343654577
  0
LWPOLYLINE
  5
166A9
330
2E3A
100
AcDbEntity
  8
Control object
  6
Continuous
 62
    42
100
AcDbPolyline
 90
       11
 70
     1
 10
-44794.83429535592
 20
56139.82997363076
 40
1.344
 41
1.344
 10
-44094.57651984165
 20
56139.82997363076
 40
1.344
 41
1.344
 10
-44094.57651984165
 20
56571.45511719202
 40
1.344
 41
1.344
 42
-0.8846768105770848
 10
-44094.57651984165
 20
55607.40483006943
 40
1.344
 41
1.344
 10
-44094.57651984165
 20
56039.02997363077
 40
1.344
 41
1.344
 10
-44794.83429535592
 20
56039.02997363077
 40
1.344
 41
1.344
 10
-44433.75544183823
 20
55370.01705460971
 40
0.0
 41
0.0
 10
-45210.31680446805
 20
55370.01705460971
 40
1.344
 41
1.344
 10
-44822.03612315308
 20
56089.42997363076
 40
1.344
 41
1.344
 10
-45210.31680446805
 20
56808.8428926517
 40
0.0
 41
0.0
 10
-44433.75544183823
 20
56808.8428926517
 40
1.344
 41
1.344
  0
TEXT
  5
166AA
330
2E3A
100
AcDbEntity
  8
Control object
  6
Continuous
100
AcDbText
 10
-43841.74565232953
 20
56208.86933681704
 30
0.0
 40
280.0
  1
_Col 53-9
  7
ARIAL
100
AcDbText
  0
LWPOLYLINE
  5
166AB
330
2E3A
100
AcDbEntity
  8
Control object
  6
Continuous
100
AcDbPolyline
 90
        9
 70
     1
 43
2.0
 39
2.0
 10
-44822.03612315314
 20
55370.01705460971
 10
-44822.03612315314
 20
54813.14076064053
 10
-26632.61746056651
 20
54813.14076064045
 10
-26632.61746056651
 20
50900.59716851841
 10
-25250.09511010398
 20
50900.59716851841
 10
-26632.61746056651
 20
50900.59716851841
 10
-26632.61746056651
 20
54813.14076064045
 10
-44822.03612315314
 20
54813.14076064053
 10
-44822.03612315314
 20
55370.01705460971
  0
LWPOLYLINE
  5
166AD
330
2E3A
100
AcDbEntity
  8
Control object
  6
Continuous
 62
    42
100
AcDbPolyline
 90
       11
 70
     1
 10
-44794.83429535597
 20
26815.23183011212
 40
1.344
 41
1.344
 10
-44094.57651984166
 20
26815.23183011212
 40
1.344
 41
1.344
 10
-44094.57651984166
 20
27246.8569736734
 40
1.344
 41
1.344
 42
-0.8846768105770848
 10
-44094.57651984166
 20
26282.80668655086
 40
1.344
 41
1.344
 10
-44094.57651984166
 20
26714.43183011215
 40
1.344
 41
1.344
 10
-44794.83429535597
 20
26714.43183011215
 40
1.344
 41
1.344
 10
-44433.75544183824
 20
26045.41891109113
 40
0.0
 41
0.0
 10
-45210.31680446806
 20
26045.41891109113
 40
1.344
 41
1.344
 10
-44822.03612315308
 20
26764.83183011215
 40
1.344
 41
1.344
 10
-45210.31680446806
 20
27484.24474913313
 40
0.0
 41
0.0
 10
-44433.75544183824
 20
27484.24474913313
 40
1.344
 41
1.344
  0
TEXT
  5
166AE
330
2E3A
100
AcDbEntity
  8
Control object
  6
Continuous
100
AcDbText
 10
-43819.44060786651
 20
26893.96093747833
 30
0.0
 40
280.0
  1
_Col 54-6
  7
ARIAL
100
AcDbText
  0
LWPOLYLINE
  5
166AF
330
2E3A
100
AcDbEntity
  8
Control object
  6
Continuous
100
AcDbPolyline
 90
        9
 70
     1
 43
2.0
 39
2.0
 10
-44822.03612315314
 20
27484.24474913313
 10
-44822.03612315314
 20
28144.98077233322
 10
-26498.16501096927
 20
28144.98077233322
 10
-26498.16501096927
 20
31643.16252730182
 10
-25250.095110104
 20
31643.16252730182
 10
-26498.16501096927
 20
31643.16252730182
 10
-26498.16501096927
 20
28144.98077233322
 10
-44822.03612315314
 20
28144.98077233322
 10
-44822.03612315314
 20
27484.24474913313
  0
LWPOLYLINE
  5
166B2
330
2E3A
100
AcDbEntity
  8
Control object
  6
Continuous
 62
    42
100
AcDbPolyline
 90
       11
 70
     1
 10
24941.49459699251
 20
39781.43871029333
 40
1.344
 41
1.344
 10
25641.75237250683
 20
39781.43871029333
 40
1.344
 41
1.344
 10
25641.75237250683
 20
40213.06385385456
 40
1.344
 41
1.344
 42
-0.8846768105770848
 10
25641.75237250683
 20
39249.01356673203
 40
1.344
 41
1.344
 10
25641.75237250683
 20
39680.63871029333
 40
1.344
 41
1.344
 10
24941.49459699251
 20
39680.63871029333
 40
1.344
 41
1.344
 10
25302.57345051023
 20
39011.62579127232
 40
0.0
 41
0.0
 10
24526.01208788043
 20
39011.62579127232
 40
1.344
 41
1.344
 10
24914.29276919536
 20
39731.03871029331
 40
1.344
 41
1.344
 10
24526.01208788043
 20
40450.45162931431
 40
0.0
 41
0.0
 10
25302.57345051023
 20
40450.45162931431
 40
1.344
 41
1.344
  0
TEXT
  5
166B3
330
2E3A
100
AcDbEntity
  8
Control object
  6
Continuous
100
AcDbText
 10
25905.40372555116
 20
39843.64596623207
 30
0.0
 40
280.0
  1
_Col 53-10
  7
ARIAL
100
AcDbText
  0
LWPOLYLINE
  5
166B4
330
2E3A
100
AcDbEntity
  8
Omriss tanker
  6
Continuous
100
AcDbPolyline
 90
        3
 70
     1
 43
2.0
 39
2.0
 10
24914.29276919534
 20
40450.45162931431
 10
24914.29276919534
 20
44824.71206846311
 10
24914.29276919534
 20
40450.45162931431
  0
LWPOLYLINE
  5
166B5
330
2E3A
100
AcDbEntity
  8
Control object
  6
Continuous
100
AcDbPolyline
 90
        3
 70
     1
 43
2.0
 39
2.0
 10
24914.29276919534
 20
39011.62579127232
 10
24914.29276919534
 20
37754.64460602645
 10
24914.29276919534
 20
39011.62579127232
  0
LWPOLYLINE
  5
166C6
330
2E3A
100
AcDbEntity
  8
Control object
  6
Continuous
100
AcDbPolyline
 90
        2
 70
     1
 43
2.0
 39
2.0
 10
-44822.03612315315
 20
26045.41891109113
 10
-44822.03612315314
 20
24992.18795450698
  0
LWPOLYLINE
  5
166C7
330
2E3A
100
AcDbEntity
  8
Control object
  6
Continuous
100
AcDbPolyline
 90
        3
 70
     1
 43
2.0
 39
2.0
 10
-44822.03612315314
 20
56808.8428926517
 10
-44822.03612315314
 20
57791.61051009178
 10
-44822.03612315314
 20
56808.8428926517
  0
TEXT
  5
166DC
330
2E3A
100
AcDbEntity
  8
Control object
  6
Continuous
100
AcDbText
 10
-23316.44940838526
 20
55996.36720497738
 30
0.0
 40
280.0
  1
_Col 53-11
  7
ARIAL
100
AcDbText
  0
TEXT
  5
166DD
330
2E3A
100
AcDbEntity
  8
Control object
  6
Continuous
100
AcDbText
 10
-25230.18720418098
 20
55996.36720497738
 30
0.0
 40
280.0
  1
_Col 53-11
  7
ARIAL
100
AcDbText
  0
TEXT
  5
166DE
330
2E3A
100
AcDbEntity
  8
Control object
  6
Continuous
100
AcDbText
 10
-25230.18720418098
 20
54037.47007747566
 30
0.0
 40
280.0
  1
_Col 53-11
  7
ARIAL
100
AcDbText
  0
TEXT
  5
166DF
330
2E3A
100
AcDbEntity
  8
Control object
  6
Continuous
100
AcDbText
 10
-18304.27806883439
 20
56019.14513296076
 30
0.0
 40
280.0
  1
_Col 53-11
  7
ARIAL
100
AcDbText
  0
TEXT
  5
166E0
330
2E3A
100
AcDbEntity
  8
Control object
  6
Continuous
100
AcDbText
 10
-23328.49010196329
 20
26857.29967016858
 30
0.0
 40
280.0
  1
_Col 54-11
  7
ARIAL
100
AcDbText
  0
TEXT
  5
166E1
330
2E3A
100
AcDbEntity
  8
Control object
  6
Continuous
100
AcDbText
 10
-25151.09789214762
 20
26925.63324143374
 30
0.0
 40
280.0
  1
_Col 54-11
  7
ARIAL
100
AcDbText
  0
TEXT
  5
166E2
330
2E3A
100
AcDbEntity
  8
Control object
  6
Continuous
100
AcDbText
 10
-25173.88039355045
 20
28565.64022790799
 30
0.0
 40
280.0
  1
_Col 54-11
  7
ARIAL
100
AcDbText
  0
TEXT
  5
166E3
330
2E3A
100
AcDbEntity
  8
Control object
  6
Continuous
100
AcDbText
 10
-18339.10159763951
 20
26858.57016378903
 30
0.0
 40
280.0
  1
_Col 54-11
  7
ARIAL
100
AcDbText
  0
TEXT
  5
166E4
330
2E3A
100
AcDbEntity
  8
Control object
  6
Continuous
100
AcDbText
 10
81470.04706235883
 20
39799.64683280451
 30
0.0
 40
280.0
  1
_Col 39-3
  7
ARIAL
100
AcDbText
  0
LWPOLYLINE
  5
166F1
330
2E3A
100
AcDbEntity
  8
Control object
  6
Continuous
100
AcDbPolyline
 90
        7
 70
     1
 43
0.3
 10
-25007.41968428219
 20
29267.38668248204
 10
-25492.77053592581
 20
29267.38668248204
 10
-25302.29298220447
 20
28821.15579815651
 10
-25492.77053592581
 20
28368.12053370578
 10
-25007.41968428219
 20
28368.12053370578
 10
-25197.10931084136
 20
28821.15579815651
 10
-25007.41968428219
 20
29267.38668248204
  0
LWPOLYLINE
  5
166F2
330
2E3A
100
AcDbEntity
  8
Control object
  6
Continuous
100
AcDbPolyline
 90
        7
 70
     1
 43
0.3
 10
80721.43453466393
 20
39964.16145750393
 10
80721.43453466393
 20
39478.8106058603
 10
81167.66541898941
 20
39669.28815958164
 10
81620.70068344016
 20
39478.8106058603
 10
81620.70068344016
 20
39964.16145750393
 10
81167.66541898941
 20
39774.47183094475
 10
80721.43453466393
 20
39964.16145750393
  0
LWPOLYLINE
  5
166F3
330
2E3A
100
AcDbEntity
  8
Control object
  6
Continuous
100
AcDbPolyline
 90
        7
 70
     1
 43
0.3
 10
-24109.52565966122
 20
26954.22886236758
 10
-24109.52565966122
 20
26468.87801072396
 10
-23663.29477533569
 20
26659.3555644453
 10
-23210.25951088496
 20
26468.87801072396
 10
-23210.25951088496
 20
26954.22886236758
 10
-23663.29477533569
 20
26764.53923580841
 10
-24109.52565966122
 20
26954.22886236758
  0
LWPOLYLINE
  5
166F4
330
2E3A
100
AcDbEntity
  8
Control object
  6
Continuous
100
AcDbPolyline
 90
        7
 70
     1
 43
0.3
 10
-19096.08237301774
 20
26954.22886236757
 10
-19096.08237301774
 20
26468.87801072395
 10
-18649.85148869221
 20
26659.35556444529
 10
-18196.81622424148
 20
26468.87801072395
 10
-18196.81622424148
 20
26954.22886236757
 10
-18649.85148869221
 20
26764.5392358084
 10
-19096.08237301774
 20
26954.22886236757
  0
LWPOLYLINE
  5
166F5
330
2E3A
100
AcDbEntity
  8
Control object
  6
Continuous
100
AcDbPolyline
 90
        7
 70
     1
 43
0.3
 10
-19096.08237301771
 20
56110.63031223596
 10
-19096.08237301771
 20
55625.27946059233
 10
-18649.85148869219
 20
55815.75701431368
 10
-18196.81622424146
 20
55625.27946059233
 10
-18196.81622424146
 20
56110.63031223596
 10
-18649.85148869219
 20
55920.94068567678
 10
-19096.08237301771
 20
56110.63031223596
  0
LWPOLYLINE
  5
166F6
330
2E3A
100
AcDbEntity
  8
Control object
  6
Continuous
100
AcDbPolyline
 90
        7
 70
     1
 43
0.3
 10
-24109.5256596612
 20
56110.63031223596
 10
-24109.5256596612
 20
55625.27946059233
 10
-23663.29477533568
 20
55815.75701431368
 10
-23210.25951088494
 20
55625.27946059233
 10
-23210.25951088494
 20
56110.63031223596
 10
-23663.29477533568
 20
55920.94068567678
 10
-24109.5256596612
 20
56110.63031223596
  0
LWPOLYLINE
  5
166F7
330
2E3A
100
AcDbEntity
  8
Control object
  6
Continuous
100
AcDbPolyline
 90
        7
 70
     1
 43
0.3
 10
-25007.41968428217
 20
54211.38778925414
 10
-25492.77053592579
 20
54211.38778925414
 10
-25302.29298220445
 20
53765.15690492863
 10
-25492.77053592579
 20
53312.12164047788
 10
-25007.41968428217
 20
53312.12164047788
 10
-25197.10931084135
 20
53765.15690492863
 10
-25007.41968428217
 20
54211.38778925414
  0
TEXT
  5
16748
330
2E3A
100
AcDbEntity
  8
Omriss tanker
  6
Continuous
100
AcDbText
 10
80062.85207789382
 20
42894.96700443625
 30
0.0
 40
600.0
  1
_tl 39
  7
ARIAL
100
AcDbText
  0
LWPOLYLINE
  5
167B0
330
2E3A
100
AcDbEntity
  8
Control object
  6
Continuous
100
AcDbPolyline
 90
        2
 70
     1
 43
2.0
 39
2.0
 10
-21097.72978832525
 20
44424.49253616174
 10
-21097.72978832525
 20
43617.0485821838
  0
LWPOLYLINE
  5
167CD
330
2E3A
100
AcDbEntity
  8
Control object
  6
Continuous
100
AcDbPolyline
 90
        2
 70
     1
 43
0.3
 39
2.0
 10
-23008.71017547717
 20
47366.74784908601
 10
-22230.96530655451
 20
47366.74784908601
  0
LWPOLYLINE
  5
167CF
330
2E3A
100
AcDbEntity
  8
Control object
  6
Continuous
100
AcDbPolyline
 90
        2
 70
     1
 43
2.0
 39
2.0
 10
-18984.71314423749
 20
44424.49253616175
 10
-18984.71314423749
 20
43566.14067267861
  0
LWPOLYLINE
  5
167EC
330
2E3A
100
AcDbEntity
  8
Control object
  6
Continuous
100
AcDbPolyline
 90
        2
 70
     0
 43
2.0
 39
2.0
 10
-25250.09511010398
 20
51466.56220899579
 10
-25250.09511010398
 20
45242.23301770316
  0
LWPOLYLINE
  5
167ED
330
2E3A
100
AcDbEntity
  8
Control object
  6
Continuous
100
AcDbPolyline
 90
        2
 70
     0
 43
2.0
 39
2.0
 10
-25250.09511010398
 20
44424.49253616174
 10
-25250.09511010399
 20
43664.06959635185
  0
LWPOLYLINE
  5
167F5
330
2E3A
100
AcDbEntity
  8
Control object
  6
Continuous
100
AcDbPolyline
 90
        7
 70
     1
 43
0.3
 10
-19227.38857005931
 20
40231.33248952292
 10
-18742.03771841567
 20
40231.33248952292
 10
-18932.51527213702
 20
40677.56337384843
 10
-18742.03771841567
 20
41130.59863829918
 10
-19227.38857005931
 20
41130.59863829918
 10
-19037.69894350011
 20
40677.56337384843
 10
-19227.38857005931
 20
40231.33248952292
  0
LWPOLYLINE
  5
167F7
330
2E3A
100
AcDbEntity
  8
Control object
  6
Continuous
100
AcDbPolyline
 90
        2
 70
     0
 43
0.3
 39
2.0
 10
-21097.72978832526
 20
38054.50598780422
 10
-21097.72978832525
 20
38422.90005151038
  0
LWPOLYLINE
  5
16814
330
2E3A
100
AcDbEntity
  8
Control object
  6
Continuous
100
AcDbPolyline
 90
        2
 70
     0
 43
2.0
 39
2.0
 10
-25250.09511010398
 20
42225.24375830984
 10
-25250.095110104
 20
38054.50598780422
  0
LWPOLYLINE
  5
16815
330
2E3A
100
AcDbEntity
  8
Control object
  6
Continuous
100
AcDbPolyline
 90
        2
 70
     0
 43
2.0
 39
2.0
 10
-25250.09511010398
 20
37354.52516925574
 10
-25250.095110104
 20
31112.94611396413
  0
LWPOLYLINE
  5
16816
330
2E3A
100
AcDbEntity
  8
Control object
  6
Continuous
100
AcDbPolyline
 90
        2
 70
     0
 43
2.0
 39
2.0
 10
-5138.033310247855
 20
50792.17510980923
 10
-3729.745715497585
 20
50792.17510980923
  0
LWPOLYLINE
  5
16817
330
2E3A
100
AcDbEntity
  8
Control object
  6
Continuous
100
AcDbPolyline
 90
        2
 70
     0
 43
2.0
 39
2.0
 10
-5138.033310247855
 20
31442.55166457325
 10
-3729.745715497589
 20
31442.55166457326
  0
LWPOLYLINE
  5
16819
330
2E3A
100
AcDbEntity
  8
Control object
  6
Continuous
100
AcDbPolyline
 90
        4
 70
     1
 43
0.3
 39
2.0
 10
27300.52878701199
 20
47635.30875788107
 10
26684.64853188359
 20
47635.30875788103
 10
26684.64853188359
 20
44824.71206846311
 10
26684.64853188359
 20
47635.30875788103
  0
LWPOLYLINE
  5
1681B
330
2E3A
100
AcDbEntity
  8
Control object
  6
Continuous
100
AcDbPolyline
 90
        4
 70
     1
 43
0.3
 39
2.0
 10
-21731.21492055512
 20
46348.33037508932
 10
-21097.72978832525
 20
46348.33037508932
 10
-21097.72978832524
 20
45225.00065116829
 10
-21097.72978832525
 20
46348.33037508932
  0
LWPOLYLINE
  5
1681C
330
2E3A
100
AcDbEntity
  8
Control object
  6
Continuous
100
AcDbPolyline
 90
        4
 70
     1
 43
0.3
 39
2.0
 10
-21231.23006557626
 20
47366.74784908601
 10
-18984.71314423749
 20
47366.74784908599
 10
-18984.71314423749
 20
45225.00065116829
 10
-18984.71314423749
 20
47366.74784908599
  0
LWPOLYLINE
  5
1681D
330
2E3A
100
AcDbEntity
  8
Control object
  6
Continuous
100
AcDbPolyline
 90
        2
 70
     1
 43
0.3
 39
2.0
 10
-24447.53601351919
 20
47366.74784908601
 10
-25250.09511010398
 20
47366.74784908601
  0
LWPOLYLINE
  5
1681E
330
2E3A
100
AcDbEntity
  8
Control object
  6
Continuous
100
AcDbPolyline
 90
        2
 70
     1
 43
0.3
 39
2.0
 10
-24563.04128051367
 20
50450.20477592863
 10
-25250.09511010398
 20
50450.20477592863
  0
LWPOLYLINE
  5
1681F
330
2E3A
100
AcDbEntity
  8
Control object
  6
Continuous
100
AcDbPolyline
 90
        4
 70
     1
 43
0.3
 39
2.0
 10
-21731.21492055512
 20
36231.17794787062
 10
-21097.72978832526
 20
36231.17794787062
 10
-21097.72978832526
 20
37354.52516925574
 10
-21097.72978832526
 20
36231.17794787062
  0
LWPOLYLINE
  5
16863
330
2E3A
100
AcDbEntity
  8
Control object
  6
Continuous
100
AcDbPolyline
 90
        9
 70
     1
 43
0.3
 39
2.0
 10
-33258.30672208317
 20
34834.04791660847
 10
-34376.29820114473
 20
34834.04791660847
 10
-34376.29820114473
 20
32962.96722826367
 10
-26512.04424066678
 20
32962.96722826367
 10
-26512.04424066678
 20
37754.64460602643
 10
-26512.04424066678
 20
32962.96722826367
 10
-34376.29820114473
 20
32962.96722826367
 10
-34376.29820114473
 20
34834.04791660847
 10
-33258.30672208317
 20
34834.04791660847
  0
LWPOLYLINE
  5
1687C
330
2E3A
100
AcDbEntity
  8
Control object
  6
Continuous
 62
    42
100
AcDbPolyline
 90
       11
 70
     1
 10
-16874.16103573286
 20
42729.6360409653
 40
1.344
 41
1.344
 10
-16874.16103573286
 20
43429.89381647959
 40
1.344
 41
1.344
 10
-17305.78617929412
 20
43429.89381647959
 40
1.344
 41
1.344
 42
-0.8846768105770848
 10
-16341.7358921716
 20
43429.89381647959
 40
1.344
 41
1.344
 10
-16773.36103573286
 20
43429.89381647959
 40
1.344
 41
1.344
 10
-16773.36103573286
 20
42729.6360409653
 40
1.344
 41
1.344
 10
-16104.34811671187
 20
43090.71489448303
 40
0.0
 41
0.0
 10
-16104.34811671187
 20
42314.1535318532
 40
1.344
 41
1.344
 10
-16823.76103573286
 20
42702.43421316816
 40
1.344
 41
1.344
 10
-17543.17395475385
 20
42314.1535318532
 40
0.0
 41
0.0
 10
-17543.17395475385
 20
43090.71489448303
 40
1.344
 41
1.344
  0
TEXT
  5
1687D
330
2E3A
100
AcDbEntity
  8
Control object
  6
Continuous
100
AcDbText
 10
-16531.09942819207
 20
43722.84023451601
 30
0.0
 40
280.0
  1
_Col 53-12
  7
ARIAL
100
AcDbText
  0
LWPOLYLINE
  5
1687E
330
2E3A
100
AcDbEntity
  8
Control object
  6
Continuous
100
AcDbPolyline
 90
        3
 70
     1
 43
0.3
 39
2.0
 10
-18648.71314423749
 20
42702.43421316811
 10
-17543.17395475385
 20
42702.43421316812
 10
-18648.71314423749
 20
42702.43421316811
  0
LWPOLYLINE
  5
1687F
330
2E3A
100
AcDbEntity
  8
Control object
  6
Continuous
100
AcDbPolyline
 90
        3
 70
     1
 43
0.3
 39
2.0
 10
-16104.34811671187
 20
42702.43421316812
 10
24194.35592993139
 20
42702.43421316812
 10
-16104.34811671187
 20
42702.43421316812
  0
LWPOLYLINE
  5
16880
330
2E3A
100
AcDbEntity
  8
Control object
  6
Continuous
100
AcDbPolyline
 90
        5
 70
     1
 43
0.3
 39
2.0
 10
26119.66774518782
 20
42637.58184888871
 10
74269.82398887805
 20
42637.58184888871
 10
74269.82398887805
 20
37565.18884169383
 10
74269.82398887805
 20
42637.58184888871
 10
26119.66774518782
 20
42637.58184888871
  0
LWPOLYLINE
  5
16881
330
2E3A
100
AcDbEntity
  8
Control object
  6
Continuous
100
AcDbPolyline
 90
        7
 70
     1
 43
0.3
 10
74027.14856305624
 20
36665.92269291756
 10
74512.49941469987
 20
36665.92269291756
 10
74322.02186097852
 20
37112.15357724308
 10
74512.49941469987
 20
37565.18884169383
 10
74027.14856305624
 20
37565.18884169383
 10
74216.83818961543
 20
37112.15357724308
 10
74027.14856305624
 20
36665.92269291756
  0
LWPOLYLINE
  5
16882
330
2E3A
100
AcDbEntity
  8
Control object
  6
Continuous
100
AcDbPolyline
 90
        3
 70
     1
 43
0.3
 39
2.0
 10
74269.82398887805
 20
36665.92269291756
 10
74269.82398887805
 20
34537.36122988525
 10
74269.82398887805
 20
36665.92269291756
  0
ENDSEC
  0
SECTION
  2
OBJECTS
  0
DICTIONARY
  5
2E2E
330
0
100
AcDbDictionary
281
     1
  3
ACAD_COLOR
350
164C8
  3
ACAD_GROUP
350
2E2F
  3
ACAD_LAYOUT
350
158C0
  3
ACAD_MATERIAL
350
164B3
  3
ACAD_MLINESTYLE
350
2E30
  3
ACAD_PLOTSETTINGS
350
158C1
  3
ACAD_PLOTSTYLENAME
350
158BE
  3
ACAD_TABLESTYLE
350
164C9
  3
ACAD_VISUALSTYLE
350
164B7
  3
ACDBVARIABLEDICTIONARY
350
15033
  3
ASE_INDEX_DICTIONARY
350
15AF5
  0
DICTIONARY
  5
15B01
330
2E24
100
AcDbDictionary
280
     1
281
     1
  3
ACAD_LAYERFILTERS
360
16791
  3
ACAD_LAYERSTATES
360
15BDD
  3
ACLYDICTIONARY
360
16790
  0
DICTIONARY
  5
16591
330
2E3A
100
AcDbDictionary
280
     1
281
     1
  3
ACAD_SORTENTS
360
16592
  0
DICTIONARY
  5
164C8
102
{ACAD_REACTORS
330
2E2E
102
}
330
2E2E
100
AcDbDictionary
281
     1
  0
DICTIONARY
  5
2E2F
102
{ACAD_REACTORS
330
2E2E
102
}
330
2E2E
100
AcDbDictionary
281
     1
  0
DICTIONARY
  5
158C0
102
{ACAD_REACTORS
330
2E2E
102
}
330
2E2E
100
AcDbDictionary
281
     1
  3
Layout1
350
158C3
  3
Model
350
158C2
  0
DICTIONARY
  5
164B3
102
{ACAD_REACTORS
330
2E2E
102
}
330
2E2E
100
AcDbDictionary
281
     1
  3
ByBlock
350
164B5
  3
ByLayer
350
164B4
  3
Global
350
164B6
  0
DICTIONARY
  5
2E30
102
{ACAD_REACTORS
330
2E2E
102
}
330
2E2E
100
AcDbDictionary
281
     1
  3
STANDARD
350
2E3D
  0
DICTIONARY
  5
158C1
102
{ACAD_REACTORS
330
2E2E
102
}
330
2E2E
100
AcDbDictionary
281
     1
  0
ACDBDICTIONARYWDFLT
  5
158BE
102
{ACAD_REACTORS
330
2E2E
102
}
330
2E2E
100
AcDbDictionary
281
     1
  3
Normal
350
158BF
100
AcDbDictionaryWithDefault
340
158BF
  0
DICTIONARY
  5
164C9
102
{ACAD_REACTORS
330
2E2E
102
}
330
2E2E
100
AcDbDictionary
281
     1
  3
Standard
350
164CA
  0
DICTIONARY
  5
164B7
102
{ACAD_REACTORS
330
2E2E
102
}
330
2E2E
100
AcDbDictionary
281
     1
  3
2dWireframe
350
164BD
  3
3D Hidden
350
164BF
  3
3dWireframe
350
164BE
  3
Basic
350
164BC
  3
Brighten
350
164C3
  3
ColorChange
350
164C7
  3
Conceptual
350
164C0
  3
Dim
350
164C2
  3
Facepattern
350
164C6
  3
Flat
350
164B8
  3
FlatWithEdges
350
164B9
  3
Gouraud
350
164BA
  3
GouraudWithEdges
350
164BB
  3
Linepattern
350
164C5
  3
Realistic
350
164C1
  3
Thicken
350
164C4
  0
DICTIONARY
  5
15033
102
{ACAD_REACTORS
330
2E2E
102
}
330
2E2E
100
AcDbDictionary
281
     1
  3
CTABLESTYLE
350
164CE
  3
DIMASSOC
350
16736
  3
INDEXCTL
350
16735
  3
LOFTANG1
350
16883
  3
LOFTANG2
350
16884
  3
SORTENTS
350
15034
  0
DICTIONARY
  5
15AF5
102
{ACAD_REACTORS
330
2E2E
102
}
330
2E2E
100
AcDbDictionary
281
     1
  3
ASEBlockHierarchyIndexRecord
350
15AF7
1001
DCO15
1040
1538987196.419
  0
DICTIONARY
  5
16791
102
{ACAD_REACTORS
330
15B01
102
}
330
15B01
100
AcDbDictionary
281
     1
  0
DICTIONARY
  5
15BDD
102
{ACAD_REACTORS
330
15B01
102
}
330
15B01
100
AcDbDictionary
281
     1
  0
DICTIONARY
  5
16790
102
{ACAD_REACTORS
330
15B01
102
}
330
15B01
100
AcDbDictionary
281
     1
1001
ACAD
1000
<All
  0
SORTENTSTABLE
  5
16592
102
{ACAD_REACTORS
330
16591
102
}
330
16591
100
AcDbSortentsTable
330
2E3A
331
1592D
  5
1592D
331
10EB9
  5
10EB9
331
1653C
  5
1653C
331
17
  5
17
331
10EC1
  5
10EC1
331
13A25
  5
13A25
331
2E87
  5
2E87
331
1650D
  5
1650D
331
1654C
  5
1654C
331
13A2D
  5
13A2D
331
1656D
  5
1656D
331
10E9E
  5
10E9E
331
13A35
  5
13A35
331
16515
  5
16515
331
16554
  5
16554
331
10EAE
  5
10EAE
331
13A1D
  5
13A1D
331
1651D
  5
1651D
331
10EB6
  5
10EB6
331
16525
  5
16525
331
16564
  5
16564
331
1657D
  5
1657D
331
1652D
  5
1652D
331
10EA6
  5
10EA6
331
10EBA
  5
10EBA
331
1653D
  5
1653D
331
13A16
  5
13A16
331
13A26
  5
13A26
331
2E80
  5
2E80
331
16545
  5
16545
331
10EC2
  5
10EC2
331
13A2E
  5
13A2E
331
1650E
  5
1650E
331
10E9F
  5
10E9F
331
13A36
  5
13A36
331
1656E
  5
1656E
331
16516
  5
16516
331
10EAF
  5
10EAF
331
1651E
  5
1651E
331
1655D
  5
1655D
331
13A1E
  5
13A1E
331
16526
  5
16526
331
10EB7
  5
10EB7
331
10EA7
  5
10EA7
331
1652E
  5
1652E
331
13A17
  5
13A17
331
10EBB
  5
10EBB
331
29
  5
29
331
13A27
  5
13A27
331
16507
  5
16507
331
16546
  5
16546
331
2E81
  5
2E81
331
1650F
  5
1650F
331
1654E
  5
1654E
331
13A2F
  5
13A2F
331
13A37
  5
13A37
331
1656F
  5
1656F
331
16517
  5
16517
331
10EA8
  5
10EA8
331
10EB0
  5
10EB0
331
1655E
  5
1655E
331
13A1F
  5
13A1F
331
16577
  5
16577
331
1651F
  5
1651F
331
16527
  5
16527
331
10EA0
  5
10EA0
331
1657F
  5
1657F
331
1652F
  5
1652F
331
163A0
  5
163A0
331
16537
  5
16537
331
10EBC
  5
10EBC
331
1653F
  5
1653F
331
13A20
  5
13A20
331
13A28
  5
13A28
331
16547
  5
16547
331
2E82
  5
2E82
331
16508
  5
16508
331
1654F
  5
1654F
331
13A30
  5
13A30
331
16568
  5
16568
331
10EA9
  5
10EA9
331
16518
  5
16518
331
16557
  5
16557
331
13A18
  5
13A18
331
16570
  5
16570
331
10EB1
  5
10EB1
331
16520
  5
16520
331
1655F
  5
1655F
331
13A38
  5
13A38
331
16580
  5
16580
331
16567
  5
16567
331
16528
  5
16528
331
10EA1
  5
10EA1
331
16530
  5
16530
331
10EBD
  5
10EBD
331
13A21
  5
13A21
331
16540
  5
16540
331
13A29
  5
13A29
331
16509
  5
16509
331
16548
  5
16548
331
2E83
  5
2E83
331
16569
  5
16569
331
13A31
  5
13A31
331
13A19
  5
13A19
331
16571
  5
16571
331
16558
  5
16558
331
16519
  5
16519
331
10EAA
  5
10EAA
331
10EB2
  5
10EB2
331
13A39
  5
13A39
331
16560
  5
16560
331
16521
  5
16521
331
16529
  5
16529
331
10EA2
  5
10EA2
331
16531
  5
16531
331
16539
  5
16539
331
50
  5
50
331
10EBE
  5
10EBE
331
13A22
  5
13A22
331
13A2A
  5
13A2A
331
16549
  5
16549
331
2E84
  5
2E84
331
1650A
  5
1650A
331
13A32
  5
13A32
331
1656A
  5
1656A
331
16512
  5
16512
331
16551
  5
16551
331
1651A
  5
1651A
331
10EAB
  5
10EAB
331
13A1A
  5
13A1A
331
1657A
  5
1657A
331
10EB3
  5
10EB3
331
13A3A
  5
13A3A
331
16522
  5
16522
331
16561
  5
16561
331
1652A
  5
1652A
331
10EA3
  5
10EA3
331
1653A
  5
1653A
331
10EBF
  5
10EBF
331
13A23
  5
13A23
331
16542
  5
16542
331
13A2B
  5
13A2B
331
1650B
  5
1650B
331
2E85
  5
2E85
331
1656B
  5
1656B
331
13A33
  5
13A33
331
16513
  5
16513
331
16552
  5
16552
331
10EAC
  5
10EAC
331
13A1B
  5
13A1B
331
1655A
  5
1655A
331
1651B
  5
1651B
331
10EB4
  5
10EB4
331
16523
  5
16523
331
16562
  5
16562
331
13A3B
  5
13A3B
331
1652B
  5
1652B
331
10EA4
  5
10EA4
331
16583
  5
16583
331
16533
  5
16533
331
10EB8
  5
10EB8
331
10EC0
  5
10EC0
331
16543
  5
16543
331
13A24
  5
13A24
331
13A2C
  5
13A2C
331
1654B
  5
1654B
331
2E86
  5
2E86
331
1650C
  5
1650C
331
10E9D
  5
10E9D
331
13A34
  5
13A34
331
1656C
  5
1656C
331
16514
  5
16514
331
2E8E
  5
2E8E
331
10EAD
  5
10EAD
331
1651C
  5
1651C
331
1655B
  5
1655B
331
13A1C
  5
13A1C
331
10EB5
  5
10EB5
331
16524
  5
16524
331
16563
  5
16563
331
10EA5
  5
10EA5
331
16584
  5
16584
331
1652C
  5
1652C
  0
LAYOUT
  5
158C3
102
{ACAD_REACTORS
330
158C0
102
}
330
158C0
100
AcDbPlotSettings
  1

  2
\\TSN_SERVER\HP LaserJet 6P
  4

  6

 40
0.0
 41
0.0
 42
0.0
 43
0.0
 44
0.0
 45
0.0
 46
0.0
 47
0.0
 48
0.0
 49
0.0
140
0.0
141
0.0
142
1.0
143
1.0
 70
   688
 72
     0
 73
     0
 74
     5
  7

 75
    16
147
1.0
 76
     0
 77
     2
 78
   300
148
0.0
149
0.0
100
AcDbLayout
  1
Layout1
 70
     0
 71
     1
 10
0.0
 20
0.0
 11
12.0
 21
9.0
 12
0.0
 22
0.0
 32
0.0
 14
1.000000000000000E+20
 24
1.000000000000000E+20
 34
1.000000000000000E+20
 15
-1.000000000000000E+20
 25
-1.000000000000000E+20
 35
-1.000000000000000E+20
146
0.0
 13
0.0
 23
0.0
 33
0.0
 16
1.0
 26
0.0
 36
0.0
 17
0.0
 27
1.0
 37
0.0
 76
     0
330
2E37
  0
LAYOUT
  5
158C2
102
{ACAD_REACTORS
330
158C0
102
}
330
158C0
100
AcDbPlotSettings
  1

  2
\\an-sbs-01\iRC3380_PCL5
  4
A3
  6

 40
6.805083274841307
 41
5.027085781097412
 42
6.805084228515625
 43
5.027069091796875
 44
296.9259948730469
 45
419.9466552734373
 46
46.94247778998895
 47
0.0
 48
-66438.45164387975
 49
5505.496296416851
140
93327.23596758896
141
79340.83960411109
142
1.0
143
389.7746054278796
 70
 11956
 72
     1
 73
     1
 74
     4
  7

 75
     0
147
0.0025655853051336
 76
     0
 77
     2
 78
   300
148
66438.45164387975
149
-5505.496296416851
100
AcDbLayout
  1
Model
 70
     1
 71
     0
 10
0.0
 20
0.0
 11
12.0
 21
9.0
 12
0.0
 22
0.0
 32
0.0
 14
0.0
 24
0.0
 34
0.0
 15
0.0
 25
0.0
 35
0.0
146
0.0
 13
0.0
 23
0.0
 33
0.0
 16
1.0
 26
0.0
 36
0.0
 17
0.0
 27
1.0
 37
0.0
 76
     0
330
2E3A
331
164AD
1001
ACAD_PSEXT
1000
\\an-sbs-01\iRC3380_PCL5
1000
Canon iR C2880/C3380 PCL5c
1000
\\an-sbs-01
1000

1070
     0
  0
MATERIAL
  5
164B5
102
{ACAD_XDICTIONARY
360
1666F
102
}
102
{ACAD_REACTORS
330
164B3
102
}
330
164B3
100
AcDbMaterial
  1
ByBlock
  0
MATERIAL
  5
164B4
102
{ACAD_XDICTIONARY
360
1666D
102
}
102
{ACAD_REACTORS
330
164B3
102
}
330
164B3
100
AcDbMaterial
  1
ByLayer
  0
MATERIAL
  5
164B6
102
{ACAD_XDICTIONARY
360
16671
102
}
102
{ACAD_REACTORS
330
164B3
102
}
330
164B3
100
AcDbMaterial
  1
Global
  0
MLINESTYLE
  5
2E3D
102
{ACAD_REACTORS
330
2E30
102
}
330
2E30
100
AcDbMlineStyle
  2
STANDARD
 70
     0
  3

 62
     0
 51
90.0
 52
90.0
 71
     2
 49
0.5
 62
   256
  6
BYLAYER
 49
-0.5
 62
   256
  6
BYLAYER
  0
ACDBPLACEHOLDER
  5
158BF
102
{ACAD_REACTORS
330
158BE
102
}
330
158BE
  0
TABLESTYLE
  5
164CA
102
{ACAD_XDICTIONARY
360
16885
102
}
102
{ACAD_REACTORS
330
164C9
102
}
330
164C9
100
AcDbTableStyle
  3
Standard
 70
     0
 71
     0
 40
0.06
 41
0.06
280
     0
281
     0
  7
STANDARD
140
0.18
170
     2
 62
     0
 63
     7
283
     0
274
    -2
284
     1
 64
     0
275
    -2
285
     1
 65
     0
276
    -2
286
     1
 66
     0
277
    -2
287
     1
 67
     0
278
    -2
288
     1
 68
     0
279
    -2
289
     1
 69
     0
  7
STANDARD
140
0.25
170
     5
 62
     0
 63
     7
283
     0
274
    -2
284
     1
 64
     0
275
    -2
285
     1
 65
     0
276
    -2
286
     1
 66
     0
277
    -2
287
     1
 67
     0
278
    -2
288
     1
 68
     0
279
    -2
289
     1
 69
     0
  7
STANDARD
140
0.18
170
     5
 62
     0
 63
     7
283
     0
274
    -2
284
     1
 64
     0
275
    -2
285
     1
 65
     0
276
    -2
286
     1
 66
     0
277
    -2
287
     1
 67
     0
278
    -2
288
     1
 68
     0
279
    -2
289
     1
 69
     0
  0
VISUALSTYLE
  5
164BD
102
{ACAD_REACTORS
330
164B7
102
}
330
164B7
100
AcDbVisualStyle
  2
2dWireframe
 70
     4
 71
     0
 72
     2
 73
     0
 90
        0
 40
-0.6
 41
-30.0
 62
     5
 63
     7
 74
     1
 91
        4
 64
     7
 65
   257
 75
     1
175
     1
 42
1.0
 92
        0
 66
   257
 43
1.0
 76
     1
 77
     6
 78
     2
 67
     7
 79
     5
170
     0
171
     0
290
     0
174
     0
 93
        1
 44
0.0
173
     0
291
     0
 45
0.0
1001
ACAD
1000
AcDbSavedByObjectVersion
1070
     0
1000
AcDbSavedByObjectVersion
1070
     0
1000
AcDbSavedByObjectVersion
1070
     0
1000
AcDbSavedByObjectVersion
1070
     0
1000
AcDbSavedByObjectVersion
1070
     0
1000
AcDbSavedByObjectVersion
1070
     0
1000
AcDbSavedByObjectVersion
1070
     0
1000
AcDbSavedByObjectVersion
1070
     0
1000
AcDbSavedByObjectVersion
1070
     0
1000
AcDbSavedByObjectVersion
1070
     0
1000
AcDbSavedByObjectVersion
1070
     0
1000
AcDbSavedByObjectVersion
1070
     0
  0
VISUALSTYLE
  5
164BF
102
{ACAD_REACTORS
330
164B7
102
}
330
164B7
100
AcDbVisualStyle
  2
3D Hidden
 70
     6
 71
     1
 72
     2
 73
     2
 90
        0
 40
-0.6
 41
-30.0
 62
     5
 63
     7
 74
     2
 91
        2
 64
     7
 65
   257
 75
     2
175
     1
 42
40.0
 92
        0
 66
   257
 43
1.0
 76
     1
 77
     6
 78
     2
 67
     7
 79
     3
170
     0
171
     0
290
     0
174
     0
 93
        1
 44
0.0
173
     0
291
     0
 45
0.0
1001
ACAD
1000
AcDbSavedByObjectVersion
1070
     0
1000
AcDbSavedByObjectVersion
1070
     0
1000
AcDbSavedByObjectVersion
1070
     0
1000
AcDbSavedByObjectVersion
1070
     0
1000
AcDbSavedByObjectVersion
1070
     0
1000
AcDbSavedByObjectVersion
1070
     0
1000
AcDbSavedByObjectVersion
1070
     0
1000
AcDbSavedByObjectVersion
1070
     0
1000
AcDbSavedByObjectVersion
1070
     0
1000
AcDbSavedByObjectVersion
1070
     0
1000
AcDbSavedByObjectVersion
1070
     0
1000
AcDbSavedByObjectVersion
1070
     0
  0
VISUALSTYLE
  5
164BE
102
{ACAD_REACTORS
330
164B7
102
}
330
164B7
100
AcDbVisualStyle
  2
3dWireframe
 70
     5
 71
     0
 72
     2
 73
     0
 90
        0
 40
-0.6
 41
-30.0
 62
     5
 63
     7
 74
     1
 91
        4
 64
     7
 65
   257
 75
     1
175
     1
 42
1.0
 92
        0
 66
   257
 43
1.0
 76
     1
 77
     6
 78
     2
 67
     7
 79
     5
170
     0
171
     0
290
     0
174
     0
 93
        1
 44
0.0
173
     0
291
     0
 45
0.0
1001
ACAD
1000
AcDbSavedByObjectVersion
1070
     0
1000
AcDbSavedByObjectVersion
1070
     0
1000
AcDbSavedByObjectVersion
1070
     0
1000
AcDbSavedByObjectVersion
1070
     0
1000
AcDbSavedByObjectVersion
1070
     0
1000
AcDbSavedByObjectVersion
1070
     0
1000
AcDbSavedByObjectVersion
1070
     0
1000
AcDbSavedByObjectVersion
1070
     0
1000
AcDbSavedByObjectVersion
1070
     0
1000
AcDbSavedByObjectVersion
1070
     0
1000
AcDbSavedByObjectVersion
1070
     0
1000
AcDbSavedByObjectVersion
1070
     0
  0
VISUALSTYLE
  5
164BC
102
{ACAD_REACTORS
330
164B7
102
}
330
164B7
100
AcDbVisualStyle
  2
Basic
 70
     7
 71
     1
 72
     0
 73
     1
 90
        0
 40
-0.6
 41
-30.0
 62
     5
 63
     7
 74
     0
 91
        4
 64
     7
 65
   257
 75
     1
175
     1
 42
1.0
 92
        8
 66
     7
 43
1.0
 76
     1
 77
     6
 78
     2
 67
     7
 79
     5
170
     0
171
     0
290
     0
174
     0
 93
        1
 44
0.0
173
     0
291
     1
 45
0.0
1001
ACAD
1000
AcDbSavedByObjectVersion
1070
     0
1000
AcDbSavedByObjectVersion
1070
     0
1000
AcDbSavedByObjectVersion
1070
     0
1000
AcDbSavedByObjectVersion
1070
     0
1000
AcDbSavedByObjectVersion
1070
     0
1000
AcDbSavedByObjectVersion
1070
     0
1000
AcDbSavedByObjectVersion
1070
     0
1000
AcDbSavedByObjectVersion
1070
     0
1000
AcDbSavedByObjectVersion
1070
     0
1000
AcDbSavedByObjectVersion
1070
     0
1000
AcDbSavedByObjectVersion
1070
     0
1000
AcDbSavedByObjectVersion
1070
     0
  0
VISUALSTYLE
  5
164C3
102
{ACAD_REACTORS
330
164B7
102
}
330
164B7
100
AcDbVisualStyle
  2
Brighten
 70
    12
 71
     2
 72
     2
 73
     0
 90
        0
 40
-0.6
 41
-30.0
 62
     5
 63
     7
 74
     1
 91
        4
 64
     7
 65
   257
 75
     1
175
     1
 42
1.0
 92
        8
 66
     7
 43
1.0
 76
     1
 77
     6
 78
     2
 67
     7
 79
     5
170
     0
171
     0
290
     0
174
     0
 93
        1
 44
50.0
173
     0
291
     1
 45
0.0
1001
ACAD
1000
AcDbSavedByObjectVersion
1070
     0
1000
AcDbSavedByObjectVersion
1070
     0
1000
AcDbSavedByObjectVersion
1070
     0
1000
AcDbSavedByObjectVersion
1070
     0
1000
AcDbSavedByObjectVersion
1070
     0
1000
AcDbSavedByObjectVersion
1070
     0
1000
AcDbSavedByObjectVersion
1070
     0
1000
AcDbSavedByObjectVersion
1070
     0
1000
AcDbSavedByObjectVersion
1070
     0
1000
AcDbSavedByObjectVersion
1070
     0
1000
AcDbSavedByObjectVersion
1070
     0
1000
AcDbSavedByObjectVersion
1070
     0
  0
VISUALSTYLE
  5
164C7
102
{ACAD_REACTORS
330
164B7
102
}
330
164B7
100
AcDbVisualStyle
  2
ColorChange
 70
    16
 71
     2
 72
     2
 73
     3
 90
        0
 40
-0.6
 41
-30.0
 62
     5
 63
     8
 74
     1
 91
        4
 64
     7
 65
   257
 75
     1
175
     1
 42
1.0
 92
        8
 66
     8
 43
1.0
 76
     1
 77
     6
 78
     2
 67
     7
 79
     5
170
     0
171
     0
290
     0
174
     0
 93
        1
 44
0.0
173
     0
291
     1
 45
0.0
1001
ACAD
1000
AcDbSavedByObjectVersion
1070
     0
1000
AcDbSavedByObjectVersion
1070
     0
1000
AcDbSavedByObjectVersion
1070
     0
1000
AcDbSavedByObjectVersion
1070
     0
1000
AcDbSavedByObjectVersion
1070
     0
1000
AcDbSavedByObjectVersion
1070
     0
1000
AcDbSavedByObjectVersion
1070
     0
1000
AcDbSavedByObjectVersion
1070
     0
1000
AcDbSavedByObjectVersion
1070
     0
1000
AcDbSavedByObjectVersion
1070
     0
1000
AcDbSavedByObjectVersion
1070
     0
1000
AcDbSavedByObjectVersion
1070
     0
  0
VISUALSTYLE
  5
164C0
102
{ACAD_REACTORS
330
164B7
102
}
330
164B7
100
AcDbVisualStyle
  2
Conceptual
 70
     9
 71
     3
 72
     2
 73
     0
 90
        0
 40
-0.6
 41
-30.0
 62
     5
 63
     7
 74
     2
 91
        2
 64
     7
 65
   257
 75
     1
175
     1
 42
40.0
 92
        8
 66
     7
 43
1.0
 76
     1
 77
     6
 78
     2
 67
     7
 79
     3
170
     0
171
     0
290
     0
174
     0
 93
        1
 44
0.0
173
     0
291
     0
 45
0.0
1001
ACAD
1000
AcDbSavedByObjectVersion
1070
     0
1000
AcDbSavedByObjectVersion
1070
     0
1000
AcDbSavedByObjectVersion
1070
     0
1000
AcDbSavedByObjectVersion
1070
     0
1000
AcDbSavedByObjectVersion
1070
     0
1000
AcDbSavedByObjectVersion
1070
     0
1000
AcDbSavedByObjectVersion
1070
     0
1000
AcDbSavedByObjectVersion
1070
     0
1000
AcDbSavedByObjectVersion
1070
     0
1000
AcDbSavedByObjectVersion
1070
     0
1000
AcDbSavedByObjectVersion
1070
     0
1000
AcDbSavedByObjectVersion
1070
     0
  0
VISUALSTYLE
  5
164C2
102
{ACAD_REACTORS
330
164B7
102
}
330
164B7
100
AcDbVisualStyle
  2
Dim
 70
    11
 71
     2
 72
     2
 73
     0
 90
        0
 40
-0.6
 41
-30.0
 62
     5
 63
     7
 74
     1
 91
        4
 64
     7
 65
   257
 75
     1
175
     1
 42
1.0
 92
        8
 66
     7
 43
1.0
 76
     1
 77
     6
 78
     2
 67
     7
 79
     5
170
     0
171
     0
290
     0
174
     0
 93
        1
 44
-50.0
173
     0
291
     1
 45
0.0
1001
ACAD
1000
AcDbSavedByObjectVersion
1070
     0
1000
AcDbSavedByObjectVersion
1070
     0
1000
AcDbSavedByObjectVersion
1070
     0
1000
AcDbSavedByObjectVersion
1070
     0
1000
AcDbSavedByObjectVersion
1070
     0
1000
AcDbSavedByObjectVersion
1070
     0
1000
AcDbSavedByObjectVersion
1070
     0
1000
AcDbSavedByObjectVersion
1070
     0
1000
AcDbSavedByObjectVersion
1070
     0
1000
AcDbSavedByObjectVersion
1070
     0
1000
AcDbSavedByObjectVersion
1070
     0
1000
AcDbSavedByObjectVersion
1070
     0
  0
VISUALSTYLE
  5
164C6
102
{ACAD_REACTORS
330
164B7
102
}
330
164B7
100
AcDbVisualStyle
  2
Facepattern
 70
    15
 71
     2
 72
     2
 73
     0
 90
        0
 40
-0.6
 41
-30.0
 62
     5
 63
     7
 74
     1
 91
        4
 64
     7
 65
   257
 75
     1
175
     1
 42
1.0
 92
        8
 66
     7
 43
1.0
 76
     1
 77
     6
 78
     2
 67
     7
 79
     5
170
     0
171
     0
290
     0
174
     0
 93
        1
 44
0.0
173
     0
291
     1
 45
0.0
1001
ACAD
1000
AcDbSavedByObjectVersion
1070
     0
1000
AcDbSavedByObjectVersion
1070
     0
1000
AcDbSavedByObjectVersion
1070
     0
1000
AcDbSavedByObjectVersion
1070
     0
1000
AcDbSavedByObjectVersion
1070
     0
1000
AcDbSavedByObjectVersion
1070
     0
1000
AcDbSavedByObjectVersion
1070
     0
1000
AcDbSavedByObjectVersion
1070
     0
1000
AcDbSavedByObjectVersion
1070
     0
1000
AcDbSavedByObjectVersion
1070
     0
1000
AcDbSavedByObjectVersion
1070
     0
1000
AcDbSavedByObjectVersion
1070
     0
  0
VISUALSTYLE
  5
164B8
102
{ACAD_REACTORS
330
164B7
102
}
330
164B7
100
AcDbVisualStyle
  2
Flat
 70
     0
 71
     2
 72
     1
 73
     1
 90
        2
 40
-0.6
 41
30.0
 62
     5
 63
     7
 74
     0
 91
        4
 64
     7
 65
   257
 75
     1
175
     1
 42
1.0
 92
        8
 66
     7
 43
1.0
 76
     1
 77
     6
 78
     2
 67
     7
 79
     5
170
     0
171
     0
290
     0
174
     0
 93
       13
 44
0.0
173
     0
291
     1
 45
0.0
1001
ACAD
1000
AcDbSavedByObjectVersion
1070
     0
1000
AcDbSavedByObjectVersion
1070
     0
1000
AcDbSavedByObjectVersion
1070
     0
1000
AcDbSavedByObjectVersion
1070
     0
1000
AcDbSavedByObjectVersion
1070
     0
1000
AcDbSavedByObjectVersion
1070
     0
1000
AcDbSavedByObjectVersion
1070
     0
1000
AcDbSavedByObjectVersion
1070
     0
1000
AcDbSavedByObjectVersion
1070
     0
1000
AcDbSavedByObjectVersion
1070
     0
1000
AcDbSavedByObjectVersion
1070
     0
1000
AcDbSavedByObjectVersion
1070
     0
  0
VISUALSTYLE
  5
164B9
102
{ACAD_REACTORS
330
164B7
102
}
330
164B7
100
AcDbVisualStyle
  2
FlatWithEdges
 70
     1
 71
     2
 72
     1
 73
     1
 90
        2
 40
-0.6
 41
30.0
 62
     5
 63
     7
 74
     1
 91
        4
 64
     7
 65
   257
 75
     1
175
     1
 42
1.0
 92
        0
 66
   257
 43
1.0
 76
     1
 77
     6
 78
     2
 67
     7
 79
     5
170
     0
171
     0
290
     0
174
     0
 93
       13
 44
0.0
173
     0
291
     1
 45
0.0
1001
ACAD
1000
AcDbSavedByObjectVersion
1070
     0
1000
AcDbSavedByObjectVersion
1070
     0
1000
AcDbSavedByObjectVersion
1070
     0
1000
AcDbSavedByObjectVersion
1070
     0
1000
AcDbSavedByObjectVersion
1070
     0
1000
AcDbSavedByObjectVersion
1070
     0
1000
AcDbSavedByObjectVersion
1070
     0
1000
AcDbSavedByObjectVersion
1070
     0
1000
AcDbSavedByObjectVersion
1070
     0
1000
AcDbSavedByObjectVersion
1070
     0
1000
AcDbSavedByObjectVersion
1070
     0
1000
AcDbSavedByObjectVersion
1070
     0
  0
VISUALSTYLE
  5
164BA
102
{ACAD_REACTORS
330
164B7
102
}
330
164B7
100
AcDbVisualStyle
  2
Gouraud
 70
     2
 71
     2
 72
     2
 73
     1
 90
        2
 40
-0.6
 41
30.0
 62
     5
 63
     7
 74
     0
 91
        4
 64
     7
 65
   257
 75
     1
175
     1
 42
1.0
 92
        0
 66
     7
 43
1.0
 76
     1
 77
     6
 78
     2
 67
     7
 79
     5
170
     0
171
     0
290
     0
174
     0
 93
       13
 44
0.0
173
     0
291
     1
 45
0.0
1001
ACAD
1000
AcDbSavedByObjectVersion
1070
     0
1000
AcDbSavedByObjectVersion
1070
     0
1000
AcDbSavedByObjectVersion
1070
     0
1000
AcDbSavedByObjectVersion
1070
     0
1000
AcDbSavedByObjectVersion
1070
     0
1000
AcDbSavedByObjectVersion
1070
     0
1000
AcDbSavedByObjectVersion
1070
     0
1000
AcDbSavedByObjectVersion
1070
     0
1000
AcDbSavedByObjectVersion
1070
     0
1000
AcDbSavedByObjectVersion
1070
     0
1000
AcDbSavedByObjectVersion
1070
     0
1000
AcDbSavedByObjectVersion
1070
     0
  0
VISUALSTYLE
  5
164BB
102
{ACAD_REACTORS
330
164B7
102
}
330
164B7
100
AcDbVisualStyle
  2
GouraudWithEdges
 70
     3
 71
     2
 72
     2
 73
     1
 90
        2
 40
-0.6
 41
30.0
 62
     5
 63
     7
 74
     1
 91
        4
 64
     7
 65
   257
 75
     1
175
     1
 42
1.0
 92
        0
 66
   257
 43
1.0
 76
     1
 77
     6
 78
     2
 67
     7
 79
     5
170
     0
171
     0
290
     0
174
     0
 93
       13
 44
0.0
173
     0
291
     1
 45
0.0
1001
ACAD
1000
AcDbSavedByObjectVersion
1070
     0
1000
AcDbSavedByObjectVersion
1070
     0
1000
AcDbSavedByObjectVersion
1070
     0
1000
AcDbSavedByObjectVersion
1070
     0
1000
AcDbSavedByObjectVersion
1070
     0
1000
AcDbSavedByObjectVersion
1070
     0
1000
AcDbSavedByObjectVersion
1070
     0
1000
AcDbSavedByObjectVersion
1070
     0
1000
AcDbSavedByObjectVersion
1070
     0
1000
AcDbSavedByObjectVersion
1070
     0
1000
AcDbSavedByObjectVersion
1070
     0
1000
AcDbSavedByObjectVersion
1070
     0
  0
VISUALSTYLE
  5
164C5
102
{ACAD_REACTORS
330
164B7
102
}
330
164B7
100
AcDbVisualStyle
  2
Linepattern
 70
    14
 71
     2
 72
     2
 73
     0
 90
        0
 40
-0.6
 41
-30.0
 62
     5
 63
     7
 74
     1
 91
        4
 64
     7
 65
   257
 75
     7
175
     7
 42
1.0
 92
        8
 66
     7
 43
1.0
 76
     1
 77
     6
 78
     2
 67
     7
 79
     5
170
     0
171
     0
290
     0
174
     0
 93
        1
 44
0.0
173
     0
291
     1
 45
0.0
1001
ACAD
1000
AcDbSavedByObjectVersion
1070
     0
1000
AcDbSavedByObjectVersion
1070
     0
1000
AcDbSavedByObjectVersion
1070
     0
1000
AcDbSavedByObjectVersion
1070
     0
1000
AcDbSavedByObjectVersion
1070
     0
1000
AcDbSavedByObjectVersion
1070
     0
1000
AcDbSavedByObjectVersion
1070
     0
1000
AcDbSavedByObjectVersion
1070
     0
1000
AcDbSavedByObjectVersion
1070
     0
1000
AcDbSavedByObjectVersion
1070
     0
1000
AcDbSavedByObjectVersion
1070
     0
1000
AcDbSavedByObjectVersion
1070
     0
  0
VISUALSTYLE
  5
164C1
102
{ACAD_REACTORS
330
164B7
102
}
330
164B7
100
AcDbVisualStyle
  2
Realistic
 70
     8
 71
     2
 72
     2
 73
     0
 90
        0
 40
-0.6
 41
-30.0
 62
     5
 63
     7
 74
     1
 91
        0
 64
     7
 65
   257
 75
     1
175
     1
 42
1.0
 92
        8
 66
     8
 43
1.0
 76
     1
 77
     6
 78
     2
 67
     7
 79
     5
170
     0
171
     0
290
     0
174
     0
 93
       13
 44
0.0
173
     0
291
     0
 45
0.0
1001
ACAD
1000
AcDbSavedByObjectVersion
1070
     0
1000
AcDbSavedByObjectVersion
1070
     0
1000
AcDbSavedByObjectVersion
1070
     0
1000
AcDbSavedByObjectVersion
1070
     0
1000
AcDbSavedByObjectVersion
1070
     0
1000
AcDbSavedByObjectVersion
1070
     0
1000
AcDbSavedByObjectVersion
1070
     0
1000
AcDbSavedByObjectVersion
1070
     0
1000
AcDbSavedByObjectVersion
1070
     0
1000
AcDbSavedByObjectVersion
1070
     0
1000
AcDbSavedByObjectVersion
1070
     0
1000
AcDbSavedByObjectVersion
1070
     0
  0
VISUALSTYLE
  5
164C4
102
{ACAD_REACTORS
330
164B7
102
}
330
164B7
100
AcDbVisualStyle
  2
Thicken
 70
    13
 71
     2
 72
     2
 73
     0
 90
        0
 40
-0.6
 41
-30.0
 62
     5
 63
     7
 74
     1
 91
        4
 64
     7
 65
   257
 75
     1
175
     1
 42
1.0
 92
       12
 66
     7
 43
1.0
 76
     1
 77
     6
 78
     2
 67
     7
 79
     5
170
     0
171
     0
290
     0
174
     0
 93
        1
 44
0.0
173
     0
291
     1
 45
0.0
1001
ACAD
1000
AcDbSavedByObjectVersion
1070
     0
1000
AcDbSavedByObjectVersion
1070
     0
1000
AcDbSavedByObjectVersion
1070
     0
1000
AcDbSavedByObjectVersion
1070
     0
1000
AcDbSavedByObjectVersion
1070
     0
1000
AcDbSavedByObjectVersion
1070
     0
1000
AcDbSavedByObjectVersion
1070
     0
1000
AcDbSavedByObjectVersion
1070
     0
1000
AcDbSavedByObjectVersion
1070
     0
1000
AcDbSavedByObjectVersion
1070
     0
1000
AcDbSavedByObjectVersion
1070
     0
1000
AcDbSavedByObjectVersion
1070
     0
  0
DICTIONARYVAR
  5
164CE
102
{ACAD_REACTORS
330
15033
102
}
330
15033
100
DictionaryVariables
280
     0
  1
STANDARD
  0
DICTIONARYVAR
  5
16736
102
{ACAD_REACTORS
330
15033
102
}
330
15033
100
DictionaryVariables
280
     0
  1
1
  0
DICTIONARYVAR
  5
16735
102
{ACAD_REACTORS
330
15033
102
}
330
15033
100
DictionaryVariables
280
     0
  1
0
  0
DICTIONARYVAR
  5
16883
102
{ACAD_REACTORS
330
15033
102
}
330
15033
100
DictionaryVariables
280
     0
  1
1.570796
  0
DICTIONARYVAR
  5
16884
102
{ACAD_REACTORS
330
15033
102
}
330
15033
100
DictionaryVariables
280
     0
  1
1.570796
  0
DICTIONARYVAR
  5
15034
102
{ACAD_REACTORS
330
15033
102
}
330
15033
100
DictionaryVariables
280
     0
  1
96
  0
XRECORD
  5
15AF7
102
{ACAD_REACTORS
330
15AF5
102
}
330
15AF5
100
AcDbXrecord
280
     1
330
17
330
29
330
2E80
330
2E81
330
2E82
330
2E83
330
2E84
330
2E85
330
2E86
330
2E87
330
2E8E
330
10E9D
330
10E9E
330
10EA0
330
10EA1
330
10EA2
330
10EA3
330
10EA4
330
10EA5
330
10EA6
330
10EA7
330
10EA8
330
10EAA
330
10EAB
330
10EAD
330
10EAE
330
10EAF
330
10EB0
330
10EB1
330
10EB2
330
10EB3
330
10EB4
330
10EB5
330
10EB6
330
10EB7
330
10EB9
330
10EBA
330
10EBB
330
10EBC
330
10EBD
330
10EBE
330
10EBF
330
10EC0
330
10EC1
330
13A16
330
13A17
330
13A19
330
13A1A
330
13A1B
330
13A1C
330
13A1D
330
13A1E
330
13A1F
330
13A20
330
13A21
330
13A23
330
13A24
330
13A26
330
13A27
330
13A28
330
13A29
330
13A2A
330
13A2B
330
13A2C
330
13A2D
330
13A2E
330
13A2F
330
13A30
330
13A32
330
13A33
330
13A34
330
13A35
330
13A36
330
13A37
330
13A38
330
13A39
330
13A3A
  0
DICTIONARY
  5
1666F
330
164B5
100
AcDbDictionary
280
     1
281
     1
  3
ACAD_XREC_ROUNDTRIP
360
16670
  0
DICTIONARY
  5
1666D
330
164B4
100
AcDbDictionary
280
     1
281
     1
  3
ACAD_XREC_ROUNDTRIP
360
1666E
  0
DICTIONARY
  5
16671
330
164B6
100
AcDbDictionary
280
     1
281
     1
  3
ACAD_XREC_ROUNDTRIP
360
16672
  0
DICTIONARY
  5
16885
330
164CA
100
AcDbDictionary
280
     1
281
     1
  3
ACAD_XREC_ROUNDTRIP
360
16886
  0
XRECORD
  5
16670
102
{ACAD_REACTORS
330
1666F
102
}
330
1666F
100
AcDbXrecord
280
     1
102
MATERIAL
148
0.0
149
0.0
149
0.0
 93
        0
 94
       63
282
     0
 72
     1
 77
     1
171
     1
175
     1
179
     1
273
     0
  0
XRECORD
  5
1666E
102
{ACAD_REACTORS
330
1666D
102
}
330
1666D
100
AcDbXrecord
280
     1
102
MATERIAL
148
0.0
149
0.0
149
0.0
 93
        0
 94
       63
282
     0
 72
     1
 77
     1
171
     1
175
     1
179
     1
273
     0
  0
XRECORD
  5
16672
102
{ACAD_REACTORS
330
16671
102
}
330
16671
100
AcDbXrecord
280
     1
102
MATERIAL
148
0.0
149
0.0
149
0.0
 93
        0
 94
       63
282
     0
 72
     1
 77
     1
171
     1
175
     1
179
     1
273
     0
  0
XRECORD
  5
16886
102
{ACAD_REACTORS
330
16885
102
}
330
16885
100
AcDbXrecord
280
     1
102
ACAD_ROUNDTRIP_PRE2007_TABLESTYLE
 90
      512
 91
        0
  1

 92
      512
 93
        0
  2

 94
      512
 95
        0
  3

  0
ENDSEC
  0
EOF
