  0
SECTION
  2
HEADER
  9
$ACADVER
  1
AC1018
  9
$ACADMAINTVER
 70
   104
  9
$DWGCODEPAGE
  3
ANSI_1252
  9
$LASTSAVEDBY
  1
roger
  9
$INSBASE
 10
0.0
 20
0.0
 30
0.0
  9
$EXTMIN
 10
139708.8335135805
 20
120255.6349758192
 30
0.0
  9
$EXTMAX
 10
155938.4340446567
 20
130398.4610808913
 30
0.1
  9
$LIMMIN
 10
0.0
 20
0.0
  9
$LIMMAX
 10
12.0
 20
9.0
  9
$ORTHOMODE
 70
     1
  9
$REGENMODE
 70
     1
  9
$FILLMODE
 70
     1
  9
$QTEXTMODE
 70
     0
  9
$MIRRTEXT
 70
     1
  9
$LTSCALE
 40
1.0
  9
$ATTMODE
 70
     1
  9
$TEXTSIZE
 40
12.0
  9
$TRACEWID
 40
0.05
  9
$TEXTSTYLE
  7
ARIAL
  9
$CLAYER
  8
Omriss tanker
  9
$CELTYPE
  6
CONTINUOUS
  9
$CECOLOR
 62
   256
  9
$CELTSCALE
 40
1.0
  9
$DISPSILH
 70
     0
  9
$DIMSCALE
 40
1.0
  9
$DIMASZ
 40
12.0
  9
$DIMEXO
 40
0.06
  9
$DIMDLI
 40
0.15
  9
$DIMRND
 40
0.0
  9
$DIMDLE
 40
0.0
  9
$DIMEXE
 40
0.3
  9
$DIMTP
 40
0.0
  9
$DIMTM
 40
0.0
  9
$DIMTXT
 40
12.0
  9
$DIMCEN
 40
0.09
  9
$DIMTSZ
 40
0.0
  9
$DIMTOL
 70
     0
  9
$DIMLIM
 70
     0
  9
$DIMTIH
 70
     1
  9
$DIMTOH
 70
     1
  9
$DIMSE1
 70
     0
  9
$DIMSE2
 70
     0
  9
$DIMTAD
 70
     0
  9
$DIMZIN
 70
     0
  9
$DIMBLK
  1

  9
$DIMASO
 70
     1
  9
$DIMSHO
 70
     1
  9
$DIMPOST
  1

  9
$DIMAPOST
  1

  9
$DIMALT
 70
     0
  9
$DIMALTD
 70
     2
  9
$DIMALTF
 40
25.4
  9
$DIMLFAC
 40
1.0
  9
$DIMTOFL
 70
     0
  9
$DIMTVP
 40
0.0
  9
$DIMTIX
 70
     0
  9
$DIMSOXD
 70
     0
  9
$DIMSAH
 70
     0
  9
$DIMBLK1
  1

  9
$DIMBLK2
  1

  9
$DIMSTYLE
  2
TST
  9
$DIMCLRD
 70
     7
  9
$DIMCLRE
 70
     0
  9
$DIMCLRT
 70
     7
  9
$DIMTFAC
 40
0.072
  9
$DIMGAP
 40
3.0
  9
$DIMJUST
 70
     0
  9
$DIMSD1
 70
     0
  9
$DIMSD2
 70
     0
  9
$DIMTOLJ
 70
     1
  9
$DIMTZIN
 70
     0
  9
$DIMALTZ
 70
     0
  9
$DIMALTTZ
 70
     0
  9
$DIMUPT
 70
     0
  9
$DIMDEC
 70
     1
  9
$DIMTDEC
 70
     1
  9
$DIMALTU
 70
     2
  9
$DIMALTTD
 70
     2
  9
$DIMTXSTY
  7
ARIAL
  9
$DIMAUNIT
 70
     0
  9
$DIMADEC
 70
     0
  9
$DIMALTRND
 40
0.0
  9
$DIMAZIN
 70
     0
  9
$DIMDSEP
 70
    46
  9
$DIMATFIT
 70
     3
  9
$DIMFRAC
 70
     0
  9
$DIMLDRBLK
  1

  9
$DIMLUNIT
 70
     2
  9
$DIMLWD
 70
    -2
  9
$DIMLWE
 70
    -2
  9
$DIMTMOVE
 70
     0
  9
$LUNITS
 70
     2
  9
$LUPREC
 70
     2
  9
$SKETCHINC
 40
0.1
  9
$FILLETRAD
 40
3.0
  9
$AUNITS
 70
     0
  9
$AUPREC
 70
     0
  9
$MENU
  1
acad
  9
$ELEVATION
 40
0.0
  9
$PELEVATION
 40
0.0
  9
$THICKNESS
 40
0.1
  9
$LIMCHECK
 70
     0
  9
$CHAMFERA
 40
0.0
  9
$CHAMFERB
 40
0.0
  9
$CHAMFERC
 40
10.0
  9
$CHAMFERD
 40
0.174532925199433
  9
$SKPOLY
 70
     0
  9
$TDCREATE
 40
2450830.318120255
  9
$TDUCREATE
 40
2450830.276453588
  9
$TDUPDATE
 40
2454420.577709954
  9
$TDUUPDATE
 40
2454420.536043287
  9
$TDINDWG
 40
0.8884377546
  9
$TDUSRTIMER
 40
0.8884299769
  9
$USRTIMER
 70
     1
  9
$ANGBASE
 50
0.0
  9
$ANGDIR
 70
     0
  9
$PDMODE
 70
     0
  9
$PDSIZE
 40
0.0
  9
$PLINEWID
 40
0.3
  9
$SPLFRAME
 70
     1
  9
$SPLINETYPE
 70
     6
  9
$SPLINESEGS
 70
     8
  9
$HANDSEED
  5
1661B
  9
$SURFTAB1
 70
     6
  9
$SURFTAB2
 70
     6
  9
$SURFTYPE
 70
     6
  9
$SURFU
 70
     6
  9
$SURFV
 70
     6
  9
$UCSBASE
  2

  9
$UCSNAME
  2

  9
$UCSORG
 10
-1376.91011567699
 20
669.2683454919897
 30
0.0
  9
$UCSXDIR
 10
1.0
 20
0.0
 30
0.0
  9
$UCSYDIR
 10
0.0
 20
1.0
 30
0.0
  9
$UCSORTHOREF
  2

  9
$UCSORTHOVIEW
 70
     0
  9
$UCSORGTOP
 10
0.0
 20
0.0
 30
0.0
  9
$UCSORGBOTTOM
 10
0.0
 20
0.0
 30
0.0
  9
$UCSORGLEFT
 10
0.0
 20
0.0
 30
0.0
  9
$UCSORGRIGHT
 10
0.0
 20
0.0
 30
0.0
  9
$UCSORGFRONT
 10
0.0
 20
0.0
 30
0.0
  9
$UCSORGBACK
 10
0.0
 20
0.0
 30
0.0
  9
$PUCSBASE
  2

  9
$PUCSNAME
  2

  9
$PUCSORG
 10
0.0
 20
0.0
 30
0.0
  9
$PUCSXDIR
 10
1.0
 20
0.0
 30
0.0
  9
$PUCSYDIR
 10
0.0
 20
1.0
 30
0.0
  9
$PUCSORTHOREF
  2

  9
$PUCSORTHOVIEW
 70
     0
  9
$PUCSORGTOP
 10
0.0
 20
0.0
 30
0.0
  9
$PUCSORGBOTTOM
 10
0.0
 20
0.0
 30
0.0
  9
$PUCSORGLEFT
 10
0.0
 20
0.0
 30
0.0
  9
$PUCSORGRIGHT
 10
0.0
 20
0.0
 30
0.0
  9
$PUCSORGFRONT
 10
0.0
 20
0.0
 30
0.0
  9
$PUCSORGBACK
 10
0.0
 20
0.0
 30
0.0
  9
$USERI1
 70
     0
  9
$USERI2
 70
     0
  9
$USERI3
 70
     0
  9
$USERI4
 70
     0
  9
$USERI5
 70
     0
  9
$USERR1
 40
0.0
  9
$USERR2
 40
0.0
  9
$USERR3
 40
0.0
  9
$USERR4
 40
0.0
  9
$USERR5
 40
0.0
  9
$WORLDVIEW
 70
     1
  9
$SHADEDGE
 70
     3
  9
$SHADEDIF
 70
    70
  9
$TILEMODE
 70
     1
  9
$MAXACTVP
 70
    16
  9
$PINSBASE
 10
0.0
 20
0.0
 30
0.0
  9
$PLIMCHECK
 70
     0
  9
$PEXTMIN
 10
1.000000000000000E+20
 20
1.000000000000000E+20
 30
1.000000000000000E+20
  9
$PEXTMAX
 10
-1.000000000000000E+20
 20
-1.000000000000000E+20
 30
-1.000000000000000E+20
  9
$PLIMMIN
 10
0.0
 20
0.0
  9
$PLIMMAX
 10
12.0
 20
9.0
  9
$UNITMODE
 70
     0
  9
$VISRETAIN
 70
     0
  9
$PLINEGEN
 70
     0
  9
$PSLTSCALE
 70
     0
  9
$TREEDEPTH
 70
  3020
  9
$CMLSTYLE
  2
STANDARD
  9
$CMLJUST
 70
     0
  9
$CMLSCALE
 40
1.0
  9
$PROXYGRAPHICS
 70
     1
  9
$MEASUREMENT
 70
     0
  9
$CELWEIGHT
370
    -1
  9
$ENDCAPS
280
     0
  9
$JOINSTYLE
280
     0
  9
$LWDISPLAY
290
     0
  9
$INSUNITS
 70
     0
  9
$HYPERLINKBASE
  1

  9
$STYLESHEET
  1

  9
$XEDIT
290
     1
  9
$CEPSNTYPE
380
     0
  9
$PSTYLEMODE
290
     1
  9
$FINGERPRINTGUID
  2
{8CB4EE96-A2FC-4BAD-8A58-F7B03F62799B}
  9
$VERSIONGUID
  2
{E508026B-4E2D-4440-AC6F-ACBC33FF122A}
  9
$EXTNAMES
290
     1
  9
$PSVPSCALE
 40
0.0
  9
$OLESTARTUP
290
     0
  9
$SORTENTS
280
    96
  9
$INDEXCTL
280
     0
  9
$HIDETEXT
280
     0
  9
$XCLIPFRAME
290
     0
  9
$HALOGAP
280
     0
  9
$OBSCOLOR
 70
   257
  9
$OBSLTYPE
280
     0
  9
$INTERSECTIONDISPLAY
280
     0
  9
$INTERSECTIONCOLOR
 70
   257
  9
$DIMASSOC
280
     1
  9
$PROJECTNAME
  1

  0
ENDSEC
  0
SECTION
  2
CLASSES
  0
CLASS
  1
DICTIONARYVAR
  2
AcDbDictionaryVar
  3
ObjectDBX Classes
 90
        0
 91
        8
280
     0
281
     0
  0
CLASS
  1
ACDBDICTIONARYWDFLT
  2
AcDbDictionaryWithDefault
  3
ObjectDBX Classes
 90
        0
 91
        1
280
     0
281
     0
  0
CLASS
  1
MATERIAL
  2
AcDbMaterial
  3
ObjectDBX Classes
 90
     1024
 91
        3
280
     0
281
     0
  0
CLASS
  1
VISUALSTYLE
  2
AcDbVisualStyle
  3
ObjectDBX Classes
 90
     4095
 91
       16
280
     0
281
     0
  0
CLASS
  1
TABLESTYLE
  2
AcDbTableStyle
  3
ObjectDBX Classes
 90
     4095
 91
        1
280
     0
281
     0
  0
CLASS
  1
SORTENTSTABLE
  2
AcDbSortentsTable
  3
ObjectDBX Classes
 90
        0
 91
        0
280
     0
281
     0
  0
ENDSEC
  0
SECTION
  2
TABLES
  0
TABLE
  2
VPORT
  5
2E2A
330
0
100
AcDbSymbolTable
 70
     1
  0
VPORT
  5
16209
330
2E2A
100
AcDbSymbolTableRecord
100
AcDbViewportTableRecord
  2
*Active
 70
     0
 10
0.0
 20
0.0
 11
1.0
 21
1.0
 12
151688.4793999398
 22
122728.8573425159
 13
0.0
 23
0.0
 14
0.5
 24
0.5
 15
1.0
 25
1.0
 16
0.0
 26
0.0
 36
1.0
 17
0.0
 27
0.0
 37
0.0
 40
21865.57817123647
 41
1.569570871261378
 42
50.0
 43
0.0
 44
0.0
 50
0.0
 51
0.0
 71
     0
 72
   100
 73
     1
 74
     1
 75
     0
 76
     0
 77
     0
 78
     0
281
     0
 65
     1
110
-1376.91011567699
120
669.2683454919897
130
0.0
111
1.0
121
0.0
131
0.0
112
0.0
122
1.0
132
0.0
 79
     0
146
0.0
  0
ENDTAB
  0
TABLE
  2
LTYPE
  5
2E27
330
0
100
AcDbSymbolTable
 70
     2
  0
LTYPE
  5
2E34
330
2E27
100
AcDbSymbolTableRecord
100
AcDbLinetypeTableRecord
  2
BYBLOCK
 70
     0
  3

 72
    65
 73
     0
 40
0.0
  0
LTYPE
  5
2E35
330
2E27
100
AcDbSymbolTableRecord
100
AcDbLinetypeTableRecord
  2
BYLAYER
 70
     0
  3

 72
    65
 73
     0
 40
0.0
  0
LTYPE
  5
2E36
330
2E27
100
AcDbSymbolTableRecord
100
AcDbLinetypeTableRecord
  2
CONTINUOUS
 70
     0
  3
Solid line
 72
    65
 73
     0
 40
0.0
  0
ENDTAB
  0
TABLE
  2
LAYER
  5
2E24
102
{ACAD_XDICTIONARY
360
15B01
102
}
330
0
100
AcDbSymbolTable
 70
     8
  0
LAYER
  5
2E31
330
2E24
100
AcDbSymbolTableRecord
100
AcDbLayerTableRecord
  2
0
 70
     0
 62
     7
  6
CONTINUOUS
370
    -3
390
158BF
  0
LAYER
  5
2E5D
330
2E24
100
AcDbSymbolTableRecord
100
AcDbLayerTableRecord
  2
LAYER1
 70
     0
 62
     7
  6
CONTINUOUS
370
    -3
390
158BF
  0
LAYER
  5
2E5F
330
2E24
100
AcDbSymbolTableRecord
100
AcDbLayerTableRecord
  2
TEKST
 70
     0
 62
     7
  6
CONTINUOUS
370
    -3
390
158BF
  0
LAYER
  5
2E60
330
2E24
100
AcDbSymbolTableRecord
100
AcDbLayerTableRecord
  2
DEFPOINTS
 70
     0
 62
     7
  6
CONTINUOUS
290
     0
370
    -3
390
158BF
  0
LAYER
  5
2E7C
330
2E24
100
AcDbSymbolTableRecord
100
AcDbLayerTableRecord
  2
ASHADE
 70
     4
 62
     7
  6
CONTINUOUS
370
    -3
390
158BF
  0
LAYER
  5
30B2
330
2E24
100
AcDbSymbolTableRecord
100
AcDbLayerTableRecord
  2
OMRISS
 70
     0
 62
     8
  6
CONTINUOUS
370
    -3
390
158BF
  0
LAYER
  5
15C1B
330
2E24
100
AcDbSymbolTableRecord
100
AcDbLayerTableRecord
  2
Omriss tanker
 70
     0
 62
   201
  6
CONTINUOUS
370
    -3
390
158BF
  0
LAYER
  5
165F3
330
2E24
100
AcDbSymbolTableRecord
100
AcDbLayerTableRecord
  2
Control object
 70
     0
 62
   201
  6
CONTINUOUS
370
    -3
390
158BF
1001
AcAecLayerStandard
1000

1000

  0
ENDTAB
  0
TABLE
  2
STYLE
  5
2E25
330
0
100
AcDbSymbolTable
 70
     3
  0
STYLE
  5
2E32
330
2E25
100
AcDbSymbolTableRecord
100
AcDbTextStyleTableRecord
  2
STANDARD
 70
     0
 40
3.0
 41
1.0
 50
0.0
 71
     0
 42
3.0
  3
txt
  4

  0
STYLE
  5
2E40
330
2E25
100
AcDbSymbolTableRecord
100
AcDbTextStyleTableRecord
  2
ROMANS
 70
     0
 40
3.0
 41
1.0
 50
0.0
 71
     0
 42
3.0
  3
romans
  4

  0
STYLE
  5
5980
330
2E25
100
AcDbSymbolTableRecord
100
AcDbTextStyleTableRecord
  2
ARIAL
 70
     0
 40
12.0
 41
1.0
 50
0.0
 71
     0
 42
12.0
  3
ARIAL.TTF
  4

1001
ACAD
1000
Arial
1071
       34
  0
ENDTAB
  0
TABLE
  2
VIEW
  5
2E28
330
0
100
AcDbSymbolTable
 70
     0
  0
ENDTAB
  0
TABLE
  2
UCS
  5
2E29
330
0
100
AcDbSymbolTable
 70
     0
  0
ENDTAB
  0
TABLE
  2
APPID
  5
2E2B
330
0
100
AcDbSymbolTable
 70
    10
  0
APPID
  5
2E33
330
2E2B
100
AcDbSymbolTableRecord
100
AcDbRegAppTableRecord
  2
ACAD
 70
     0
  0
APPID
  5
2E5B
330
2E2B
100
AcDbSymbolTableRecord
100
AcDbRegAppTableRecord
  2
AME_SOL
 70
     0
  0
APPID
  5
2E7A
330
2E2B
100
AcDbSymbolTableRecord
100
AcDbRegAppTableRecord
  2
AVE_RENDER
 70
     0
  0
APPID
  5
2E7B
330
2E2B
100
AcDbSymbolTableRecord
100
AcDbRegAppTableRecord
  2
AVE_ENTITY_MATERIAL
 70
     0
  0
APPID
  5
2E88
330
2E2B
100
AcDbSymbolTableRecord
100
AcDbRegAppTableRecord
  2
AVE_FINISH
 70
     0
  0
APPID
  5
2E89
330
2E2B
100
AcDbSymbolTableRecord
100
AcDbRegAppTableRecord
  2
AVE_MATERIAL
 70
     0
  0
APPID
  5
2E8A
330
2E2B
100
AcDbSymbolTableRecord
100
AcDbRegAppTableRecord
  2
AVE_GLOBAL
 70
     0
  0
APPID
  5
15AF6
330
2E2B
100
AcDbSymbolTableRecord
100
AcDbRegAppTableRecord
  2
DCO15
 70
     0
  0
APPID
  5
16258
330
2E2B
100
AcDbSymbolTableRecord
100
AcDbRegAppTableRecord
  2
ACAD_EXEMPT_FROM_CAD_STANDARDS
 70
     0
  0
APPID
  5
165F4
330
2E2B
100
AcDbSymbolTableRecord
100
AcDbRegAppTableRecord
  2
AcAecLayerStandard
 70
     0
  0
ENDTAB
  0
TABLE
  2
DIMSTYLE
  5
2E2C
330
0
100
AcDbSymbolTable
 70
     3
100
AcDbDimStyleTable
 71
     1
340
2E5C
  0
DIMSTYLE
105
2E5C
330
2E2C
100
AcDbSymbolTableRecord
100
AcDbDimStyleTableRecord
  2
TST
 70
     0
 41
1.0
 42
0.06
140
2.5
146
0.072
147
3.0
271
     2
272
     2
279
     2
340
2E40
  0
DIMSTYLE
105
10DF2
330
2E2C
100
AcDbSymbolTableRecord
100
AcDbDimStyleTableRecord
  2
STANDARD
 70
     0
340
2E32
  0
ENDTAB
  0
TABLE
  2
BLOCK_RECORD
  5
2E23
330
0
100
AcDbSymbolTable
 70
     5
  0
BLOCK_RECORD
  5
2E3A
330
2E23
100
AcDbSymbolTableRecord
100
AcDbBlockTableRecord
  2
*MODEL_SPACE
340
158C2
  0
BLOCK_RECORD
  5
2E37
330
2E23
100
AcDbSymbolTableRecord
100
AcDbBlockTableRecord
  2
*PAPER_SPACE
340
158C3
  0
BLOCK_RECORD
  5
2E3E
330
2E23
100
AcDbSymbolTableRecord
100
AcDbBlockTableRecord
  2
AME_NIL
340
0
102
{BLKREFS
331
17
331
10E9D
331
10EAA
331
10EB6
331
13A16
331
13A23
331
13A2F
102
}
  0
BLOCK_RECORD
  5
2E3F
330
2E23
100
AcDbSymbolTableRecord
100
AcDbBlockTableRecord
  2
AME_SOL
340
0
102
{BLKREFS
331
29
331
10E9E
331
10EAB
331
10EB7
331
13A17
331
13A24
331
13A30
102
}
  0
BLOCK_RECORD
  5
2E7D
330
2E23
100
AcDbSymbolTableRecord
100
AcDbBlockTableRecord
  2
AVE_RENDER
340
0
102
{BLKREFS
331
2E80
331
2E81
331
2E82
331
2E83
331
2E84
331
2E85
331
2E86
331
2E87
331
10EA0
331
10EA1
331
10EA2
331
10EA3
331
10EA4
331
10EA5
331
10EA6
331
10EA7
331
10EAD
331
10EAE
331
10EAF
331
10EB0
331
10EB1
331
10EB2
331
10EB3
331
10EB4
331
10EB9
331
10EBA
331
10EBB
331
10EBC
331
10EBD
331
10EBE
331
10EBF
331
10EC0
331
13A19
331
13A1A
331
13A1B
331
13A1C
331
13A1D
331
13A1E
331
13A1F
331
13A20
331
13A26
331
13A27
331
13A28
331
13A29
331
13A2A
331
13A2B
331
13A2C
331
13A2D
331
13A32
331
13A33
331
13A34
331
13A35
331
13A36
331
13A37
331
13A38
331
13A39
102
}
  0
BLOCK_RECORD
  5
2E8B
330
2E23
100
AcDbSymbolTableRecord
100
AcDbBlockTableRecord
  2
AVE_GLOBAL
340
0
102
{BLKREFS
331
2E8E
331
10EA8
331
10EB5
331
10EC1
331
13A21
331
13A2E
331
13A3A
102
}
  0
ENDTAB
  0
ENDSEC
  0
SECTION
  2
BLOCKS
  0
BLOCK
  5
2E63
330
2E3A
100
AcDbEntity
  8
0
100
AcDbBlockBegin
  2
*MODEL_SPACE
 70
     0
 10
0.0
 20
0.0
 30
0.0
  3
*MODEL_SPACE
  1

  0
ENDBLK
  5
2E64
330
2E3A
100
AcDbEntity
  8
0
100
AcDbBlockEnd
  0
BLOCK
  5
2E61
330
2E37
100
AcDbEntity
 67
     1
  8
0
100
AcDbBlockBegin
  2
*PAPER_SPACE
 70
     0
 10
0.0
 20
0.0
 30
0.0
  3
*PAPER_SPACE
  1

  0
ENDBLK
  5
2E62
330
2E37
100
AcDbEntity
 67
     1
  8
0
100
AcDbBlockEnd
  0
BLOCK
  5
E
330
2E3E
100
AcDbEntity
  8
0
100
AcDbBlockBegin
  2
AME_NIL
 70
     0
 10
0.0
 20
0.0
 30
0.0
  3
AME_NIL
  1
AME_NIL
  0
ENDBLK
  5
F
330
2E3E
100
AcDbEntity
  8
0
100
AcDbBlockEnd
  0
BLOCK
  5
11
330
2E3F
100
AcDbEntity
  8
0
100
AcDbBlockBegin
  2
AME_SOL
 70
     0
 10
0.0
 20
0.0
 30
0.0
  3
AME_SOL
  1
AME_SOL
  0
ENDBLK
  5
12
330
2E3F
100
AcDbEntity
  8
0
100
AcDbBlockEnd
  0
BLOCK
  5
2E7E
330
2E7D
100
AcDbEntity
  8
0
100
AcDbBlockBegin
  2
AVE_RENDER
 70
     0
 10
0.0
 20
0.0
 30
0.0
  3
AVE_RENDER
  1
AVE_RENDER
  0
ENDBLK
  5
2E7F
330
2E7D
100
AcDbEntity
  8
0
100
AcDbBlockEnd
  0
BLOCK
  5
2E8C
330
2E8B
100
AcDbEntity
  8
0
100
AcDbBlockBegin
  2
AVE_GLOBAL
 70
     0
 10
0.0
 20
0.0
 30
0.0
  3
AVE_GLOBAL
  1
AVE_GLOBAL
  0
ENDBLK
  5
2E8D
330
2E8B
100
AcDbEntity
  8
0
100
AcDbBlockEnd
  0
ENDSEC
  0
SECTION
  2
ENTITIES
  0
INSERT
  5
17
330
2E3A
100
AcDbEntity
  8
LAYER1
100
AcDbBlockReference
  2
AME_NIL
 10
0.0
 20
0.0
 30
0.0
  0
INSERT
  5
29
330
2E3A
100
AcDbEntity
  8
LAYER1
100
AcDbBlockReference
  2
AME_SOL
 10
0.0
 20
0.0
 30
0.0
1001
AME_SOL
1000
R2.1
1000
AME2
1000
sq m
1070
     3
1070
     0
1070
     3
1000
mesh
1040
45.0
1000
U
1040
1.0
1000
m
1000
gm
1000
MILD_STEEL
1070
    25
1000
CSG
1070
     1
1070
     3
1070
     3
1070
     3
1070
     0
1000
cu cm
1070
     1
1070
     0
1005
17
  0
TEXT
  5
50
330
2E3A
100
AcDbEntity
  8
TEKST
100
AcDbText
 10
11.52210026922298
 20
20.64189715824095
 30
0.0
 40
2.5
  1

  7
ROMANS
100
AcDbText
  0
INSERT
  5
2E80
330
2E3A
100
AcDbEntity
  8
ASHADE
 62
     1
100
AcDbBlockReference
  2
AVE_RENDER
 10
0.0
 20
0.0
 30
0.0
1001
AVE_RENDER
1002
{
1070
     6
1000
Pref
1070
    30
1070
    20
1070
     1
1070
     0
1000

1070
    10
1070
     1
1070
    30
1040
1.0
1070
     1
1040
0.3
1040
0.7
1040
0.0
1040
10.0
1010
-1.0
1020
-1.0
1030
-1.0
1040
0.3
1070
    49
1070
     0
1070
     0
1010
1.0
1020
1.0
1030
1.0
1040
45.0
1070
     1
1070
     0
1000
WCS
1040
0.0
1002
}
  0
INSERT
  5
2E81
330
2E3A
100
AcDbEntity
  8
ASHADE
 62
     3
100
AcDbBlockReference
  2
AVE_RENDER
 10
0.0
 20
0.0
 30
0.0
1001
AVE_RENDER
1002
{
1070
     0
1000
Full Opt
1070
     0
1070
     1
1070
     1
1070
     1
1070
     0
1070
     0
1070
     0
1070
     1
1070
     1
1040
0.0001
1040
0.0001
1002
}
  0
INSERT
  5
2E82
330
2E3A
100
AcDbEntity
  8
ASHADE
 62
     4
100
AcDbBlockReference
  2
AVE_RENDER
 10
0.0
 20
0.0
 30
0.0
1001
AVE_RENDER
1002
{
1070
     0
1000
Quick Opt
1070
     0
1070
     1
1070
     1
1070
     1
1070
     0
1070
     0
1070
     1
1002
}
  0
INSERT
  5
2E83
330
2E3A
100
AcDbEntity
  8
ASHADE
 62
     5
100
AcDbBlockReference
  2
AVE_RENDER
 10
0.0
 20
0.0
 30
0.0
1001
AVE_RENDER
1002
{
1070
     1
1000
Scanl Opt
1070
     2
1070
     0
1070
     2
1040
2.0
1040
4.0
1070
     0
1070
     1
1070
     0
1040
0.03
1002
}
  0
INSERT
  5
2E84
330
2E3A
100
AcDbEntity
  8
ASHADE
 62
     6
100
AcDbBlockReference
  2
AVE_RENDER
 10
0.0
 20
0.0
 30
0.0
1001
AVE_RENDER
1002
{
1070
     2
1000
Raytr Opt
1070
     2
1070
     0
1070
     2
1040
2.0
1040
4.0
1070
     0
1070
     1
1070
     1
1040
0.03
1070
     3
1040
0.03
1002
}
  0
INSERT
  5
2E85
330
2E3A
100
AcDbEntity
  8
ASHADE
 62
     7
100
AcDbBlockReference
  2
AVE_RENDER
 10
0.0
 20
0.0
 30
0.0
1001
AVE_RENDER
1002
{
1070
     0
1000
RFile Opt
1070
     5
1070
   640
1070
   480
1070
 10000
1070
     3
1070
    32
1070
    24
1070
     0
1070
     0
1070
     0
1070
     1
1070
     0
1070
     0
1070
     0
1002
}
  0
INSERT
  5
2E86
330
2E3A
100
AcDbEntity
  8
ASHADE
 62
     8
100
AcDbBlockReference
  2
AVE_RENDER
 10
0.0
 20
0.0
 30
0.0
1001
AVE_RENDER
1002
{
1070
     0
1000
Fog Opt
1070
     0
1070
     0
1040
0.0
1040
1.0
1040
0.0
1040
1.0
1010
0.5
1020
0.5
1030
0.5
1002
}
  0
INSERT
  5
2E87
330
2E3A
100
AcDbEntity
  8
ASHADE
 62
     9
100
AcDbBlockReference
  2
AVE_RENDER
 10
0.0
 20
0.0
 30
0.0
1001
AVE_RENDER
1002
{
1070
     0
1000
BG Opt
1070
     0
1070
     1
1010
0.0
1020
0.0
1030
0.0
1010
1.0
1020
0.0
1030
0.0
1010
0.0
1020
1.0
1030
0.0
1010
0.0
1020
0.0
1030
1.0
1040
0.5
1040
0.33
1040
0.0
1000

1070
     1
1000

1070
     1
1070
     1
1040
1.0
1040
1.0
1040
0.0
1040
0.0
1070
     0
1002
}
  0
INSERT
  5
2E8E
330
2E3A
100
AcDbEntity
  8
ASHADE
 62
     1
100
AcDbBlockReference
  2
AVE_GLOBAL
 10
0.0
 20
0.0
 30
0.0
1001
AVE_MATERIAL
1002
{
1000
*GLOBAL*
1000
1
1000
Global finish.
1002
{
1002
}
1002
{
1070
    63
1002
{
1002
{
1010
-1.0
1020
-1.0
1030
-1.0
1002
}
1040
0.1000000014901161
1000

1040
0.0
1002
{
1002
}
1040
0.0
1002
{
1002
}
1040
0.0
1002
}
1002
{
1002
{
1010
-1.0
1020
-1.0
1030
-1.0
1002
}
1040
0.6999999880790711
1000

1040
0.0
1002
{
1002
}
1040
0.0
1002
{
1002
}
1040
0.0
1002
}
1002
{
1002
{
1010
-1.0
1020
-1.0
1030
-1.0
1002
}
1040
0.2000000029802322
1000

1040
0.0
1002
{
1002
}
1040
0.0
1002
{
1002
}
1040
0.0
1002
}
1002
{
1070
     0
1002
{
1070
     1
1002
{
1040
1.0
1040
1.0
1000

1040
0.0
1002
{
1002
}
1040
0.0
1002
{
1002
}
1040
0.0
1002
}
1002
}
1040
1.0
1040
0.0
1040
0.0
1002
}
1002
{
1040
1.0
1040
1.0
1000

1040
0.0
1002
{
1002
}
1040
0.0
1002
{
1002
}
1040
0.0
1002
}
1002
{
1040
0.5
1040
1.0
1000

1040
0.0
1002
{
1002
}
1040
0.0
1002
{
1002
}
1040
0.0
1002
}
1002
{
1070
     0
1040
0.0
1002
{
1002
}
1040
1.0
1002
{
1002
}
1040
0.0
1002
}
1002
{
1040
0.0
1002
{
1002
{
1010
0.0
1020
0.0
1030
0.0
1002
}
1040
1.0
1000

1040
0.0
1002
{
1002
}
1040
0.0
1002
{
1002
}
1040
0.0
1002
}
1002
}
1002
{
1002
{
1070
     1
1002
{
1040
0.0
1040
1.0
1000

1040
0.0
1002
{
1002
}
1040
0.0
1002
{
1002
}
1040
0.0
1002
}
1002
}
1040
0.0
1002
{
1002
}
1010
1.0
1020
0.0
1030
0.0
1010
0.0
1020
1.0
1030
0.0
1010
0.0
1020
0.0
1030
1.0
1070
     0
1002
}
1002
{
1002
{
1040
1.0
1040
1.0
1002
{
1070
     1
1002
{
1040
1.0
1040
1.0
1000

1040
0.0
1002
{
1002
}
1040
0.0
1002
{
1002
}
1040
0.0
1002
}
1002
}
1002
}
1070
     0
1040
0.0
1002
{
1002
}
1002
}
1002
{
1002
}
1002
}
1002
{
1071
        3
1070
     3
1070
     0
1002
{
1070
     2
1070
     0
1070
     0
1040
0.0
1002
}
1070
     0
1070
     2
1002
{
1002
}
1002
}
1002
{
1040
8030.0
1040
190.3000030517578
1040
0.3050000071525574
1040
228.0
1040
545.0
1040
14.0
1040
17.39999961853027
1040
0.4560000002384186
1002
}
1002
}
  0
INSERT
  5
10E9D
330
2E3A
100
AcDbEntity
  8
LAYER1
100
AcDbBlockReference
  2
AME_NIL
 10
436.8103605630293
 20
-215.6608172053943
 30
0.0
  0
INSERT
  5
10E9E
330
2E3A
100
AcDbEntity
  8
LAYER1
100
AcDbBlockReference
  2
AME_SOL
 10
436.8103605630293
 20
-215.6608172053943
 30
0.0
1001
AME_SOL
1000
R2.1
1000
AME2
1000
sq m
1070
     3
1070
     0
1070
     3
1000
mesh
1040
45.0
1000
U
1040
1.0
1000
m
1000
gm
1000
MILD_STEEL
1070
    25
1000
CSG
1070
     1
1070
     3
1070
     3
1070
     3
1070
     0
1000
cu cm
1070
     1
1070
     0
1005
10E9D
  0
TEXT
  5
10E9F
330
2E3A
100
AcDbEntity
  8
TEKST
100
AcDbText
 10
448.3324608322523
 20
-195.0189200471533
 30
0.0
 40
2.5
  1

  7
ROMANS
100
AcDbText
  0
INSERT
  5
10EA0
330
2E3A
100
AcDbEntity
  8
ASHADE
 62
     1
100
AcDbBlockReference
  2
AVE_RENDER
 10
436.8103605630293
 20
-215.6608172053943
 30
0.0
1001
AVE_RENDER
1002
{
1070
     6
1000
Pref
1070
    30
1070
    20
1070
     1
1070
     0
1000

1070
    10
1070
     1
1070
    30
1040
1.0
1070
     1
1040
0.3
1040
0.7
1040
0.0
1040
10.0
1010
-1.0
1020
-1.0
1030
-1.0
1040
0.3
1070
    49
1070
     0
1070
     0
1010
1.0
1020
1.0
1030
1.0
1040
45.0
1070
     1
1070
     0
1000
WCS
1040
0.0
1002
}
  0
INSERT
  5
10EA1
330
2E3A
100
AcDbEntity
  8
ASHADE
 62
     3
100
AcDbBlockReference
  2
AVE_RENDER
 10
436.8103605630293
 20
-215.6608172053943
 30
0.0
1001
AVE_RENDER
1002
{
1070
     0
1000
Full Opt
1070
     0
1070
     1
1070
     1
1070
     1
1070
     0
1070
     0
1070
     0
1070
     1
1070
     1
1040
0.0001
1040
0.0001
1002
}
  0
INSERT
  5
10EA2
330
2E3A
100
AcDbEntity
  8
ASHADE
 62
     4
100
AcDbBlockReference
  2
AVE_RENDER
 10
436.8103605630293
 20
-215.6608172053943
 30
0.0
1001
AVE_RENDER
1002
{
1070
     0
1000
Quick Opt
1070
     0
1070
     1
1070
     1
1070
     1
1070
     0
1070
     0
1070
     1
1002
}
  0
INSERT
  5
10EA3
330
2E3A
100
AcDbEntity
  8
ASHADE
 62
     5
100
AcDbBlockReference
  2
AVE_RENDER
 10
436.8103605630293
 20
-215.6608172053943
 30
0.0
1001
AVE_RENDER
1002
{
1070
     1
1000
Scanl Opt
1070
     2
1070
     0
1070
     2
1040
2.0
1040
4.0
1070
     0
1070
     1
1070
     0
1040
0.03
1002
}
  0
INSERT
  5
10EA4
330
2E3A
100
AcDbEntity
  8
ASHADE
 62
     6
100
AcDbBlockReference
  2
AVE_RENDER
 10
436.8103605630293
 20
-215.6608172053943
 30
0.0
1001
AVE_RENDER
1002
{
1070
     2
1000
Raytr Opt
1070
     2
1070
     0
1070
     2
1040
2.0
1040
4.0
1070
     0
1070
     1
1070
     1
1040
0.03
1070
     3
1040
0.03
1002
}
  0
INSERT
  5
10EA5
330
2E3A
100
AcDbEntity
  8
ASHADE
 62
     7
100
AcDbBlockReference
  2
AVE_RENDER
 10
436.8103605630293
 20
-215.6608172053943
 30
0.0
1001
AVE_RENDER
1002
{
1070
     0
1000
RFile Opt
1070
     5
1070
   640
1070
   480
1070
 10000
1070
     3
1070
    32
1070
    24
1070
     0
1070
     0
1070
     0
1070
     1
1070
     0
1070
     0
1070
     0
1002
}
  0
INSERT
  5
10EA6
330
2E3A
100
AcDbEntity
  8
ASHADE
 62
     8
100
AcDbBlockReference
  2
AVE_RENDER
 10
436.8103605630293
 20
-215.6608172053943
 30
0.0
1001
AVE_RENDER
1002
{
1070
     0
1000
Fog Opt
1070
     0
1070
     0
1040
0.0
1040
1.0
1040
0.0
1040
1.0
1010
0.5
1020
0.5
1030
0.5
1002
}
  0
INSERT
  5
10EA7
330
2E3A
100
AcDbEntity
  8
ASHADE
 62
     9
100
AcDbBlockReference
  2
AVE_RENDER
 10
436.8103605630293
 20
-215.6608172053943
 30
0.0
1001
AVE_RENDER
1002
{
1070
     0
1000
BG Opt
1070
     0
1070
     1
1010
0.0
1020
0.0
1030
0.0
1010
1.0
1020
0.0
1030
0.0
1010
0.0
1020
1.0
1030
0.0
1010
0.0
1020
0.0
1030
1.0
1040
0.5
1040
0.33
1040
0.0
1000

1070
     1
1000

1070
     1
1070
     1
1040
1.0
1040
1.0
1040
0.0
1040
0.0
1070
     0
1002
}
  0
INSERT
  5
10EA8
330
2E3A
100
AcDbEntity
  8
ASHADE
 62
     1
100
AcDbBlockReference
  2
AVE_GLOBAL
 10
436.8103605630293
 20
-215.6608172053943
 30
0.0
1001
AVE_MATERIAL
1002
{
1000
*GLOBAL*
1000
1
1000
Global finish.
1002
{
1002
}
1002
{
1070
    63
1002
{
1002
{
1010
-1.0
1020
-1.0
1030
-1.0
1002
}
1040
0.1000000014901161
1000

1040
0.0
1002
{
1002
}
1040
0.0
1002
{
1002
}
1040
0.0
1002
}
1002
{
1002
{
1010
-1.0
1020
-1.0
1030
-1.0
1002
}
1040
0.6999999880790711
1000

1040
0.0
1002
{
1002
}
1040
0.0
1002
{
1002
}
1040
0.0
1002
}
1002
{
1002
{
1010
-1.0
1020
-1.0
1030
-1.0
1002
}
1040
0.2000000029802322
1000

1040
0.0
1002
{
1002
}
1040
0.0
1002
{
1002
}
1040
0.0
1002
}
1002
{
1070
     0
1002
{
1070
     1
1002
{
1040
1.0
1040
1.0
1000

1040
0.0
1002
{
1002
}
1040
0.0
1002
{
1002
}
1040
0.0
1002
}
1002
}
1040
1.0
1040
0.0
1040
0.0
1002
}
1002
{
1040
1.0
1040
1.0
1000

1040
0.0
1002
{
1002
}
1040
0.0
1002
{
1002
}
1040
0.0
1002
}
1002
{
1040
0.5
1040
1.0
1000

1040
0.0
1002
{
1002
}
1040
0.0
1002
{
1002
}
1040
0.0
1002
}
1002
{
1070
     0
1040
0.0
1002
{
1002
}
1040
1.0
1002
{
1002
}
1040
0.0
1002
}
1002
{
1040
0.0
1002
{
1002
{
1010
0.0
1020
0.0
1030
0.0
1002
}
1040
1.0
1000

1040
0.0
1002
{
1002
}
1040
0.0
1002
{
1002
}
1040
0.0
1002
}
1002
}
1002
{
1002
{
1070
     1
1002
{
1040
0.0
1040
1.0
1000

1040
0.0
1002
{
1002
}
1040
0.0
1002
{
1002
}
1040
0.0
1002
}
1002
}
1040
0.0
1002
{
1002
}
1010
1.0
1020
0.0
1030
0.0
1010
0.0
1020
1.0
1030
0.0
1010
0.0
1020
0.0
1030
1.0
1070
     0
1002
}
1002
{
1002
{
1040
1.0
1040
1.0
1002
{
1070
     1
1002
{
1040
1.0
1040
1.0
1000

1040
0.0
1002
{
1002
}
1040
0.0
1002
{
1002
}
1040
0.0
1002
}
1002
}
1002
}
1070
     0
1040
0.0
1002
{
1002
}
1002
}
1002
{
1002
}
1002
}
1002
{
1071
        3
1070
     3
1070
     0
1002
{
1070
     2
1070
     0
1070
     0
1040
0.0
1002
}
1070
     0
1070
     2
1002
{
1002
}
1002
}
1002
{
1040
8030.0
1040
190.3000030517578
1040
0.3050000071525574
1040
228.0
1040
545.0
1040
14.0
1040
17.39999961853027
1040
0.4560000002384186
1002
}
1002
}
  0
TEXT
  5
10EA9
330
2E3A
100
AcDbEntity
  8
0
 62
     7
 48
5.0
100
AcDbText
 10
-1248.752895886679
 20
165.3686324960031
 30
0.0
 40
3.809829827610412
  1
 
 41
0.75
100
AcDbText
  0
INSERT
  5
10EAA
330
2E3A
100
AcDbEntity
  8
LAYER1
100
AcDbBlockReference
  2
AME_NIL
 10
-2402.748217515968
 20
517.4898289907482
 30
0.0
  0
INSERT
  5
10EAB
330
2E3A
100
AcDbEntity
  8
LAYER1
100
AcDbBlockReference
  2
AME_SOL
 10
-2402.748217515968
 20
517.4898289907482
 30
0.0
1001
AME_SOL
1000
R2.1
1000
AME2
1000
sq m
1070
     3
1070
     0
1070
     3
1000
mesh
1040
45.0
1000
U
1040
1.0
1000
m
1000
gm
1000
MILD_STEEL
1070
    25
1000
CSG
1070
     1
1070
     3
1070
     3
1070
     3
1070
     0
1000
cu cm
1070
     1
1070
     0
1005
10EAA
  0
TEXT
  5
10EAC
330
2E3A
100
AcDbEntity
  8
TEKST
100
AcDbText
 10
-2391.226117246745
 20
538.1317261489892
 30
0.0
 40
2.5
  1

  7
ROMANS
100
AcDbText
  0
INSERT
  5
10EAD
330
2E3A
100
AcDbEntity
  8
ASHADE
 62
     1
100
AcDbBlockReference
  2
AVE_RENDER
 10
-2402.748217515968
 20
517.4898289907482
 30
0.0
1001
AVE_RENDER
1002
{
1070
     6
1000
Pref
1070
    30
1070
    20
1070
     1
1070
     0
1000

1070
    10
1070
     1
1070
    30
1040
1.0
1070
     1
1040
0.3
1040
0.7
1040
0.0
1040
10.0
1010
-1.0
1020
-1.0
1030
-1.0
1040
0.3
1070
    49
1070
     0
1070
     0
1010
1.0
1020
1.0
1030
1.0
1040
45.0
1070
     1
1070
     0
1000
WCS
1040
0.0
1002
}
  0
INSERT
  5
10EAE
330
2E3A
100
AcDbEntity
  8
ASHADE
 62
     3
100
AcDbBlockReference
  2
AVE_RENDER
 10
-2402.748217515968
 20
517.4898289907482
 30
0.0
1001
AVE_RENDER
1002
{
1070
     0
1000
Full Opt
1070
     0
1070
     1
1070
     1
1070
     1
1070
     0
1070
     0
1070
     0
1070
     1
1070
     1
1040
0.0001
1040
0.0001
1002
}
  0
INSERT
  5
10EAF
330
2E3A
100
AcDbEntity
  8
ASHADE
 62
     4
100
AcDbBlockReference
  2
AVE_RENDER
 10
-2402.748217515968
 20
517.4898289907482
 30
0.0
1001
AVE_RENDER
1002
{
1070
     0
1000
Quick Opt
1070
     0
1070
     1
1070
     1
1070
     1
1070
     0
1070
     0
1070
     1
1002
}
  0
INSERT
  5
10EB0
330
2E3A
100
AcDbEntity
  8
ASHADE
 62
     5
100
AcDbBlockReference
  2
AVE_RENDER
 10
-2402.748217515968
 20
517.4898289907482
 30
0.0
1001
AVE_RENDER
1002
{
1070
     1
1000
Scanl Opt
1070
     2
1070
     0
1070
     2
1040
2.0
1040
4.0
1070
     0
1070
     1
1070
     0
1040
0.03
1002
}
  0
INSERT
  5
10EB1
330
2E3A
100
AcDbEntity
  8
ASHADE
 62
     6
100
AcDbBlockReference
  2
AVE_RENDER
 10
-2402.748217515968
 20
517.4898289907482
 30
0.0
1001
AVE_RENDER
1002
{
1070
     2
1000
Raytr Opt
1070
     2
1070
     0
1070
     2
1040
2.0
1040
4.0
1070
     0
1070
     1
1070
     1
1040
0.03
1070
     3
1040
0.03
1002
}
  0
INSERT
  5
10EB2
330
2E3A
100
AcDbEntity
  8
ASHADE
 62
     7
100
AcDbBlockReference
  2
AVE_RENDER
 10
-2402.748217515968
 20
517.4898289907482
 30
0.0
1001
AVE_RENDER
1002
{
1070
     0
1000
RFile Opt
1070
     5
1070
   640
1070
   480
1070
 10000
1070
     3
1070
    32
1070
    24
1070
     0
1070
     0
1070
     0
1070
     1
1070
     0
1070
     0
1070
     0
1002
}
  0
INSERT
  5
10EB3
330
2E3A
100
AcDbEntity
  8
ASHADE
 62
     8
100
AcDbBlockReference
  2
AVE_RENDER
 10
-2402.748217515968
 20
517.4898289907482
 30
0.0
1001
AVE_RENDER
1002
{
1070
     0
1000
Fog Opt
1070
     0
1070
     0
1040
0.0
1040
1.0
1040
0.0
1040
1.0
1010
0.5
1020
0.5
1030
0.5
1002
}
  0
INSERT
  5
10EB4
330
2E3A
100
AcDbEntity
  8
ASHADE
 62
     9
100
AcDbBlockReference
  2
AVE_RENDER
 10
-2402.748217515968
 20
517.4898289907482
 30
0.0
1001
AVE_RENDER
1002
{
1070
     0
1000
BG Opt
1070
     0
1070
     1
1010
0.0
1020
0.0
1030
0.0
1010
1.0
1020
0.0
1030
0.0
1010
0.0
1020
1.0
1030
0.0
1010
0.0
1020
0.0
1030
1.0
1040
0.5
1040
0.33
1040
0.0
1000

1070
     1
1000

1070
     1
1070
     1
1040
1.0
1040
1.0
1040
0.0
1040
0.0
1070
     0
1002
}
  0
INSERT
  5
10EB5
330
2E3A
100
AcDbEntity
  8
ASHADE
 62
     1
100
AcDbBlockReference
  2
AVE_GLOBAL
 10
-2402.748217515968
 20
517.4898289907482
 30
0.0
1001
AVE_MATERIAL
1002
{
1000
*GLOBAL*
1000
1
1000
Global finish.
1002
{
1002
}
1002
{
1070
    63
1002
{
1002
{
1010
-1.0
1020
-1.0
1030
-1.0
1002
}
1040
0.1000000014901161
1000

1040
0.0
1002
{
1002
}
1040
0.0
1002
{
1002
}
1040
0.0
1002
}
1002
{
1002
{
1010
-1.0
1020
-1.0
1030
-1.0
1002
}
1040
0.6999999880790711
1000

1040
0.0
1002
{
1002
}
1040
0.0
1002
{
1002
}
1040
0.0
1002
}
1002
{
1002
{
1010
-1.0
1020
-1.0
1030
-1.0
1002
}
1040
0.2000000029802322
1000

1040
0.0
1002
{
1002
}
1040
0.0
1002
{
1002
}
1040
0.0
1002
}
1002
{
1070
     0
1002
{
1070
     1
1002
{
1040
1.0
1040
1.0
1000

1040
0.0
1002
{
1002
}
1040
0.0
1002
{
1002
}
1040
0.0
1002
}
1002
}
1040
1.0
1040
0.0
1040
0.0
1002
}
1002
{
1040
1.0
1040
1.0
1000

1040
0.0
1002
{
1002
}
1040
0.0
1002
{
1002
}
1040
0.0
1002
}
1002
{
1040
0.5
1040
1.0
1000

1040
0.0
1002
{
1002
}
1040
0.0
1002
{
1002
}
1040
0.0
1002
}
1002
{
1070
     0
1040
0.0
1002
{
1002
}
1040
1.0
1002
{
1002
}
1040
0.0
1002
}
1002
{
1040
0.0
1002
{
1002
{
1010
0.0
1020
0.0
1030
0.0
1002
}
1040
1.0
1000

1040
0.0
1002
{
1002
}
1040
0.0
1002
{
1002
}
1040
0.0
1002
}
1002
}
1002
{
1002
{
1070
     1
1002
{
1040
0.0
1040
1.0
1000

1040
0.0
1002
{
1002
}
1040
0.0
1002
{
1002
}
1040
0.0
1002
}
1002
}
1040
0.0
1002
{
1002
}
1010
1.0
1020
0.0
1030
0.0
1010
0.0
1020
1.0
1030
0.0
1010
0.0
1020
0.0
1030
1.0
1070
     0
1002
}
1002
{
1002
{
1040
1.0
1040
1.0
1002
{
1070
     1
1002
{
1040
1.0
1040
1.0
1000

1040
0.0
1002
{
1002
}
1040
0.0
1002
{
1002
}
1040
0.0
1002
}
1002
}
1002
}
1070
     0
1040
0.0
1002
{
1002
}
1002
}
1002
{
1002
}
1002
}
1002
{
1071
        3
1070
     3
1070
     0
1002
{
1070
     2
1070
     0
1070
     0
1040
0.0
1002
}
1070
     0
1070
     2
1002
{
1002
}
1002
}
1002
{
1040
8030.0
1040
190.3000030517578
1040
0.3050000071525574
1040
228.0
1040
545.0
1040
14.0
1040
17.39999961853027
1040
0.4560000002384186
1002
}
1002
}
  0
INSERT
  5
10EB6
330
2E3A
100
AcDbEntity
  8
LAYER1
100
AcDbBlockReference
  2
AME_NIL
 10
-484.0180840161846
 20
686.0103158393807
 30
0.0
  0
INSERT
  5
10EB7
330
2E3A
100
AcDbEntity
  8
LAYER1
100
AcDbBlockReference
  2
AME_SOL
 10
-484.0180840161846
 20
686.0103158393807
 30
0.0
1001
AME_SOL
1000
R2.1
1000
AME2
1000
sq m
1070
     3
1070
     0
1070
     3
1000
mesh
1040
45.0
1000
U
1040
1.0
1000
m
1000
gm
1000
MILD_STEEL
1070
    25
1000
CSG
1070
     1
1070
     3
1070
     3
1070
     3
1070
     0
1000
cu cm
1070
     1
1070
     0
1005
10EB6
  0
TEXT
  5
10EB8
330
2E3A
100
AcDbEntity
  8
TEKST
100
AcDbText
 10
-472.4959837469618
 20
706.6522129976217
 30
0.0
 40
2.5
  1

  7
ROMANS
100
AcDbText
  0
INSERT
  5
10EB9
330
2E3A
100
AcDbEntity
  8
ASHADE
 62
     1
100
AcDbBlockReference
  2
AVE_RENDER
 10
-484.0180840161846
 20
686.0103158393807
 30
0.0
1001
AVE_RENDER
1002
{
1070
     6
1000
Pref
1070
    30
1070
    20
1070
     1
1070
     0
1000

1070
    10
1070
     1
1070
    30
1040
1.0
1070
     1
1040
0.3
1040
0.7
1040
0.0
1040
10.0
1010
-1.0
1020
-1.0
1030
-1.0
1040
0.3
1070
    49
1070
     0
1070
     0
1010
1.0
1020
1.0
1030
1.0
1040
45.0
1070
     1
1070
     0
1000
WCS
1040
0.0
1002
}
  0
INSERT
  5
10EBA
330
2E3A
100
AcDbEntity
  8
ASHADE
 62
     3
100
AcDbBlockReference
  2
AVE_RENDER
 10
-484.0180840161846
 20
686.0103158393807
 30
0.0
1001
AVE_RENDER
1002
{
1070
     0
1000
Full Opt
1070
     0
1070
     1
1070
     1
1070
     1
1070
     0
1070
     0
1070
     0
1070
     1
1070
     1
1040
0.0001
1040
0.0001
1002
}
  0
INSERT
  5
10EBB
330
2E3A
100
AcDbEntity
  8
ASHADE
 62
     4
100
AcDbBlockReference
  2
AVE_RENDER
 10
-484.0180840161846
 20
686.0103158393807
 30
0.0
1001
AVE_RENDER
1002
{
1070
     0
1000
Quick Opt
1070
     0
1070
     1
1070
     1
1070
     1
1070
     0
1070
     0
1070
     1
1002
}
  0
INSERT
  5
10EBC
330
2E3A
100
AcDbEntity
  8
ASHADE
 62
     5
100
AcDbBlockReference
  2
AVE_RENDER
 10
-484.0180840161846
 20
686.0103158393807
 30
0.0
1001
AVE_RENDER
1002
{
1070
     1
1000
Scanl Opt
1070
     2
1070
     0
1070
     2
1040
2.0
1040
4.0
1070
     0
1070
     1
1070
     0
1040
0.03
1002
}
  0
INSERT
  5
10EBD
330
2E3A
100
AcDbEntity
  8
ASHADE
 62
     6
100
AcDbBlockReference
  2
AVE_RENDER
 10
-484.0180840161846
 20
686.0103158393807
 30
0.0
1001
AVE_RENDER
1002
{
1070
     2
1000
Raytr Opt
1070
     2
1070
     0
1070
     2
1040
2.0
1040
4.0
1070
     0
1070
     1
1070
     1
1040
0.03
1070
     3
1040
0.03
1002
}
  0
INSERT
  5
10EBE
330
2E3A
100
AcDbEntity
  8
ASHADE
 62
     7
100
AcDbBlockReference
  2
AVE_RENDER
 10
-484.0180840161846
 20
686.0103158393807
 30
0.0
1001
AVE_RENDER
1002
{
1070
     0
1000
RFile Opt
1070
     5
1070
   640
1070
   480
1070
 10000
1070
     3
1070
    32
1070
    24
1070
     0
1070
     0
1070
     0
1070
     1
1070
     0
1070
     0
1070
     0
1002
}
  0
INSERT
  5
10EBF
330
2E3A
100
AcDbEntity
  8
ASHADE
 62
     8
100
AcDbBlockReference
  2
AVE_RENDER
 10
-484.0180840161846
 20
686.0103158393807
 30
0.0
1001
AVE_RENDER
1002
{
1070
     0
1000
Fog Opt
1070
     0
1070
     0
1040
0.0
1040
1.0
1040
0.0
1040
1.0
1010
0.5
1020
0.5
1030
0.5
1002
}
  0
INSERT
  5
10EC0
330
2E3A
100
AcDbEntity
  8
ASHADE
 62
     9
100
AcDbBlockReference
  2
AVE_RENDER
 10
-484.0180840161846
 20
686.0103158393807
 30
0.0
1001
AVE_RENDER
1002
{
1070
     0
1000
BG Opt
1070
     0
1070
     1
1010
0.0
1020
0.0
1030
0.0
1010
1.0
1020
0.0
1030
0.0
1010
0.0
1020
1.0
1030
0.0
1010
0.0
1020
0.0
1030
1.0
1040
0.5
1040
0.33
1040
0.0
1000

1070
     1
1000

1070
     1
1070
     1
1040
1.0
1040
1.0
1040
0.0
1040
0.0
1070
     0
1002
}
  0
INSERT
  5
10EC1
330
2E3A
100
AcDbEntity
  8
ASHADE
 62
     1
100
AcDbBlockReference
  2
AVE_GLOBAL
 10
-484.0180840161846
 20
686.0103158393807
 30
0.0
1001
AVE_MATERIAL
1002
{
1000
*GLOBAL*
1000
1
1000
Global finish.
1002
{
1002
}
1002
{
1070
    63
1002
{
1002
{
1010
-1.0
1020
-1.0
1030
-1.0
1002
}
1040
0.1000000014901161
1000

1040
0.0
1002
{
1002
}
1040
0.0
1002
{
1002
}
1040
0.0
1002
}
1002
{
1002
{
1010
-1.0
1020
-1.0
1030
-1.0
1002
}
1040
0.6999999880790711
1000

1040
0.0
1002
{
1002
}
1040
0.0
1002
{
1002
}
1040
0.0
1002
}
1002
{
1002
{
1010
-1.0
1020
-1.0
1030
-1.0
1002
}
1040
0.2000000029802322
1000

1040
0.0
1002
{
1002
}
1040
0.0
1002
{
1002
}
1040
0.0
1002
}
1002
{
1070
     0
1002
{
1070
     1
1002
{
1040
1.0
1040
1.0
1000

1040
0.0
1002
{
1002
}
1040
0.0
1002
{
1002
}
1040
0.0
1002
}
1002
}
1040
1.0
1040
0.0
1040
0.0
1002
}
1002
{
1040
1.0
1040
1.0
1000

1040
0.0
1002
{
1002
}
1040
0.0
1002
{
1002
}
1040
0.0
1002
}
1002
{
1040
0.5
1040
1.0
1000

1040
0.0
1002
{
1002
}
1040
0.0
1002
{
1002
}
1040
0.0
1002
}
1002
{
1070
     0
1040
0.0
1002
{
1002
}
1040
1.0
1002
{
1002
}
1040
0.0
1002
}
1002
{
1040
0.0
1002
{
1002
{
1010
0.0
1020
0.0
1030
0.0
1002
}
1040
1.0
1000

1040
0.0
1002
{
1002
}
1040
0.0
1002
{
1002
}
1040
0.0
1002
}
1002
}
1002
{
1002
{
1070
     1
1002
{
1040
0.0
1040
1.0
1000

1040
0.0
1002
{
1002
}
1040
0.0
1002
{
1002
}
1040
0.0
1002
}
1002
}
1040
0.0
1002
{
1002
}
1010
1.0
1020
0.0
1030
0.0
1010
0.0
1020
1.0
1030
0.0
1010
0.0
1020
0.0
1030
1.0
1070
     0
1002
}
1002
{
1002
{
1040
1.0
1040
1.0
1002
{
1070
     1
1002
{
1040
1.0
1040
1.0
1000

1040
0.0
1002
{
1002
}
1040
0.0
1002
{
1002
}
1040
0.0
1002
}
1002
}
1002
}
1070
     0
1040
0.0
1002
{
1002
}
1002
}
1002
{
1002
}
1002
}
1002
{
1071
        3
1070
     3
1070
     0
1002
{
1070
     2
1070
     0
1070
     0
1040
0.0
1002
}
1070
     0
1070
     2
1002
{
1002
}
1002
}
1002
{
1040
8030.0
1040
190.3000030517578
1040
0.3050000071525574
1040
228.0
1040
545.0
1040
14.0
1040
17.39999961853027
1040
0.4560000002384186
1002
}
1002
}
  0
TEXT
  5
10EC2
330
2E3A
100
AcDbEntity
  8
0
 62
     7
 48
5.0
100
AcDbText
 10
-2169.581340465893
 20
1067.039765540778
 30
0.0
 40
3.809829827610412
  1
 
 41
0.75
100
AcDbText
  0
INSERT
  5
13A16
330
2E3A
100
AcDbEntity
  8
LAYER1
100
AcDbBlockReference
  2
AME_NIL
 10
1127.527252663858
 20
-264.6230569512117
 30
0.0
  0
INSERT
  5
13A17
330
2E3A
100
AcDbEntity
  8
LAYER1
100
AcDbBlockReference
  2
AME_SOL
 10
1127.527252663858
 20
-264.6230569512117
 30
0.0
1001
AME_SOL
1000
R2.1
1000
AME2
1000
sq m
1070
     3
1070
     0
1070
     3
1000
mesh
1040
45.0
1000
U
1040
1.0
1000
m
1000
gm
1000
MILD_STEEL
1070
    25
1000
CSG
1070
     1
1070
     3
1070
     3
1070
     3
1070
     0
1000
cu cm
1070
     1
1070
     0
1005
13A16
  0
TEXT
  5
13A18
330
2E3A
100
AcDbEntity
  8
TEKST
100
AcDbText
 10
1139.049352933081
 20
-243.9811597929708
 30
0.0
 40
2.5
  1

  7
ROMANS
100
AcDbText
  0
INSERT
  5
13A19
330
2E3A
100
AcDbEntity
  8
ASHADE
 62
     1
100
AcDbBlockReference
  2
AVE_RENDER
 10
1127.527252663858
 20
-264.6230569512117
 30
0.0
1001
AVE_RENDER
1002
{
1070
     6
1000
Pref
1070
    30
1070
    20
1070
     1
1070
     0
1000

1070
    10
1070
     1
1070
    30
1040
1.0
1070
     1
1040
0.3
1040
0.7
1040
0.0
1040
10.0
1010
-1.0
1020
-1.0
1030
-1.0
1040
0.3
1070
    49
1070
     0
1070
     0
1010
1.0
1020
1.0
1030
1.0
1040
45.0
1070
     1
1070
     0
1000
WCS
1040
0.0
1002
}
  0
INSERT
  5
13A1A
330
2E3A
100
AcDbEntity
  8
ASHADE
 62
     3
100
AcDbBlockReference
  2
AVE_RENDER
 10
1127.527252663858
 20
-264.6230569512117
 30
0.0
1001
AVE_RENDER
1002
{
1070
     0
1000
Full Opt
1070
     0
1070
     1
1070
     1
1070
     1
1070
     0
1070
     0
1070
     0
1070
     1
1070
     1
1040
0.0001
1040
0.0001
1002
}
  0
INSERT
  5
13A1B
330
2E3A
100
AcDbEntity
  8
ASHADE
 62
     4
100
AcDbBlockReference
  2
AVE_RENDER
 10
1127.527252663858
 20
-264.6230569512117
 30
0.0
1001
AVE_RENDER
1002
{
1070
     0
1000
Quick Opt
1070
     0
1070
     1
1070
     1
1070
     1
1070
     0
1070
     0
1070
     1
1002
}
  0
INSERT
  5
13A1C
330
2E3A
100
AcDbEntity
  8
ASHADE
 62
     5
100
AcDbBlockReference
  2
AVE_RENDER
 10
1127.527252663858
 20
-264.6230569512117
 30
0.0
1001
AVE_RENDER
1002
{
1070
     1
1000
Scanl Opt
1070
     2
1070
     0
1070
     2
1040
2.0
1040
4.0
1070
     0
1070
     1
1070
     0
1040
0.03
1002
}
  0
INSERT
  5
13A1D
330
2E3A
100
AcDbEntity
  8
ASHADE
 62
     6
100
AcDbBlockReference
  2
AVE_RENDER
 10
1127.527252663858
 20
-264.6230569512117
 30
0.0
1001
AVE_RENDER
1002
{
1070
     2
1000
Raytr Opt
1070
     2
1070
     0
1070
     2
1040
2.0
1040
4.0
1070
     0
1070
     1
1070
     1
1040
0.03
1070
     3
1040
0.03
1002
}
  0
INSERT
  5
13A1E
330
2E3A
100
AcDbEntity
  8
ASHADE
 62
     7
100
AcDbBlockReference
  2
AVE_RENDER
 10
1127.527252663858
 20
-264.6230569512117
 30
0.0
1001
AVE_RENDER
1002
{
1070
     0
1000
RFile Opt
1070
     5
1070
   640
1070
   480
1070
 10000
1070
     3
1070
    32
1070
    24
1070
     0
1070
     0
1070
     0
1070
     1
1070
     0
1070
     0
1070
     0
1002
}
  0
INSERT
  5
13A1F
330
2E3A
100
AcDbEntity
  8
ASHADE
 62
     8
100
AcDbBlockReference
  2
AVE_RENDER
 10
1127.527252663858
 20
-264.6230569512117
 30
0.0
1001
AVE_RENDER
1002
{
1070
     0
1000
Fog Opt
1070
     0
1070
     0
1040
0.0
1040
1.0
1040
0.0
1040
1.0
1010
0.5
1020
0.5
1030
0.5
1002
}
  0
INSERT
  5
13A20
330
2E3A
100
AcDbEntity
  8
ASHADE
 62
     9
100
AcDbBlockReference
  2
AVE_RENDER
 10
1127.527252663858
 20
-264.6230569512117
 30
0.0
1001
AVE_RENDER
1002
{
1070
     0
1000
BG Opt
1070
     0
1070
     1
1010
0.0
1020
0.0
1030
0.0
1010
1.0
1020
0.0
1030
0.0
1010
0.0
1020
1.0
1030
0.0
1010
0.0
1020
0.0
1030
1.0
1040
0.5
1040
0.33
1040
0.0
1000

1070
     1
1000

1070
     1
1070
     1
1040
1.0
1040
1.0
1040
0.0
1040
0.0
1070
     0
1002
}
  0
INSERT
  5
13A21
330
2E3A
100
AcDbEntity
  8
ASHADE
 62
     1
100
AcDbBlockReference
  2
AVE_GLOBAL
 10
1127.527252663858
 20
-264.6230569512117
 30
0.0
1001
AVE_MATERIAL
1002
{
1000
*GLOBAL*
1000
1
1000
Global finish.
1002
{
1002
}
1002
{
1070
    63
1002
{
1002
{
1010
-1.0
1020
-1.0
1030
-1.0
1002
}
1040
0.1000000014901161
1000

1040
0.0
1002
{
1002
}
1040
0.0
1002
{
1002
}
1040
0.0
1002
}
1002
{
1002
{
1010
-1.0
1020
-1.0
1030
-1.0
1002
}
1040
0.6999999880790711
1000

1040
0.0
1002
{
1002
}
1040
0.0
1002
{
1002
}
1040
0.0
1002
}
1002
{
1002
{
1010
-1.0
1020
-1.0
1030
-1.0
1002
}
1040
0.2000000029802322
1000

1040
0.0
1002
{
1002
}
1040
0.0
1002
{
1002
}
1040
0.0
1002
}
1002
{
1070
     0
1002
{
1070
     1
1002
{
1040
1.0
1040
1.0
1000

1040
0.0
1002
{
1002
}
1040
0.0
1002
{
1002
}
1040
0.0
1002
}
1002
}
1040
1.0
1040
0.0
1040
0.0
1002
}
1002
{
1040
1.0
1040
1.0
1000

1040
0.0
1002
{
1002
}
1040
0.0
1002
{
1002
}
1040
0.0
1002
}
1002
{
1040
0.5
1040
1.0
1000

1040
0.0
1002
{
1002
}
1040
0.0
1002
{
1002
}
1040
0.0
1002
}
1002
{
1070
     0
1040
0.0
1002
{
1002
}
1040
1.0
1002
{
1002
}
1040
0.0
1002
}
1002
{
1040
0.0
1002
{
1002
{
1010
0.0
1020
0.0
1030
0.0
1002
}
1040
1.0
1000

1040
0.0
1002
{
1002
}
1040
0.0
1002
{
1002
}
1040
0.0
1002
}
1002
}
1002
{
1002
{
1070
     1
1002
{
1040
0.0
1040
1.0
1000

1040
0.0
1002
{
1002
}
1040
0.0
1002
{
1002
}
1040
0.0
1002
}
1002
}
1040
0.0
1002
{
1002
}
1010
1.0
1020
0.0
1030
0.0
1010
0.0
1020
1.0
1030
0.0
1010
0.0
1020
0.0
1030
1.0
1070
     0
1002
}
1002
{
1002
{
1040
1.0
1040
1.0
1002
{
1070
     1
1002
{
1040
1.0
1040
1.0
1000

1040
0.0
1002
{
1002
}
1040
0.0
1002
{
1002
}
1040
0.0
1002
}
1002
}
1002
}
1070
     0
1040
0.0
1002
{
1002
}
1002
}
1002
{
1002
}
1002
}
1002
{
1071
        3
1070
     3
1070
     0
1002
{
1070
     2
1070
     0
1070
     0
1040
0.0
1002
}
1070
     0
1070
     2
1002
{
1002
}
1002
}
1002
{
1040
8030.0
1040
190.3000030517578
1040
0.3050000071525574
1040
228.0
1040
545.0
1040
14.0
1040
17.39999961853027
1040
0.4560000002384186
1002
}
1002
}
  0
TEXT
  5
13A22
330
2E3A
100
AcDbEntity
  8
0
 62
     7
 48
5.0
100
AcDbText
 10
-558.0360037858501
 20
116.4063927501858
 30
0.0
 40
3.809829827610412
  1
 
 41
0.75
100
AcDbText
  0
INSERT
  5
13A23
330
2E3A
100
AcDbEntity
  8
LAYER1
100
AcDbBlockReference
  2
AME_NIL
 10
-1712.031325415138
 20
468.5275892449308
 30
0.0
  0
INSERT
  5
13A24
330
2E3A
100
AcDbEntity
  8
LAYER1
100
AcDbBlockReference
  2
AME_SOL
 10
-1712.031325415138
 20
468.5275892449308
 30
0.0
1001
AME_SOL
1000
R2.1
1000
AME2
1000
sq m
1070
     3
1070
     0
1070
     3
1000
mesh
1040
45.0
1000
U
1040
1.0
1000
m
1000
gm
1000
MILD_STEEL
1070
    25
1000
CSG
1070
     1
1070
     3
1070
     3
1070
     3
1070
     0
1000
cu cm
1070
     1
1070
     0
1005
13A23
  0
TEXT
  5
13A25
330
2E3A
100
AcDbEntity
  8
TEKST
100
AcDbText
 10
-1700.509225145916
 20
489.1694864031718
 30
0.0
 40
2.5
  1

  7
ROMANS
100
AcDbText
  0
INSERT
  5
13A26
330
2E3A
100
AcDbEntity
  8
ASHADE
 62
     1
100
AcDbBlockReference
  2
AVE_RENDER
 10
-1712.031325415138
 20
468.5275892449308
 30
0.0
1001
AVE_RENDER
1002
{
1070
     6
1000
Pref
1070
    30
1070
    20
1070
     1
1070
     0
1000

1070
    10
1070
     1
1070
    30
1040
1.0
1070
     1
1040
0.3
1040
0.7
1040
0.0
1040
10.0
1010
-1.0
1020
-1.0
1030
-1.0
1040
0.3
1070
    49
1070
     0
1070
     0
1010
1.0
1020
1.0
1030
1.0
1040
45.0
1070
     1
1070
     0
1000
WCS
1040
0.0
1002
}
  0
INSERT
  5
13A27
330
2E3A
100
AcDbEntity
  8
ASHADE
 62
     3
100
AcDbBlockReference
  2
AVE_RENDER
 10
-1712.031325415138
 20
468.5275892449308
 30
0.0
1001
AVE_RENDER
1002
{
1070
     0
1000
Full Opt
1070
     0
1070
     1
1070
     1
1070
     1
1070
     0
1070
     0
1070
     0
1070
     1
1070
     1
1040
0.0001
1040
0.0001
1002
}
  0
INSERT
  5
13A28
330
2E3A
100
AcDbEntity
  8
ASHADE
 62
     4
100
AcDbBlockReference
  2
AVE_RENDER
 10
-1712.031325415138
 20
468.5275892449308
 30
0.0
1001
AVE_RENDER
1002
{
1070
     0
1000
Quick Opt
1070
     0
1070
     1
1070
     1
1070
     1
1070
     0
1070
     0
1070
     1
1002
}
  0
INSERT
  5
13A29
330
2E3A
100
AcDbEntity
  8
ASHADE
 62
     5
100
AcDbBlockReference
  2
AVE_RENDER
 10
-1712.031325415138
 20
468.5275892449308
 30
0.0
1001
AVE_RENDER
1002
{
1070
     1
1000
Scanl Opt
1070
     2
1070
     0
1070
     2
1040
2.0
1040
4.0
1070
     0
1070
     1
1070
     0
1040
0.03
1002
}
  0
INSERT
  5
13A2A
330
2E3A
100
AcDbEntity
  8
ASHADE
 62
     6
100
AcDbBlockReference
  2
AVE_RENDER
 10
-1712.031325415138
 20
468.5275892449308
 30
0.0
1001
AVE_RENDER
1002
{
1070
     2
1000
Raytr Opt
1070
     2
1070
     0
1070
     2
1040
2.0
1040
4.0
1070
     0
1070
     1
1070
     1
1040
0.03
1070
     3
1040
0.03
1002
}
  0
INSERT
  5
13A2B
330
2E3A
100
AcDbEntity
  8
ASHADE
 62
     7
100
AcDbBlockReference
  2
AVE_RENDER
 10
-1712.031325415138
 20
468.5275892449308
 30
0.0
1001
AVE_RENDER
1002
{
1070
     0
1000
RFile Opt
1070
     5
1070
   640
1070
   480
1070
 10000
1070
     3
1070
    32
1070
    24
1070
     0
1070
     0
1070
     0
1070
     1
1070
     0
1070
     0
1070
     0
1002
}
  0
INSERT
  5
13A2C
330
2E3A
100
AcDbEntity
  8
ASHADE
 62
     8
100
AcDbBlockReference
  2
AVE_RENDER
 10
-1712.031325415138
 20
468.5275892449308
 30
0.0
1001
AVE_RENDER
1002
{
1070
     0
1000
Fog Opt
1070
     0
1070
     0
1040
0.0
1040
1.0
1040
0.0
1040
1.0
1010
0.5
1020
0.5
1030
0.5
1002
}
  0
INSERT
  5
13A2D
330
2E3A
100
AcDbEntity
  8
ASHADE
 62
     9
100
AcDbBlockReference
  2
AVE_RENDER
 10
-1712.031325415138
 20
468.5275892449308
 30
0.0
1001
AVE_RENDER
1002
{
1070
     0
1000
BG Opt
1070
     0
1070
     1
1010
0.0
1020
0.0
1030
0.0
1010
1.0
1020
0.0
1030
0.0
1010
0.0
1020
1.0
1030
0.0
1010
0.0
1020
0.0
1030
1.0
1040
0.5
1040
0.33
1040
0.0
1000

1070
     1
1000

1070
     1
1070
     1
1040
1.0
1040
1.0
1040
0.0
1040
0.0
1070
     0
1002
}
  0
INSERT
  5
13A2E
330
2E3A
100
AcDbEntity
  8
ASHADE
 62
     1
100
AcDbBlockReference
  2
AVE_GLOBAL
 10
-1712.031325415138
 20
468.5275892449308
 30
0.0
1001
AVE_MATERIAL
1002
{
1000
*GLOBAL*
1000
1
1000
Global finish.
1002
{
1002
}
1002
{
1070
    63
1002
{
1002
{
1010
-1.0
1020
-1.0
1030
-1.0
1002
}
1040
0.1000000014901161
1000

1040
0.0
1002
{
1002
}
1040
0.0
1002
{
1002
}
1040
0.0
1002
}
1002
{
1002
{
1010
-1.0
1020
-1.0
1030
-1.0
1002
}
1040
0.6999999880790711
1000

1040
0.0
1002
{
1002
}
1040
0.0
1002
{
1002
}
1040
0.0
1002
}
1002
{
1002
{
1010
-1.0
1020
-1.0
1030
-1.0
1002
}
1040
0.2000000029802322
1000

1040
0.0
1002
{
1002
}
1040
0.0
1002
{
1002
}
1040
0.0
1002
}
1002
{
1070
     0
1002
{
1070
     1
1002
{
1040
1.0
1040
1.0
1000

1040
0.0
1002
{
1002
}
1040
0.0
1002
{
1002
}
1040
0.0
1002
}
1002
}
1040
1.0
1040
0.0
1040
0.0
1002
}
1002
{
1040
1.0
1040
1.0
1000

1040
0.0
1002
{
1002
}
1040
0.0
1002
{
1002
}
1040
0.0
1002
}
1002
{
1040
0.5
1040
1.0
1000

1040
0.0
1002
{
1002
}
1040
0.0
1002
{
1002
}
1040
0.0
1002
}
1002
{
1070
     0
1040
0.0
1002
{
1002
}
1040
1.0
1002
{
1002
}
1040
0.0
1002
}
1002
{
1040
0.0
1002
{
1002
{
1010
0.0
1020
0.0
1030
0.0
1002
}
1040
1.0
1000

1040
0.0
1002
{
1002
}
1040
0.0
1002
{
1002
}
1040
0.0
1002
}
1002
}
1002
{
1002
{
1070
     1
1002
{
1040
0.0
1040
1.0
1000

1040
0.0
1002
{
1002
}
1040
0.0
1002
{
1002
}
1040
0.0
1002
}
1002
}
1040
0.0
1002
{
1002
}
1010
1.0
1020
0.0
1030
0.0
1010
0.0
1020
1.0
1030
0.0
1010
0.0
1020
0.0
1030
1.0
1070
     0
1002
}
1002
{
1002
{
1040
1.0
1040
1.0
1002
{
1070
     1
1002
{
1040
1.0
1040
1.0
1000

1040
0.0
1002
{
1002
}
1040
0.0
1002
{
1002
}
1040
0.0
1002
}
1002
}
1002
}
1070
     0
1040
0.0
1002
{
1002
}
1002
}
1002
{
1002
}
1002
}
1002
{
1071
        3
1070
     3
1070
     0
1002
{
1070
     2
1070
     0
1070
     0
1040
0.0
1002
}
1070
     0
1070
     2
1002
{
1002
}
1002
}
1002
{
1040
8030.0
1040
190.3000030517578
1040
0.3050000071525574
1040
228.0
1040
545.0
1040
14.0
1040
17.39999961853027
1040
0.4560000002384186
1002
}
1002
}
  0
INSERT
  5
13A2F
330
2E3A
100
AcDbEntity
  8
LAYER1
100
AcDbBlockReference
  2
AME_NIL
 10
206.698808084644
 20
637.0480760935634
 30
0.0
  0
INSERT
  5
13A30
330
2E3A
100
AcDbEntity
  8
LAYER1
100
AcDbBlockReference
  2
AME_SOL
 10
206.698808084644
 20
637.0480760935634
 30
0.0
1001
AME_SOL
1000
R2.1
1000
AME2
1000
sq m
1070
     3
1070
     0
1070
     3
1000
mesh
1040
45.0
1000
U
1040
1.0
1000
m
1000
gm
1000
MILD_STEEL
1070
    25
1000
CSG
1070
     1
1070
     3
1070
     3
1070
     3
1070
     0
1000
cu cm
1070
     1
1070
     0
1005
13A2F
  0
TEXT
  5
13A31
330
2E3A
100
AcDbEntity
  8
TEKST
100
AcDbText
 10
218.220908353867
 20
657.6899732518043
 30
0.0
 40
2.5
  1

  7
ROMANS
100
AcDbText
  0
INSERT
  5
13A32
330
2E3A
100
AcDbEntity
  8
ASHADE
 62
     1
100
AcDbBlockReference
  2
AVE_RENDER
 10
206.698808084644
 20
637.0480760935634
 30
0.0
1001
AVE_RENDER
1002
{
1070
     6
1000
Pref
1070
    30
1070
    20
1070
     1
1070
     0
1000

1070
    10
1070
     1
1070
    30
1040
1.0
1070
     1
1040
0.3
1040
0.7
1040
0.0
1040
10.0
1010
-1.0
1020
-1.0
1030
-1.0
1040
0.3
1070
    49
1070
     0
1070
     0
1010
1.0
1020
1.0
1030
1.0
1040
45.0
1070
     1
1070
     0
1000
WCS
1040
0.0
1002
}
  0
INSERT
  5
13A33
330
2E3A
100
AcDbEntity
  8
ASHADE
 62
     3
100
AcDbBlockReference
  2
AVE_RENDER
 10
206.698808084644
 20
637.0480760935634
 30
0.0
1001
AVE_RENDER
1002
{
1070
     0
1000
Full Opt
1070
     0
1070
     1
1070
     1
1070
     1
1070
     0
1070
     0
1070
     0
1070
     1
1070
     1
1040
0.0001
1040
0.0001
1002
}
  0
INSERT
  5
13A34
330
2E3A
100
AcDbEntity
  8
ASHADE
 62
     4
100
AcDbBlockReference
  2
AVE_RENDER
 10
206.698808084644
 20
637.0480760935634
 30
0.0
1001
AVE_RENDER
1002
{
1070
     0
1000
Quick Opt
1070
     0
1070
     1
1070
     1
1070
     1
1070
     0
1070
     0
1070
     1
1002
}
  0
INSERT
  5
13A35
330
2E3A
100
AcDbEntity
  8
ASHADE
 62
     5
100
AcDbBlockReference
  2
AVE_RENDER
 10
206.698808084644
 20
637.0480760935634
 30
0.0
1001
AVE_RENDER
1002
{
1070
     1
1000
Scanl Opt
1070
     2
1070
     0
1070
     2
1040
2.0
1040
4.0
1070
     0
1070
     1
1070
     0
1040
0.03
1002
}
  0
INSERT
  5
13A36
330
2E3A
100
AcDbEntity
  8
ASHADE
 62
     6
100
AcDbBlockReference
  2
AVE_RENDER
 10
206.698808084644
 20
637.0480760935634
 30
0.0
1001
AVE_RENDER
1002
{
1070
     2
1000
Raytr Opt
1070
     2
1070
     0
1070
     2
1040
2.0
1040
4.0
1070
     0
1070
     1
1070
     1
1040
0.03
1070
     3
1040
0.03
1002
}
  0
INSERT
  5
13A37
330
2E3A
100
AcDbEntity
  8
ASHADE
 62
     7
100
AcDbBlockReference
  2
AVE_RENDER
 10
206.698808084644
 20
637.0480760935634
 30
0.0
1001
AVE_RENDER
1002
{
1070
     0
1000
RFile Opt
1070
     5
1070
   640
1070
   480
1070
 10000
1070
     3
1070
    32
1070
    24
1070
     0
1070
     0
1070
     0
1070
     1
1070
     0
1070
     0
1070
     0
1002
}
  0
INSERT
  5
13A38
330
2E3A
100
AcDbEntity
  8
ASHADE
 62
     8
100
AcDbBlockReference
  2
AVE_RENDER
 10
206.698808084644
 20
637.0480760935634
 30
0.0
1001
AVE_RENDER
1002
{
1070
     0
1000
Fog Opt
1070
     0
1070
     0
1040
0.0
1040
1.0
1040
0.0
1040
1.0
1010
0.5
1020
0.5
1030
0.5
1002
}
  0
INSERT
  5
13A39
330
2E3A
100
AcDbEntity
  8
ASHADE
 62
     9
100
AcDbBlockReference
  2
AVE_RENDER
 10
206.698808084644
 20
637.0480760935634
 30
0.0
1001
AVE_RENDER
1002
{
1070
     0
1000
BG Opt
1070
     0
1070
     1
1010
0.0
1020
0.0
1030
0.0
1010
1.0
1020
0.0
1030
0.0
1010
0.0
1020
1.0
1030
0.0
1010
0.0
1020
0.0
1030
1.0
1040
0.5
1040
0.33
1040
0.0
1000

1070
     1
1000

1070
     1
1070
     1
1040
1.0
1040
1.0
1040
0.0
1040
0.0
1070
     0
1002
}
  0
INSERT
  5
13A3A
330
2E3A
100
AcDbEntity
  8
ASHADE
 62
     1
100
AcDbBlockReference
  2
AVE_GLOBAL
 10
206.698808084644
 20
637.0480760935634
 30
0.0
1001
AVE_MATERIAL
1002
{
1000
*GLOBAL*
1000
1
1000
Global finish.
1002
{
1002
}
1002
{
1070
    63
1002
{
1002
{
1010
-1.0
1020
-1.0
1030
-1.0
1002
}
1040
0.1000000014901161
1000

1040
0.0
1002
{
1002
}
1040
0.0
1002
{
1002
}
1040
0.0
1002
}
1002
{
1002
{
1010
-1.0
1020
-1.0
1030
-1.0
1002
}
1040
0.6999999880790711
1000

1040
0.0
1002
{
1002
}
1040
0.0
1002
{
1002
}
1040
0.0
1002
}
1002
{
1002
{
1010
-1.0
1020
-1.0
1030
-1.0
1002
}
1040
0.2000000029802322
1000

1040
0.0
1002
{
1002
}
1040
0.0
1002
{
1002
}
1040
0.0
1002
}
1002
{
1070
     0
1002
{
1070
     1
1002
{
1040
1.0
1040
1.0
1000

1040
0.0
1002
{
1002
}
1040
0.0
1002
{
1002
}
1040
0.0
1002
}
1002
}
1040
1.0
1040
0.0
1040
0.0
1002
}
1002
{
1040
1.0
1040
1.0
1000

1040
0.0
1002
{
1002
}
1040
0.0
1002
{
1002
}
1040
0.0
1002
}
1002
{
1040
0.5
1040
1.0
1000

1040
0.0
1002
{
1002
}
1040
0.0
1002
{
1002
}
1040
0.0
1002
}
1002
{
1070
     0
1040
0.0
1002
{
1002
}
1040
1.0
1002
{
1002
}
1040
0.0
1002
}
1002
{
1040
0.0
1002
{
1002
{
1010
0.0
1020
0.0
1030
0.0
1002
}
1040
1.0
1000

1040
0.0
1002
{
1002
}
1040
0.0
1002
{
1002
}
1040
0.0
1002
}
1002
}
1002
{
1002
{
1070
     1
1002
{
1040
0.0
1040
1.0
1000

1040
0.0
1002
{
1002
}
1040
0.0
1002
{
1002
}
1040
0.0
1002
}
1002
}
1040
0.0
1002
{
1002
}
1010
1.0
1020
0.0
1030
0.0
1010
0.0
1020
1.0
1030
0.0
1010
0.0
1020
0.0
1030
1.0
1070
     0
1002
}
1002
{
1002
{
1040
1.0
1040
1.0
1002
{
1070
     1
1002
{
1040
1.0
1040
1.0
1000

1040
0.0
1002
{
1002
}
1040
0.0
1002
{
1002
}
1040
0.0
1002
}
1002
}
1002
}
1070
     0
1040
0.0
1002
{
1002
}
1002
}
1002
{
1002
}
1002
}
1002
{
1071
        3
1070
     3
1070
     0
1002
{
1070
     2
1070
     0
1070
     0
1040
0.0
1002
}
1070
     0
1070
     2
1002
{
1002
}
1002
}
1002
{
1040
8030.0
1040
190.3000030517578
1040
0.3050000071525574
1040
228.0
1040
545.0
1040
14.0
1040
17.39999961853027
1040
0.4560000002384186
1002
}
1002
}
  0
TEXT
  5
13A3B
330
2E3A
100
AcDbEntity
  8
0
 62
     7
 48
5.0
100
AcDbText
 10
-1478.864448365064
 20
1018.077525794961
 30
0.0
 40
3.809829827610412
  1
 
 41
0.75
100
AcDbText
  0
MTEXT
  5
1592D
330
2E3A
100
AcDbEntity
  8
OMRISS
  6
Continuous
100
AcDbMText
 10
-2395.176181831748
 20
2489.102319280084
 30
0.0
 40
4.0
 41
0.0
 71
     1
 72
     1
  1

  7
ARIAL
 73
     1
 44
1.0
  0
LWPOLYLINE
  5
16249
330
2E3A
100
AcDbEntity
  8
Control object
  6
Continuous
 62
     7
100
AcDbPolyline
 90
       11
 70
     1
 10
153614.228547936
 20
122492.3253168072
 40
0.84
 41
0.84
 10
154051.8896576324
 20
122492.3253168072
 40
0.84
 41
0.84
 10
154051.8896576324
 20
122762.091031533
 40
0.84
 41
0.84
 42
-0.8846768105770848
 10
154051.8896576324
 20
122159.5596020814
 40
0.84
 41
0.84
 10
154051.8896576324
 20
122429.3253168072
 40
0.84
 41
0.84
 10
153614.228547936
 20
122429.3253168072
 40
0.84
 41
0.84
 10
153839.9028313845
 20
122011.1922424191
 40
0.0
 41
0.0
 10
153354.5519797409
 20
122011.1922424191
 40
0.84
 41
0.84
 10
153597.2274055628
 20
122460.8253168072
 40
0.84
 41
0.84
 10
153354.5519797409
 20
122910.4583911953
 40
0.0
 41
0.0
 10
153839.9028313845
 20
122910.4583911953
 40
0.84
 41
0.84
  0
LWPOLYLINE
  5
1624A
330
2E3A
100
AcDbEntity
  8
Control object
  6
Continuous
 62
     7
100
AcDbPolyline
 90
        2
 70
     0
 43
0.3
 10
151853.6768334473
 20
122835.156372422
 10
151490.7840293572
 20
122053.9096490804
  0
LWPOLYLINE
  5
1624B
330
2E3A
100
AcDbEntity
  8
Control object
  6
Continuous
 62
     7
100
AcDbPolyline
 90
        2
 70
     0
 43
0.3
 10
151616.4003708388
 20
122835.156372422
 10
151253.5075667488
 20
122053.9096490804
  0
LWPOLYLINE
  5
1624E
330
2E3A
100
AcDbEntity
  8
Control object
  6
Continuous
 62
     7
100
AcDbPolyline
 90
       11
 70
     1
 10
142503.1690152265
 20
125836.4526060364
 40
0.84
 41
0.84
 10
142940.830124923
 20
125836.4526060364
 40
0.84
 41
0.84
 10
142940.830124923
 20
126106.2183207622
 40
0.84
 41
0.84
 42
-0.8846768105770848
 10
142940.830124923
 20
125503.6868913106
 40
0.84
 41
0.84
 10
142940.830124923
 20
125773.4526060364
 40
0.84
 41
0.84
 10
142503.1690152265
 20
125773.4526060364
 40
0.84
 41
0.84
 10
142728.8432986751
 20
125355.3195316483
 40
0.0
 41
0.0
 10
142243.4924470315
 20
125355.3195316483
 40
0.84
 41
0.84
 10
142486.1678728533
 20
125804.9526060364
 40
0.84
 41
0.84
 10
142243.4924470315
 20
126254.5856804245
 40
0.0
 41
0.0
 10
142728.8432986751
 20
126254.5856804245
 40
0.84
 41
0.84
  0
TEXT
  5
1624F
330
2E3A
100
AcDbEntity
  8
Control object
  6
Continuous
 62
     7
100
AcDbText
 10
143086.2385029999
 20
125812.3510100378
 30
0.0
 40
280.0
  1
_Col 55-1
  7
ARIAL
100
AcDbText
  0
TEXT
  5
16251
330
2E3A
100
AcDbEntity
  8
Control object
  6
Continuous
 62
     7
100
AcDbText
 10
154190.4570506654
 20
122521.2803295826
 30
0.0
 40
280.0
  1
_Col 55-0
  7
ARIAL
100
AcDbText
  0
LWPOLYLINE
  5
16252
330
2E3A
100
AcDbEntity
  8
Control object
  6
Continuous
 62
     7
100
AcDbPolyline
 90
        3
 70
     1
 43
0.3
 10
142486.1678728533
 20
126254.5856804245
 10
142486.1678728533
 20
130032.7691876453
 10
142486.1678728533
 20
126254.5856804245
  0
LWPOLYLINE
  5
16253
330
2E3A
100
AcDbEntity
  8
Control object
  6
Continuous
 62
     7
100
AcDbPolyline
 90
        9
 70
     1
 43
0.0
 10
145294.356590381
 20
121733.8488986228
 10
145294.356590381
 20
122288.5355862155
 10
145688.2229611102
 20
122075.9584990791
 10
145688.2229611102
 20
122491.1922424192
 10
145928.2229611102
 20
122491.1922424192
 10
145928.2229611102
 20
122061.5066060555
 10
147042.0893318396
 20
122528.5355862155
 10
147042.0893318396
 20
121493.8488986228
 10
145808.2229611102
 20
122011.1922424191
  0
LWPOLYLINE
  5
16254
330
2E3A
100
AcDbEntity
  8
Control object
  6
Continuous
 62
     7
100
AcDbPolyline
 90
        5
 70
     1
 43
0.3
 10
142486.1678728533
 20
125355.3195316483
 10
142486.1678728533
 20
122011.1922424191
 10
145294.356590381
 20
122011.1922424191
 10
142486.1678728533
 20
122011.1922424191
 10
142486.1678728533
 20
125355.3195316483
  0
MTEXT
  5
16255
330
2E3A
100
AcDbEntity
  8
Control object
  6
Continuous
 62
     7
100
AcDbMText
 10
149778.8160364712
 20
120903.6568039229
 30
0.0
 40
500.0
 41
8402.776859638107
 71
     1
 72
     5
  1
Bow Thruster Room
  7
ARIAL
 73
     1
 44
1.0
  0
LWPOLYLINE
  5
1625E
330
2E3A
100
AcDbEntity
  8
Control object
  6
Continuous
 62
     7
100
AcDbPolyline
 90
        2
 70
     0
 43
0.3
 10
141277.5354844244
 20
130398.38404165
 10
141797.9762899598
 20
129528.9142910849
  0
LWPOLYLINE
  5
16613
330
2E3A
100
AcDbEntity
  8
Omriss tanker
  6
Continuous
100
AcDbPolyline
 90
        2
 70
     1
 43
0.3
 39
0.1
 10
153597.2274055628
 20
122460.8253168072
 10
151679.7982847488
 20
122460.8253168072
  0
LWPOLYLINE
  5
16616
330
2E3A
100
AcDbEntity
  8
Omriss tanker
  6
Continuous
100
AcDbPolyline
 90
        7
 70
     1
 43
0.3
 39
0.1
 10
151442.5218221404
 20
122460.8253168072
 10
150718.7768765261
 20
122460.8253168072
 10
150718.7768765261
 20
130032.7691876453
 10
141494.9218687476
 20
130035.2094340031
 10
150718.7768765261
 20
130032.7691876453
 10
150718.7768765261
 20
122460.8253168072
 10
151442.5218221404
 20
122460.8253168072
  0
ENDSEC
  0
SECTION
  2
OBJECTS
  0
DICTIONARY
  5
2E2E
330
0
100
AcDbDictionary
281
     1
  3
ACAD_COLOR
350
16224
  3
ACAD_GROUP
350
2E2F
  3
ACAD_LAYOUT
350
158C0
  3
ACAD_MATERIAL
350
1620F
  3
ACAD_MLINESTYLE
350
2E30
  3
ACAD_PLOTSETTINGS
350
158C1
  3
ACAD_PLOTSTYLENAME
350
158BE
  3
ACAD_TABLESTYLE
350
16225
  3
ACAD_VISUALSTYLE
350
16213
  3
ACDBVARIABLEDICTIONARY
350
15033
  3
ASE_INDEX_DICTIONARY
350
15AF5
  0
DICTIONARY
  5
15B01
330
2E24
100
AcDbDictionary
280
     1
281
     1
  3
ACAD_LAYERFILTERS
360
165F6
  3
ACAD_LAYERSTATES
360
15BDD
  3
ACLYDICTIONARY
360
165F5
  0
DICTIONARY
  5
16224
102
{ACAD_REACTORS
330
2E2E
102
}
330
2E2E
100
AcDbDictionary
281
     1
  0
DICTIONARY
  5
2E2F
102
{ACAD_REACTORS
330
2E2E
102
}
330
2E2E
100
AcDbDictionary
281
     1
  0
DICTIONARY
  5
158C0
102
{ACAD_REACTORS
330
2E2E
102
}
330
2E2E
100
AcDbDictionary
281
     1
  3
Layout1
350
158C3
  3
Model
350
158C2
  0
DICTIONARY
  5
1620F
102
{ACAD_REACTORS
330
2E2E
102
}
330
2E2E
100
AcDbDictionary
281
     1
  3
ByBlock
350
16211
  3
ByLayer
350
16210
  3
Global
350
16212
  0
DICTIONARY
  5
2E30
102
{ACAD_REACTORS
330
2E2E
102
}
330
2E2E
100
AcDbDictionary
281
     1
  3
STANDARD
350
2E3D
  0
DICTIONARY
  5
158C1
102
{ACAD_REACTORS
330
2E2E
102
}
330
2E2E
100
AcDbDictionary
281
     1
  0
ACDBDICTIONARYWDFLT
  5
158BE
102
{ACAD_REACTORS
330
2E2E
102
}
330
2E2E
100
AcDbDictionary
281
     1
  3
Normal
350
158BF
100
AcDbDictionaryWithDefault
340
158BF
  0
DICTIONARY
  5
16225
102
{ACAD_REACTORS
330
2E2E
102
}
330
2E2E
100
AcDbDictionary
281
     1
  3
Standard
350
16226
  0
DICTIONARY
  5
16213
102
{ACAD_REACTORS
330
2E2E
102
}
330
2E2E
100
AcDbDictionary
281
     1
  3
2dWireframe
350
16219
  3
3D Hidden
350
1621B
  3
3dWireframe
350
1621A
  3
Basic
350
16218
  3
Brighten
350
1621F
  3
ColorChange
350
16223
  3
Conceptual
350
1621C
  3
Dim
350
1621E
  3
Facepattern
350
16222
  3
Flat
350
16214
  3
FlatWithEdges
350
16215
  3
Gouraud
350
16216
  3
GouraudWithEdges
350
16217
  3
Linepattern
350
16221
  3
Realistic
350
1621D
  3
Thicken
350
16220
  0
DICTIONARY
  5
15033
102
{ACAD_REACTORS
330
2E2E
102
}
330
2E2E
100
AcDbDictionary
281
     1
  3
CTABLESTYLE
350
1622B
  3
DIMASSOC
350
165B0
  3
INDEXCTL
350
165AF
  3
LOFTANG1
350
16617
  3
LOFTANG2
350
16618
  3
SORTENTS
350
15034
  0
DICTIONARY
  5
15AF5
102
{ACAD_REACTORS
330
2E2E
102
}
330
2E2E
100
AcDbDictionary
281
     1
  3
ASEBlockHierarchyIndexRecord
350
15AF7
1001
DCO15
1040
1538987196.419
  0
DICTIONARY
  5
165F6
102
{ACAD_REACTORS
330
15B01
102
}
330
15B01
100
AcDbDictionary
281
     1
  0
DICTIONARY
  5
15BDD
102
{ACAD_REACTORS
330
15B01
102
}
330
15B01
100
AcDbDictionary
281
     1
  0
DICTIONARY
  5
165F5
102
{ACAD_REACTORS
330
15B01
102
}
330
15B01
100
AcDbDictionary
281
     1
1001
ACAD
1000
<All
  0
LAYOUT
  5
158C3
102
{ACAD_REACTORS
330
158C0
102
}
330
158C0
100
AcDbPlotSettings
  1

  2
\\TSN_SERVER\HP LaserJet 6P
  4

  6

 40
0.0
 41
0.0
 42
0.0
 43
0.0
 44
0.0
 45
0.0
 46
0.0
 47
0.0
 48
0.0
 49
0.0
140
0.0
141
0.0
142
1.0
143
1.0
 70
   688
 72
     0
 73
     0
 74
     5
  7

 75
    16
147
1.0
 76
     0
 77
     2
 78
   300
148
0.0
149
0.0
100
AcDbLayout
  1
Layout1
 70
     0
 71
     1
 10
0.0
 20
0.0
 11
12.0
 21
9.0
 12
0.0
 22
0.0
 32
0.0
 14
1.000000000000000E+20
 24
1.000000000000000E+20
 34
1.000000000000000E+20
 15
-1.000000000000000E+20
 25
-1.000000000000000E+20
 35
-1.000000000000000E+20
146
0.0
 13
0.0
 23
0.0
 33
0.0
 16
1.0
 26
0.0
 36
0.0
 17
0.0
 27
1.0
 37
0.0
 76
     0
330
2E37
  0
LAYOUT
  5
158C2
102
{ACAD_REACTORS
330
158C0
102
}
330
158C0
100
AcDbPlotSettings
  1

  2
\\s01-tsn\Brother MFC9870
  4
A4
  6

 40
7.143749713897705
 41
7.186084270477294
 42
7.14373779296875
 43
7.14373779296875
 44
209.9733276367186
 45
296.9683227539062
 46
0.0
 47
3.29
 48
-2808.366351141403
 49
1491.921152690942
140
-1765.566351141404
141
2231.121152690942
142
1.0
143
3.777483335071587
 70
 11956
 72
     1
 73
     1
 74
     4
  7

 75
     0
147
0.2647265153271811
 76
     0
 77
     2
 78
   300
148
2808.366351141403
149
-1491.921152690942
100
AcDbLayout
  1
Model
 70
     1
 71
     0
 10
0.0
 20
0.0
 11
12.0
 21
9.0
 12
0.0
 22
0.0
 32
0.0
 14
0.0
 24
0.0
 34
0.0
 15
0.0
 25
0.0
 35
0.0
146
0.0
 13
0.0
 23
0.0
 33
0.0
 16
1.0
 26
0.0
 36
0.0
 17
0.0
 27
1.0
 37
0.0
 76
     0
330
2E3A
331
16209
  0
MATERIAL
  5
16211
102
{ACAD_XDICTIONARY
360
165BA
102
}
102
{ACAD_REACTORS
330
1620F
102
}
330
1620F
100
AcDbMaterial
  1
ByBlock
  0
MATERIAL
  5
16210
102
{ACAD_XDICTIONARY
360
165B8
102
}
102
{ACAD_REACTORS
330
1620F
102
}
330
1620F
100
AcDbMaterial
  1
ByLayer
  0
MATERIAL
  5
16212
102
{ACAD_XDICTIONARY
360
165BC
102
}
102
{ACAD_REACTORS
330
1620F
102
}
330
1620F
100
AcDbMaterial
  1
Global
  0
MLINESTYLE
  5
2E3D
102
{ACAD_REACTORS
330
2E30
102
}
330
2E30
100
AcDbMlineStyle
  2
STANDARD
 70
     0
  3

 62
     0
 51
90.0
 52
90.0
 71
     2
 49
0.5
 62
   256
  6
BYLAYER
 49
-0.5
 62
   256
  6
BYLAYER
  0
ACDBPLACEHOLDER
  5
158BF
102
{ACAD_REACTORS
330
158BE
102
}
330
158BE
  0
TABLESTYLE
  5
16226
102
{ACAD_XDICTIONARY
360
16619
102
}
102
{ACAD_REACTORS
330
16225
102
}
330
16225
100
AcDbTableStyle
  3
Standard
 70
     0
 71
     0
 40
0.06
 41
0.06
280
     0
281
     0
  7
STANDARD
140
0.18
170
     2
 62
     0
 63
     7
283
     0
274
    -2
284
     1
 64
     0
275
    -2
285
     1
 65
     0
276
    -2
286
     1
 66
     0
277
    -2
287
     1
 67
     0
278
    -2
288
     1
 68
     0
279
    -2
289
     1
 69
     0
  7
STANDARD
140
0.25
170
     5
 62
     0
 63
     7
283
     0
274
    -2
284
     1
 64
     0
275
    -2
285
     1
 65
     0
276
    -2
286
     1
 66
     0
277
    -2
287
     1
 67
     0
278
    -2
288
     1
 68
     0
279
    -2
289
     1
 69
     0
  7
STANDARD
140
0.18
170
     5
 62
     0
 63
     7
283
     0
274
    -2
284
     1
 64
     0
275
    -2
285
     1
 65
     0
276
    -2
286
     1
 66
     0
277
    -2
287
     1
 67
     0
278
    -2
288
     1
 68
     0
279
    -2
289
     1
 69
     0
  0
VISUALSTYLE
  5
16219
102
{ACAD_REACTORS
330
16213
102
}
330
16213
100
AcDbVisualStyle
  2
2dWireframe
 70
     4
 71
     0
 72
     2
 73
     0
 90
        0
 40
-0.6
 41
-30.0
 62
     5
 63
     7
 74
     1
 91
        4
 64
     7
 65
   257
 75
     1
175
     1
 42
1.0
 92
        0
 66
   257
 43
1.0
 76
     1
 77
     6
 78
     2
 67
     7
 79
     5
170
     0
171
     0
290
     0
174
     0
 93
        1
 44
0.0
173
     0
291
     0
 45
0.0
1001
ACAD
1000
AcDbSavedByObjectVersion
1070
     0
1000
AcDbSavedByObjectVersion
1070
     0
1000
AcDbSavedByObjectVersion
1070
     0
1000
AcDbSavedByObjectVersion
1070
     0
1000
AcDbSavedByObjectVersion
1070
     0
  0
VISUALSTYLE
  5
1621B
102
{ACAD_REACTORS
330
16213
102
}
330
16213
100
AcDbVisualStyle
  2
3D Hidden
 70
     6
 71
     1
 72
     2
 73
     2
 90
        0
 40
-0.6
 41
-30.0
 62
     5
 63
     7
 74
     2
 91
        2
 64
     7
 65
   257
 75
     2
175
     1
 42
40.0
 92
        0
 66
   257
 43
1.0
 76
     1
 77
     6
 78
     2
 67
     7
 79
     3
170
     0
171
     0
290
     0
174
     0
 93
        1
 44
0.0
173
     0
291
     0
 45
0.0
1001
ACAD
1000
AcDbSavedByObjectVersion
1070
     0
1000
AcDbSavedByObjectVersion
1070
     0
1000
AcDbSavedByObjectVersion
1070
     0
1000
AcDbSavedByObjectVersion
1070
     0
1000
AcDbSavedByObjectVersion
1070
     0
  0
VISUALSTYLE
  5
1621A
102
{ACAD_REACTORS
330
16213
102
}
330
16213
100
AcDbVisualStyle
  2
3dWireframe
 70
     5
 71
     0
 72
     2
 73
     0
 90
        0
 40
-0.6
 41
-30.0
 62
     5
 63
     7
 74
     1
 91
        4
 64
     7
 65
   257
 75
     1
175
     1
 42
1.0
 92
        0
 66
   257
 43
1.0
 76
     1
 77
     6
 78
     2
 67
     7
 79
     5
170
     0
171
     0
290
     0
174
     0
 93
        1
 44
0.0
173
     0
291
     0
 45
0.0
1001
ACAD
1000
AcDbSavedByObjectVersion
1070
     0
1000
AcDbSavedByObjectVersion
1070
     0
1000
AcDbSavedByObjectVersion
1070
     0
1000
AcDbSavedByObjectVersion
1070
     0
1000
AcDbSavedByObjectVersion
1070
     0
  0
VISUALSTYLE
  5
16218
102
{ACAD_REACTORS
330
16213
102
}
330
16213
100
AcDbVisualStyle
  2
Basic
 70
     7
 71
     1
 72
     0
 73
     1
 90
        0
 40
-0.6
 41
-30.0
 62
     5
 63
     7
 74
     0
 91
        4
 64
     7
 65
   257
 75
     1
175
     1
 42
1.0
 92
        8
 66
     7
 43
1.0
 76
     1
 77
     6
 78
     2
 67
     7
 79
     5
170
     0
171
     0
290
     0
174
     0
 93
        1
 44
0.0
173
     0
291
     1
 45
0.0
1001
ACAD
1000
AcDbSavedByObjectVersion
1070
     0
1000
AcDbSavedByObjectVersion
1070
     0
1000
AcDbSavedByObjectVersion
1070
     0
1000
AcDbSavedByObjectVersion
1070
     0
1000
AcDbSavedByObjectVersion
1070
     0
  0
VISUALSTYLE
  5
1621F
102
{ACAD_REACTORS
330
16213
102
}
330
16213
100
AcDbVisualStyle
  2
Brighten
 70
    12
 71
     2
 72
     2
 73
     0
 90
        0
 40
-0.6
 41
-30.0
 62
     5
 63
     7
 74
     1
 91
        4
 64
     7
 65
   257
 75
     1
175
     1
 42
1.0
 92
        8
 66
     7
 43
1.0
 76
     1
 77
     6
 78
     2
 67
     7
 79
     5
170
     0
171
     0
290
     0
174
     0
 93
        1
 44
50.0
173
     0
291
     1
 45
0.0
1001
ACAD
1000
AcDbSavedByObjectVersion
1070
     0
1000
AcDbSavedByObjectVersion
1070
     0
1000
AcDbSavedByObjectVersion
1070
     0
1000
AcDbSavedByObjectVersion
1070
     0
1000
AcDbSavedByObjectVersion
1070
     0
  0
VISUALSTYLE
  5
16223
102
{ACAD_REACTORS
330
16213
102
}
330
16213
100
AcDbVisualStyle
  2
ColorChange
 70
    16
 71
     2
 72
     2
 73
     3
 90
        0
 40
-0.6
 41
-30.0
 62
     5
 63
     8
 74
     1
 91
        4
 64
     7
 65
   257
 75
     1
175
     1
 42
1.0
 92
        8
 66
     8
 43
1.0
 76
     1
 77
     6
 78
     2
 67
     7
 79
     5
170
     0
171
     0
290
     0
174
     0
 93
        1
 44
0.0
173
     0
291
     1
 45
0.0
1001
ACAD
1000
AcDbSavedByObjectVersion
1070
     0
1000
AcDbSavedByObjectVersion
1070
     0
1000
AcDbSavedByObjectVersion
1070
     0
1000
AcDbSavedByObjectVersion
1070
     0
1000
AcDbSavedByObjectVersion
1070
     0
  0
VISUALSTYLE
  5
1621C
102
{ACAD_REACTORS
330
16213
102
}
330
16213
100
AcDbVisualStyle
  2
Conceptual
 70
     9
 71
     3
 72
     2
 73
     0
 90
        0
 40
-0.6
 41
-30.0
 62
     5
 63
     7
 74
     2
 91
        2
 64
     7
 65
   257
 75
     1
175
     1
 42
40.0
 92
        8
 66
     7
 43
1.0
 76
     1
 77
     6
 78
     2
 67
     7
 79
     3
170
     0
171
     0
290
     0
174
     0
 93
        1
 44
0.0
173
     0
291
     0
 45
0.0
1001
ACAD
1000
AcDbSavedByObjectVersion
1070
     0
1000
AcDbSavedByObjectVersion
1070
     0
1000
AcDbSavedByObjectVersion
1070
     0
1000
AcDbSavedByObjectVersion
1070
     0
1000
AcDbSavedByObjectVersion
1070
     0
  0
VISUALSTYLE
  5
1621E
102
{ACAD_REACTORS
330
16213
102
}
330
16213
100
AcDbVisualStyle
  2
Dim
 70
    11
 71
     2
 72
     2
 73
     0
 90
        0
 40
-0.6
 41
-30.0
 62
     5
 63
     7
 74
     1
 91
        4
 64
     7
 65
   257
 75
     1
175
     1
 42
1.0
 92
        8
 66
     7
 43
1.0
 76
     1
 77
     6
 78
     2
 67
     7
 79
     5
170
     0
171
     0
290
     0
174
     0
 93
        1
 44
-50.0
173
     0
291
     1
 45
0.0
1001
ACAD
1000
AcDbSavedByObjectVersion
1070
     0
1000
AcDbSavedByObjectVersion
1070
     0
1000
AcDbSavedByObjectVersion
1070
     0
1000
AcDbSavedByObjectVersion
1070
     0
1000
AcDbSavedByObjectVersion
1070
     0
  0
VISUALSTYLE
  5
16222
102
{ACAD_REACTORS
330
16213
102
}
330
16213
100
AcDbVisualStyle
  2
Facepattern
 70
    15
 71
     2
 72
     2
 73
     0
 90
        0
 40
-0.6
 41
-30.0
 62
     5
 63
     7
 74
     1
 91
        4
 64
     7
 65
   257
 75
     1
175
     1
 42
1.0
 92
        8
 66
     7
 43
1.0
 76
     1
 77
     6
 78
     2
 67
     7
 79
     5
170
     0
171
     0
290
     0
174
     0
 93
        1
 44
0.0
173
     0
291
     1
 45
0.0
1001
ACAD
1000
AcDbSavedByObjectVersion
1070
     0
1000
AcDbSavedByObjectVersion
1070
     0
1000
AcDbSavedByObjectVersion
1070
     0
1000
AcDbSavedByObjectVersion
1070
     0
1000
AcDbSavedByObjectVersion
1070
     0
  0
VISUALSTYLE
  5
16214
102
{ACAD_REACTORS
330
16213
102
}
330
16213
100
AcDbVisualStyle
  2
Flat
 70
     0
 71
     2
 72
     1
 73
     1
 90
        2
 40
-0.6
 41
30.0
 62
     5
 63
     7
 74
     0
 91
        4
 64
     7
 65
   257
 75
     1
175
     1
 42
1.0
 92
        8
 66
     7
 43
1.0
 76
     1
 77
     6
 78
     2
 67
     7
 79
     5
170
     0
171
     0
290
     0
174
     0
 93
       13
 44
0.0
173
     0
291
     1
 45
0.0
1001
ACAD
1000
AcDbSavedByObjectVersion
1070
     0
1000
AcDbSavedByObjectVersion
1070
     0
1000
AcDbSavedByObjectVersion
1070
     0
1000
AcDbSavedByObjectVersion
1070
     0
1000
AcDbSavedByObjectVersion
1070
     0
  0
VISUALSTYLE
  5
16215
102
{ACAD_REACTORS
330
16213
102
}
330
16213
100
AcDbVisualStyle
  2
FlatWithEdges
 70
     1
 71
     2
 72
     1
 73
     1
 90
        2
 40
-0.6
 41
30.0
 62
     5
 63
     7
 74
     1
 91
        4
 64
     7
 65
   257
 75
     1
175
     1
 42
1.0
 92
        0
 66
   257
 43
1.0
 76
     1
 77
     6
 78
     2
 67
     7
 79
     5
170
     0
171
     0
290
     0
174
     0
 93
       13
 44
0.0
173
     0
291
     1
 45
0.0
1001
ACAD
1000
AcDbSavedByObjectVersion
1070
     0
1000
AcDbSavedByObjectVersion
1070
     0
1000
AcDbSavedByObjectVersion
1070
     0
1000
AcDbSavedByObjectVersion
1070
     0
1000
AcDbSavedByObjectVersion
1070
     0
  0
VISUALSTYLE
  5
16216
102
{ACAD_REACTORS
330
16213
102
}
330
16213
100
AcDbVisualStyle
  2
Gouraud
 70
     2
 71
     2
 72
     2
 73
     1
 90
        2
 40
-0.6
 41
30.0
 62
     5
 63
     7
 74
     0
 91
        4
 64
     7
 65
   257
 75
     1
175
     1
 42
1.0
 92
        0
 66
     7
 43
1.0
 76
     1
 77
     6
 78
     2
 67
     7
 79
     5
170
     0
171
     0
290
     0
174
     0
 93
       13
 44
0.0
173
     0
291
     1
 45
0.0
1001
ACAD
1000
AcDbSavedByObjectVersion
1070
     0
1000
AcDbSavedByObjectVersion
1070
     0
1000
AcDbSavedByObjectVersion
1070
     0
1000
AcDbSavedByObjectVersion
1070
     0
1000
AcDbSavedByObjectVersion
1070
     0
  0
VISUALSTYLE
  5
16217
102
{ACAD_REACTORS
330
16213
102
}
330
16213
100
AcDbVisualStyle
  2
GouraudWithEdges
 70
     3
 71
     2
 72
     2
 73
     1
 90
        2
 40
-0.6
 41
30.0
 62
     5
 63
     7
 74
     1
 91
        4
 64
     7
 65
   257
 75
     1
175
     1
 42
1.0
 92
        0
 66
   257
 43
1.0
 76
     1
 77
     6
 78
     2
 67
     7
 79
     5
170
     0
171
     0
290
     0
174
     0
 93
       13
 44
0.0
173
     0
291
     1
 45
0.0
1001
ACAD
1000
AcDbSavedByObjectVersion
1070
     0
1000
AcDbSavedByObjectVersion
1070
     0
1000
AcDbSavedByObjectVersion
1070
     0
1000
AcDbSavedByObjectVersion
1070
     0
1000
AcDbSavedByObjectVersion
1070
     0
  0
VISUALSTYLE
  5
16221
102
{ACAD_REACTORS
330
16213
102
}
330
16213
100
AcDbVisualStyle
  2
Linepattern
 70
    14
 71
     2
 72
     2
 73
     0
 90
        0
 40
-0.6
 41
-30.0
 62
     5
 63
     7
 74
     1
 91
        4
 64
     7
 65
   257
 75
     7
175
     7
 42
1.0
 92
        8
 66
     7
 43
1.0
 76
     1
 77
     6
 78
     2
 67
     7
 79
     5
170
     0
171
     0
290
     0
174
     0
 93
        1
 44
0.0
173
     0
291
     1
 45
0.0
1001
ACAD
1000
AcDbSavedByObjectVersion
1070
     0
1000
AcDbSavedByObjectVersion
1070
     0
1000
AcDbSavedByObjectVersion
1070
     0
1000
AcDbSavedByObjectVersion
1070
     0
1000
AcDbSavedByObjectVersion
1070
     0
  0
VISUALSTYLE
  5
1621D
102
{ACAD_REACTORS
330
16213
102
}
330
16213
100
AcDbVisualStyle
  2
Realistic
 70
     8
 71
     2
 72
     2
 73
     0
 90
        0
 40
-0.6
 41
-30.0
 62
     5
 63
     7
 74
     1
 91
        0
 64
     7
 65
   257
 75
     1
175
     1
 42
1.0
 92
        8
 66
     8
 43
1.0
 76
     1
 77
     6
 78
     2
 67
     7
 79
     5
170
     0
171
     0
290
     0
174
     0
 93
       13
 44
0.0
173
     0
291
     0
 45
0.0
1001
ACAD
1000
AcDbSavedByObjectVersion
1070
     0
1000
AcDbSavedByObjectVersion
1070
     0
1000
AcDbSavedByObjectVersion
1070
     0
1000
AcDbSavedByObjectVersion
1070
     0
1000
AcDbSavedByObjectVersion
1070
     0
  0
VISUALSTYLE
  5
16220
102
{ACAD_REACTORS
330
16213
102
}
330
16213
100
AcDbVisualStyle
  2
Thicken
 70
    13
 71
     2
 72
     2
 73
     0
 90
        0
 40
-0.6
 41
-30.0
 62
     5
 63
     7
 74
     1
 91
        4
 64
     7
 65
   257
 75
     1
175
     1
 42
1.0
 92
       12
 66
     7
 43
1.0
 76
     1
 77
     6
 78
     2
 67
     7
 79
     5
170
     0
171
     0
290
     0
174
     0
 93
        1
 44
0.0
173
     0
291
     1
 45
0.0
1001
ACAD
1000
AcDbSavedByObjectVersion
1070
     0
1000
AcDbSavedByObjectVersion
1070
     0
1000
AcDbSavedByObjectVersion
1070
     0
1000
AcDbSavedByObjectVersion
1070
     0
1000
AcDbSavedByObjectVersion
1070
     0
  0
DICTIONARYVAR
  5
1622B
102
{ACAD_REACTORS
330
15033
102
}
330
15033
100
DictionaryVariables
280
     0
  1
STANDARD
  0
DICTIONARYVAR
  5
165B0
102
{ACAD_REACTORS
330
15033
102
}
330
15033
100
DictionaryVariables
280
     0
  1
1
  0
DICTIONARYVAR
  5
165AF
102
{ACAD_REACTORS
330
15033
102
}
330
15033
100
DictionaryVariables
280
     0
  1
0
  0
DICTIONARYVAR
  5
16617
102
{ACAD_REACTORS
330
15033
102
}
330
15033
100
DictionaryVariables
280
     0
  1
1.570796
  0
DICTIONARYVAR
  5
16618
102
{ACAD_REACTORS
330
15033
102
}
330
15033
100
DictionaryVariables
280
     0
  1
1.570796
  0
DICTIONARYVAR
  5
15034
102
{ACAD_REACTORS
330
15033
102
}
330
15033
100
DictionaryVariables
280
     0
  1
96
  0
XRECORD
  5
15AF7
102
{ACAD_REACTORS
330
15AF5
102
}
330
15AF5
100
AcDbXrecord
280
     1
330
17
330
29
330
2E80
330
2E81
330
2E82
330
2E83
330
2E84
330
2E85
330
2E86
330
2E87
330
2E8E
330
10E9D
330
10E9E
330
10EA0
330
10EA1
330
10EA2
330
10EA3
330
10EA4
330
10EA5
330
10EA6
330
10EA7
330
10EA8
330
10EAA
330
10EAB
330
10EAD
330
10EAE
330
10EAF
330
10EB0
330
10EB1
330
10EB2
330
10EB3
330
10EB4
330
10EB5
330
10EB6
330
10EB7
330
10EB9
330
10EBA
330
10EBB
330
10EBC
330
10EBD
330
10EBE
330
10EBF
330
10EC0
330
10EC1
330
13A16
330
13A17
330
13A19
330
13A1A
330
13A1B
330
13A1C
330
13A1D
330
13A1E
330
13A1F
330
13A20
330
13A21
330
13A23
330
13A24
330
13A26
330
13A27
330
13A28
330
13A29
330
13A2A
330
13A2B
330
13A2C
330
13A2D
330
13A2E
330
13A2F
330
13A30
330
13A32
330
13A33
330
13A34
330
13A35
330
13A36
330
13A37
330
13A38
330
13A39
330
13A3A
  0
DICTIONARY
  5
165BA
330
16211
100
AcDbDictionary
280
     1
281
     1
  3
ACAD_XREC_ROUNDTRIP
360
165BB
  0
DICTIONARY
  5
165B8
330
16210
100
AcDbDictionary
280
     1
281
     1
  3
ACAD_XREC_ROUNDTRIP
360
165B9
  0
DICTIONARY
  5
165BC
330
16212
100
AcDbDictionary
280
     1
281
     1
  3
ACAD_XREC_ROUNDTRIP
360
165BD
  0
DICTIONARY
  5
16619
330
16226
100
AcDbDictionary
280
     1
281
     1
  3
ACAD_XREC_ROUNDTRIP
360
1661A
  0
XRECORD
  5
165BB
102
{ACAD_REACTORS
330
165BA
102
}
330
165BA
100
AcDbXrecord
280
     1
102
MATERIAL
148
0.0
149
0.0
149
0.0
 93
        0
 94
       63
282
     0
 72
     1
 77
     1
171
     1
175
     1
179
     1
273
     0
  0
XRECORD
  5
165B9
102
{ACAD_REACTORS
330
165B8
102
}
330
165B8
100
AcDbXrecord
280
     1
102
MATERIAL
148
0.0
149
0.0
149
0.0
 93
        0
 94
       63
282
     0
 72
     1
 77
     1
171
     1
175
     1
179
     1
273
     0
  0
XRECORD
  5
165BD
102
{ACAD_REACTORS
330
165BC
102
}
330
165BC
100
AcDbXrecord
280
     1
102
MATERIAL
148
0.0
149
0.0
149
0.0
 93
        0
 94
       63
282
     0
 72
     1
 77
     1
171
     1
175
     1
179
     1
273
     0
  0
XRECORD
  5
1661A
102
{ACAD_REACTORS
330
16619
102
}
330
16619
100
AcDbXrecord
280
     1
102
ACAD_ROUNDTRIP_PRE2007_TABLESTYLE
 90
      512
 91
        0
  1

 92
      512
 93
        0
  2

 94
      512
 95
        0
  3

  0
ENDSEC
  0
EOF
