  0
SECTION
  2
HEADER
  9
$ACADVER
  1
AC1015
  9
$ACADMAINTVER
 70
    10
  9
$DWGCODEPAGE
  3
ANSI_1252
  9
$INSBASE
 10
0.0
 20
0.0
 30
0.0
  9
$EXTMIN
 10
121554.2395585559
 20
120246.4358394652
 30
0.0
  9
$EXTMAX
 10
128473.4950131258
 20
124734.824714397
 30
0.1
  9
$LIMMIN
 10
0.0
 20
0.0
  9
$LIMMAX
 10
12.0
 20
9.0
  9
$ORTHOMODE
 70
     0
  9
$REGENMODE
 70
     1
  9
$FILLMODE
 70
     1
  9
$QTEXTMODE
 70
     0
  9
$MIRRTEXT
 70
     1
  9
$LTSCALE
 40
1.0
  9
$ATTMODE
 70
     1
  9
$TEXTSIZE
 40
12.0
  9
$TRACEWID
 40
0.05
  9
$TEXTSTYLE
  7
ARIAL
  9
$CLAYER
  8
Suction C
  9
$CELTYPE
  6
CONTINUOUS
  9
$CECOLOR
 62
   256
  9
$CELTSCALE
 40
1.0
  9
$DISPSILH
 70
     0
  9
$DIMSCALE
 40
1.0
  9
$DIMASZ
 40
12.0
  9
$DIMEXO
 40
0.06
  9
$DIMDLI
 40
0.15
  9
$DIMRND
 40
0.0
  9
$DIMDLE
 40
0.0
  9
$DIMEXE
 40
0.3
  9
$DIMTP
 40
0.0
  9
$DIMTM
 40
0.0
  9
$DIMTXT
 40
12.0
  9
$DIMCEN
 40
0.09
  9
$DIMTSZ
 40
0.0
  9
$DIMTOL
 70
     0
  9
$DIMLIM
 70
     0
  9
$DIMTIH
 70
     1
  9
$DIMTOH
 70
     1
  9
$DIMSE1
 70
     0
  9
$DIMSE2
 70
     0
  9
$DIMTAD
 70
     0
  9
$DIMZIN
 70
     0
  9
$DIMBLK
  1

  9
$DIMASO
 70
     1
  9
$DIMSHO
 70
     1
  9
$DIMPOST
  1

  9
$DIMAPOST
  1

  9
$DIMALT
 70
     0
  9
$DIMALTD
 70
     2
  9
$DIMALTF
 40
25.4
  9
$DIMLFAC
 40
1.0
  9
$DIMTOFL
 70
     0
  9
$DIMTVP
 40
0.0
  9
$DIMTIX
 70
     0
  9
$DIMSOXD
 70
     0
  9
$DIMSAH
 70
     0
  9
$DIMBLK1
  1

  9
$DIMBLK2
  1

  9
$DIMSTYLE
  2
TST
  9
$DIMCLRD
 70
     7
  9
$DIMCLRE
 70
     0
  9
$DIMCLRT
 70
     7
  9
$DIMTFAC
 40
0.072
  9
$DIMGAP
 40
3.0
  9
$DIMJUST
 70
     0
  9
$DIMSD1
 70
     0
  9
$DIMSD2
 70
     0
  9
$DIMTOLJ
 70
     1
  9
$DIMTZIN
 70
     0
  9
$DIMALTZ
 70
     0
  9
$DIMALTTZ
 70
     0
  9
$DIMUPT
 70
     0
  9
$DIMDEC
 70
     1
  9
$DIMTDEC
 70
     1
  9
$DIMALTU
 70
     2
  9
$DIMALTTD
 70
     2
  9
$DIMTXSTY
  7
ARIAL
  9
$DIMAUNIT
 70
     0
  9
$DIMADEC
 70
     0
  9
$DIMALTRND
 40
0.0
  9
$DIMAZIN
 70
     0
  9
$DIMDSEP
 70
    46
  9
$DIMATFIT
 70
     3
  9
$DIMFRAC
 70
     0
  9
$DIMLDRBLK
  1

  9
$DIMLUNIT
 70
     2
  9
$DIMLWD
 70
    -2
  9
$DIMLWE
 70
    -2
  9
$DIMTMOVE
 70
     0
  9
$LUNITS
 70
     2
  9
$LUPREC
 70
     2
  9
$SKETCHINC
 40
0.1
  9
$FILLETRAD
 40
3.0
  9
$AUNITS
 70
     0
  9
$AUPREC
 70
     0
  9
$MENU
  1
acad
  9
$ELEVATION
 40
0.0
  9
$PELEVATION
 40
0.0
  9
$THICKNESS
 40
0.1
  9
$LIMCHECK
 70
     0
  9
$CHAMFERA
 40
0.0
  9
$CHAMFERB
 40
0.0
  9
$CHAMFERC
 40
10.0
  9
$CHAMFERD
 40
0.174532925199433
  9
$SKPOLY
 70
     0
  9
$TDCREATE
 40
2450830.318120254
  9
$TDUCREATE
 40
2450830.276453588
  9
$TDUPDATE
 40
2453795.639382349
  9
$TDUUPDATE
 40
2453795.597715683
  9
$TDINDWG
 40
0.8811084838
  9
$TDUSRTIMER
 40
0.8811084838
  9
$USRTIMER
 70
     1
  9
$ANGBASE
 50
0.0
  9
$ANGDIR
 70
     0
  9
$PDMODE
 70
     0
  9
$PDSIZE
 40
0.0
  9
$PLINEWID
 40
0.3
  9
$SPLFRAME
 70
     1
  9
$SPLINETYPE
 70
     6
  9
$SPLINESEGS
 70
     8
  9
$HANDSEED
  5
1621B
  9
$SURFTAB1
 70
     6
  9
$SURFTAB2
 70
     6
  9
$SURFTYPE
 70
     6
  9
$SURFU
 70
     6
  9
$SURFV
 70
     6
  9
$UCSBASE
  2

  9
$UCSNAME
  2

  9
$UCSORG
 10
-1376.91011567699
 20
669.2683454919897
 30
0.0
  9
$UCSXDIR
 10
1.0
 20
0.0
 30
0.0
  9
$UCSYDIR
 10
0.0
 20
1.0
 30
0.0
  9
$UCSORTHOREF
  2

  9
$UCSORTHOVIEW
 70
     0
  9
$UCSORGTOP
 10
0.0
 20
0.0
 30
0.0
  9
$UCSORGBOTTOM
 10
0.0
 20
0.0
 30
0.0
  9
$UCSORGLEFT
 10
0.0
 20
0.0
 30
0.0
  9
$UCSORGRIGHT
 10
0.0
 20
0.0
 30
0.0
  9
$UCSORGFRONT
 10
0.0
 20
0.0
 30
0.0
  9
$UCSORGBACK
 10
0.0
 20
0.0
 30
0.0
  9
$PUCSBASE
  2

  9
$PUCSNAME
  2

  9
$PUCSORG
 10
0.0
 20
0.0
 30
0.0
  9
$PUCSXDIR
 10
1.0
 20
0.0
 30
0.0
  9
$PUCSYDIR
 10
0.0
 20
1.0
 30
0.0
  9
$PUCSORTHOREF
  2

  9
$PUCSORTHOVIEW
 70
     0
  9
$PUCSORGTOP
 10
0.0
 20
0.0
 30
0.0
  9
$PUCSORGBOTTOM
 10
0.0
 20
0.0
 30
0.0
  9
$PUCSORGLEFT
 10
0.0
 20
0.0
 30
0.0
  9
$PUCSORGRIGHT
 10
0.0
 20
0.0
 30
0.0
  9
$PUCSORGFRONT
 10
0.0
 20
0.0
 30
0.0
  9
$PUCSORGBACK
 10
0.0
 20
0.0
 30
0.0
  9
$USERI1
 70
     0
  9
$USERI2
 70
     0
  9
$USERI3
 70
     0
  9
$USERI4
 70
     0
  9
$USERI5
 70
     0
  9
$USERR1
 40
0.0
  9
$USERR2
 40
0.0
  9
$USERR3
 40
0.0
  9
$USERR4
 40
0.0
  9
$USERR5
 40
0.0
  9
$WORLDVIEW
 70
     1
  9
$SHADEDGE
 70
     3
  9
$SHADEDIF
 70
    70
  9
$TILEMODE
 70
     1
  9
$MAXACTVP
 70
    16
  9
$PINSBASE
 10
0.0
 20
0.0
 30
0.0
  9
$PLIMCHECK
 70
     0
  9
$PEXTMIN
 10
1.000000000000000E+20
 20
1.000000000000000E+20
 30
1.000000000000000E+20
  9
$PEXTMAX
 10
-1.000000000000000E+20
 20
-1.000000000000000E+20
 30
-1.000000000000000E+20
  9
$PLIMMIN
 10
0.0
 20
0.0
  9
$PLIMMAX
 10
12.0
 20
9.0
  9
$UNITMODE
 70
     0
  9
$VISRETAIN
 70
     0
  9
$PLINEGEN
 70
     0
  9
$PSLTSCALE
 70
     0
  9
$TREEDEPTH
 70
  3020
  9
$CMLSTYLE
  2
STANDARD
  9
$CMLJUST
 70
     0
  9
$CMLSCALE
 40
1.0
  9
$PROXYGRAPHICS
 70
     1
  9
$MEASUREMENT
 70
     0
  9
$CELWEIGHT
370
    -1
  9
$ENDCAPS
280
     0
  9
$JOINSTYLE
280
     0
  9
$LWDISPLAY
290
     0
  9
$INSUNITS
 70
     0
  9
$HYPERLINKBASE
  1

  9
$STYLESHEET
  1

  9
$XEDIT
290
     1
  9
$CEPSNTYPE
380
     0
  9
$PSTYLEMODE
290
     1
  9
$FINGERPRINTGUID
  2
{8CB4EE96-A2FC-4BAD-8A58-F7B03F62799B}
  9
$VERSIONGUID
  2
{1CA504AD-7467-43B0-905D-171592F43B35}
  9
$EXTNAMES
290
     1
  9
$PSVPSCALE
 40
0.0
  9
$OLESTARTUP
290
     0
  0
ENDSEC
  0
SECTION
  2
CLASSES
  0
CLASS
  1
LWPOLYLINE
  2
AcDbPolyline
  3
AutoCAD 2000
 90
    32768
280
     0
281
     1
  0
CLASS
  1
HATCH
  2
AcDbHatch
  3
AutoCAD 2000
 90
    32768
280
     0
281
     1
  0
CLASS
  1
DICTIONARYVAR
  2
AcDbDictionaryVar
  3
AutoCAD 2000
 90
        0
280
     0
281
     0
  0
CLASS
  1
ACDBDICTIONARYWDFLT
  2
AcDbDictionaryWithDefault
  3
AutoCAD 2000
 90
        0
280
     0
281
     0
  0
CLASS
  1
ACDBPLACEHOLDER
  2
AcDbPlaceHolder
  3
AutoCAD 2000
 90
        0
280
     0
281
     0
  0
CLASS
  1
LAYOUT
  2
AcDbLayout
  3
AutoCAD 2000
 90
        0
280
     0
281
     0
  0
ENDSEC
  0
SECTION
  2
TABLES
  0
TABLE
  2
VPORT
  5
2E2A
330
0
100
AcDbSymbolTable
 70
     2
  0
VPORT
  5
1621A
330
2E2A
100
AcDbSymbolTableRecord
100
AcDbViewportTableRecord
  2
*Active
 70
     0
 10
0.0
 20
0.0
 11
1.0
 21
1.0
 12
124752.6353297779
 22
122536.79420251
 13
0.0
 23
0.0
 14
0.5
 24
0.5
 15
1.0
 25
1.0
 16
0.0
 26
0.0
 36
1.0
 17
0.0
 27
0.0
 37
0.0
 40
11690.50985377285
 41
1.600265604249668
 42
50.0
 43
0.0
 44
0.0
 50
0.0
 51
0.0
 71
     0
 72
   100
 73
     1
 74
     1
 75
     0
 76
     0
 77
     0
 78
     0
281
     0
 65
     1
110
-1376.91011567699
120
669.2683454919897
130
0.0
111
1.0
121
0.0
131
0.0
112
0.0
122
1.0
132
0.0
 79
     0
146
0.0
  0
ENDTAB
  0
TABLE
  2
LTYPE
  5
2E27
330
0
100
AcDbSymbolTable
 70
     1
  0
LTYPE
  5
2E34
330
2E27
100
AcDbSymbolTableRecord
100
AcDbLinetypeTableRecord
  2
BYBLOCK
 70
     0
  3

 72
    65
 73
     0
 40
0.0
  0
LTYPE
  5
2E35
330
2E27
100
AcDbSymbolTableRecord
100
AcDbLinetypeTableRecord
  2
BYLAYER
 70
     0
  3

 72
    65
 73
     0
 40
0.0
  0
LTYPE
  5
2E36
330
2E27
100
AcDbSymbolTableRecord
100
AcDbLinetypeTableRecord
  2
CONTINUOUS
 70
     0
  3
Solid line
 72
    65
 73
     0
 40
0.0
  0
ENDTAB
  0
TABLE
  2
LAYER
  5
2E24
102
{ACAD_XDICTIONARY
360
15B01
102
}
330
0
100
AcDbSymbolTable
 70
    17
  0
LAYER
  5
2E31
330
2E24
100
AcDbSymbolTableRecord
100
AcDbLayerTableRecord
  2
0
 70
     0
 62
     7
  6
CONTINUOUS
370
    -3
390
158BF
  0
LAYER
  5
2E5D
330
2E24
100
AcDbSymbolTableRecord
100
AcDbLayerTableRecord
  2
LAYER1
 70
     0
 62
     7
  6
CONTINUOUS
370
    -3
390
158BF
  0
LAYER
  5
2E5F
330
2E24
100
AcDbSymbolTableRecord
100
AcDbLayerTableRecord
  2
TEKST
 70
     0
 62
     7
  6
CONTINUOUS
370
    -3
390
158BF
  0
LAYER
  5
2E60
330
2E24
100
AcDbSymbolTableRecord
100
AcDbLayerTableRecord
  2
DEFPOINTS
 70
     0
 62
     7
  6
CONTINUOUS
290
     0
370
    -3
390
158BF
  0
LAYER
  5
2E7C
330
2E24
100
AcDbSymbolTableRecord
100
AcDbLayerTableRecord
  2
ASHADE
 70
     4
 62
     7
  6
CONTINUOUS
370
    -3
390
158BF
  0
LAYER
  5
30B2
330
2E24
100
AcDbSymbolTableRecord
100
AcDbLayerTableRecord
  2
OMRISS
 70
     0
 62
     8
  6
CONTINUOUS
370
    -3
390
158BF
  0
LAYER
  5
5978
330
2E24
100
AcDbSymbolTableRecord
100
AcDbLayerTableRecord
  2
NIPPEL
 70
     0
 62
   214
  6
CONTINUOUS
370
    -3
390
158BF
  0
LAYER
  5
597D
330
2E24
100
AcDbSymbolTableRecord
100
AcDbLayerTableRecord
  2
GJENGEBUNN
 70
     0
 62
     8
  6
CONTINUOUS
370
    -3
390
158BF
  0
LAYER
  5
10DF0
330
2E24
100
AcDbSymbolTableRecord
100
AcDbLayerTableRecord
  2
LAYER01
 70
     0
 62
     7
  6
CONTINUOUS
370
    -3
390
158BF
  0
LAYER
  5
15BDA
330
2E24
100
AcDbSymbolTableRecord
100
AcDbLayerTableRecord
  2
Omriss tanker
 70
     0
 62
    20
  6
CONTINUOUS
370
    -3
390
158BF
  0
LAYER
  5
15BDB
330
2E24
100
AcDbSymbolTableRecord
100
AcDbLayerTableRecord
  2
Symboler
 70
     0
 62
    42
  6
CONTINUOUS
370
    -3
390
158BF
  0
LAYER
  5
15C17
330
2E24
100
AcDbSymbolTableRecord
100
AcDbLayerTableRecord
  2
Drop-line PS
 70
     0
 62
    13
  6
CONTINUOUS
370
    -3
390
158BF
  0
LAYER
  5
15C18
330
2E24
100
AcDbSymbolTableRecord
100
AcDbLayerTableRecord
  2
Drop-line SB
 70
     0
 62
   101
  6
CONTINUOUS
370
    -3
390
158BF
  0
LAYER
  5
15C19
330
2E24
100
AcDbSymbolTableRecord
100
AcDbLayerTableRecord
  2
Suction PS
 70
     0
 62
   131
  6
CONTINUOUS
370
    -3
390
158BF
  0
LAYER
  5
15C1A
330
2E24
100
AcDbSymbolTableRecord
100
AcDbLayerTableRecord
  2
Suction SB
 70
     0
 62
   211
  6
CONTINUOUS
370
    -3
390
158BF
  0
LAYER
  5
15C1B
330
2E24
100
AcDbSymbolTableRecord
100
AcDbLayerTableRecord
  2
Suction C
 70
     0
 62
   201
  6
CONTINUOUS
370
    -3
390
158BF
  0
LAYER
  5
15C1C
330
2E24
100
AcDbSymbolTableRecord
100
AcDbLayerTableRecord
  2
Drop-line C
 70
     0
 62
    66
  6
CONTINUOUS
370
    -3
390
158BF
  0
ENDTAB
  0
TABLE
  2
STYLE
  5
2E25
330
0
100
AcDbSymbolTable
 70
     5
  0
STYLE
  5
2E32
330
2E25
100
AcDbSymbolTableRecord
100
AcDbTextStyleTableRecord
  2
STANDARD
 70
     0
 40
3.0
 41
1.0
 50
0.0
 71
     0
 42
3.0
  3
txt
  4

  0
STYLE
  5
2E40
330
2E25
100
AcDbSymbolTableRecord
100
AcDbTextStyleTableRecord
  2
ROMANS
 70
     0
 40
3.0
 41
1.0
 50
0.0
 71
     0
 42
3.0
  3
romans
  4

  0
STYLE
  5
597F
330
2E25
100
AcDbSymbolTableRecord
100
AcDbTextStyleTableRecord
  2
ARIAL MT ROUND
 70
     0
 40
2.0
 41
1.0
 50
0.0
 71
     0
 42
2.0
  3
ARIAL.TTF
  4

1001
ACAD
1000
Arial
1071
       34
  0
STYLE
  5
5980
330
2E25
100
AcDbSymbolTableRecord
100
AcDbTextStyleTableRecord
  2
ARIAL
 70
     0
 40
12.0
 41
1.0
 50
0.0
 71
     0
 42
12.0
  3
ARIAL.TTF
  4

1001
ACAD
1000
Arial
1071
       34
  0
STYLE
  5
15BDC
330
2E25
100
AcDbSymbolTableRecord
100
AcDbTextStyleTableRecord
  2
ARIAL BOLD
 70
     0
 40
0.0
 41
1.0
 50
0.0
 71
     0
 42
0.2
  3
ARIALBD.TTF
  4

1001
ACAD
1000
Arial
1071
 33554466
  0
ENDTAB
  0
TABLE
  2
VIEW
  5
2E28
330
0
100
AcDbSymbolTable
 70
     0
  0
ENDTAB
  0
TABLE
  2
UCS
  5
2E29
330
0
100
AcDbSymbolTable
 70
     0
  0
ENDTAB
  0
TABLE
  2
APPID
  5
2E2B
330
0
100
AcDbSymbolTable
 70
     8
  0
APPID
  5
2E33
330
2E2B
100
AcDbSymbolTableRecord
100
AcDbRegAppTableRecord
  2
ACAD
 70
     0
  0
APPID
  5
2E5B
330
2E2B
100
AcDbSymbolTableRecord
100
AcDbRegAppTableRecord
  2
AME_SOL
 70
     0
  0
APPID
  5
2E7A
330
2E2B
100
AcDbSymbolTableRecord
100
AcDbRegAppTableRecord
  2
AVE_RENDER
 70
     0
  0
APPID
  5
2E7B
330
2E2B
100
AcDbSymbolTableRecord
100
AcDbRegAppTableRecord
  2
AVE_ENTITY_MATERIAL
 70
     0
  0
APPID
  5
2E88
330
2E2B
100
AcDbSymbolTableRecord
100
AcDbRegAppTableRecord
  2
AVE_FINISH
 70
     0
  0
APPID
  5
2E89
330
2E2B
100
AcDbSymbolTableRecord
100
AcDbRegAppTableRecord
  2
AVE_MATERIAL
 70
     0
  0
APPID
  5
2E8A
330
2E2B
100
AcDbSymbolTableRecord
100
AcDbRegAppTableRecord
  2
AVE_GLOBAL
 70
     0
  0
APPID
  5
15AF6
330
2E2B
100
AcDbSymbolTableRecord
100
AcDbRegAppTableRecord
  2
DCO15
 70
     0
  0
ENDTAB
  0
TABLE
  2
DIMSTYLE
  5
2E2C
330
0
100
AcDbSymbolTable
 70
     2
100
AcDbDimStyleTable
 71
     1
340
2E5C
  0
DIMSTYLE
105
2E5C
330
2E2C
100
AcDbSymbolTableRecord
100
AcDbDimStyleTableRecord
  2
TST
 70
     0
 41
1.0
 42
0.06
140
2.5
146
0.072
147
3.0
271
     2
272
     2
279
     2
340
2E40
  0
DIMSTYLE
105
10DF2
330
2E2C
100
AcDbSymbolTableRecord
100
AcDbDimStyleTableRecord
  2
STANDARD
 70
     0
340
2E32
  0
ENDTAB
  0
TABLE
  2
BLOCK_RECORD
  5
2E23
330
0
100
AcDbSymbolTable
 70
     8
  0
BLOCK_RECORD
  5
2E3A
330
2E23
100
AcDbSymbolTableRecord
100
AcDbBlockTableRecord
  2
*MODEL_SPACE
340
158C2
  0
BLOCK_RECORD
  5
2E37
330
2E23
100
AcDbSymbolTableRecord
100
AcDbBlockTableRecord
  2
*PAPER_SPACE
340
158C3
  0
BLOCK_RECORD
  5
2E3E
330
2E23
100
AcDbSymbolTableRecord
100
AcDbBlockTableRecord
  2
AME_NIL
340
0
102
{BLKREFS
331
17
331
10E9D
331
10EAA
331
10EB6
331
13A16
331
13A23
331
13A2F
102
}
  0
BLOCK_RECORD
  5
2E3F
330
2E23
100
AcDbSymbolTableRecord
100
AcDbBlockTableRecord
  2
AME_SOL
340
0
102
{BLKREFS
331
29
331
10E9E
331
10EAB
331
10EB7
331
13A17
331
13A24
331
13A30
102
}
  0
BLOCK_RECORD
  5
2E7D
330
2E23
100
AcDbSymbolTableRecord
100
AcDbBlockTableRecord
  2
AVE_RENDER
340
0
102
{BLKREFS
331
2E80
331
2E81
331
2E82
331
2E83
331
2E84
331
2E85
331
2E86
331
2E87
331
10EA0
331
10EA1
331
10EA2
331
10EA3
331
10EA4
331
10EA5
331
10EA6
331
10EA7
331
10EAD
331
10EAE
331
10EAF
331
10EB0
331
10EB1
331
10EB2
331
10EB3
331
10EB4
331
10EB9
331
10EBA
331
10EBB
331
10EBC
331
10EBD
331
10EBE
331
10EBF
331
10EC0
331
13A19
331
13A1A
331
13A1B
331
13A1C
331
13A1D
331
13A1E
331
13A1F
331
13A20
331
13A26
331
13A27
331
13A28
331
13A29
331
13A2A
331
13A2B
331
13A2C
331
13A2D
331
13A32
331
13A33
331
13A34
331
13A35
331
13A36
331
13A37
331
13A38
331
13A39
102
}
  0
BLOCK_RECORD
  5
2E8B
330
2E23
100
AcDbSymbolTableRecord
100
AcDbBlockTableRecord
  2
AVE_GLOBAL
340
0
102
{BLKREFS
331
2E8E
331
10EA8
331
10EB5
331
10EC1
331
13A21
331
13A2E
331
13A3A
102
}
  0
BLOCK_RECORD
  5
15BD2
330
2E23
100
AcDbSymbolTableRecord
100
AcDbBlockTableRecord
  2
Remote valve
340
0
310
2800000020000000200000000100080000000000000400000000000000000000000000000000000000000000000080000080000000808000800000008000800080800000C0C0C000C0DCC000F0CAA6000020400000206000002080000020A0000020C0000020E00000400000004020000040400000406000004080000040A0
310
000040C0000040E00000600000006020000060400000606000006080000060A0000060C0000060E00000800000008020000080400000806000008080000080A0000080C0000080E00000A0000000A0200000A0400000A0600000A0800000A0A00000A0C00000A0E00000C0000000C0200000C0400000C0600000C0800000C0
310
A00000C0C00000C0E00000E0000000E0200000E0400000E0600000E0800000E0A00000E0C00000E0E00040000000400020004000400040006000400080004000A0004000C0004000E00040200000402020004020400040206000402080004020A0004020C0004020E000404000004040200040404000404060004040800040
310
40A0004040C0004040E00040600000406020004060400040606000406080004060A0004060C0004060E00040800000408020004080400040806000408080004080A0004080C0004080E00040A0000040A0200040A0400040A0600040A0800040A0A00040A0C00040A0E00040C0000040C0200040C0400040C0600040C08000
310
40C0A00040C0C00040C0E00040E0000040E0200040E0400040E0600040E0800040E0A00040E0C00040E0E00080000000800020008000400080006000800080008000A0008000C0008000E00080200000802020008020400080206000802080008020A0008020C0008020E00080400000804020008040400080406000804080
310
008040A0008040C0008040E00080600000806020008060400080606000806080008060A0008060C0008060E00080800000808020008080400080806000808080008080A0008080C0008080E00080A0000080A0200080A0400080A0600080A0800080A0A00080A0C00080A0E00080C0000080C0200080C0400080C0600080C0
310
800080C0A00080C0C00080C0E00080E0000080E0200080E0400080E0600080E0800080E0A00080E0C00080E0E000C0000000C0002000C0004000C0006000C0008000C000A000C000C000C000E000C0200000C0202000C0204000C0206000C0208000C020A000C020C000C020E000C0400000C0402000C0404000C0406000C0
310
408000C040A000C040C000C040E000C0600000C0602000C0604000C0606000C0608000C060A000C060C000C060E000C0800000C0802000C0804000C0806000C0808000C080A000C080C000C080E000C0A00000C0A02000C0A04000C0A06000C0A08000C0A0A000C0A0C000C0A0E000C0C00000C0C02000C0C04000C0C06000
310
C0C08000C0C0A000F0FBFF00A4A0A000808080000000FF0000FF000000FFFF00FF000000FF00FF00FFFF0000FFFFFF00000000000000000000000000000000000000000000000000000000000000000000002E00000000000000000000000000000000000000000000000000002E000000002E2E2E00000000000000000000
310
0000000000000000000000002E2E2E000000002E00002E2E0000000000000000000000000000000000002E2E00002E000000002E000000002E2E00000000000000000000000000002E2E000000002E000000002E00000000002E2E2E000000000000000000002E2E0000000000002E000000002E000000000000002E2E2E00
310
00000000002E2E2E000000000000002E000000002E00000000000000002E2E2E2E00002E2E2E0000000000000000002E000000002E000000000000000000002E2E2E2E2E00000000000000000000002E000000002E0000000000000000000000002E2E0000000000000000000000002E000000002E00000000000000000000
310
2E2E2E2E2E2E000000000000000000002E000000002E00000000000000002E2E00002E2E00002E2E00000000000000002E000000002E0000000000002E2E000000002E2E000000002E2E0000000000002E000000002E000000002E2E0000000000002E2E0000000000002E2E000000002E000000002E00002E2E0000000000
310
0000002E2E00000000000000002E2E00002E000000002E2E2E000000000000000000002E2E000000000000000000002E2E2E000000002E0000000000000000000000002E2E0000000000000000000000002E00000000000000000000000000000000002E2E0000000000000000000000000000000000000000000000000000
310
000000002E2E0000000000000000000000000000000000000000000000000000000000002E2E0000000000000000000000000000000000000000000000000000000000002E2E0000000000000000000000000000000000000000000000000000000000002E2E000000000000000000000000000000000000000000002E2E2E
310
2E2E2E2E2E2E2E2E2E2E2E2E2E2E2E00000000000000000000000000002E000000000000000000000000000000002E0000000000000000000000000000002E0000000000000000000000000000002E0000000000000000000000000000002E00000000000000000000000000002E000000000000000000000000000000002E
310
00000000000000000000000000002E00000000000000000000000000000000002E0000000000000000000000002E000000000000000000000000000000000000002E000000000000000000002E0000000000000000000000000000000000000000002E2E2E00000000002E2E00000000000000000000000000000000000000
310
0000000000002E2E2E2E2E000000000000000000000000000000000000000000000000000000000000000000000000000000000000000000
102
{BLKREFS
331
16121
102
}
  0
BLOCK_RECORD
  5
15BD6
330
2E23
100
AcDbSymbolTableRecord
100
AcDbBlockTableRecord
  2
Valve
340
0
310
2800000020000000200000000100080000000000000400000000000000000000000000000000000000000000000080000080000000808000800000008000800080800000C0C0C000C0DCC000F0CAA6000020400000206000002080000020A0000020C0000020E00000400000004020000040400000406000004080000040A0
310
000040C0000040E00000600000006020000060400000606000006080000060A0000060C0000060E00000800000008020000080400000806000008080000080A0000080C0000080E00000A0000000A0200000A0400000A0600000A0800000A0A00000A0C00000A0E00000C0000000C0200000C0400000C0600000C0800000C0
310
A00000C0C00000C0E00000E0000000E0200000E0400000E0600000E0800000E0A00000E0C00000E0E00040000000400020004000400040006000400080004000A0004000C0004000E00040200000402020004020400040206000402080004020A0004020C0004020E000404000004040200040404000404060004040800040
310
40A0004040C0004040E00040600000406020004060400040606000406080004060A0004060C0004060E00040800000408020004080400040806000408080004080A0004080C0004080E00040A0000040A0200040A0400040A0600040A0800040A0A00040A0C00040A0E00040C0000040C0200040C0400040C0600040C08000
310
40C0A00040C0C00040C0E00040E0000040E0200040E0400040E0600040E0800040E0A00040E0C00040E0E00080000000800020008000400080006000800080008000A0008000C0008000E00080200000802020008020400080206000802080008020A0008020C0008020E00080400000804020008040400080406000804080
310
008040A0008040C0008040E00080600000806020008060400080606000806080008060A0008060C0008060E00080800000808020008080400080806000808080008080A0008080C0008080E00080A0000080A0200080A0400080A0600080A0800080A0A00080A0C00080A0E00080C0000080C0200080C0400080C0600080C0
310
800080C0A00080C0C00080C0E00080E0000080E0200080E0400080E0600080E0800080E0A00080E0C00080E0E000C0000000C0002000C0004000C0006000C0008000C000A000C000C000C000E000C0200000C0202000C0204000C0206000C0208000C020A000C020C000C020E000C0400000C0402000C0404000C0406000C0
310
408000C040A000C040C000C040E000C0600000C0602000C0604000C0606000C0608000C060A000C060C000C060E000C0800000C0802000C0804000C0806000C0808000C080A000C080C000C080E000C0A00000C0A02000C0A04000C0A06000C0A08000C0A0A000C0A0C000C0A0E000C0C00000C0C02000C0C04000C0C06000
310
C0C08000C0C0A000F0FBFF00A4A0A000808080000000FF0000FF000000FFFF00FF000000FF00FF00FFFF0000FFFFFF0000000000000000000000000000000000000000000000000000000000000000000000000000000000000000000000000000000000000000000000000000000000000000000000000000000000000000
310
00000000000000000000000000000000000000000000000000000000000000000000000000000000000000000000000000000000000000000000000000000000000000000000000000000000000000000000000000000000000000000000000000000000000000000000000000000000000000000000000000000000000000
310
0000000000000000000000000000000000000000000000000000000000000000000000000000000000000000000000000000002E2E0000000000000000000000000000000000000000000000000000002E00002E002E2E00000000000000000000000000000000000000000000002E2E2E00002E0000002E2E000000000000
310
000000000000000000000000002E2E00002E00002E00000000002E2E0000000000000000000000000000002E2E000000002E00002E000000000000002E2E0000000000000000000000002E0000000000002E00002E0000000000000000002E2E00000000000000002E2E000000000000002E00002E00000000000000000000
310
002E2E000000002E2E0000000000000000002E00002E000000000000000000000000002E2E2E2E00000000000000000000002E00002E000000000000000000000000002E2E2E2E00000000000000000000002E00002E00000000000000000000002E2E000000002E2E0000000000000000002E00002E000000000000000000
310
2E2E00000000000000002E2E000000000000002E00002E000000000000002E2E0000000000000000000000002E0000000000002E00002E00000000002E2E0000000000000000000000000000002E2E000000002E00002E0000002E2E000000000000000000000000000000000000002E2E00002E00002E002E2E0000000000
310
0000000000000000000000000000000000002E2E2E00002E2E0000000000000000000000000000000000000000000000000000002E0000000000000000000000000000000000000000000000000000000000000000000000000000000000000000000000000000000000000000000000000000000000000000000000000000
310
00000000000000000000000000000000000000000000000000000000000000000000000000000000000000000000000000000000000000000000000000000000000000000000000000000000000000000000000000000000000000000000000000000000000000000000000000000000000000000000000000000000000000
310
0000000000000000000000000000000000000000000000000000000000000000000000000000000000000000000000000000000000000000
  0
BLOCK_RECORD
  5
15C12
330
2E23
100
AcDbSymbolTableRecord
100
AcDbBlockTableRecord
  2
Pump
340
0
310
2800000020000000200000000100080000000000000400000000000000000000000000000000000000000000000080000080000000808000800000008000800080800000C0C0C000C0DCC000F0CAA6000020400000206000002080000020A0000020C0000020E00000400000004020000040400000406000004080000040A0
310
000040C0000040E00000600000006020000060400000606000006080000060A0000060C0000060E00000800000008020000080400000806000008080000080A0000080C0000080E00000A0000000A0200000A0400000A0600000A0800000A0A00000A0C00000A0E00000C0000000C0200000C0400000C0600000C0800000C0
310
A00000C0C00000C0E00000E0000000E0200000E0400000E0600000E0800000E0A00000E0C00000E0E00040000000400020004000400040006000400080004000A0004000C0004000E00040200000402020004020400040206000402080004020A0004020C0004020E000404000004040200040404000404060004040800040
310
40A0004040C0004040E00040600000406020004060400040606000406080004060A0004060C0004060E00040800000408020004080400040806000408080004080A0004080C0004080E00040A0000040A0200040A0400040A0600040A0800040A0A00040A0C00040A0E00040C0000040C0200040C0400040C0600040C08000
310
40C0A00040C0C00040C0E00040E0000040E0200040E0400040E0600040E0800040E0A00040E0C00040E0E00080000000800020008000400080006000800080008000A0008000C0008000E00080200000802020008020400080206000802080008020A0008020C0008020E00080400000804020008040400080406000804080
310
008040A0008040C0008040E00080600000806020008060400080606000806080008060A0008060C0008060E00080800000808020008080400080806000808080008080A0008080C0008080E00080A0000080A0200080A0400080A0600080A0800080A0A00080A0C00080A0E00080C0000080C0200080C0400080C0600080C0
310
800080C0A00080C0C00080C0E00080E0000080E0200080E0400080E0600080E0800080E0A00080E0C00080E0E000C0000000C0002000C0004000C0006000C0008000C000A000C000C000C000E000C0200000C0202000C0204000C0206000C0208000C020A000C020C000C020E000C0400000C0402000C0404000C0406000C0
310
408000C040A000C040C000C040E000C0600000C0602000C0604000C0606000C0608000C060A000C060C000C060E000C0800000C0802000C0804000C0806000C0808000C080A000C080C000C080E000C0A00000C0A02000C0A04000C0A06000C0A08000C0A0A000C0A0C000C0A0E000C0C00000C0C02000C0C04000C0C06000
310
C0C08000C0C0A000F0FBFF00A4A0A000808080000000FF0000FF000000FFFF00FF000000FF00FF00FFFF0000FFFFFF00000000000000000000000000000000000000000000000000000000000000000000000000000000000000000000000000002E2E2E2E2E00000000000000000000000000000000000000000000000000
310
00002E0000002E0000000000000000000000000000000000000000000000000000002E0000002E0000000000000000000000000000000000000000000000000000002E0000002E0000000000000000000000000000000000000000000000000000002E0000002E000000000000000000000000000000000000000000000000
310
0000002E0000002E0000000000000000000000000000000000000000000000000000002E0000002E0000000000000000000000000000000000000000000000000000002E0000002E00000000000000000000000000000000000000000000000000002E2E0000002E2E2E000000000000000000000000000000000000000000
310
2E2E2E00000000000000002E000000000000000000000000000000000000002E0000000000000000000000002E00000000000000000000000000000000002E00000000000000000000000000002E2E00000000000000000000000000002E00000000000000000000000000000000002E000000000000000000000000002E2E
310
2E2E2E2E2E2E2E2E2E2E2E2E2E2E2E2E2E000000000000000000000000002E2E0000000000000000000000000000002E002E00000000000000000000002E002E0000000000000000000000000000002E002E0000002E2E2E2E2E2E2E2E2E00002E000000000000000000000000002E00002E0000002E000000000000000000
310
002E000000000000000000000000002E00002E0000002E00000000000000000000002E00000000000000000000002E000000002E00002E00000000000000000000002E00000000000000000000002E000000002E00002E2E2E2E2E2E2E2E2E000000002E0000000000000000002E00000000002E000000000000000000002E
310
00000000002E00000000000000002E000000002E00000000000000000000002E00000000002E000000000000002E00000000002E0000000000000000000000002E00000000002E00000000002E00000000002E00000000000000000000000000002E000000002E00000000002E00000000002E000000000000000000000000
310
0000002E000000002E0000002E00000000002E000000000000000000000000000000002E000000002E0000002E000000002E2E00000000000000000000000000000000002E2E0000002E002E0000002E2E0000000000000000000000000000000000000000002E2E2E2E002E002E2E00000000000000000000000000000000
310
00000000000000000000002E2E2E000000000000000000000000000000000000000000000000000000000000000000000000000000000000
  0
BLOCK_RECORD
  5
15F3A
330
2E23
100
AcDbSymbolTableRecord
100
AcDbBlockTableRecord
  2
Ejector
340
0
310
2800000020000000200000000100080000000000000400000000000000000000000000000000000000000000000080000080000000808000800000008000800080800000C0C0C000C0DCC000F0CAA6000020400000206000002080000020A0000020C0000020E00000400000004020000040400000406000004080000040A0
310
000040C0000040E00000600000006020000060400000606000006080000060A0000060C0000060E00000800000008020000080400000806000008080000080A0000080C0000080E00000A0000000A0200000A0400000A0600000A0800000A0A00000A0C00000A0E00000C0000000C0200000C0400000C0600000C0800000C0
310
A00000C0C00000C0E00000E0000000E0200000E0400000E0600000E0800000E0A00000E0C00000E0E00040000000400020004000400040006000400080004000A0004000C0004000E00040200000402020004020400040206000402080004020A0004020C0004020E000404000004040200040404000404060004040800040
310
40A0004040C0004040E00040600000406020004060400040606000406080004060A0004060C0004060E00040800000408020004080400040806000408080004080A0004080C0004080E00040A0000040A0200040A0400040A0600040A0800040A0A00040A0C00040A0E00040C0000040C0200040C0400040C0600040C08000
310
40C0A00040C0C00040C0E00040E0000040E0200040E0400040E0600040E0800040E0A00040E0C00040E0E00080000000800020008000400080006000800080008000A0008000C0008000E00080200000802020008020400080206000802080008020A0008020C0008020E00080400000804020008040400080406000804080
310
008040A0008040C0008040E00080600000806020008060400080606000806080008060A0008060C0008060E00080800000808020008080400080806000808080008080A0008080C0008080E00080A0000080A0200080A0400080A0600080A0800080A0A00080A0C00080A0E00080C0000080C0200080C0400080C0600080C0
310
800080C0A00080C0C00080C0E00080E0000080E0200080E0400080E0600080E0800080E0A00080E0C00080E0E000C0000000C0002000C0004000C0006000C0008000C000A000C000C000C000E000C0200000C0202000C0204000C0206000C0208000C020A000C020C000C020E000C0400000C0402000C0404000C0406000C0
310
408000C040A000C040C000C040E000C0600000C0602000C0604000C0606000C0608000C060A000C060C000C060E000C0800000C0802000C0804000C0806000C0808000C080A000C080C000C080E000C0A00000C0A02000C0A04000C0A06000C0A08000C0A0A000C0A0C000C0A0E000C0C00000C0C02000C0C04000C0C06000
310
C0C08000C0C0A000F0FBFF00A4A0A000808080000000FF0000FF000000FFFF00FF000000FF00FF00FFFF0000FFFFFF0000000000000000000000000000000000000000000000000000000000000000000000000000000000000000000000000000000000000000000000000000000000000000000000000000000000000000
310
00000000000000000000000000000000000000000000000000000000000000000000000000000000000000000000000000000000000000000000000000000000000000000000000000000000000000000000000000000000000000000000000000000000000000000000000000000000000000000000000000000000000000
310
0000000000000000000000000000000000000000000000000000000000000000000000000000000000000000000000FFFF00000000000000000000000000000000000000000000000000000000FFFF00FF0000000000000000000000000000000000000000000000000000FFFF000000FF0000000000000000000000000000
310
00000000000000000000FFFF0000000000FF0000FF00000000000000000000000000000000000000FFFF00000000000000FF0000FFFFFF0000000000000000000000000000FFFFFF000000000000000000FF0000FF0000FFFF00000000000000000000FFFF000000000000000000000000FF0000FF00000000FFFF00000000
310
0000FFFF0000000000000000000000000000FF0000FF000000000000FFFF0000FFFF00000000000000000000000000000000FF0000FF0000000000000000FFFFFFFF00000000000000000000000000000000FF0000FF0000000000FFFF000000FF00FFFF0000000000000000000000000000FF0000FF000000FFFF00FF0000
310
00FF000000FFFF000000000000000000000000FF0000FF00FFFF000000FF000000FF0000000000FFFF00000000000000000000FF0000FFFF0000000000FF000000FF00000000000000FFFFFF00000000000000FF000000000000000000FF000000FF00000000000000000000FFFF0000000000FF000000000000000000FF00
310
0000FF000000000000000000000000FFFF000000FF000000000000000000FFFFFFFFFF0000000000000000000000000000FFFF00FF000000000000000000000000000000000000000000000000000000000000FFFF000000000000000000000000000000000000000000000000000000000000000000000000000000000000
310
00000000000000000000000000000000000000000000000000000000000000000000000000000000000000000000000000000000000000000000000000000000000000000000000000000000000000000000000000000000000000000000000000000000000000000000000000000000000000000000000000000000000000
310
0000000000000000000000000000000000000000000000000000000000000000000000000000000000000000000000000000000000000000
  0
ENDTAB
  0
ENDSEC
  0
SECTION
  2
BLOCKS
  0
BLOCK
  5
2E63
330
2E3A
100
AcDbEntity
  8
0
100
AcDbBlockBegin
  2
*MODEL_SPACE
 70
     0
 10
0.0
 20
0.0
 30
0.0
  3
*MODEL_SPACE
  1

  0
ENDBLK
  5
2E64
330
2E3A
100
AcDbEntity
  8
0
100
AcDbBlockEnd
  0
BLOCK
  5
2E61
330
2E37
100
AcDbEntity
 67
     1
  8
0
100
AcDbBlockBegin
  2
*PAPER_SPACE
 70
     0
 10
0.0
 20
0.0
 30
0.0
  3
*PAPER_SPACE
  1

  0
ENDBLK
  5
2E62
330
2E37
100
AcDbEntity
 67
     1
  8
0
100
AcDbBlockEnd
  0
BLOCK
  5
E
330
2E3E
100
AcDbEntity
  8
0
100
AcDbBlockBegin
  2
AME_NIL
 70
     0
 10
0.0
 20
0.0
 30
0.0
  3
AME_NIL
  1
AME_NIL
  0
ENDBLK
  5
F
330
2E3E
100
AcDbEntity
  8
0
100
AcDbBlockEnd
  0
BLOCK
  5
11
330
2E3F
100
AcDbEntity
  8
0
100
AcDbBlockBegin
  2
AME_SOL
 70
     0
 10
0.0
 20
0.0
 30
0.0
  3
AME_SOL
  1
AME_SOL
  0
ENDBLK
  5
12
330
2E3F
100
AcDbEntity
  8
0
100
AcDbBlockEnd
  0
BLOCK
  5
2E7E
330
2E7D
100
AcDbEntity
  8
0
100
AcDbBlockBegin
  2
AVE_RENDER
 70
     0
 10
0.0
 20
0.0
 30
0.0
  3
AVE_RENDER
  1
AVE_RENDER
  0
ENDBLK
  5
2E7F
330
2E7D
100
AcDbEntity
  8
0
100
AcDbBlockEnd
  0
BLOCK
  5
2E8C
330
2E8B
100
AcDbEntity
  8
0
100
AcDbBlockBegin
  2
AVE_GLOBAL
 70
     0
 10
0.0
 20
0.0
 30
0.0
  3
AVE_GLOBAL
  1
AVE_GLOBAL
  0
ENDBLK
  5
2E8D
330
2E8B
100
AcDbEntity
  8
0
100
AcDbBlockEnd
  0
BLOCK
  5
15BD4
330
15BD2
100
AcDbEntity
  8
0
 62
    20
100
AcDbBlockBegin
  2
Remote valve
 70
     0
 10
0.0
 20
0.0
 30
0.0
  3
Remote valve
  1

  0
LWPOLYLINE
  5
15BD3
330
15BD2
100
AcDbEntity
  8
Symboler
  6
Continuous
 62
    42
100
AcDbPolyline
 90
       11
 70
     1
 10
99.55549390193482
 20
4.047891041245748
 40
0.2
 41
0.2
 10
99.55549390193482
 20
108.252917159445
 40
0.2
 41
0.2
 10
35.3255618243711
 20
108.252917159445
 40
0.2
 41
0.2
 42
-0.8846768105770848
 10
178.7854259795131
 20
108.252917159445
 40
0.2
 41
0.2
 10
114.5554939019348
 20
108.252917159445
 40
0.2
 41
0.2
 10
114.5554939019348
 20
4.047891041245748
 40
0.2
 41
0.2
 10
214.1109878038696
 20
57.77986329090801
 40
0.0
 41
0.0
 10
214.1109878038696
 20
-57.77986329090801
 40
0.2
 41
0.2
 10
107.0554939019348
 20
0.0
 40
0.2
 41
0.2
 10
0.0
 20
-57.77986329090801
 40
0.0
 41
0.0
 10
0.0
 20
57.77986329090801
 40
0.2
 41
0.2
  0
ENDBLK
  5
15BD5
330
15BD2
100
AcDbEntity
  8
0
 62
    20
100
AcDbBlockEnd
  0
BLOCK
  5
15BD8
330
15BD6
100
AcDbEntity
  8
0
 62
    20
100
AcDbBlockBegin
  2
Valve
 70
     0
 10
0.0
 20
0.0
 30
0.0
  3
Valve
  1

  0
LWPOLYLINE
  5
15BD7
330
15BD6
100
AcDbEntity
  8
Symboler
  6
Continuous
 62
    42
100
AcDbPolyline
 90
        6
 70
     1
 43
0.0
 10
0.0
 20
57.77986329090801
 10
0.0
 20
-57.77986329090801
 10
107.0554939019348
 20
-0.0000000000001137
 10
214.1109878038696
 20
57.77986329090801
 10
214.1109878038696
 20
-57.77986329090801
 10
107.0554939019348
 20
0.0
  0
ENDBLK
  5
15BD9
330
15BD6
100
AcDbEntity
  8
0
 62
    20
100
AcDbBlockEnd
  0
BLOCK
  5
15C15
330
15C12
100
AcDbEntity
  8
0
 62
    20
100
AcDbBlockBegin
  2
Pump
 70
     0
 10
0.0
 20
0.0
 30
0.0
  3
Pump
  1

  0
LWPOLYLINE
  5
15C13
330
15C12
100
AcDbEntity
  8
Symboler
  6
Continuous
 62
    42
100
AcDbPolyline
 90
        9
 70
     0
 43
0.0
 10
269.0715011075663
 20
-143.35237931923
 10
269.0715011075663
 20
-243.3523793192299
 10
219.0715011075663
 20
-243.3523793192299
 10
219.0715011075663
 20
-143.35237931923
 42
-0.3158256435085338
 10
100.0
 20
-25.0
 10
0.0
 20
-25.0
 10
0.0
 20
25.0
 10
100.0
 20
25.0
 42
-1.932117675131443
 10
268.3523793192288
 20
-143.35237931923
  0
LWPOLYLINE
  5
15C14
330
15C12
100
AcDbEntity
  8
Symboler
  6
Continuous
 62
    42
100
AcDbPolyline
 90
        3
 70
     1
 43
0.2
 10
243.7119402133976
 20
145.1685901043904
 10
117.5387971735762
 20
-72.79796378022206
 10
368.9862636105971
 20
-72.54495371094344
  0
ENDBLK
  5
15C16
330
15C12
100
AcDbEntity
  8
0
 62
    20
100
AcDbBlockEnd
  0
BLOCK
  5
15F3C
330
15F3A
100
AcDbEntity
  8
0
 62
     7
100
AcDbBlockBegin
  2
Ejector
 70
     0
 10
0.0
 20
0.0
 30
0.0
  3
Ejector
  1

  0
LWPOLYLINE
  5
15F3B
330
15F3A
100
AcDbEntity
  8
LAYER01
  6
Continuous
 62
     7
100
AcDbPolyline
 90
        9
 70
     1
 43
0.0
 10
-364.1109878038786
 20
-57.77986329090801
 10
-364.1109878038786
 20
57.77986329090801
 10
-282.05549390194
 20
13.49297013748643
 10
-282.05549390194
 20
100.0000000000002
 10
-232.05549390194
 20
100.0000000000002
 10
-232.05549390194
 20
10.48215909091015
 10
0.0
 20
107.779863290908
 10
0.0
 20
-107.779863290908
 10
-257.0554939019393
 20
0.0
  0
ENDBLK
  5
15F3D
330
15F3A
100
AcDbEntity
  8
0
 62
     7
100
AcDbBlockEnd
  0
ENDSEC
  0
SECTION
  2
ENTITIES
  0
INSERT
  5
17
330
2E3A
100
AcDbEntity
  8
LAYER1
100
AcDbBlockReference
  2
AME_NIL
 10
0.0
 20
0.0
 30
0.0
  0
INSERT
  5
29
330
2E3A
100
AcDbEntity
  8
LAYER1
100
AcDbBlockReference
  2
AME_SOL
 10
0.0
 20
0.0
 30
0.0
1001
AME_SOL
1000
R2.1
1000
AME2
1000
sq m
1070
     3
1070
     0
1070
     3
1000
mesh
1040
45.0
1000
U
1040
1.0
1000
m
1000
gm
1000
MILD_STEEL
1070
    25
1000
CSG
1070
     1
1070
     3
1070
     3
1070
     3
1070
     0
1000
cu cm
1070
     1
1070
     0
1005
17
  0
TEXT
  5
50
330
2E3A
100
AcDbEntity
  8
TEKST
100
AcDbText
 10
11.52210026922298
 20
20.64189715824095
 30
0.0
 40
2.5
  1

  7
ROMANS
100
AcDbText
  0
INSERT
  5
2E80
330
2E3A
100
AcDbEntity
  8
ASHADE
 62
     1
100
AcDbBlockReference
  2
AVE_RENDER
 10
0.0
 20
0.0
 30
0.0
1001
AVE_RENDER
1002
{
1070
     6
1000
Pref
1070
    30
1070
    20
1070
     1
1070
     0
1000

1070
    10
1070
     1
1070
    30
1040
1.0
1070
     1
1040
0.3
1040
0.7
1040
0.0
1040
10.0
1010
-1.0
1020
-1.0
1030
-1.0
1040
0.3
1070
    49
1070
     0
1070
     0
1010
1.0
1020
1.0
1030
1.0
1040
45.0
1070
     1
1070
     0
1000
WCS
1040
0.0
1002
}
  0
INSERT
  5
2E81
330
2E3A
100
AcDbEntity
  8
ASHADE
 62
     3
100
AcDbBlockReference
  2
AVE_RENDER
 10
0.0
 20
0.0
 30
0.0
1001
AVE_RENDER
1002
{
1070
     0
1000
Full Opt
1070
     0
1070
     1
1070
     1
1070
     1
1070
     0
1070
     0
1070
     0
1070
     1
1070
     1
1040
0.0001
1040
0.0001
1002
}
  0
INSERT
  5
2E82
330
2E3A
100
AcDbEntity
  8
ASHADE
 62
     4
100
AcDbBlockReference
  2
AVE_RENDER
 10
0.0
 20
0.0
 30
0.0
1001
AVE_RENDER
1002
{
1070
     0
1000
Quick Opt
1070
     0
1070
     1
1070
     1
1070
     1
1070
     0
1070
     0
1070
     1
1002
}
  0
INSERT
  5
2E83
330
2E3A
100
AcDbEntity
  8
ASHADE
 62
     5
100
AcDbBlockReference
  2
AVE_RENDER
 10
0.0
 20
0.0
 30
0.0
1001
AVE_RENDER
1002
{
1070
     1
1000
Scanl Opt
1070
     2
1070
     0
1070
     2
1040
2.0
1040
4.0
1070
     0
1070
     1
1070
     0
1040
0.03
1002
}
  0
INSERT
  5
2E84
330
2E3A
100
AcDbEntity
  8
ASHADE
 62
     6
100
AcDbBlockReference
  2
AVE_RENDER
 10
0.0
 20
0.0
 30
0.0
1001
AVE_RENDER
1002
{
1070
     2
1000
Raytr Opt
1070
     2
1070
     0
1070
     2
1040
2.0
1040
4.0
1070
     0
1070
     1
1070
     1
1040
0.03
1070
     3
1040
0.03
1002
}
  0
INSERT
  5
2E85
330
2E3A
100
AcDbEntity
  8
ASHADE
 62
     7
100
AcDbBlockReference
  2
AVE_RENDER
 10
0.0
 20
0.0
 30
0.0
1001
AVE_RENDER
1002
{
1070
     0
1000
RFile Opt
1070
     5
1070
   640
1070
   480
1070
 10000
1070
     3
1070
    32
1070
    24
1070
     0
1070
     0
1070
     0
1070
     1
1070
     0
1070
     0
1070
     0
1002
}
  0
INSERT
  5
2E86
330
2E3A
100
AcDbEntity
  8
ASHADE
 62
     8
100
AcDbBlockReference
  2
AVE_RENDER
 10
0.0
 20
0.0
 30
0.0
1001
AVE_RENDER
1002
{
1070
     0
1000
Fog Opt
1070
     0
1070
     0
1040
0.0
1040
1.0
1040
0.0
1040
1.0
1010
0.5
1020
0.5
1030
0.5
1002
}
  0
INSERT
  5
2E87
330
2E3A
100
AcDbEntity
  8
ASHADE
 62
     9
100
AcDbBlockReference
  2
AVE_RENDER
 10
0.0
 20
0.0
 30
0.0
1001
AVE_RENDER
1002
{
1070
     0
1000
BG Opt
1070
     0
1070
     1
1010
0.0
1020
0.0
1030
0.0
1010
1.0
1020
0.0
1030
0.0
1010
0.0
1020
1.0
1030
0.0
1010
0.0
1020
0.0
1030
1.0
1040
0.5
1040
0.33
1040
0.0
1000

1070
     1
1000

1070
     1
1070
     1
1040
1.0
1040
1.0
1040
0.0
1040
0.0
1070
     0
1002
}
  0
INSERT
  5
2E8E
330
2E3A
100
AcDbEntity
  8
ASHADE
 62
     1
100
AcDbBlockReference
  2
AVE_GLOBAL
 10
0.0
 20
0.0
 30
0.0
1001
AVE_MATERIAL
1002
{
1000
*GLOBAL*
1000
1
1000
Global finish.
1002
{
1002
}
1002
{
1070
    63
1002
{
1002
{
1010
-1.0
1020
-1.0
1030
-1.0
1002
}
1040
0.1000000014901161
1000

1040
0.0
1002
{
1002
}
1040
0.0
1002
{
1002
}
1040
0.0
1002
}
1002
{
1002
{
1010
-1.0
1020
-1.0
1030
-1.0
1002
}
1040
0.6999999880790711
1000

1040
0.0
1002
{
1002
}
1040
0.0
1002
{
1002
}
1040
0.0
1002
}
1002
{
1002
{
1010
-1.0
1020
-1.0
1030
-1.0
1002
}
1040
0.2000000029802322
1000

1040
0.0
1002
{
1002
}
1040
0.0
1002
{
1002
}
1040
0.0
1002
}
1002
{
1070
     0
1002
{
1070
     1
1002
{
1040
1.0
1040
1.0
1000

1040
0.0
1002
{
1002
}
1040
0.0
1002
{
1002
}
1040
0.0
1002
}
1002
}
1040
1.0
1040
0.0
1040
0.0
1002
}
1002
{
1040
1.0
1040
1.0
1000

1040
0.0
1002
{
1002
}
1040
0.0
1002
{
1002
}
1040
0.0
1002
}
1002
{
1040
0.5
1040
1.0
1000

1040
0.0
1002
{
1002
}
1040
0.0
1002
{
1002
}
1040
0.0
1002
}
1002
{
1070
     0
1040
0.0
1002
{
1002
}
1040
1.0
1002
{
1002
}
1040
0.0
1002
}
1002
{
1040
0.0
1002
{
1002
{
1010
0.0
1020
0.0
1030
0.0
1002
}
1040
1.0
1000

1040
0.0
1002
{
1002
}
1040
0.0
1002
{
1002
}
1040
0.0
1002
}
1002
}
1002
{
1002
{
1070
     1
1002
{
1040
0.0
1040
1.0
1000

1040
0.0
1002
{
1002
}
1040
0.0
1002
{
1002
}
1040
0.0
1002
}
1002
}
1040
0.0
1002
{
1002
}
1010
1.0
1020
0.0
1030
0.0
1010
0.0
1020
1.0
1030
0.0
1010
0.0
1020
0.0
1030
1.0
1070
     0
1002
}
1002
{
1002
{
1040
1.0
1040
1.0
1002
{
1070
     1
1002
{
1040
1.0
1040
1.0
1000

1040
0.0
1002
{
1002
}
1040
0.0
1002
{
1002
}
1040
0.0
1002
}
1002
}
1002
}
1070
     0
1040
0.0
1002
{
1002
}
1002
}
1002
{
1002
}
1002
}
1002
{
1071
        3
1070
     3
1070
     0
1002
{
1070
     2
1070
     0
1070
     0
1040
0.0
1002
}
1070
     0
1070
     2
1002
{
1002
}
1002
}
1002
{
1040
8030.0
1040
190.3000030517578
1040
0.3050000071525574
1040
228.0
1040
545.0
1040
14.0
1040
17.39999961853027
1040
0.4560000002384186
1002
}
1002
}
  0
INSERT
  5
10E9D
330
2E3A
100
AcDbEntity
  8
LAYER1
100
AcDbBlockReference
  2
AME_NIL
 10
436.8103605630293
 20
-215.6608172053943
 30
0.0
  0
INSERT
  5
10E9E
330
2E3A
100
AcDbEntity
  8
LAYER1
100
AcDbBlockReference
  2
AME_SOL
 10
436.8103605630293
 20
-215.6608172053943
 30
0.0
1001
AME_SOL
1000
R2.1
1000
AME2
1000
sq m
1070
     3
1070
     0
1070
     3
1000
mesh
1040
45.0
1000
U
1040
1.0
1000
m
1000
gm
1000
MILD_STEEL
1070
    25
1000
CSG
1070
     1
1070
     3
1070
     3
1070
     3
1070
     0
1000
cu cm
1070
     1
1070
     0
1005
10E9D
  0
TEXT
  5
10E9F
330
2E3A
100
AcDbEntity
  8
TEKST
100
AcDbText
 10
448.3324608322523
 20
-195.0189200471533
 30
0.0
 40
2.5
  1

  7
ROMANS
100
AcDbText
  0
INSERT
  5
10EA0
330
2E3A
100
AcDbEntity
  8
ASHADE
 62
     1
100
AcDbBlockReference
  2
AVE_RENDER
 10
436.8103605630293
 20
-215.6608172053943
 30
0.0
1001
AVE_RENDER
1002
{
1070
     6
1000
Pref
1070
    30
1070
    20
1070
     1
1070
     0
1000

1070
    10
1070
     1
1070
    30
1040
1.0
1070
     1
1040
0.3
1040
0.7
1040
0.0
1040
10.0
1010
-1.0
1020
-1.0
1030
-1.0
1040
0.3
1070
    49
1070
     0
1070
     0
1010
1.0
1020
1.0
1030
1.0
1040
45.0
1070
     1
1070
     0
1000
WCS
1040
0.0
1002
}
  0
INSERT
  5
10EA1
330
2E3A
100
AcDbEntity
  8
ASHADE
 62
     3
100
AcDbBlockReference
  2
AVE_RENDER
 10
436.8103605630293
 20
-215.6608172053943
 30
0.0
1001
AVE_RENDER
1002
{
1070
     0
1000
Full Opt
1070
     0
1070
     1
1070
     1
1070
     1
1070
     0
1070
     0
1070
     0
1070
     1
1070
     1
1040
0.0001
1040
0.0001
1002
}
  0
INSERT
  5
10EA2
330
2E3A
100
AcDbEntity
  8
ASHADE
 62
     4
100
AcDbBlockReference
  2
AVE_RENDER
 10
436.8103605630293
 20
-215.6608172053943
 30
0.0
1001
AVE_RENDER
1002
{
1070
     0
1000
Quick Opt
1070
     0
1070
     1
1070
     1
1070
     1
1070
     0
1070
     0
1070
     1
1002
}
  0
INSERT
  5
10EA3
330
2E3A
100
AcDbEntity
  8
ASHADE
 62
     5
100
AcDbBlockReference
  2
AVE_RENDER
 10
436.8103605630293
 20
-215.6608172053943
 30
0.0
1001
AVE_RENDER
1002
{
1070
     1
1000
Scanl Opt
1070
     2
1070
     0
1070
     2
1040
2.0
1040
4.0
1070
     0
1070
     1
1070
     0
1040
0.03
1002
}
  0
INSERT
  5
10EA4
330
2E3A
100
AcDbEntity
  8
ASHADE
 62
     6
100
AcDbBlockReference
  2
AVE_RENDER
 10
436.8103605630293
 20
-215.6608172053943
 30
0.0
1001
AVE_RENDER
1002
{
1070
     2
1000
Raytr Opt
1070
     2
1070
     0
1070
     2
1040
2.0
1040
4.0
1070
     0
1070
     1
1070
     1
1040
0.03
1070
     3
1040
0.03
1002
}
  0
INSERT
  5
10EA5
330
2E3A
100
AcDbEntity
  8
ASHADE
 62
     7
100
AcDbBlockReference
  2
AVE_RENDER
 10
436.8103605630293
 20
-215.6608172053943
 30
0.0
1001
AVE_RENDER
1002
{
1070
     0
1000
RFile Opt
1070
     5
1070
   640
1070
   480
1070
 10000
1070
     3
1070
    32
1070
    24
1070
     0
1070
     0
1070
     0
1070
     1
1070
     0
1070
     0
1070
     0
1002
}
  0
INSERT
  5
10EA6
330
2E3A
100
AcDbEntity
  8
ASHADE
 62
     8
100
AcDbBlockReference
  2
AVE_RENDER
 10
436.8103605630293
 20
-215.6608172053943
 30
0.0
1001
AVE_RENDER
1002
{
1070
     0
1000
Fog Opt
1070
     0
1070
     0
1040
0.0
1040
1.0
1040
0.0
1040
1.0
1010
0.5
1020
0.5
1030
0.5
1002
}
  0
INSERT
  5
10EA7
330
2E3A
100
AcDbEntity
  8
ASHADE
 62
     9
100
AcDbBlockReference
  2
AVE_RENDER
 10
436.8103605630293
 20
-215.6608172053943
 30
0.0
1001
AVE_RENDER
1002
{
1070
     0
1000
BG Opt
1070
     0
1070
     1
1010
0.0
1020
0.0
1030
0.0
1010
1.0
1020
0.0
1030
0.0
1010
0.0
1020
1.0
1030
0.0
1010
0.0
1020
0.0
1030
1.0
1040
0.5
1040
0.33
1040
0.0
1000

1070
     1
1000

1070
     1
1070
     1
1040
1.0
1040
1.0
1040
0.0
1040
0.0
1070
     0
1002
}
  0
INSERT
  5
10EA8
330
2E3A
100
AcDbEntity
  8
ASHADE
 62
     1
100
AcDbBlockReference
  2
AVE_GLOBAL
 10
436.8103605630293
 20
-215.6608172053943
 30
0.0
1001
AVE_MATERIAL
1002
{
1000
*GLOBAL*
1000
1
1000
Global finish.
1002
{
1002
}
1002
{
1070
    63
1002
{
1002
{
1010
-1.0
1020
-1.0
1030
-1.0
1002
}
1040
0.1000000014901161
1000

1040
0.0
1002
{
1002
}
1040
0.0
1002
{
1002
}
1040
0.0
1002
}
1002
{
1002
{
1010
-1.0
1020
-1.0
1030
-1.0
1002
}
1040
0.6999999880790711
1000

1040
0.0
1002
{
1002
}
1040
0.0
1002
{
1002
}
1040
0.0
1002
}
1002
{
1002
{
1010
-1.0
1020
-1.0
1030
-1.0
1002
}
1040
0.2000000029802322
1000

1040
0.0
1002
{
1002
}
1040
0.0
1002
{
1002
}
1040
0.0
1002
}
1002
{
1070
     0
1002
{
1070
     1
1002
{
1040
1.0
1040
1.0
1000

1040
0.0
1002
{
1002
}
1040
0.0
1002
{
1002
}
1040
0.0
1002
}
1002
}
1040
1.0
1040
0.0
1040
0.0
1002
}
1002
{
1040
1.0
1040
1.0
1000

1040
0.0
1002
{
1002
}
1040
0.0
1002
{
1002
}
1040
0.0
1002
}
1002
{
1040
0.5
1040
1.0
1000

1040
0.0
1002
{
1002
}
1040
0.0
1002
{
1002
}
1040
0.0
1002
}
1002
{
1070
     0
1040
0.0
1002
{
1002
}
1040
1.0
1002
{
1002
}
1040
0.0
1002
}
1002
{
1040
0.0
1002
{
1002
{
1010
0.0
1020
0.0
1030
0.0
1002
}
1040
1.0
1000

1040
0.0
1002
{
1002
}
1040
0.0
1002
{
1002
}
1040
0.0
1002
}
1002
}
1002
{
1002
{
1070
     1
1002
{
1040
0.0
1040
1.0
1000

1040
0.0
1002
{
1002
}
1040
0.0
1002
{
1002
}
1040
0.0
1002
}
1002
}
1040
0.0
1002
{
1002
}
1010
1.0
1020
0.0
1030
0.0
1010
0.0
1020
1.0
1030
0.0
1010
0.0
1020
0.0
1030
1.0
1070
     0
1002
}
1002
{
1002
{
1040
1.0
1040
1.0
1002
{
1070
     1
1002
{
1040
1.0
1040
1.0
1000

1040
0.0
1002
{
1002
}
1040
0.0
1002
{
1002
}
1040
0.0
1002
}
1002
}
1002
}
1070
     0
1040
0.0
1002
{
1002
}
1002
}
1002
{
1002
}
1002
}
1002
{
1071
        3
1070
     3
1070
     0
1002
{
1070
     2
1070
     0
1070
     0
1040
0.0
1002
}
1070
     0
1070
     2
1002
{
1002
}
1002
}
1002
{
1040
8030.0
1040
190.3000030517578
1040
0.3050000071525574
1040
228.0
1040
545.0
1040
14.0
1040
17.39999961853027
1040
0.4560000002384186
1002
}
1002
}
  0
TEXT
  5
10EA9
330
2E3A
100
AcDbEntity
  8
0
 62
     7
 48
5.0
100
AcDbText
 10
-1248.752895886679
 20
165.3686324960031
 30
0.0
 40
3.809829827610412
  1
 
 41
0.75
100
AcDbText
  0
INSERT
  5
10EAA
330
2E3A
100
AcDbEntity
  8
LAYER1
100
AcDbBlockReference
  2
AME_NIL
 10
-2402.748217515968
 20
517.4898289907482
 30
0.0
  0
INSERT
  5
10EAB
330
2E3A
100
AcDbEntity
  8
LAYER1
100
AcDbBlockReference
  2
AME_SOL
 10
-2402.748217515968
 20
517.4898289907482
 30
0.0
1001
AME_SOL
1000
R2.1
1000
AME2
1000
sq m
1070
     3
1070
     0
1070
     3
1000
mesh
1040
45.0
1000
U
1040
1.0
1000
m
1000
gm
1000
MILD_STEEL
1070
    25
1000
CSG
1070
     1
1070
     3
1070
     3
1070
     3
1070
     0
1000
cu cm
1070
     1
1070
     0
1005
10EAA
  0
TEXT
  5
10EAC
330
2E3A
100
AcDbEntity
  8
TEKST
100
AcDbText
 10
-2391.226117246745
 20
538.1317261489892
 30
0.0
 40
2.5
  1

  7
ROMANS
100
AcDbText
  0
INSERT
  5
10EAD
330
2E3A
100
AcDbEntity
  8
ASHADE
 62
     1
100
AcDbBlockReference
  2
AVE_RENDER
 10
-2402.748217515968
 20
517.4898289907482
 30
0.0
1001
AVE_RENDER
1002
{
1070
     6
1000
Pref
1070
    30
1070
    20
1070
     1
1070
     0
1000

1070
    10
1070
     1
1070
    30
1040
1.0
1070
     1
1040
0.3
1040
0.7
1040
0.0
1040
10.0
1010
-1.0
1020
-1.0
1030
-1.0
1040
0.3
1070
    49
1070
     0
1070
     0
1010
1.0
1020
1.0
1030
1.0
1040
45.0
1070
     1
1070
     0
1000
WCS
1040
0.0
1002
}
  0
INSERT
  5
10EAE
330
2E3A
100
AcDbEntity
  8
ASHADE
 62
     3
100
AcDbBlockReference
  2
AVE_RENDER
 10
-2402.748217515968
 20
517.4898289907482
 30
0.0
1001
AVE_RENDER
1002
{
1070
     0
1000
Full Opt
1070
     0
1070
     1
1070
     1
1070
     1
1070
     0
1070
     0
1070
     0
1070
     1
1070
     1
1040
0.0001
1040
0.0001
1002
}
  0
INSERT
  5
10EAF
330
2E3A
100
AcDbEntity
  8
ASHADE
 62
     4
100
AcDbBlockReference
  2
AVE_RENDER
 10
-2402.748217515968
 20
517.4898289907482
 30
0.0
1001
AVE_RENDER
1002
{
1070
     0
1000
Quick Opt
1070
     0
1070
     1
1070
     1
1070
     1
1070
     0
1070
     0
1070
     1
1002
}
  0
INSERT
  5
10EB0
330
2E3A
100
AcDbEntity
  8
ASHADE
 62
     5
100
AcDbBlockReference
  2
AVE_RENDER
 10
-2402.748217515968
 20
517.4898289907482
 30
0.0
1001
AVE_RENDER
1002
{
1070
     1
1000
Scanl Opt
1070
     2
1070
     0
1070
     2
1040
2.0
1040
4.0
1070
     0
1070
     1
1070
     0
1040
0.03
1002
}
  0
INSERT
  5
10EB1
330
2E3A
100
AcDbEntity
  8
ASHADE
 62
     6
100
AcDbBlockReference
  2
AVE_RENDER
 10
-2402.748217515968
 20
517.4898289907482
 30
0.0
1001
AVE_RENDER
1002
{
1070
     2
1000
Raytr Opt
1070
     2
1070
     0
1070
     2
1040
2.0
1040
4.0
1070
     0
1070
     1
1070
     1
1040
0.03
1070
     3
1040
0.03
1002
}
  0
INSERT
  5
10EB2
330
2E3A
100
AcDbEntity
  8
ASHADE
 62
     7
100
AcDbBlockReference
  2
AVE_RENDER
 10
-2402.748217515968
 20
517.4898289907482
 30
0.0
1001
AVE_RENDER
1002
{
1070
     0
1000
RFile Opt
1070
     5
1070
   640
1070
   480
1070
 10000
1070
     3
1070
    32
1070
    24
1070
     0
1070
     0
1070
     0
1070
     1
1070
     0
1070
     0
1070
     0
1002
}
  0
INSERT
  5
10EB3
330
2E3A
100
AcDbEntity
  8
ASHADE
 62
     8
100
AcDbBlockReference
  2
AVE_RENDER
 10
-2402.748217515968
 20
517.4898289907482
 30
0.0
1001
AVE_RENDER
1002
{
1070
     0
1000
Fog Opt
1070
     0
1070
     0
1040
0.0
1040
1.0
1040
0.0
1040
1.0
1010
0.5
1020
0.5
1030
0.5
1002
}
  0
INSERT
  5
10EB4
330
2E3A
100
AcDbEntity
  8
ASHADE
 62
     9
100
AcDbBlockReference
  2
AVE_RENDER
 10
-2402.748217515968
 20
517.4898289907482
 30
0.0
1001
AVE_RENDER
1002
{
1070
     0
1000
BG Opt
1070
     0
1070
     1
1010
0.0
1020
0.0
1030
0.0
1010
1.0
1020
0.0
1030
0.0
1010
0.0
1020
1.0
1030
0.0
1010
0.0
1020
0.0
1030
1.0
1040
0.5
1040
0.33
1040
0.0
1000

1070
     1
1000

1070
     1
1070
     1
1040
1.0
1040
1.0
1040
0.0
1040
0.0
1070
     0
1002
}
  0
INSERT
  5
10EB5
330
2E3A
100
AcDbEntity
  8
ASHADE
 62
     1
100
AcDbBlockReference
  2
AVE_GLOBAL
 10
-2402.748217515968
 20
517.4898289907482
 30
0.0
1001
AVE_MATERIAL
1002
{
1000
*GLOBAL*
1000
1
1000
Global finish.
1002
{
1002
}
1002
{
1070
    63
1002
{
1002
{
1010
-1.0
1020
-1.0
1030
-1.0
1002
}
1040
0.1000000014901161
1000

1040
0.0
1002
{
1002
}
1040
0.0
1002
{
1002
}
1040
0.0
1002
}
1002
{
1002
{
1010
-1.0
1020
-1.0
1030
-1.0
1002
}
1040
0.6999999880790711
1000

1040
0.0
1002
{
1002
}
1040
0.0
1002
{
1002
}
1040
0.0
1002
}
1002
{
1002
{
1010
-1.0
1020
-1.0
1030
-1.0
1002
}
1040
0.2000000029802322
1000

1040
0.0
1002
{
1002
}
1040
0.0
1002
{
1002
}
1040
0.0
1002
}
1002
{
1070
     0
1002
{
1070
     1
1002
{
1040
1.0
1040
1.0
1000

1040
0.0
1002
{
1002
}
1040
0.0
1002
{
1002
}
1040
0.0
1002
}
1002
}
1040
1.0
1040
0.0
1040
0.0
1002
}
1002
{
1040
1.0
1040
1.0
1000

1040
0.0
1002
{
1002
}
1040
0.0
1002
{
1002
}
1040
0.0
1002
}
1002
{
1040
0.5
1040
1.0
1000

1040
0.0
1002
{
1002
}
1040
0.0
1002
{
1002
}
1040
0.0
1002
}
1002
{
1070
     0
1040
0.0
1002
{
1002
}
1040
1.0
1002
{
1002
}
1040
0.0
1002
}
1002
{
1040
0.0
1002
{
1002
{
1010
0.0
1020
0.0
1030
0.0
1002
}
1040
1.0
1000

1040
0.0
1002
{
1002
}
1040
0.0
1002
{
1002
}
1040
0.0
1002
}
1002
}
1002
{
1002
{
1070
     1
1002
{
1040
0.0
1040
1.0
1000

1040
0.0
1002
{
1002
}
1040
0.0
1002
{
1002
}
1040
0.0
1002
}
1002
}
1040
0.0
1002
{
1002
}
1010
1.0
1020
0.0
1030
0.0
1010
0.0
1020
1.0
1030
0.0
1010
0.0
1020
0.0
1030
1.0
1070
     0
1002
}
1002
{
1002
{
1040
1.0
1040
1.0
1002
{
1070
     1
1002
{
1040
1.0
1040
1.0
1000

1040
0.0
1002
{
1002
}
1040
0.0
1002
{
1002
}
1040
0.0
1002
}
1002
}
1002
}
1070
     0
1040
0.0
1002
{
1002
}
1002
}
1002
{
1002
}
1002
}
1002
{
1071
        3
1070
     3
1070
     0
1002
{
1070
     2
1070
     0
1070
     0
1040
0.0
1002
}
1070
     0
1070
     2
1002
{
1002
}
1002
}
1002
{
1040
8030.0
1040
190.3000030517578
1040
0.3050000071525574
1040
228.0
1040
545.0
1040
14.0
1040
17.39999961853027
1040
0.4560000002384186
1002
}
1002
}
  0
INSERT
  5
10EB6
330
2E3A
100
AcDbEntity
  8
LAYER1
100
AcDbBlockReference
  2
AME_NIL
 10
-484.0180840161846
 20
686.0103158393807
 30
0.0
  0
INSERT
  5
10EB7
330
2E3A
100
AcDbEntity
  8
LAYER1
100
AcDbBlockReference
  2
AME_SOL
 10
-484.0180840161846
 20
686.0103158393807
 30
0.0
1001
AME_SOL
1000
R2.1
1000
AME2
1000
sq m
1070
     3
1070
     0
1070
     3
1000
mesh
1040
45.0
1000
U
1040
1.0
1000
m
1000
gm
1000
MILD_STEEL
1070
    25
1000
CSG
1070
     1
1070
     3
1070
     3
1070
     3
1070
     0
1000
cu cm
1070
     1
1070
     0
1005
10EB6
  0
TEXT
  5
10EB8
330
2E3A
100
AcDbEntity
  8
TEKST
100
AcDbText
 10
-472.4959837469618
 20
706.6522129976217
 30
0.0
 40
2.5
  1

  7
ROMANS
100
AcDbText
  0
INSERT
  5
10EB9
330
2E3A
100
AcDbEntity
  8
ASHADE
 62
     1
100
AcDbBlockReference
  2
AVE_RENDER
 10
-484.0180840161846
 20
686.0103158393807
 30
0.0
1001
AVE_RENDER
1002
{
1070
     6
1000
Pref
1070
    30
1070
    20
1070
     1
1070
     0
1000

1070
    10
1070
     1
1070
    30
1040
1.0
1070
     1
1040
0.3
1040
0.7
1040
0.0
1040
10.0
1010
-1.0
1020
-1.0
1030
-1.0
1040
0.3
1070
    49
1070
     0
1070
     0
1010
1.0
1020
1.0
1030
1.0
1040
45.0
1070
     1
1070
     0
1000
WCS
1040
0.0
1002
}
  0
INSERT
  5
10EBA
330
2E3A
100
AcDbEntity
  8
ASHADE
 62
     3
100
AcDbBlockReference
  2
AVE_RENDER
 10
-484.0180840161846
 20
686.0103158393807
 30
0.0
1001
AVE_RENDER
1002
{
1070
     0
1000
Full Opt
1070
     0
1070
     1
1070
     1
1070
     1
1070
     0
1070
     0
1070
     0
1070
     1
1070
     1
1040
0.0001
1040
0.0001
1002
}
  0
INSERT
  5
10EBB
330
2E3A
100
AcDbEntity
  8
ASHADE
 62
     4
100
AcDbBlockReference
  2
AVE_RENDER
 10
-484.0180840161846
 20
686.0103158393807
 30
0.0
1001
AVE_RENDER
1002
{
1070
     0
1000
Quick Opt
1070
     0
1070
     1
1070
     1
1070
     1
1070
     0
1070
     0
1070
     1
1002
}
  0
INSERT
  5
10EBC
330
2E3A
100
AcDbEntity
  8
ASHADE
 62
     5
100
AcDbBlockReference
  2
AVE_RENDER
 10
-484.0180840161846
 20
686.0103158393807
 30
0.0
1001
AVE_RENDER
1002
{
1070
     1
1000
Scanl Opt
1070
     2
1070
     0
1070
     2
1040
2.0
1040
4.0
1070
     0
1070
     1
1070
     0
1040
0.03
1002
}
  0
INSERT
  5
10EBD
330
2E3A
100
AcDbEntity
  8
ASHADE
 62
     6
100
AcDbBlockReference
  2
AVE_RENDER
 10
-484.0180840161846
 20
686.0103158393807
 30
0.0
1001
AVE_RENDER
1002
{
1070
     2
1000
Raytr Opt
1070
     2
1070
     0
1070
     2
1040
2.0
1040
4.0
1070
     0
1070
     1
1070
     1
1040
0.03
1070
     3
1040
0.03
1002
}
  0
INSERT
  5
10EBE
330
2E3A
100
AcDbEntity
  8
ASHADE
 62
     7
100
AcDbBlockReference
  2
AVE_RENDER
 10
-484.0180840161846
 20
686.0103158393807
 30
0.0
1001
AVE_RENDER
1002
{
1070
     0
1000
RFile Opt
1070
     5
1070
   640
1070
   480
1070
 10000
1070
     3
1070
    32
1070
    24
1070
     0
1070
     0
1070
     0
1070
     1
1070
     0
1070
     0
1070
     0
1002
}
  0
INSERT
  5
10EBF
330
2E3A
100
AcDbEntity
  8
ASHADE
 62
     8
100
AcDbBlockReference
  2
AVE_RENDER
 10
-484.0180840161846
 20
686.0103158393807
 30
0.0
1001
AVE_RENDER
1002
{
1070
     0
1000
Fog Opt
1070
     0
1070
     0
1040
0.0
1040
1.0
1040
0.0
1040
1.0
1010
0.5
1020
0.5
1030
0.5
1002
}
  0
INSERT
  5
10EC0
330
2E3A
100
AcDbEntity
  8
ASHADE
 62
     9
100
AcDbBlockReference
  2
AVE_RENDER
 10
-484.0180840161846
 20
686.0103158393807
 30
0.0
1001
AVE_RENDER
1002
{
1070
     0
1000
BG Opt
1070
     0
1070
     1
1010
0.0
1020
0.0
1030
0.0
1010
1.0
1020
0.0
1030
0.0
1010
0.0
1020
1.0
1030
0.0
1010
0.0
1020
0.0
1030
1.0
1040
0.5
1040
0.33
1040
0.0
1000

1070
     1
1000

1070
     1
1070
     1
1040
1.0
1040
1.0
1040
0.0
1040
0.0
1070
     0
1002
}
  0
INSERT
  5
10EC1
330
2E3A
100
AcDbEntity
  8
ASHADE
 62
     1
100
AcDbBlockReference
  2
AVE_GLOBAL
 10
-484.0180840161846
 20
686.0103158393807
 30
0.0
1001
AVE_MATERIAL
1002
{
1000
*GLOBAL*
1000
1
1000
Global finish.
1002
{
1002
}
1002
{
1070
    63
1002
{
1002
{
1010
-1.0
1020
-1.0
1030
-1.0
1002
}
1040
0.1000000014901161
1000

1040
0.0
1002
{
1002
}
1040
0.0
1002
{
1002
}
1040
0.0
1002
}
1002
{
1002
{
1010
-1.0
1020
-1.0
1030
-1.0
1002
}
1040
0.6999999880790711
1000

1040
0.0
1002
{
1002
}
1040
0.0
1002
{
1002
}
1040
0.0
1002
}
1002
{
1002
{
1010
-1.0
1020
-1.0
1030
-1.0
1002
}
1040
0.2000000029802322
1000

1040
0.0
1002
{
1002
}
1040
0.0
1002
{
1002
}
1040
0.0
1002
}
1002
{
1070
     0
1002
{
1070
     1
1002
{
1040
1.0
1040
1.0
1000

1040
0.0
1002
{
1002
}
1040
0.0
1002
{
1002
}
1040
0.0
1002
}
1002
}
1040
1.0
1040
0.0
1040
0.0
1002
}
1002
{
1040
1.0
1040
1.0
1000

1040
0.0
1002
{
1002
}
1040
0.0
1002
{
1002
}
1040
0.0
1002
}
1002
{
1040
0.5
1040
1.0
1000

1040
0.0
1002
{
1002
}
1040
0.0
1002
{
1002
}
1040
0.0
1002
}
1002
{
1070
     0
1040
0.0
1002
{
1002
}
1040
1.0
1002
{
1002
}
1040
0.0
1002
}
1002
{
1040
0.0
1002
{
1002
{
1010
0.0
1020
0.0
1030
0.0
1002
}
1040
1.0
1000

1040
0.0
1002
{
1002
}
1040
0.0
1002
{
1002
}
1040
0.0
1002
}
1002
}
1002
{
1002
{
1070
     1
1002
{
1040
0.0
1040
1.0
1000

1040
0.0
1002
{
1002
}
1040
0.0
1002
{
1002
}
1040
0.0
1002
}
1002
}
1040
0.0
1002
{
1002
}
1010
1.0
1020
0.0
1030
0.0
1010
0.0
1020
1.0
1030
0.0
1010
0.0
1020
0.0
1030
1.0
1070
     0
1002
}
1002
{
1002
{
1040
1.0
1040
1.0
1002
{
1070
     1
1002
{
1040
1.0
1040
1.0
1000

1040
0.0
1002
{
1002
}
1040
0.0
1002
{
1002
}
1040
0.0
1002
}
1002
}
1002
}
1070
     0
1040
0.0
1002
{
1002
}
1002
}
1002
{
1002
}
1002
}
1002
{
1071
        3
1070
     3
1070
     0
1002
{
1070
     2
1070
     0
1070
     0
1040
0.0
1002
}
1070
     0
1070
     2
1002
{
1002
}
1002
}
1002
{
1040
8030.0
1040
190.3000030517578
1040
0.3050000071525574
1040
228.0
1040
545.0
1040
14.0
1040
17.39999961853027
1040
0.4560000002384186
1002
}
1002
}
  0
TEXT
  5
10EC2
330
2E3A
100
AcDbEntity
  8
0
 62
     7
 48
5.0
100
AcDbText
 10
-2169.581340465893
 20
1067.039765540778
 30
0.0
 40
3.809829827610412
  1
 
 41
0.75
100
AcDbText
  0
INSERT
  5
13A16
330
2E3A
100
AcDbEntity
  8
LAYER1
100
AcDbBlockReference
  2
AME_NIL
 10
1127.527252663858
 20
-264.6230569512117
 30
0.0
  0
INSERT
  5
13A17
330
2E3A
100
AcDbEntity
  8
LAYER1
100
AcDbBlockReference
  2
AME_SOL
 10
1127.527252663858
 20
-264.6230569512117
 30
0.0
1001
AME_SOL
1000
R2.1
1000
AME2
1000
sq m
1070
     3
1070
     0
1070
     3
1000
mesh
1040
45.0
1000
U
1040
1.0
1000
m
1000
gm
1000
MILD_STEEL
1070
    25
1000
CSG
1070
     1
1070
     3
1070
     3
1070
     3
1070
     0
1000
cu cm
1070
     1
1070
     0
1005
13A16
  0
TEXT
  5
13A18
330
2E3A
100
AcDbEntity
  8
TEKST
100
AcDbText
 10
1139.049352933081
 20
-243.9811597929708
 30
0.0
 40
2.5
  1

  7
ROMANS
100
AcDbText
  0
INSERT
  5
13A19
330
2E3A
100
AcDbEntity
  8
ASHADE
 62
     1
100
AcDbBlockReference
  2
AVE_RENDER
 10
1127.527252663858
 20
-264.6230569512117
 30
0.0
1001
AVE_RENDER
1002
{
1070
     6
1000
Pref
1070
    30
1070
    20
1070
     1
1070
     0
1000

1070
    10
1070
     1
1070
    30
1040
1.0
1070
     1
1040
0.3
1040
0.7
1040
0.0
1040
10.0
1010
-1.0
1020
-1.0
1030
-1.0
1040
0.3
1070
    49
1070
     0
1070
     0
1010
1.0
1020
1.0
1030
1.0
1040
45.0
1070
     1
1070
     0
1000
WCS
1040
0.0
1002
}
  0
INSERT
  5
13A1A
330
2E3A
100
AcDbEntity
  8
ASHADE
 62
     3
100
AcDbBlockReference
  2
AVE_RENDER
 10
1127.527252663858
 20
-264.6230569512117
 30
0.0
1001
AVE_RENDER
1002
{
1070
     0
1000
Full Opt
1070
     0
1070
     1
1070
     1
1070
     1
1070
     0
1070
     0
1070
     0
1070
     1
1070
     1
1040
0.0001
1040
0.0001
1002
}
  0
INSERT
  5
13A1B
330
2E3A
100
AcDbEntity
  8
ASHADE
 62
     4
100
AcDbBlockReference
  2
AVE_RENDER
 10
1127.527252663858
 20
-264.6230569512117
 30
0.0
1001
AVE_RENDER
1002
{
1070
     0
1000
Quick Opt
1070
     0
1070
     1
1070
     1
1070
     1
1070
     0
1070
     0
1070
     1
1002
}
  0
INSERT
  5
13A1C
330
2E3A
100
AcDbEntity
  8
ASHADE
 62
     5
100
AcDbBlockReference
  2
AVE_RENDER
 10
1127.527252663858
 20
-264.6230569512117
 30
0.0
1001
AVE_RENDER
1002
{
1070
     1
1000
Scanl Opt
1070
     2
1070
     0
1070
     2
1040
2.0
1040
4.0
1070
     0
1070
     1
1070
     0
1040
0.03
1002
}
  0
INSERT
  5
13A1D
330
2E3A
100
AcDbEntity
  8
ASHADE
 62
     6
100
AcDbBlockReference
  2
AVE_RENDER
 10
1127.527252663858
 20
-264.6230569512117
 30
0.0
1001
AVE_RENDER
1002
{
1070
     2
1000
Raytr Opt
1070
     2
1070
     0
1070
     2
1040
2.0
1040
4.0
1070
     0
1070
     1
1070
     1
1040
0.03
1070
     3
1040
0.03
1002
}
  0
INSERT
  5
13A1E
330
2E3A
100
AcDbEntity
  8
ASHADE
 62
     7
100
AcDbBlockReference
  2
AVE_RENDER
 10
1127.527252663858
 20
-264.6230569512117
 30
0.0
1001
AVE_RENDER
1002
{
1070
     0
1000
RFile Opt
1070
     5
1070
   640
1070
   480
1070
 10000
1070
     3
1070
    32
1070
    24
1070
     0
1070
     0
1070
     0
1070
     1
1070
     0
1070
     0
1070
     0
1002
}
  0
INSERT
  5
13A1F
330
2E3A
100
AcDbEntity
  8
ASHADE
 62
     8
100
AcDbBlockReference
  2
AVE_RENDER
 10
1127.527252663858
 20
-264.6230569512117
 30
0.0
1001
AVE_RENDER
1002
{
1070
     0
1000
Fog Opt
1070
     0
1070
     0
1040
0.0
1040
1.0
1040
0.0
1040
1.0
1010
0.5
1020
0.5
1030
0.5
1002
}
  0
INSERT
  5
13A20
330
2E3A
100
AcDbEntity
  8
ASHADE
 62
     9
100
AcDbBlockReference
  2
AVE_RENDER
 10
1127.527252663858
 20
-264.6230569512117
 30
0.0
1001
AVE_RENDER
1002
{
1070
     0
1000
BG Opt
1070
     0
1070
     1
1010
0.0
1020
0.0
1030
0.0
1010
1.0
1020
0.0
1030
0.0
1010
0.0
1020
1.0
1030
0.0
1010
0.0
1020
0.0
1030
1.0
1040
0.5
1040
0.33
1040
0.0
1000

1070
     1
1000

1070
     1
1070
     1
1040
1.0
1040
1.0
1040
0.0
1040
0.0
1070
     0
1002
}
  0
INSERT
  5
13A21
330
2E3A
100
AcDbEntity
  8
ASHADE
 62
     1
100
AcDbBlockReference
  2
AVE_GLOBAL
 10
1127.527252663858
 20
-264.6230569512117
 30
0.0
1001
AVE_MATERIAL
1002
{
1000
*GLOBAL*
1000
1
1000
Global finish.
1002
{
1002
}
1002
{
1070
    63
1002
{
1002
{
1010
-1.0
1020
-1.0
1030
-1.0
1002
}
1040
0.1000000014901161
1000

1040
0.0
1002
{
1002
}
1040
0.0
1002
{
1002
}
1040
0.0
1002
}
1002
{
1002
{
1010
-1.0
1020
-1.0
1030
-1.0
1002
}
1040
0.6999999880790711
1000

1040
0.0
1002
{
1002
}
1040
0.0
1002
{
1002
}
1040
0.0
1002
}
1002
{
1002
{
1010
-1.0
1020
-1.0
1030
-1.0
1002
}
1040
0.2000000029802322
1000

1040
0.0
1002
{
1002
}
1040
0.0
1002
{
1002
}
1040
0.0
1002
}
1002
{
1070
     0
1002
{
1070
     1
1002
{
1040
1.0
1040
1.0
1000

1040
0.0
1002
{
1002
}
1040
0.0
1002
{
1002
}
1040
0.0
1002
}
1002
}
1040
1.0
1040
0.0
1040
0.0
1002
}
1002
{
1040
1.0
1040
1.0
1000

1040
0.0
1002
{
1002
}
1040
0.0
1002
{
1002
}
1040
0.0
1002
}
1002
{
1040
0.5
1040
1.0
1000

1040
0.0
1002
{
1002
}
1040
0.0
1002
{
1002
}
1040
0.0
1002
}
1002
{
1070
     0
1040
0.0
1002
{
1002
}
1040
1.0
1002
{
1002
}
1040
0.0
1002
}
1002
{
1040
0.0
1002
{
1002
{
1010
0.0
1020
0.0
1030
0.0
1002
}
1040
1.0
1000

1040
0.0
1002
{
1002
}
1040
0.0
1002
{
1002
}
1040
0.0
1002
}
1002
}
1002
{
1002
{
1070
     1
1002
{
1040
0.0
1040
1.0
1000

1040
0.0
1002
{
1002
}
1040
0.0
1002
{
1002
}
1040
0.0
1002
}
1002
}
1040
0.0
1002
{
1002
}
1010
1.0
1020
0.0
1030
0.0
1010
0.0
1020
1.0
1030
0.0
1010
0.0
1020
0.0
1030
1.0
1070
     0
1002
}
1002
{
1002
{
1040
1.0
1040
1.0
1002
{
1070
     1
1002
{
1040
1.0
1040
1.0
1000

1040
0.0
1002
{
1002
}
1040
0.0
1002
{
1002
}
1040
0.0
1002
}
1002
}
1002
}
1070
     0
1040
0.0
1002
{
1002
}
1002
}
1002
{
1002
}
1002
}
1002
{
1071
        3
1070
     3
1070
     0
1002
{
1070
     2
1070
     0
1070
     0
1040
0.0
1002
}
1070
     0
1070
     2
1002
{
1002
}
1002
}
1002
{
1040
8030.0
1040
190.3000030517578
1040
0.3050000071525574
1040
228.0
1040
545.0
1040
14.0
1040
17.39999961853027
1040
0.4560000002384186
1002
}
1002
}
  0
TEXT
  5
13A22
330
2E3A
100
AcDbEntity
  8
0
 62
     7
 48
5.0
100
AcDbText
 10
-558.0360037858501
 20
116.4063927501858
 30
0.0
 40
3.809829827610412
  1
 
 41
0.75
100
AcDbText
  0
INSERT
  5
13A23
330
2E3A
100
AcDbEntity
  8
LAYER1
100
AcDbBlockReference
  2
AME_NIL
 10
-1712.031325415138
 20
468.5275892449308
 30
0.0
  0
INSERT
  5
13A24
330
2E3A
100
AcDbEntity
  8
LAYER1
100
AcDbBlockReference
  2
AME_SOL
 10
-1712.031325415138
 20
468.5275892449308
 30
0.0
1001
AME_SOL
1000
R2.1
1000
AME2
1000
sq m
1070
     3
1070
     0
1070
     3
1000
mesh
1040
45.0
1000
U
1040
1.0
1000
m
1000
gm
1000
MILD_STEEL
1070
    25
1000
CSG
1070
     1
1070
     3
1070
     3
1070
     3
1070
     0
1000
cu cm
1070
     1
1070
     0
1005
13A23
  0
TEXT
  5
13A25
330
2E3A
100
AcDbEntity
  8
TEKST
100
AcDbText
 10
-1700.509225145916
 20
489.1694864031718
 30
0.0
 40
2.5
  1

  7
ROMANS
100
AcDbText
  0
INSERT
  5
13A26
330
2E3A
100
AcDbEntity
  8
ASHADE
 62
     1
100
AcDbBlockReference
  2
AVE_RENDER
 10
-1712.031325415138
 20
468.5275892449308
 30
0.0
1001
AVE_RENDER
1002
{
1070
     6
1000
Pref
1070
    30
1070
    20
1070
     1
1070
     0
1000

1070
    10
1070
     1
1070
    30
1040
1.0
1070
     1
1040
0.3
1040
0.7
1040
0.0
1040
10.0
1010
-1.0
1020
-1.0
1030
-1.0
1040
0.3
1070
    49
1070
     0
1070
     0
1010
1.0
1020
1.0
1030
1.0
1040
45.0
1070
     1
1070
     0
1000
WCS
1040
0.0
1002
}
  0
INSERT
  5
13A27
330
2E3A
100
AcDbEntity
  8
ASHADE
 62
     3
100
AcDbBlockReference
  2
AVE_RENDER
 10
-1712.031325415138
 20
468.5275892449308
 30
0.0
1001
AVE_RENDER
1002
{
1070
     0
1000
Full Opt
1070
     0
1070
     1
1070
     1
1070
     1
1070
     0
1070
     0
1070
     0
1070
     1
1070
     1
1040
0.0001
1040
0.0001
1002
}
  0
INSERT
  5
13A28
330
2E3A
100
AcDbEntity
  8
ASHADE
 62
     4
100
AcDbBlockReference
  2
AVE_RENDER
 10
-1712.031325415138
 20
468.5275892449308
 30
0.0
1001
AVE_RENDER
1002
{
1070
     0
1000
Quick Opt
1070
     0
1070
     1
1070
     1
1070
     1
1070
     0
1070
     0
1070
     1
1002
}
  0
INSERT
  5
13A29
330
2E3A
100
AcDbEntity
  8
ASHADE
 62
     5
100
AcDbBlockReference
  2
AVE_RENDER
 10
-1712.031325415138
 20
468.5275892449308
 30
0.0
1001
AVE_RENDER
1002
{
1070
     1
1000
Scanl Opt
1070
     2
1070
     0
1070
     2
1040
2.0
1040
4.0
1070
     0
1070
     1
1070
     0
1040
0.03
1002
}
  0
INSERT
  5
13A2A
330
2E3A
100
AcDbEntity
  8
ASHADE
 62
     6
100
AcDbBlockReference
  2
AVE_RENDER
 10
-1712.031325415138
 20
468.5275892449308
 30
0.0
1001
AVE_RENDER
1002
{
1070
     2
1000
Raytr Opt
1070
     2
1070
     0
1070
     2
1040
2.0
1040
4.0
1070
     0
1070
     1
1070
     1
1040
0.03
1070
     3
1040
0.03
1002
}
  0
INSERT
  5
13A2B
330
2E3A
100
AcDbEntity
  8
ASHADE
 62
     7
100
AcDbBlockReference
  2
AVE_RENDER
 10
-1712.031325415138
 20
468.5275892449308
 30
0.0
1001
AVE_RENDER
1002
{
1070
     0
1000
RFile Opt
1070
     5
1070
   640
1070
   480
1070
 10000
1070
     3
1070
    32
1070
    24
1070
     0
1070
     0
1070
     0
1070
     1
1070
     0
1070
     0
1070
     0
1002
}
  0
INSERT
  5
13A2C
330
2E3A
100
AcDbEntity
  8
ASHADE
 62
     8
100
AcDbBlockReference
  2
AVE_RENDER
 10
-1712.031325415138
 20
468.5275892449308
 30
0.0
1001
AVE_RENDER
1002
{
1070
     0
1000
Fog Opt
1070
     0
1070
     0
1040
0.0
1040
1.0
1040
0.0
1040
1.0
1010
0.5
1020
0.5
1030
0.5
1002
}
  0
INSERT
  5
13A2D
330
2E3A
100
AcDbEntity
  8
ASHADE
 62
     9
100
AcDbBlockReference
  2
AVE_RENDER
 10
-1712.031325415138
 20
468.5275892449308
 30
0.0
1001
AVE_RENDER
1002
{
1070
     0
1000
BG Opt
1070
     0
1070
     1
1010
0.0
1020
0.0
1030
0.0
1010
1.0
1020
0.0
1030
0.0
1010
0.0
1020
1.0
1030
0.0
1010
0.0
1020
0.0
1030
1.0
1040
0.5
1040
0.33
1040
0.0
1000

1070
     1
1000

1070
     1
1070
     1
1040
1.0
1040
1.0
1040
0.0
1040
0.0
1070
     0
1002
}
  0
INSERT
  5
13A2E
330
2E3A
100
AcDbEntity
  8
ASHADE
 62
     1
100
AcDbBlockReference
  2
AVE_GLOBAL
 10
-1712.031325415138
 20
468.5275892449308
 30
0.0
1001
AVE_MATERIAL
1002
{
1000
*GLOBAL*
1000
1
1000
Global finish.
1002
{
1002
}
1002
{
1070
    63
1002
{
1002
{
1010
-1.0
1020
-1.0
1030
-1.0
1002
}
1040
0.1000000014901161
1000

1040
0.0
1002
{
1002
}
1040
0.0
1002
{
1002
}
1040
0.0
1002
}
1002
{
1002
{
1010
-1.0
1020
-1.0
1030
-1.0
1002
}
1040
0.6999999880790711
1000

1040
0.0
1002
{
1002
}
1040
0.0
1002
{
1002
}
1040
0.0
1002
}
1002
{
1002
{
1010
-1.0
1020
-1.0
1030
-1.0
1002
}
1040
0.2000000029802322
1000

1040
0.0
1002
{
1002
}
1040
0.0
1002
{
1002
}
1040
0.0
1002
}
1002
{
1070
     0
1002
{
1070
     1
1002
{
1040
1.0
1040
1.0
1000

1040
0.0
1002
{
1002
}
1040
0.0
1002
{
1002
}
1040
0.0
1002
}
1002
}
1040
1.0
1040
0.0
1040
0.0
1002
}
1002
{
1040
1.0
1040
1.0
1000

1040
0.0
1002
{
1002
}
1040
0.0
1002
{
1002
}
1040
0.0
1002
}
1002
{
1040
0.5
1040
1.0
1000

1040
0.0
1002
{
1002
}
1040
0.0
1002
{
1002
}
1040
0.0
1002
}
1002
{
1070
     0
1040
0.0
1002
{
1002
}
1040
1.0
1002
{
1002
}
1040
0.0
1002
}
1002
{
1040
0.0
1002
{
1002
{
1010
0.0
1020
0.0
1030
0.0
1002
}
1040
1.0
1000

1040
0.0
1002
{
1002
}
1040
0.0
1002
{
1002
}
1040
0.0
1002
}
1002
}
1002
{
1002
{
1070
     1
1002
{
1040
0.0
1040
1.0
1000

1040
0.0
1002
{
1002
}
1040
0.0
1002
{
1002
}
1040
0.0
1002
}
1002
}
1040
0.0
1002
{
1002
}
1010
1.0
1020
0.0
1030
0.0
1010
0.0
1020
1.0
1030
0.0
1010
0.0
1020
0.0
1030
1.0
1070
     0
1002
}
1002
{
1002
{
1040
1.0
1040
1.0
1002
{
1070
     1
1002
{
1040
1.0
1040
1.0
1000

1040
0.0
1002
{
1002
}
1040
0.0
1002
{
1002
}
1040
0.0
1002
}
1002
}
1002
}
1070
     0
1040
0.0
1002
{
1002
}
1002
}
1002
{
1002
}
1002
}
1002
{
1071
        3
1070
     3
1070
     0
1002
{
1070
     2
1070
     0
1070
     0
1040
0.0
1002
}
1070
     0
1070
     2
1002
{
1002
}
1002
}
1002
{
1040
8030.0
1040
190.3000030517578
1040
0.3050000071525574
1040
228.0
1040
545.0
1040
14.0
1040
17.39999961853027
1040
0.4560000002384186
1002
}
1002
}
  0
INSERT
  5
13A2F
330
2E3A
100
AcDbEntity
  8
LAYER1
100
AcDbBlockReference
  2
AME_NIL
 10
206.698808084644
 20
637.0480760935634
 30
0.0
  0
INSERT
  5
13A30
330
2E3A
100
AcDbEntity
  8
LAYER1
100
AcDbBlockReference
  2
AME_SOL
 10
206.698808084644
 20
637.0480760935634
 30
0.0
1001
AME_SOL
1000
R2.1
1000
AME2
1000
sq m
1070
     3
1070
     0
1070
     3
1000
mesh
1040
45.0
1000
U
1040
1.0
1000
m
1000
gm
1000
MILD_STEEL
1070
    25
1000
CSG
1070
     1
1070
     3
1070
     3
1070
     3
1070
     0
1000
cu cm
1070
     1
1070
     0
1005
13A2F
  0
TEXT
  5
13A31
330
2E3A
100
AcDbEntity
  8
TEKST
100
AcDbText
 10
218.220908353867
 20
657.6899732518043
 30
0.0
 40
2.5
  1

  7
ROMANS
100
AcDbText
  0
INSERT
  5
13A32
330
2E3A
100
AcDbEntity
  8
ASHADE
 62
     1
100
AcDbBlockReference
  2
AVE_RENDER
 10
206.698808084644
 20
637.0480760935634
 30
0.0
1001
AVE_RENDER
1002
{
1070
     6
1000
Pref
1070
    30
1070
    20
1070
     1
1070
     0
1000

1070
    10
1070
     1
1070
    30
1040
1.0
1070
     1
1040
0.3
1040
0.7
1040
0.0
1040
10.0
1010
-1.0
1020
-1.0
1030
-1.0
1040
0.3
1070
    49
1070
     0
1070
     0
1010
1.0
1020
1.0
1030
1.0
1040
45.0
1070
     1
1070
     0
1000
WCS
1040
0.0
1002
}
  0
INSERT
  5
13A33
330
2E3A
100
AcDbEntity
  8
ASHADE
 62
     3
100
AcDbBlockReference
  2
AVE_RENDER
 10
206.698808084644
 20
637.0480760935634
 30
0.0
1001
AVE_RENDER
1002
{
1070
     0
1000
Full Opt
1070
     0
1070
     1
1070
     1
1070
     1
1070
     0
1070
     0
1070
     0
1070
     1
1070
     1
1040
0.0001
1040
0.0001
1002
}
  0
INSERT
  5
13A34
330
2E3A
100
AcDbEntity
  8
ASHADE
 62
     4
100
AcDbBlockReference
  2
AVE_RENDER
 10
206.698808084644
 20
637.0480760935634
 30
0.0
1001
AVE_RENDER
1002
{
1070
     0
1000
Quick Opt
1070
     0
1070
     1
1070
     1
1070
     1
1070
     0
1070
     0
1070
     1
1002
}
  0
INSERT
  5
13A35
330
2E3A
100
AcDbEntity
  8
ASHADE
 62
     5
100
AcDbBlockReference
  2
AVE_RENDER
 10
206.698808084644
 20
637.0480760935634
 30
0.0
1001
AVE_RENDER
1002
{
1070
     1
1000
Scanl Opt
1070
     2
1070
     0
1070
     2
1040
2.0
1040
4.0
1070
     0
1070
     1
1070
     0
1040
0.03
1002
}
  0
INSERT
  5
13A36
330
2E3A
100
AcDbEntity
  8
ASHADE
 62
     6
100
AcDbBlockReference
  2
AVE_RENDER
 10
206.698808084644
 20
637.0480760935634
 30
0.0
1001
AVE_RENDER
1002
{
1070
     2
1000
Raytr Opt
1070
     2
1070
     0
1070
     2
1040
2.0
1040
4.0
1070
     0
1070
     1
1070
     1
1040
0.03
1070
     3
1040
0.03
1002
}
  0
INSERT
  5
13A37
330
2E3A
100
AcDbEntity
  8
ASHADE
 62
     7
100
AcDbBlockReference
  2
AVE_RENDER
 10
206.698808084644
 20
637.0480760935634
 30
0.0
1001
AVE_RENDER
1002
{
1070
     0
1000
RFile Opt
1070
     5
1070
   640
1070
   480
1070
 10000
1070
     3
1070
    32
1070
    24
1070
     0
1070
     0
1070
     0
1070
     1
1070
     0
1070
     0
1070
     0
1002
}
  0
INSERT
  5
13A38
330
2E3A
100
AcDbEntity
  8
ASHADE
 62
     8
100
AcDbBlockReference
  2
AVE_RENDER
 10
206.698808084644
 20
637.0480760935634
 30
0.0
1001
AVE_RENDER
1002
{
1070
     0
1000
Fog Opt
1070
     0
1070
     0
1040
0.0
1040
1.0
1040
0.0
1040
1.0
1010
0.5
1020
0.5
1030
0.5
1002
}
  0
INSERT
  5
13A39
330
2E3A
100
AcDbEntity
  8
ASHADE
 62
     9
100
AcDbBlockReference
  2
AVE_RENDER
 10
206.698808084644
 20
637.0480760935634
 30
0.0
1001
AVE_RENDER
1002
{
1070
     0
1000
BG Opt
1070
     0
1070
     1
1010
0.0
1020
0.0
1030
0.0
1010
1.0
1020
0.0
1030
0.0
1010
0.0
1020
1.0
1030
0.0
1010
0.0
1020
0.0
1030
1.0
1040
0.5
1040
0.33
1040
0.0
1000

1070
     1
1000

1070
     1
1070
     1
1040
1.0
1040
1.0
1040
0.0
1040
0.0
1070
     0
1002
}
  0
INSERT
  5
13A3A
330
2E3A
100
AcDbEntity
  8
ASHADE
 62
     1
100
AcDbBlockReference
  2
AVE_GLOBAL
 10
206.698808084644
 20
637.0480760935634
 30
0.0
1001
AVE_MATERIAL
1002
{
1000
*GLOBAL*
1000
1
1000
Global finish.
1002
{
1002
}
1002
{
1070
    63
1002
{
1002
{
1010
-1.0
1020
-1.0
1030
-1.0
1002
}
1040
0.1000000014901161
1000

1040
0.0
1002
{
1002
}
1040
0.0
1002
{
1002
}
1040
0.0
1002
}
1002
{
1002
{
1010
-1.0
1020
-1.0
1030
-1.0
1002
}
1040
0.6999999880790711
1000

1040
0.0
1002
{
1002
}
1040
0.0
1002
{
1002
}
1040
0.0
1002
}
1002
{
1002
{
1010
-1.0
1020
-1.0
1030
-1.0
1002
}
1040
0.2000000029802322
1000

1040
0.0
1002
{
1002
}
1040
0.0
1002
{
1002
}
1040
0.0
1002
}
1002
{
1070
     0
1002
{
1070
     1
1002
{
1040
1.0
1040
1.0
1000

1040
0.0
1002
{
1002
}
1040
0.0
1002
{
1002
}
1040
0.0
1002
}
1002
}
1040
1.0
1040
0.0
1040
0.0
1002
}
1002
{
1040
1.0
1040
1.0
1000

1040
0.0
1002
{
1002
}
1040
0.0
1002
{
1002
}
1040
0.0
1002
}
1002
{
1040
0.5
1040
1.0
1000

1040
0.0
1002
{
1002
}
1040
0.0
1002
{
1002
}
1040
0.0
1002
}
1002
{
1070
     0
1040
0.0
1002
{
1002
}
1040
1.0
1002
{
1002
}
1040
0.0
1002
}
1002
{
1040
0.0
1002
{
1002
{
1010
0.0
1020
0.0
1030
0.0
1002
}
1040
1.0
1000

1040
0.0
1002
{
1002
}
1040
0.0
1002
{
1002
}
1040
0.0
1002
}
1002
}
1002
{
1002
{
1070
     1
1002
{
1040
0.0
1040
1.0
1000

1040
0.0
1002
{
1002
}
1040
0.0
1002
{
1002
}
1040
0.0
1002
}
1002
}
1040
0.0
1002
{
1002
}
1010
1.0
1020
0.0
1030
0.0
1010
0.0
1020
1.0
1030
0.0
1010
0.0
1020
0.0
1030
1.0
1070
     0
1002
}
1002
{
1002
{
1040
1.0
1040
1.0
1002
{
1070
     1
1002
{
1040
1.0
1040
1.0
1000

1040
0.0
1002
{
1002
}
1040
0.0
1002
{
1002
}
1040
0.0
1002
}
1002
}
1002
}
1070
     0
1040
0.0
1002
{
1002
}
1002
}
1002
{
1002
}
1002
}
1002
{
1071
        3
1070
     3
1070
     0
1002
{
1070
     2
1070
     0
1070
     0
1040
0.0
1002
}
1070
     0
1070
     2
1002
{
1002
}
1002
}
1002
{
1040
8030.0
1040
190.3000030517578
1040
0.3050000071525574
1040
228.0
1040
545.0
1040
14.0
1040
17.39999961853027
1040
0.4560000002384186
1002
}
1002
}
  0
TEXT
  5
13A3B
330
2E3A
100
AcDbEntity
  8
0
 62
     7
 48
5.0
100
AcDbText
 10
-1478.864448365064
 20
1018.077525794961
 30
0.0
 40
3.809829827610412
  1
 
 41
0.75
100
AcDbText
  0
MTEXT
  5
1592D
330
2E3A
100
AcDbEntity
  8
OMRISS
  6
Continuous
100
AcDbMText
 10
-2395.176181831748
 20
2489.102319280084
 30
0.0
 40
4.0
 41
0.0
 71
     1
 72
     1
  1

  7
ARIAL
 73
     1
 44
1.0
  0
LWPOLYLINE
  5
16117
330
2E3A
100
AcDbEntity
  8
Omriss tanker
  6
Continuous
100
AcDbPolyline
 90
        4
 70
     1
 43
0.0
 10
124444.9925562332
 20
124734.824714397
 10
128473.4950131258
 20
124734.824714397
 10
128473.4950131258
 20
120246.4358394652
 10
124444.9925562332
 20
120246.4358394652
  0
TEXT
  5
16122
330
2E3A
100
AcDbEntity
  8
TEKST
  6
Continuous
100
AcDbText
 10
122879.7845313893
 20
120810.0788566758
 30
0.0
 40
200.0
  1
_Cov 17-0
  7
ARIAL
100
AcDbText
  0
MTEXT
  5
161B9
330
2E3A
100
AcDbEntity
  8
Omriss tanker
  6
Continuous
100
AcDbMText
 10
121689.2849823993
 20
124547.5500188449
 30
0.0
 40
200.0
 41
1441.28
 71
     1
 72
     5
  1
Ballast line SB
  7
ARIAL BOLD
 73
     1
 44
1.0
  0
LWPOLYLINE
  5
161BA
330
2E3A
100
AcDbEntity
  8
Omriss tanker
  6
Continuous
100
AcDbPolyline
 90
        4
 70
     1
 43
0.0
 10
121554.2395585559
 20
124734.824714397
 10
122951.2784148508
 20
124734.824714397
 10
122951.2784148508
 20
123733.9236309575
 10
121554.2395585559
 20
123733.9236309575
  0
LWPOLYLINE
  5
161C5
330
2E3A
100
AcDbEntity
  8
Suction C
  6
Continuous
100
AcDbPolyline
 90
        4
 70
     1
 43
0.3
 39
0.1
 10
122997.6108441328
 20
121333.8037975594
 10
122252.7589867034
 20
121333.8037975594
 10
122252.7589867034
 20
123733.9236309575
 10
122252.7589867034
 20
121333.8037975594
  0
LWPOLYLINE
  5
161D7
330
2E3A
100
AcDbEntity
  8
Suction C
  6
Continuous
100
AcDbPolyline
 90
        8
 70
     1
 43
0.3
 39
0.1
 10
123639.9438075445
 20
121333.8037975594
 10
125368.3937299793
 20
121333.8037975594
 10
125368.3937299793
 20
120626.2658490292
 10
125168.3937299794
 20
120426.2658490292
 10
125368.3937299793
 20
120626.2658490292
 10
125568.3937299794
 20
120426.2658490292
 10
125368.3937299793
 20
120626.2658490292
 10
125368.3937299793
 20
121333.8037975594
  0
TEXT
  5
161EF
330
2E3A
100
AcDbEntity
  8
TEKST
  6
Continuous
100
AcDbText
 10
123578.2802197577
 20
121415.8250880529
 30
0.0
 40
150.0
  1
_Col 17-0
  7
ARIAL
100
AcDbText
  0
LWPOLYLINE
  5
16211
330
2E3A
100
AcDbEntity
  8
Symboler
  6
Continuous
 62
    42
100
AcDbPolyline
 90
       11
 70
     1
 10
123296.2773258386
 20
121345.9474706831
 40
0.6000000000000001
 41
0.6000000000000001
 10
123296.2773258386
 20
121658.5625490377
 40
0.6000000000000001
 41
0.6000000000000001
 10
123103.5875296059
 20
121658.5625490377
 40
0.6000000000000001
 41
0.6000000000000001
 42
-0.8846768105770848
 10
123533.9671220713
 20
121658.5625490377
 40
0.6000000000000001
 41
0.6000000000000001
 10
123341.2773258386
 20
121658.5625490377
 40
0.6000000000000001
 41
0.6000000000000001
 10
123341.2773258386
 20
121345.9474706831
 40
0.6000000000000001
 41
0.6000000000000001
 10
123639.9438075443
 20
121507.1433874321
 40
0.0
 41
0.0
 10
123639.9438075443
 20
121160.4642076866
 40
0.6000000000000001
 41
0.6000000000000001
 10
123318.7773258386
 20
121333.8037975594
 40
0.6000000000000001
 41
0.6000000000000001
 10
122997.6108441328
 20
121160.4642076866
 40
0.0
 41
0.0
 10
122997.6108441328
 20
121507.1433874321
 40
0.6000000000000001
 41
0.6000000000000001
  0
ENDSEC
  0
SECTION
  2
OBJECTS
  0
DICTIONARY
  5
2E2E
330
0
100
AcDbDictionary
281
     1
  3
ACAD_GROUP
350
2E2F
  3
ACAD_LAYOUT
350
158C0
  3
ACAD_MLINESTYLE
350
2E30
  3
ACAD_PLOTSETTINGS
350
158C1
  3
ACAD_PLOTSTYLENAME
350
158BE
  3
ACDBVARIABLEDICTIONARY
350
15033
  3
ASE_INDEX_DICTIONARY
350
15AF5
  0
DICTIONARY
  5
15B01
330
2E24
100
AcDbDictionary
280
     1
281
     1
  3
ACAD_LAYERFILTERS
360
15B02
  3
ACAD_LAYERSTATES
360
15BDD
  0
DICTIONARY
  5
2E2F
102
{ACAD_REACTORS
330
2E2E
102
}
330
2E2E
100
AcDbDictionary
281
     1
  0
DICTIONARY
  5
158C0
102
{ACAD_REACTORS
330
2E2E
102
}
330
2E2E
100
AcDbDictionary
281
     1
  3
Layout1
350
158C3
  3
Model
350
158C2
  0
DICTIONARY
  5
2E30
102
{ACAD_REACTORS
330
2E2E
102
}
330
2E2E
100
AcDbDictionary
281
     1
  3
STANDARD
350
2E3D
  0
DICTIONARY
  5
158C1
102
{ACAD_REACTORS
330
2E2E
102
}
330
2E2E
100
AcDbDictionary
281
     1
  0
ACDBDICTIONARYWDFLT
  5
158BE
102
{ACAD_REACTORS
330
2E2E
102
}
330
2E2E
100
AcDbDictionary
281
     1
  3
Normal
350
158BF
100
AcDbDictionaryWithDefault
340
158BF
  0
DICTIONARY
  5
15033
102
{ACAD_REACTORS
330
2E2E
102
}
330
2E2E
100
AcDbDictionary
281
     1
  3
SORTENTS
350
15034
  0
DICTIONARY
  5
15AF5
102
{ACAD_REACTORS
330
2E2E
102
}
330
2E2E
100
AcDbDictionary
281
     1
  3
ASEBlockHierarchyIndexRecord
350
15AF7
1001
DCO15
1040
1538987196.419
  0
DICTIONARY
  5
15B02
102
{ACAD_REACTORS
330
15B01
102
}
330
15B01
100
AcDbDictionary
280
     1
281
     1
  3
-WW
360
15B03
  3
0
360
15B04
  3
0-DETAIL
360
15B05
  3
00_
360
15B06
  3
050
360
15B07
  3
0_
360
15B08
  3
1
360
15B09
  3
11
360
15B0A
  3
16-3
360
15B0B
  3
21
360
15B0C
  3
22
360
15B0D
  3
28
360
15B0E
  3
28-3
360
15B0F
  3
4
360
15B10
  3
74
360
15B11
  3
_h
360
15B12
  3
a1
360
15B13
  3
aa
360
15B14
  3
aft-1
360
15B15
  3
aft-2
360
15B16
  3
aft-3
360
15B17
  3
all
360
15B18
  3
all-E
360
15B19
  3
all-P
360
15B1A
  3
alle
360
15B1B
  3
arc
360
15B1C
  3
arc1
360
15B1D
  3
arceer
360
15B1E
  3
Arm
360
15B1F
  3
AUSRUESTUNG
360
15B20
  3
AV thawed
360
15B21
  3
az
360
15B22
  3
B
360
15B23
  3
BECKERPLEIN
360
15B24
  3
begane grond
360
15B25
  3
below
360
15B26
  3
BL_AANPASSING2
360
15B27
  3
BL_AANPASSINGEN
360
15B28
  3
black
360
15B29
  3
blauw
360
15B2A
  3
Boat
360
15B2B
  3
Border
360
15B2C
  3
brenn
360
15B2D
  3
c1
360
15B2E
  3
c2
360
15B2F
  3
Calc
360
15B30
  3
CC
360
15B31
  3
CEILINGS
360
15B32
  3
cel
360
15B33
  3
CHILLED WATER
360
15B34
  3
codes
360
15B35
  3
Color-92
360
15B36
  3
Color-white
360
15B37
  3
colour-34
360
15B38
  3
cond
360
15B39
  3
cu dem
360
15B3A
  3
cu s2
360
15B3B
  3
cut
360
15B3C
  3
D_
360
15B3D
  3
dalaje
360
15B3E
  3
Davit
360
15B3F
  3
det
360
15B40
  3
dim
360
15B41
  3
dim-1-1
360
15B42
  3
dis
360
15B43
  3
Diversen
360
15B44
  3
dsnede
360
15B45
  3
e
360
15B46
  3
E-TECHNIK
360
15B47
  3
E1
360
15B48
  3
E2
360
15B49
  3
E3
360
15B4A
  3
e4
360
15B4B
  3
EINRICHTUNG
360
15B4C
  3
Electric
360
15B4D
  3
EXTRAPARKEREN
360
15B4E
  3
F
360
15B4F
  3
F-V
360
15B50
  3
feuer
360
15B51
  3
fire
360
15B52
  3
flur
360
15B53
  3
Frames
360
15B54
  3
freeze
360
15B55
  3
frozen
360
15B56
  3
fwd-1
360
15B57
  3
fwd-2
360
15B58
  3
fwd-3
360
15B59
  3
geel
360
15B5A
  3
General
360
15B5B
  3
glas
360
15B5C
  3
Graining
360
15B5D
  3
grey
360
15B5E
  3
groen
360
15B5F
  3
hartlijn
360
15B60
  3
hatchprofiel
360
15B61
  3
hatchprofiel1
360
15B62
  3
hauptm
360
15B63
  3
HID
360
15B64
  3
HULL
360
15B65
  3
hulplijn
360
15B66
  3
Hydraulic
360
15B67
  3
INF
360
15B68
  3
inw
360
15B69
  3
jochum 1
360
15B6A
  3
joop
360
15B6B
  3
kabelbahn
360
15B6C
  3
kader
360
15B6D
  3
kuehl
360
15B6E
  3
LADDER
360
15B6F
  3
lenz
360
15B70
  3
LINII
360
15B71
  3
LOCK
360
15B72
  3
locked
360
15B73
  3
lueftung
360
15B74
  3
magenta
360
15B75
  3
main
360
15B76
  3
MAINGIRDER
360
15B77
  3
midship
360
15B78
  3
Mtext
360
15B79
  3
new
360
15B7A
  3
No xref
360
15B7B
  3
off
360
15B7C
  3
on
360
15B7D
  3
open
360
15B7E
  3
open-d
360
15B7F
  3
open-p
360
15B80
  3
open-t
360
15B81
  3
Outline
360
15B82
  3
p
360
15B83
  3
P1
360
15B84
  3
P2
360
15B85
  3
P3
360
15B86
  3
PANEL
360
15B87
  3
PANELS
360
15B88
  3
Part
360
15B89
  3
PEN
360
15B8A
  3
penetr
360
15B8B
  3
ph
360
15B8C
  3
pillar
360
15B8D
  3
plan-1
360
15B8E
  3
plan-2
360
15B8F
  3
plan-3
360
15B90
  3
PLAN1
360
15B91
  3
port-1
360
15B92
  3
port-2
360
15B93
  3
port-3
360
15B94
  3
profiel2
360
15B95
  3
profielen
360
15B96
  3
pt1
360
15B97
  3
pt2
360
15B98
  3
pv
360
15B99
  3
r
360
15B9A
  3
r-dim
360
15B9B
  3
railing
360
15B9C
  3
REF
360
15B9D
  3
Remote Control
360
15B9E
  3
Remote Controle
360
15B9F
  3
REV
360
15BA0
  3
roland
360
15BA1
  3
S0
360
15BA2
  3
s1
360
15BA3
  3
s2
360
15BA4
  3
scupper
360
15BA5
  3
SECSTIF
360
15BA6
  3
section
360
15BA7
  3
Ship
360
15BA8
  3
shut
360
15BA9
  3
SIT
360
15BAA
  3
souterrain
360
15BAB
  3
sp
360
15BAC
  3
span
360
15BAD
  3
stb-1
360
15BAE
  3
stb-2
360
15BAF
  3
stb-3
360
15BB0
  3
Stool
360
15BB1
  3
stowage
360
15BB2
  3
SUFLATORI
360
15BB3
  3
suplay
360
15BB4
  3
susp
360
15BB5
  3
Suspension
360
15BB6
  3
synbool
360
15BB7
  3
T
360
15BB8
  3
tekst
360
15BB9
  3
temp
360
15BBA
  3
test
360
15BBB
  3
text
360
15BBC
  3
TH
360
15BBD
  3
TOPPLATE
360
15BBE
  3
tray
360
15BBF
  3
treppe
360
15BC0
  3
tt
360
15BC1
  3
txt
360
15BC2
  3
v31
360
15BC3
  3
VOLHARDING
360
15BC4
  3
vul
360
15BC5
  3
W
360
15BC6
  3
w.t. lines
360
15BC7
  3
wadigoten
360
15BC8
  3
water
360
15BC9
  3
Waterlines
360
15BCA
  3
white
360
15BCB
  3
Winch
360
15BCC
  3
wire
360
15BCD
  3
ww
360
15BCE
  3
ww1
360
15BCF
  3
zichtbareHWA
360
15BD0
  3

360
15BD1
  0
DICTIONARY
  5
15BDD
102
{ACAD_REACTORS
330
15B01
102
}
330
15B01
100
AcDbDictionary
281
     1
  0
LAYOUT
  5
158C3
102
{ACAD_REACTORS
330
158C0
102
}
330
158C0
100
AcDbPlotSettings
  1

  2
\\TSN_SERVER\HP LaserJet 6P
  4

  6

 40
0.0
 41
0.0
 42
0.0
 43
0.0
 44
0.0
 45
0.0
 46
0.0
 47
0.0
 48
0.0
 49
0.0
140
0.0
141
0.0
142
1.0
143
1.0
 70
   688
 72
     0
 73
     0
 74
     5
  7

 75
    16
147
1.0
148
0.0
149
0.0
100
AcDbLayout
  1
Layout1
 70
     0
 71
     1
 10
0.0
 20
0.0
 11
12.0
 21
9.0
 12
0.0
 22
0.0
 32
0.0
 14
1.000000000000000E+20
 24
1.000000000000000E+20
 34
1.000000000000000E+20
 15
-1.000000000000000E+20
 25
-1.000000000000000E+20
 35
-1.000000000000000E+20
146
0.0
 13
0.0
 23
0.0
 33
0.0
 16
1.0
 26
0.0
 36
0.0
 17
0.0
 27
1.0
 37
0.0
 76
     0
330
2E37
  0
LAYOUT
  5
158C2
102
{ACAD_REACTORS
330
158C0
102
}
330
158C0
100
AcDbPlotSettings
  1

  2
\\s01-tsn\Brother MFC9870
  4
A4
  6

 40
7.143749713897705
 41
7.186084270477294
 42
7.14373779296875
 43
7.14373779296875
 44
209.9733276367186
 45
296.9683227539062
 46
0.0
 47
3.29
 48
-2808.366351141403
 49
1491.921152690942
140
-1765.566351141404
141
2231.121152690942
142
1.0
143
3.777483335071587
 70
 11956
 72
     1
 73
     1
 74
     4
  7

 75
     0
147
0.2647265153271811
148
2808.366351141403
149
-1491.921152690942
100
AcDbLayout
  1
Model
 70
     1
 71
     0
 10
0.0
 20
0.0
 11
12.0
 21
9.0
 12
0.0
 22
0.0
 32
0.0
 14
0.0
 24
0.0
 34
0.0
 15
0.0
 25
0.0
 35
0.0
146
0.0
 13
0.0
 23
0.0
 33
0.0
 16
1.0
 26
0.0
 36
0.0
 17
0.0
 27
1.0
 37
0.0
 76
     0
330
2E3A
  0
MLINESTYLE
  5
2E3D
102
{ACAD_REACTORS
330
2E30
102
}
330
2E30
100
AcDbMlineStyle
  2
STANDARD
 70
     0
  3

 62
     0
 51
90.0
 52
90.0
 71
     2
 49
0.5
 62
   256
  6
BYLAYER
 49
-0.5
 62
   256
  6
BYLAYER
  0
ACDBPLACEHOLDER
  5
158BF
102
{ACAD_REACTORS
330
158BE
102
}
330
158BE
  0
DICTIONARYVAR
  5
15034
102
{ACAD_REACTORS
330
15033
102
}
330
15033
100
DictionaryVariables
280
     0
  1
96
  0
XRECORD
  5
15AF7
102
{ACAD_REACTORS
330
15AF5
102
}
330
15AF5
100
AcDbXrecord
280
     1
330
17
330
29
330
2E80
330
2E81
330
2E82
330
2E83
330
2E84
330
2E85
330
2E86
330
2E87
330
2E8E
330
10E9D
330
10E9E
330
10EA0
330
10EA1
330
10EA2
330
10EA3
330
10EA4
330
10EA5
330
10EA6
330
10EA7
330
10EA8
330
10EAA
330
10EAB
330
10EAD
330
10EAE
330
10EAF
330
10EB0
330
10EB1
330
10EB2
330
10EB3
330
10EB4
330
10EB5
330
10EB6
330
10EB7
330
10EB9
330
10EBA
330
10EBB
330
10EBC
330
10EBD
330
10EBE
330
10EBF
330
10EC0
330
10EC1
330
13A16
330
13A17
330
13A19
330
13A1A
330
13A1B
330
13A1C
330
13A1D
330
13A1E
330
13A1F
330
13A20
330
13A21
330
13A23
330
13A24
330
13A26
330
13A27
330
13A28
330
13A29
330
13A2A
330
13A2B
330
13A2C
330
13A2D
330
13A2E
330
13A2F
330
13A30
330
13A32
330
13A33
330
13A34
330
13A35
330
13A36
330
13A37
330
13A38
330
13A39
330
13A3A
  0
XRECORD
  5
15B03
102
{ACAD_REACTORS
330
15B02
102
}
330
15B02
100
AcDbXrecord
280
     1
  1
-WW
  1
*-WW
  1
*
  1
*
 70
     0
  1
*
  1
*
  0
XRECORD
  5
15B04
102
{ACAD_REACTORS
330
15B02
102
}
330
15B02
100
AcDbXrecord
280
     1
  1
0
  1
0*
  1
*
  1
*
 70
     0
  1
*
  1
*
  0
XRECORD
  5
15B05
102
{ACAD_REACTORS
330
15B02
102
}
330
15B02
100
AcDbXrecord
280
     1
  1
0-DETAIL
  1
0-Detail*
  1
*
  1
*
 70
     0
  1
*
  1
*
  0
XRECORD
  5
15B06
102
{ACAD_REACTORS
330
15B02
102
}
330
15B02
100
AcDbXrecord
280
     1
  1
00_
  1
00_*
  1
*
  1
*
 70
     0
  1
*
  1
*
  0
XRECORD
  5
15B07
102
{ACAD_REACTORS
330
15B02
102
}
330
15B02
100
AcDbXrecord
280
     1
  1
050
  1
*050*
  1
*
  1
*
 70
     0
  1
*
  1
*
  0
XRECORD
  5
15B08
102
{ACAD_REACTORS
330
15B02
102
}
330
15B02
100
AcDbXrecord
280
     1
  1
0_
  1
0_*
  1
*
  1
*
 70
     0
  1
*
  1
*
  0
XRECORD
  5
15B09
102
{ACAD_REACTORS
330
15B02
102
}
330
15B02
100
AcDbXrecord
280
     1
  1
1
  1
*BRACKETS
  1
*
  1
*
 70
     0
  1
*
  1
*
  0
XRECORD
  5
15B0A
102
{ACAD_REACTORS
330
15B02
102
}
330
15B02
100
AcDbXrecord
280
     1
  1
11
  1
*
  1
*
  1
*
 70
     4
  1
*
  1
*
  0
XRECORD
  5
15B0B
102
{ACAD_REACTORS
330
15B02
102
}
330
15B02
100
AcDbXrecord
280
     1
  1
16-3
  1
*16-3
  1
*
  1
*
 70
     0
  1
*
  1
*
  0
XRECORD
  5
15B0C
102
{ACAD_REACTORS
330
15B02
102
}
330
15B02
100
AcDbXrecord
280
     1
  1
21
  1
*21*
  1
*
  1
*
 70
     0
  1
*
  1
*
  0
XRECORD
  5
15B0D
102
{ACAD_REACTORS
330
15B02
102
}
330
15B02
100
AcDbXrecord
280
     1
  1
22
  1
*22*
  1
*
  1
*
 70
     0
  1
*
  1
*
  0
XRECORD
  5
15B0E
102
{ACAD_REACTORS
330
15B02
102
}
330
15B02
100
AcDbXrecord
280
     1
  1
28
  1
*
  1
*
  1
*
 70
     0
  1
*
  1
*
  0
XRECORD
  5
15B0F
102
{ACAD_REACTORS
330
15B02
102
}
330
15B02
100
AcDbXrecord
280
     1
  1
28-3
  1
*28-3
  1
*
  1
*
 70
     0
  1
*
  1
*
  0
XRECORD
  5
15B10
102
{ACAD_REACTORS
330
15B02
102
}
330
15B02
100
AcDbXrecord
280
     1
  1
4
  1
*$4$schets*
  1
*
  1
*
 70
     0
  1
*
  1
*
  0
XRECORD
  5
15B11
102
{ACAD_REACTORS
330
15B02
102
}
330
15B02
100
AcDbXrecord
280
     1
  1
74
  1
*74*
  1
*
  1
*
 70
     0
  1
*
  1
*
  0
XRECORD
  5
15B12
102
{ACAD_REACTORS
330
15B02
102
}
330
15B02
100
AcDbXrecord
280
     1
  1
_h
  1
*_H
  1
*
  1
*
 70
     0
  1
*
  1
*
  0
XRECORD
  5
15B13
102
{ACAD_REACTORS
330
15B02
102
}
330
15B02
100
AcDbXrecord
280
     1
  1
a1
  1
a1*
  1
*
  1
*
 70
     0
  1
*
  1
*
  0
XRECORD
  5
15B14
102
{ACAD_REACTORS
330
15B02
102
}
330
15B02
100
AcDbXrecord
280
     1
  1
aa
  1
a*
  1
*
  1
*
 70
     0
  1
*
  1
*
  0
XRECORD
  5
15B15
102
{ACAD_REACTORS
330
15B02
102
}
330
15B02
100
AcDbXrecord
280
     1
  1
aft-1
  1
*a1
  1
*
  1
*
 70
     0
  1
*
  1
*
  0
XRECORD
  5
15B16
102
{ACAD_REACTORS
330
15B02
102
}
330
15B02
100
AcDbXrecord
280
     1
  1
aft-2
  1
*a2
  1
*
  1
*
 70
     0
  1
*
  1
*
  0
XRECORD
  5
15B17
102
{ACAD_REACTORS
330
15B02
102
}
330
15B02
100
AcDbXrecord
280
     1
  1
aft-3
  1
*a3
  1
*
  1
*
 70
     0
  1
*
  1
*
  0
XRECORD
  5
15B18
102
{ACAD_REACTORS
330
15B02
102
}
330
15B02
100
AcDbXrecord
280
     1
  1
all
  1
*
  1
*
  1
*
 70
     0
  1
*
  1
*
  0
XRECORD
  5
15B19
102
{ACAD_REACTORS
330
15B02
102
}
330
15B02
100
AcDbXrecord
280
     1
  1
all-E
  1
*-e*
  1
*
  1
*
 70
     0
  1
*
  1
*
  0
XRECORD
  5
15B1A
102
{ACAD_REACTORS
330
15B02
102
}
330
15B02
100
AcDbXrecord
280
     1
  1
all-P
  1
*-p*
  1
*
  1
*
 70
     0
  1
*
  1
*
  0
XRECORD
  5
15B1B
102
{ACAD_REACTORS
330
15B02
102
}
330
15B02
100
AcDbXrecord
280
     1
  1
alle
  1
*
  1
*
  1
*
 70
     0
  1
*
  1
*
  0
XRECORD
  5
15B1C
102
{ACAD_REACTORS
330
15B02
102
}
330
15B02
100
AcDbXrecord
280
     1
  1
arc
  1
*arc
  1
*
  1
*
 70
     0
  1
*
  1
*
  0
XRECORD
  5
15B1D
102
{ACAD_REACTORS
330
15B02
102
}
330
15B02
100
AcDbXrecord
280
     1
  1
arc1
  1
*arc1
  1
*
  1
*
 70
     0
  1
*
  1
*
  0
XRECORD
  5
15B1E
102
{ACAD_REACTORS
330
15B02
102
}
330
15B02
100
AcDbXrecord
280
     1
  1
arceer
  1
arce*
  1
*
  1
*
 70
     0
  1
*
  1
*
  0
XRECORD
  5
15B1F
102
{ACAD_REACTORS
330
15B02
102
}
330
15B02
100
AcDbXrecord
280
     1
  1
Arm
  1
Arm*
  1
*
  1
*
 70
     0
  1
*
  1
*
  0
XRECORD
  5
15B20
102
{ACAD_REACTORS
330
15B02
102
}
330
15B02
100
AcDbXrecord
280
     1
  1
AUSRUESTUNG
  1
OU*
  1
*
  1
*
 70
     0
  1
*
  1
*
  0
XRECORD
  5
15B21
102
{ACAD_REACTORS
330
15B02
102
}
330
15B02
100
AcDbXrecord
280
     1
  1
AV thawed
  1
*
  1
*
  1
*
 70
    48
  1
*
  1
*
  0
XRECORD
  5
15B22
102
{ACAD_REACTORS
330
15B02
102
}
330
15B02
100
AcDbXrecord
280
     1
  1
az
  1
*AZ*
  1
*
  1
*
 70
     0
  1
*
  1
*
  0
XRECORD
  5
15B23
102
{ACAD_REACTORS
330
15B02
102
}
330
15B02
100
AcDbXrecord
280
     1
  1
B
  1
*B
  1
*
  1
*
 70
     0
  1
*
  1
*
  0
XRECORD
  5
15B24
102
{ACAD_REACTORS
330
15B02
102
}
330
15B02
100
AcDbXrecord
280
     1
  1
BECKERPLEIN
  1
BL_BECKERPLEIN
  1
*
  1
*
 70
     0
  1
*
  1
*
  0
XRECORD
  5
15B25
102
{ACAD_REACTORS
330
15B02
102
}
330
15B02
100
AcDbXrecord
280
     1
  1
begane grond
  1
*
  1
*
  1
*
 70
     0
  1
*
  1
*
  0
XRECORD
  5
15B26
102
{ACAD_REACTORS
330
15B02
102
}
330
15B02
100
AcDbXrecord
280
     1
  1
below
  1
*below*
  1
*
  1
*
 70
     0
  1
*
  1
*
  0
XRECORD
  5
15B27
102
{ACAD_REACTORS
330
15B02
102
}
330
15B02
100
AcDbXrecord
280
     1
  1
BL_AANPASSING2
  1
BL_AANPASSING2
  1
*
  1
*
 70
     0
  1
*
  1
*
  0
XRECORD
  5
15B28
102
{ACAD_REACTORS
330
15B02
102
}
330
15B02
100
AcDbXrecord
280
     1
  1
BL_AANPASSINGEN
  1
BL_AANPASSINGEN
  1
*
  1
*
 70
     0
  1
*
  1
*
  0
XRECORD
  5
15B29
102
{ACAD_REACTORS
330
15B02
102
}
330
15B02
100
AcDbXrecord
280
     1
  1
black
  1
*
  1
white
  1
*
 70
     0
  1
*
  1
*
  0
XRECORD
  5
15B2A
102
{ACAD_REACTORS
330
15B02
102
}
330
15B02
100
AcDbXrecord
280
     1
  1
blauw
  1
*
  1
blue
  1
*
 70
     0
  1
*
  1
*
  0
XRECORD
  5
15B2B
102
{ACAD_REACTORS
330
15B02
102
}
330
15B02
100
AcDbXrecord
280
     1
  1
Boat
  1
Boat*
  1
*
  1
*
 70
     0
  1
*
  1
*
  0
XRECORD
  5
15B2C
102
{ACAD_REACTORS
330
15B02
102
}
330
15B02
100
AcDbXrecord
280
     1
  1
Border
  1
Border*
  1
*
  1
*
 70
     0
  1
*
  1
*
  0
XRECORD
  5
15B2D
102
{ACAD_REACTORS
330
15B02
102
}
330
15B02
100
AcDbXrecord
280
     1
  1
brenn
  1
*brenn*
  1
*
  1
*
 70
     0
  1
*
  1
*
  0
XRECORD
  5
15B2E
102
{ACAD_REACTORS
330
15B02
102
}
330
15B02
100
AcDbXrecord
280
     1
  1
c1
  1
*c1
  1
*
  1
*
 70
     0
  1
*
  1
*
  0
XRECORD
  5
15B2F
102
{ACAD_REACTORS
330
15B02
102
}
330
15B02
100
AcDbXrecord
280
     1
  1
c2
  1
*c2
  1
*
  1
*
 70
     0
  1
*
  1
*
  0
XRECORD
  5
15B30
102
{ACAD_REACTORS
330
15B02
102
}
330
15B02
100
AcDbXrecord
280
     1
  1
Calc
  1
*Calc*
  1
*
  1
*
 70
     0
  1
*
  1
*
  0
XRECORD
  5
15B31
102
{ACAD_REACTORS
330
15B02
102
}
330
15B02
100
AcDbXrecord
280
     1
  1
CC
  1
*
  1
*
  1
*
 70
     1
  1
*
  1
*
  0
XRECORD
  5
15B32
102
{ACAD_REACTORS
330
15B02
102
}
330
15B02
100
AcDbXrecord
280
     1
  1
CEILINGS
  1
*ceiling*
  1
*
  1
*
 70
     0
  1
*
  1
*
  0
XRECORD
  5
15B33
102
{ACAD_REACTORS
330
15B02
102
}
330
15B02
100
AcDbXrecord
280
     1
  1
cel
  1
*ceil*
  1
*
  1
*
 70
     0
  1
*
  1
*
  0
XRECORD
  5
15B34
102
{ACAD_REACTORS
330
15B02
102
}
330
15B02
100
AcDbXrecord
280
     1
  1
CHILLED WATER
  1
*
  1
*
  1
*
 70
  1025
  1
*
  1
*
  0
XRECORD
  5
15B35
102
{ACAD_REACTORS
330
15B02
102
}
330
15B02
100
AcDbXrecord
280
     1
  1
codes
  1
*codes*
  1
*
  1
*
 70
     0
  1
*
  1
*
  0
XRECORD
  5
15B36
102
{ACAD_REACTORS
330
15B02
102
}
330
15B02
100
AcDbXrecord
280
     1
  1
Color-92
  1
*
  1
92
  1
*
 70
     0
  1
*
  1
*
  0
XRECORD
  5
15B37
102
{ACAD_REACTORS
330
15B02
102
}
330
15B02
100
AcDbXrecord
280
     1
  1
Color-white
  1
*
  1
white
  1
*
 70
     0
  1
*
  1
*
  0
XRECORD
  5
15B38
102
{ACAD_REACTORS
330
15B02
102
}
330
15B02
100
AcDbXrecord
280
     1
  1
colour-34
  1
*
  1
*
  1
*
 70
     0
  1
*
  1
*
  0
XRECORD
  5
15B39
102
{ACAD_REACTORS
330
15B02
102
}
330
15B02
100
AcDbXrecord
280
     1
  1
cond
  1
*cond*
  1
*
  1
*
 70
     0
  1
*
  1
*
  0
XRECORD
  5
15B3A
102
{ACAD_REACTORS
330
15B02
102
}
330
15B02
100
AcDbXrecord
280
     1
  1
cu dem
  1
dem*
  1
*
  1
*
 70
     0
  1
*
  1
*
  0
XRECORD
  5
15B3B
102
{ACAD_REACTORS
330
15B02
102
}
330
15B02
100
AcDbXrecord
280
     1
  1
cu s2
  1
s2*
  1
*
  1
*
 70
     0
  1
*
  1
*
  0
XRECORD
  5
15B3C
102
{ACAD_REACTORS
330
15B02
102
}
330
15B02
100
AcDbXrecord
280
     1
  1
cut
  1
*cut*
  1
*
  1
*
 70
     0
  1
*
  1
*
  0
XRECORD
  5
15B3D
102
{ACAD_REACTORS
330
15B02
102
}
330
15B02
100
AcDbXrecord
280
     1
  1
D_
  1
D_*
  1
*
  1
*
 70
     0
  1
*
  1
*
  0
XRECORD
  5
15B3E
102
{ACAD_REACTORS
330
15B02
102
}
330
15B02
100
AcDbXrecord
280
     1
  1
dalaje
  1
dal*
  1
*
  1
*
 70
     0
  1
*
  1
*
  0
XRECORD
  5
15B3F
102
{ACAD_REACTORS
330
15B02
102
}
330
15B02
100
AcDbXrecord
280
     1
  1
Davit
  1
*davit*
  1
*
  1
*
 70
     0
  1
*
  1
*
  0
XRECORD
  5
15B40
102
{ACAD_REACTORS
330
15B02
102
}
330
15B02
100
AcDbXrecord
280
     1
  1
det
  1
*ding
  1
*
  1
*
 70
     0
  1
*
  1
*
  0
XRECORD
  5
15B41
102
{ACAD_REACTORS
330
15B02
102
}
330
15B02
100
AcDbXrecord
280
     1
  1
dim
  1
dim*
  1
*
  1
*
 70
     0
  1
*
  1
*
  0
XRECORD
  5
15B42
102
{ACAD_REACTORS
330
15B02
102
}
330
15B02
100
AcDbXrecord
280
     1
  1
dim-1-1
  1
*dim-1-1-ww
  1
*
  1
*
 70
     0
  1
*
  1
*
  0
XRECORD
  5
15B43
102
{ACAD_REACTORS
330
15B02
102
}
330
15B02
100
AcDbXrecord
280
     1
  1
dis
  1
*dis*
  1
*
  1
*
 70
     0
  1
*
  1
*
  0
XRECORD
  5
15B44
102
{ACAD_REACTORS
330
15B02
102
}
330
15B02
100
AcDbXrecord
280
     1
  1
Diversen
  1
Div*
  1
*
  1
*
 70
     0
  1
*
  1
*
  0
XRECORD
  5
15B45
102
{ACAD_REACTORS
330
15B02
102
}
330
15B02
100
AcDbXrecord
280
     1
  1
dsnede
  1
*snedes
  1
*
  1
*
 70
     0
  1
*
  1
*
  0
XRECORD
  5
15B46
102
{ACAD_REACTORS
330
15B02
102
}
330
15B02
100
AcDbXrecord
280
     1
  1
e
  1
e*
  1
*
  1
*
 70
     0
  1
*
  1
*
  0
XRECORD
  5
15B47
102
{ACAD_REACTORS
330
15B02
102
}
330
15B02
100
AcDbXrecord
280
     1
  1
E-TECHNIK
  1
EL*
  1
*
  1
*
 70
     0
  1
*
  1
*
  0
XRECORD
  5
15B48
102
{ACAD_REACTORS
330
15B02
102
}
330
15B02
100
AcDbXrecord
280
     1
  1
E1
  1
*e1
  1
*
  1
*
 70
     0
  1
*
  1
*
  0
XRECORD
  5
15B49
102
{ACAD_REACTORS
330
15B02
102
}
330
15B02
100
AcDbXrecord
280
     1
  1
E2
  1
*e2
  1
*
  1
*
 70
     0
  1
*
  1
*
  0
XRECORD
  5
15B4A
102
{ACAD_REACTORS
330
15B02
102
}
330
15B02
100
AcDbXrecord
280
     1
  1
E3
  1
*e3
  1
*
  1
*
 70
     0
  1
*
  1
*
  0
XRECORD
  5
15B4B
102
{ACAD_REACTORS
330
15B02
102
}
330
15B02
100
AcDbXrecord
280
     1
  1
e4
  1
*e4
  1
*
  1
*
 70
     0
  1
*
  1
*
  0
XRECORD
  5
15B4C
102
{ACAD_REACTORS
330
15B02
102
}
330
15B02
100
AcDbXrecord
280
     1
  1
EINRICHTUNG
  1
AC*
  1
*
  1
*
 70
     0
  1
*
  1
*
  0
XRECORD
  5
15B4D
102
{ACAD_REACTORS
330
15B02
102
}
330
15B02
100
AcDbXrecord
280
     1
  1
Electric
  1
Elec*
  1
*
  1
*
 70
     0
  1
*
  1
*
  0
XRECORD
  5
15B4E
102
{ACAD_REACTORS
330
15B02
102
}
330
15B02
100
AcDbXrecord
280
     1
  1
EXTRAPARKEREN
  1
BL_EXTRAPARKEREN
  1
*
  1
*
 70
     0
  1
*
  1
*
  0
XRECORD
  5
15B4F
102
{ACAD_REACTORS
330
15B02
102
}
330
15B02
100
AcDbXrecord
280
     1
  1
F
  1
*
  1
*
  1
*
 70
     4
  1
*
  1
*
  0
XRECORD
  5
15B50
102
{ACAD_REACTORS
330
15B02
102
}
330
15B02
100
AcDbXrecord
280
     1
  1
F-V
  1
*
  1
*
  1
*
 70
    12
  1
*
  1
*
  0
XRECORD
  5
15B51
102
{ACAD_REACTORS
330
15B02
102
}
330
15B02
100
AcDbXrecord
280
     1
  1
feuer
  1
*feuer*
  1
*
  1
*
 70
     0
  1
*
  1
*
  0
XRECORD
  5
15B52
102
{ACAD_REACTORS
330
15B02
102
}
330
15B02
100
AcDbXrecord
280
     1
  1
fire
  1
*fire*
  1
*
  1
*
 70
     0
  1
*
  1
*
  0
XRECORD
  5
15B53
102
{ACAD_REACTORS
330
15B02
102
}
330
15B02
100
AcDbXrecord
280
     1
  1
flur
  1
*flur*
  1
*
  1
*
 70
     0
  1
*
  1
*
  0
XRECORD
  5
15B54
102
{ACAD_REACTORS
330
15B02
102
}
330
15B02
100
AcDbXrecord
280
     1
  1
Frames
  1
F*
  1
*
  1
*
 70
     0
  1
*
  1
*
  0
XRECORD
  5
15B55
102
{ACAD_REACTORS
330
15B02
102
}
330
15B02
100
AcDbXrecord
280
     1
  1
freeze
  1
*
  1
*
  1
*
 70
     4
  1
*
  1
*
  0
XRECORD
  5
15B56
102
{ACAD_REACTORS
330
15B02
102
}
330
15B02
100
AcDbXrecord
280
     1
  1
frozen
  1
*
  1
*
  1
*
 70
     4
  1
*
  1
*
  0
XRECORD
  5
15B57
102
{ACAD_REACTORS
330
15B02
102
}
330
15B02
100
AcDbXrecord
280
     1
  1
fwd-1
  1
*f1
  1
*
  1
*
 70
     0
  1
*
  1
*
  0
XRECORD
  5
15B58
102
{ACAD_REACTORS
330
15B02
102
}
330
15B02
100
AcDbXrecord
280
     1
  1
fwd-2
  1
*f2
  1
*
  1
*
 70
     0
  1
*
  1
*
  0
XRECORD
  5
15B59
102
{ACAD_REACTORS
330
15B02
102
}
330
15B02
100
AcDbXrecord
280
     1
  1
fwd-3
  1
*f3
  1
*
  1
*
 70
     0
  1
*
  1
*
  0
XRECORD
  5
15B5A
102
{ACAD_REACTORS
330
15B02
102
}
330
15B02
100
AcDbXrecord
280
     1
  1
geel
  1
*
  1
yellow
  1
*
 70
     0
  1
*
  1
*
  0
XRECORD
  5
15B5B
102
{ACAD_REACTORS
330
15B02
102
}
330
15B02
100
AcDbXrecord
280
     1
  1
General
  1
*Gen*
  1
*
  1
*
 70
     0
  1
*
  1
*
  0
XRECORD
  5
15B5C
102
{ACAD_REACTORS
330
15B02
102
}
330
15B02
100
AcDbXrecord
280
     1
  1
glas
  1
*glas*
  1
*
  1
*
 70
     0
  1
*
  1
*
  0
XRECORD
  5
15B5D
102
{ACAD_REACTORS
330
15B02
102
}
330
15B02
100
AcDbXrecord
280
     1
  1
Graining
  1
*
  1
*34
  1
*
 70
     0
  1
*
  1
*
  0
XRECORD
  5
15B5E
102
{ACAD_REACTORS
330
15B02
102
}
330
15B02
100
AcDbXrecord
280
     1
  1
grey
  1
*grey*
  1
*
  1
*
 70
     0
  1
*
  1
*
  0
XRECORD
  5
15B5F
102
{ACAD_REACTORS
330
15B02
102
}
330
15B02
100
AcDbXrecord
280
     1
  1
groen
  1
*
  1
92
  1
*
 70
     0
  1
*
  1
*
  0
XRECORD
  5
15B60
102
{ACAD_REACTORS
330
15B02
102
}
330
15B02
100
AcDbXrecord
280
     1
  1
hartlijn
  1
*
  1
*
  1
*
 70
     0
  1
*
  1
*
  0
XRECORD
  5
15B61
102
{ACAD_REACTORS
330
15B02
102
}
330
15B02
100
AcDbXrecord
280
     1
  1
hatchprofiel
  1
BL_HATCHPROFIEL2
  1
*
  1
*
 70
     0
  1
*
  1
*
  0
XRECORD
  5
15B62
102
{ACAD_REACTORS
330
15B02
102
}
330
15B02
100
AcDbXrecord
280
     1
  1
hatchprofiel1
  1
BL_hatchprofiel1
  1
*
  1
*
 70
     0
  1
*
  1
*
  0
XRECORD
  5
15B63
102
{ACAD_REACTORS
330
15B02
102
}
330
15B02
100
AcDbXrecord
280
     1
  1
hauptm
  1
*hauptm*
  1
*
  1
*
 70
     0
  1
*
  1
*
  0
XRECORD
  5
15B64
102
{ACAD_REACTORS
330
15B02
102
}
330
15B02
100
AcDbXrecord
280
     1
  1
HID
  1
*HID
  1
*
  1
*
 70
     0
  1
*
  1
*
  0
XRECORD
  5
15B65
102
{ACAD_REACTORS
330
15B02
102
}
330
15B02
100
AcDbXrecord
280
     1
  1
HULL
  1
HU*
  1
*
  1
*
 70
     0
  1
*
  1
*
  0
XRECORD
  5
15B66
102
{ACAD_REACTORS
330
15B02
102
}
330
15B02
100
AcDbXrecord
280
     1
  1
hulplijn
  1
*hulplijn*
  1
*
  1
*
 70
     0
  1
*
  1
*
  0
XRECORD
  5
15B67
102
{ACAD_REACTORS
330
15B02
102
}
330
15B02
100
AcDbXrecord
280
     1
  1
Hydraulic
  1
Hyd*
  1
*
  1
*
 70
     0
  1
*
  1
*
  0
XRECORD
  5
15B68
102
{ACAD_REACTORS
330
15B02
102
}
330
15B02
100
AcDbXrecord
280
     1
  1
INF
  1
*inf*
  1
*
  1
*
 70
     0
  1
*
  1
*
  0
XRECORD
  5
15B69
102
{ACAD_REACTORS
330
15B02
102
}
330
15B02
100
AcDbXrecord
280
     1
  1
inw
  1
Spiro Geisoleerd
  1
yellow
  1
*
 70
     0
  1
*
  1
*
  0
XRECORD
  5
15B6A
102
{ACAD_REACTORS
330
15B02
102
}
330
15B02
100
AcDbXrecord
280
     1
  1
jochum 1
  1
*_*
  1
*
  1
*
 70
     0
  1
*
  1
*
  0
XRECORD
  5
15B6B
102
{ACAD_REACTORS
330
15B02
102
}
330
15B02
100
AcDbXrecord
280
     1
  1
joop
  1
*joop
  1
*
  1
*
 70
     0
  1
*
  1
*
  0
XRECORD
  5
15B6C
102
{ACAD_REACTORS
330
15B02
102
}
330
15B02
100
AcDbXrecord
280
     1
  1
kabelbahn
  1
*kabel*
  1
*
  1
*
 70
     0
  1
*
  1
*
  0
XRECORD
  5
15B6D
102
{ACAD_REACTORS
330
15B02
102
}
330
15B02
100
AcDbXrecord
280
     1
  1
kader
  1
Kad*
  1
*
  1
*
 70
     0
  1
*
  1
*
  0
XRECORD
  5
15B6E
102
{ACAD_REACTORS
330
15B02
102
}
330
15B02
100
AcDbXrecord
280
     1
  1
kuehl
  1
*kuehl*
  1
*
  1
*
 70
     0
  1
*
  1
*
  0
XRECORD
  5
15B6F
102
{ACAD_REACTORS
330
15B02
102
}
330
15B02
100
AcDbXrecord
280
     1
  1
LADDER
  1
LAD*
  1
*
  1
*
 70
     0
  1
*
  1
*
  0
XRECORD
  5
15B70
102
{ACAD_REACTORS
330
15B02
102
}
330
15B02
100
AcDbXrecord
280
     1
  1
lenz
  1
*lenz*
  1
*
  1
*
 70
     0
  1
*
  1
*
  0
XRECORD
  5
15B71
102
{ACAD_REACTORS
330
15B02
102
}
330
15B02
100
AcDbXrecord
280
     1
  1
LINII
  1
LINI*
  1
*
  1
*
 70
     0
  1
*
  1
*
  0
XRECORD
  5
15B72
102
{ACAD_REACTORS
330
15B02
102
}
330
15B02
100
AcDbXrecord
280
     1
  1
LOCK
  1
*
  1
*
  1
*
 70
     4
  1
*
  1
*
  0
XRECORD
  5
15B73
102
{ACAD_REACTORS
330
15B02
102
}
330
15B02
100
AcDbXrecord
280
     1
  1
locked
  1
*
  1
*
  1
*
 70
   256
  1
*
  1
*
  0
XRECORD
  5
15B74
102
{ACAD_REACTORS
330
15B02
102
}
330
15B02
100
AcDbXrecord
280
     1
  1
lueftung
  1
*luef*
  1
*
  1
*
 70
     0
  1
*
  1
*
  0
XRECORD
  5
15B75
102
{ACAD_REACTORS
330
15B02
102
}
330
15B02
100
AcDbXrecord
280
     1
  1
magenta
  1
*
  1
magenta
  1
*
 70
     0
  1
*
  1
*
  0
XRECORD
  5
15B76
102
{ACAD_REACTORS
330
15B02
102
}
330
15B02
100
AcDbXrecord
280
     1
  1
main
  1
*mainconstr*
  1
*
  1
*
 70
     0
  1
*
  1
*
  0
XRECORD
  5
15B77
102
{ACAD_REACTORS
330
15B02
102
}
330
15B02
100
AcDbXrecord
280
     1
  1
MAINGIRDER
  1
*MAINGIRDER
  1
*
  1
*
 70
     0
  1
*
  1
*
  0
XRECORD
  5
15B78
102
{ACAD_REACTORS
330
15B02
102
}
330
15B02
100
AcDbXrecord
280
     1
  1
midship
  1
61
  1
*
  1
*
 70
     0
  1
*
  1
*
  0
XRECORD
  5
15B79
102
{ACAD_REACTORS
330
15B02
102
}
330
15B02
100
AcDbXrecord
280
     1
  1
Mtext
  1
*MTEXT*
  1
*
  1
*
 70
     0
  1
*
  1
*
  0
XRECORD
  5
15B7A
102
{ACAD_REACTORS
330
15B02
102
}
330
15B02
100
AcDbXrecord
280
     1
  1
new
  1
s*
  1
*
  1
*
 70
     0
  1
*
  1
*
  0
XRECORD
  5
15B7B
102
{ACAD_REACTORS
330
15B02
102
}
330
15B02
100
AcDbXrecord
280
     1
  1
No xref
  1
*
  1
*
  1
*
 70
   768
  1
*
  1
*
  0
XRECORD
  5
15B7C
102
{ACAD_REACTORS
330
15B02
102
}
330
15B02
100
AcDbXrecord
280
     1
  1
off
  1
*
  1
*
  1
*
 70
     3
  1
*
  1
*
  0
XRECORD
  5
15B7D
102
{ACAD_REACTORS
330
15B02
102
}
330
15B02
100
AcDbXrecord
280
     1
  1
on
  1
*
  1
*
  1
*
 70
     1
  1
*
  1
*
  0
XRECORD
  5
15B7E
102
{ACAD_REACTORS
330
15B02
102
}
330
15B02
100
AcDbXrecord
280
     1
  1
open
  1
*open*
  1
*
  1
*
 70
     0
  1
*
  1
*
  0
XRECORD
  5
15B7F
102
{ACAD_REACTORS
330
15B02
102
}
330
15B02
100
AcDbXrecord
280
     1
  1
open-d
  1
*open*dim*
  1
*
  1
*
 70
     0
  1
*
  1
*
  0
XRECORD
  5
15B80
102
{ACAD_REACTORS
330
15B02
102
}
330
15B02
100
AcDbXrecord
280
     1
  1
open-p
  1
*part*
  1
*
  1
*
 70
     0
  1
*
  1
*
  0
XRECORD
  5
15B81
102
{ACAD_REACTORS
330
15B02
102
}
330
15B02
100
AcDbXrecord
280
     1
  1
open-t
  1
*open*text*
  1
*
  1
*
 70
     0
  1
*
  1
*
  0
XRECORD
  5
15B82
102
{ACAD_REACTORS
330
15B02
102
}
330
15B02
100
AcDbXrecord
280
     1
  1
Outline
  1
*
  1
*
  1
*
 70
    16
  1
*
  1
*
  0
XRECORD
  5
15B83
102
{ACAD_REACTORS
330
15B02
102
}
330
15B02
100
AcDbXrecord
280
     1
  1
p
  1
p*
  1
*
  1
*
 70
     0
  1
*
  1
*
  0
XRECORD
  5
15B84
102
{ACAD_REACTORS
330
15B02
102
}
330
15B02
100
AcDbXrecord
280
     1
  1
P1
  1
*p1
  1
*
  1
*
 70
     0
  1
*
  1
*
  0
XRECORD
  5
15B85
102
{ACAD_REACTORS
330
15B02
102
}
330
15B02
100
AcDbXrecord
280
     1
  1
P2
  1
*p2
  1
*34
  1
*
 70
     0
  1
*
  1
*
  0
XRECORD
  5
15B86
102
{ACAD_REACTORS
330
15B02
102
}
330
15B02
100
AcDbXrecord
280
     1
  1
P3
  1
*P3
  1
*
  1
*
 70
     0
  1
*
  1
*
  0
XRECORD
  5
15B87
102
{ACAD_REACTORS
330
15B02
102
}
330
15B02
100
AcDbXrecord
280
     1
  1
PANEL
  1
PANEL*
  1
*
  1
*
 70
     0
  1
*
  1
*
  0
XRECORD
  5
15B88
102
{ACAD_REACTORS
330
15B02
102
}
330
15B02
100
AcDbXrecord
280
     1
  1
PANELS
  1
*panels*
  1
*
  1
*
 70
     0
  1
*
  1
*
  0
XRECORD
  5
15B89
102
{ACAD_REACTORS
330
15B02
102
}
330
15B02
100
AcDbXrecord
280
     1
  1
Part
  1
*|part
  1
*
  1
*
 70
     0
  1
*
  1
*
  0
XRECORD
  5
15B8A
102
{ACAD_REACTORS
330
15B02
102
}
330
15B02
100
AcDbXrecord
280
     1
  1
PEN
  1
*pen*
  1
*
  1
*
 70
     0
  1
*
  1
*
  0
XRECORD
  5
15B8B
102
{ACAD_REACTORS
330
15B02
102
}
330
15B02
100
AcDbXrecord
280
     1
  1
penetr
  1
*pentr*
  1
*
  1
*
 70
     0
  1
*
  1
*
  0
XRECORD
  5
15B8C
102
{ACAD_REACTORS
330
15B02
102
}
330
15B02
100
AcDbXrecord
280
     1
  1
ph
  1
*ph*
  1
*
  1
*
 70
     0
  1
*
  1
*
  0
XRECORD
  5
15B8D
102
{ACAD_REACTORS
330
15B02
102
}
330
15B02
100
AcDbXrecord
280
     1
  1
pillar
  1
*pillar*
  1
*
  1
*
 70
     0
  1
*
  1
*
  0
XRECORD
  5
15B8E
102
{ACAD_REACTORS
330
15B02
102
}
330
15B02
100
AcDbXrecord
280
     1
  1
plan-1
  1
*p1
  1
*
  1
*
 70
     0
  1
*
  1
*
  0
XRECORD
  5
15B8F
102
{ACAD_REACTORS
330
15B02
102
}
330
15B02
100
AcDbXrecord
280
     1
  1
plan-2
  1
*p2
  1
*
  1
*
 70
     0
  1
*
  1
*
  0
XRECORD
  5
15B90
102
{ACAD_REACTORS
330
15B02
102
}
330
15B02
100
AcDbXrecord
280
     1
  1
plan-3
  1
*p3
  1
*
  1
*
 70
     0
  1
*
  1
*
  0
XRECORD
  5
15B91
102
{ACAD_REACTORS
330
15B02
102
}
330
15B02
100
AcDbXrecord
280
     1
  1
PLAN1
  1
*P1
  1
*
  1
*
 70
     0
  1
*
  1
*
  0
XRECORD
  5
15B92
102
{ACAD_REACTORS
330
15B02
102
}
330
15B02
100
AcDbXrecord
280
     1
  1
port-1
  1
*pt1
  1
*
  1
*
 70
     0
  1
*
  1
*
  0
XRECORD
  5
15B93
102
{ACAD_REACTORS
330
15B02
102
}
330
15B02
100
AcDbXrecord
280
     1
  1
port-2
  1
*pt2
  1
*
  1
*
 70
     0
  1
*
  1
*
  0
XRECORD
  5
15B94
102
{ACAD_REACTORS
330
15B02
102
}
330
15B02
100
AcDbXrecord
280
     1
  1
port-3
  1
*pt3
  1
*
  1
*
 70
     0
  1
*
  1
*
  0
XRECORD
  5
15B95
102
{ACAD_REACTORS
330
15B02
102
}
330
15B02
100
AcDbXrecord
280
     1
  1
profiel2
  1
BL_PROFIEL2
  1
*
  1
*
 70
     0
  1
*
  1
*
  0
XRECORD
  5
15B96
102
{ACAD_REACTORS
330
15B02
102
}
330
15B02
100
AcDbXrecord
280
     1
  1
profielen
  1
BL_profielen, BL_PROFIEL2
  1
*
  1
*
 70
     0
  1
*
  1
*
  0
XRECORD
  5
15B97
102
{ACAD_REACTORS
330
15B02
102
}
330
15B02
100
AcDbXrecord
280
     1
  1
pt1
  1
*pt1
  1
*
  1
*
 70
     0
  1
*
  1
*
  0
XRECORD
  5
15B98
102
{ACAD_REACTORS
330
15B02
102
}
330
15B02
100
AcDbXrecord
280
     1
  1
pt2
  1
*pt2
  1
*
  1
*
 70
     0
  1
*
  1
*
  0
XRECORD
  5
15B99
102
{ACAD_REACTORS
330
15B02
102
}
330
15B02
100
AcDbXrecord
280
     1
  1
pv
  1
p*-*
  1
*
  1
*
 70
     0
  1
*
  1
*
  0
XRECORD
  5
15B9A
102
{ACAD_REACTORS
330
15B02
102
}
330
15B02
100
AcDbXrecord
280
     1
  1
r
  1
r*
  1
*
  1
*
 70
     0
  1
*
  1
*
  0
XRECORD
  5
15B9B
102
{ACAD_REACTORS
330
15B02
102
}
330
15B02
100
AcDbXrecord
280
     1
  1
r-dim
  1
r-dim*
  1
*
  1
*
 70
     0
  1
*
  1
*
  0
XRECORD
  5
15B9C
102
{ACAD_REACTORS
330
15B02
102
}
330
15B02
100
AcDbXrecord
280
     1
  1
railing
  1
*railing
  1
*
  1
*
 70
     0
  1
*
  1
*
  0
XRECORD
  5
15B9D
102
{ACAD_REACTORS
330
15B02
102
}
330
15B02
100
AcDbXrecord
280
     1
  1
REF
  1
A9800*
  1
8
  1
*
 70
   256
  1
*
  1
*
  0
XRECORD
  5
15B9E
102
{ACAD_REACTORS
330
15B02
102
}
330
15B02
100
AcDbXrecord
280
     1
  1
Remote Control
  1
Rc*
  1
*
  1
*
 70
     0
  1
*
  1
*
  0
XRECORD
  5
15B9F
102
{ACAD_REACTORS
330
15B02
102
}
330
15B02
100
AcDbXrecord
280
     1
  1
Remote Controle
  1
Rc*
  1
*
  1
*
 70
     0
  1
*
  1
*
  0
XRECORD
  5
15BA0
102
{ACAD_REACTORS
330
15B02
102
}
330
15B02
100
AcDbXrecord
280
     1
  1
REV
  1
*RE*
  1
*
  1
*
 70
     0
  1
*
  1
*
  0
XRECORD
  5
15BA1
102
{ACAD_REACTORS
330
15B02
102
}
330
15B02
100
AcDbXrecord
280
     1
  1
roland
  1
*
  1
red
  1
*
 70
     0
  1
*
  1
*
  0
XRECORD
  5
15BA2
102
{ACAD_REACTORS
330
15B02
102
}
330
15B02
100
AcDbXrecord
280
     1
  1
S0
  1
S0*
  1
*
  1
*
 70
     0
  1
*
  1
*
  0
XRECORD
  5
15BA3
102
{ACAD_REACTORS
330
15B02
102
}
330
15B02
100
AcDbXrecord
280
     1
  1
s1
  1
*S1
  1
*
  1
*
 70
     0
  1
*
  1
*
  0
XRECORD
  5
15BA4
102
{ACAD_REACTORS
330
15B02
102
}
330
15B02
100
AcDbXrecord
280
     1
  1
s2
  1
*s2
  1
*
  1
*
 70
     0
  1
*
  1
*
  0
XRECORD
  5
15BA5
102
{ACAD_REACTORS
330
15B02
102
}
330
15B02
100
AcDbXrecord
280
     1
  1
scupper
  1
*scupper*
  1
*
  1
*
 70
     0
  1
*
  1
*
  0
XRECORD
  5
15BA6
102
{ACAD_REACTORS
330
15B02
102
}
330
15B02
100
AcDbXrecord
280
     1
  1
SECSTIF
  1
*SECSTIF
  1
*
  1
*
 70
     0
  1
*
  1
*
  0
XRECORD
  5
15BA7
102
{ACAD_REACTORS
330
15B02
102
}
330
15B02
100
AcDbXrecord
280
     1
  1
section
  1
*
  1
*
  1
*
 70
     0
  1
*
  1
*
  0
XRECORD
  5
15BA8
102
{ACAD_REACTORS
330
15B02
102
}
330
15B02
100
AcDbXrecord
280
     1
  1
Ship
  1
*ship*
  1
*
  1
*
 70
     0
  1
*
  1
*
  0
XRECORD
  5
15BA9
102
{ACAD_REACTORS
330
15B02
102
}
330
15B02
100
AcDbXrecord
280
     1
  1
shut
  1
s*
  1
*
  1
*
 70
     0
  1
*
  1
*
  0
XRECORD
  5
15BAA
102
{ACAD_REACTORS
330
15B02
102
}
330
15B02
100
AcDbXrecord
280
     1
  1
SIT
  1
SIT*
  1
*
  1
*
 70
     0
  1
*
  1
*
  0
XRECORD
  5
15BAB
102
{ACAD_REACTORS
330
15B02
102
}
330
15B02
100
AcDbXrecord
280
     1
  1
souterrain
  1
*
  1
*
  1
*
 70
     0
  1
*
  1
*
  0
XRECORD
  5
15BAC
102
{ACAD_REACTORS
330
15B02
102
}
330
15B02
100
AcDbXrecord
280
     1
  1
sp
  1
*sp*
  1
*
  1
*
 70
     0
  1
*
  1
*
  0
XRECORD
  5
15BAD
102
{ACAD_REACTORS
330
15B02
102
}
330
15B02
100
AcDbXrecord
280
     1
  1
span
  1
*span*
  1
*
  1
*
 70
     0
  1
*
  1
*
  0
XRECORD
  5
15BAE
102
{ACAD_REACTORS
330
15B02
102
}
330
15B02
100
AcDbXrecord
280
     1
  1
stb-1
  1
*s1
  1
*
  1
*
 70
     0
  1
*
  1
*
  0
XRECORD
  5
15BAF
102
{ACAD_REACTORS
330
15B02
102
}
330
15B02
100
AcDbXrecord
280
     1
  1
stb-2
  1
*s2
  1
*
  1
*
 70
     0
  1
*
  1
*
  0
XRECORD
  5
15BB0
102
{ACAD_REACTORS
330
15B02
102
}
330
15B02
100
AcDbXrecord
280
     1
  1
stb-3
  1
*s3
  1
*
  1
*
 70
     0
  1
*
  1
*
  0
XRECORD
  5
15BB1
102
{ACAD_REACTORS
330
15B02
102
}
330
15B02
100
AcDbXrecord
280
     1
  1
Stool
  1
Stool*
  1
*
  1
*
 70
     0
  1
*
  1
*
  0
XRECORD
  5
15BB2
102
{ACAD_REACTORS
330
15B02
102
}
330
15B02
100
AcDbXrecord
280
     1
  1
stowage
  1
00*
  1
*
  1
*
 70
     0
  1
*
  1
*
  0
XRECORD
  5
15BB3
102
{ACAD_REACTORS
330
15B02
102
}
330
15B02
100
AcDbXrecord
280
     1
  1
SUFLATORI
  1
*
  1
*
  1
*
 70
     1
  1
*
  1
*
  0
XRECORD
  5
15BB4
102
{ACAD_REACTORS
330
15B02
102
}
330
15B02
100
AcDbXrecord
280
     1
  1
suplay
  1
*sup*
  1
*
  1
*
 70
     0
  1
*
  1
*
  0
XRECORD
  5
15BB5
102
{ACAD_REACTORS
330
15B02
102
}
330
15B02
100
AcDbXrecord
280
     1
  1
susp
  1
susp*
  1
*
  1
*
 70
     0
  1
*
  1
*
  0
XRECORD
  5
15BB6
102
{ACAD_REACTORS
330
15B02
102
}
330
15B02
100
AcDbXrecord
280
     1
  1
Suspension
  1
Susp*
  1
*
  1
*
 70
     0
  1
*
  1
*
  0
XRECORD
  5
15BB7
102
{ACAD_REACTORS
330
15B02
102
}
330
15B02
100
AcDbXrecord
280
     1
  1
synbool
  1
symbool
  1
*
  1
*
 70
     0
  1
*
  1
*
  0
XRECORD
  5
15BB8
102
{ACAD_REACTORS
330
15B02
102
}
330
15B02
100
AcDbXrecord
280
     1
  1
T
  1
*
  1
*
  1
*
 70
    12
  1
*
  1
*
  0
XRECORD
  5
15BB9
102
{ACAD_REACTORS
330
15B02
102
}
330
15B02
100
AcDbXrecord
280
     1
  1
tekst
  1
*tekst
  1
*
  1
*
 70
     0
  1
*
  1
*
  0
XRECORD
  5
15BBA
102
{ACAD_REACTORS
330
15B02
102
}
330
15B02
100
AcDbXrecord
280
     1
  1
temp
  1
*
  1
green
  1
*
 70
    13
  1
*
  1
*
  0
XRECORD
  5
15BBB
102
{ACAD_REACTORS
330
15B02
102
}
330
15B02
100
AcDbXrecord
280
     1
  1
test
  1
*
  1
*
  1
*
 70
     0
  1
*
  1
*
  0
XRECORD
  5
15BBC
102
{ACAD_REACTORS
330
15B02
102
}
330
15B02
100
AcDbXrecord
280
     1
  1
text
  1
*
  1
*
  1
*
 70
     0
  1
*
  1
*
  0
XRECORD
  5
15BBD
102
{ACAD_REACTORS
330
15B02
102
}
330
15B02
100
AcDbXrecord
280
     1
  1
TH
  1
*
  1
*
  1
*
 70
    12
  1
*
  1
*
  0
XRECORD
  5
15BBE
102
{ACAD_REACTORS
330
15B02
102
}
330
15B02
100
AcDbXrecord
280
     1
  1
TOPPLATE
  1
*TOPPLATE
  1
*
  1
*
 70
     0
  1
*
  1
*
  0
XRECORD
  5
15BBF
102
{ACAD_REACTORS
330
15B02
102
}
330
15B02
100
AcDbXrecord
280
     1
  1
tray
  1
*tray*
  1
*
  1
*
 70
     0
  1
*
  1
*
  0
XRECORD
  5
15BC0
102
{ACAD_REACTORS
330
15B02
102
}
330
15B02
100
AcDbXrecord
280
     1
  1
treppe
  1
*treppe*
  1
*
  1
*
 70
     0
  1
*
  1
*
  0
XRECORD
  5
15BC1
102
{ACAD_REACTORS
330
15B02
102
}
330
15B02
100
AcDbXrecord
280
     1
  1
tt
  1
u*
  1
*
  1
*
 70
     0
  1
*
  1
*
  0
XRECORD
  5
15BC2
102
{ACAD_REACTORS
330
15B02
102
}
330
15B02
100
AcDbXrecord
280
     1
  1
txt
  1
*txt*
  1
*
  1
*
 70
     0
  1
*
  1
*
  0
XRECORD
  5
15BC3
102
{ACAD_REACTORS
330
15B02
102
}
330
15B02
100
AcDbXrecord
280
     1
  1
v31
  1
V31*
  1
*
  1
*
 70
     0
  1
*
  1
*
  0
XRECORD
  5
15BC4
102
{ACAD_REACTORS
330
15B02
102
}
330
15B02
100
AcDbXrecord
280
     1
  1
VOLHARDING
  1
*_*
  1
*
  1
*
 70
     0
  1
*
  1
*
  0
XRECORD
  5
15BC5
102
{ACAD_REACTORS
330
15B02
102
}
330
15B02
100
AcDbXrecord
280
     1
  1
vul
  1
*vulling
  1
*
  1
*
 70
     0
  1
*
  1
*
  0
XRECORD
  5
15BC6
102
{ACAD_REACTORS
330
15B02
102
}
330
15B02
100
AcDbXrecord
280
     1
  1
W
  1
W*
  1
*
  1
*
 70
     0
  1
*
  1
*
  0
XRECORD
  5
15BC7
102
{ACAD_REACTORS
330
15B02
102
}
330
15B02
100
AcDbXrecord
280
     1
  1
w.t. lines
  1
*w.t. lines*
  1
*
  1
*
 70
     0
  1
*
  1
*
  0
XRECORD
  5
15BC8
102
{ACAD_REACTORS
330
15B02
102
}
330
15B02
100
AcDbXrecord
280
     1
  1
wadigoten
  1
BL_WADIGOTEN
  1
*
  1
*
 70
     0
  1
*
  1
*
  0
XRECORD
  5
15BC9
102
{ACAD_REACTORS
330
15B02
102
}
330
15B02
100
AcDbXrecord
280
     1
  1
water
  1
*water*
  1
*
  1
*
 70
     0
  1
*
  1
*
  0
XRECORD
  5
15BCA
102
{ACAD_REACTORS
330
15B02
102
}
330
15B02
100
AcDbXrecord
280
     1
  1
Waterlines
  1
wl*
  1
*
  1
*
 70
     0
  1
*
  1
*
  0
XRECORD
  5
15BCB
102
{ACAD_REACTORS
330
15B02
102
}
330
15B02
100
AcDbXrecord
280
     1
  1
white
  1
*
  1
white
  1
*
 70
     0
  1
*
  1
*
  0
XRECORD
  5
15BCC
102
{ACAD_REACTORS
330
15B02
102
}
330
15B02
100
AcDbXrecord
280
     1
  1
Winch
  1
Winch*
  1
*
  1
*
 70
     0
  1
*
  1
*
  0
XRECORD
  5
15BCD
102
{ACAD_REACTORS
330
15B02
102
}
330
15B02
100
AcDbXrecord
280
     1
  1
wire
  1
wire*
  1
*
  1
*
 70
     0
  1
*
  1
*
  0
XRECORD
  5
15BCE
102
{ACAD_REACTORS
330
15B02
102
}
330
15B02
100
AcDbXrecord
280
     1
  1
ww
  1
*ww
  1
*
  1
*
 70
     0
  1
*
  1
*
  0
XRECORD
  5
15BCF
102
{ACAD_REACTORS
330
15B02
102
}
330
15B02
100
AcDbXrecord
280
     1
  1
ww1
  1
ww*
  1
*
  1
*
 70
     0
  1
*
  1
*
  0
XRECORD
  5
15BD0
102
{ACAD_REACTORS
330
15B02
102
}
330
15B02
100
AcDbXrecord
280
     1
  1
zichtbareHWA
  1
BL_zichtbareHWA
  1
*
  1
*
 70
     0
  1
*
  1
*
  0
XRECORD
  5
15BD1
102
{ACAD_REACTORS
330
15B02
102
}
330
15B02
100
AcDbXrecord
280
     1
  1

  1
**
  1
*
  1
*
 70
     0
  1
*
  1
*
  0
ENDSEC
  0
EOF
