  0
SECTION
  2
HEADER
  9
$ACADVER
  1
AC1015
  9
$ACADMAINTVER
 70
    10
  9
$DWGCODEPAGE
  3
ANSI_1252
  9
$INSBASE
 10
0.0
 20
0.0
 30
0.0
  9
$EXTMIN
 10
-11255.6624017688
 20
6258.453249661373
 30
0.0
  9
$EXTMAX
 10
38584.74930933254
 20
22845.69536017233
 30
3.0
  9
$LIMMIN
 10
0.0
 20
0.0
  9
$LIMMAX
 10
12.0
 20
9.0
  9
$ORTHOMODE
 70
     0
  9
$REGENMODE
 70
     1
  9
$FILLMODE
 70
     1
  9
$QTEXTMODE
 70
     0
  9
$MIRRTEXT
 70
     1
  9
$LTSCALE
 40
1.0
  9
$ATTMODE
 70
     1
  9
$TEXTSIZE
 40
12.0
  9
$TRACEWID
 40
0.05
  9
$TEXTSTYLE
  7
ARIAL
  9
$CLAYER
  8
Symboler
  9
$CELTYPE
  6
CONTINUOUS
  9
$CECOLOR
 62
   256
  9
$CELTSCALE
 40
1.0
  9
$DISPSILH
 70
     0
  9
$DIMSCALE
 40
1.0
  9
$DIMASZ
 40
12.0
  9
$DIMEXO
 40
0.06
  9
$DIMDLI
 40
0.15
  9
$DIMRND
 40
0.0
  9
$DIMDLE
 40
0.0
  9
$DIMEXE
 40
0.3
  9
$DIMTP
 40
0.0
  9
$DIMTM
 40
0.0
  9
$DIMTXT
 40
12.0
  9
$DIMCEN
 40
0.09
  9
$DIMTSZ
 40
0.0
  9
$DIMTOL
 70
     0
  9
$DIMLIM
 70
     0
  9
$DIMTIH
 70
     1
  9
$DIMTOH
 70
     1
  9
$DIMSE1
 70
     0
  9
$DIMSE2
 70
     0
  9
$DIMTAD
 70
     0
  9
$DIMZIN
 70
     0
  9
$DIMBLK
  1

  9
$DIMASO
 70
     1
  9
$DIMSHO
 70
     1
  9
$DIMPOST
  1

  9
$DIMAPOST
  1

  9
$DIMALT
 70
     0
  9
$DIMALTD
 70
     2
  9
$DIMALTF
 40
25.4
  9
$DIMLFAC
 40
1.0
  9
$DIMTOFL
 70
     0
  9
$DIMTVP
 40
0.0
  9
$DIMTIX
 70
     0
  9
$DIMSOXD
 70
     0
  9
$DIMSAH
 70
     0
  9
$DIMBLK1
  1

  9
$DIMBLK2
  1

  9
$DIMSTYLE
  2
TST
  9
$DIMCLRD
 70
     7
  9
$DIMCLRE
 70
     0
  9
$DIMCLRT
 70
     7
  9
$DIMTFAC
 40
0.072
  9
$DIMGAP
 40
3.0
  9
$DIMJUST
 70
     0
  9
$DIMSD1
 70
     0
  9
$DIMSD2
 70
     0
  9
$DIMTOLJ
 70
     1
  9
$DIMTZIN
 70
     0
  9
$DIMALTZ
 70
     0
  9
$DIMALTTZ
 70
     0
  9
$DIMUPT
 70
     0
  9
$DIMDEC
 70
     1
  9
$DIMTDEC
 70
     1
  9
$DIMALTU
 70
     2
  9
$DIMALTTD
 70
     2
  9
$DIMTXSTY
  7
ARIAL
  9
$DIMAUNIT
 70
     0
  9
$DIMADEC
 70
     0
  9
$DIMALTRND
 40
0.0
  9
$DIMAZIN
 70
     0
  9
$DIMDSEP
 70
    46
  9
$DIMATFIT
 70
     3
  9
$DIMFRAC
 70
     0
  9
$DIMLDRBLK
  1

  9
$DIMLUNIT
 70
     2
  9
$DIMLWD
 70
    -2
  9
$DIMLWE
 70
    -2
  9
$DIMTMOVE
 70
     0
  9
$LUNITS
 70
     2
  9
$LUPREC
 70
     2
  9
$SKETCHINC
 40
0.1
  9
$FILLETRAD
 40
3.0
  9
$AUNITS
 70
     0
  9
$AUPREC
 70
     0
  9
$MENU
  1
acad
  9
$ELEVATION
 40
0.0
  9
$PELEVATION
 40
0.0
  9
$THICKNESS
 40
0.1
  9
$LIMCHECK
 70
     0
  9
$CHAMFERA
 40
0.0
  9
$CHAMFERB
 40
0.0
  9
$CHAMFERC
 40
10.0
  9
$CHAMFERD
 40
0.174532925199433
  9
$SKPOLY
 70
     0
  9
$TDCREATE
 40
2450830.359786921
  9
$TDUCREATE
 40
2450830.276453588
  9
$TDUPDATE
 40
2453959.393118622
  9
$TDUUPDATE
 40
2453959.309785289
  9
$TDINDWG
 40
1.0832254398
  9
$TDUSRTIMER
 40
1.0832200116
  9
$USRTIMER
 70
     1
  9
$ANGBASE
 50
0.0
  9
$ANGDIR
 70
     0
  9
$PDMODE
 70
     0
  9
$PDSIZE
 40
0.0
  9
$PLINEWID
 40
0.3
  9
$SPLFRAME
 70
     1
  9
$SPLINETYPE
 70
     6
  9
$SPLINESEGS
 70
     8
  9
$HANDSEED
  5
16073
  9
$SURFTAB1
 70
     6
  9
$SURFTAB2
 70
     6
  9
$SURFTYPE
 70
     6
  9
$SURFU
 70
     6
  9
$SURFV
 70
     6
  9
$UCSBASE
  2

  9
$UCSNAME
  2

  9
$UCSORG
 10
-1376.91011567699
 20
669.2683454919897
 30
0.0
  9
$UCSXDIR
 10
1.0
 20
0.0
 30
0.0
  9
$UCSYDIR
 10
0.0
 20
1.0
 30
0.0
  9
$UCSORTHOREF
  2

  9
$UCSORTHOVIEW
 70
     0
  9
$UCSORGTOP
 10
0.0
 20
0.0
 30
0.0
  9
$UCSORGBOTTOM
 10
0.0
 20
0.0
 30
0.0
  9
$UCSORGLEFT
 10
0.0
 20
0.0
 30
0.0
  9
$UCSORGRIGHT
 10
0.0
 20
0.0
 30
0.0
  9
$UCSORGFRONT
 10
0.0
 20
0.0
 30
0.0
  9
$UCSORGBACK
 10
0.0
 20
0.0
 30
0.0
  9
$PUCSBASE
  2

  9
$PUCSNAME
  2

  9
$PUCSORG
 10
0.0
 20
0.0
 30
0.0
  9
$PUCSXDIR
 10
1.0
 20
0.0
 30
0.0
  9
$PUCSYDIR
 10
0.0
 20
1.0
 30
0.0
  9
$PUCSORTHOREF
  2

  9
$PUCSORTHOVIEW
 70
     0
  9
$PUCSORGTOP
 10
0.0
 20
0.0
 30
0.0
  9
$PUCSORGBOTTOM
 10
0.0
 20
0.0
 30
0.0
  9
$PUCSORGLEFT
 10
0.0
 20
0.0
 30
0.0
  9
$PUCSORGRIGHT
 10
0.0
 20
0.0
 30
0.0
  9
$PUCSORGFRONT
 10
0.0
 20
0.0
 30
0.0
  9
$PUCSORGBACK
 10
0.0
 20
0.0
 30
0.0
  9
$USERI1
 70
     0
  9
$USERI2
 70
     0
  9
$USERI3
 70
     0
  9
$USERI4
 70
     0
  9
$USERI5
 70
     0
  9
$USERR1
 40
0.0
  9
$USERR2
 40
0.0
  9
$USERR3
 40
0.0
  9
$USERR4
 40
0.0
  9
$USERR5
 40
0.0
  9
$WORLDVIEW
 70
     1
  9
$SHADEDGE
 70
     3
  9
$SHADEDIF
 70
    70
  9
$TILEMODE
 70
     1
  9
$MAXACTVP
 70
    16
  9
$PINSBASE
 10
0.0
 20
0.0
 30
0.0
  9
$PLIMCHECK
 70
     0
  9
$PEXTMIN
 10
1.000000000000000E+20
 20
1.000000000000000E+20
 30
1.000000000000000E+20
  9
$PEXTMAX
 10
-1.000000000000000E+20
 20
-1.000000000000000E+20
 30
-1.000000000000000E+20
  9
$PLIMMIN
 10
0.0
 20
0.0
  9
$PLIMMAX
 10
12.0
 20
9.0
  9
$UNITMODE
 70
     0
  9
$VISRETAIN
 70
     0
  9
$PLINEGEN
 70
     0
  9
$PSLTSCALE
 70
     0
  9
$TREEDEPTH
 70
  3020
  9
$CMLSTYLE
  2
STANDARD
  9
$CMLJUST
 70
     0
  9
$CMLSCALE
 40
1.0
  9
$PROXYGRAPHICS
 70
     1
  9
$MEASUREMENT
 70
     0
  9
$CELWEIGHT
370
    -1
  9
$ENDCAPS
280
     0
  9
$JOINSTYLE
280
     0
  9
$LWDISPLAY
290
     0
  9
$INSUNITS
 70
     0
  9
$HYPERLINKBASE
  1

  9
$STYLESHEET
  1

  9
$XEDIT
290
     1
  9
$CEPSNTYPE
380
     0
  9
$PSTYLEMODE
290
     1
  9
$FINGERPRINTGUID
  2
{8CB4EE96-A2FC-4BAD-8A58-F7B03F62799B}
  9
$VERSIONGUID
  2
{15050FB6-E8D1-41AB-9831-710BA3E73B17}
  9
$EXTNAMES
290
     1
  9
$PSVPSCALE
 40
0.0
  9
$OLESTARTUP
290
     0
  0
ENDSEC
  0
SECTION
  2
CLASSES
  0
CLASS
  1
LWPOLYLINE
  2
AcDbPolyline
  3
AutoCAD 2000
 90
    32768
280
     0
281
     1
  0
CLASS
  1
HATCH
  2
AcDbHatch
  3
AutoCAD 2000
 90
    32768
280
     0
281
     1
  0
CLASS
  1
DICTIONARYVAR
  2
AcDbDictionaryVar
  3
AutoCAD 2000
 90
        0
280
     0
281
     0
  0
CLASS
  1
ACDBDICTIONARYWDFLT
  2
AcDbDictionaryWithDefault
  3
AutoCAD 2000
 90
        0
280
     0
281
     0
  0
CLASS
  1
ACDBPLACEHOLDER
  2
AcDbPlaceHolder
  3
AutoCAD 2000
 90
        0
280
     0
281
     0
  0
CLASS
  1
LAYOUT
  2
AcDbLayout
  3
AutoCAD 2000
 90
        0
280
     0
281
     0
  0
ENDSEC
  0
SECTION
  2
TABLES
  0
TABLE
  2
VPORT
  5
2E2A
330
0
100
AcDbSymbolTable
 70
     2
  0
VPORT
  5
16072
330
2E2A
100
AcDbSymbolTableRecord
100
AcDbViewportTableRecord
  2
*Active
 70
     0
 10
0.0
 20
0.0
 11
1.0
 21
1.0
 12
10712.85107882691
 22
11801.64183368749
 13
0.0
 23
0.0
 14
0.5
 24
0.5
 15
1.0
 25
1.0
 16
0.0
 26
0.0
 36
1.0
 17
0.0
 27
0.0
 37
0.0
 40
43534.05770351757
 41
1.521563342318059
 42
50.0
 43
0.0
 44
0.0
 50
0.0
 51
0.0
 71
     0
 72
   100
 73
     1
 74
     1
 75
     0
 76
     0
 77
     0
 78
     0
281
     0
 65
     1
110
-1376.91011567699
120
669.2683454919897
130
0.0
111
1.0
121
0.0
131
0.0
112
0.0
122
1.0
132
0.0
 79
     0
146
0.0
  0
ENDTAB
  0
TABLE
  2
LTYPE
  5
2E27
330
0
100
AcDbSymbolTable
 70
     1
  0
LTYPE
  5
2E34
330
2E27
100
AcDbSymbolTableRecord
100
AcDbLinetypeTableRecord
  2
BYBLOCK
 70
     0
  3

 72
    65
 73
     0
 40
0.0
  0
LTYPE
  5
2E35
330
2E27
100
AcDbSymbolTableRecord
100
AcDbLinetypeTableRecord
  2
BYLAYER
 70
     0
  3

 72
    65
 73
     0
 40
0.0
  0
LTYPE
  5
2E36
330
2E27
100
AcDbSymbolTableRecord
100
AcDbLinetypeTableRecord
  2
CONTINUOUS
 70
     0
  3
Solid line
 72
    65
 73
     0
 40
0.0
  0
ENDTAB
  0
TABLE
  2
LAYER
  5
2E24
102
{ACAD_XDICTIONARY
360
15B01
102
}
330
0
100
AcDbSymbolTable
 70
    17
  0
LAYER
  5
2E31
330
2E24
100
AcDbSymbolTableRecord
100
AcDbLayerTableRecord
  2
0
 70
     0
 62
     7
  6
CONTINUOUS
370
    -3
390
158BF
  0
LAYER
  5
2E5D
330
2E24
100
AcDbSymbolTableRecord
100
AcDbLayerTableRecord
  2
LAYER1
 70
     0
 62
     7
  6
CONTINUOUS
370
    -3
390
158BF
  0
LAYER
  5
2E5F
330
2E24
100
AcDbSymbolTableRecord
100
AcDbLayerTableRecord
  2
TEKST
 70
     0
 62
     7
  6
CONTINUOUS
370
    -3
390
158BF
  0
LAYER
  5
2E60
330
2E24
100
AcDbSymbolTableRecord
100
AcDbLayerTableRecord
  2
DEFPOINTS
 70
     0
 62
     7
  6
CONTINUOUS
290
     0
370
    -3
390
158BF
  0
LAYER
  5
2E7C
330
2E24
100
AcDbSymbolTableRecord
100
AcDbLayerTableRecord
  2
ASHADE
 70
     4
 62
     7
  6
CONTINUOUS
370
    -3
390
158BF
  0
LAYER
  5
30B2
330
2E24
100
AcDbSymbolTableRecord
100
AcDbLayerTableRecord
  2
OMRISS
 70
     0
 62
     8
  6
CONTINUOUS
370
    -3
390
158BF
  0
LAYER
  5
5978
330
2E24
100
AcDbSymbolTableRecord
100
AcDbLayerTableRecord
  2
NIPPEL
 70
     0
 62
   214
  6
CONTINUOUS
370
    -3
390
158BF
  0
LAYER
  5
597D
330
2E24
100
AcDbSymbolTableRecord
100
AcDbLayerTableRecord
  2
GJENGEBUNN
 70
     0
 62
     8
  6
CONTINUOUS
370
    -3
390
158BF
  0
LAYER
  5
10DF0
330
2E24
100
AcDbSymbolTableRecord
100
AcDbLayerTableRecord
  2
LAYER01
 70
     0
 62
     7
  6
CONTINUOUS
370
    -3
390
158BF
  0
LAYER
  5
15BDA
330
2E24
100
AcDbSymbolTableRecord
100
AcDbLayerTableRecord
  2
Omriss tanker
 70
     0
 62
    20
  6
CONTINUOUS
370
    -3
390
158BF
  0
LAYER
  5
15BDB
330
2E24
100
AcDbSymbolTableRecord
100
AcDbLayerTableRecord
  2
Symboler
 70
     0
 62
    42
  6
CONTINUOUS
370
    -3
390
158BF
  0
LAYER
  5
15C17
330
2E24
100
AcDbSymbolTableRecord
100
AcDbLayerTableRecord
  2
Drop-line PS
 70
     0
 62
    13
  6
CONTINUOUS
370
    -3
390
158BF
  0
LAYER
  5
15C18
330
2E24
100
AcDbSymbolTableRecord
100
AcDbLayerTableRecord
  2
Drop-line SB
 70
     0
 62
   101
  6
CONTINUOUS
370
    -3
390
158BF
  0
LAYER
  5
15C19
330
2E24
100
AcDbSymbolTableRecord
100
AcDbLayerTableRecord
  2
Suction PS
 70
     0
 62
   131
  6
CONTINUOUS
370
    -3
390
158BF
  0
LAYER
  5
15C1A
330
2E24
100
AcDbSymbolTableRecord
100
AcDbLayerTableRecord
  2
Suction SB
 70
     0
 62
   211
  6
CONTINUOUS
370
    -3
390
158BF
  0
LAYER
  5
15C1B
330
2E24
100
AcDbSymbolTableRecord
100
AcDbLayerTableRecord
  2
Suction C
 70
     0
 62
   201
  6
CONTINUOUS
370
    -3
390
158BF
  0
LAYER
  5
15C1C
330
2E24
100
AcDbSymbolTableRecord
100
AcDbLayerTableRecord
  2
Drop-line C
 70
     0
 62
    66
  6
CONTINUOUS
370
    -3
390
158BF
  0
ENDTAB
  0
TABLE
  2
STYLE
  5
2E25
330
0
100
AcDbSymbolTable
 70
     6
  0
STYLE
  5
2E32
330
2E25
100
AcDbSymbolTableRecord
100
AcDbTextStyleTableRecord
  2
STANDARD
 70
     0
 40
3.0
 41
1.0
 50
0.0
 71
     0
 42
3.0
  3
txt
  4

  0
STYLE
  5
2E40
330
2E25
100
AcDbSymbolTableRecord
100
AcDbTextStyleTableRecord
  2
ROMANS
 70
     0
 40
3.0
 41
1.0
 50
0.0
 71
     0
 42
3.0
  3
romans
  4

  0
STYLE
  5
597F
330
2E25
100
AcDbSymbolTableRecord
100
AcDbTextStyleTableRecord
  2
ARIAL MT ROUND
 70
     0
 40
2.0
 41
1.0
 50
0.0
 71
     0
 42
2.0
  3
ARIAL.TTF
  4

1001
ACAD
1000
Arial
1071
       34
  0
STYLE
  5
5980
330
2E25
100
AcDbSymbolTableRecord
100
AcDbTextStyleTableRecord
  2
ARIAL
 70
     0
 40
12.0
 41
1.0
 50
0.0
 71
     0
 42
12.0
  3
ARIAL.TTF
  4

1001
ACAD
1000
Arial
1071
       34
  0
STYLE
  5
15BDC
330
2E25
100
AcDbSymbolTableRecord
100
AcDbTextStyleTableRecord
  2
ARIAL BOLD
 70
     0
 40
0.0
 41
1.0
 50
0.0
 71
     0
 42
0.2
  3
ARIALBD.TTF
  4

1001
ACAD
1000
Arial
1071
 33554466
  0
STYLE
  5
15F40
330
2E25
100
AcDbSymbolTableRecord
100
AcDbTextStyleTableRecord
  2

 70
     1
 40
0.0
 41
1.0
 50
0.0
 71
     0
 42
12.0
  3
ltypeshp.shx
  4

  0
ENDTAB
  0
TABLE
  2
VIEW
  5
2E28
330
0
100
AcDbSymbolTable
 70
     0
  0
ENDTAB
  0
TABLE
  2
UCS
  5
2E29
330
0
100
AcDbSymbolTable
 70
     0
  0
ENDTAB
  0
TABLE
  2
APPID
  5
2E2B
330
0
100
AcDbSymbolTable
 70
     8
  0
APPID
  5
2E33
330
2E2B
100
AcDbSymbolTableRecord
100
AcDbRegAppTableRecord
  2
ACAD
 70
     0
  0
APPID
  5
2E5B
330
2E2B
100
AcDbSymbolTableRecord
100
AcDbRegAppTableRecord
  2
AME_SOL
 70
     0
  0
APPID
  5
2E7A
330
2E2B
100
AcDbSymbolTableRecord
100
AcDbRegAppTableRecord
  2
AVE_RENDER
 70
     0
  0
APPID
  5
2E7B
330
2E2B
100
AcDbSymbolTableRecord
100
AcDbRegAppTableRecord
  2
AVE_ENTITY_MATERIAL
 70
     0
  0
APPID
  5
2E88
330
2E2B
100
AcDbSymbolTableRecord
100
AcDbRegAppTableRecord
  2
AVE_FINISH
 70
     0
  0
APPID
  5
2E89
330
2E2B
100
AcDbSymbolTableRecord
100
AcDbRegAppTableRecord
  2
AVE_MATERIAL
 70
     0
  0
APPID
  5
2E8A
330
2E2B
100
AcDbSymbolTableRecord
100
AcDbRegAppTableRecord
  2
AVE_GLOBAL
 70
     0
  0
APPID
  5
15AF6
330
2E2B
100
AcDbSymbolTableRecord
100
AcDbRegAppTableRecord
  2
DCO15
 70
     0
  0
ENDTAB
  0
TABLE
  2
DIMSTYLE
  5
2E2C
330
0
100
AcDbSymbolTable
 70
     2
100
AcDbDimStyleTable
 71
     1
340
2E5C
  0
DIMSTYLE
105
2E5C
330
2E2C
100
AcDbSymbolTableRecord
100
AcDbDimStyleTableRecord
  2
TST
 70
     0
 41
1.0
 42
0.06
140
2.5
146
0.072
147
3.0
271
     2
272
     2
279
     2
340
2E40
  0
DIMSTYLE
105
10DF2
330
2E2C
100
AcDbSymbolTableRecord
100
AcDbDimStyleTableRecord
  2
STANDARD
 70
     0
340
2E32
  0
ENDTAB
  0
TABLE
  2
BLOCK_RECORD
  5
2E23
330
0
100
AcDbSymbolTable
 70
     9
  0
BLOCK_RECORD
  5
2E3A
330
2E23
100
AcDbSymbolTableRecord
100
AcDbBlockTableRecord
  2
*MODEL_SPACE
340
158C2
  0
BLOCK_RECORD
  5
2E37
330
2E23
100
AcDbSymbolTableRecord
100
AcDbBlockTableRecord
  2
*PAPER_SPACE
340
158C3
  0
BLOCK_RECORD
  5
2E3E
330
2E23
100
AcDbSymbolTableRecord
100
AcDbBlockTableRecord
  2
AME_NIL
340
0
102
{BLKREFS
331
17
331
10E9D
331
10EAA
331
10EB6
331
13A16
331
13A23
331
13A2F
102
}
  0
BLOCK_RECORD
  5
2E3F
330
2E23
100
AcDbSymbolTableRecord
100
AcDbBlockTableRecord
  2
AME_SOL
340
0
102
{BLKREFS
331
29
331
10E9E
331
10EAB
331
10EB7
331
13A17
331
13A24
331
13A30
102
}
  0
BLOCK_RECORD
  5
2E7D
330
2E23
100
AcDbSymbolTableRecord
100
AcDbBlockTableRecord
  2
AVE_RENDER
340
0
102
{BLKREFS
331
2E80
331
2E81
331
2E82
331
2E83
331
2E84
331
2E85
331
2E86
331
2E87
331
10EA0
331
10EA1
331
10EA2
331
10EA3
331
10EA4
331
10EA5
331
10EA6
331
10EA7
331
10EAD
331
10EAE
331
10EAF
331
10EB0
331
10EB1
331
10EB2
331
10EB3
331
10EB4
331
10EB9
331
10EBA
331
10EBB
331
10EBC
331
10EBD
331
10EBE
331
10EBF
331
10EC0
331
13A19
331
13A1A
331
13A1B
331
13A1C
331
13A1D
331
13A1E
331
13A1F
331
13A20
331
13A26
331
13A27
331
13A28
331
13A29
331
13A2A
331
13A2B
331
13A2C
331
13A2D
331
13A32
331
13A33
331
13A34
331
13A35
331
13A36
331
13A37
331
13A38
331
13A39
102
}
  0
BLOCK_RECORD
  5
2E8B
330
2E23
100
AcDbSymbolTableRecord
100
AcDbBlockTableRecord
  2
AVE_GLOBAL
340
0
102
{BLKREFS
331
2E8E
331
10EA8
331
10EB5
331
10EC1
331
13A21
331
13A2E
331
13A3A
102
}
  0
BLOCK_RECORD
  5
15BD2
330
2E23
100
AcDbSymbolTableRecord
100
AcDbBlockTableRecord
  2
Remote valve
340
0
310
2800000020000000200000000100080000000000000400000000000000000000000000000000000000000000000080000080000000808000800000008000800080800000C0C0C000C0DCC000F0CAA6000020400000206000002080000020A0000020C0000020E00000400000004020000040400000406000004080000040A0
310
000040C0000040E00000600000006020000060400000606000006080000060A0000060C0000060E00000800000008020000080400000806000008080000080A0000080C0000080E00000A0000000A0200000A0400000A0600000A0800000A0A00000A0C00000A0E00000C0000000C0200000C0400000C0600000C0800000C0
310
A00000C0C00000C0E00000E0000000E0200000E0400000E0600000E0800000E0A00000E0C00000E0E00040000000400020004000400040006000400080004000A0004000C0004000E00040200000402020004020400040206000402080004020A0004020C0004020E000404000004040200040404000404060004040800040
310
40A0004040C0004040E00040600000406020004060400040606000406080004060A0004060C0004060E00040800000408020004080400040806000408080004080A0004080C0004080E00040A0000040A0200040A0400040A0600040A0800040A0A00040A0C00040A0E00040C0000040C0200040C0400040C0600040C08000
310
40C0A00040C0C00040C0E00040E0000040E0200040E0400040E0600040E0800040E0A00040E0C00040E0E00080000000800020008000400080006000800080008000A0008000C0008000E00080200000802020008020400080206000802080008020A0008020C0008020E00080400000804020008040400080406000804080
310
008040A0008040C0008040E00080600000806020008060400080606000806080008060A0008060C0008060E00080800000808020008080400080806000808080008080A0008080C0008080E00080A0000080A0200080A0400080A0600080A0800080A0A00080A0C00080A0E00080C0000080C0200080C0400080C0600080C0
310
800080C0A00080C0C00080C0E00080E0000080E0200080E0400080E0600080E0800080E0A00080E0C00080E0E000C0000000C0002000C0004000C0006000C0008000C000A000C000C000C000E000C0200000C0202000C0204000C0206000C0208000C020A000C020C000C020E000C0400000C0402000C0404000C0406000C0
310
408000C040A000C040C000C040E000C0600000C0602000C0604000C0606000C0608000C060A000C060C000C060E000C0800000C0802000C0804000C0806000C0808000C080A000C080C000C080E000C0A00000C0A02000C0A04000C0A06000C0A08000C0A0A000C0A0C000C0A0E000C0C00000C0C02000C0C04000C0C06000
310
C0C08000C0C0A000F0FBFF00A4A0A000808080000000FF0000FF000000FFFF00FF000000FF00FF00FFFF0000FFFFFF00000000000000000000000000000000000000000000000000000000000000000000002E00000000000000000000000000000000000000000000000000002E000000002E2E2E00000000000000000000
310
0000000000000000000000002E2E2E000000002E00002E2E0000000000000000000000000000000000002E2E00002E000000002E000000002E2E00000000000000000000000000002E2E000000002E000000002E00000000002E2E2E000000000000000000002E2E0000000000002E000000002E000000000000002E2E2E00
310
00000000002E2E2E000000000000002E000000002E00000000000000002E2E2E2E00002E2E2E0000000000000000002E000000002E000000000000000000002E2E2E2E2E00000000000000000000002E000000002E0000000000000000000000002E2E0000000000000000000000002E000000002E00000000000000000000
310
2E2E2E2E2E2E000000000000000000002E000000002E00000000000000002E2E00002E2E00002E2E00000000000000002E000000002E0000000000002E2E000000002E2E000000002E2E0000000000002E000000002E000000002E2E0000000000002E2E0000000000002E2E000000002E000000002E00002E2E0000000000
310
0000002E2E00000000000000002E2E00002E000000002E2E2E000000000000000000002E2E000000000000000000002E2E2E000000002E0000000000000000000000002E2E0000000000000000000000002E00000000000000000000000000000000002E2E0000000000000000000000000000000000000000000000000000
310
000000002E2E0000000000000000000000000000000000000000000000000000000000002E2E0000000000000000000000000000000000000000000000000000000000002E2E0000000000000000000000000000000000000000000000000000000000002E2E000000000000000000000000000000000000000000002E2E2E
310
2E2E2E2E2E2E2E2E2E2E2E2E2E2E2E00000000000000000000000000002E000000000000000000000000000000002E0000000000000000000000000000002E0000000000000000000000000000002E0000000000000000000000000000002E00000000000000000000000000002E000000000000000000000000000000002E
310
00000000000000000000000000002E00000000000000000000000000000000002E0000000000000000000000002E000000000000000000000000000000000000002E000000000000000000002E0000000000000000000000000000000000000000002E2E2E00000000002E2E00000000000000000000000000000000000000
310
0000000000002E2E2E2E2E000000000000000000000000000000000000000000000000000000000000000000000000000000000000000000
102
{BLKREFS
331
15CDD
331
15CEB
331
15CEC
331
15CEF
331
15CF5
331
15CFA
331
15D04
331
15D17
331
15D18
331
15D29
331
15D2B
331
15D2C
331
15D33
331
15D3E
331
15D49
331
15D65
331
15D6D
331
15D74
331
15D7B
102
}
  0
BLOCK_RECORD
  5
15BD6
330
2E23
100
AcDbSymbolTableRecord
100
AcDbBlockTableRecord
  2
Valve
340
0
310
2800000020000000200000000100080000000000000400000000000000000000000000000000000000000000000080000080000000808000800000008000800080800000C0C0C000C0DCC000F0CAA6000020400000206000002080000020A0000020C0000020E00000400000004020000040400000406000004080000040A0
310
000040C0000040E00000600000006020000060400000606000006080000060A0000060C0000060E00000800000008020000080400000806000008080000080A0000080C0000080E00000A0000000A0200000A0400000A0600000A0800000A0A00000A0C00000A0E00000C0000000C0200000C0400000C0600000C0800000C0
310
A00000C0C00000C0E00000E0000000E0200000E0400000E0600000E0800000E0A00000E0C00000E0E00040000000400020004000400040006000400080004000A0004000C0004000E00040200000402020004020400040206000402080004020A0004020C0004020E000404000004040200040404000404060004040800040
310
40A0004040C0004040E00040600000406020004060400040606000406080004060A0004060C0004060E00040800000408020004080400040806000408080004080A0004080C0004080E00040A0000040A0200040A0400040A0600040A0800040A0A00040A0C00040A0E00040C0000040C0200040C0400040C0600040C08000
310
40C0A00040C0C00040C0E00040E0000040E0200040E0400040E0600040E0800040E0A00040E0C00040E0E00080000000800020008000400080006000800080008000A0008000C0008000E00080200000802020008020400080206000802080008020A0008020C0008020E00080400000804020008040400080406000804080
310
008040A0008040C0008040E00080600000806020008060400080606000806080008060A0008060C0008060E00080800000808020008080400080806000808080008080A0008080C0008080E00080A0000080A0200080A0400080A0600080A0800080A0A00080A0C00080A0E00080C0000080C0200080C0400080C0600080C0
310
800080C0A00080C0C00080C0E00080E0000080E0200080E0400080E0600080E0800080E0A00080E0C00080E0E000C0000000C0002000C0004000C0006000C0008000C000A000C000C000C000E000C0200000C0202000C0204000C0206000C0208000C020A000C020C000C020E000C0400000C0402000C0404000C0406000C0
310
408000C040A000C040C000C040E000C0600000C0602000C0604000C0606000C0608000C060A000C060C000C060E000C0800000C0802000C0804000C0806000C0808000C080A000C080C000C080E000C0A00000C0A02000C0A04000C0A06000C0A08000C0A0A000C0A0C000C0A0E000C0C00000C0C02000C0C04000C0C06000
310
C0C08000C0C0A000F0FBFF00A4A0A000808080000000FF0000FF000000FFFF00FF000000FF00FF00FFFF0000FFFFFF0000000000000000000000000000000000000000000000000000000000000000000000000000000000000000000000000000000000000000000000000000000000000000000000000000000000000000
310
00000000000000000000000000000000000000000000000000000000000000000000000000000000000000000000000000000000000000000000000000000000000000000000000000000000000000000000000000000000000000000000000000000000000000000000000000000000000000000000000000000000000000
310
0000000000000000000000000000000000000000000000000000000000000000000000000000000000000000000000000000002E2E0000000000000000000000000000000000000000000000000000002E00002E002E2E00000000000000000000000000000000000000000000002E2E2E00002E0000002E2E000000000000
310
000000000000000000000000002E2E00002E00002E00000000002E2E0000000000000000000000000000002E2E000000002E00002E000000000000002E2E0000000000000000000000002E0000000000002E00002E0000000000000000002E2E00000000000000002E2E000000000000002E00002E00000000000000000000
310
002E2E000000002E2E0000000000000000002E00002E000000000000000000000000002E2E2E2E00000000000000000000002E00002E000000000000000000000000002E2E2E2E00000000000000000000002E00002E00000000000000000000002E2E000000002E2E0000000000000000002E00002E000000000000000000
310
2E2E00000000000000002E2E000000000000002E00002E000000000000002E2E0000000000000000000000002E0000000000002E00002E00000000002E2E0000000000000000000000000000002E2E000000002E00002E0000002E2E000000000000000000000000000000000000002E2E00002E00002E002E2E0000000000
310
0000000000000000000000000000000000002E2E2E00002E2E0000000000000000000000000000000000000000000000000000002E0000000000000000000000000000000000000000000000000000000000000000000000000000000000000000000000000000000000000000000000000000000000000000000000000000
310
00000000000000000000000000000000000000000000000000000000000000000000000000000000000000000000000000000000000000000000000000000000000000000000000000000000000000000000000000000000000000000000000000000000000000000000000000000000000000000000000000000000000000
310
0000000000000000000000000000000000000000000000000000000000000000000000000000000000000000000000000000000000000000
102
{BLKREFS
331
15D38
331
15D39
331
15D3A
331
15D3B
331
15D44
331
15D45
331
15D46
331
15D47
331
15D54
331
15D55
331
15D56
331
15D57
331
15D58
331
15D59
331
15D5A
331
15D5B
102
}
  0
BLOCK_RECORD
  5
15C12
330
2E23
100
AcDbSymbolTableRecord
100
AcDbBlockTableRecord
  2
Pump
340
0
310
2800000020000000200000000100080000000000000400000000000000000000000000000000000000000000000080000080000000808000800000008000800080800000C0C0C000C0DCC000F0CAA6000020400000206000002080000020A0000020C0000020E00000400000004020000040400000406000004080000040A0
310
000040C0000040E00000600000006020000060400000606000006080000060A0000060C0000060E00000800000008020000080400000806000008080000080A0000080C0000080E00000A0000000A0200000A0400000A0600000A0800000A0A00000A0C00000A0E00000C0000000C0200000C0400000C0600000C0800000C0
310
A00000C0C00000C0E00000E0000000E0200000E0400000E0600000E0800000E0A00000E0C00000E0E00040000000400020004000400040006000400080004000A0004000C0004000E00040200000402020004020400040206000402080004020A0004020C0004020E000404000004040200040404000404060004040800040
310
40A0004040C0004040E00040600000406020004060400040606000406080004060A0004060C0004060E00040800000408020004080400040806000408080004080A0004080C0004080E00040A0000040A0200040A0400040A0600040A0800040A0A00040A0C00040A0E00040C0000040C0200040C0400040C0600040C08000
310
40C0A00040C0C00040C0E00040E0000040E0200040E0400040E0600040E0800040E0A00040E0C00040E0E00080000000800020008000400080006000800080008000A0008000C0008000E00080200000802020008020400080206000802080008020A0008020C0008020E00080400000804020008040400080406000804080
310
008040A0008040C0008040E00080600000806020008060400080606000806080008060A0008060C0008060E00080800000808020008080400080806000808080008080A0008080C0008080E00080A0000080A0200080A0400080A0600080A0800080A0A00080A0C00080A0E00080C0000080C0200080C0400080C0600080C0
310
800080C0A00080C0C00080C0E00080E0000080E0200080E0400080E0600080E0800080E0A00080E0C00080E0E000C0000000C0002000C0004000C0006000C0008000C000A000C000C000C000E000C0200000C0202000C0204000C0206000C0208000C020A000C020C000C020E000C0400000C0402000C0404000C0406000C0
310
408000C040A000C040C000C040E000C0600000C0602000C0604000C0606000C0608000C060A000C060C000C060E000C0800000C0802000C0804000C0806000C0808000C080A000C080C000C080E000C0A00000C0A02000C0A04000C0A06000C0A08000C0A0A000C0A0C000C0A0E000C0C00000C0C02000C0C04000C0C06000
310
C0C08000C0C0A000F0FBFF00A4A0A000808080000000FF0000FF000000FFFF00FF000000FF00FF00FFFF0000FFFFFF00000000000000000000000000000000000000000000000000000000000000000000000000000000000000000000000000002E2E2E2E2E00000000000000000000000000000000000000000000000000
310
00002E0000002E0000000000000000000000000000000000000000000000000000002E0000002E0000000000000000000000000000000000000000000000000000002E0000002E0000000000000000000000000000000000000000000000000000002E0000002E000000000000000000000000000000000000000000000000
310
0000002E0000002E0000000000000000000000000000000000000000000000000000002E0000002E0000000000000000000000000000000000000000000000000000002E0000002E00000000000000000000000000000000000000000000000000002E2E0000002E2E2E000000000000000000000000000000000000000000
310
2E2E2E00000000000000002E000000000000000000000000000000000000002E0000000000000000000000002E00000000000000000000000000000000002E00000000000000000000000000002E2E00000000000000000000000000002E00000000000000000000000000000000002E000000000000000000000000002E2E
310
2E2E2E2E2E2E2E2E2E2E2E2E2E2E2E2E2E000000000000000000000000002E2E0000000000000000000000000000002E002E00000000000000000000002E002E0000000000000000000000000000002E002E0000002E2E2E2E2E2E2E2E2E00002E000000000000000000000000002E00002E0000002E000000000000000000
310
002E000000000000000000000000002E00002E0000002E00000000000000000000002E00000000000000000000002E000000002E00002E00000000000000000000002E00000000000000000000002E000000002E00002E2E2E2E2E2E2E2E2E000000002E0000000000000000002E00000000002E000000000000000000002E
310
00000000002E00000000000000002E000000002E00000000000000000000002E00000000002E000000000000002E00000000002E0000000000000000000000002E00000000002E00000000002E00000000002E00000000000000000000000000002E000000002E00000000002E00000000002E000000000000000000000000
310
0000002E000000002E0000002E00000000002E000000000000000000000000000000002E000000002E0000002E000000002E2E00000000000000000000000000000000002E2E0000002E002E0000002E2E0000000000000000000000000000000000000000002E2E2E2E002E002E2E00000000000000000000000000000000
310
00000000000000000000002E2E2E000000000000000000000000000000000000000000000000000000000000000000000000000000000000
102
{BLKREFS
331
15CE1
331
15CED
331
15CEE
331
15CF8
331
15D01
331
15D2A
331
15D2D
331
15D31
331
15D4A
331
15D6E
102
}
  0
BLOCK_RECORD
  5
15F98
330
2E23
100
AcDbSymbolTableRecord
100
AcDbBlockTableRecord
  2
*D7
340
0
  0
BLOCK_RECORD
  5
16013
330
2E23
100
AcDbSymbolTableRecord
100
AcDbBlockTableRecord
  2
*D8
340
0
  0
ENDTAB
  0
ENDSEC
  0
SECTION
  2
BLOCKS
  0
BLOCK
  5
2E63
330
2E3A
100
AcDbEntity
  8
0
100
AcDbBlockBegin
  2
*MODEL_SPACE
 70
     0
 10
0.0
 20
0.0
 30
0.0
  3
*MODEL_SPACE
  1

  0
ENDBLK
  5
2E64
330
2E3A
100
AcDbEntity
  8
0
100
AcDbBlockEnd
  0
BLOCK
  5
2E61
330
2E37
100
AcDbEntity
 67
     1
  8
0
100
AcDbBlockBegin
  2
*PAPER_SPACE
 70
     0
 10
0.0
 20
0.0
 30
0.0
  3
*PAPER_SPACE
  1

  0
ENDBLK
  5
2E62
330
2E37
100
AcDbEntity
 67
     1
  8
0
100
AcDbBlockEnd
  0
BLOCK
  5
E
330
2E3E
100
AcDbEntity
  8
0
100
AcDbBlockBegin
  2
AME_NIL
 70
     0
 10
0.0
 20
0.0
 30
0.0
  3
AME_NIL
  1
AME_NIL
  0
ENDBLK
  5
F
330
2E3E
100
AcDbEntity
  8
0
100
AcDbBlockEnd
  0
BLOCK
  5
11
330
2E3F
100
AcDbEntity
  8
0
100
AcDbBlockBegin
  2
AME_SOL
 70
     0
 10
0.0
 20
0.0
 30
0.0
  3
AME_SOL
  1
AME_SOL
  0
ENDBLK
  5
12
330
2E3F
100
AcDbEntity
  8
0
100
AcDbBlockEnd
  0
BLOCK
  5
2E7E
330
2E7D
100
AcDbEntity
  8
0
100
AcDbBlockBegin
  2
AVE_RENDER
 70
     0
 10
0.0
 20
0.0
 30
0.0
  3
AVE_RENDER
  1
AVE_RENDER
  0
ENDBLK
  5
2E7F
330
2E7D
100
AcDbEntity
  8
0
100
AcDbBlockEnd
  0
BLOCK
  5
2E8C
330
2E8B
100
AcDbEntity
  8
0
100
AcDbBlockBegin
  2
AVE_GLOBAL
 70
     0
 10
0.0
 20
0.0
 30
0.0
  3
AVE_GLOBAL
  1
AVE_GLOBAL
  0
ENDBLK
  5
2E8D
330
2E8B
100
AcDbEntity
  8
0
100
AcDbBlockEnd
  0
BLOCK
  5
15BD4
330
15BD2
100
AcDbEntity
  8
0
 62
    20
100
AcDbBlockBegin
  2
Remote valve
 70
     0
 10
0.0
 20
0.0
 30
0.0
  3
Remote valve
  1

  0
LWPOLYLINE
  5
15BD3
330
15BD2
100
AcDbEntity
  8
Symboler
  6
Continuous
 62
    42
100
AcDbPolyline
 90
       11
 70
     1
 10
99.55549390193482
 20
4.047891041245748
 40
0.2
 41
0.2
 10
99.55549390193482
 20
108.252917159445
 40
0.2
 41
0.2
 10
35.3255618243711
 20
108.252917159445
 40
0.2
 41
0.2
 42
-0.8846768105770848
 10
178.7854259795131
 20
108.252917159445
 40
0.2
 41
0.2
 10
114.5554939019348
 20
108.252917159445
 40
0.2
 41
0.2
 10
114.5554939019348
 20
4.047891041245748
 40
0.2
 41
0.2
 10
214.1109878038696
 20
57.77986329090801
 40
0.0
 41
0.0
 10
214.1109878038696
 20
-57.77986329090801
 40
0.2
 41
0.2
 10
107.0554939019348
 20
0.0
 40
0.2
 41
0.2
 10
0.0
 20
-57.77986329090801
 40
0.0
 41
0.0
 10
0.0
 20
57.77986329090801
 40
0.2
 41
0.2
  0
ENDBLK
  5
15BD5
330
15BD2
100
AcDbEntity
  8
0
 62
    20
100
AcDbBlockEnd
  0
BLOCK
  5
15BD8
330
15BD6
100
AcDbEntity
  8
0
 62
    20
100
AcDbBlockBegin
  2
Valve
 70
     0
 10
0.0
 20
0.0
 30
0.0
  3
Valve
  1

  0
LWPOLYLINE
  5
15BD7
330
15BD6
100
AcDbEntity
  8
Symboler
  6
Continuous
 62
    42
100
AcDbPolyline
 90
        6
 70
     1
 43
0.0
 10
0.0
 20
57.77986329090801
 10
0.0
 20
-57.77986329090801
 10
107.0554939019348
 20
-0.0000000000001137
 10
214.1109878038696
 20
57.77986329090801
 10
214.1109878038696
 20
-57.77986329090801
 10
107.0554939019348
 20
0.0
  0
ENDBLK
  5
15BD9
330
15BD6
100
AcDbEntity
  8
0
 62
    20
100
AcDbBlockEnd
  0
BLOCK
  5
15C15
330
15C12
100
AcDbEntity
  8
0
 62
    20
100
AcDbBlockBegin
  2
Pump
 70
     0
 10
0.0
 20
0.0
 30
0.0
  3
Pump
  1

  0
LWPOLYLINE
  5
15C13
330
15C12
100
AcDbEntity
  8
Symboler
  6
Continuous
 62
    42
100
AcDbPolyline
 90
        9
 70
     0
 43
0.0
 10
269.0715011075663
 20
-143.35237931923
 10
269.0715011075663
 20
-243.3523793192299
 10
219.0715011075663
 20
-243.3523793192299
 10
219.0715011075663
 20
-143.35237931923
 42
-0.3158256435085338
 10
100.0
 20
-25.0
 10
0.0
 20
-25.0
 10
0.0
 20
25.0
 10
100.0
 20
25.0
 42
-1.932117675131443
 10
268.3523793192288
 20
-143.35237931923
  0
LWPOLYLINE
  5
15C14
330
15C12
100
AcDbEntity
  8
Symboler
  6
Continuous
 62
    42
100
AcDbPolyline
 90
        3
 70
     1
 43
0.2
 10
243.7119402133976
 20
145.1685901043904
 10
117.5387971735762
 20
-72.79796378022206
 10
368.9862636105971
 20
-72.54495371094344
  0
ENDBLK
  5
15C16
330
15C12
100
AcDbEntity
  8
0
 62
    20
100
AcDbBlockEnd
  0
BLOCK
  5
15FA3
330
15F98
100
AcDbEntity
  8
0
100
AcDbBlockBegin
  2
*D7
 70
     1
 10
0.0
 20
0.0
 30
0.0
  3
*D7
  1

  0
LINE
  5
15F99
330
15F98
100
AcDbEntity
  8
Symboler
  6
Continuous
 62
     0
370
    -2
100
AcDbLine
 10
8848.424403288559
 20
20342.17253338924
 30
0.0
 11
8848.424403288559
 21
22227.27031035029
 31
0.0
  0
LINE
  5
15F9A
330
15F98
100
AcDbEntity
  8
Symboler
  6
Continuous
 62
     0
370
    -2
100
AcDbLine
 10
2350.142898429461
 20
20342.17253338924
 30
0.0
 11
2350.142898429461
 21
22227.27031035029
 31
0.0
  0
LINE
  5
15F9B
330
15F98
100
AcDbEntity
  8
Symboler
  6
Continuous
 62
     7
370
    -2
100
AcDbLine
 10
8836.424403288562
 20
22226.97031035029
 30
0.0
 11
5627.224987830363
 21
22226.97031035029
 31
0.0
  0
LINE
  5
15F9C
330
15F98
100
AcDbEntity
  8
Symboler
  6
Continuous
 62
     7
370
    -2
100
AcDbLine
 10
2362.142898429461
 20
22226.97031035029
 30
0.0
 11
5571.342313887662
 21
22226.97031035029
 31
0.0
  0
SOLID
  5
15F9D
330
15F98
100
AcDbEntity
  8
Symboler
  6
Continuous
 62
     7
100
AcDbTrace
 10
8836.424403288562
 20
22228.97031035029
 30
0.0
 11
8836.424403288562
 21
22224.97031035029
 31
0.0
 12
8848.424403288559
 22
22226.97031035029
 32
0.0
 13
8848.424403288559
 23
22226.97031035029
 33
0.0
  0
SOLID
  5
15F9E
330
15F98
100
AcDbEntity
  8
Symboler
  6
Continuous
 62
     7
100
AcDbTrace
 10
2362.142898429461
 20
22228.97031035029
 30
0.0
 11
2362.142898429461
 21
22224.97031035029
 31
0.0
 12
2350.142898429461
 22
22226.97031035029
 32
0.0
 13
2350.142898429461
 23
22226.97031035029
 33
0.0
  0
MTEXT
  5
15F9F
330
15F98
100
AcDbEntity
  8
Symboler
  6
Continuous
 62
     7
100
AcDbMText
 10
5599.28365085901
 20
22226.97031035029
 30
0.0
 40
12.0
 41
0.0
 71
     5
 72
     1
  1
\A1;6498.3
  7
ARIAL
 73
     1
 44
1.0
  0
POINT
  5
15FA0
330
15F98
100
AcDbEntity
  8
DEFPOINTS
  6
Continuous
 62
     0
100
AcDbPoint
 10
8848.424403288559
 20
20342.11253338924
 30
0.0
  0
POINT
  5
15FA1
330
15F98
100
AcDbEntity
  8
DEFPOINTS
  6
Continuous
 62
     0
100
AcDbPoint
 10
2350.142898429461
 20
20342.11253338924
 30
0.0
  0
POINT
  5
15FA2
330
15F98
100
AcDbEntity
  8
DEFPOINTS
  6
Continuous
 62
     0
100
AcDbPoint
 10
2350.142898429461
 20
22226.97031035029
 30
0.0
  0
ENDBLK
  5
15FA4
330
15F98
100
AcDbEntity
  8
0
100
AcDbBlockEnd
  0
BLOCK
  5
1601C
330
16013
100
AcDbEntity
  8
0
100
AcDbBlockBegin
  2
*D8
 70
     1
 10
0.0
 20
0.0
 30
0.0
  3
*D8
  1

  0
LINE
  5
16014
330
16013
100
AcDbEntity
  8
Symboler
  6
Continuous
 62
     7
370
    -2
100
AcDbLine
 10
-1746.789207367116
 20
12617.32157261327
 30
0.0
 11
-1734.789207367118
 21
12617.32157261327
 31
0.0
  0
LINE
  5
16015
330
16013
100
AcDbEntity
  8
Symboler
  6
Continuous
 62
     7
370
    -2
100
AcDbLine
 10
-1734.789207367118
 20
12617.32157261327
 30
0.0
 11
-1378.26833624733
 21
12816.73526549725
 31
0.0
  0
MTEXT
  5
16016
330
16013
100
AcDbEntity
  8
Symboler
  6
Continuous
 62
     7
100
AcDbMText
 10
-1776.502713506272
 20
12617.32157261327
 30
0.0
 40
12.0
 41
0.0
 71
     5
 72
     1
  1
\A1;\U+2205617.2
  7
ARIAL
 73
     1
 44
1.0
  0
SOLID
  5
16017
330
16013
100
AcDbEntity
  8
Symboler
  6
Continuous
 62
     7
100
AcDbTrace
 10
-1379.244655822195
 20
12818.48077404427
 30
0.0
 11
-1377.292016672463
 21
12814.98975695021
 31
0.0
 12
-1367.795284965187
 22
12822.59318294644
 32
0.0
 13
-1367.795284965187
 23
12822.59318294644
 33
0.0
  0
LINE
  5
16018
330
16013
100
AcDbEntity
  8
Symboler
  6
Continuous
 62
     0
370
    -2
100
AcDbLine
 10
-1098.561048127822
 20
12973.23496860743
 30
0.0
 11
-1098.381048127822
 21
12973.23496860743
 31
0.0
  0
LINE
  5
16019
330
16013
100
AcDbEntity
  8
Symboler
  6
Continuous
 62
     0
370
    -2
100
AcDbLine
 10
-1098.471048127821
 20
12973.14496860741
 30
0.0
 11
-1098.471048127821
 21
12973.32496860744
 31
0.0
  0
POINT
  5
1601A
330
16013
100
AcDbEntity
  8
DEFPOINTS
  6
Continuous
 62
     0
100
AcDbPoint
 10
-1367.795284965187
 20
12822.59318294644
 30
0.0
  0
POINT
  5
1601B
330
16013
100
AcDbEntity
  8
DEFPOINTS
  6
Continuous
 62
     0
100
AcDbPoint
 10
-829.1468112904585
 20
13123.8767542684
 30
0.0
  0
ENDBLK
  5
1601D
330
16013
100
AcDbEntity
  8
0
100
AcDbBlockEnd
  0
ENDSEC
  0
SECTION
  2
ENTITIES
  0
INSERT
  5
17
330
2E3A
100
AcDbEntity
  8
LAYER1
100
AcDbBlockReference
  2
AME_NIL
 10
0.0
 20
0.0
 30
0.0
  0
INSERT
  5
29
330
2E3A
100
AcDbEntity
  8
LAYER1
100
AcDbBlockReference
  2
AME_SOL
 10
0.0
 20
0.0
 30
0.0
1001
AME_SOL
1000
R2.1
1000
AME2
1000
sq m
1070
     3
1070
     0
1070
     3
1000
mesh
1040
45.0
1000
U
1040
1.0
1000
m
1000
gm
1000
MILD_STEEL
1070
    25
1000
CSG
1070
     1
1070
     3
1070
     3
1070
     3
1070
     0
1000
cu cm
1070
     1
1070
     0
1005
17
  0
TEXT
  5
50
330
2E3A
100
AcDbEntity
  8
TEKST
100
AcDbText
 10
11.52210026922298
 20
20.64189715824095
 30
0.0
 40
2.5
  1

  7
ROMANS
100
AcDbText
  0
INSERT
  5
2E80
330
2E3A
100
AcDbEntity
  8
ASHADE
 62
     1
100
AcDbBlockReference
  2
AVE_RENDER
 10
0.0
 20
0.0
 30
0.0
1001
AVE_RENDER
1002
{
1070
     6
1000
Pref
1070
    30
1070
    20
1070
     1
1070
     0
1000

1070
    10
1070
     1
1070
    30
1040
1.0
1070
     1
1040
0.3
1040
0.7
1040
0.0
1040
10.0
1010
-1.0
1020
-1.0
1030
-1.0
1040
0.3
1070
    49
1070
     0
1070
     0
1010
1.0
1020
1.0
1030
1.0
1040
45.0
1070
     1
1070
     0
1000
WCS
1040
0.0
1002
}
  0
INSERT
  5
2E81
330
2E3A
100
AcDbEntity
  8
ASHADE
 62
     3
100
AcDbBlockReference
  2
AVE_RENDER
 10
0.0
 20
0.0
 30
0.0
1001
AVE_RENDER
1002
{
1070
     0
1000
Full Opt
1070
     0
1070
     1
1070
     1
1070
     1
1070
     0
1070
     0
1070
     0
1070
     1
1070
     1
1040
0.0001
1040
0.0001
1002
}
  0
INSERT
  5
2E82
330
2E3A
100
AcDbEntity
  8
ASHADE
 62
     4
100
AcDbBlockReference
  2
AVE_RENDER
 10
0.0
 20
0.0
 30
0.0
1001
AVE_RENDER
1002
{
1070
     0
1000
Quick Opt
1070
     0
1070
     1
1070
     1
1070
     1
1070
     0
1070
     0
1070
     1
1002
}
  0
INSERT
  5
2E83
330
2E3A
100
AcDbEntity
  8
ASHADE
 62
     5
100
AcDbBlockReference
  2
AVE_RENDER
 10
0.0
 20
0.0
 30
0.0
1001
AVE_RENDER
1002
{
1070
     1
1000
Scanl Opt
1070
     2
1070
     0
1070
     2
1040
2.0
1040
4.0
1070
     0
1070
     1
1070
     0
1040
0.03
1002
}
  0
INSERT
  5
2E84
330
2E3A
100
AcDbEntity
  8
ASHADE
 62
     6
100
AcDbBlockReference
  2
AVE_RENDER
 10
0.0
 20
0.0
 30
0.0
1001
AVE_RENDER
1002
{
1070
     2
1000
Raytr Opt
1070
     2
1070
     0
1070
     2
1040
2.0
1040
4.0
1070
     0
1070
     1
1070
     1
1040
0.03
1070
     3
1040
0.03
1002
}
  0
INSERT
  5
2E85
330
2E3A
100
AcDbEntity
  8
ASHADE
 62
     7
100
AcDbBlockReference
  2
AVE_RENDER
 10
0.0
 20
0.0
 30
0.0
1001
AVE_RENDER
1002
{
1070
     0
1000
RFile Opt
1070
     5
1070
   640
1070
   480
1070
 10000
1070
     3
1070
    32
1070
    24
1070
     0
1070
     0
1070
     0
1070
     1
1070
     0
1070
     0
1070
     0
1002
}
  0
INSERT
  5
2E86
330
2E3A
100
AcDbEntity
  8
ASHADE
 62
     8
100
AcDbBlockReference
  2
AVE_RENDER
 10
0.0
 20
0.0
 30
0.0
1001
AVE_RENDER
1002
{
1070
     0
1000
Fog Opt
1070
     0
1070
     0
1040
0.0
1040
1.0
1040
0.0
1040
1.0
1010
0.5
1020
0.5
1030
0.5
1002
}
  0
INSERT
  5
2E87
330
2E3A
100
AcDbEntity
  8
ASHADE
 62
     9
100
AcDbBlockReference
  2
AVE_RENDER
 10
0.0
 20
0.0
 30
0.0
1001
AVE_RENDER
1002
{
1070
     0
1000
BG Opt
1070
     0
1070
     1
1010
0.0
1020
0.0
1030
0.0
1010
1.0
1020
0.0
1030
0.0
1010
0.0
1020
1.0
1030
0.0
1010
0.0
1020
0.0
1030
1.0
1040
0.5
1040
0.33
1040
0.0
1000

1070
     1
1000

1070
     1
1070
     1
1040
1.0
1040
1.0
1040
0.0
1040
0.0
1070
     0
1002
}
  0
INSERT
  5
2E8E
330
2E3A
100
AcDbEntity
  8
ASHADE
 62
     1
100
AcDbBlockReference
  2
AVE_GLOBAL
 10
0.0
 20
0.0
 30
0.0
1001
AVE_MATERIAL
1002
{
1000
*GLOBAL*
1000
1
1000
Global finish.
1002
{
1002
}
1002
{
1070
    63
1002
{
1002
{
1010
-1.0
1020
-1.0
1030
-1.0
1002
}
1040
0.1000000014901161
1000

1040
0.0
1002
{
1002
}
1040
0.0
1002
{
1002
}
1040
0.0
1002
}
1002
{
1002
{
1010
-1.0
1020
-1.0
1030
-1.0
1002
}
1040
0.6999999880790711
1000

1040
0.0
1002
{
1002
}
1040
0.0
1002
{
1002
}
1040
0.0
1002
}
1002
{
1002
{
1010
-1.0
1020
-1.0
1030
-1.0
1002
}
1040
0.2000000029802322
1000

1040
0.0
1002
{
1002
}
1040
0.0
1002
{
1002
}
1040
0.0
1002
}
1002
{
1070
     0
1002
{
1070
     1
1002
{
1040
1.0
1040
1.0
1000

1040
0.0
1002
{
1002
}
1040
0.0
1002
{
1002
}
1040
0.0
1002
}
1002
}
1040
1.0
1040
0.0
1040
0.0
1002
}
1002
{
1040
1.0
1040
1.0
1000

1040
0.0
1002
{
1002
}
1040
0.0
1002
{
1002
}
1040
0.0
1002
}
1002
{
1040
0.5
1040
1.0
1000

1040
0.0
1002
{
1002
}
1040
0.0
1002
{
1002
}
1040
0.0
1002
}
1002
{
1070
     0
1040
0.0
1002
{
1002
}
1040
1.0
1002
{
1002
}
1040
0.0
1002
}
1002
{
1040
0.0
1002
{
1002
{
1010
0.0
1020
0.0
1030
0.0
1002
}
1040
1.0
1000

1040
0.0
1002
{
1002
}
1040
0.0
1002
{
1002
}
1040
0.0
1002
}
1002
}
1002
{
1002
{
1070
     1
1002
{
1040
0.0
1040
1.0
1000

1040
0.0
1002
{
1002
}
1040
0.0
1002
{
1002
}
1040
0.0
1002
}
1002
}
1040
0.0
1002
{
1002
}
1010
1.0
1020
0.0
1030
0.0
1010
0.0
1020
1.0
1030
0.0
1010
0.0
1020
0.0
1030
1.0
1070
     0
1002
}
1002
{
1002
{
1040
1.0
1040
1.0
1002
{
1070
     1
1002
{
1040
1.0
1040
1.0
1000

1040
0.0
1002
{
1002
}
1040
0.0
1002
{
1002
}
1040
0.0
1002
}
1002
}
1002
}
1070
     0
1040
0.0
1002
{
1002
}
1002
}
1002
{
1002
}
1002
}
1002
{
1071
        3
1070
     3
1070
     0
1002
{
1070
     2
1070
     0
1070
     0
1040
0.0
1002
}
1070
     0
1070
     2
1002
{
1002
}
1002
}
1002
{
1040
8030.0
1040
190.3000030517578
1040
0.3050000071525574
1040
228.0
1040
545.0
1040
14.0
1040
17.39999961853027
1040
0.4560000002384186
1002
}
1002
}
  0
INSERT
  5
10E9D
330
2E3A
100
AcDbEntity
  8
LAYER1
100
AcDbBlockReference
  2
AME_NIL
 10
436.8103605630293
 20
-215.6608172053943
 30
0.0
  0
INSERT
  5
10E9E
330
2E3A
100
AcDbEntity
  8
LAYER1
100
AcDbBlockReference
  2
AME_SOL
 10
436.8103605630293
 20
-215.6608172053943
 30
0.0
1001
AME_SOL
1000
R2.1
1000
AME2
1000
sq m
1070
     3
1070
     0
1070
     3
1000
mesh
1040
45.0
1000
U
1040
1.0
1000
m
1000
gm
1000
MILD_STEEL
1070
    25
1000
CSG
1070
     1
1070
     3
1070
     3
1070
     3
1070
     0
1000
cu cm
1070
     1
1070
     0
1005
10E9D
  0
TEXT
  5
10E9F
330
2E3A
100
AcDbEntity
  8
TEKST
100
AcDbText
 10
448.3324608322523
 20
-195.0189200471533
 30
0.0
 40
2.5
  1

  7
ROMANS
100
AcDbText
  0
INSERT
  5
10EA0
330
2E3A
100
AcDbEntity
  8
ASHADE
 62
     1
100
AcDbBlockReference
  2
AVE_RENDER
 10
436.8103605630293
 20
-215.6608172053943
 30
0.0
1001
AVE_RENDER
1002
{
1070
     6
1000
Pref
1070
    30
1070
    20
1070
     1
1070
     0
1000

1070
    10
1070
     1
1070
    30
1040
1.0
1070
     1
1040
0.3
1040
0.7
1040
0.0
1040
10.0
1010
-1.0
1020
-1.0
1030
-1.0
1040
0.3
1070
    49
1070
     0
1070
     0
1010
1.0
1020
1.0
1030
1.0
1040
45.0
1070
     1
1070
     0
1000
WCS
1040
0.0
1002
}
  0
INSERT
  5
10EA1
330
2E3A
100
AcDbEntity
  8
ASHADE
 62
     3
100
AcDbBlockReference
  2
AVE_RENDER
 10
436.8103605630293
 20
-215.6608172053943
 30
0.0
1001
AVE_RENDER
1002
{
1070
     0
1000
Full Opt
1070
     0
1070
     1
1070
     1
1070
     1
1070
     0
1070
     0
1070
     0
1070
     1
1070
     1
1040
0.0001
1040
0.0001
1002
}
  0
INSERT
  5
10EA2
330
2E3A
100
AcDbEntity
  8
ASHADE
 62
     4
100
AcDbBlockReference
  2
AVE_RENDER
 10
436.8103605630293
 20
-215.6608172053943
 30
0.0
1001
AVE_RENDER
1002
{
1070
     0
1000
Quick Opt
1070
     0
1070
     1
1070
     1
1070
     1
1070
     0
1070
     0
1070
     1
1002
}
  0
INSERT
  5
10EA3
330
2E3A
100
AcDbEntity
  8
ASHADE
 62
     5
100
AcDbBlockReference
  2
AVE_RENDER
 10
436.8103605630293
 20
-215.6608172053943
 30
0.0
1001
AVE_RENDER
1002
{
1070
     1
1000
Scanl Opt
1070
     2
1070
     0
1070
     2
1040
2.0
1040
4.0
1070
     0
1070
     1
1070
     0
1040
0.03
1002
}
  0
INSERT
  5
10EA4
330
2E3A
100
AcDbEntity
  8
ASHADE
 62
     6
100
AcDbBlockReference
  2
AVE_RENDER
 10
436.8103605630293
 20
-215.6608172053943
 30
0.0
1001
AVE_RENDER
1002
{
1070
     2
1000
Raytr Opt
1070
     2
1070
     0
1070
     2
1040
2.0
1040
4.0
1070
     0
1070
     1
1070
     1
1040
0.03
1070
     3
1040
0.03
1002
}
  0
INSERT
  5
10EA5
330
2E3A
100
AcDbEntity
  8
ASHADE
 62
     7
100
AcDbBlockReference
  2
AVE_RENDER
 10
436.8103605630293
 20
-215.6608172053943
 30
0.0
1001
AVE_RENDER
1002
{
1070
     0
1000
RFile Opt
1070
     5
1070
   640
1070
   480
1070
 10000
1070
     3
1070
    32
1070
    24
1070
     0
1070
     0
1070
     0
1070
     1
1070
     0
1070
     0
1070
     0
1002
}
  0
INSERT
  5
10EA6
330
2E3A
100
AcDbEntity
  8
ASHADE
 62
     8
100
AcDbBlockReference
  2
AVE_RENDER
 10
436.8103605630293
 20
-215.6608172053943
 30
0.0
1001
AVE_RENDER
1002
{
1070
     0
1000
Fog Opt
1070
     0
1070
     0
1040
0.0
1040
1.0
1040
0.0
1040
1.0
1010
0.5
1020
0.5
1030
0.5
1002
}
  0
INSERT
  5
10EA7
330
2E3A
100
AcDbEntity
  8
ASHADE
 62
     9
100
AcDbBlockReference
  2
AVE_RENDER
 10
436.8103605630293
 20
-215.6608172053943
 30
0.0
1001
AVE_RENDER
1002
{
1070
     0
1000
BG Opt
1070
     0
1070
     1
1010
0.0
1020
0.0
1030
0.0
1010
1.0
1020
0.0
1030
0.0
1010
0.0
1020
1.0
1030
0.0
1010
0.0
1020
0.0
1030
1.0
1040
0.5
1040
0.33
1040
0.0
1000

1070
     1
1000

1070
     1
1070
     1
1040
1.0
1040
1.0
1040
0.0
1040
0.0
1070
     0
1002
}
  0
INSERT
  5
10EA8
330
2E3A
100
AcDbEntity
  8
ASHADE
 62
     1
100
AcDbBlockReference
  2
AVE_GLOBAL
 10
436.8103605630293
 20
-215.6608172053943
 30
0.0
1001
AVE_MATERIAL
1002
{
1000
*GLOBAL*
1000
1
1000
Global finish.
1002
{
1002
}
1002
{
1070
    63
1002
{
1002
{
1010
-1.0
1020
-1.0
1030
-1.0
1002
}
1040
0.1000000014901161
1000

1040
0.0
1002
{
1002
}
1040
0.0
1002
{
1002
}
1040
0.0
1002
}
1002
{
1002
{
1010
-1.0
1020
-1.0
1030
-1.0
1002
}
1040
0.6999999880790711
1000

1040
0.0
1002
{
1002
}
1040
0.0
1002
{
1002
}
1040
0.0
1002
}
1002
{
1002
{
1010
-1.0
1020
-1.0
1030
-1.0
1002
}
1040
0.2000000029802322
1000

1040
0.0
1002
{
1002
}
1040
0.0
1002
{
1002
}
1040
0.0
1002
}
1002
{
1070
     0
1002
{
1070
     1
1002
{
1040
1.0
1040
1.0
1000

1040
0.0
1002
{
1002
}
1040
0.0
1002
{
1002
}
1040
0.0
1002
}
1002
}
1040
1.0
1040
0.0
1040
0.0
1002
}
1002
{
1040
1.0
1040
1.0
1000

1040
0.0
1002
{
1002
}
1040
0.0
1002
{
1002
}
1040
0.0
1002
}
1002
{
1040
0.5
1040
1.0
1000

1040
0.0
1002
{
1002
}
1040
0.0
1002
{
1002
}
1040
0.0
1002
}
1002
{
1070
     0
1040
0.0
1002
{
1002
}
1040
1.0
1002
{
1002
}
1040
0.0
1002
}
1002
{
1040
0.0
1002
{
1002
{
1010
0.0
1020
0.0
1030
0.0
1002
}
1040
1.0
1000

1040
0.0
1002
{
1002
}
1040
0.0
1002
{
1002
}
1040
0.0
1002
}
1002
}
1002
{
1002
{
1070
     1
1002
{
1040
0.0
1040
1.0
1000

1040
0.0
1002
{
1002
}
1040
0.0
1002
{
1002
}
1040
0.0
1002
}
1002
}
1040
0.0
1002
{
1002
}
1010
1.0
1020
0.0
1030
0.0
1010
0.0
1020
1.0
1030
0.0
1010
0.0
1020
0.0
1030
1.0
1070
     0
1002
}
1002
{
1002
{
1040
1.0
1040
1.0
1002
{
1070
     1
1002
{
1040
1.0
1040
1.0
1000

1040
0.0
1002
{
1002
}
1040
0.0
1002
{
1002
}
1040
0.0
1002
}
1002
}
1002
}
1070
     0
1040
0.0
1002
{
1002
}
1002
}
1002
{
1002
}
1002
}
1002
{
1071
        3
1070
     3
1070
     0
1002
{
1070
     2
1070
     0
1070
     0
1040
0.0
1002
}
1070
     0
1070
     2
1002
{
1002
}
1002
}
1002
{
1040
8030.0
1040
190.3000030517578
1040
0.3050000071525574
1040
228.0
1040
545.0
1040
14.0
1040
17.39999961853027
1040
0.4560000002384186
1002
}
1002
}
  0
TEXT
  5
10EA9
330
2E3A
100
AcDbEntity
  8
0
 62
     7
 48
5.0
100
AcDbText
 10
-1248.752895886679
 20
165.3686324960031
 30
0.0
 40
3.809829827610412
  1
 
 41
0.75
100
AcDbText
  0
INSERT
  5
10EAA
330
2E3A
100
AcDbEntity
  8
LAYER1
100
AcDbBlockReference
  2
AME_NIL
 10
-2402.748217515968
 20
517.4898289907482
 30
0.0
  0
INSERT
  5
10EAB
330
2E3A
100
AcDbEntity
  8
LAYER1
100
AcDbBlockReference
  2
AME_SOL
 10
-2402.748217515968
 20
517.4898289907482
 30
0.0
1001
AME_SOL
1000
R2.1
1000
AME2
1000
sq m
1070
     3
1070
     0
1070
     3
1000
mesh
1040
45.0
1000
U
1040
1.0
1000
m
1000
gm
1000
MILD_STEEL
1070
    25
1000
CSG
1070
     1
1070
     3
1070
     3
1070
     3
1070
     0
1000
cu cm
1070
     1
1070
     0
1005
10EAA
  0
TEXT
  5
10EAC
330
2E3A
100
AcDbEntity
  8
TEKST
100
AcDbText
 10
-2391.226117246745
 20
538.1317261489892
 30
0.0
 40
2.5
  1

  7
ROMANS
100
AcDbText
  0
INSERT
  5
10EAD
330
2E3A
100
AcDbEntity
  8
ASHADE
 62
     1
100
AcDbBlockReference
  2
AVE_RENDER
 10
-2402.748217515968
 20
517.4898289907482
 30
0.0
1001
AVE_RENDER
1002
{
1070
     6
1000
Pref
1070
    30
1070
    20
1070
     1
1070
     0
1000

1070
    10
1070
     1
1070
    30
1040
1.0
1070
     1
1040
0.3
1040
0.7
1040
0.0
1040
10.0
1010
-1.0
1020
-1.0
1030
-1.0
1040
0.3
1070
    49
1070
     0
1070
     0
1010
1.0
1020
1.0
1030
1.0
1040
45.0
1070
     1
1070
     0
1000
WCS
1040
0.0
1002
}
  0
INSERT
  5
10EAE
330
2E3A
100
AcDbEntity
  8
ASHADE
 62
     3
100
AcDbBlockReference
  2
AVE_RENDER
 10
-2402.748217515968
 20
517.4898289907482
 30
0.0
1001
AVE_RENDER
1002
{
1070
     0
1000
Full Opt
1070
     0
1070
     1
1070
     1
1070
     1
1070
     0
1070
     0
1070
     0
1070
     1
1070
     1
1040
0.0001
1040
0.0001
1002
}
  0
INSERT
  5
10EAF
330
2E3A
100
AcDbEntity
  8
ASHADE
 62
     4
100
AcDbBlockReference
  2
AVE_RENDER
 10
-2402.748217515968
 20
517.4898289907482
 30
0.0
1001
AVE_RENDER
1002
{
1070
     0
1000
Quick Opt
1070
     0
1070
     1
1070
     1
1070
     1
1070
     0
1070
     0
1070
     1
1002
}
  0
INSERT
  5
10EB0
330
2E3A
100
AcDbEntity
  8
ASHADE
 62
     5
100
AcDbBlockReference
  2
AVE_RENDER
 10
-2402.748217515968
 20
517.4898289907482
 30
0.0
1001
AVE_RENDER
1002
{
1070
     1
1000
Scanl Opt
1070
     2
1070
     0
1070
     2
1040
2.0
1040
4.0
1070
     0
1070
     1
1070
     0
1040
0.03
1002
}
  0
INSERT
  5
10EB1
330
2E3A
100
AcDbEntity
  8
ASHADE
 62
     6
100
AcDbBlockReference
  2
AVE_RENDER
 10
-2402.748217515968
 20
517.4898289907482
 30
0.0
1001
AVE_RENDER
1002
{
1070
     2
1000
Raytr Opt
1070
     2
1070
     0
1070
     2
1040
2.0
1040
4.0
1070
     0
1070
     1
1070
     1
1040
0.03
1070
     3
1040
0.03
1002
}
  0
INSERT
  5
10EB2
330
2E3A
100
AcDbEntity
  8
ASHADE
 62
     7
100
AcDbBlockReference
  2
AVE_RENDER
 10
-2402.748217515968
 20
517.4898289907482
 30
0.0
1001
AVE_RENDER
1002
{
1070
     0
1000
RFile Opt
1070
     5
1070
   640
1070
   480
1070
 10000
1070
     3
1070
    32
1070
    24
1070
     0
1070
     0
1070
     0
1070
     1
1070
     0
1070
     0
1070
     0
1002
}
  0
INSERT
  5
10EB3
330
2E3A
100
AcDbEntity
  8
ASHADE
 62
     8
100
AcDbBlockReference
  2
AVE_RENDER
 10
-2402.748217515968
 20
517.4898289907482
 30
0.0
1001
AVE_RENDER
1002
{
1070
     0
1000
Fog Opt
1070
     0
1070
     0
1040
0.0
1040
1.0
1040
0.0
1040
1.0
1010
0.5
1020
0.5
1030
0.5
1002
}
  0
INSERT
  5
10EB4
330
2E3A
100
AcDbEntity
  8
ASHADE
 62
     9
100
AcDbBlockReference
  2
AVE_RENDER
 10
-2402.748217515968
 20
517.4898289907482
 30
0.0
1001
AVE_RENDER
1002
{
1070
     0
1000
BG Opt
1070
     0
1070
     1
1010
0.0
1020
0.0
1030
0.0
1010
1.0
1020
0.0
1030
0.0
1010
0.0
1020
1.0
1030
0.0
1010
0.0
1020
0.0
1030
1.0
1040
0.5
1040
0.33
1040
0.0
1000

1070
     1
1000

1070
     1
1070
     1
1040
1.0
1040
1.0
1040
0.0
1040
0.0
1070
     0
1002
}
  0
INSERT
  5
10EB5
330
2E3A
100
AcDbEntity
  8
ASHADE
 62
     1
100
AcDbBlockReference
  2
AVE_GLOBAL
 10
-2402.748217515968
 20
517.4898289907482
 30
0.0
1001
AVE_MATERIAL
1002
{
1000
*GLOBAL*
1000
1
1000
Global finish.
1002
{
1002
}
1002
{
1070
    63
1002
{
1002
{
1010
-1.0
1020
-1.0
1030
-1.0
1002
}
1040
0.1000000014901161
1000

1040
0.0
1002
{
1002
}
1040
0.0
1002
{
1002
}
1040
0.0
1002
}
1002
{
1002
{
1010
-1.0
1020
-1.0
1030
-1.0
1002
}
1040
0.6999999880790711
1000

1040
0.0
1002
{
1002
}
1040
0.0
1002
{
1002
}
1040
0.0
1002
}
1002
{
1002
{
1010
-1.0
1020
-1.0
1030
-1.0
1002
}
1040
0.2000000029802322
1000

1040
0.0
1002
{
1002
}
1040
0.0
1002
{
1002
}
1040
0.0
1002
}
1002
{
1070
     0
1002
{
1070
     1
1002
{
1040
1.0
1040
1.0
1000

1040
0.0
1002
{
1002
}
1040
0.0
1002
{
1002
}
1040
0.0
1002
}
1002
}
1040
1.0
1040
0.0
1040
0.0
1002
}
1002
{
1040
1.0
1040
1.0
1000

1040
0.0
1002
{
1002
}
1040
0.0
1002
{
1002
}
1040
0.0
1002
}
1002
{
1040
0.5
1040
1.0
1000

1040
0.0
1002
{
1002
}
1040
0.0
1002
{
1002
}
1040
0.0
1002
}
1002
{
1070
     0
1040
0.0
1002
{
1002
}
1040
1.0
1002
{
1002
}
1040
0.0
1002
}
1002
{
1040
0.0
1002
{
1002
{
1010
0.0
1020
0.0
1030
0.0
1002
}
1040
1.0
1000

1040
0.0
1002
{
1002
}
1040
0.0
1002
{
1002
}
1040
0.0
1002
}
1002
}
1002
{
1002
{
1070
     1
1002
{
1040
0.0
1040
1.0
1000

1040
0.0
1002
{
1002
}
1040
0.0
1002
{
1002
}
1040
0.0
1002
}
1002
}
1040
0.0
1002
{
1002
}
1010
1.0
1020
0.0
1030
0.0
1010
0.0
1020
1.0
1030
0.0
1010
0.0
1020
0.0
1030
1.0
1070
     0
1002
}
1002
{
1002
{
1040
1.0
1040
1.0
1002
{
1070
     1
1002
{
1040
1.0
1040
1.0
1000

1040
0.0
1002
{
1002
}
1040
0.0
1002
{
1002
}
1040
0.0
1002
}
1002
}
1002
}
1070
     0
1040
0.0
1002
{
1002
}
1002
}
1002
{
1002
}
1002
}
1002
{
1071
        3
1070
     3
1070
     0
1002
{
1070
     2
1070
     0
1070
     0
1040
0.0
1002
}
1070
     0
1070
     2
1002
{
1002
}
1002
}
1002
{
1040
8030.0
1040
190.3000030517578
1040
0.3050000071525574
1040
228.0
1040
545.0
1040
14.0
1040
17.39999961853027
1040
0.4560000002384186
1002
}
1002
}
  0
INSERT
  5
10EB6
330
2E3A
100
AcDbEntity
  8
LAYER1
100
AcDbBlockReference
  2
AME_NIL
 10
-484.0180840161846
 20
686.0103158393807
 30
0.0
  0
INSERT
  5
10EB7
330
2E3A
100
AcDbEntity
  8
LAYER1
100
AcDbBlockReference
  2
AME_SOL
 10
-484.0180840161846
 20
686.0103158393807
 30
0.0
1001
AME_SOL
1000
R2.1
1000
AME2
1000
sq m
1070
     3
1070
     0
1070
     3
1000
mesh
1040
45.0
1000
U
1040
1.0
1000
m
1000
gm
1000
MILD_STEEL
1070
    25
1000
CSG
1070
     1
1070
     3
1070
     3
1070
     3
1070
     0
1000
cu cm
1070
     1
1070
     0
1005
10EB6
  0
TEXT
  5
10EB8
330
2E3A
100
AcDbEntity
  8
TEKST
100
AcDbText
 10
-472.4959837469618
 20
706.6522129976217
 30
0.0
 40
2.5
  1

  7
ROMANS
100
AcDbText
  0
INSERT
  5
10EB9
330
2E3A
100
AcDbEntity
  8
ASHADE
 62
     1
100
AcDbBlockReference
  2
AVE_RENDER
 10
-484.0180840161846
 20
686.0103158393807
 30
0.0
1001
AVE_RENDER
1002
{
1070
     6
1000
Pref
1070
    30
1070
    20
1070
     1
1070
     0
1000

1070
    10
1070
     1
1070
    30
1040
1.0
1070
     1
1040
0.3
1040
0.7
1040
0.0
1040
10.0
1010
-1.0
1020
-1.0
1030
-1.0
1040
0.3
1070
    49
1070
     0
1070
     0
1010
1.0
1020
1.0
1030
1.0
1040
45.0
1070
     1
1070
     0
1000
WCS
1040
0.0
1002
}
  0
INSERT
  5
10EBA
330
2E3A
100
AcDbEntity
  8
ASHADE
 62
     3
100
AcDbBlockReference
  2
AVE_RENDER
 10
-484.0180840161846
 20
686.0103158393807
 30
0.0
1001
AVE_RENDER
1002
{
1070
     0
1000
Full Opt
1070
     0
1070
     1
1070
     1
1070
     1
1070
     0
1070
     0
1070
     0
1070
     1
1070
     1
1040
0.0001
1040
0.0001
1002
}
  0
INSERT
  5
10EBB
330
2E3A
100
AcDbEntity
  8
ASHADE
 62
     4
100
AcDbBlockReference
  2
AVE_RENDER
 10
-484.0180840161846
 20
686.0103158393807
 30
0.0
1001
AVE_RENDER
1002
{
1070
     0
1000
Quick Opt
1070
     0
1070
     1
1070
     1
1070
     1
1070
     0
1070
     0
1070
     1
1002
}
  0
INSERT
  5
10EBC
330
2E3A
100
AcDbEntity
  8
ASHADE
 62
     5
100
AcDbBlockReference
  2
AVE_RENDER
 10
-484.0180840161846
 20
686.0103158393807
 30
0.0
1001
AVE_RENDER
1002
{
1070
     1
1000
Scanl Opt
1070
     2
1070
     0
1070
     2
1040
2.0
1040
4.0
1070
     0
1070
     1
1070
     0
1040
0.03
1002
}
  0
INSERT
  5
10EBD
330
2E3A
100
AcDbEntity
  8
ASHADE
 62
     6
100
AcDbBlockReference
  2
AVE_RENDER
 10
-484.0180840161846
 20
686.0103158393807
 30
0.0
1001
AVE_RENDER
1002
{
1070
     2
1000
Raytr Opt
1070
     2
1070
     0
1070
     2
1040
2.0
1040
4.0
1070
     0
1070
     1
1070
     1
1040
0.03
1070
     3
1040
0.03
1002
}
  0
INSERT
  5
10EBE
330
2E3A
100
AcDbEntity
  8
ASHADE
 62
     7
100
AcDbBlockReference
  2
AVE_RENDER
 10
-484.0180840161846
 20
686.0103158393807
 30
0.0
1001
AVE_RENDER
1002
{
1070
     0
1000
RFile Opt
1070
     5
1070
   640
1070
   480
1070
 10000
1070
     3
1070
    32
1070
    24
1070
     0
1070
     0
1070
     0
1070
     1
1070
     0
1070
     0
1070
     0
1002
}
  0
INSERT
  5
10EBF
330
2E3A
100
AcDbEntity
  8
ASHADE
 62
     8
100
AcDbBlockReference
  2
AVE_RENDER
 10
-484.0180840161846
 20
686.0103158393807
 30
0.0
1001
AVE_RENDER
1002
{
1070
     0
1000
Fog Opt
1070
     0
1070
     0
1040
0.0
1040
1.0
1040
0.0
1040
1.0
1010
0.5
1020
0.5
1030
0.5
1002
}
  0
INSERT
  5
10EC0
330
2E3A
100
AcDbEntity
  8
ASHADE
 62
     9
100
AcDbBlockReference
  2
AVE_RENDER
 10
-484.0180840161846
 20
686.0103158393807
 30
0.0
1001
AVE_RENDER
1002
{
1070
     0
1000
BG Opt
1070
     0
1070
     1
1010
0.0
1020
0.0
1030
0.0
1010
1.0
1020
0.0
1030
0.0
1010
0.0
1020
1.0
1030
0.0
1010
0.0
1020
0.0
1030
1.0
1040
0.5
1040
0.33
1040
0.0
1000

1070
     1
1000

1070
     1
1070
     1
1040
1.0
1040
1.0
1040
0.0
1040
0.0
1070
     0
1002
}
  0
INSERT
  5
10EC1
330
2E3A
100
AcDbEntity
  8
ASHADE
 62
     1
100
AcDbBlockReference
  2
AVE_GLOBAL
 10
-484.0180840161846
 20
686.0103158393807
 30
0.0
1001
AVE_MATERIAL
1002
{
1000
*GLOBAL*
1000
1
1000
Global finish.
1002
{
1002
}
1002
{
1070
    63
1002
{
1002
{
1010
-1.0
1020
-1.0
1030
-1.0
1002
}
1040
0.1000000014901161
1000

1040
0.0
1002
{
1002
}
1040
0.0
1002
{
1002
}
1040
0.0
1002
}
1002
{
1002
{
1010
-1.0
1020
-1.0
1030
-1.0
1002
}
1040
0.6999999880790711
1000

1040
0.0
1002
{
1002
}
1040
0.0
1002
{
1002
}
1040
0.0
1002
}
1002
{
1002
{
1010
-1.0
1020
-1.0
1030
-1.0
1002
}
1040
0.2000000029802322
1000

1040
0.0
1002
{
1002
}
1040
0.0
1002
{
1002
}
1040
0.0
1002
}
1002
{
1070
     0
1002
{
1070
     1
1002
{
1040
1.0
1040
1.0
1000

1040
0.0
1002
{
1002
}
1040
0.0
1002
{
1002
}
1040
0.0
1002
}
1002
}
1040
1.0
1040
0.0
1040
0.0
1002
}
1002
{
1040
1.0
1040
1.0
1000

1040
0.0
1002
{
1002
}
1040
0.0
1002
{
1002
}
1040
0.0
1002
}
1002
{
1040
0.5
1040
1.0
1000

1040
0.0
1002
{
1002
}
1040
0.0
1002
{
1002
}
1040
0.0
1002
}
1002
{
1070
     0
1040
0.0
1002
{
1002
}
1040
1.0
1002
{
1002
}
1040
0.0
1002
}
1002
{
1040
0.0
1002
{
1002
{
1010
0.0
1020
0.0
1030
0.0
1002
}
1040
1.0
1000

1040
0.0
1002
{
1002
}
1040
0.0
1002
{
1002
}
1040
0.0
1002
}
1002
}
1002
{
1002
{
1070
     1
1002
{
1040
0.0
1040
1.0
1000

1040
0.0
1002
{
1002
}
1040
0.0
1002
{
1002
}
1040
0.0
1002
}
1002
}
1040
0.0
1002
{
1002
}
1010
1.0
1020
0.0
1030
0.0
1010
0.0
1020
1.0
1030
0.0
1010
0.0
1020
0.0
1030
1.0
1070
     0
1002
}
1002
{
1002
{
1040
1.0
1040
1.0
1002
{
1070
     1
1002
{
1040
1.0
1040
1.0
1000

1040
0.0
1002
{
1002
}
1040
0.0
1002
{
1002
}
1040
0.0
1002
}
1002
}
1002
}
1070
     0
1040
0.0
1002
{
1002
}
1002
}
1002
{
1002
}
1002
}
1002
{
1071
        3
1070
     3
1070
     0
1002
{
1070
     2
1070
     0
1070
     0
1040
0.0
1002
}
1070
     0
1070
     2
1002
{
1002
}
1002
}
1002
{
1040
8030.0
1040
190.3000030517578
1040
0.3050000071525574
1040
228.0
1040
545.0
1040
14.0
1040
17.39999961853027
1040
0.4560000002384186
1002
}
1002
}
  0
TEXT
  5
10EC2
330
2E3A
100
AcDbEntity
  8
0
 62
     7
 48
5.0
100
AcDbText
 10
-2169.581340465893
 20
1067.039765540778
 30
0.0
 40
3.809829827610412
  1
 
 41
0.75
100
AcDbText
  0
INSERT
  5
13A16
330
2E3A
100
AcDbEntity
  8
LAYER1
100
AcDbBlockReference
  2
AME_NIL
 10
1127.527252663858
 20
-264.6230569512117
 30
0.0
  0
INSERT
  5
13A17
330
2E3A
100
AcDbEntity
  8
LAYER1
100
AcDbBlockReference
  2
AME_SOL
 10
1127.527252663858
 20
-264.6230569512117
 30
0.0
1001
AME_SOL
1000
R2.1
1000
AME2
1000
sq m
1070
     3
1070
     0
1070
     3
1000
mesh
1040
45.0
1000
U
1040
1.0
1000
m
1000
gm
1000
MILD_STEEL
1070
    25
1000
CSG
1070
     1
1070
     3
1070
     3
1070
     3
1070
     0
1000
cu cm
1070
     1
1070
     0
1005
13A16
  0
TEXT
  5
13A18
330
2E3A
100
AcDbEntity
  8
TEKST
100
AcDbText
 10
1139.049352933081
 20
-243.9811597929708
 30
0.0
 40
2.5
  1

  7
ROMANS
100
AcDbText
  0
INSERT
  5
13A19
330
2E3A
100
AcDbEntity
  8
ASHADE
 62
     1
100
AcDbBlockReference
  2
AVE_RENDER
 10
1127.527252663858
 20
-264.6230569512117
 30
0.0
1001
AVE_RENDER
1002
{
1070
     6
1000
Pref
1070
    30
1070
    20
1070
     1
1070
     0
1000

1070
    10
1070
     1
1070
    30
1040
1.0
1070
     1
1040
0.3
1040
0.7
1040
0.0
1040
10.0
1010
-1.0
1020
-1.0
1030
-1.0
1040
0.3
1070
    49
1070
     0
1070
     0
1010
1.0
1020
1.0
1030
1.0
1040
45.0
1070
     1
1070
     0
1000
WCS
1040
0.0
1002
}
  0
INSERT
  5
13A1A
330
2E3A
100
AcDbEntity
  8
ASHADE
 62
     3
100
AcDbBlockReference
  2
AVE_RENDER
 10
1127.527252663858
 20
-264.6230569512117
 30
0.0
1001
AVE_RENDER
1002
{
1070
     0
1000
Full Opt
1070
     0
1070
     1
1070
     1
1070
     1
1070
     0
1070
     0
1070
     0
1070
     1
1070
     1
1040
0.0001
1040
0.0001
1002
}
  0
INSERT
  5
13A1B
330
2E3A
100
AcDbEntity
  8
ASHADE
 62
     4
100
AcDbBlockReference
  2
AVE_RENDER
 10
1127.527252663858
 20
-264.6230569512117
 30
0.0
1001
AVE_RENDER
1002
{
1070
     0
1000
Quick Opt
1070
     0
1070
     1
1070
     1
1070
     1
1070
     0
1070
     0
1070
     1
1002
}
  0
INSERT
  5
13A1C
330
2E3A
100
AcDbEntity
  8
ASHADE
 62
     5
100
AcDbBlockReference
  2
AVE_RENDER
 10
1127.527252663858
 20
-264.6230569512117
 30
0.0
1001
AVE_RENDER
1002
{
1070
     1
1000
Scanl Opt
1070
     2
1070
     0
1070
     2
1040
2.0
1040
4.0
1070
     0
1070
     1
1070
     0
1040
0.03
1002
}
  0
INSERT
  5
13A1D
330
2E3A
100
AcDbEntity
  8
ASHADE
 62
     6
100
AcDbBlockReference
  2
AVE_RENDER
 10
1127.527252663858
 20
-264.6230569512117
 30
0.0
1001
AVE_RENDER
1002
{
1070
     2
1000
Raytr Opt
1070
     2
1070
     0
1070
     2
1040
2.0
1040
4.0
1070
     0
1070
     1
1070
     1
1040
0.03
1070
     3
1040
0.03
1002
}
  0
INSERT
  5
13A1E
330
2E3A
100
AcDbEntity
  8
ASHADE
 62
     7
100
AcDbBlockReference
  2
AVE_RENDER
 10
1127.527252663858
 20
-264.6230569512117
 30
0.0
1001
AVE_RENDER
1002
{
1070
     0
1000
RFile Opt
1070
     5
1070
   640
1070
   480
1070
 10000
1070
     3
1070
    32
1070
    24
1070
     0
1070
     0
1070
     0
1070
     1
1070
     0
1070
     0
1070
     0
1002
}
  0
INSERT
  5
13A1F
330
2E3A
100
AcDbEntity
  8
ASHADE
 62
     8
100
AcDbBlockReference
  2
AVE_RENDER
 10
1127.527252663858
 20
-264.6230569512117
 30
0.0
1001
AVE_RENDER
1002
{
1070
     0
1000
Fog Opt
1070
     0
1070
     0
1040
0.0
1040
1.0
1040
0.0
1040
1.0
1010
0.5
1020
0.5
1030
0.5
1002
}
  0
INSERT
  5
13A20
330
2E3A
100
AcDbEntity
  8
ASHADE
 62
     9
100
AcDbBlockReference
  2
AVE_RENDER
 10
1127.527252663858
 20
-264.6230569512117
 30
0.0
1001
AVE_RENDER
1002
{
1070
     0
1000
BG Opt
1070
     0
1070
     1
1010
0.0
1020
0.0
1030
0.0
1010
1.0
1020
0.0
1030
0.0
1010
0.0
1020
1.0
1030
0.0
1010
0.0
1020
0.0
1030
1.0
1040
0.5
1040
0.33
1040
0.0
1000

1070
     1
1000

1070
     1
1070
     1
1040
1.0
1040
1.0
1040
0.0
1040
0.0
1070
     0
1002
}
  0
INSERT
  5
13A21
330
2E3A
100
AcDbEntity
  8
ASHADE
 62
     1
100
AcDbBlockReference
  2
AVE_GLOBAL
 10
1127.527252663858
 20
-264.6230569512117
 30
0.0
1001
AVE_MATERIAL
1002
{
1000
*GLOBAL*
1000
1
1000
Global finish.
1002
{
1002
}
1002
{
1070
    63
1002
{
1002
{
1010
-1.0
1020
-1.0
1030
-1.0
1002
}
1040
0.1000000014901161
1000

1040
0.0
1002
{
1002
}
1040
0.0
1002
{
1002
}
1040
0.0
1002
}
1002
{
1002
{
1010
-1.0
1020
-1.0
1030
-1.0
1002
}
1040
0.6999999880790711
1000

1040
0.0
1002
{
1002
}
1040
0.0
1002
{
1002
}
1040
0.0
1002
}
1002
{
1002
{
1010
-1.0
1020
-1.0
1030
-1.0
1002
}
1040
0.2000000029802322
1000

1040
0.0
1002
{
1002
}
1040
0.0
1002
{
1002
}
1040
0.0
1002
}
1002
{
1070
     0
1002
{
1070
     1
1002
{
1040
1.0
1040
1.0
1000

1040
0.0
1002
{
1002
}
1040
0.0
1002
{
1002
}
1040
0.0
1002
}
1002
}
1040
1.0
1040
0.0
1040
0.0
1002
}
1002
{
1040
1.0
1040
1.0
1000

1040
0.0
1002
{
1002
}
1040
0.0
1002
{
1002
}
1040
0.0
1002
}
1002
{
1040
0.5
1040
1.0
1000

1040
0.0
1002
{
1002
}
1040
0.0
1002
{
1002
}
1040
0.0
1002
}
1002
{
1070
     0
1040
0.0
1002
{
1002
}
1040
1.0
1002
{
1002
}
1040
0.0
1002
}
1002
{
1040
0.0
1002
{
1002
{
1010
0.0
1020
0.0
1030
0.0
1002
}
1040
1.0
1000

1040
0.0
1002
{
1002
}
1040
0.0
1002
{
1002
}
1040
0.0
1002
}
1002
}
1002
{
1002
{
1070
     1
1002
{
1040
0.0
1040
1.0
1000

1040
0.0
1002
{
1002
}
1040
0.0
1002
{
1002
}
1040
0.0
1002
}
1002
}
1040
0.0
1002
{
1002
}
1010
1.0
1020
0.0
1030
0.0
1010
0.0
1020
1.0
1030
0.0
1010
0.0
1020
0.0
1030
1.0
1070
     0
1002
}
1002
{
1002
{
1040
1.0
1040
1.0
1002
{
1070
     1
1002
{
1040
1.0
1040
1.0
1000

1040
0.0
1002
{
1002
}
1040
0.0
1002
{
1002
}
1040
0.0
1002
}
1002
}
1002
}
1070
     0
1040
0.0
1002
{
1002
}
1002
}
1002
{
1002
}
1002
}
1002
{
1071
        3
1070
     3
1070
     0
1002
{
1070
     2
1070
     0
1070
     0
1040
0.0
1002
}
1070
     0
1070
     2
1002
{
1002
}
1002
}
1002
{
1040
8030.0
1040
190.3000030517578
1040
0.3050000071525574
1040
228.0
1040
545.0
1040
14.0
1040
17.39999961853027
1040
0.4560000002384186
1002
}
1002
}
  0
TEXT
  5
13A22
330
2E3A
100
AcDbEntity
  8
0
 62
     7
 48
5.0
100
AcDbText
 10
-558.0360037858501
 20
116.4063927501858
 30
0.0
 40
3.809829827610412
  1
 
 41
0.75
100
AcDbText
  0
INSERT
  5
13A23
330
2E3A
100
AcDbEntity
  8
LAYER1
100
AcDbBlockReference
  2
AME_NIL
 10
-1712.031325415138
 20
468.5275892449308
 30
0.0
  0
INSERT
  5
13A24
330
2E3A
100
AcDbEntity
  8
LAYER1
100
AcDbBlockReference
  2
AME_SOL
 10
-1712.031325415138
 20
468.5275892449308
 30
0.0
1001
AME_SOL
1000
R2.1
1000
AME2
1000
sq m
1070
     3
1070
     0
1070
     3
1000
mesh
1040
45.0
1000
U
1040
1.0
1000
m
1000
gm
1000
MILD_STEEL
1070
    25
1000
CSG
1070
     1
1070
     3
1070
     3
1070
     3
1070
     0
1000
cu cm
1070
     1
1070
     0
1005
13A23
  0
TEXT
  5
13A25
330
2E3A
100
AcDbEntity
  8
TEKST
100
AcDbText
 10
-1700.509225145916
 20
489.1694864031718
 30
0.0
 40
2.5
  1

  7
ROMANS
100
AcDbText
  0
INSERT
  5
13A26
330
2E3A
100
AcDbEntity
  8
ASHADE
 62
     1
100
AcDbBlockReference
  2
AVE_RENDER
 10
-1712.031325415138
 20
468.5275892449308
 30
0.0
1001
AVE_RENDER
1002
{
1070
     6
1000
Pref
1070
    30
1070
    20
1070
     1
1070
     0
1000

1070
    10
1070
     1
1070
    30
1040
1.0
1070
     1
1040
0.3
1040
0.7
1040
0.0
1040
10.0
1010
-1.0
1020
-1.0
1030
-1.0
1040
0.3
1070
    49
1070
     0
1070
     0
1010
1.0
1020
1.0
1030
1.0
1040
45.0
1070
     1
1070
     0
1000
WCS
1040
0.0
1002
}
  0
INSERT
  5
13A27
330
2E3A
100
AcDbEntity
  8
ASHADE
 62
     3
100
AcDbBlockReference
  2
AVE_RENDER
 10
-1712.031325415138
 20
468.5275892449308
 30
0.0
1001
AVE_RENDER
1002
{
1070
     0
1000
Full Opt
1070
     0
1070
     1
1070
     1
1070
     1
1070
     0
1070
     0
1070
     0
1070
     1
1070
     1
1040
0.0001
1040
0.0001
1002
}
  0
INSERT
  5
13A28
330
2E3A
100
AcDbEntity
  8
ASHADE
 62
     4
100
AcDbBlockReference
  2
AVE_RENDER
 10
-1712.031325415138
 20
468.5275892449308
 30
0.0
1001
AVE_RENDER
1002
{
1070
     0
1000
Quick Opt
1070
     0
1070
     1
1070
     1
1070
     1
1070
     0
1070
     0
1070
     1
1002
}
  0
INSERT
  5
13A29
330
2E3A
100
AcDbEntity
  8
ASHADE
 62
     5
100
AcDbBlockReference
  2
AVE_RENDER
 10
-1712.031325415138
 20
468.5275892449308
 30
0.0
1001
AVE_RENDER
1002
{
1070
     1
1000
Scanl Opt
1070
     2
1070
     0
1070
     2
1040
2.0
1040
4.0
1070
     0
1070
     1
1070
     0
1040
0.03
1002
}
  0
INSERT
  5
13A2A
330
2E3A
100
AcDbEntity
  8
ASHADE
 62
     6
100
AcDbBlockReference
  2
AVE_RENDER
 10
-1712.031325415138
 20
468.5275892449308
 30
0.0
1001
AVE_RENDER
1002
{
1070
     2
1000
Raytr Opt
1070
     2
1070
     0
1070
     2
1040
2.0
1040
4.0
1070
     0
1070
     1
1070
     1
1040
0.03
1070
     3
1040
0.03
1002
}
  0
INSERT
  5
13A2B
330
2E3A
100
AcDbEntity
  8
ASHADE
 62
     7
100
AcDbBlockReference
  2
AVE_RENDER
 10
-1712.031325415138
 20
468.5275892449308
 30
0.0
1001
AVE_RENDER
1002
{
1070
     0
1000
RFile Opt
1070
     5
1070
   640
1070
   480
1070
 10000
1070
     3
1070
    32
1070
    24
1070
     0
1070
     0
1070
     0
1070
     1
1070
     0
1070
     0
1070
     0
1002
}
  0
INSERT
  5
13A2C
330
2E3A
100
AcDbEntity
  8
ASHADE
 62
     8
100
AcDbBlockReference
  2
AVE_RENDER
 10
-1712.031325415138
 20
468.5275892449308
 30
0.0
1001
AVE_RENDER
1002
{
1070
     0
1000
Fog Opt
1070
     0
1070
     0
1040
0.0
1040
1.0
1040
0.0
1040
1.0
1010
0.5
1020
0.5
1030
0.5
1002
}
  0
INSERT
  5
13A2D
330
2E3A
100
AcDbEntity
  8
ASHADE
 62
     9
100
AcDbBlockReference
  2
AVE_RENDER
 10
-1712.031325415138
 20
468.5275892449308
 30
0.0
1001
AVE_RENDER
1002
{
1070
     0
1000
BG Opt
1070
     0
1070
     1
1010
0.0
1020
0.0
1030
0.0
1010
1.0
1020
0.0
1030
0.0
1010
0.0
1020
1.0
1030
0.0
1010
0.0
1020
0.0
1030
1.0
1040
0.5
1040
0.33
1040
0.0
1000

1070
     1
1000

1070
     1
1070
     1
1040
1.0
1040
1.0
1040
0.0
1040
0.0
1070
     0
1002
}
  0
INSERT
  5
13A2E
330
2E3A
100
AcDbEntity
  8
ASHADE
 62
     1
100
AcDbBlockReference
  2
AVE_GLOBAL
 10
-1712.031325415138
 20
468.5275892449308
 30
0.0
1001
AVE_MATERIAL
1002
{
1000
*GLOBAL*
1000
1
1000
Global finish.
1002
{
1002
}
1002
{
1070
    63
1002
{
1002
{
1010
-1.0
1020
-1.0
1030
-1.0
1002
}
1040
0.1000000014901161
1000

1040
0.0
1002
{
1002
}
1040
0.0
1002
{
1002
}
1040
0.0
1002
}
1002
{
1002
{
1010
-1.0
1020
-1.0
1030
-1.0
1002
}
1040
0.6999999880790711
1000

1040
0.0
1002
{
1002
}
1040
0.0
1002
{
1002
}
1040
0.0
1002
}
1002
{
1002
{
1010
-1.0
1020
-1.0
1030
-1.0
1002
}
1040
0.2000000029802322
1000

1040
0.0
1002
{
1002
}
1040
0.0
1002
{
1002
}
1040
0.0
1002
}
1002
{
1070
     0
1002
{
1070
     1
1002
{
1040
1.0
1040
1.0
1000

1040
0.0
1002
{
1002
}
1040
0.0
1002
{
1002
}
1040
0.0
1002
}
1002
}
1040
1.0
1040
0.0
1040
0.0
1002
}
1002
{
1040
1.0
1040
1.0
1000

1040
0.0
1002
{
1002
}
1040
0.0
1002
{
1002
}
1040
0.0
1002
}
1002
{
1040
0.5
1040
1.0
1000

1040
0.0
1002
{
1002
}
1040
0.0
1002
{
1002
}
1040
0.0
1002
}
1002
{
1070
     0
1040
0.0
1002
{
1002
}
1040
1.0
1002
{
1002
}
1040
0.0
1002
}
1002
{
1040
0.0
1002
{
1002
{
1010
0.0
1020
0.0
1030
0.0
1002
}
1040
1.0
1000

1040
0.0
1002
{
1002
}
1040
0.0
1002
{
1002
}
1040
0.0
1002
}
1002
}
1002
{
1002
{
1070
     1
1002
{
1040
0.0
1040
1.0
1000

1040
0.0
1002
{
1002
}
1040
0.0
1002
{
1002
}
1040
0.0
1002
}
1002
}
1040
0.0
1002
{
1002
}
1010
1.0
1020
0.0
1030
0.0
1010
0.0
1020
1.0
1030
0.0
1010
0.0
1020
0.0
1030
1.0
1070
     0
1002
}
1002
{
1002
{
1040
1.0
1040
1.0
1002
{
1070
     1
1002
{
1040
1.0
1040
1.0
1000

1040
0.0
1002
{
1002
}
1040
0.0
1002
{
1002
}
1040
0.0
1002
}
1002
}
1002
}
1070
     0
1040
0.0
1002
{
1002
}
1002
}
1002
{
1002
}
1002
}
1002
{
1071
        3
1070
     3
1070
     0
1002
{
1070
     2
1070
     0
1070
     0
1040
0.0
1002
}
1070
     0
1070
     2
1002
{
1002
}
1002
}
1002
{
1040
8030.0
1040
190.3000030517578
1040
0.3050000071525574
1040
228.0
1040
545.0
1040
14.0
1040
17.39999961853027
1040
0.4560000002384186
1002
}
1002
}
  0
INSERT
  5
13A2F
330
2E3A
100
AcDbEntity
  8
LAYER1
100
AcDbBlockReference
  2
AME_NIL
 10
206.698808084644
 20
637.0480760935634
 30
0.0
  0
INSERT
  5
13A30
330
2E3A
100
AcDbEntity
  8
LAYER1
100
AcDbBlockReference
  2
AME_SOL
 10
206.698808084644
 20
637.0480760935634
 30
0.0
1001
AME_SOL
1000
R2.1
1000
AME2
1000
sq m
1070
     3
1070
     0
1070
     3
1000
mesh
1040
45.0
1000
U
1040
1.0
1000
m
1000
gm
1000
MILD_STEEL
1070
    25
1000
CSG
1070
     1
1070
     3
1070
     3
1070
     3
1070
     0
1000
cu cm
1070
     1
1070
     0
1005
13A2F
  0
TEXT
  5
13A31
330
2E3A
100
AcDbEntity
  8
TEKST
100
AcDbText
 10
218.220908353867
 20
657.6899732518043
 30
0.0
 40
2.5
  1

  7
ROMANS
100
AcDbText
  0
INSERT
  5
13A32
330
2E3A
100
AcDbEntity
  8
ASHADE
 62
     1
100
AcDbBlockReference
  2
AVE_RENDER
 10
206.698808084644
 20
637.0480760935634
 30
0.0
1001
AVE_RENDER
1002
{
1070
     6
1000
Pref
1070
    30
1070
    20
1070
     1
1070
     0
1000

1070
    10
1070
     1
1070
    30
1040
1.0
1070
     1
1040
0.3
1040
0.7
1040
0.0
1040
10.0
1010
-1.0
1020
-1.0
1030
-1.0
1040
0.3
1070
    49
1070
     0
1070
     0
1010
1.0
1020
1.0
1030
1.0
1040
45.0
1070
     1
1070
     0
1000
WCS
1040
0.0
1002
}
  0
INSERT
  5
13A33
330
2E3A
100
AcDbEntity
  8
ASHADE
 62
     3
100
AcDbBlockReference
  2
AVE_RENDER
 10
206.698808084644
 20
637.0480760935634
 30
0.0
1001
AVE_RENDER
1002
{
1070
     0
1000
Full Opt
1070
     0
1070
     1
1070
     1
1070
     1
1070
     0
1070
     0
1070
     0
1070
     1
1070
     1
1040
0.0001
1040
0.0001
1002
}
  0
INSERT
  5
13A34
330
2E3A
100
AcDbEntity
  8
ASHADE
 62
     4
100
AcDbBlockReference
  2
AVE_RENDER
 10
206.698808084644
 20
637.0480760935634
 30
0.0
1001
AVE_RENDER
1002
{
1070
     0
1000
Quick Opt
1070
     0
1070
     1
1070
     1
1070
     1
1070
     0
1070
     0
1070
     1
1002
}
  0
INSERT
  5
13A35
330
2E3A
100
AcDbEntity
  8
ASHADE
 62
     5
100
AcDbBlockReference
  2
AVE_RENDER
 10
206.698808084644
 20
637.0480760935634
 30
0.0
1001
AVE_RENDER
1002
{
1070
     1
1000
Scanl Opt
1070
     2
1070
     0
1070
     2
1040
2.0
1040
4.0
1070
     0
1070
     1
1070
     0
1040
0.03
1002
}
  0
INSERT
  5
13A36
330
2E3A
100
AcDbEntity
  8
ASHADE
 62
     6
100
AcDbBlockReference
  2
AVE_RENDER
 10
206.698808084644
 20
637.0480760935634
 30
0.0
1001
AVE_RENDER
1002
{
1070
     2
1000
Raytr Opt
1070
     2
1070
     0
1070
     2
1040
2.0
1040
4.0
1070
     0
1070
     1
1070
     1
1040
0.03
1070
     3
1040
0.03
1002
}
  0
INSERT
  5
13A37
330
2E3A
100
AcDbEntity
  8
ASHADE
 62
     7
100
AcDbBlockReference
  2
AVE_RENDER
 10
206.698808084644
 20
637.0480760935634
 30
0.0
1001
AVE_RENDER
1002
{
1070
     0
1000
RFile Opt
1070
     5
1070
   640
1070
   480
1070
 10000
1070
     3
1070
    32
1070
    24
1070
     0
1070
     0
1070
     0
1070
     1
1070
     0
1070
     0
1070
     0
1002
}
  0
INSERT
  5
13A38
330
2E3A
100
AcDbEntity
  8
ASHADE
 62
     8
100
AcDbBlockReference
  2
AVE_RENDER
 10
206.698808084644
 20
637.0480760935634
 30
0.0
1001
AVE_RENDER
1002
{
1070
     0
1000
Fog Opt
1070
     0
1070
     0
1040
0.0
1040
1.0
1040
0.0
1040
1.0
1010
0.5
1020
0.5
1030
0.5
1002
}
  0
INSERT
  5
13A39
330
2E3A
100
AcDbEntity
  8
ASHADE
 62
     9
100
AcDbBlockReference
  2
AVE_RENDER
 10
206.698808084644
 20
637.0480760935634
 30
0.0
1001
AVE_RENDER
1002
{
1070
     0
1000
BG Opt
1070
     0
1070
     1
1010
0.0
1020
0.0
1030
0.0
1010
1.0
1020
0.0
1030
0.0
1010
0.0
1020
1.0
1030
0.0
1010
0.0
1020
0.0
1030
1.0
1040
0.5
1040
0.33
1040
0.0
1000

1070
     1
1000

1070
     1
1070
     1
1040
1.0
1040
1.0
1040
0.0
1040
0.0
1070
     0
1002
}
  0
INSERT
  5
13A3A
330
2E3A
100
AcDbEntity
  8
ASHADE
 62
     1
100
AcDbBlockReference
  2
AVE_GLOBAL
 10
206.698808084644
 20
637.0480760935634
 30
0.0
1001
AVE_MATERIAL
1002
{
1000
*GLOBAL*
1000
1
1000
Global finish.
1002
{
1002
}
1002
{
1070
    63
1002
{
1002
{
1010
-1.0
1020
-1.0
1030
-1.0
1002
}
1040
0.1000000014901161
1000

1040
0.0
1002
{
1002
}
1040
0.0
1002
{
1002
}
1040
0.0
1002
}
1002
{
1002
{
1010
-1.0
1020
-1.0
1030
-1.0
1002
}
1040
0.6999999880790711
1000

1040
0.0
1002
{
1002
}
1040
0.0
1002
{
1002
}
1040
0.0
1002
}
1002
{
1002
{
1010
-1.0
1020
-1.0
1030
-1.0
1002
}
1040
0.2000000029802322
1000

1040
0.0
1002
{
1002
}
1040
0.0
1002
{
1002
}
1040
0.0
1002
}
1002
{
1070
     0
1002
{
1070
     1
1002
{
1040
1.0
1040
1.0
1000

1040
0.0
1002
{
1002
}
1040
0.0
1002
{
1002
}
1040
0.0
1002
}
1002
}
1040
1.0
1040
0.0
1040
0.0
1002
}
1002
{
1040
1.0
1040
1.0
1000

1040
0.0
1002
{
1002
}
1040
0.0
1002
{
1002
}
1040
0.0
1002
}
1002
{
1040
0.5
1040
1.0
1000

1040
0.0
1002
{
1002
}
1040
0.0
1002
{
1002
}
1040
0.0
1002
}
1002
{
1070
     0
1040
0.0
1002
{
1002
}
1040
1.0
1002
{
1002
}
1040
0.0
1002
}
1002
{
1040
0.0
1002
{
1002
{
1010
0.0
1020
0.0
1030
0.0
1002
}
1040
1.0
1000

1040
0.0
1002
{
1002
}
1040
0.0
1002
{
1002
}
1040
0.0
1002
}
1002
}
1002
{
1002
{
1070
     1
1002
{
1040
0.0
1040
1.0
1000

1040
0.0
1002
{
1002
}
1040
0.0
1002
{
1002
}
1040
0.0
1002
}
1002
}
1040
0.0
1002
{
1002
}
1010
1.0
1020
0.0
1030
0.0
1010
0.0
1020
1.0
1030
0.0
1010
0.0
1020
0.0
1030
1.0
1070
     0
1002
}
1002
{
1002
{
1040
1.0
1040
1.0
1002
{
1070
     1
1002
{
1040
1.0
1040
1.0
1000

1040
0.0
1002
{
1002
}
1040
0.0
1002
{
1002
}
1040
0.0
1002
}
1002
}
1002
}
1070
     0
1040
0.0
1002
{
1002
}
1002
}
1002
{
1002
}
1002
}
1002
{
1071
        3
1070
     3
1070
     0
1002
{
1070
     2
1070
     0
1070
     0
1040
0.0
1002
}
1070
     0
1070
     2
1002
{
1002
}
1002
}
1002
{
1040
8030.0
1040
190.3000030517578
1040
0.3050000071525574
1040
228.0
1040
545.0
1040
14.0
1040
17.39999961853027
1040
0.4560000002384186
1002
}
1002
}
  0
TEXT
  5
13A3B
330
2E3A
100
AcDbEntity
  8
0
 62
     7
 48
5.0
100
AcDbText
 10
-1478.864448365064
 20
1018.077525794961
 30
0.0
 40
3.809829827610412
  1
 
 41
0.75
100
AcDbText
  0
MTEXT
  5
1592D
330
2E3A
100
AcDbEntity
  8
OMRISS
  6
Continuous
100
AcDbMText
 10
-2395.176181831748
 20
2489.102319280084
 30
0.0
 40
4.0
 41
0.0
 71
     1
 72
     1
  1

  7
ARIAL
 73
     1
 44
1.0
  0
LWPOLYLINE
  5
15E6F
330
2E3A
100
AcDbEntity
  8
Omriss tanker
  6
Continuous
 62
    20
100
AcDbPolyline
 90
       30
 70
     1
 43
0.2
 39
1.0
 10
19544.64774680644
 20
10304.12200987776
 10
18570.34932714034
 20
10304.12200987776
 10
18292.64774680638
 20
10870.52200987774
 10
17776.6477468064
 20
10870.52044737777
 10
17501.63208824789
 20
10310.52200987776
 10
16975.66339918575
 20
10310.52200987776
 10
16700.6477468064
 20
10870.52200987774
 10
16184.64774680639
 20
10870.52200987774
 10
15909.63209442704
 20
10310.52200987776
 10
15383.66339918573
 20
10310.52200987776
 10
15108.64774680638
 20
10870.52200987774
 10
14592.64774680639
 20
10870.52044737777
 10
14317.63208824788
 20
10310.52200987776
 10
13791.66356610278
 20
10310.52200987776
 10
13516.64774680636
 20
10870.52044737777
 10
13000.64618430637
 20
10870.52044737777
 10
12725.63052574791
 20
10310.52200987776
 10
12199.66106316604
 20
10310.52200987776
 10
11924.64618430639
 20
10870.52200987774
 10
11408.64618430637
 20
10870.52200987774
 10
11133.63053192702
 20
10310.52200987776
 10
10607.66183668574
 20
10310.52200987776
 10
10332.64618430639
 20
10870.52200987774
 10
9816.646184306389
 20
10870.52200987774
 10
9541.630531927026
 20
10310.52200987776
 10
9015.661836685756
 20
10310.52200987776
 10
8740.646184306397
 20
10870.52200987774
 10
8344.747052929205
 20
10870.51232627761
 10
8344.747052929205
 20
6258.553259877801
 10
19544.6477468065
 20
6258.553259877801
  0
LWPOLYLINE
  5
15E70
330
2E3A
100
AcDbEntity
  8
Omriss tanker
  6
Continuous
 62
    20
100
AcDbPolyline
 90
       30
 70
     1
 43
0.2
 39
1.0
 10
19544.64774680642
 20
14930.49075987781
 10
8344.647746806343
 20
14930.49075987769
 10
8344.74705269233
 20
10870.52200987774
 10
8740.641428753468
 20
10870.5316933616
 10
9015.661836685756
 20
10310.52200987776
 10
9541.630531927026
 20
10310.52200987776
 10
9816.646184306389
 20
10870.52200987774
 10
10332.64618430639
 20
10870.52200987774
 10
10607.66183668574
 20
10310.52200987776
 10
11133.63053192702
 20
10310.52200987776
 10
11408.64618430637
 20
10870.52200987774
 10
11924.64618430639
 20
10870.52200987774
 10
12199.66106316604
 20
10310.52200987776
 10
12725.63052574791
 20
10310.52200987776
 10
13000.64618430637
 20
10870.52044737777
 10
13516.64774680636
 20
10870.52044737777
 10
13791.66356610278
 20
10310.52200987776
 10
14317.63208824788
 20
10310.52200987776
 10
14592.64774680639
 20
10870.52044737777
 10
15108.64774680638
 20
10870.52200987774
 10
15383.66339918573
 20
10310.52200987776
 10
15909.63209442704
 20
10310.52200987776
 10
16184.64774680639
 20
10870.52200987774
 10
16700.6477468064
 20
10870.52200987774
 10
16975.66339918575
 20
10310.52200987776
 10
17501.63208824789
 20
10310.52200987776
 10
17776.6477468064
 20
10870.52044737777
 10
18292.64774680638
 20
10870.52200987774
 10
18570.34932714034
 20
10304.12200987776
 10
19544.64774680644
 20
10304.12200987776
  0
LWPOLYLINE
  5
15E77
330
2E3A
100
AcDbEntity
  8
Omriss tanker
  6
Continuous
 62
    20
100
AcDbPolyline
 90
       28
 70
     1
 43
0.2
 39
1.0
 10
-1735.352253193601
 20
14930.49075987781
 10
-11255.35069069361
 20
14930.49075987781
 10
-11255.35225319354
 20
12762.50638487777
 10
-10925.51861813567
 20
12611.13799926057
 10
-10408.37675095374
 20
12950.53608514737
 10
-9922.713451674804
 20
12672.49352844062
 10
-9954.360696706878
 20
12054.34428075134
 10
-9467.630426853125
 20
11776.66905315489
 10
-8951.624659202309
 20
12115.32152158023
 10
-8465.600262631388
 20
11836.73570513118
 10
-8465.600262650651
 20
11202.89941257254
 10
-7905.600262650651
 20
10882.60559927545
 10
-7905.600262650651
 20
10594.52200987776
 10
-7630.932607239535
 20
10594.52200987778
 10
-7486.495495978086
 20
10310.52200987776
 10
-6970.368693002106
 20
10310.52200987776
 10
-6695.353034443586
 20
10870.52044737777
 10
-6179.353034443586
 20
10870.52044737777
 10
-5904.337382064216
 20
10310.52200987776
 10
-5378.368686822954
 20
10310.52200987776
 10
-5103.353034443584
 20
10870.52200987774
 10
-4587.350676779737
 20
10870.52200987774
 10
-4312.337401049575
 20
10310.52200987776
 10
-3757.269853751218
 20
10310.52200987776
 10
-3511.353034443585
 20
10870.52200987774
 10
-2995.351904427181
 20
10870.52200987774
 10
-2717.648705348794
 20
10304.12200987776
 10
-1734.226161540616
 20
10304.15238534875
  0
LWPOLYLINE
  5
15E78
330
2E3A
100
AcDbEntity
  8
Omriss tanker
  6
Continuous
 62
    20
100
AcDbPolyline
 90
       28
 70
     1
 43
0.2
 39
1.0
 10
-1734.226169995627
 20
10304.18712117137
 10
-2717.648705348794
 20
10304.12200987776
 10
-2995.351904427181
 20
10870.52200987774
 10
-3511.353034443585
 20
10870.52200987774
 10
-3757.269853751218
 20
10310.52200987776
 10
-4312.337401049575
 20
10310.52200987776
 10
-4587.350676779737
 20
10870.52200987774
 10
-5103.353034443584
 20
10870.52200987774
 10
-5378.368686822954
 20
10310.52200987776
 10
-5904.337382064216
 20
10310.52200987776
 10
-6179.353034443586
 20
10870.52044737777
 10
-6695.353034443586
 20
10870.52044737777
 10
-6970.368693002106
 20
10310.52200987776
 10
-7486.495495978086
 20
10310.52200987776
 10
-7630.932607239535
 20
10594.52200987778
 10
-7905.600262650651
 20
10594.52200987776
 10
-7905.600262650651
 20
10306.43842048005
 10
-8465.600262650651
 20
9986.144607183035
 10
-8465.600262631388
 20
9352.308314624373
 10
-8951.624659202309
 20
9073.722498175342
 10
-9467.630426853125
 20
9412.374966600639
 10
-9954.360696706878
 20
9134.699739004233
 10
-9922.796185707717
 20
8518.166492333497
 10
-10408.37675095374
 20
8238.507934608136
 10
-10925.51861813567
 20
8577.906020494978
 10
-11252.34183095815
 20
8427.919188198497
 10
-11255.56225319352
 20
6258.553259877801
 10
-1735.351982883249
 20
6259.524392978149
  0
LWPOLYLINE
  5
15E79
330
2E3A
100
AcDbEntity
  8
Omriss tanker
  6
Continuous
 62
    20
100
AcDbPolyline
 90
       21
 70
     1
 43
0.2
 39
1.0
 10
-11255.35225319354
 20
12762.50638487777
 10
-11255.35225319356
 20
8426.537634877773
 10
-10925.51861813567
 20
8577.906020494978
 10
-10408.37675095374
 20
8238.507934608136
 10
-9922.713451674804
 20
8516.550491314905
 10
-9954.360696706878
 20
9134.699739004233
 10
-9467.630426853125
 20
9412.374966600639
 10
-8951.624659202309
 20
9073.722498175342
 10
-8465.600262631388
 20
9352.308314624373
 10
-8465.600262650651
 20
9986.144607183035
 10
-7905.600262650651
 20
10306.43842048005
 10
-7905.600262650651
 20
10882.60559927545
 10
-8465.600262650651
 20
11202.89941257254
 10
-8465.600262631388
 20
11836.73570513118
 10
-8951.624659202309
 20
12115.32152158023
 10
-9467.630426853125
 20
11776.66905315489
 10
-9954.360696706878
 20
12054.34428075134
 10
-9922.713451674804
 20
12672.49352844062
 10
-10408.37675095374
 20
12950.53608514737
 10
-10925.51861813567
 20
12611.13799926057
 10
-11255.35225319354
 20
12762.50638487777
  0
LWPOLYLINE
  5
15E7A
330
2E3A
100
AcDbEntity
  8
Omriss tanker
  6
Continuous
 62
    20
100
AcDbPolyline
 90
       26
 70
     1
 43
0.2
 39
1.0
 10
8344.647746806343
 20
14930.49075987781
 10
-1732.93767931826
 20
14933.29580848414
 10
-1734.226188119049
 20
10304.12200987776
 10
-1313.057722011712
 20
10304.12200987776
 10
-1035.353034443586
 20
10870.52200987774
 10
-475.3530344435858
 20
10870.52200987774
 10
-200.59005542229
 20
10310.12200987778
 10
369.8832052850779
 20
10310.12200987778
 10
644.6461843064017
 20
10870.52200987774
 10
1204.646184306402
 20
10870.52200987774
 10
1479.409163327728
 20
10310.12200987778
 10
2049.88319880345
 20
10310.12200987778
 10
2324.646184306403
 20
10870.52044737777
 10
2884.646184306403
 20
10870.52200987774
 10
3159.407587608017
 20
10310.12200987778
 10
3729.884781004818
 20
10310.12200987778
 10
4004.646184306401
 20
10870.52200987774
 10
4564.646184306401
 20
10870.52200987774
 10
4839.407587608016
 20
10310.12200987778
 10
5409.884781004788
 20
10310.12200987778
 10
5684.646184306402
 20
10870.52200987774
 10
6244.646184306404
 20
10870.52200987774
 10
6519.407587608016
 20
10310.12200987778
 10
7089.884768442789
 20
10310.12200987778
 10
7364.647669066369
 20
10870.52200987774
 10
8344.647746806368
 20
10870.486011452
  0
LWPOLYLINE
  5
15E7B
330
2E3A
100
AcDbEntity
  8
Omriss tanker
  6
Continuous
 62
    20
100
AcDbPolyline
 90
       26
 70
     1
 43
0.2
 39
1.0
 10
8344.558371509007
 20
10870.52200987774
 10
7364.647669066369
 20
10870.52200987774
 10
7089.884768442789
 20
10310.12200987778
 10
6519.407587608016
 20
10310.12200987778
 10
6244.646184306404
 20
10870.52200987774
 10
5684.646184306402
 20
10870.52200987774
 10
5409.884781004788
 20
10310.12200987778
 10
4839.407587608016
 20
10310.12200987778
 10
4564.646184306401
 20
10870.52200987774
 10
4004.646184306401
 20
10870.52200987774
 10
3729.884781004818
 20
10310.12200987778
 10
3159.407587608017
 20
10310.12200987778
 10
2884.646184306403
 20
10870.52200987774
 10
2324.646184306403
 20
10870.52044737777
 10
2049.88319880345
 20
10310.12200987778
 10
1479.409163327728
 20
10310.12200987778
 10
1204.646184306402
 20
10870.52200987774
 10
644.6461843064017
 20
10870.52200987774
 10
369.8832052850779
 20
10310.12200987778
 10
-200.59005542229
 20
10310.12200987778
 10
-475.3530344435858
 20
10870.52200987774
 10
-1035.353034443586
 20
10870.52200987774
 10
-1313.057722011712
 20
10304.12200987776
 10
-1734.226188119049
 20
10304.12200987776
 10
-1737.766046296818
 20
6258.553259877801
 10
8344.647746806426
 20
6258.553259877801
  0
TEXT
  5
15E83
330
2E3A
100
AcDbEntity
  8
TEKST
  6
Continuous
100
AcDbText
 10
-2785.471731064098
 20
8199.039099695047
 30
0.0
 40
200.0
  1
_Col 8-0
  7
ARIAL
100
AcDbText
  0
LWPOLYLINE
  5
15E87
330
2E3A
100
AcDbEntity
  8
Symboler
  6
Continuous
 62
    42
100
AcDbPolyline
 90
       11
 70
     1
 39
1.0
 10
-2834.42204122161
 20
7904.507432508449
 40
0.6029999999995198
 41
0.6029999999995198
 10
-3148.600194967733
 20
7904.507432508449
 40
0.6029999999995198
 41
0.6029999999995198
 10
-3148.600194967733
 20
7710.854187294751
 40
0.6029999999995198
 41
0.6029999999995198
 42
-0.8846768105770848
 10
-3148.600194967733
 20
8143.385677722156
 40
0.6029999999995198
 41
0.6029999999995198
 10
-3148.600194967733
 20
7949.732432508411
 40
0.6029999999995198
 41
0.6029999999995198
 10
-2834.42204122161
 20
7949.732432508411
 40
0.6029999999995198
 41
0.6029999999995198
 10
-2996.423937554213
 20
8249.892246622508
 40
0.0
 41
0.0
 10
-2648.011361910317
 20
8249.892246622508
 40
0.6029999999995198
 41
0.6029999999995198
 10
-2822.217649732264
 20
7927.119932508427
 40
0.6029999999995198
 41
0.6029999999995198
 10
-2648.011361910317
 20
7604.347618394354
 40
0.0
 41
0.0
 10
-2996.423937554213
 20
7604.347618394354
 40
0.6029999999995198
 41
0.6029999999995198
  0
TEXT
  5
15E88
330
2E3A
100
AcDbEntity
  8
TEKST
  6
Continuous
100
AcDbText
 10
-9739.372909446672
 20
7905.297456467504
 30
0.0
 40
400.0
  1
_tn8
  7
ARIAL
100
AcDbText
  0
TEXT
  5
15E89
330
2E3A
100
AcDbEntity
  8
TEKST
  6
Continuous
100
AcDbText
 10
-8701.931607869585
 20
7386.834842697973
 30
0.0
 40
400.0
  1
_tv8
  7
ARIAL
100
AcDbText
  0
LWPOLYLINE
  5
15E8D
330
2E3A
100
AcDbEntity
  8
Symboler
  6
Continuous
 62
    42
100
AcDbPolyline
 90
       11
 70
     1
 39
1.0
 10
-9773.345655359143
 20
9942.242644185952
 40
0.6029999999989743
 41
0.6029999999989743
 10
-9773.345655359143
 20
10256.42079793178
 40
0.6029999999989743
 41
0.6029999999989743
 10
-9966.998900572669
 20
10256.42079793178
 40
0.6029999999989743
 41
0.6029999999989743
 42
-0.8846768105770848
 10
-9534.467410145655
 20
10256.42079793178
 40
0.6029999999989743
 41
0.6029999999989743
 10
-9728.120655359219
 20
10256.42079793178
 40
0.6029999999989743
 41
0.6029999999989743
 10
-9728.120655359219
 20
9942.242644185952
 40
0.6029999999989743
 41
0.6029999999989743
 10
-9427.960841245399
 20
10104.24454051838
 40
0.0
 41
0.0
 10
-9427.960841245399
 20
9755.831964874818
 40
0.6029999999989743
 41
0.6029999999989743
 10
-9750.733155359188
 20
9930.038252696613
 40
0.6029999999989743
 41
0.6029999999989743
 10
-10073.50546947294
 20
9755.831964874818
 40
0.0
 41
0.0
 10
-10073.50546947294
 20
10104.24454051838
 40
0.6029999999989743
 41
0.6029999999989743
  0
TEXT
  5
15E8E
330
2E3A
100
AcDbEntity
  8
TEKST
  6
Continuous
100
AcDbText
 10
-10648.47467391897
 20
10146.0871373546
 30
0.0
 40
200.0
  1
_Col 9-3
  7
ARIAL
100
AcDbText
  0
TEXT
  5
15E93
330
2E3A
100
AcDbEntity
  8
TEKST
  6
Continuous
100
AcDbText
 10
-6543.131664016939
 20
8360.856659203824
 30
0.0
 40
200.0
  1
_Col 8-3
  7
ARIAL
100
AcDbText
  0
LWPOLYLINE
  5
15E94
330
2E3A
100
AcDbEntity
  8
Symboler
  6
Continuous
 62
    42
100
AcDbPolyline
 90
       11
 70
     1
 39
1.0
 10
-5811.217527056054
 20
8264.732492869304
 40
0.6029999999989743
 41
0.6029999999989743
 10
-5811.217527056054
 20
8578.910646615142
 40
0.6029999999989743
 41
0.6029999999989743
 10
-6004.87077226958
 20
8578.910646615142
 40
0.6029999999989743
 41
0.6029999999989743
 42
-0.8846768105770848
 10
-5572.339281842562
 20
8578.910646615142
 40
0.6029999999989743
 41
0.6029999999989743
 10
-5765.992527056131
 20
8578.910646615142
 40
0.6029999999989743
 41
0.6029999999989743
 10
-5765.992527056131
 20
8264.732492869304
 40
0.6029999999989743
 41
0.6029999999989743
 10
-5465.832712942308
 20
8426.734389201758
 40
0.0
 41
0.0
 10
-5465.832712942308
 20
8078.321813558179
 40
0.6029999999989743
 41
0.6029999999989743
 10
-5788.605027056096
 20
8252.528101379969
 40
0.6029999999989743
 41
0.6029999999989743
 10
-6111.377341169879
 20
8078.321813558179
 40
0.0
 41
0.0
 10
-6111.377341169879
 20
8426.734389201758
 40
0.6029999999989743
 41
0.6029999999989743
  0
TEXT
  5
15E95
330
2E3A
100
AcDbEntity
  8
TEKST
  6
Continuous
100
AcDbText
 10
-8187.950906799757
 20
8637.228192928239
 30
0.0
 40
400.0
  1
_tl8
  7
ARIAL
100
AcDbText
  0
TEXT
  5
15E97
330
2E3A
100
AcDbEntity
  8
TEKST
  6
Continuous
100
AcDbText
 10
-5578.810030494235
 20
8266.627367902929
 30
0.0
 40
200.0
  1
_Col 8-1
  7
ARIAL
100
AcDbText
  0
TEXT
  5
15E9A
330
2E3A
100
AcDbEntity
  8
TEKST
  6
Continuous
100
AcDbText
 10
-9525.545216772254
 20
9992.414441607433
 30
0.0
 40
200.0
  1
_Col 9-0
  7
ARIAL
100
AcDbText
  0
LWPOLYLINE
  5
15E9D
330
2E3A
100
AcDbEntity
  8
Symboler
  6
Continuous
 62
    42
100
AcDbPolyline
 90
       11
 70
     1
 39
1.0
 10
7379.610575849335
 20
7904.507432508449
 40
0.6029999999995198
 41
0.6029999999995198
 10
7065.432422103215
 20
7904.507432508449
 40
0.6029999999995198
 41
0.6029999999995198
 10
7065.432422103215
 20
7710.854187294751
 40
0.6029999999995198
 41
0.6029999999995198
 42
-0.8846768105770848
 10
7065.432422103215
 20
8143.385677722156
 40
0.6029999999995198
 41
0.6029999999995198
 10
7065.432422103215
 20
7949.732432508411
 40
0.6029999999995198
 41
0.6029999999995198
 10
7379.610575849335
 20
7949.732432508411
 40
0.6029999999995198
 41
0.6029999999995198
 10
7217.608679516735
 20
8249.892246622508
 40
0.0
 41
0.0
 10
7566.021255160627
 20
8249.892246622508
 40
0.6029999999995198
 41
0.6029999999995198
 10
7391.814967338679
 20
7927.119932508427
 40
0.6029999999995198
 41
0.6029999999995198
 10
7566.021255160627
 20
7604.347618394354
 40
0.0
 41
0.0
 10
7217.608679516735
 20
7604.347618394354
 40
0.6029999999995198
 41
0.6029999999995198
  0
TEXT
  5
15E9F
330
2E3A
100
AcDbEntity
  8
TEKST
  6
Continuous
100
AcDbText
 10
2867.067850424311
 20
7905.297456467504
 30
0.0
 40
400.0
  1
_tn6
  7
ARIAL
100
AcDbText
  0
TEXT
  5
15EA0
330
2E3A
100
AcDbEntity
  8
TEKST
  6
Continuous
100
AcDbText
 10
3904.509152001395
 20
7386.834842697973
 30
0.0
 40
400.0
  1
_tv6
  7
ARIAL
100
AcDbText
  0
LWPOLYLINE
  5
15EA7
330
2E3A
100
AcDbEntity
  8
Symboler
  6
Continuous
 62
    42
100
AcDbPolyline
 90
        6
 70
     1
 43
0.0
 39
1.0
 10
12924.24115446543
 20
6820.552716311357
 10
13155.36060762908
 20
6820.552716311357
 10
13039.80088104727
 20
7034.663704115228
 10
12924.24115446543
 20
7248.774691919098
 10
13155.36060762908
 20
7248.774691919098
 10
13039.80088104727
 20
7034.663704115228
  0
LWPOLYLINE
  5
15EA9
330
2E3A
100
AcDbEntity
  8
Symboler
  6
Continuous
 62
    42
100
AcDbPolyline
 90
        6
 70
     1
 43
0.0
 39
1.0
 10
12484.45276610959
 20
6820.552716311357
 10
12715.57221927322
 20
6820.552716311357
 10
12600.01249269141
 20
7034.663704115228
 10
12484.45276610959
 20
7248.774691919098
 10
12715.57221927322
 20
7248.774691919098
 10
12600.01249269141
 20
7034.663704115228
  0
LWPOLYLINE
  5
15EAA
330
2E3A
100
AcDbEntity
  8
Symboler
  6
Continuous
 62
    42
100
AcDbPolyline
 90
        6
 70
     1
 43
0.0
 39
1.0
 10
12068.85578669122
 20
6820.552716311357
 10
12299.97523985485
 20
6820.552716311357
 10
12184.41551327303
 20
7034.663704115228
 10
12068.85578669122
 20
7248.774691919098
 10
12299.97523985485
 20
7248.774691919098
 10
12184.41551327303
 20
7034.663704115228
  0
LWPOLYLINE
  5
15EAB
330
2E3A
100
AcDbEntity
  8
Symboler
  6
Continuous
 62
    42
100
AcDbPolyline
 90
       11
 70
     1
 39
1.0
 10
-248.8389762386224
 20
8264.732492869304
 40
0.6029999999989743
 41
0.6029999999989743
 10
-248.8389762386224
 20
8578.910646615142
 40
0.6029999999989743
 41
0.6029999999989743
 10
-442.4922214521475
 20
8578.910646615142
 40
0.6029999999989743
 41
0.6029999999989743
 42
-0.8846768105770848
 10
-9.960731025130023
 20
8578.910646615142
 40
0.6029999999989743
 41
0.6029999999989743
 10
-203.6139762387
 20
8578.910646615142
 40
0.6029999999989743
 41
0.6029999999989743
 10
-203.6139762387
 20
8264.732492869304
 40
0.6029999999989743
 41
0.6029999999989743
 10
96.54583787512251
 20
8426.734389201758
 40
0.0
 41
0.0
 10
96.54583787512251
 20
8078.321813558179
 40
0.6029999999989743
 41
0.6029999999989743
 10
-226.226476238661
 20
8252.528101379969
 40
0.6029999999989743
 41
0.6029999999989743
 10
-548.998790352445
 20
8078.321813558179
 40
0.0
 41
0.0
 10
-548.998790352445
 20
8426.734389201758
 40
0.6029999999989743
 41
0.6029999999989743
  0
TEXT
  5
15EAC
330
2E3A
100
AcDbEntity
  8
TEKST
  6
Continuous
100
AcDbText
 10
-971.0015719291977
 20
8381.740187370338
 30
0.0
 40
200.0
  1
_Col 6-3
  7
ARIAL
100
AcDbText
  0
TEXT
  5
15EAD
330
2E3A
100
AcDbEntity
  8
TEKST
  6
Continuous
100
AcDbText
 10
-54.55423893964415
 20
8296.587834242869
 30
0.0
 40
200.0
  1
_Col 6-1
  7
ARIAL
100
AcDbText
  0
TEXT
  5
15EB0
330
2E3A
100
AcDbEntity
  8
TEKST
  6
Continuous
100
AcDbText
 10
2930.712908945788
 20
8514.325524706547
 30
0.0
 40
400.0
  1
_tl6
  7
ARIAL
100
AcDbText
  0
LWPOLYLINE
  5
15EB2
330
2E3A
100
AcDbEntity
  8
Symboler
  6
Continuous
 62
    42
100
AcDbPolyline
 90
       11
 70
     1
 39
1.0
 10
9828.746449885985
 20
8261.927444262845
 40
0.6029999999989743
 41
0.6029999999989743
 10
9828.746449885985
 20
8576.105598008686
 40
0.6029999999989743
 41
0.6029999999989743
 10
9635.093204672466
 20
8576.105598008686
 40
0.6029999999989743
 41
0.6029999999989743
 42
-0.8846768105770848
 10
10067.62469509942
 20
8576.105598008686
 40
0.6029999999989743
 41
0.6029999999989743
 10
9873.971449885916
 20
8576.105598008686
 40
0.6029999999989743
 41
0.6029999999989743
 10
9873.971449885916
 20
8261.927444262845
 40
0.6029999999989743
 41
0.6029999999989743
 10
10174.13126399974
 20
8423.929340595305
 40
0.0
 41
0.0
 10
10174.13126399974
 20
8075.516764951725
 40
0.6029999999989743
 41
0.6029999999989743
 10
9851.358949885964
 20
8249.723052773514
 40
0.6029999999989743
 41
0.6029999999989743
 10
9528.586635772176
 20
8075.516764951725
 40
0.0
 41
0.0
 10
9528.586635772176
 20
8423.929340595305
 40
0.6029999999989743
 41
0.6029999999989743
  0
TEXT
  5
15EB3
330
2E3A
100
AcDbEntity
  8
TEKST
  6
Continuous
100
AcDbText
 10
9141.2809210938
 20
8356.774499274711
 30
0.0
 40
200.0
  1
_Col 4-3
  7
ARIAL
100
AcDbText
  0
TEXT
  5
15EB4
330
2E3A
100
AcDbEntity
  8
TEKST
  6
Continuous
100
AcDbText
 10
7366.092950028004
 20
8232.201573335933
 30
0.0
 40
200.0
  1
_Col 6-0
  7
ARIAL
100
AcDbText
  0
TEXT
  5
15EB6
330
2E3A
100
AcDbEntity
  8
TEKST
  6
Continuous
100
AcDbText
 10
10042.35672195513
 20
8272.099053874029
 30
0.0
 40
200.0
  1
_Col 4-1
  7
ARIAL
100
AcDbText
  0
TEXT
  5
15EBA
330
2E3A
100
AcDbEntity
  8
TEKST
  6
Continuous
100
AcDbText
 10
-2818.660132825433
 20
13468.39180008379
 30
0.0
 40
200.0
  1
_Col 7-0
  7
ARIAL
100
AcDbText
  0
LWPOLYLINE
  5
15EBC
330
2E3A
100
AcDbEntity
  8
Symboler
  6
Continuous
 62
    42
100
AcDbPolyline
 90
       11
 70
     1
 39
1.0
 10
-2834.422041221609
 20
13193.29116542793
 40
0.6029999999995198
 41
0.6029999999995198
 10
-3148.600194967732
 20
13193.29116542793
 40
0.6029999999995198
 41
0.6029999999995198
 10
-3148.600194967732
 20
12999.63792021422
 40
0.6029999999995198
 41
0.6029999999995198
 42
-0.8846768105770848
 10
-3148.600194967732
 20
13432.16941064164
 40
0.6029999999995198
 41
0.6029999999995198
 10
-3148.600194967732
 20
13238.5161654279
 40
0.6029999999995198
 41
0.6029999999995198
 10
-2834.422041221609
 20
13238.5161654279
 40
0.6029999999995198
 41
0.6029999999995198
 10
-2996.423937554213
 20
13538.67597954196
 40
0.0
 41
0.0
 10
-2648.011361910315
 20
13538.67597954196
 40
0.6029999999995198
 41
0.6029999999995198
 10
-2822.217649732264
 20
13215.90366542793
 40
0.6029999999995198
 41
0.6029999999995198
 10
-2648.011361910315
 20
12893.13135131384
 40
0.0
 41
0.0
 10
-2996.423937554213
 20
12893.13135131384
 40
0.6029999999995198
 41
0.6029999999995198
  0
LWPOLYLINE
  5
15EBD
330
2E3A
100
AcDbEntity
  8
Symboler
  6
Continuous
 62
    42
100
AcDbPolyline
 90
       11
 70
     1
 39
1.0
 10
-5811.217527056054
 20
12986.20033702047
 40
0.6029999999989743
 41
0.6029999999989743
 10
-5811.217527056054
 20
13300.37849076629
 40
0.6029999999989743
 41
0.6029999999989743
 10
-6004.87077226958
 20
13300.37849076629
 40
0.6029999999989743
 41
0.6029999999989743
 42
-0.8846768105770848
 10
-5572.339281842562
 20
13300.37849076629
 40
0.6029999999989743
 41
0.6029999999989743
 10
-5765.992527056131
 20
13300.37849076629
 40
0.6029999999989743
 41
0.6029999999989743
 10
-5765.992527056131
 20
12986.20033702047
 40
0.6029999999989743
 41
0.6029999999989743
 10
-5465.832712942308
 20
13148.20223335291
 40
0.0
 41
0.0
 10
-5465.832712942308
 20
12799.78965770932
 40
0.6029999999989743
 41
0.6029999999989743
 10
-5788.605027056096
 20
12973.99594553114
 40
0.6029999999989743
 41
0.6029999999989743
 10
-6111.377341169879
 20
12799.78965770932
 40
0.0
 41
0.0
 10
-6111.377341169879
 20
13148.20223335291
 40
0.6029999999989743
 41
0.6029999999989743
  0
TEXT
  5
15EBE
330
2E3A
100
AcDbEntity
  8
TEKST
  6
Continuous
100
AcDbText
 10
-6498.947710657549
 20
13086.98437120785
 30
0.0
 40
200.0
  1
_Col 7-3
  7
ARIAL
100
AcDbText
  0
TEXT
  5
15EBF
330
2E3A
100
AcDbEntity
  8
TEKST
  6
Continuous
100
AcDbText
 10
-9748.313830343789
 20
13320.6893881933
 30
0.0
 40
400.0
  1
_tn7
  7
ARIAL
100
AcDbText
  0
TEXT
  5
15EC0
330
2E3A
100
AcDbEntity
  8
TEKST
  6
Continuous
100
AcDbText
 10
-8710.872528766703
 20
12802.22677442375
 30
0.0
 40
400.0
  1
_tv7
  7
ARIAL
100
AcDbText
  0
TEXT
  5
15EC1
330
2E3A
100
AcDbEntity
  8
TEKST
  6
Continuous
100
AcDbText
 10
-9998.338786827154
 20
10787.58970658068
 30
0.0
 40
400.0
  1
_tv9
  7
ARIAL
100
AcDbText
  0
TEXT
  5
15EC2
330
2E3A
100
AcDbEntity
  8
TEKST
  6
Continuous
100
AcDbText
 10
-10608.41630884048
 20
11924.63292163927
 30
0.0
 40
400.0
  1
_tl9
  7
ARIAL
100
AcDbText
  0
TEXT
  5
15EC3
330
2E3A
100
AcDbEntity
  8
TEKST
  6
Continuous
100
AcDbText
 10
-11035.78008840422
 20
11306.05232035021
 30
0.0
 40
400.0
  1
_tn9
  7
ARIAL
100
AcDbText
  0
TEXT
  5
15EC6
330
2E3A
100
AcDbEntity
  8
TEKST
  6
Continuous
100
AcDbText
 10
-5593.232259115947
 20
13037.5130563496
 30
0.0
 40
200.0
  1
_Col 7-1
  7
ARIAL
100
AcDbText
  0
TEXT
  5
15EC8
330
2E3A
100
AcDbEntity
  8
TEKST
  6
Continuous
100
AcDbText
 10
-8994.772707480006
 20
13847.45451464047
 30
0.0
 40
400.0
  1
_tl7
  7
ARIAL
100
AcDbText
  0
LWPOLYLINE
  5
15ECD
330
2E3A
100
AcDbEntity
  8
Symboler
  6
Continuous
 62
    42
100
AcDbPolyline
 90
       11
 70
     1
 39
1.0
 10
9828.746449885985
 20
12983.39528841401
 40
0.6029999999989743
 41
0.6029999999989743
 10
9828.746449885985
 20
13297.57344215985
 40
0.6029999999989743
 41
0.6029999999989743
 10
9635.093204672466
 20
13297.57344215985
 40
0.6029999999989743
 41
0.6029999999989743
 42
-0.8846768105770848
 10
10067.62469509942
 20
13297.57344215985
 40
0.6029999999989743
 41
0.6029999999989743
 10
9873.971449885916
 20
13297.57344215985
 40
0.6029999999989743
 41
0.6029999999989743
 10
9873.971449885916
 20
12983.39528841401
 40
0.6029999999989743
 41
0.6029999999989743
 10
10174.13126399974
 20
13145.39718474648
 40
0.0
 41
0.0
 10
10174.13126399974
 20
12796.98460910288
 40
0.6029999999989743
 41
0.6029999999989743
 10
9851.358949885964
 20
12971.19089692469
 40
0.6029999999989743
 41
0.6029999999989743
 10
9528.586635772176
 20
12796.98460910288
 40
0.0
 41
0.0
 10
9528.586635772176
 20
13145.39718474648
 40
0.6029999999989743
 41
0.6029999999989743
  0
LWPOLYLINE
  5
15ECE
330
2E3A
100
AcDbEntity
  8
Symboler
  6
Continuous
 62
    42
100
AcDbPolyline
 90
       11
 70
     1
 39
1.0
 10
7379.610575849335
 20
13193.29116542793
 40
0.6029999999995198
 41
0.6029999999995198
 10
7065.432422103215
 20
13193.29116542793
 40
0.6029999999995198
 41
0.6029999999995198
 10
7065.432422103215
 20
12999.63792021422
 40
0.6029999999995198
 41
0.6029999999995198
 42
-0.8846768105770848
 10
7065.432422103215
 20
13432.16941064164
 40
0.6029999999995198
 41
0.6029999999995198
 10
7065.432422103215
 20
13238.5161654279
 40
0.6029999999995198
 41
0.6029999999995198
 10
7379.610575849335
 20
13238.5161654279
 40
0.6029999999995198
 41
0.6029999999995198
 10
7217.608679516735
 20
13538.67597954196
 40
0.0
 41
0.0
 10
7566.021255160627
 20
13538.67597954196
 40
0.6029999999995198
 41
0.6029999999995198
 10
7391.814967338679
 20
13215.90366542793
 40
0.6029999999995198
 41
0.6029999999995198
 10
7566.021255160627
 20
12893.13135131384
 40
0.0
 41
0.0
 10
7217.608679516735
 20
12893.13135131384
 40
0.6029999999995198
 41
0.6029999999995198
  0
LWPOLYLINE
  5
15ECF
330
2E3A
100
AcDbEntity
  8
Symboler
  6
Continuous
 62
    42
100
AcDbPolyline
 90
       11
 70
     1
 39
1.0
 10
-248.8389762386224
 20
12986.20033702047
 40
0.6029999999989743
 41
0.6029999999989743
 10
-248.8389762386224
 20
13300.37849076629
 40
0.6029999999989743
 41
0.6029999999989743
 10
-442.4922214521475
 20
13300.37849076629
 40
0.6029999999989743
 41
0.6029999999989743
 42
-0.8846768105770848
 10
-9.960731025130023
 20
13300.37849076629
 40
0.6029999999989743
 41
0.6029999999989743
 10
-203.6139762387
 20
13300.37849076629
 40
0.6029999999989743
 41
0.6029999999989743
 10
-203.6139762387
 20
12986.20033702047
 40
0.6029999999989743
 41
0.6029999999989743
 10
96.54583787512251
 20
13148.20223335291
 40
0.0
 41
0.0
 10
96.54583787512251
 20
12799.78965770932
 40
0.6029999999989743
 41
0.6029999999989743
 10
-226.226476238661
 20
12973.99594553114
 40
0.6029999999989743
 41
0.6029999999989743
 10
-548.998790352445
 20
12799.78965770932
 40
0.0
 41
0.0
 10
-548.998790352445
 20
13148.20223335291
 40
0.6029999999989743
 41
0.6029999999989743
  0
TEXT
  5
15ED0
330
2E3A
100
AcDbEntity
  8
TEKST
  6
Continuous
100
AcDbText
 10
-993.1760531108302
 20
13161.40670410744
 30
0.0
 40
200.0
  1
_Col 5-3
  7
ARIAL
100
AcDbText
  0
TEXT
  5
15ED1
330
2E3A
100
AcDbEntity
  8
TEKST
  6
Continuous
100
AcDbText
 10
8940.289708041907
 20
12834.06578350062
 30
0.0
 40
200.0
  1
_Col 3-3
  7
ARIAL
100
AcDbText
  0
TEXT
  5
15ED2
330
2E3A
100
AcDbEntity
  8
TEKST
  6
Continuous
100
AcDbText
 10
7396.197519066673
 20
13495.79781806675
 30
0.0
 40
200.0
  1
_Col 5-0
  7
ARIAL
100
AcDbText
  0
TEXT
  5
15ED3
330
2E3A
100
AcDbEntity
  8
TEKST
  6
Continuous
100
AcDbText
 10
2855.146721812415
 20
13320.6893881933
 30
0.0
 40
400.0
  1
_tn5
  7
ARIAL
100
AcDbText
  0
TEXT
  5
15ED4
330
2E3A
100
AcDbEntity
  8
TEKST
  6
Continuous
100
AcDbText
 10
3892.588023389498
 20
12802.22677442375
 30
0.0
 40
400.0
  1
_tv5
  7
ARIAL
100
AcDbText
  0
TEXT
  5
15ED6
330
2E3A
100
AcDbEntity
  8
TEKST
  6
Continuous
100
AcDbText
 10
-4.571552389012136
 20
13003.91688728014
 30
0.0
 40
200.0
  1
_Col 5-1
  7
ARIAL
100
AcDbText
  0
TEXT
  5
15EDB
330
2E3A
100
AcDbEntity
  8
TEKST
  6
Continuous
100
AcDbText
 10
9985.50715914628
 20
13013.27195335925
 30
0.0
 40
200.0
  1
_Col 3-1
  7
ARIAL
100
AcDbText
  0
TEXT
  5
15EDE
330
2E3A
100
AcDbEntity
  8
TEKST
  6
Continuous
100
AcDbText
 10
3334.123809285911
 20
13910.63135541889
 30
0.0
 40
400.0
  1
_tl5
  7
ARIAL
100
AcDbText
  0
LWPOLYLINE
  5
15EE3
330
2E3A
100
AcDbEntity
  8
Symboler
  6
Continuous
 62
    42
100
AcDbPolyline
 90
        6
 70
     1
 43
0.0
 39
1.0
 10
12068.85578669122
 20
14066.68306775632
 10
12299.97523985485
 20
14066.68306775632
 10
12184.41551327303
 20
14280.79405556014
 10
12068.85578669122
 20
14494.90504336405
 10
12299.97523985485
 20
14494.90504336405
 10
12184.41551327303
 20
14280.79405556014
  0
LWPOLYLINE
  5
15EE5
330
2E3A
100
AcDbEntity
  8
Symboler
  6
Continuous
 62
    42
100
AcDbPolyline
 90
        6
 70
     1
 43
0.0
 39
1.0
 10
12924.24115446543
 20
14066.68306775632
 10
13155.36060762908
 20
14066.68306775632
 10
13039.80088104727
 20
14280.79405556014
 10
12924.24115446543
 20
14494.90504336405
 10
13155.36060762908
 20
14494.90504336405
 10
13039.80088104727
 20
14280.79405556014
  0
LWPOLYLINE
  5
15EE7
330
2E3A
100
AcDbEntity
  8
Symboler
  6
Continuous
 62
    42
100
AcDbPolyline
 90
        6
 70
     1
 43
0.0
 39
1.0
 10
12484.45276610959
 20
14066.68306775632
 10
12715.57221927322
 20
14066.68306775632
 10
12600.01249269141
 20
14280.79405556014
 10
12484.45276610959
 20
14494.90504336405
 10
12715.57221927322
 20
14494.90504336405
 10
12600.01249269141
 20
14280.79405556014
  0
LWPOLYLINE
  5
15EEB
330
2E3A
100
AcDbEntity
  8
Omriss tanker
  6
Continuous
 62
    20
100
AcDbPolyline
 90
       30
 70
     1
 43
0.2
 39
1.0
 10
30744.64774680642
 20
14930.49075987781
 10
19544.64774680642
 20
14930.49075987781
 10
19544.64774680644
 20
10304.12200987776
 10
19934.49121282079
 20
10304.12200987776
 10
20212.65087180638
 20
10870.52825987778
 10
20728.64774680641
 20
10870.52200987774
 10
21003.66339918573
 20
10310.52200987776
 10
21529.63209442706
 20
10310.52200987776
 10
21804.64774680639
 20
10870.52200987774
 10
22320.64774680639
 20
10870.52200987774
 10
22595.66339918576
 20
10310.52200987776
 10
23121.63524754264
 20
10310.52200987776
 10
23396.64738031995
 20
10870.52200987774
 10
23912.64774680639
 20
10870.52200987774
 10
24187.66339918574
 20
10310.52200987776
 10
24713.6328617698
 20
10310.52200987776
 10
24988.64774680639
 20
10870.52044737777
 10
25504.64774680639
 20
10870.52200987774
 10
25779.66262566603
 20
10310.52200987776
 10
26305.63286794675
 20
10310.52200987776
 10
26580.6477468064
 20
10870.52200987774
 10
27096.64774680641
 20
10870.52200987774
 10
27371.66339918577
 20
10310.52200987776
 10
27897.63208824793
 20
10310.52200987776
 10
28172.64774680638
 20
10870.52044737777
 10
28688.64774680638
 20
10870.52200987774
 10
28963.66339918578
 20
10310.52200987776
 10
29489.63204409825
 20
10310.52200987776
 10
29764.65399680638
 20
10870.52200987774
 10
30744.64774680642
 20
10870.52200987774
  0
LWPOLYLINE
  5
15EEC
330
2E3A
100
AcDbEntity
  8
Omriss tanker
  6
Continuous
 62
    20
100
AcDbPolyline
 90
       30
 70
     1
 43
0.2
 39
1.0
 10
30744.64774680642
 20
10870.52200987774
 10
29764.65399680638
 20
10870.52200987774
 10
29489.63204409825
 20
10310.52200987776
 10
28963.66339918578
 20
10310.52200987776
 10
28688.64774680638
 20
10870.52200987774
 10
28172.64736949695
 20
10870.52044737662
 10
27897.63208824793
 20
10310.52200987776
 10
27371.66339918577
 20
10310.52200987776
 10
27096.64774680641
 20
10870.52200987774
 10
26580.6477468064
 20
10870.52200987774
 10
26305.63286794675
 20
10310.52200987776
 10
25779.66262566603
 20
10310.52200987776
 10
25504.64774680639
 20
10870.52200987774
 10
24988.64774680639
 20
10870.52044737777
 10
24713.6328617698
 20
10310.52200987776
 10
24187.66339918574
 20
10310.52200987776
 10
23912.64774680639
 20
10870.52200987774
 10
23396.64738031995
 20
10870.52200987774
 10
23121.63524754264
 20
10310.52200987776
 10
22595.66339918576
 20
10310.52200987776
 10
22320.64774680639
 20
10870.52200987774
 10
21804.64774680639
 20
10870.52200987774
 10
21529.63209442706
 20
10310.52200987776
 10
21003.66339918573
 20
10310.52200987776
 10
20728.64774680641
 20
10870.52200987774
 10
20212.65087180638
 20
10870.52825987778
 10
19934.49121282079
 20
10304.12200987776
 10
19544.64774680644
 20
10304.12200987776
 10
19544.6477468065
 20
6258.553259877801
 10
30744.64774680642
 20
6258.553259877801
  0
LWPOLYLINE
  5
15EF2
330
2E3A
100
AcDbEntity
  8
Omriss tanker
  6
Continuous
 62
    20
100
AcDbPolyline
 90
        8
 70
     1
 43
0.2
 39
1.0
 10
38584.64774680639
 20
13099.29464554778
 10
34618.20330034926
 20
14679.88241819045
 10
32626.27822916548
 20
14930.49075987781
 10
30744.64774680642
 20
14930.49075987781
 10
30744.64774680642
 20
6258.553259877801
 10
32626.27822916562
 20
6258.553259877801
 10
34622.24917543701
 20
6509.670621739163
 10
38584.64930931138
 20
8041.082780231032
  0
LWPOLYLINE
  5
15EF5
330
2E3A
100
AcDbEntity
  8
Symboler
  6
Continuous
 62
    42
100
AcDbPolyline
 90
       11
 70
     1
 39
1.0
 10
18581.45129677549
 20
7901.702383901998
 40
0.6029999999995198
 41
0.6029999999995198
 10
18267.27314302938
 20
7901.702383901998
 40
0.6029999999995198
 41
0.6029999999995198
 10
18267.27314302938
 20
7708.049138688298
 40
0.6029999999995198
 41
0.6029999999995198
 42
-0.8846768105770848
 10
18267.27314302938
 20
8140.580629115708
 40
0.6029999999995198
 41
0.6029999999995198
 10
18267.27314302938
 20
7946.927383901962
 40
0.6029999999995198
 41
0.6029999999995198
 10
18581.45129677549
 20
7946.927383901962
 40
0.6029999999995198
 41
0.6029999999995198
 10
18419.44940044284
 20
8247.087198016059
 40
0.0
 41
0.0
 10
18767.86197608678
 20
8247.087198016059
 40
0.6029999999995198
 41
0.6029999999995198
 10
18593.65568826485
 20
7924.314883901981
 40
0.6029999999995198
 41
0.6029999999995198
 10
18767.86197608678
 20
7601.542569787904
 40
0.0
 41
0.0
 10
18419.44940044284
 20
7601.542569787904
 40
0.6029999999995198
 41
0.6029999999995198
  0
TEXT
  5
15EF6
330
2E3A
100
AcDbEntity
  8
TEKST
  6
Continuous
100
AcDbText
 10
25469.5693839241
 20
7386.834842697973
 30
0.0
 40
400.0
  1
_tv2
  7
ARIAL
100
AcDbText
  0
TEXT
  5
15EF7
330
2E3A
100
AcDbEntity
  8
TEKST
  6
Continuous
100
AcDbText
 10
24432.12808234701
 20
7905.297456467504
 30
0.0
 40
400.0
  1
_tn2
  7
ARIAL
100
AcDbText
  0
TEXT
  5
15EFA
330
2E3A
100
AcDbEntity
  8
TEKST
  6
Continuous
100
AcDbText
 10
15741.73072878163
 20
7905.297456467504
 30
0.0
 40
400.0
  1
_tn4
  7
ARIAL
100
AcDbText
  0
TEXT
  5
15EFB
330
2E3A
100
AcDbEntity
  8
TEKST
  6
Continuous
100
AcDbText
 10
16779.17203035871
 20
7386.834842697973
 30
0.0
 40
400.0
  1
_tv4
  7
ARIAL
100
AcDbText
  0
LWPOLYLINE
  5
15EFC
330
2E3A
100
AcDbEntity
  8
Symboler
  6
Continuous
 62
    42
100
AcDbPolyline
 90
        6
 70
     1
 43
0.0
 39
1.0
 10
14174.62313201489
 20
6820.552716311357
 10
14405.7425851785
 20
6820.552716311357
 10
14290.18285859668
 20
7034.663704115228
 10
14174.62313201489
 20
7248.774691919098
 10
14405.7425851785
 20
7248.774691919098
 10
14290.18285859668
 20
7034.663704115228
  0
LWPOLYLINE
  5
15EFD
330
2E3A
100
AcDbEntity
  8
Symboler
  6
Continuous
 62
    42
100
AcDbPolyline
 90
        6
 70
     1
 43
0.0
 39
1.0
 10
13759.02615259653
 20
6820.552716311357
 10
13990.14560576016
 20
6820.552716311357
 10
13874.58587917835
 20
7034.663704115228
 10
13759.02615259653
 20
7248.774691919098
 10
13990.14560576016
 20
7248.774691919098
 10
13874.58587917835
 20
7034.663704115228
  0
LWPOLYLINE
  5
15EFE
330
2E3A
100
AcDbEntity
  8
Symboler
  6
Continuous
 62
    42
100
AcDbPolyline
 90
        6
 70
     1
 43
0.0
 39
1.0
 10
13343.42917317816
 20
6820.552716311357
 10
13574.54862634179
 20
6820.552716311357
 10
13458.98889975997
 20
7034.663704115228
 10
13343.42917317816
 20
7248.774691919098
 10
13574.54862634179
 20
7248.774691919098
 10
13458.98889975997
 20
7034.663704115228
  0
TEXT
  5
15F02
330
2E3A
100
AcDbEntity
  8
TEKST
  6
Continuous
100
AcDbText
 10
20836.12443477671
 20
8302.004056593323
 30
0.0
 40
200.0
  1
_Col 2-1
  7
ARIAL
100
AcDbText
  0
TEXT
  5
15F04
330
2E3A
100
AcDbEntity
  8
TEKST
  6
Continuous
100
AcDbText
 10
16005.72328592869
 20
8730.728096481449
 30
0.0
 40
400.0
  1
_tl4
  7
ARIAL
100
AcDbText
  0
LWPOLYLINE
  5
15F05
330
2E3A
100
AcDbEntity
  8
Symboler
  6
Continuous
 62
    42
100
AcDbPolyline
 90
       11
 70
     1
 39
1.0
 10
21028.74644988603
 20
8261.927444262974
 40
0.6029999999989743
 41
0.6029999999989743
 10
21028.74644988603
 20
8576.10559800881
 40
0.6029999999989743
 41
0.6029999999989743
 10
20835.09320467251
 20
8576.10559800881
 40
0.6029999999989743
 41
0.6029999999989743
 42
-0.8846768105770848
 10
21267.62469509955
 20
8576.10559800881
 40
0.6029999999989743
 41
0.6029999999989743
 10
21073.97144988598
 20
8576.10559800881
 40
0.6029999999989743
 41
0.6029999999989743
 10
21073.97144988598
 20
8261.927444262974
 40
0.6029999999989743
 41
0.6029999999989743
 10
21374.13126399978
 20
8423.929340595433
 40
0.0
 41
0.0
 10
21374.13126399978
 20
8075.516764951848
 40
0.6029999999989743
 41
0.6029999999989743
 10
21051.358949886
 20
8249.72305277364
 40
0.6029999999989743
 41
0.6029999999989743
 10
20728.58663577224
 20
8075.516764951848
 40
0.0
 41
0.0
 10
20728.58663577224
 20
8423.929340595433
 40
0.6029999999989743
 41
0.6029999999989743
  0
TEXT
  5
15F06
330
2E3A
100
AcDbEntity
  8
TEKST
  6
Continuous
100
AcDbText
 10
20112.51324877535
 20
8411.32299979675
 30
0.0
 40
200.0
  1
_Col 2-3
  7
ARIAL
100
AcDbText
  0
TEXT
  5
15F07
330
2E3A
100
AcDbEntity
  8
TEKST
  6
Continuous
100
AcDbText
 10
18614.10935138776
 20
8177.109033301944
 30
0.0
 40
200.0
  1
_Col 4-0
  7
ARIAL
100
AcDbText
  0
TEXT
  5
15F09
330
2E3A
100
AcDbEntity
  8
TEKST
  6
Continuous
100
AcDbText
 10
24384.25748595963
 20
8699.714844981436
 30
0.0
 40
400.0
  1
_tl2
  7
ARIAL
100
AcDbText
  0
LWPOLYLINE
  5
15F0C
330
2E3A
100
AcDbEntity
  8
Symboler
  6
Continuous
 62
    42
100
AcDbPolyline
 90
       11
 70
     1
 39
1.0
 10
29781.45129677558
 20
7901.702383902116
 40
0.6029999999995198
 41
0.6029999999995198
 10
29467.27314302946
 20
7901.702383902116
 40
0.6029999999995198
 41
0.6029999999995198
 10
29467.27314302946
 20
7708.049138688422
 40
0.6029999999995198
 41
0.6029999999995198
 42
-0.8846768105770848
 10
29467.27314302946
 20
8140.580629115826
 40
0.6029999999995198
 41
0.6029999999995198
 10
29467.27314302946
 20
7946.927383902083
 40
0.6029999999995198
 41
0.6029999999995198
 10
29781.45129677558
 20
7946.927383902083
 40
0.6029999999995198
 41
0.6029999999995198
 10
29619.449400443
 20
8247.087198016179
 40
0.0
 41
0.0
 10
29967.8619760869
 20
8247.087198016179
 40
0.6029999999995198
 41
0.6029999999995198
 10
29793.65568826493
 20
7924.3148839021
 40
0.6029999999995198
 41
0.6029999999995198
 10
29967.8619760869
 20
7601.542569788025
 40
0.0
 41
0.0
 10
29619.449400443
 20
7601.542569788025
 40
0.6029999999995198
 41
0.6029999999995198
  0
TEXT
  5
15F12
330
2E3A
100
AcDbEntity
  8
TEKST
  6
Continuous
100
AcDbText
 10
32470.9179234118
 20
8297.657827575825
 30
0.0
 40
200.0
  1
_Col 0-1
  7
ARIAL
100
AcDbText
  0
LWPOLYLINE
  5
15F13
330
2E3A
100
AcDbEntity
  8
Symboler
  6
Continuous
 62
    42
100
AcDbPolyline
 90
       11
 70
     1
 39
1.0
 10
32253.74874179279
 20
8261.927444262976
 40
0.6029999999989743
 41
0.6029999999989743
 10
32253.74874179279
 20
8576.105598008814
 40
0.6029999999989743
 41
0.6029999999989743
 10
32060.09549657926
 20
8576.105598008814
 40
0.6029999999989743
 41
0.6029999999989743
 42
-0.8846768105770848
 10
32492.62698700627
 20
8576.105598008814
 40
0.6029999999989743
 41
0.6029999999989743
 10
32298.97374179271
 20
8576.105598008814
 40
0.6029999999989743
 41
0.6029999999989743
 10
32298.97374179271
 20
8261.927444262976
 40
0.6029999999989743
 41
0.6029999999989743
 10
32599.13355590653
 20
8423.92934059544
 40
0.0
 41
0.0
 10
32599.13355590653
 20
8075.516764951849
 40
0.6029999999989743
 41
0.6029999999989743
 10
32276.36124179273
 20
8249.723052773644
 40
0.6029999999989743
 41
0.6029999999989743
 10
31953.58892767896
 20
8075.516764951849
 40
0.0
 41
0.0
 10
31953.58892767896
 20
8423.92934059544
 40
0.6029999999989743
 41
0.6029999999989743
  0
TEXT
  5
15F14
330
2E3A
100
AcDbEntity
  8
TEKST
  6
Continuous
100
AcDbText
 10
31350.11249959658
 20
8449.957705518555
 30
0.0
 40
200.0
  1
_Col 0-3
  7
ARIAL
100
AcDbText
  0
TEXT
  5
15F16
330
2E3A
100
AcDbEntity
  8
TEKST
  6
Continuous
100
AcDbText
 10
29814.19454689636
 20
8210.485763033041
 30
0.0
 40
200.0
  1
_Col 2-0
  7
ARIAL
100
AcDbText
  0
LWPOLYLINE
  5
15F1A
330
2E3A
100
AcDbEntity
  8
Symboler
  6
Continuous
 62
    42
100
AcDbPolyline
 90
       11
 70
     1
 39
1.0
 10
21028.74644988603
 20
12983.39528841413
 40
0.6029999999989743
 41
0.6029999999989743
 10
21028.74644988603
 20
13297.57344215998
 40
0.6029999999989743
 41
0.6029999999989743
 10
20835.09320467251
 20
13297.57344215998
 40
0.6029999999989743
 41
0.6029999999989743
 42
-0.8846768105770848
 10
21267.62469509955
 20
13297.57344215998
 40
0.6029999999989743
 41
0.6029999999989743
 10
21073.97144988598
 20
13297.57344215998
 40
0.6029999999989743
 41
0.6029999999989743
 10
21073.97144988598
 20
12983.39528841413
 40
0.6029999999989743
 41
0.6029999999989743
 10
21374.13126399978
 20
13145.39718474658
 40
0.0
 41
0.0
 10
21374.13126399978
 20
12796.98460910301
 40
0.6029999999989743
 41
0.6029999999989743
 10
21051.358949886
 20
12971.19089692479
 40
0.6029999999989743
 41
0.6029999999989743
 10
20728.58663577224
 20
12796.98460910301
 40
0.0
 41
0.0
 10
20728.58663577224
 20
13145.39718474658
 40
0.6029999999989743
 41
0.6029999999989743
  0
LWPOLYLINE
  5
15F1B
330
2E3A
100
AcDbEntity
  8
Symboler
  6
Continuous
 62
    42
100
AcDbPolyline
 90
       11
 70
     1
 39
1.0
 10
18581.45129677549
 20
13190.48611682149
 40
0.6029999999995198
 41
0.6029999999995198
 10
18267.27314302938
 20
13190.48611682149
 40
0.6029999999995198
 41
0.6029999999995198
 10
18267.27314302938
 20
12996.83287160778
 40
0.6029999999995198
 41
0.6029999999995198
 42
-0.8846768105770848
 10
18267.27314302938
 20
13429.36436203521
 40
0.6029999999995198
 41
0.6029999999995198
 10
18267.27314302938
 20
13235.71111682146
 40
0.6029999999995198
 41
0.6029999999995198
 10
18581.45129677549
 20
13235.71111682146
 40
0.6029999999995198
 41
0.6029999999995198
 10
18419.44940044284
 20
13535.87093093556
 40
0.0
 41
0.0
 10
18767.86197608678
 20
13535.87093093556
 40
0.6029999999995198
 41
0.6029999999995198
 10
18593.65568826485
 20
13213.09861682146
 40
0.6029999999995198
 41
0.6029999999995198
 10
18767.86197608678
 20
12890.3263027074
 40
0.0
 41
0.0
 10
18419.44940044284
 20
12890.3263027074
 40
0.6029999999995198
 41
0.6029999999995198
  0
TEXT
  5
15F1C
330
2E3A
100
AcDbEntity
  8
TEKST
  6
Continuous
100
AcDbText
 10
20129.41284299467
 20
13144.76874227077
 30
0.0
 40
200.0
  1
_Col 1-3
  7
ARIAL
100
AcDbText
  0
TEXT
  5
15F1D
330
2E3A
100
AcDbEntity
  8
TEKST
  6
Continuous
100
AcDbText
 10
25469.5693839241
 20
12802.22677442375
 30
0.0
 40
400.0
  1
_tv1
  7
ARIAL
100
AcDbText
  0
TEXT
  5
15F1E
330
2E3A
100
AcDbEntity
  8
TEKST
  6
Continuous
100
AcDbText
 10
24432.12808234701
 20
13320.6893881933
 30
0.0
 40
400.0
  1
_tn1
  7
ARIAL
100
AcDbText
  0
TEXT
  5
15F1F
330
2E3A
100
AcDbEntity
  8
TEKST
  6
Continuous
100
AcDbText
 10
15610.59980281501
 20
13320.6893881933
 30
0.0
 40
400.0
  1
_tn3
  7
ARIAL
100
AcDbText
  0
TEXT
  5
15F20
330
2E3A
100
AcDbEntity
  8
TEKST
  6
Continuous
100
AcDbText
 10
16648.04110439206
 20
12802.22677442375
 30
0.0
 40
400.0
  1
_tv3
  7
ARIAL
100
AcDbText
  0
TEXT
  5
15F21
330
2E3A
100
AcDbEntity
  8
TEKST
  6
Continuous
100
AcDbText
 10
18606.27793219051
 20
13484.22452836804
 30
0.0
 40
200.0
  1
_Col 3-0
  7
ARIAL
100
AcDbText
  0
TEXT
  5
15F22
330
2E3A
100
AcDbEntity
  8
TEKST
  6
Continuous
100
AcDbText
 10
20820.86682458359
 20
13026.25744170682
 30
0.0
 40
200.0
  1
_Col 1-1
  7
ARIAL
100
AcDbText
  0
TEXT
  5
15F26
330
2E3A
100
AcDbEntity
  8
TEKST
  6
Continuous
100
AcDbText
 10
15819.53363961785
 20
14065.00742419376
 30
0.0
 40
400.0
  1
_tl3
  7
ARIAL
100
AcDbText
  0
LWPOLYLINE
  5
15F27
330
2E3A
100
AcDbEntity
  8
Symboler
  6
Continuous
 62
    42
100
AcDbPolyline
 90
        6
 70
     1
 43
0.0
 39
1.0
 10
14174.62313201489
 20
14066.68306775632
 10
14405.7425851785
 20
14066.68306775632
 10
14290.18285859668
 20
14280.79405556014
 10
14174.62313201489
 20
14494.90504336405
 10
14405.7425851785
 20
14494.90504336405
 10
14290.18285859668
 20
14280.79405556014
  0
LWPOLYLINE
  5
15F28
330
2E3A
100
AcDbEntity
  8
Symboler
  6
Continuous
 62
    42
100
AcDbPolyline
 90
        6
 70
     1
 43
0.0
 39
1.0
 10
13759.02615259653
 20
14066.68306775632
 10
13990.14560576016
 20
14066.68306775632
 10
13874.58587917835
 20
14280.79405556014
 10
13759.02615259653
 20
14494.90504336405
 10
13990.14560576016
 20
14494.90504336405
 10
13874.58587917835
 20
14280.79405556014
  0
LWPOLYLINE
  5
15F29
330
2E3A
100
AcDbEntity
  8
Symboler
  6
Continuous
 62
    42
100
AcDbPolyline
 90
        6
 70
     1
 43
0.0
 39
1.0
 10
13343.42917317816
 20
14066.68306775632
 10
13574.54862634179
 20
14066.68306775632
 10
13458.98889975997
 20
14280.79405556014
 10
13343.42917317816
 20
14494.90504336405
 10
13574.54862634179
 20
14494.90504336405
 10
13458.98889975997
 20
14280.79405556014
  0
TEXT
  5
15F2E
330
2E3A
100
AcDbEntity
  8
TEKST
  6
Continuous
100
AcDbText
 10
24384.25748595963
 20
14096.02067569377
 30
0.0
 40
400.0
  1
_tl1
  7
ARIAL
100
AcDbText
  0
LWPOLYLINE
  5
15F2F
330
2E3A
100
AcDbEntity
  8
Symboler
  6
Continuous
 62
    42
100
AcDbPolyline
 90
       11
 70
     1
 39
1.0
 10
29781.45129677558
 20
13190.4861168216
 40
0.6029999999995198
 41
0.6029999999995198
 10
29467.27314302945
 20
13190.4861168216
 40
0.6029999999995198
 41
0.6029999999995198
 10
29467.27314302945
 20
12996.83287160791
 40
0.6029999999995198
 41
0.6029999999995198
 42
-0.8846768105770848
 10
29467.27314302945
 20
13429.36436203532
 40
0.6029999999995198
 41
0.6029999999995198
 10
29467.27314302945
 20
13235.71111682156
 40
0.6029999999995198
 41
0.6029999999995198
 10
29781.45129677558
 20
13235.71111682156
 40
0.6029999999995198
 41
0.6029999999995198
 10
29619.44940044298
 20
13535.87093093567
 40
0.0
 41
0.0
 10
29967.8619760869
 20
13535.87093093567
 40
0.6029999999995198
 41
0.6029999999995198
 10
29793.65568826491
 20
13213.09861682159
 40
0.6029999999995198
 41
0.6029999999995198
 10
29967.8619760869
 20
12890.32630270751
 40
0.0
 41
0.0
 10
29619.44940044298
 20
12890.32630270751
 40
0.6029999999995198
 41
0.6029999999995198
  0
TEXT
  5
15F30
330
2E3A
100
AcDbEntity
  8
TEKST
  6
Continuous
100
AcDbText
 10
31862.87494611113
 20
13320.6893881933
 30
0.0
 40
400.0
  1
_tn0
  7
ARIAL
100
AcDbText
  0
TEXT
  5
15F31
330
2E3A
100
AcDbEntity
  8
TEKST
  6
Continuous
100
AcDbText
 10
32900.3162476882
 20
12802.22677442375
 30
0.0
 40
400.0
  1
_tv0
  7
ARIAL
100
AcDbText
  0
TEXT
  5
15F32
330
2E3A
100
AcDbEntity
  8
TEKST
  6
Continuous
100
AcDbText
 10
29777.03566769264
 20
13491.35884961552
 30
0.0
 40
200.0
  1
_Col 1-0
  7
ARIAL
100
AcDbText
  0
LWPOLYLINE
  5
15F33
330
2E3A
100
AcDbEntity
  8
Symboler
  6
Continuous
 62
    42
100
AcDbPolyline
 90
       11
 70
     1
 39
1.0
 10
37273.79714370787
 20
12244.0014767011
 40
0.6029999999995198
 41
0.6029999999995198
 10
36959.61898996177
 20
12244.0014767011
 40
0.6029999999995198
 41
0.6029999999995198
 10
36959.61898996177
 20
12050.34823148739
 40
0.6029999999995198
 41
0.6029999999995198
 42
-0.8846768105770848
 10
36959.61898996177
 20
12482.87972191483
 40
0.6029999999995198
 41
0.6029999999995198
 10
36959.61898996177
 20
12289.22647670106
 40
0.6029999999995198
 41
0.6029999999995198
 10
37273.79714370787
 20
12289.22647670106
 40
0.6029999999995198
 41
0.6029999999995198
 10
37111.79524737532
 20
12589.38629081514
 40
0.0
 41
0.0
 10
37460.20782301917
 20
12589.38629081514
 40
0.6029999999995198
 41
0.6029999999995198
 10
37286.00153519725
 20
12266.6139767011
 40
0.6029999999995198
 41
0.6029999999995198
 10
37460.20782301917
 20
11943.84166258702
 40
0.0
 41
0.0
 10
37111.79524737532
 20
11943.84166258702
 40
0.6029999999995198
 41
0.6029999999995198
  0
TEXT
  5
15F38
330
2E3A
100
AcDbEntity
  8
TEKST
  6
Continuous
100
AcDbText
 10
37282.07700100566
 20
12062.78616016166
 30
0.0
 40
200.0
  1
_Col 0-0
  7
ARIAL
100
AcDbText
  0
TEXT
  5
15F39
330
2E3A
100
AcDbEntity
  8
TEKST
  6
Continuous
100
AcDbText
 10
31769.78012295571
 20
13971.9676696937
 30
0.0
 40
400.0
  1
_tl0
  7
ARIAL
100
AcDbText
  0
LWPOLYLINE
  5
15F4C
330
2E3A
100
AcDbEntity
  8
Suction PS
  6
Continuous
100
AcDbPolyline
 90
        6
 70
     0
 43
0.3
 39
3.0
 10
18593.65568826485
 20
12668.77830570641
 10
18593.65568826485
 20
12668.77830570641
 10
18593.65568826485
 20
8247.087198016059
 10
18593.65568826485
 20
12890.3263027074
 10
18593.65568826485
 20
12668.77830570641
 10
14419.75654366525
 20
12668.77830570641
  0
LWPOLYLINE
  5
15F4F
330
2E3A
100
AcDbEntity
  8
Suction PS
  6
Continuous
100
AcDbPolyline
 90
       16
 70
     1
 43
0.3
 39
3.0
 10
274.0292533490864
 20
9698.844493120908
 10
-2822.217649732264
 20
9696.403102818617
 10
-2822.217649732264
 20
12893.13135131385
 10
-2822.217649732264
 20
9696.403102818617
 10
-5282.169911195728
 20
9696.403102818617
 10
-5282.16991119573
 20
12973.99594553114
 10
-5465.832712942308
 20
12973.99594553114
 10
-5282.16991119573
 20
12973.99594553114
 10
-5282.169911195735
 20
8252.528101379969
 10
-5465.832712942308
 20
8252.528101379969
 10
-5282.169911195735
 20
8252.528101379969
 10
-5282.169911195728
 20
9696.403102818617
 10
-2822.217649732264
 20
9696.403102818614
 10
-2822.217649732264
 20
8249.892246622506
 10
-2822.217649732262
 20
9696.403102818614
 10
274.0292533490864
 20
9698.844493120908
  0
LWPOLYLINE
  5
15F58
330
2E3A
100
AcDbEntity
  8
Suction PS
  6
Continuous
100
AcDbPolyline
 90
        2
 70
     1
 43
0.45
 39
3.0
 10
29793.65568826493
 20
7601.542569788025
 10
29793.65568826493
 20
6864.07578669376
  0
LWPOLYLINE
  5
15F59
330
2E3A
100
AcDbEntity
  8
Suction PS
  6
Continuous
100
AcDbPolyline
 90
        2
 70
     1
 43
0.3
 39
3.0
 10
31403.35569297991
 20
7544.953116347507
 10
31403.35569297991
 20
6864.07578669376
  0
LWPOLYLINE
  5
15F5A
330
2E3A
100
AcDbEntity
  8
Suction PS
  6
Continuous
100
AcDbPolyline
 90
        2
 70
     1
 43
0.3
 39
3.0
 10
20178.35340107319
 20
7544.953116347506
 10
20178.35340107319
 20
7135.846782876875
  0
LWPOLYLINE
  5
15F5B
330
2E3A
100
AcDbEntity
  8
Suction PS
  6
Continuous
100
AcDbPolyline
 90
        2
 70
     1
 43
0.3
 39
3.0
 10
18593.65568826485
 20
7601.542569787904
 10
18593.65568826485
 20
7135.846782876875
  0
LWPOLYLINE
  5
15F5C
330
2E3A
100
AcDbEntity
  8
Suction PS
  6
Continuous
100
AcDbPolyline
 90
        2
 70
     1
 43
0.3
 39
3.0
 10
8978.353401073139
 20
7544.953116347379
 10
8978.353401073139
 20
6966.484921987753
  0
LWPOLYLINE
  5
15F5D
330
2E3A
100
AcDbEntity
  8
Suction PS
  6
Continuous
100
AcDbPolyline
 90
        2
 70
     1
 43
0.3
 39
3.0
 10
7391.814967338679
 20
7604.347618394354
 10
7391.814967338679
 20
6923.470288740607
  0
LWPOLYLINE
  5
15F5E
330
2E3A
100
AcDbEntity
  8
Suction PS
  6
Continuous
100
AcDbPolyline
 90
        2
 70
     1
 43
0.3
 39
3.0
 10
-1099.232025051483
 20
7547.758164953832
 10
-1099.232025051483
 20
7138.651831483324
  0
LWPOLYLINE
  5
15F5F
330
2E3A
100
AcDbEntity
  8
Suction PS
  6
Continuous
100
AcDbPolyline
 90
        2
 70
     1
 43
0.3
 39
3.0
 10
-2822.217649732264
 20
7604.347618394354
 10
-2822.217649732264
 20
7138.651831483324
  0
LWPOLYLINE
  5
15F60
330
2E3A
100
AcDbEntity
  8
Suction PS
  6
Continuous
100
AcDbPolyline
 90
        2
 70
     1
 43
0.3
 39
3.0
 10
-6661.610575868921
 20
7547.758164953832
 10
-6661.610575868921
 20
7138.651831483315
  0
LWPOLYLINE
  5
15F61
330
2E3A
100
AcDbEntity
  8
Suction PS
  6
Continuous
100
AcDbPolyline
 90
        2
 70
     1
 43
0.3
 39
3.0
 10
-10623.73870417194
 20
9225.268316270463
 10
-10623.73870417194
 20
8884.82965144359
  0
LWPOLYLINE
  5
15F62
330
2E3A
100
AcDbEntity
  8
Suction PS
  6
Continuous
100
AcDbPolyline
 90
        2
 70
     1
 43
0.3
 39
3.0
 10
-6661.610575868921
 20
14019.20454678414
 10
-6661.610575868921
 20
13678.76588195725
  0
LWPOLYLINE
  5
15F63
330
2E3A
100
AcDbEntity
  8
Suction PS
  6
Continuous
100
AcDbPolyline
 90
        2
 70
     1
 43
0.3
 39
3.0
 10
-2822.217649732264
 20
14004.37176645303
 10
-2822.217649732264
 20
13538.67597954196
  0
LWPOLYLINE
  5
15F64
330
2E3A
100
AcDbEntity
  8
Suction PS
  6
Continuous
100
AcDbPolyline
 90
        2
 70
     1
 43
0.3
 39
3.0
 10
-1099.232025051483
 20
14004.37176645303
 10
-1099.232025051483
 20
13678.76588195725
  0
LWPOLYLINE
  5
15F65
330
2E3A
100
AcDbEntity
  8
Suction PS
  6
Continuous
100
AcDbPolyline
 90
        2
 70
     1
 43
0.3
 39
3.0
 10
7391.814967338679
 20
14004.37176645303
 10
7391.814967338682
 20
13538.67597954196
  0
LWPOLYLINE
  5
15F67
330
2E3A
100
AcDbEntity
  8
Suction PS
  6
Continuous
100
AcDbPolyline
 90
        2
 70
     1
 43
0.3
 39
3.0
 10
18593.65568826485
 20
14001.56671784658
 10
18593.65568826484
 20
13535.87093093556
  0
LWPOLYLINE
  5
15F68
330
2E3A
100
AcDbEntity
  8
Suction PS
  6
Continuous
100
AcDbPolyline
 90
        2
 70
     1
 43
0.45
 39
3.0
 10
20178.35340107319
 20
14001.56671784657
 10
20178.35340107319
 20
13675.96083335093
  0
LWPOLYLINE
  5
15F69
330
2E3A
100
AcDbEntity
  8
Suction PS
  6
Continuous
100
AcDbPolyline
 90
        2
 70
     1
 43
0.3
 39
3.0
 10
29793.65568826493
 20
14216.74826058938
 10
29793.65568826493
 20
13535.87093093567
  0
LWPOLYLINE
  5
15F6A
330
2E3A
100
AcDbEntity
  8
Suction PS
  6
Continuous
100
AcDbPolyline
 90
        2
 70
     1
 43
0.3
 39
3.0
 10
37286.00153519724
 20
13270.26362046889
 10
37286.00153519724
 20
12589.38629081514
  0
TEXT
  5
15F75
330
2E3A
100
AcDbEntity
  8
TEKST
  6
Continuous
100
AcDbText
 10
-1420.938721360696
 20
20873.05249912623
 30
0.0
 40
400.0
  1
_Col 29-0
  7
ARIAL
100
AcDbText
  0
TEXT
  5
15F78
330
2E3A
100
AcDbEntity
  8
TEKST
  6
Continuous
100
AcDbText
 10
-7141.621855645557
 20
21405.06684568042
 30
0.0
 40
800.0
  1
_tl29
  7
ARIAL
100
AcDbText
  0
MTEXT
  5
15F79
330
2E3A
100
AcDbEntity
  8
Omriss tanker
  6
Continuous
100
AcDbMText
 10
-3766.826282295514
 20
19203.34160237559
 30
0.0
 40
400.0
 41
8468.540000000002
 71
     1
 72
     5
  1
Tank washing pump
  7
ARIAL
 73
     1
 44
1.0
  0
MTEXT
  5
15F7F
330
2E3A
100
AcDbEntity
  8
Omriss tanker
  6
Continuous
100
AcDbMText
 10
19390.0979741396
 20
19007.0541523116
 30
0.0
 40
400.0
 41
20000.0
 71
     1
 72
     5
  1
Set point for cargo heathing
  7
ARIAL
 73
     1
 44
1.0
  0
LWPOLYLINE
  5
15F8C
330
2E3A
100
AcDbEntity
  8
Symboler
  6
Continuous
100
AcDbPolyline
 90
        4
 70
     1
 43
0.0
 39
1.0
 10
21512.66258721939
 20
21962.16836232914
 42
-0.9999999999999998
 10
22112.6625872194
 20
21962.16836232914
 10
22112.6625872194
 20
20662.60221015045
 42
-3.813698218343607
 10
21512.66258721939
 20
20662.60221015045
  0
TEXT
  5
15F8D
330
2E3A
100
AcDbEntity
  8
TEKST
  6
Continuous
100
AcDbText
 10
22217.6312399417
 20
20336.7918705549
 30
0.0
 40
400.0
  1
_Col 29-2
  7
ARIAL
100
AcDbText
  0
TEXT
  5
15F8E
330
2E3A
100
AcDbEntity
  8
TEKST
  6
Continuous
100
AcDbText
 10
10139.02637512944
 20
20336.7918705549
 30
0.0
 40
400.0
  1
_Col 29-1
  7
ARIAL
100
AcDbText
  0
MTEXT
  5
15F96
330
2E3A
100
AcDbEntity
  8
Omriss tanker
  6
Continuous
100
AcDbMText
 10
7311.493109327362
 20
19162.49933795899
 30
0.0
 40
400.0
 41
20000.0
 71
     1
 72
     5
  1
Set point for tank washing
  7
ARIAL
 73
     1
 44
1.0
  0
LWPOLYLINE
  5
15FA5
330
2E3A
100
AcDbEntity
  8
Omriss tanker
  6
Continuous
100
AcDbPolyline
 90
        4
 70
     1
 43
0.0
 39
1.0
 10
-7835.636263219001
 20
22845.69536017233
 10
29498.75791384633
 20
22845.69536017233
 10
29498.75791384633
 20
17838.52970660617
 10
-7835.636263219001
 20
17838.52970660617
  0
LWPOLYLINE
  5
15FAA
330
2E3A
100
AcDbEntity
  8
Symboler
  6
Continuous
100
AcDbPolyline
 90
        4
 70
     1
 43
0.0
 39
1.0
 10
9431.159111569312
 20
21962.16836232914
 42
-0.9999999999999998
 10
10031.1591115693
 20
21962.16836232914
 10
10031.1591115693
 20
20662.60221015045
 42
-3.813698218343607
 10
9431.159111569312
 20
20662.60221015045
  0
TEXT
  5
15FBB
330
2E3A
100
AcDbEntity
  8
TEKST
  6
Continuous
100
AcDbText
 10
22610.86896403996
 20
21428.51730123596
 30
0.0
 40
400.0
  1
_Cov 29-2
  7
ARIAL
100
AcDbText
  0
TEXT
  5
15FBC
330
2E3A
100
AcDbEntity
  8
TEKST
  6
Continuous
100
AcDbText
 10
10376.80441343951
 20
21428.51730123596
 30
0.0
 40
400.0
  1
_Cov 29-1
  7
ARIAL
100
AcDbText
  0
TEXT
  5
15FBD
330
2E3A
100
AcDbEntity
  8
TEKST
  6
Continuous
100
AcDbText
 10
-459.0812697724174
 20
21428.51730123596
 30
0.0
 40
400.0
  1
_Cov 29-0
  7
ARIAL
100
AcDbText
  0
LWPOLYLINE
  5
15FCD
330
2E3A
100
AcDbEntity
  8
Symboler
  6
Continuous
100
AcDbPolyline
 90
       20
 70
     1
 43
0.45
 39
1.0
 10
31953.58892767896
 20
8196.812896523644
 10
31953.58892767896
 20
8302.633209023644
 10
31884.00596953829
 20
8302.633209023644
 10
31777.86874688858
 20
8391.316956332223
 10
31777.86874688858
 20
8302.633209023644
 10
31708.26951837085
 20
8302.633209023644
 42
1.926208417817558
 10
31350.44553672993
 20
7946.596054286954
 10
31350.44553672993
 20
7878.451648581661
 10
31261.76178942133
 20
7772.314425931941
 10
31350.44553672993
 20
7772.314425931941
 10
31350.44553672993
 20
7544.953116347507
 10
31456.2658492299
 20
7544.953116347507
 10
31456.2658492299
 20
7771.398153748243
 10
31544.02444149641
 20
7771.398153748243
 10
31456.2658492299
 20
7877.679141956773
 10
31456.2658492299
 20
7946.331181230053
 42
0.3158256435086028
 10
31708.26951837085
 20
8196.812896523637
 10
31776.9524747049
 20
8196.812896523637
 10
31776.9524747049
 20
8109.054304257194
 10
31883.23346291341
 20
8196.812896523644
  0
LWPOLYLINE
  5
15FD3
330
2E3A
100
AcDbEntity
  8
Symboler
  6
Continuous
100
AcDbPolyline
 90
       20
 70
     1
 43
0.45
 39
1.0
 10
20728.58663577224
 20
8196.812896523644
 10
20728.58663577224
 20
8302.633209023644
 10
20659.00367763155
 20
8302.633209023644
 10
20552.86645498187
 20
8391.316956332222
 10
20552.86645498187
 20
8302.633209023644
 10
20483.26722646413
 20
8302.633209023644
 42
1.926208417817558
 10
20125.44324482321
 20
7946.596054286954
 10
20125.44324482321
 20
7878.451648581658
 10
20036.7594975146
 20
7772.314425931938
 10
20125.44324482321
 20
7772.314425931938
 10
20125.44324482321
 20
7544.953116347506
 10
20231.26355732319
 20
7544.953116347506
 10
20231.26355732319
 20
7771.398153748241
 10
20319.02214958969
 20
7771.398153748241
 10
20231.26355732319
 20
7877.679141956767
 10
20231.26355732319
 20
7946.33118123005
 42
0.3158256435086028
 10
20483.26722646413
 20
8196.812896523637
 10
20551.95018279817
 20
8196.812896523637
 10
20551.95018279817
 20
8109.054304257192
 10
20658.2311710067
 20
8196.812896523644
  0
LWPOLYLINE
  5
15FD9
330
2E3A
100
AcDbEntity
  8
Symboler
  6
Continuous
100
AcDbPolyline
 90
       20
 70
     1
 43
0.45
 39
1.0
 10
9528.586635772176
 20
8196.812896523516
 10
9528.586635772176
 20
8302.633209023516
 10
9459.003677631514
 20
8302.633209023516
 10
9352.866454981818
 20
8391.316956332095
 10
9352.866454981818
 20
8302.633209023516
 10
9283.267226464067
 20
8302.633209023516
 42
1.926208417817558
 10
8925.443244823149
 20
7946.596054286823
 10
8925.443244823149
 20
7878.451648581533
 10
8836.759497514551
 20
7772.314425931809
 10
8925.443244823149
 20
7772.314425931809
 10
8925.443244823149
 20
7544.953116347379
 10
9031.263557323127
 20
7544.953116347379
 10
9031.263557323127
 20
7771.398153748117
 10
9119.02214958963
 20
7771.398153748117
 10
9031.263557323127
 20
7877.679141956642
 10
9031.263557323127
 20
7946.331181229925
 42
0.3158256435086028
 10
9283.267226464067
 20
8196.812896523509
 10
9351.950182798118
 20
8196.812896523509
 10
9351.950182798118
 20
8109.054304257064
 10
9458.231171006646
 20
8196.812896523512
  0
LWPOLYLINE
  5
15FDF
330
2E3A
100
AcDbEntity
  8
Symboler
  6
Continuous
100
AcDbPolyline
 90
       20
 70
     1
 43
0.45
 39
1.0
 10
-548.998790352445
 20
8199.617945129968
 10
-548.998790352445
 20
8305.438257629969
 10
-618.5817484931101
 20
8305.438257629969
 10
-724.718971142807
 20
8394.122004938548
 10
-724.718971142807
 20
8305.438257629969
 10
-794.3181996605559
 20
8305.438257629969
 42
1.926208417817558
 10
-1152.142181301474
 20
7949.401102893276
 10
-1152.142181301474
 20
7881.256697187986
 10
-1240.825928610072
 20
7775.119474538263
 10
-1152.142181301474
 20
7775.119474538263
 10
-1152.142181301474
 20
7547.758164953832
 10
-1046.321868801496
 20
7547.758164953832
 10
-1046.321868801496
 20
7774.203202354569
 10
-958.5632765349943
 20
7774.203202354569
 10
-1046.321868801496
 20
7880.484190563095
 10
-1046.321868801496
 20
7949.136229836378
 42
0.3158256435086028
 10
-794.3181996605559
 20
8199.617945129963
 10
-725.6352433265052
 20
8199.617945129963
 10
-725.6352433265052
 20
8111.859352863517
 10
-619.3542551179778
 20
8199.617945129965
  0
LWPOLYLINE
  5
15FE5
330
2E3A
100
AcDbEntity
  8
Symboler
  6
Continuous
100
AcDbPolyline
 90
       20
 70
     1
 43
0.45
 39
1.0
 10
-6111.377341169879
 20
8199.617945129968
 10
-6111.377341169879
 20
8305.438257629969
 10
-6180.960299310545
 20
8305.438257629969
 10
-6287.097521960244
 20
8394.122004938548
 10
-6287.097521960244
 20
8305.438257629969
 10
-6356.696750477992
 20
8305.438257629969
 42
1.926208417817558
 10
-6714.52073211891
 20
7949.401102893276
 10
-6714.52073211891
 20
7881.256697187986
 10
-6803.20447942751
 20
7775.119474538263
 10
-6714.52073211891
 20
7775.119474538263
 10
-6714.52073211891
 20
7547.758164953832
 10
-6608.700419618933
 20
7547.758164953832
 10
-6608.700419618933
 20
7774.203202354569
 10
-6520.941827352429
 20
7774.203202354569
 10
-6608.700419618933
 20
7880.484190563095
 10
-6608.700419618933
 20
7949.136229836378
 42
0.3158256435086028
 10
-6356.696750477992
 20
8199.617945129963
 10
-6288.013794143941
 20
8199.617945129963
 10
-6288.013794143941
 20
8111.859352863517
 10
-6181.732805935412
 20
8199.617945129965
  0
LWPOLYLINE
  5
15FEB
330
2E3A
100
AcDbEntity
  8
Symboler
  6
Continuous
100
AcDbPolyline
 90
       20
 70
     1
 43
0.45
 39
1.0
 10
-10073.50546947294
 20
9877.128096446604
 10
-10073.50546947294
 20
9982.948408946604
 10
-10143.08842761362
 20
9982.948408946604
 10
-10249.22565026332
 20
10071.63215625517
 10
-10249.22565026332
 20
9982.948408946604
 10
-10318.82487878104
 20
9982.948408946604
 42
1.926208417817558
 10
-10676.64886042199
 20
9626.911254209913
 10
-10676.64886042199
 20
9558.766848504616
 10
-10765.33260773059
 20
9452.629625854898
 10
-10676.64886042199
 20
9452.629625854898
 10
-10676.64886042199
 20
9225.268316270463
 10
-10570.82854792199
 20
9225.268316270463
 10
-10570.82854792199
 20
9451.7133536712
 10
-10483.0699556555
 20
9451.7133536712
 10
-10570.82854792199
 20
9557.994341879728
 10
-10570.82854792199
 20
9626.646381153008
 42
0.3158256435086028
 10
-10318.82487878104
 20
9877.128096446597
 10
-10250.14192244702
 20
9877.128096446597
 10
-10250.14192244702
 20
9789.36950418015
 10
-10143.86093423849
 20
9877.1280964466
  0
LWPOLYLINE
  5
15FF3
330
2E3A
100
AcDbEntity
  8
Symboler
  6
Continuous
100
AcDbPolyline
 90
       20
 70
     1
 43
0.45
 39
1.0
 10
-6111.377341169879
 20
13026.90610178112
 10
-6111.377341169879
 20
12921.08578928112
 10
-6180.960299310545
 20
12921.08578928112
 10
-6287.097521960244
 20
12832.40204197255
 10
-6287.097521960244
 20
12921.08578928112
 10
-6356.696750477992
 20
12921.08578928112
 42
-1.926208417817558
 10
-6714.52073211891
 20
13277.12294401781
 10
-6714.52073211891
 20
13345.26734972311
 10
-6803.20447942751
 20
13451.40457237283
 10
-6714.52073211891
 20
13451.40457237283
 10
-6714.52073211891
 20
13678.76588195725
 10
-6608.700419618933
 20
13678.76588195725
 10
-6608.700419618933
 20
13452.32084455652
 10
-6520.941827352429
 20
13452.32084455652
 10
-6608.700419618933
 20
13346.039856348
 10
-6608.700419618933
 20
13277.38781707471
 42
-0.3158256435086028
 10
-6356.696750477992
 20
13026.90610178113
 10
-6288.013794143941
 20
13026.90610178113
 10
-6288.013794143941
 20
13114.66469404758
 10
-6181.732805935412
 20
13026.90610178112
  0
LWPOLYLINE
  5
15FF4
330
2E3A
100
AcDbEntity
  8
Symboler
  6
Continuous
100
AcDbPolyline
 90
       20
 70
     1
 43
0.45
 39
1.0
 10
-548.9987903524453
 20
13026.90610178112
 10
-548.9987903524453
 20
12921.08578928112
 10
-618.5817484931105
 20
12921.08578928112
 10
-724.7189711428072
 20
12832.40204197255
 10
-724.7189711428072
 20
12921.08578928112
 10
-794.3181996605564
 20
12921.08578928112
 42
-1.926208417817558
 10
-1152.142181301474
 20
13277.12294401781
 10
-1152.142181301474
 20
13345.26734972311
 10
-1240.825928610073
 20
13451.40457237283
 10
-1152.142181301474
 20
13451.40457237283
 10
-1152.142181301474
 20
13678.76588195725
 10
-1046.321868801496
 20
13678.76588195725
 10
-1046.321868801496
 20
13452.32084455652
 10
-958.5632765349947
 20
13452.32084455652
 10
-1046.321868801496
 20
13346.039856348
 10
-1046.321868801496
 20
13277.38781707471
 42
-0.3158256435086028
 10
-794.3181996605564
 20
13026.90610178113
 10
-725.6352433265057
 20
13026.90610178113
 10
-725.6352433265057
 20
13114.66469404758
 10
-619.3542551179781
 20
13026.90610178112
  0
LWPOLYLINE
  5
15FF6
330
2E3A
100
AcDbEntity
  8
Symboler
  6
Continuous
100
AcDbPolyline
 90
       20
 70
     1
 43
0.45
 39
1.0
 10
20728.58663577224
 20
13024.10105317479
 10
20728.58663577224
 20
12918.28074067479
 10
20659.00367763155
 20
12918.28074067479
 10
20552.86645498187
 20
12829.59699336622
 10
20552.86645498187
 20
12918.28074067479
 10
20483.26722646413
 20
12918.28074067479
 42
-1.926208417817558
 10
20125.44324482321
 20
13274.31789541148
 10
20125.44324482321
 20
13342.46230111678
 10
20036.7594975146
 20
13448.5995237665
 10
20125.44324482321
 20
13448.5995237665
 10
20125.44324482321
 20
13675.96083335093
 10
20231.26355732319
 20
13675.96083335093
 10
20231.26355732319
 20
13449.51579595019
 10
20319.02214958969
 20
13449.51579595019
 10
20231.26355732319
 20
13343.23480774167
 10
20231.26355732319
 20
13274.58276846839
 42
-0.3158256435086028
 10
20483.26722646413
 20
13024.1010531748
 10
20551.95018279817
 20
13024.1010531748
 10
20551.95018279817
 20
13111.85964544125
 10
20658.2311710067
 20
13024.10105317479
  0
LWPOLYLINE
  5
15FFE
330
2E3A
100
AcDbEntity
  8
Symboler
  6
Continuous
100
AcDbPolyline
 90
       20
 70
     1
 43
0.675
 39
1.0
 10
-796.9066677470522
 20
20881.38351454456
 10
-796.9066677470522
 20
21040.11398329455
 10
-901.2811049580498
 20
21040.11398329455
 10
-1060.486938932595
 20
21173.13960425744
 10
-1060.486938932595
 20
21040.11398329455
 10
-1164.885781709217
 20
21040.11398329455
 42
1.926208417817558
 10
-1701.621754170597
 20
20506.05825118953
 10
-1701.621754170597
 20
20403.84164263159
 10
-1834.647375133493
 20
20244.63580865701
 10
-1701.621754170597
 20
20244.63580865701
 10
-1701.621754170597
 20
19903.59384428036
 10
-1542.891285420629
 20
19903.59384428036
 10
-1542.891285420629
 20
20243.26140038146
 10
-1411.253397020876
 20
20243.26140038146
 10
-1542.891285420629
 20
20402.68288269425
 10
-1542.891285420629
 20
20505.66094160418
 42
0.3158256435086028
 10
-1164.885781709217
 20
20881.38351454456
 10
-1061.861347208143
 20
20881.38351454456
 10
-1061.861347208143
 20
20749.74562614487
 10
-902.4398648953516
 20
20881.38351454456
  0
LWPOLYLINE
  5
1601E
330
2E3A
100
AcDbEntity
  8
Symboler
  6
Continuous
100
AcDbPolyline
 90
       20
 70
     1
 43
0.45
 39
1.0
 10
9528.586635772176
 20
13024.10105317467
 10
9528.586635772176
 20
12918.28074067468
 10
9459.003677631512
 20
12918.28074067468
 10
9352.866454981812
 20
12829.59699336611
 10
9352.866454981812
 20
12918.28074067468
 10
9283.267226464067
 20
12918.28074067468
 42
-1.926208417817558
 10
8925.443244823149
 20
13274.31789541137
 10
8925.443244823149
 20
13342.46230111667
 10
8836.759497514549
 20
13448.59952376639
 10
8925.443244823149
 20
13448.59952376639
 10
8925.443244823149
 20
13675.96083335081
 10
9031.263557323127
 20
13675.96083335081
 10
9031.263557323127
 20
13449.51579595008
 10
9119.022149589628
 20
13449.51579595008
 10
9031.263557323127
 20
13343.23480774156
 10
9031.263557323127
 20
13274.58276846827
 42
-0.3158256435086028
 10
9283.267226464067
 20
13024.10105317469
 10
9351.950182798118
 20
13024.10105317469
 10
9351.950182798118
 20
13111.85964544113
 10
9458.231171006644
 20
13024.10105317467
  0
LWPOLYLINE
  5
1601F
330
2E3A
100
AcDbEntity
  8
Suction PS
  6
Continuous
100
AcDbPolyline
 90
        2
 70
     1
 43
0.3
 39
3.0
 10
8978.353401073139
 20
14001.56671784659
 10
8978.353401073139
 20
13675.96083335081
  0
LWPOLYLINE
  5
1602A
330
2E3A
100
AcDbEntity
  8
Suction PS
  6
Continuous
100
AcDbPolyline
 90
        2
 70
     0
 43
0.3
 39
0.1
 10
22038.20739322674
 20
11625.62966090461
 10
29496.65217009655
 20
11625.62966090461
  0
LWPOLYLINE
  5
1602B
330
2E3A
100
AcDbEntity
  8
Suction PS
  6
Continuous
100
AcDbPolyline
 90
       10
 70
     1
 43
0.3
 39
3.0
 10
29942.17246832608
 20
11625.62966090461
 10
32960.24078839359
 20
11625.62966090461
 10
32960.24078839359
 20
8249.723052773644
 10
32599.13355590653
 20
8249.723052773644
 10
32960.24078839359
 20
8249.723052773644
 10
32960.24078839359
 20
11625.62966090461
 10
37286.00153519724
 20
11625.62966090461
 10
37286.00153519724
 20
11943.84166258702
 10
37286.00153519724
 20
11625.62966090461
 10
29942.17246832608
 20
11625.62966090461
  0
LWPOLYLINE
  5
1602C
330
2E3A
100
AcDbEntity
  8
Suction PS
  6
Continuous
100
AcDbPolyline
 90
        2
 70
     0
 43
0.3
 39
3.0
 10
29656.69294029948
 20
11625.62966090461
 10
21745.89009900981
 20
11625.62966090461
  0
LWPOLYLINE
  5
1602D
330
2E3A
100
AcDbEntity
  8
Suction PS
  6
Continuous
100
AcDbPolyline
 90
        6
 70
     1
 43
0.3
 39
3.0
 10
18464.0034070776
 20
11622.5159652188
 10
14290.1828585967
 20
11625.62966090461
 10
14290.1828585967
 20
14066.68306775632
 10
14290.1828585967
 20
7248.774691919098
 10
14290.1828585967
 20
11625.62966090461
 10
18464.0034070776
 20
11622.5159652188
  0
LWPOLYLINE
  5
1602E
330
2E3A
100
AcDbEntity
  8
Suction PS
  6
Continuous
100
AcDbPolyline
 90
        3
 70
     0
 43
0.3
 39
3.0
 10
18733.62288600596
 20
11625.62966090461
 10
21464.37553483841
 20
11625.62966090461
 10
18733.62288600596
 20
11625.62966090461
  0
LWPOLYLINE
  5
16030
330
2E3A
100
AcDbEntity
  8
Suction PS
  6
Continuous
100
AcDbPolyline
 90
        2
 70
     0
 43
0.3
 39
3.0
 10
7561.741084895475
 20
11746.00258214314
 10
10306.73618913145
 20
11746.00258214314
  0
LWPOLYLINE
  5
16031
330
2E3A
100
AcDbEntity
  8
Suction PS
  6
Continuous
100
AcDbPolyline
 90
        3
 70
     0
 43
0.3
 39
3.0
 10
570.3632379164046
 20
11746.00258214314
 10
7244.714993628121
 20
11746.00258214314
 10
570.3632379164046
 20
11746.00258214314
  0
LWPOLYLINE
  5
16032
330
2E3A
100
AcDbEntity
  8
Suction PS
  6
Continuous
100
AcDbPolyline
 90
        3
 70
     0
 43
0.3
 39
3.0
 10
-2686.167789057217
 20
11747.73452283417
 10
267.5321510880894
 20
11746.00258214314
 10
-2686.167789057217
 20
11747.73452283417
  0
LWPOLYLINE
  5
16033
330
2E3A
100
AcDbEntity
  8
Suction PS
  6
Continuous
100
AcDbPolyline
 90
        2
 70
     0
 43
0.3
 39
0.1
 10
785.0331245560376
 20
9698.844493120908
 10
7035.43058124681
 20
9697.552941162939
  0
LWPOLYLINE
  5
16036
330
2E3A
100
AcDbEntity
  8
Suction PS
  6
Continuous
100
AcDbPolyline
 90
        2
 70
     0
 43
0.3
 39
3.0
 10
7265.709043404088
 20
9697.552941162939
 10
563.4737452309054
 20
9698.844493120908
  0
LWPOLYLINE
  5
16037
330
2E3A
100
AcDbEntity
  8
Suction PS
  6
Continuous
100
AcDbPolyline
 90
        6
 70
     1
 43
0.3
 39
3.0
 10
12304.88468210623
 20
9696.403102818617
 10
12600.01249269141
 20
9696.403102818614
 10
12600.01249269141
 20
7248.774691919098
 10
12600.01249269141
 20
14066.68306775632
 10
12600.01249269141
 20
9696.403102818614
 10
12304.88468210623
 20
9696.403102818617
  0
LWPOLYLINE
  5
16038
330
2E3A
100
AcDbEntity
  8
Suction PS
  6
Continuous
100
AcDbPolyline
 90
        3
 70
     0
 43
0.3
 39
3.0
 10
10265.89156098445
 20
9696.403102818617
 10
7539.293679865048
 20
9697.552941162939
 10
10265.89156098445
 20
9696.403102818617
  0
LWPOLYLINE
  5
16039
330
2E3A
100
AcDbEntity
  8
Suction PS
  6
Continuous
100
AcDbPolyline
 90
        3
 70
     0
 43
0.3
 39
3.0
 10
12051.12505859873
 20
9696.403102818617
 10
10535.51103991281
 20
9696.403102818617
 10
12051.12505859873
 20
9696.403102818617
  0
LWPOLYLINE
  5
1603B
330
2E3A
100
AcDbEntity
  8
Suction PS
  6
Continuous
100
AcDbPolyline
 90
       10
 70
     1
 43
0.3
 39
3.0
 10
12043.84801742387
 20
12267.81214155231
 10
10401.4573796663
 20
12267.81214155231
 10
10401.45737966629
 20
12971.19089692469
 10
10174.13126399974
 20
12971.19089692468
 10
10401.45737966629
 20
12971.19089692469
 10
10401.45737966629
 20
8249.723052773516
 10
10174.13126399974
 20
8249.723052773516
 10
10401.45737966629
 20
8249.723052773516
 10
10401.45737966629
 20
12267.81214155231
 10
12043.84801742387
 20
12267.81214155231
  0
LWPOLYLINE
  5
1603C
330
2E3A
100
AcDbEntity
  8
Suction PS
  6
Continuous
100
AcDbPolyline
 90
        2
 70
     0
 43
0.3
 39
3.0
 10
12725.82683613258
 20
12267.81214155231
 10
12920.11142077972
 20
12267.81214155231
  0
LWPOLYLINE
  5
1603D
330
2E3A
100
AcDbEntity
  8
Suction PS
  6
Continuous
100
AcDbPolyline
 90
        2
 70
     0
 43
0.3
 39
3.0
 10
12476.03217648028
 20
12267.81214155231
 10
12317.43246020743
 20
12267.81214155231
  0
LWPOLYLINE
  5
1603E
330
2E3A
100
AcDbEntity
  8
Suction PS
  6
Continuous
100
AcDbPolyline
 90
        5
 70
     0
 43
0.3
 39
3.0
 10
13458.98889975998
 20
12668.77830570641
 10
13458.98889975998
 20
12668.77830570641
 10
13458.98889975998
 20
7248.774691919098
 10
13458.98889975998
 20
12668.77830570641
 10
13458.98889975998
 20
12668.77830570641
  0
LWPOLYLINE
  5
1603F
330
2E3A
100
AcDbEntity
  8
Suction PS
  6
Continuous
100
AcDbPolyline
 90
       16
 70
     1
 43
0.3
 39
3.0
 10
10257.96143959663
 20
9331.475017515577
 10
7391.814967338679
 20
9331.475017515577
 10
7391.814967338679
 20
12893.13135131385
 10
7391.814967338679
 20
9331.475017515577
 10
418.2154733359639
 20
9331.475017515577
 10
418.2154733359628
 20
12973.99594553114
 10
96.54583787512251
 20
12973.99594553112
 10
418.2154733359628
 20
12973.99594553114
 10
418.2154733359639
 20
8252.528101379969
 10
96.54583787512251
 20
8252.528101379969
 10
418.2154733359639
 20
8252.528101379969
 10
418.2154733359639
 20
9331.475017515577
 10
7391.814967338679
 20
9331.475017515577
 10
7391.814967338679
 20
8249.892246622506
 10
7391.814967338685
 20
9331.475017515577
 10
10257.96143959663
 20
9331.475017515577
  0
LWPOLYLINE
  5
16040
330
2E3A
100
AcDbEntity
  8
Suction PS
  6
Continuous
100
AcDbPolyline
 90
        2
 70
     0
 43
0.3
 39
0.1
 10
10698.10057854617
 20
9331.47501751557
 10
11964.32514099267
 20
9331.475017515566
  0
LWPOLYLINE
  5
16042
330
2E3A
100
AcDbEntity
  8
Suction PS
  6
Continuous
100
AcDbPolyline
 90
        2
 70
     0
 43
0.3
 39
3.0
 10
12047.1600947435
 20
9331.475017515566
 10
10547.40593147842
 20
9331.47501751557
  0
LWPOLYLINE
  5
16043
330
2E3A
100
AcDbEntity
  8
Suction PS
  6
Continuous
100
AcDbPolyline
 90
        6
 70
     1
 43
0.3
 39
3.0
 10
12733.74301274717
 20
9331.47501751557
 10
13039.80088104725
 20
9331.475017515577
 10
13039.80088104725
 20
7248.774691919098
 10
13039.80088104725
 20
14066.68306775632
 10
13039.80088104725
 20
9331.475017515563
 10
12733.74301274717
 20
9331.47501751557
  0
LWPOLYLINE
  5
16044
330
2E3A
100
AcDbEntity
  8
Suction PS
  6
Continuous
100
AcDbPolyline
 90
        3
 70
     0
 43
0.3
 39
3.0
 10
12483.30921765512
 20
9331.475017515566
 10
12320.74453752709
 20
9331.475017515566
 10
12483.30921765512
 20
9331.475017515566
  0
LWPOLYLINE
  5
16045
330
2E3A
100
AcDbEntity
  8
Suction PS
  6
Continuous
100
AcDbPolyline
 90
        6
 70
     1
 43
0.3
 39
3.0
 10
14162.03195630252
 20
11951.95818829343
 10
13874.58587917834
 20
11951.95818829343
 10
13874.58587917834
 20
14066.68306775632
 10
13874.58587917835
 20
7248.774691919098
 10
13874.58587917834
 20
11951.95818829343
 10
14162.03195630252
 20
11951.95818829343
  0
LWPOLYLINE
  5
16046
330
2E3A
100
AcDbEntity
  8
Suction PS
  6
Continuous
100
AcDbPolyline
 90
        2
 70
     0
 43
0.3
 39
0.1
 10
14477.62756250813
 20
11951.95818829343
 10
18292.7439484247
 20
11951.95818829343
  0
LWPOLYLINE
  5
16047
330
2E3A
100
AcDbEntity
  8
Suction PS
  6
Continuous
100
AcDbPolyline
 90
        5
 70
     0
 43
0.3
 39
3.0
 10
13745.70784634436
 20
12668.77830570641
 10
13458.98889975998
 20
12668.77830570641
 10
13458.98889975998
 20
14066.68306775632
 10
13458.98889975998
 20
12668.77830570641
 10
13458.98889975998
 20
12668.77830570641
  0
LWPOLYLINE
  5
16048
330
2E3A
100
AcDbEntity
  8
Suction PS
  6
Continuous
100
AcDbPolyline
 90
        2
 70
     0
 43
0.3
 39
3.0
 10
14158.0669924473
 20
12668.77830570641
 10
14007.39739756228
 20
12668.77830570641
  0
LWPOLYLINE
  5
16049
330
2E3A
100
AcDbEntity
  8
Suction PS
  6
Continuous
100
AcDbPolyline
 90
       16
 70
     1
 43
0.3
 39
3.0
 10
18725.69295829552
 20
11951.95818829343
 10
21605.6162789393
 20
11951.95818829343
 10
21605.6162789393
 20
8249.72305277364
 10
21374.13126399978
 20
8249.72305277364
 10
21605.6162789393
 20
8249.72305277364
 10
21605.6162789393
 20
11951.95818829343
 10
29793.65568826493
 20
11951.95818829343
 10
29793.65568826493
 20
8247.087198016178
 10
29793.65568826493
 20
12890.32630270751
 10
29793.65568826493
 20
11951.95818829343
 10
21605.6162789393
 20
11951.95818829343
 10
21605.6162789393
 20
12971.1908969248
 10
21382.28300009825
 20
12971.1908969248
 10
21605.6162789393
 20
12971.1908969248
 10
21605.6162789393
 20
11951.95818829343
 10
18725.69295829552
 20
11951.95818829343
  0
LWPOLYLINE
  5
1604A
330
2E3A
100
AcDbEntity
  8
Suction PS
  6
Continuous
100
AcDbPolyline
 90
        2
 70
     0
 43
0.3
 39
3.0
 10
18456.07328568978
 20
11951.95818829343
 10
14419.75654366525
 20
11951.95818829343
  0
LWPOLYLINE
  5
1604B
330
2E3A
100
AcDbEntity
  8
Suction PS
  6
Continuous
100
AcDbPolyline
 90
        7
 70
     1
 43
0.3
 39
3.0
 10
-5414.490754831669
 20
11746.00258214314
 10
-8980.044557244168
 20
11746.00258214314
 10
-8980.044557244168
 20
9930.038252696608
 10
-9427.960841245399
 20
9930.038252696608
 10
-8980.044557244168
 20
9930.038252696608
 10
-8980.044557244168
 20
11746.00258214314
 10
-5414.490754831669
 20
11746.00258214314
  0
LWPOLYLINE
  5
1604C
330
2E3A
100
AcDbEntity
  8
Suction PS
  6
Continuous
100
AcDbPolyline
 90
        3
 70
     0
 43
0.3
 39
3.0
 10
-5135.996396129137
 20
11746.00258214314
 10
-2956.222654794226
 20
11746.00258214314
 10
-5135.996396129137
 20
11746.00258214314
  0
LWPOLYLINE
  5
16056
330
2E3A
100
AcDbEntity
  8
Suction PS
  6
Continuous
100
AcDbPolyline
 90
        2
 70
     0
 43
0.3
 39
3.0
 10
13458.98889975998
 20
12267.81214155231
 10
13165.9409228994
 20
12267.81214155231
  0
LWPOLYLINE
  5
1606C
330
2E3A
100
AcDbEntity
  8
Suction PS
  6
Continuous
100
AcDbPolyline
 90
        6
 70
     1
 43
0.3
 39
3.0
 10
10472.70571805661
 20
11746.00258214314
 10
12184.41551327303
 20
11746.00258214314
 10
12184.41551327303
 20
7248.774691919098
 10
12184.41551327303
 20
14066.68306775632
 10
12184.41551327303
 20
11746.00258214314
 10
10472.70571805661
 20
11746.00258214314
  0
LWPOLYLINE
  5
1606D
330
2E3A
100
AcDbEntity
  8
Suction PS
  6
Continuous
100
AcDbPolyline
 90
        2
 70
     0
 43
0.3
 39
3.0
 10
10327.22609661961
 20
11746.00258214314
 10
7561.741084895475
 20
11746.00258214314
  0
ENDSEC
  0
SECTION
  2
OBJECTS
  0
DICTIONARY
  5
2E2E
330
0
100
AcDbDictionary
281
     1
  3
ACAD_GROUP
350
2E2F
  3
ACAD_LAYOUT
350
158C0
  3
ACAD_MLINESTYLE
350
2E30
  3
ACAD_PLOTSETTINGS
350
158C1
  3
ACAD_PLOTSTYLENAME
350
158BE
  3
ACDBVARIABLEDICTIONARY
350
15033
  3
ASE_INDEX_DICTIONARY
350
15AF5
  0
DICTIONARY
  5
15B01
330
2E24
100
AcDbDictionary
280
     1
281
     1
  3
ACAD_LAYERFILTERS
360
15B02
  3
ACAD_LAYERSTATES
360
15BDD
  0
DICTIONARY
  5
2E2F
102
{ACAD_REACTORS
330
2E2E
102
}
330
2E2E
100
AcDbDictionary
281
     1
  0
DICTIONARY
  5
158C0
102
{ACAD_REACTORS
330
2E2E
102
}
330
2E2E
100
AcDbDictionary
281
     1
  3
Layout1
350
158C3
  3
Model
350
158C2
  0
DICTIONARY
  5
2E30
102
{ACAD_REACTORS
330
2E2E
102
}
330
2E2E
100
AcDbDictionary
281
     1
  3
STANDARD
350
2E3D
  0
DICTIONARY
  5
158C1
102
{ACAD_REACTORS
330
2E2E
102
}
330
2E2E
100
AcDbDictionary
281
     1
  0
ACDBDICTIONARYWDFLT
  5
158BE
102
{ACAD_REACTORS
330
2E2E
102
}
330
2E2E
100
AcDbDictionary
281
     1
  3
Normal
350
158BF
100
AcDbDictionaryWithDefault
340
158BF
  0
DICTIONARY
  5
15033
102
{ACAD_REACTORS
330
2E2E
102
}
330
2E2E
100
AcDbDictionary
281
     1
  3
SORTENTS
350
15034
  0
DICTIONARY
  5
15AF5
102
{ACAD_REACTORS
330
2E2E
102
}
330
2E2E
100
AcDbDictionary
281
     1
  3
ASEBlockHierarchyIndexRecord
350
15AF7
1001
DCO15
1040
1538987196.419
  0
DICTIONARY
  5
15B02
102
{ACAD_REACTORS
330
15B01
102
}
330
15B01
100
AcDbDictionary
280
     1
281
     1
  3
-WW
360
15B03
  3
0
360
15B04
  3
0-DETAIL
360
15B05
  3
00_
360
15B06
  3
050
360
15B07
  3
0_
360
15B08
  3
1
360
15B09
  3
11
360
15B0A
  3
16-3
360
15B0B
  3
21
360
15B0C
  3
22
360
15B0D
  3
28
360
15B0E
  3
28-3
360
15B0F
  3
4
360
15B10
  3
74
360
15B11
  3
_h
360
15B12
  3
a1
360
15B13
  3
aa
360
15B14
  3
aft-1
360
15B15
  3
aft-2
360
15B16
  3
aft-3
360
15B17
  3
all
360
15B18
  3
all-E
360
15B19
  3
all-P
360
15B1A
  3
alle
360
15B1B
  3
arc
360
15B1C
  3
arc1
360
15B1D
  3
arceer
360
15B1E
  3
Arm
360
15B1F
  3
AUSRUESTUNG
360
15B20
  3
AV thawed
360
15B21
  3
az
360
15B22
  3
B
360
15B23
  3
BECKERPLEIN
360
15B24
  3
begane grond
360
15B25
  3
below
360
15B26
  3
BL_AANPASSING2
360
15B27
  3
BL_AANPASSINGEN
360
15B28
  3
black
360
15B29
  3
blauw
360
15B2A
  3
Boat
360
15B2B
  3
Border
360
15B2C
  3
brenn
360
15B2D
  3
c1
360
15B2E
  3
c2
360
15B2F
  3
Calc
360
15B30
  3
CC
360
15B31
  3
CEILINGS
360
15B32
  3
cel
360
15B33
  3
CHILLED WATER
360
15B34
  3
codes
360
15B35
  3
Color-92
360
15B36
  3
Color-white
360
15B37
  3
colour-34
360
15B38
  3
cond
360
15B39
  3
cu dem
360
15B3A
  3
cu s2
360
15B3B
  3
cut
360
15B3C
  3
D_
360
15B3D
  3
dalaje
360
15B3E
  3
Davit
360
15B3F
  3
det
360
15B40
  3
dim
360
15B41
  3
dim-1-1
360
15B42
  3
dis
360
15B43
  3
Diversen
360
15B44
  3
dsnede
360
15B45
  3
e
360
15B46
  3
E-TECHNIK
360
15B47
  3
E1
360
15B48
  3
E2
360
15B49
  3
E3
360
15B4A
  3
e4
360
15B4B
  3
EINRICHTUNG
360
15B4C
  3
Electric
360
15B4D
  3
EXTRAPARKEREN
360
15B4E
  3
F
360
15B4F
  3
F-V
360
15B50
  3
feuer
360
15B51
  3
fire
360
15B52
  3
flur
360
15B53
  3
Frames
360
15B54
  3
freeze
360
15B55
  3
frozen
360
15B56
  3
fwd-1
360
15B57
  3
fwd-2
360
15B58
  3
fwd-3
360
15B59
  3
geel
360
15B5A
  3
General
360
15B5B
  3
glas
360
15B5C
  3
Graining
360
15B5D
  3
grey
360
15B5E
  3
groen
360
15B5F
  3
hartlijn
360
15B60
  3
hatchprofiel
360
15B61
  3
hatchprofiel1
360
15B62
  3
hauptm
360
15B63
  3
HID
360
15B64
  3
HULL
360
15B65
  3
hulplijn
360
15B66
  3
Hydraulic
360
15B67
  3
INF
360
15B68
  3
inw
360
15B69
  3
jochum 1
360
15B6A
  3
joop
360
15B6B
  3
kabelbahn
360
15B6C
  3
kader
360
15B6D
  3
kuehl
360
15B6E
  3
LADDER
360
15B6F
  3
lenz
360
15B70
  3
LINII
360
15B71
  3
LOCK
360
15B72
  3
locked
360
15B73
  3
lueftung
360
15B74
  3
magenta
360
15B75
  3
main
360
15B76
  3
MAINGIRDER
360
15B77
  3
midship
360
15B78
  3
Mtext
360
15B79
  3
new
360
15B7A
  3
No xref
360
15B7B
  3
off
360
15B7C
  3
on
360
15B7D
  3
open
360
15B7E
  3
open-d
360
15B7F
  3
open-p
360
15B80
  3
open-t
360
15B81
  3
Outline
360
15B82
  3
p
360
15B83
  3
P1
360
15B84
  3
P2
360
15B85
  3
P3
360
15B86
  3
PANEL
360
15B87
  3
PANELS
360
15B88
  3
Part
360
15B89
  3
PEN
360
15B8A
  3
penetr
360
15B8B
  3
ph
360
15B8C
  3
pillar
360
15B8D
  3
plan-1
360
15B8E
  3
plan-2
360
15B8F
  3
plan-3
360
15B90
  3
PLAN1
360
15B91
  3
port-1
360
15B92
  3
port-2
360
15B93
  3
port-3
360
15B94
  3
profiel2
360
15B95
  3
profielen
360
15B96
  3
pt1
360
15B97
  3
pt2
360
15B98
  3
pv
360
15B99
  3
r
360
15B9A
  3
r-dim
360
15B9B
  3
railing
360
15B9C
  3
REF
360
15B9D
  3
Remote Control
360
15B9E
  3
Remote Controle
360
15B9F
  3
REV
360
15BA0
  3
roland
360
15BA1
  3
S0
360
15BA2
  3
s1
360
15BA3
  3
s2
360
15BA4
  3
scupper
360
15BA5
  3
SECSTIF
360
15BA6
  3
section
360
15BA7
  3
Ship
360
15BA8
  3
shut
360
15BA9
  3
SIT
360
15BAA
  3
souterrain
360
15BAB
  3
sp
360
15BAC
  3
span
360
15BAD
  3
stb-1
360
15BAE
  3
stb-2
360
15BAF
  3
stb-3
360
15BB0
  3
Stool
360
15BB1
  3
stowage
360
15BB2
  3
SUFLATORI
360
15BB3
  3
suplay
360
15BB4
  3
susp
360
15BB5
  3
Suspension
360
15BB6
  3
synbool
360
15BB7
  3
T
360
15BB8
  3
tekst
360
15BB9
  3
temp
360
15BBA
  3
test
360
15BBB
  3
text
360
15BBC
  3
TH
360
15BBD
  3
TOPPLATE
360
15BBE
  3
tray
360
15BBF
  3
treppe
360
15BC0
  3
tt
360
15BC1
  3
txt
360
15BC2
  3
v31
360
15BC3
  3
VOLHARDING
360
15BC4
  3
vul
360
15BC5
  3
W
360
15BC6
  3
w.t. lines
360
15BC7
  3
wadigoten
360
15BC8
  3
water
360
15BC9
  3
Waterlines
360
15BCA
  3
white
360
15BCB
  3
Winch
360
15BCC
  3
wire
360
15BCD
  3
ww
360
15BCE
  3
ww1
360
15BCF
  3
zichtbareHWA
360
15BD0
  3

360
15BD1
  0
DICTIONARY
  5
15BDD
102
{ACAD_REACTORS
330
15B01
102
}
330
15B01
100
AcDbDictionary
281
     1
  0
LAYOUT
  5
158C3
102
{ACAD_REACTORS
330
158C0
102
}
330
158C0
100
AcDbPlotSettings
  1

  2
\\TSN_SERVER\HP LaserJet 6P
  4

  6

 40
0.0
 41
0.0
 42
0.0
 43
0.0
 44
0.0
 45
0.0
 46
0.0
 47
0.0
 48
0.0
 49
0.0
140
0.0
141
0.0
142
1.0
143
1.0
 70
   688
 72
     0
 73
     0
 74
     5
  7

 75
    16
147
1.0
148
0.0
149
0.0
100
AcDbLayout
  1
Layout1
 70
     0
 71
     1
 10
0.0
 20
0.0
 11
12.0
 21
9.0
 12
0.0
 22
0.0
 32
0.0
 14
1.000000000000000E+20
 24
1.000000000000000E+20
 34
1.000000000000000E+20
 15
-1.000000000000000E+20
 25
-1.000000000000000E+20
 35
-1.000000000000000E+20
146
0.0
 13
0.0
 23
0.0
 33
0.0
 16
1.0
 26
0.0
 36
0.0
 17
0.0
 27
1.0
 37
0.0
 76
     0
330
2E37
  0
LAYOUT
  5
158C2
102
{ACAD_REACTORS
330
158C0
102
}
330
158C0
100
AcDbPlotSettings
  1

  2
\\S01-TSN\iR 3170C
  4
A4
  6

 40
6.297083377838132
 41
6.297093868255615
 42
6.297073364257812
 43
6.297088623046875
 44
210.0579986572264
 45
296.9259948730469
 46
66.56
 47
0.0
 48
-10887.64392972915
 49
-8843.561620960944
140
40032.15823510553
141
2680.457608696015
142
1.0
143
179.0858424820558
 70
 11956
 72
     1
 73
     1
 74
     4
  7

 75
     0
147
0.0055839143180746
148
10887.64392972915
149
8843.561620960944
100
AcDbLayout
  1
Model
 70
     1
 71
     0
 10
0.0
 20
0.0
 11
12.0
 21
9.0
 12
0.0
 22
0.0
 32
0.0
 14
0.0
 24
0.0
 34
0.0
 15
0.0
 25
0.0
 35
0.0
146
0.0
 13
0.0
 23
0.0
 33
0.0
 16
1.0
 26
0.0
 36
0.0
 17
0.0
 27
1.0
 37
0.0
 76
     0
330
2E3A
  0
MLINESTYLE
  5
2E3D
102
{ACAD_REACTORS
330
2E30
102
}
330
2E30
100
AcDbMlineStyle
  2
STANDARD
 70
     0
  3

 62
     0
 51
90.0
 52
90.0
 71
     2
 49
0.5
 62
   256
  6
BYLAYER
 49
-0.5
 62
   256
  6
BYLAYER
  0
ACDBPLACEHOLDER
  5
158BF
102
{ACAD_REACTORS
330
158BE
102
}
330
158BE
  0
DICTIONARYVAR
  5
15034
102
{ACAD_REACTORS
330
15033
102
}
330
15033
100
DictionaryVariables
280
     0
  1
96
  0
XRECORD
  5
15AF7
102
{ACAD_REACTORS
330
15AF5
102
}
330
15AF5
100
AcDbXrecord
280
     1
330
17
330
29
330
2E80
330
2E81
330
2E82
330
2E83
330
2E84
330
2E85
330
2E86
330
2E87
330
2E8E
330
10E9D
330
10E9E
330
10EA0
330
10EA1
330
10EA2
330
10EA3
330
10EA4
330
10EA5
330
10EA6
330
10EA7
330
10EA8
330
10EAA
330
10EAB
330
10EAD
330
10EAE
330
10EAF
330
10EB0
330
10EB1
330
10EB2
330
10EB3
330
10EB4
330
10EB5
330
10EB6
330
10EB7
330
10EB9
330
10EBA
330
10EBB
330
10EBC
330
10EBD
330
10EBE
330
10EBF
330
10EC0
330
10EC1
330
13A16
330
13A17
330
13A19
330
13A1A
330
13A1B
330
13A1C
330
13A1D
330
13A1E
330
13A1F
330
13A20
330
13A21
330
13A23
330
13A24
330
13A26
330
13A27
330
13A28
330
13A29
330
13A2A
330
13A2B
330
13A2C
330
13A2D
330
13A2E
330
13A2F
330
13A30
330
13A32
330
13A33
330
13A34
330
13A35
330
13A36
330
13A37
330
13A38
330
13A39
330
13A3A
  0
XRECORD
  5
15B03
102
{ACAD_REACTORS
330
15B02
102
}
330
15B02
100
AcDbXrecord
280
     1
  1
-WW
  1
*-WW
  1
*
  1
*
 70
     0
  1
*
  1
*
  0
XRECORD
  5
15B04
102
{ACAD_REACTORS
330
15B02
102
}
330
15B02
100
AcDbXrecord
280
     1
  1
0
  1
0*
  1
*
  1
*
 70
     0
  1
*
  1
*
  0
XRECORD
  5
15B05
102
{ACAD_REACTORS
330
15B02
102
}
330
15B02
100
AcDbXrecord
280
     1
  1
0-DETAIL
  1
0-Detail*
  1
*
  1
*
 70
     0
  1
*
  1
*
  0
XRECORD
  5
15B06
102
{ACAD_REACTORS
330
15B02
102
}
330
15B02
100
AcDbXrecord
280
     1
  1
00_
  1
00_*
  1
*
  1
*
 70
     0
  1
*
  1
*
  0
XRECORD
  5
15B07
102
{ACAD_REACTORS
330
15B02
102
}
330
15B02
100
AcDbXrecord
280
     1
  1
050
  1
*050*
  1
*
  1
*
 70
     0
  1
*
  1
*
  0
XRECORD
  5
15B08
102
{ACAD_REACTORS
330
15B02
102
}
330
15B02
100
AcDbXrecord
280
     1
  1
0_
  1
0_*
  1
*
  1
*
 70
     0
  1
*
  1
*
  0
XRECORD
  5
15B09
102
{ACAD_REACTORS
330
15B02
102
}
330
15B02
100
AcDbXrecord
280
     1
  1
1
  1
*BRACKETS
  1
*
  1
*
 70
     0
  1
*
  1
*
  0
XRECORD
  5
15B0A
102
{ACAD_REACTORS
330
15B02
102
}
330
15B02
100
AcDbXrecord
280
     1
  1
11
  1
*
  1
*
  1
*
 70
     4
  1
*
  1
*
  0
XRECORD
  5
15B0B
102
{ACAD_REACTORS
330
15B02
102
}
330
15B02
100
AcDbXrecord
280
     1
  1
16-3
  1
*16-3
  1
*
  1
*
 70
     0
  1
*
  1
*
  0
XRECORD
  5
15B0C
102
{ACAD_REACTORS
330
15B02
102
}
330
15B02
100
AcDbXrecord
280
     1
  1
21
  1
*21*
  1
*
  1
*
 70
     0
  1
*
  1
*
  0
XRECORD
  5
15B0D
102
{ACAD_REACTORS
330
15B02
102
}
330
15B02
100
AcDbXrecord
280
     1
  1
22
  1
*22*
  1
*
  1
*
 70
     0
  1
*
  1
*
  0
XRECORD
  5
15B0E
102
{ACAD_REACTORS
330
15B02
102
}
330
15B02
100
AcDbXrecord
280
     1
  1
28
  1
*
  1
*
  1
*
 70
     0
  1
*
  1
*
  0
XRECORD
  5
15B0F
102
{ACAD_REACTORS
330
15B02
102
}
330
15B02
100
AcDbXrecord
280
     1
  1
28-3
  1
*28-3
  1
*
  1
*
 70
     0
  1
*
  1
*
  0
XRECORD
  5
15B10
102
{ACAD_REACTORS
330
15B02
102
}
330
15B02
100
AcDbXrecord
280
     1
  1
4
  1
*$4$schets*
  1
*
  1
*
 70
     0
  1
*
  1
*
  0
XRECORD
  5
15B11
102
{ACAD_REACTORS
330
15B02
102
}
330
15B02
100
AcDbXrecord
280
     1
  1
74
  1
*74*
  1
*
  1
*
 70
     0
  1
*
  1
*
  0
XRECORD
  5
15B12
102
{ACAD_REACTORS
330
15B02
102
}
330
15B02
100
AcDbXrecord
280
     1
  1
_h
  1
*_H
  1
*
  1
*
 70
     0
  1
*
  1
*
  0
XRECORD
  5
15B13
102
{ACAD_REACTORS
330
15B02
102
}
330
15B02
100
AcDbXrecord
280
     1
  1
a1
  1
a1*
  1
*
  1
*
 70
     0
  1
*
  1
*
  0
XRECORD
  5
15B14
102
{ACAD_REACTORS
330
15B02
102
}
330
15B02
100
AcDbXrecord
280
     1
  1
aa
  1
a*
  1
*
  1
*
 70
     0
  1
*
  1
*
  0
XRECORD
  5
15B15
102
{ACAD_REACTORS
330
15B02
102
}
330
15B02
100
AcDbXrecord
280
     1
  1
aft-1
  1
*a1
  1
*
  1
*
 70
     0
  1
*
  1
*
  0
XRECORD
  5
15B16
102
{ACAD_REACTORS
330
15B02
102
}
330
15B02
100
AcDbXrecord
280
     1
  1
aft-2
  1
*a2
  1
*
  1
*
 70
     0
  1
*
  1
*
  0
XRECORD
  5
15B17
102
{ACAD_REACTORS
330
15B02
102
}
330
15B02
100
AcDbXrecord
280
     1
  1
aft-3
  1
*a3
  1
*
  1
*
 70
     0
  1
*
  1
*
  0
XRECORD
  5
15B18
102
{ACAD_REACTORS
330
15B02
102
}
330
15B02
100
AcDbXrecord
280
     1
  1
all
  1
*
  1
*
  1
*
 70
     0
  1
*
  1
*
  0
XRECORD
  5
15B19
102
{ACAD_REACTORS
330
15B02
102
}
330
15B02
100
AcDbXrecord
280
     1
  1
all-E
  1
*-e*
  1
*
  1
*
 70
     0
  1
*
  1
*
  0
XRECORD
  5
15B1A
102
{ACAD_REACTORS
330
15B02
102
}
330
15B02
100
AcDbXrecord
280
     1
  1
all-P
  1
*-p*
  1
*
  1
*
 70
     0
  1
*
  1
*
  0
XRECORD
  5
15B1B
102
{ACAD_REACTORS
330
15B02
102
}
330
15B02
100
AcDbXrecord
280
     1
  1
alle
  1
*
  1
*
  1
*
 70
     0
  1
*
  1
*
  0
XRECORD
  5
15B1C
102
{ACAD_REACTORS
330
15B02
102
}
330
15B02
100
AcDbXrecord
280
     1
  1
arc
  1
*arc
  1
*
  1
*
 70
     0
  1
*
  1
*
  0
XRECORD
  5
15B1D
102
{ACAD_REACTORS
330
15B02
102
}
330
15B02
100
AcDbXrecord
280
     1
  1
arc1
  1
*arc1
  1
*
  1
*
 70
     0
  1
*
  1
*
  0
XRECORD
  5
15B1E
102
{ACAD_REACTORS
330
15B02
102
}
330
15B02
100
AcDbXrecord
280
     1
  1
arceer
  1
arce*
  1
*
  1
*
 70
     0
  1
*
  1
*
  0
XRECORD
  5
15B1F
102
{ACAD_REACTORS
330
15B02
102
}
330
15B02
100
AcDbXrecord
280
     1
  1
Arm
  1
Arm*
  1
*
  1
*
 70
     0
  1
*
  1
*
  0
XRECORD
  5
15B20
102
{ACAD_REACTORS
330
15B02
102
}
330
15B02
100
AcDbXrecord
280
     1
  1
AUSRUESTUNG
  1
OU*
  1
*
  1
*
 70
     0
  1
*
  1
*
  0
XRECORD
  5
15B21
102
{ACAD_REACTORS
330
15B02
102
}
330
15B02
100
AcDbXrecord
280
     1
  1
AV thawed
  1
*
  1
*
  1
*
 70
    48
  1
*
  1
*
  0
XRECORD
  5
15B22
102
{ACAD_REACTORS
330
15B02
102
}
330
15B02
100
AcDbXrecord
280
     1
  1
az
  1
*AZ*
  1
*
  1
*
 70
     0
  1
*
  1
*
  0
XRECORD
  5
15B23
102
{ACAD_REACTORS
330
15B02
102
}
330
15B02
100
AcDbXrecord
280
     1
  1
B
  1
*B
  1
*
  1
*
 70
     0
  1
*
  1
*
  0
XRECORD
  5
15B24
102
{ACAD_REACTORS
330
15B02
102
}
330
15B02
100
AcDbXrecord
280
     1
  1
BECKERPLEIN
  1
BL_BECKERPLEIN
  1
*
  1
*
 70
     0
  1
*
  1
*
  0
XRECORD
  5
15B25
102
{ACAD_REACTORS
330
15B02
102
}
330
15B02
100
AcDbXrecord
280
     1
  1
begane grond
  1
*
  1
*
  1
*
 70
     0
  1
*
  1
*
  0
XRECORD
  5
15B26
102
{ACAD_REACTORS
330
15B02
102
}
330
15B02
100
AcDbXrecord
280
     1
  1
below
  1
*below*
  1
*
  1
*
 70
     0
  1
*
  1
*
  0
XRECORD
  5
15B27
102
{ACAD_REACTORS
330
15B02
102
}
330
15B02
100
AcDbXrecord
280
     1
  1
BL_AANPASSING2
  1
BL_AANPASSING2
  1
*
  1
*
 70
     0
  1
*
  1
*
  0
XRECORD
  5
15B28
102
{ACAD_REACTORS
330
15B02
102
}
330
15B02
100
AcDbXrecord
280
     1
  1
BL_AANPASSINGEN
  1
BL_AANPASSINGEN
  1
*
  1
*
 70
     0
  1
*
  1
*
  0
XRECORD
  5
15B29
102
{ACAD_REACTORS
330
15B02
102
}
330
15B02
100
AcDbXrecord
280
     1
  1
black
  1
*
  1
white
  1
*
 70
     0
  1
*
  1
*
  0
XRECORD
  5
15B2A
102
{ACAD_REACTORS
330
15B02
102
}
330
15B02
100
AcDbXrecord
280
     1
  1
blauw
  1
*
  1
blue
  1
*
 70
     0
  1
*
  1
*
  0
XRECORD
  5
15B2B
102
{ACAD_REACTORS
330
15B02
102
}
330
15B02
100
AcDbXrecord
280
     1
  1
Boat
  1
Boat*
  1
*
  1
*
 70
     0
  1
*
  1
*
  0
XRECORD
  5
15B2C
102
{ACAD_REACTORS
330
15B02
102
}
330
15B02
100
AcDbXrecord
280
     1
  1
Border
  1
Border*
  1
*
  1
*
 70
     0
  1
*
  1
*
  0
XRECORD
  5
15B2D
102
{ACAD_REACTORS
330
15B02
102
}
330
15B02
100
AcDbXrecord
280
     1
  1
brenn
  1
*brenn*
  1
*
  1
*
 70
     0
  1
*
  1
*
  0
XRECORD
  5
15B2E
102
{ACAD_REACTORS
330
15B02
102
}
330
15B02
100
AcDbXrecord
280
     1
  1
c1
  1
*c1
  1
*
  1
*
 70
     0
  1
*
  1
*
  0
XRECORD
  5
15B2F
102
{ACAD_REACTORS
330
15B02
102
}
330
15B02
100
AcDbXrecord
280
     1
  1
c2
  1
*c2
  1
*
  1
*
 70
     0
  1
*
  1
*
  0
XRECORD
  5
15B30
102
{ACAD_REACTORS
330
15B02
102
}
330
15B02
100
AcDbXrecord
280
     1
  1
Calc
  1
*Calc*
  1
*
  1
*
 70
     0
  1
*
  1
*
  0
XRECORD
  5
15B31
102
{ACAD_REACTORS
330
15B02
102
}
330
15B02
100
AcDbXrecord
280
     1
  1
CC
  1
*
  1
*
  1
*
 70
     1
  1
*
  1
*
  0
XRECORD
  5
15B32
102
{ACAD_REACTORS
330
15B02
102
}
330
15B02
100
AcDbXrecord
280
     1
  1
CEILINGS
  1
*ceiling*
  1
*
  1
*
 70
     0
  1
*
  1
*
  0
XRECORD
  5
15B33
102
{ACAD_REACTORS
330
15B02
102
}
330
15B02
100
AcDbXrecord
280
     1
  1
cel
  1
*ceil*
  1
*
  1
*
 70
     0
  1
*
  1
*
  0
XRECORD
  5
15B34
102
{ACAD_REACTORS
330
15B02
102
}
330
15B02
100
AcDbXrecord
280
     1
  1
CHILLED WATER
  1
*
  1
*
  1
*
 70
  1025
  1
*
  1
*
  0
XRECORD
  5
15B35
102
{ACAD_REACTORS
330
15B02
102
}
330
15B02
100
AcDbXrecord
280
     1
  1
codes
  1
*codes*
  1
*
  1
*
 70
     0
  1
*
  1
*
  0
XRECORD
  5
15B36
102
{ACAD_REACTORS
330
15B02
102
}
330
15B02
100
AcDbXrecord
280
     1
  1
Color-92
  1
*
  1
92
  1
*
 70
     0
  1
*
  1
*
  0
XRECORD
  5
15B37
102
{ACAD_REACTORS
330
15B02
102
}
330
15B02
100
AcDbXrecord
280
     1
  1
Color-white
  1
*
  1
white
  1
*
 70
     0
  1
*
  1
*
  0
XRECORD
  5
15B38
102
{ACAD_REACTORS
330
15B02
102
}
330
15B02
100
AcDbXrecord
280
     1
  1
colour-34
  1
*
  1
*
  1
*
 70
     0
  1
*
  1
*
  0
XRECORD
  5
15B39
102
{ACAD_REACTORS
330
15B02
102
}
330
15B02
100
AcDbXrecord
280
     1
  1
cond
  1
*cond*
  1
*
  1
*
 70
     0
  1
*
  1
*
  0
XRECORD
  5
15B3A
102
{ACAD_REACTORS
330
15B02
102
}
330
15B02
100
AcDbXrecord
280
     1
  1
cu dem
  1
dem*
  1
*
  1
*
 70
     0
  1
*
  1
*
  0
XRECORD
  5
15B3B
102
{ACAD_REACTORS
330
15B02
102
}
330
15B02
100
AcDbXrecord
280
     1
  1
cu s2
  1
s2*
  1
*
  1
*
 70
     0
  1
*
  1
*
  0
XRECORD
  5
15B3C
102
{ACAD_REACTORS
330
15B02
102
}
330
15B02
100
AcDbXrecord
280
     1
  1
cut
  1
*cut*
  1
*
  1
*
 70
     0
  1
*
  1
*
  0
XRECORD
  5
15B3D
102
{ACAD_REACTORS
330
15B02
102
}
330
15B02
100
AcDbXrecord
280
     1
  1
D_
  1
D_*
  1
*
  1
*
 70
     0
  1
*
  1
*
  0
XRECORD
  5
15B3E
102
{ACAD_REACTORS
330
15B02
102
}
330
15B02
100
AcDbXrecord
280
     1
  1
dalaje
  1
dal*
  1
*
  1
*
 70
     0
  1
*
  1
*
  0
XRECORD
  5
15B3F
102
{ACAD_REACTORS
330
15B02
102
}
330
15B02
100
AcDbXrecord
280
     1
  1
Davit
  1
*davit*
  1
*
  1
*
 70
     0
  1
*
  1
*
  0
XRECORD
  5
15B40
102
{ACAD_REACTORS
330
15B02
102
}
330
15B02
100
AcDbXrecord
280
     1
  1
det
  1
*ding
  1
*
  1
*
 70
     0
  1
*
  1
*
  0
XRECORD
  5
15B41
102
{ACAD_REACTORS
330
15B02
102
}
330
15B02
100
AcDbXrecord
280
     1
  1
dim
  1
dim*
  1
*
  1
*
 70
     0
  1
*
  1
*
  0
XRECORD
  5
15B42
102
{ACAD_REACTORS
330
15B02
102
}
330
15B02
100
AcDbXrecord
280
     1
  1
dim-1-1
  1
*dim-1-1-ww
  1
*
  1
*
 70
     0
  1
*
  1
*
  0
XRECORD
  5
15B43
102
{ACAD_REACTORS
330
15B02
102
}
330
15B02
100
AcDbXrecord
280
     1
  1
dis
  1
*dis*
  1
*
  1
*
 70
     0
  1
*
  1
*
  0
XRECORD
  5
15B44
102
{ACAD_REACTORS
330
15B02
102
}
330
15B02
100
AcDbXrecord
280
     1
  1
Diversen
  1
Div*
  1
*
  1
*
 70
     0
  1
*
  1
*
  0
XRECORD
  5
15B45
102
{ACAD_REACTORS
330
15B02
102
}
330
15B02
100
AcDbXrecord
280
     1
  1
dsnede
  1
*snedes
  1
*
  1
*
 70
     0
  1
*
  1
*
  0
XRECORD
  5
15B46
102
{ACAD_REACTORS
330
15B02
102
}
330
15B02
100
AcDbXrecord
280
     1
  1
e
  1
e*
  1
*
  1
*
 70
     0
  1
*
  1
*
  0
XRECORD
  5
15B47
102
{ACAD_REACTORS
330
15B02
102
}
330
15B02
100
AcDbXrecord
280
     1
  1
E-TECHNIK
  1
EL*
  1
*
  1
*
 70
     0
  1
*
  1
*
  0
XRECORD
  5
15B48
102
{ACAD_REACTORS
330
15B02
102
}
330
15B02
100
AcDbXrecord
280
     1
  1
E1
  1
*e1
  1
*
  1
*
 70
     0
  1
*
  1
*
  0
XRECORD
  5
15B49
102
{ACAD_REACTORS
330
15B02
102
}
330
15B02
100
AcDbXrecord
280
     1
  1
E2
  1
*e2
  1
*
  1
*
 70
     0
  1
*
  1
*
  0
XRECORD
  5
15B4A
102
{ACAD_REACTORS
330
15B02
102
}
330
15B02
100
AcDbXrecord
280
     1
  1
E3
  1
*e3
  1
*
  1
*
 70
     0
  1
*
  1
*
  0
XRECORD
  5
15B4B
102
{ACAD_REACTORS
330
15B02
102
}
330
15B02
100
AcDbXrecord
280
     1
  1
e4
  1
*e4
  1
*
  1
*
 70
     0
  1
*
  1
*
  0
XRECORD
  5
15B4C
102
{ACAD_REACTORS
330
15B02
102
}
330
15B02
100
AcDbXrecord
280
     1
  1
EINRICHTUNG
  1
AC*
  1
*
  1
*
 70
     0
  1
*
  1
*
  0
XRECORD
  5
15B4D
102
{ACAD_REACTORS
330
15B02
102
}
330
15B02
100
AcDbXrecord
280
     1
  1
Electric
  1
Elec*
  1
*
  1
*
 70
     0
  1
*
  1
*
  0
XRECORD
  5
15B4E
102
{ACAD_REACTORS
330
15B02
102
}
330
15B02
100
AcDbXrecord
280
     1
  1
EXTRAPARKEREN
  1
BL_EXTRAPARKEREN
  1
*
  1
*
 70
     0
  1
*
  1
*
  0
XRECORD
  5
15B4F
102
{ACAD_REACTORS
330
15B02
102
}
330
15B02
100
AcDbXrecord
280
     1
  1
F
  1
*
  1
*
  1
*
 70
     4
  1
*
  1
*
  0
XRECORD
  5
15B50
102
{ACAD_REACTORS
330
15B02
102
}
330
15B02
100
AcDbXrecord
280
     1
  1
F-V
  1
*
  1
*
  1
*
 70
    12
  1
*
  1
*
  0
XRECORD
  5
15B51
102
{ACAD_REACTORS
330
15B02
102
}
330
15B02
100
AcDbXrecord
280
     1
  1
feuer
  1
*feuer*
  1
*
  1
*
 70
     0
  1
*
  1
*
  0
XRECORD
  5
15B52
102
{ACAD_REACTORS
330
15B02
102
}
330
15B02
100
AcDbXrecord
280
     1
  1
fire
  1
*fire*
  1
*
  1
*
 70
     0
  1
*
  1
*
  0
XRECORD
  5
15B53
102
{ACAD_REACTORS
330
15B02
102
}
330
15B02
100
AcDbXrecord
280
     1
  1
flur
  1
*flur*
  1
*
  1
*
 70
     0
  1
*
  1
*
  0
XRECORD
  5
15B54
102
{ACAD_REACTORS
330
15B02
102
}
330
15B02
100
AcDbXrecord
280
     1
  1
Frames
  1
F*
  1
*
  1
*
 70
     0
  1
*
  1
*
  0
XRECORD
  5
15B55
102
{ACAD_REACTORS
330
15B02
102
}
330
15B02
100
AcDbXrecord
280
     1
  1
freeze
  1
*
  1
*
  1
*
 70
     4
  1
*
  1
*
  0
XRECORD
  5
15B56
102
{ACAD_REACTORS
330
15B02
102
}
330
15B02
100
AcDbXrecord
280
     1
  1
frozen
  1
*
  1
*
  1
*
 70
     4
  1
*
  1
*
  0
XRECORD
  5
15B57
102
{ACAD_REACTORS
330
15B02
102
}
330
15B02
100
AcDbXrecord
280
     1
  1
fwd-1
  1
*f1
  1
*
  1
*
 70
     0
  1
*
  1
*
  0
XRECORD
  5
15B58
102
{ACAD_REACTORS
330
15B02
102
}
330
15B02
100
AcDbXrecord
280
     1
  1
fwd-2
  1
*f2
  1
*
  1
*
 70
     0
  1
*
  1
*
  0
XRECORD
  5
15B59
102
{ACAD_REACTORS
330
15B02
102
}
330
15B02
100
AcDbXrecord
280
     1
  1
fwd-3
  1
*f3
  1
*
  1
*
 70
     0
  1
*
  1
*
  0
XRECORD
  5
15B5A
102
{ACAD_REACTORS
330
15B02
102
}
330
15B02
100
AcDbXrecord
280
     1
  1
geel
  1
*
  1
yellow
  1
*
 70
     0
  1
*
  1
*
  0
XRECORD
  5
15B5B
102
{ACAD_REACTORS
330
15B02
102
}
330
15B02
100
AcDbXrecord
280
     1
  1
General
  1
*Gen*
  1
*
  1
*
 70
     0
  1
*
  1
*
  0
XRECORD
  5
15B5C
102
{ACAD_REACTORS
330
15B02
102
}
330
15B02
100
AcDbXrecord
280
     1
  1
glas
  1
*glas*
  1
*
  1
*
 70
     0
  1
*
  1
*
  0
XRECORD
  5
15B5D
102
{ACAD_REACTORS
330
15B02
102
}
330
15B02
100
AcDbXrecord
280
     1
  1
Graining
  1
*
  1
*34
  1
*
 70
     0
  1
*
  1
*
  0
XRECORD
  5
15B5E
102
{ACAD_REACTORS
330
15B02
102
}
330
15B02
100
AcDbXrecord
280
     1
  1
grey
  1
*grey*
  1
*
  1
*
 70
     0
  1
*
  1
*
  0
XRECORD
  5
15B5F
102
{ACAD_REACTORS
330
15B02
102
}
330
15B02
100
AcDbXrecord
280
     1
  1
groen
  1
*
  1
92
  1
*
 70
     0
  1
*
  1
*
  0
XRECORD
  5
15B60
102
{ACAD_REACTORS
330
15B02
102
}
330
15B02
100
AcDbXrecord
280
     1
  1
hartlijn
  1
*
  1
*
  1
*
 70
     0
  1
*
  1
*
  0
XRECORD
  5
15B61
102
{ACAD_REACTORS
330
15B02
102
}
330
15B02
100
AcDbXrecord
280
     1
  1
hatchprofiel
  1
BL_HATCHPROFIEL2
  1
*
  1
*
 70
     0
  1
*
  1
*
  0
XRECORD
  5
15B62
102
{ACAD_REACTORS
330
15B02
102
}
330
15B02
100
AcDbXrecord
280
     1
  1
hatchprofiel1
  1
BL_hatchprofiel1
  1
*
  1
*
 70
     0
  1
*
  1
*
  0
XRECORD
  5
15B63
102
{ACAD_REACTORS
330
15B02
102
}
330
15B02
100
AcDbXrecord
280
     1
  1
hauptm
  1
*hauptm*
  1
*
  1
*
 70
     0
  1
*
  1
*
  0
XRECORD
  5
15B64
102
{ACAD_REACTORS
330
15B02
102
}
330
15B02
100
AcDbXrecord
280
     1
  1
HID
  1
*HID
  1
*
  1
*
 70
     0
  1
*
  1
*
  0
XRECORD
  5
15B65
102
{ACAD_REACTORS
330
15B02
102
}
330
15B02
100
AcDbXrecord
280
     1
  1
HULL
  1
HU*
  1
*
  1
*
 70
     0
  1
*
  1
*
  0
XRECORD
  5
15B66
102
{ACAD_REACTORS
330
15B02
102
}
330
15B02
100
AcDbXrecord
280
     1
  1
hulplijn
  1
*hulplijn*
  1
*
  1
*
 70
     0
  1
*
  1
*
  0
XRECORD
  5
15B67
102
{ACAD_REACTORS
330
15B02
102
}
330
15B02
100
AcDbXrecord
280
     1
  1
Hydraulic
  1
Hyd*
  1
*
  1
*
 70
     0
  1
*
  1
*
  0
XRECORD
  5
15B68
102
{ACAD_REACTORS
330
15B02
102
}
330
15B02
100
AcDbXrecord
280
     1
  1
INF
  1
*inf*
  1
*
  1
*
 70
     0
  1
*
  1
*
  0
XRECORD
  5
15B69
102
{ACAD_REACTORS
330
15B02
102
}
330
15B02
100
AcDbXrecord
280
     1
  1
inw
  1
Spiro Geisoleerd
  1
yellow
  1
*
 70
     0
  1
*
  1
*
  0
XRECORD
  5
15B6A
102
{ACAD_REACTORS
330
15B02
102
}
330
15B02
100
AcDbXrecord
280
     1
  1
jochum 1
  1
*_*
  1
*
  1
*
 70
     0
  1
*
  1
*
  0
XRECORD
  5
15B6B
102
{ACAD_REACTORS
330
15B02
102
}
330
15B02
100
AcDbXrecord
280
     1
  1
joop
  1
*joop
  1
*
  1
*
 70
     0
  1
*
  1
*
  0
XRECORD
  5
15B6C
102
{ACAD_REACTORS
330
15B02
102
}
330
15B02
100
AcDbXrecord
280
     1
  1
kabelbahn
  1
*kabel*
  1
*
  1
*
 70
     0
  1
*
  1
*
  0
XRECORD
  5
15B6D
102
{ACAD_REACTORS
330
15B02
102
}
330
15B02
100
AcDbXrecord
280
     1
  1
kader
  1
Kad*
  1
*
  1
*
 70
     0
  1
*
  1
*
  0
XRECORD
  5
15B6E
102
{ACAD_REACTORS
330
15B02
102
}
330
15B02
100
AcDbXrecord
280
     1
  1
kuehl
  1
*kuehl*
  1
*
  1
*
 70
     0
  1
*
  1
*
  0
XRECORD
  5
15B6F
102
{ACAD_REACTORS
330
15B02
102
}
330
15B02
100
AcDbXrecord
280
     1
  1
LADDER
  1
LAD*
  1
*
  1
*
 70
     0
  1
*
  1
*
  0
XRECORD
  5
15B70
102
{ACAD_REACTORS
330
15B02
102
}
330
15B02
100
AcDbXrecord
280
     1
  1
lenz
  1
*lenz*
  1
*
  1
*
 70
     0
  1
*
  1
*
  0
XRECORD
  5
15B71
102
{ACAD_REACTORS
330
15B02
102
}
330
15B02
100
AcDbXrecord
280
     1
  1
LINII
  1
LINI*
  1
*
  1
*
 70
     0
  1
*
  1
*
  0
XRECORD
  5
15B72
102
{ACAD_REACTORS
330
15B02
102
}
330
15B02
100
AcDbXrecord
280
     1
  1
LOCK
  1
*
  1
*
  1
*
 70
     4
  1
*
  1
*
  0
XRECORD
  5
15B73
102
{ACAD_REACTORS
330
15B02
102
}
330
15B02
100
AcDbXrecord
280
     1
  1
locked
  1
*
  1
*
  1
*
 70
   256
  1
*
  1
*
  0
XRECORD
  5
15B74
102
{ACAD_REACTORS
330
15B02
102
}
330
15B02
100
AcDbXrecord
280
     1
  1
lueftung
  1
*luef*
  1
*
  1
*
 70
     0
  1
*
  1
*
  0
XRECORD
  5
15B75
102
{ACAD_REACTORS
330
15B02
102
}
330
15B02
100
AcDbXrecord
280
     1
  1
magenta
  1
*
  1
magenta
  1
*
 70
     0
  1
*
  1
*
  0
XRECORD
  5
15B76
102
{ACAD_REACTORS
330
15B02
102
}
330
15B02
100
AcDbXrecord
280
     1
  1
main
  1
*mainconstr*
  1
*
  1
*
 70
     0
  1
*
  1
*
  0
XRECORD
  5
15B77
102
{ACAD_REACTORS
330
15B02
102
}
330
15B02
100
AcDbXrecord
280
     1
  1
MAINGIRDER
  1
*MAINGIRDER
  1
*
  1
*
 70
     0
  1
*
  1
*
  0
XRECORD
  5
15B78
102
{ACAD_REACTORS
330
15B02
102
}
330
15B02
100
AcDbXrecord
280
     1
  1
midship
  1
61
  1
*
  1
*
 70
     0
  1
*
  1
*
  0
XRECORD
  5
15B79
102
{ACAD_REACTORS
330
15B02
102
}
330
15B02
100
AcDbXrecord
280
     1
  1
Mtext
  1
*MTEXT*
  1
*
  1
*
 70
     0
  1
*
  1
*
  0
XRECORD
  5
15B7A
102
{ACAD_REACTORS
330
15B02
102
}
330
15B02
100
AcDbXrecord
280
     1
  1
new
  1
s*
  1
*
  1
*
 70
     0
  1
*
  1
*
  0
XRECORD
  5
15B7B
102
{ACAD_REACTORS
330
15B02
102
}
330
15B02
100
AcDbXrecord
280
     1
  1
No xref
  1
*
  1
*
  1
*
 70
   768
  1
*
  1
*
  0
XRECORD
  5
15B7C
102
{ACAD_REACTORS
330
15B02
102
}
330
15B02
100
AcDbXrecord
280
     1
  1
off
  1
*
  1
*
  1
*
 70
     3
  1
*
  1
*
  0
XRECORD
  5
15B7D
102
{ACAD_REACTORS
330
15B02
102
}
330
15B02
100
AcDbXrecord
280
     1
  1
on
  1
*
  1
*
  1
*
 70
     1
  1
*
  1
*
  0
XRECORD
  5
15B7E
102
{ACAD_REACTORS
330
15B02
102
}
330
15B02
100
AcDbXrecord
280
     1
  1
open
  1
*open*
  1
*
  1
*
 70
     0
  1
*
  1
*
  0
XRECORD
  5
15B7F
102
{ACAD_REACTORS
330
15B02
102
}
330
15B02
100
AcDbXrecord
280
     1
  1
open-d
  1
*open*dim*
  1
*
  1
*
 70
     0
  1
*
  1
*
  0
XRECORD
  5
15B80
102
{ACAD_REACTORS
330
15B02
102
}
330
15B02
100
AcDbXrecord
280
     1
  1
open-p
  1
*part*
  1
*
  1
*
 70
     0
  1
*
  1
*
  0
XRECORD
  5
15B81
102
{ACAD_REACTORS
330
15B02
102
}
330
15B02
100
AcDbXrecord
280
     1
  1
open-t
  1
*open*text*
  1
*
  1
*
 70
     0
  1
*
  1
*
  0
XRECORD
  5
15B82
102
{ACAD_REACTORS
330
15B02
102
}
330
15B02
100
AcDbXrecord
280
     1
  1
Outline
  1
*
  1
*
  1
*
 70
    16
  1
*
  1
*
  0
XRECORD
  5
15B83
102
{ACAD_REACTORS
330
15B02
102
}
330
15B02
100
AcDbXrecord
280
     1
  1
p
  1
p*
  1
*
  1
*
 70
     0
  1
*
  1
*
  0
XRECORD
  5
15B84
102
{ACAD_REACTORS
330
15B02
102
}
330
15B02
100
AcDbXrecord
280
     1
  1
P1
  1
*p1
  1
*
  1
*
 70
     0
  1
*
  1
*
  0
XRECORD
  5
15B85
102
{ACAD_REACTORS
330
15B02
102
}
330
15B02
100
AcDbXrecord
280
     1
  1
P2
  1
*p2
  1
*34
  1
*
 70
     0
  1
*
  1
*
  0
XRECORD
  5
15B86
102
{ACAD_REACTORS
330
15B02
102
}
330
15B02
100
AcDbXrecord
280
     1
  1
P3
  1
*P3
  1
*
  1
*
 70
     0
  1
*
  1
*
  0
XRECORD
  5
15B87
102
{ACAD_REACTORS
330
15B02
102
}
330
15B02
100
AcDbXrecord
280
     1
  1
PANEL
  1
PANEL*
  1
*
  1
*
 70
     0
  1
*
  1
*
  0
XRECORD
  5
15B88
102
{ACAD_REACTORS
330
15B02
102
}
330
15B02
100
AcDbXrecord
280
     1
  1
PANELS
  1
*panels*
  1
*
  1
*
 70
     0
  1
*
  1
*
  0
XRECORD
  5
15B89
102
{ACAD_REACTORS
330
15B02
102
}
330
15B02
100
AcDbXrecord
280
     1
  1
Part
  1
*|part
  1
*
  1
*
 70
     0
  1
*
  1
*
  0
XRECORD
  5
15B8A
102
{ACAD_REACTORS
330
15B02
102
}
330
15B02
100
AcDbXrecord
280
     1
  1
PEN
  1
*pen*
  1
*
  1
*
 70
     0
  1
*
  1
*
  0
XRECORD
  5
15B8B
102
{ACAD_REACTORS
330
15B02
102
}
330
15B02
100
AcDbXrecord
280
     1
  1
penetr
  1
*pentr*
  1
*
  1
*
 70
     0
  1
*
  1
*
  0
XRECORD
  5
15B8C
102
{ACAD_REACTORS
330
15B02
102
}
330
15B02
100
AcDbXrecord
280
     1
  1
ph
  1
*ph*
  1
*
  1
*
 70
     0
  1
*
  1
*
  0
XRECORD
  5
15B8D
102
{ACAD_REACTORS
330
15B02
102
}
330
15B02
100
AcDbXrecord
280
     1
  1
pillar
  1
*pillar*
  1
*
  1
*
 70
     0
  1
*
  1
*
  0
XRECORD
  5
15B8E
102
{ACAD_REACTORS
330
15B02
102
}
330
15B02
100
AcDbXrecord
280
     1
  1
plan-1
  1
*p1
  1
*
  1
*
 70
     0
  1
*
  1
*
  0
XRECORD
  5
15B8F
102
{ACAD_REACTORS
330
15B02
102
}
330
15B02
100
AcDbXrecord
280
     1
  1
plan-2
  1
*p2
  1
*
  1
*
 70
     0
  1
*
  1
*
  0
XRECORD
  5
15B90
102
{ACAD_REACTORS
330
15B02
102
}
330
15B02
100
AcDbXrecord
280
     1
  1
plan-3
  1
*p3
  1
*
  1
*
 70
     0
  1
*
  1
*
  0
XRECORD
  5
15B91
102
{ACAD_REACTORS
330
15B02
102
}
330
15B02
100
AcDbXrecord
280
     1
  1
PLAN1
  1
*P1
  1
*
  1
*
 70
     0
  1
*
  1
*
  0
XRECORD
  5
15B92
102
{ACAD_REACTORS
330
15B02
102
}
330
15B02
100
AcDbXrecord
280
     1
  1
port-1
  1
*pt1
  1
*
  1
*
 70
     0
  1
*
  1
*
  0
XRECORD
  5
15B93
102
{ACAD_REACTORS
330
15B02
102
}
330
15B02
100
AcDbXrecord
280
     1
  1
port-2
  1
*pt2
  1
*
  1
*
 70
     0
  1
*
  1
*
  0
XRECORD
  5
15B94
102
{ACAD_REACTORS
330
15B02
102
}
330
15B02
100
AcDbXrecord
280
     1
  1
port-3
  1
*pt3
  1
*
  1
*
 70
     0
  1
*
  1
*
  0
XRECORD
  5
15B95
102
{ACAD_REACTORS
330
15B02
102
}
330
15B02
100
AcDbXrecord
280
     1
  1
profiel2
  1
BL_PROFIEL2
  1
*
  1
*
 70
     0
  1
*
  1
*
  0
XRECORD
  5
15B96
102
{ACAD_REACTORS
330
15B02
102
}
330
15B02
100
AcDbXrecord
280
     1
  1
profielen
  1
BL_profielen, BL_PROFIEL2
  1
*
  1
*
 70
     0
  1
*
  1
*
  0
XRECORD
  5
15B97
102
{ACAD_REACTORS
330
15B02
102
}
330
15B02
100
AcDbXrecord
280
     1
  1
pt1
  1
*pt1
  1
*
  1
*
 70
     0
  1
*
  1
*
  0
XRECORD
  5
15B98
102
{ACAD_REACTORS
330
15B02
102
}
330
15B02
100
AcDbXrecord
280
     1
  1
pt2
  1
*pt2
  1
*
  1
*
 70
     0
  1
*
  1
*
  0
XRECORD
  5
15B99
102
{ACAD_REACTORS
330
15B02
102
}
330
15B02
100
AcDbXrecord
280
     1
  1
pv
  1
p*-*
  1
*
  1
*
 70
     0
  1
*
  1
*
  0
XRECORD
  5
15B9A
102
{ACAD_REACTORS
330
15B02
102
}
330
15B02
100
AcDbXrecord
280
     1
  1
r
  1
r*
  1
*
  1
*
 70
     0
  1
*
  1
*
  0
XRECORD
  5
15B9B
102
{ACAD_REACTORS
330
15B02
102
}
330
15B02
100
AcDbXrecord
280
     1
  1
r-dim
  1
r-dim*
  1
*
  1
*
 70
     0
  1
*
  1
*
  0
XRECORD
  5
15B9C
102
{ACAD_REACTORS
330
15B02
102
}
330
15B02
100
AcDbXrecord
280
     1
  1
railing
  1
*railing
  1
*
  1
*
 70
     0
  1
*
  1
*
  0
XRECORD
  5
15B9D
102
{ACAD_REACTORS
330
15B02
102
}
330
15B02
100
AcDbXrecord
280
     1
  1
REF
  1
A9800*
  1
8
  1
*
 70
   256
  1
*
  1
*
  0
XRECORD
  5
15B9E
102
{ACAD_REACTORS
330
15B02
102
}
330
15B02
100
AcDbXrecord
280
     1
  1
Remote Control
  1
Rc*
  1
*
  1
*
 70
     0
  1
*
  1
*
  0
XRECORD
  5
15B9F
102
{ACAD_REACTORS
330
15B02
102
}
330
15B02
100
AcDbXrecord
280
     1
  1
Remote Controle
  1
Rc*
  1
*
  1
*
 70
     0
  1
*
  1
*
  0
XRECORD
  5
15BA0
102
{ACAD_REACTORS
330
15B02
102
}
330
15B02
100
AcDbXrecord
280
     1
  1
REV
  1
*RE*
  1
*
  1
*
 70
     0
  1
*
  1
*
  0
XRECORD
  5
15BA1
102
{ACAD_REACTORS
330
15B02
102
}
330
15B02
100
AcDbXrecord
280
     1
  1
roland
  1
*
  1
red
  1
*
 70
     0
  1
*
  1
*
  0
XRECORD
  5
15BA2
102
{ACAD_REACTORS
330
15B02
102
}
330
15B02
100
AcDbXrecord
280
     1
  1
S0
  1
S0*
  1
*
  1
*
 70
     0
  1
*
  1
*
  0
XRECORD
  5
15BA3
102
{ACAD_REACTORS
330
15B02
102
}
330
15B02
100
AcDbXrecord
280
     1
  1
s1
  1
*S1
  1
*
  1
*
 70
     0
  1
*
  1
*
  0
XRECORD
  5
15BA4
102
{ACAD_REACTORS
330
15B02
102
}
330
15B02
100
AcDbXrecord
280
     1
  1
s2
  1
*s2
  1
*
  1
*
 70
     0
  1
*
  1
*
  0
XRECORD
  5
15BA5
102
{ACAD_REACTORS
330
15B02
102
}
330
15B02
100
AcDbXrecord
280
     1
  1
scupper
  1
*scupper*
  1
*
  1
*
 70
     0
  1
*
  1
*
  0
XRECORD
  5
15BA6
102
{ACAD_REACTORS
330
15B02
102
}
330
15B02
100
AcDbXrecord
280
     1
  1
SECSTIF
  1
*SECSTIF
  1
*
  1
*
 70
     0
  1
*
  1
*
  0
XRECORD
  5
15BA7
102
{ACAD_REACTORS
330
15B02
102
}
330
15B02
100
AcDbXrecord
280
     1
  1
section
  1
*
  1
*
  1
*
 70
     0
  1
*
  1
*
  0
XRECORD
  5
15BA8
102
{ACAD_REACTORS
330
15B02
102
}
330
15B02
100
AcDbXrecord
280
     1
  1
Ship
  1
*ship*
  1
*
  1
*
 70
     0
  1
*
  1
*
  0
XRECORD
  5
15BA9
102
{ACAD_REACTORS
330
15B02
102
}
330
15B02
100
AcDbXrecord
280
     1
  1
shut
  1
s*
  1
*
  1
*
 70
     0
  1
*
  1
*
  0
XRECORD
  5
15BAA
102
{ACAD_REACTORS
330
15B02
102
}
330
15B02
100
AcDbXrecord
280
     1
  1
SIT
  1
SIT*
  1
*
  1
*
 70
     0
  1
*
  1
*
  0
XRECORD
  5
15BAB
102
{ACAD_REACTORS
330
15B02
102
}
330
15B02
100
AcDbXrecord
280
     1
  1
souterrain
  1
*
  1
*
  1
*
 70
     0
  1
*
  1
*
  0
XRECORD
  5
15BAC
102
{ACAD_REACTORS
330
15B02
102
}
330
15B02
100
AcDbXrecord
280
     1
  1
sp
  1
*sp*
  1
*
  1
*
 70
     0
  1
*
  1
*
  0
XRECORD
  5
15BAD
102
{ACAD_REACTORS
330
15B02
102
}
330
15B02
100
AcDbXrecord
280
     1
  1
span
  1
*span*
  1
*
  1
*
 70
     0
  1
*
  1
*
  0
XRECORD
  5
15BAE
102
{ACAD_REACTORS
330
15B02
102
}
330
15B02
100
AcDbXrecord
280
     1
  1
stb-1
  1
*s1
  1
*
  1
*
 70
     0
  1
*
  1
*
  0
XRECORD
  5
15BAF
102
{ACAD_REACTORS
330
15B02
102
}
330
15B02
100
AcDbXrecord
280
     1
  1
stb-2
  1
*s2
  1
*
  1
*
 70
     0
  1
*
  1
*
  0
XRECORD
  5
15BB0
102
{ACAD_REACTORS
330
15B02
102
}
330
15B02
100
AcDbXrecord
280
     1
  1
stb-3
  1
*s3
  1
*
  1
*
 70
     0
  1
*
  1
*
  0
XRECORD
  5
15BB1
102
{ACAD_REACTORS
330
15B02
102
}
330
15B02
100
AcDbXrecord
280
     1
  1
Stool
  1
Stool*
  1
*
  1
*
 70
     0
  1
*
  1
*
  0
XRECORD
  5
15BB2
102
{ACAD_REACTORS
330
15B02
102
}
330
15B02
100
AcDbXrecord
280
     1
  1
stowage
  1
00*
  1
*
  1
*
 70
     0
  1
*
  1
*
  0
XRECORD
  5
15BB3
102
{ACAD_REACTORS
330
15B02
102
}
330
15B02
100
AcDbXrecord
280
     1
  1
SUFLATORI
  1
*
  1
*
  1
*
 70
     1
  1
*
  1
*
  0
XRECORD
  5
15BB4
102
{ACAD_REACTORS
330
15B02
102
}
330
15B02
100
AcDbXrecord
280
     1
  1
suplay
  1
*sup*
  1
*
  1
*
 70
     0
  1
*
  1
*
  0
XRECORD
  5
15BB5
102
{ACAD_REACTORS
330
15B02
102
}
330
15B02
100
AcDbXrecord
280
     1
  1
susp
  1
susp*
  1
*
  1
*
 70
     0
  1
*
  1
*
  0
XRECORD
  5
15BB6
102
{ACAD_REACTORS
330
15B02
102
}
330
15B02
100
AcDbXrecord
280
     1
  1
Suspension
  1
Susp*
  1
*
  1
*
 70
     0
  1
*
  1
*
  0
XRECORD
  5
15BB7
102
{ACAD_REACTORS
330
15B02
102
}
330
15B02
100
AcDbXrecord
280
     1
  1
synbool
  1
symbool
  1
*
  1
*
 70
     0
  1
*
  1
*
  0
XRECORD
  5
15BB8
102
{ACAD_REACTORS
330
15B02
102
}
330
15B02
100
AcDbXrecord
280
     1
  1
T
  1
*
  1
*
  1
*
 70
    12
  1
*
  1
*
  0
XRECORD
  5
15BB9
102
{ACAD_REACTORS
330
15B02
102
}
330
15B02
100
AcDbXrecord
280
     1
  1
tekst
  1
*tekst
  1
*
  1
*
 70
     0
  1
*
  1
*
  0
XRECORD
  5
15BBA
102
{ACAD_REACTORS
330
15B02
102
}
330
15B02
100
AcDbXrecord
280
     1
  1
temp
  1
*
  1
green
  1
*
 70
    13
  1
*
  1
*
  0
XRECORD
  5
15BBB
102
{ACAD_REACTORS
330
15B02
102
}
330
15B02
100
AcDbXrecord
280
     1
  1
test
  1
*
  1
*
  1
*
 70
     0
  1
*
  1
*
  0
XRECORD
  5
15BBC
102
{ACAD_REACTORS
330
15B02
102
}
330
15B02
100
AcDbXrecord
280
     1
  1
text
  1
*
  1
*
  1
*
 70
     0
  1
*
  1
*
  0
XRECORD
  5
15BBD
102
{ACAD_REACTORS
330
15B02
102
}
330
15B02
100
AcDbXrecord
280
     1
  1
TH
  1
*
  1
*
  1
*
 70
    12
  1
*
  1
*
  0
XRECORD
  5
15BBE
102
{ACAD_REACTORS
330
15B02
102
}
330
15B02
100
AcDbXrecord
280
     1
  1
TOPPLATE
  1
*TOPPLATE
  1
*
  1
*
 70
     0
  1
*
  1
*
  0
XRECORD
  5
15BBF
102
{ACAD_REACTORS
330
15B02
102
}
330
15B02
100
AcDbXrecord
280
     1
  1
tray
  1
*tray*
  1
*
  1
*
 70
     0
  1
*
  1
*
  0
XRECORD
  5
15BC0
102
{ACAD_REACTORS
330
15B02
102
}
330
15B02
100
AcDbXrecord
280
     1
  1
treppe
  1
*treppe*
  1
*
  1
*
 70
     0
  1
*
  1
*
  0
XRECORD
  5
15BC1
102
{ACAD_REACTORS
330
15B02
102
}
330
15B02
100
AcDbXrecord
280
     1
  1
tt
  1
u*
  1
*
  1
*
 70
     0
  1
*
  1
*
  0
XRECORD
  5
15BC2
102
{ACAD_REACTORS
330
15B02
102
}
330
15B02
100
AcDbXrecord
280
     1
  1
txt
  1
*txt*
  1
*
  1
*
 70
     0
  1
*
  1
*
  0
XRECORD
  5
15BC3
102
{ACAD_REACTORS
330
15B02
102
}
330
15B02
100
AcDbXrecord
280
     1
  1
v31
  1
V31*
  1
*
  1
*
 70
     0
  1
*
  1
*
  0
XRECORD
  5
15BC4
102
{ACAD_REACTORS
330
15B02
102
}
330
15B02
100
AcDbXrecord
280
     1
  1
VOLHARDING
  1
*_*
  1
*
  1
*
 70
     0
  1
*
  1
*
  0
XRECORD
  5
15BC5
102
{ACAD_REACTORS
330
15B02
102
}
330
15B02
100
AcDbXrecord
280
     1
  1
vul
  1
*vulling
  1
*
  1
*
 70
     0
  1
*
  1
*
  0
XRECORD
  5
15BC6
102
{ACAD_REACTORS
330
15B02
102
}
330
15B02
100
AcDbXrecord
280
     1
  1
W
  1
W*
  1
*
  1
*
 70
     0
  1
*
  1
*
  0
XRECORD
  5
15BC7
102
{ACAD_REACTORS
330
15B02
102
}
330
15B02
100
AcDbXrecord
280
     1
  1
w.t. lines
  1
*w.t. lines*
  1
*
  1
*
 70
     0
  1
*
  1
*
  0
XRECORD
  5
15BC8
102
{ACAD_REACTORS
330
15B02
102
}
330
15B02
100
AcDbXrecord
280
     1
  1
wadigoten
  1
BL_WADIGOTEN
  1
*
  1
*
 70
     0
  1
*
  1
*
  0
XRECORD
  5
15BC9
102
{ACAD_REACTORS
330
15B02
102
}
330
15B02
100
AcDbXrecord
280
     1
  1
water
  1
*water*
  1
*
  1
*
 70
     0
  1
*
  1
*
  0
XRECORD
  5
15BCA
102
{ACAD_REACTORS
330
15B02
102
}
330
15B02
100
AcDbXrecord
280
     1
  1
Waterlines
  1
wl*
  1
*
  1
*
 70
     0
  1
*
  1
*
  0
XRECORD
  5
15BCB
102
{ACAD_REACTORS
330
15B02
102
}
330
15B02
100
AcDbXrecord
280
     1
  1
white
  1
*
  1
white
  1
*
 70
     0
  1
*
  1
*
  0
XRECORD
  5
15BCC
102
{ACAD_REACTORS
330
15B02
102
}
330
15B02
100
AcDbXrecord
280
     1
  1
Winch
  1
Winch*
  1
*
  1
*
 70
     0
  1
*
  1
*
  0
XRECORD
  5
15BCD
102
{ACAD_REACTORS
330
15B02
102
}
330
15B02
100
AcDbXrecord
280
     1
  1
wire
  1
wire*
  1
*
  1
*
 70
     0
  1
*
  1
*
  0
XRECORD
  5
15BCE
102
{ACAD_REACTORS
330
15B02
102
}
330
15B02
100
AcDbXrecord
280
     1
  1
ww
  1
*ww
  1
*
  1
*
 70
     0
  1
*
  1
*
  0
XRECORD
  5
15BCF
102
{ACAD_REACTORS
330
15B02
102
}
330
15B02
100
AcDbXrecord
280
     1
  1
ww1
  1
ww*
  1
*
  1
*
 70
     0
  1
*
  1
*
  0
XRECORD
  5
15BD0
102
{ACAD_REACTORS
330
15B02
102
}
330
15B02
100
AcDbXrecord
280
     1
  1
zichtbareHWA
  1
BL_zichtbareHWA
  1
*
  1
*
 70
     0
  1
*
  1
*
  0
XRECORD
  5
15BD1
102
{ACAD_REACTORS
330
15B02
102
}
330
15B02
100
AcDbXrecord
280
     1
  1

  1
**
  1
*
  1
*
 70
     0
  1
*
  1
*
  0
ENDSEC
  0
EOF
