999
dxfrw 0.6.3
  0
SECTION
  2
HEADER
  9
$ACADVER
  1
AC1021
  9
$DWGCODEPAGE
  3
ANSI_1252
  9
$INSBASE
 10
0
 20
0
 30
0
  9
$EXTMIN
 10
0
 20
0
 30
0
  9
$EXTMAX
 10
83905.05004229934
 20
5980.211033777969
 30
0
  9
$LIMMIN
 10
0
 20
0
  9
$LIMMAX
 10
12
 20
9
  9
$ORTHOMODE
 70
    0
  9
$REGENMODE
 70
    1
  9
$FILLMODE
 70
    1
  9
$QTEXTMODE
 70
    0
  9
$MIRRTEXT
 70
    1
  9
$LTSCALE
 40
1
  9
$ATTMODE
 70
    1
  9
$TEXTSIZE
 40
12
  9
$TRACEWID
 40
0.05
  9
$TEXTSTYLE
  7
ARIAL
  9
$CLAYER
  8
Suction PS
  9
$CELTYPE
  6
CONTINUOUS
  9
$CECOLOR
 62
  256
  9
$CELTSCALE
 40
1
  9
$DISPSILH
 70
    0
  9
$DIMSCALE
 40
1
  9
$DIMASZ
 40
12
  9
$DIMEXO
 40
0.06
  9
$DIMDLI
 40
0.15
  9
$DIMRND
 40
0
  9
$DIMDLE
 40
0
  9
$DIMEXE
 40
0.3
  9
$DIMTP
 40
0
  9
$DIMTM
 40
0
  9
$DIMTXT
 40
12
  9
$DIMCEN
 40
0.09
  9
$DIMTSZ
 40
0
  9
$DIMTOL
 70
    0
  9
$DIMLIM
 70
    0
  9
$DIMTIH
 70
    1
  9
$DIMTOH
 70
    1
  9
$DIMSE1
 70
    0
  9
$DIMSE2
 70
    0
  9
$DIMTAD
 70
    0
  9
$DIMZIN
 70
    0
  9
$DIMBLK
  1

  9
$DIMASO
 70
    1
  9
$DIMSHO
 70
    1
  9
$DIMPOST
  1

  9
$DIMAPOST
  1

  9
$DIMALT
 70
    0
  9
$DIMALTD
 70
    2
  9
$DIMALTF
 40
25.4
  9
$DIMLFAC
 40
1
  9
$DIMTOFL
 70
    0
  9
$DIMTVP
 40
0
  9
$DIMTIX
 70
    0
  9
$DIMSOXD
 70
    0
  9
$DIMSAH
 70
    0
  9
$DIMBLK1
  1

  9
$DIMBLK2
  1

  9
$DIMSTYLE
  2
TST
  9
$DIMCLRD
 70
    7
  9
$DIMCLRE
 70
    0
  9
$DIMCLRT
 70
    7
  9
$DIMTFAC
 40
0.07199999999999999
  9
$DIMGAP
 40
3
  9
$DIMJUST
 70
    0
  9
$DIMSD1
 70
    0
  9
$DIMSD2
 70
    0
  9
$DIMTOLJ
 70
    1
  9
$DIMTZIN
 70
    0
  9
$DIMALTZ
 70
    0
  9
$DIMALTTZ
 70
    0
  9
$DIMUPT
 70
    0
  9
$DIMDEC
 70
    2
  9
$DIMTDEC
 70
    1
  9
$DIMALTU
 70
    2
  9
$DIMALTTD
 70
    2
  9
$DIMTXSTY
  7
ARIAL
  9
$DIMAUNIT
 70
    0
  9
$DIMADEC
 70
    0
  9
$DIMALTRND
 40
0
  9
$DIMAZIN
 70
    0
  9
$DIMDSEP
 70
   46
  9
$DIMATFIT
 70
    3
  9
$DIMFRAC
 70
    0
  9
$DIMLDRBLK
  1

  9
$DIMLUNIT
 70
    2
  9
$DIMLWD
 70
   -2
  9
$DIMLWE
 70
   -2
  9
$DIMTMOVE
 70
    0
  9
$DIMFXL
 40
1
  9
$DIMFXLON
 70
    0
  9
$DIMJOGANG
 40
0.7854
  9
$DIMTFILL
 70
    0
  9
$DIMTFILLCLR
 70
    0
  9
$DIMARCSYM
 70
    0
  9
$DIMLTYPE
  6

  9
$DIMLTEX1
  6

  9
$DIMLTEX2
  6

  9
$LUNITS
 70
    2
  9
$LUPREC
 70
    2
  9
$SKETCHINC
 40
0.1
  9
$FILLETRAD
 40
3
  9
$AUNITS
 70
    0
  9
$AUPREC
 70
    0
  9
$MENU
  1
acad
  9
$ELEVATION
 40
0
  9
$PELEVATION
 40
0
  9
$THICKNESS
 40
0.1
  9
$LIMCHECK
 70
    0
  9
$CHAMFERA
 40
0
  9
$CHAMFERB
 40
0
  9
$CHAMFERC
 40
10
  9
$CHAMFERD
 40
0.174532925199433
  9
$SKPOLY
 70
    0
  9
$USRTIMER
 70
    1
  9
$ANGBASE
 50
0
  9
$ANGDIR
 70
    0
  9
$PDMODE
 70
    0
  9
$PDSIZE
 40
0
  9
$PLINEWID
 40
0.3
  9
$SPLFRAME
 70
    1
  9
$SPLINETYPE
 70
    6
  9
$SPLINESEGS
 70
    8
  9
$HANDSEED
  5
20000
  9
$SURFTAB1
 70
    6
  9
$SURFTAB2
 70
    6
  9
$SURFTYPE
 70
    6
  9
$SURFU
 70
    6
  9
$SURFV
 70
    6
  9
$UCSBASE
  2

  9
$UCSNAME
  2

  9
$UCSORG
 10
-1376.91011567699
 20
669.2683454919897
 30
0
  9
$UCSXDIR
 10
1
 20
0
 30
0
  9
$UCSYDIR
 10
0
 20
1
 30
0
  9
$UCSORTHOREF
  2

  9
$UCSORTHOVIEW
 70
    0
  9
$UCSORGTOP
 10
0
 20
0
 30
0
  9
$UCSORGBOTTOM
 10
0
 20
0
 30
0
  9
$UCSORGLEFT
 10
0
 20
0
 30
0
  9
$UCSORGRIGHT
 10
0
 20
0
 30
0
  9
$UCSORGFRONT
 10
0
 20
0
 30
0
  9
$UCSORGBACK
 10
0
 20
0
 30
0
  9
$PUCSBASE
  2

  9
$PUCSNAME
  2

  9
$PUCSORG
 10
0
 20
0
 30
0
  9
$PUCSXDIR
 10
1
 20
0
 30
0
  9
$PUCSYDIR
 10
0
 20
1
 30
0
  9
$PUCSORTHOREF
  2

  9
$PUCSORTHOVIEW
 70
    0
  9
$PUCSORGTOP
 10
0
 20
0
 30
0
  9
$PUCSORGBOTTOM
 10
0
 20
0
 30
0
  9
$PUCSORGLEFT
 10
0
 20
0
 30
0
  9
$PUCSORGRIGHT
 10
0
 20
0
 30
0
  9
$PUCSORGFRONT
 10
0
 20
0
 30
0
  9
$PUCSORGBACK
 10
0
 20
0
 30
0
  9
$USERI1
 70
    0
  9
$USERI2
 70
    0
  9
$USERI3
 70
    0
  9
$USERI4
 70
    0
  9
$USERI5
 70
    0
  9
$USERR1
 40
0
  9
$USERR2
 40
0
  9
$USERR3
 40
0
  9
$USERR4
 40
0
  9
$USERR5
 40
0
  9
$WORLDVIEW
 70
    1
  9
$SHADEDGE
 70
    3
  9
$SHADEDIF
 70
   70
  9
$TILEMODE
 70
    1
  9
$MAXACTVP
 70
   16
  9
$PINSBASE
 10
0
 20
0
 30
0
  9
$PLIMCHECK
 70
    0
  9
$PEXTMIN
 10
1e+020
 20
1e+020
 30
1e+020
  9
$PEXTMAX
 10
-1e+020
 20
-1e+020
 30
-1e+020
  9
$GRIDMODE
 70
    0
  9
$SNAPSTYLE
 70
    0
  9
$PLIMMIN
 10
0
 20
0
  9
$PLIMMAX
 10
12
 20
9
  9
$UNITMODE
 70
    0
  9
$VISRETAIN
 70
    0
  9
$PLINEGEN
 70
    0
  9
$PSLTSCALE
 70
    0
  9
$TREEDEPTH
 70
 3020
  9
$CMLSTYLE
  2
STANDARD
  9
$CMLJUST
 70
    0
  9
$CMLSCALE
 40
1
  9
$PROXYGRAPHICS
 70
    1
  9
$MEASUREMENT
 70
    0
  9
$CELWEIGHT
370
   -1
  9
$ENDCAPS
280
    0
  9
$JOINSTYLE
280
    0
  9
$LWDISPLAY
290
    0
  9
$INSUNITS
 70
    0
  9
$HYPERLINKBASE
  1

  9
$STYLESHEET
  1

  9
$XEDIT
290
    1
  9
$CEPSNTYPE
380
    0
  9
$PSTYLEMODE
290
    1
  9
$EXTNAMES
290
    1
  9
$PSVPSCALE
 40
0
  9
$OLESTARTUP
290
    0
  9
$SORTENTS
280
   96
  9
$INDEXCTL
280
    0
  9
$HIDETEXT
280
    0
  9
$XCLIPFRAME
290
    0
  9
$HALOGAP
280
    0
  9
$OBSCOLOR
 70
  257
  9
$OBSLTYPE
280
    0
  9
$INTERSECTIONDISPLAY
280
    0
  9
$INTERSECTIONCOLOR
 70
  257
  9
$DIMASSOC
280
    1
  9
$PROJECTNAME
  1

  9
$CAMERADISPLAY
290
    0
  9
$LENSLENGTH
 40
50
  9
$CAMERAHEIGHT
 40
0
  9
$STEPSPERSEC
 40
2
  9
$STEPSIZE
 40
50
  9
$3DDWFPREC
 40
2
  9
$PSOLWIDTH
 40
5
  9
$PSOLHEIGHT
 40
80
  9
$LOFTANG1
 40
1.570796326794897
  9
$LOFTANG2
 40
1.570796326794897
  9
$LOFTMAG1
 40
0
  9
$LOFTMAG2
 40
0
  9
$LOFTPARAM
 70
    7
  9
$LOFTNORMALS
280
    1
  9
$LATITUDE
 40
1
  9
$LONGITUDE
 40
1
  9
$NORTHDIRECTION
 40
0
  9
$TIMEZONE
 70
-8000
  9
$LIGHTGLYPHDISPLAY
280
    1
  9
$TILEMODELIGHTSYNCH
280
    1
  9
$SOLIDHIST
280
    1
  9
$SHOWHIST
280
    1
  9
$DWFFRAME
280
    2
  9
$DGNFRAME
280
    0
  9
$REALWORLDSCALE
290
    1
  9
$INTERFERECOLOR
 62
    1
  9
$CSHADOW
280
    0
  9
$SHADOWPLANELOCATION
 40
0
  0
ENDSEC
  0
SECTION
  2
CLASSES
  0
ENDSEC
  0
SECTION
  2
TABLES
  0
TABLE
  2
VPORT
  5
8
330
0
100
AcDbSymbolTable
 70
    1
  0
VPORT
  5
31
330
2
100
AcDbSymbolTableRecord
100
AcDbViewportTableRecord
  2
*ACTIVE
 70
    0
 10
0
 20
0
 11
1
 21
1
 12
43872.55703595489
 22
2587.071514687108
 13
0
 23
0
 14
10
 24
10
 15
10
 25
10
 16
0
 26
0
 36
1
 17
0
 27
0
 37
0
 40
5741.798065383745
 41
1.802272727272727
 42
50
 43
0
 44
0
 50
0
 51
0
 71
    0
 72
  100
 73
    1
 74
    3
 75
    0
 76
    0
 77
    0
 78
    0
281
    0
 65
    1
110
0
120
0
130
0
111
1
121
0
131
0
112
0
122
1
132
0
 79
    0
146
0
348
10020
 60
    7
 61
    5
292
1
282
    1
141
0
142
0
 63
  250
421
3358443
  0
ENDTAB
  0
TABLE
  2
LTYPE
  5
5
330
0
100
AcDbSymbolTable
 70
    4
  0
LTYPE
  5
14
330
5
100
AcDbSymbolTableRecord
100
AcDbLinetypeTableRecord
  2
ByBlock
 70
    0
  3

 72
   65
 73
    0
 40
0
  0
LTYPE
  5
15
330
5
100
AcDbSymbolTableRecord
100
AcDbLinetypeTableRecord
  2
ByLayer
 70
    0
  3

 72
   65
 73
    0
 40
0
  0
LTYPE
  5
16
330
5
100
AcDbSymbolTableRecord
100
AcDbLinetypeTableRecord
  2
Continuous
 70
    0
  3
Solid line
 72
   65
 73
    0
 40
0
  0
LTYPE
  5
32
330
5
100
AcDbSymbolTableRecord
100
AcDbLinetypeTableRecord
  2
DOT
 70
    0
  3
Dot . . . . . . . . . . . . . . . . . . . . . .
 72
   65
 73
    2
 40
6.35
 49
0
 74
    0
 49
-6.35
 74
    0
  0
LTYPE
  5
33
330
5
100
AcDbSymbolTableRecord
100
AcDbLinetypeTableRecord
  2
DOTTINY
 70
    0
  3
Dot (.15x) .....................................
 72
   65
 73
    2
 40
0.9525
 49
0
 74
    0
 49
-0.9525
 74
    0
  0
LTYPE
  5
34
330
5
100
AcDbSymbolTableRecord
100
AcDbLinetypeTableRecord
  2
DOT2
 70
    0
  3
Dot (.5x) .....................................
 72
   65
 73
    2
 40
3.175
 49
0
 74
    0
 49
-3.175
 74
    0
  0
LTYPE
  5
35
330
5
100
AcDbSymbolTableRecord
100
AcDbLinetypeTableRecord
  2
DOTX2
 70
    0
  3
Dot (2x) .  .  .  .  .  .  .  .  .  .  .  .  .
 72
   65
 73
    2
 40
12.7
 49
0
 74
    0
 49
-12.7
 74
    0
  0
LTYPE
  5
36
330
5
100
AcDbSymbolTableRecord
100
AcDbLinetypeTableRecord
  2
DASHED
 70
    0
  3
Dashed _ _ _ _ _ _ _ _ _ _ _ _ _ _ _ _ _
 72
   65
 73
    2
 40
19.05
 49
12.7
 74
    0
 49
-6.35
 74
    0
  0
LTYPE
  5
37
330
5
100
AcDbSymbolTableRecord
100
AcDbLinetypeTableRecord
  2
DASHEDTINY
 70
    0
  3
Dashed (.15x) _ _ _ _ _ _ _ _ _ _ _ _ _ _ _ _ _
 72
   65
 73
    2
 40
2.8575
 49
1.905
 74
    0
 49
-0.9525
 74
    0
  0
LTYPE
  5
38
330
5
100
AcDbSymbolTableRecord
100
AcDbLinetypeTableRecord
  2
DASHED2
 70
    0
  3
Dashed (.5x) _ _ _ _ _ _ _ _ _ _ _ _ _ _ _ _ _
 72
   65
 73
    2
 40
9.524999999999999
 49
6.35
 74
    0
 49
-3.175
 74
    0
  0
LTYPE
  5
39
330
5
100
AcDbSymbolTableRecord
100
AcDbLinetypeTableRecord
  2
DASHEDX2
 70
    0
  3
Dashed (2x) ____  ____  ____  ____  ____  ___
 72
   65
 73
    2
 40
38.09999999999999
 49
25.4
 74
    0
 49
-12.7
 74
    0
  0
LTYPE
  5
3A
330
5
100
AcDbSymbolTableRecord
100
AcDbLinetypeTableRecord
  2
DASHDOT
 70
    0
  3
Dash dot __ . __ . __ . __ . __ . __ . __ . __
 72
   65
 73
    4
 40
25.4
 49
12.7
 74
    0
 49
-6.35
 74
    0
 49
0
 74
    0
 49
-6.35
 74
    0
  0
LTYPE
  5
3B
330
5
100
AcDbSymbolTableRecord
100
AcDbLinetypeTableRecord
  2
DASHDOTTINY
 70
    0
  3
Dash dot (.15x) _._._._._._._._._._._._._._._.
 72
   65
 73
    4
 40
3.81
 49
1.905
 74
    0
 49
-0.9525
 74
    0
 49
0
 74
    0
 49
-0.9525
 74
    0
  0
LTYPE
  5
3C
330
5
100
AcDbSymbolTableRecord
100
AcDbLinetypeTableRecord
  2
DASHDOT2
 70
    0
  3
Dash dot (.5x) _._._._._._._._._._._._._._._.
 72
   65
 73
    4
 40
12.7
 49
6.35
 74
    0
 49
-3.175
 74
    0
 49
0
 74
    0
 49
-3.175
 74
    0
  0
LTYPE
  5
3D
330
5
100
AcDbSymbolTableRecord
100
AcDbLinetypeTableRecord
  2
DASHDOTX2
 70
    0
  3
Dash dot (2x) ____  .  ____  .  ____  .  ___
 72
   65
 73
    4
 40
50.8
 49
25.4
 74
    0
 49
-12.7
 74
    0
 49
0
 74
    0
 49
-12.7
 74
    0
  0
LTYPE
  5
3E
330
5
100
AcDbSymbolTableRecord
100
AcDbLinetypeTableRecord
  2
DIVIDE
 70
    0
  3
Divide ____ . . ____ . . ____ . . ____ . . ____
 72
   65
 73
    6
 40
31.75
 49
12.7
 74
    0
 49
-6.35
 74
    0
 49
0
 74
    0
 49
-6.35
 74
    0
 49
0
 74
    0
 49
-6.35
 74
    0
  0
LTYPE
  5
3F
330
5
100
AcDbSymbolTableRecord
100
AcDbLinetypeTableRecord
  2
DIVIDETINY
 70
    0
  3
Divide (.15x) __..__..__..__..__..__..__..__.._
 72
   65
 73
    6
 40
4.7625
 49
1.905
 74
    0
 49
-0.9525
 74
    0
 49
0
 74
    0
 49
-0.9525
 74
    0
 49
0
 74
    0
 49
-0.9525
 74
    0
  0
LTYPE
  5
40
330
5
100
AcDbSymbolTableRecord
100
AcDbLinetypeTableRecord
  2
DIVIDE2
 70
    0
  3
Divide (.5x) __..__..__..__..__..__..__..__.._
 72
   65
 73
    6
 40
15.875
 49
6.35
 74
    0
 49
-3.175
 74
    0
 49
0
 74
    0
 49
-3.175
 74
    0
 49
0
 74
    0
 49
-3.175
 74
    0
  0
LTYPE
  5
41
330
5
100
AcDbSymbolTableRecord
100
AcDbLinetypeTableRecord
  2
DIVIDEX2
 70
    0
  3
Divide (2x) ________  .  .  ________  .  .  _
 72
   65
 73
    6
 40
63.5
 49
25.4
 74
    0
 49
-12.7
 74
    0
 49
0
 74
    0
 49
-12.7
 74
    0
 49
0
 74
    0
 49
-12.7
 74
    0
  0
LTYPE
  5
42
330
5
100
AcDbSymbolTableRecord
100
AcDbLinetypeTableRecord
  2
BORDER
 70
    0
  3
Border __ __ . __ __ . __ __ . __ __ . __ __ .
 72
   65
 73
    6
 40
44.45
 49
12.7
 74
    0
 49
-6.35
 74
    0
 49
12.7
 74
    0
 49
-6.35
 74
    0
 49
0
 74
    0
 49
-6.35
 74
    0
  0
LTYPE
  5
43
330
5
100
AcDbSymbolTableRecord
100
AcDbLinetypeTableRecord
  2
BORDERTINY
 70
    0
  3
Border (.15x) __.__.__.__.__.__.__.__.__.__.__.
 72
   65
 73
    6
 40
6.6675
 49
1.905
 74
    0
 49
-0.9525
 74
    0
 49
1.905
 74
    0
 49
-0.9525
 74
    0
 49
0
 74
    0
 49
-0.9525
 74
    0
  0
LTYPE
  5
44
330
5
100
AcDbSymbolTableRecord
100
AcDbLinetypeTableRecord
  2
BORDER2
 70
    0
  3
Border (.5x) __.__.__.__.__.__.__.__.__.__.__.
 72
   65
 73
    6
 40
22.225
 49
6.35
 74
    0
 49
-3.175
 74
    0
 49
6.35
 74
    0
 49
-3.175
 74
    0
 49
0
 74
    0
 49
-3.175
 74
    0
  0
LTYPE
  5
45
330
5
100
AcDbSymbolTableRecord
100
AcDbLinetypeTableRecord
  2
BORDERX2
 70
    0
  3
Border (2x) ____  ____  .  ____  ____  .  ___
 72
   65
 73
    6
 40
88.89999999999999
 49
25.4
 74
    0
 49
-12.7
 74
    0
 49
25.4
 74
    0
 49
-12.7
 74
    0
 49
0
 74
    0
 49
-12.7
 74
    0
  0
LTYPE
  5
46
330
5
100
AcDbSymbolTableRecord
100
AcDbLinetypeTableRecord
  2
CENTER
 70
    0
  3
Center ____ _ ____ _ ____ _ ____ _ ____ _ ____
 72
   65
 73
    4
 40
50.8
 49
31.75
 74
    0
 49
-6.35
 74
    0
 49
6.35
 74
    0
 49
-6.35
 74
    0
  0
LTYPE
  5
47
330
5
100
AcDbSymbolTableRecord
100
AcDbLinetypeTableRecord
  2
CENTERTINY
 70
    0
  3
Center (.15x) ___ _ ___ _ ___ _ ___ _ ___ _ ___
 72
   65
 73
    4
 40
7.62
 49
4.7625
 74
    0
 49
-0.9525
 74
    0
 49
0.9525
 74
    0
 49
-0.9525
 74
    0
  0
LTYPE
  5
48
330
5
100
AcDbSymbolTableRecord
100
AcDbLinetypeTableRecord
  2
CENTER2
 70
    0
  3
Center (.5x) ___ _ ___ _ ___ _ ___ _ ___ _ ___
 72
   65
 73
    4
 40
28.575
 49
19.05
 74
    0
 49
-3.175
 74
    0
 49
3.175
 74
    0
 49
-3.175
 74
    0
  0
LTYPE
  5
49
330
5
100
AcDbSymbolTableRecord
100
AcDbLinetypeTableRecord
  2
CENTERX2
 70
    0
  3
Center (2x) ________  __  ________  __  _____
 72
   65
 73
    4
 40
101.6
 49
63.5
 74
    0
 49
-12.7
 74
    0
 49
12.7
 74
    0
 49
-12.7
 74
    0
  0
ENDTAB
  0
TABLE
  2
LAYER
  5
2
330
0
100
AcDbSymbolTable
 70
    1
  0
LAYER
  5
10
330
2
100
AcDbSymbolTableRecord
100
AcDbLayerTableRecord
  2
0
 70
    0
 62
    7
  6
CONTINUOUS
370
   -3
390
F
  0
LAYER
  5
4A
330
2
100
AcDbSymbolTableRecord
100
AcDbLayerTableRecord
  2
ASHADE
 70
    4
 62
    7
  6
CONTINUOUS
370
   -3
390
F
  0
LAYER
  5
4B
330
2
100
AcDbSymbolTableRecord
100
AcDbLayerTableRecord
  2
DEFPOINTS
 70
    0
 62
    7
  6
CONTINUOUS
290
0
370
   -3
390
F
  0
LAYER
  5
4C
330
2
100
AcDbSymbolTableRecord
100
AcDbLayerTableRecord
  2
Drop-line C
 70
    0
 62
   66
  6
CONTINUOUS
370
   -3
390
F
  0
LAYER
  5
4D
330
2
100
AcDbSymbolTableRecord
100
AcDbLayerTableRecord
  2
Drop-line PS
 70
    0
 62
   13
  6
CONTINUOUS
370
   -3
390
F
  0
LAYER
  5
4E
330
2
100
AcDbSymbolTableRecord
100
AcDbLayerTableRecord
  2
Drop-line SB
 70
    0
 62
  101
  6
CONTINUOUS
370
   -3
390
F
  0
LAYER
  5
4F
330
2
100
AcDbSymbolTableRecord
100
AcDbLayerTableRecord
  2
GJENGEBUNN
 70
    0
 62
    8
  6
CONTINUOUS
370
   -3
390
F
  0
LAYER
  5
50
330
2
100
AcDbSymbolTableRecord
100
AcDbLayerTableRecord
  2
LAYER01
 70
    0
 62
    7
  6
CONTINUOUS
370
   -3
390
F
  0
LAYER
  5
51
330
2
100
AcDbSymbolTableRecord
100
AcDbLayerTableRecord
  2
LAYER1
 70
    0
 62
    7
  6
CONTINUOUS
370
   -3
390
F
  0
LAYER
  5
52
330
2
100
AcDbSymbolTableRecord
100
AcDbLayerTableRecord
  2
NIPPEL
 70
    0
 62
  214
  6
CONTINUOUS
370
   -3
390
F
  0
LAYER
  5
53
330
2
100
AcDbSymbolTableRecord
100
AcDbLayerTableRecord
  2
OMRISS
 70
    0
 62
    8
  6
CONTINUOUS
370
   -3
390
F
  0
LAYER
  5
54
330
2
100
AcDbSymbolTableRecord
100
AcDbLayerTableRecord
  2
Omriss tanker
 70
    0
 62
   20
  6
CONTINUOUS
370
   -3
390
F
  0
LAYER
  5
55
330
2
100
AcDbSymbolTableRecord
100
AcDbLayerTableRecord
  2
Suction C
 70
    0
 62
  201
  6
CONTINUOUS
370
   -3
390
F
  0
LAYER
  5
56
330
2
100
AcDbSymbolTableRecord
100
AcDbLayerTableRecord
  2
Suction PS
 70
    0
 62
  131
  6
CONTINUOUS
370
   -3
390
F
  0
LAYER
  5
57
330
2
100
AcDbSymbolTableRecord
100
AcDbLayerTableRecord
  2
Suction SB
 70
    0
 62
  211
  6
CONTINUOUS
370
   -3
390
F
  0
LAYER
  5
58
330
2
100
AcDbSymbolTableRecord
100
AcDbLayerTableRecord
  2
Symboler
 70
    0
 62
   42
  6
CONTINUOUS
370
   -3
390
F
  0
LAYER
  5
59
330
2
100
AcDbSymbolTableRecord
100
AcDbLayerTableRecord
  2
TEKST
 70
    0
 62
    7
  6
CONTINUOUS
370
   -3
390
F
  0
ENDTAB
  0
TABLE
  2
STYLE
  5
3
330
0
100
AcDbSymbolTable
 70
    3
  0
STYLE
  5
5A
330
2
100
AcDbSymbolTableRecord
100
AcDbTextStyleTableRecord
  2
standard
 70
    0
 40
0
 41
1
 50
0
 71
    0
 42
1
  3
standard
  4

  0
STYLE
  5
5B
330
2
100
AcDbSymbolTableRecord
100
AcDbTextStyleTableRecord
  2
arial bold
 70
    0
 40
0
 41
1
 50
0
 71
    0
 42
1
  3
arial bold
  4

  0
STYLE
  5
5C
330
2
100
AcDbSymbolTableRecord
100
AcDbTextStyleTableRecord
  2
romans
 70
    0
 40
0
 41
1
 50
0
 71
    0
 42
1
  3
romans
  4

  0
STYLE
  5
5D
330
2
100
AcDbSymbolTableRecord
100
AcDbTextStyleTableRecord
  2
arial
 70
    0
 40
0
 41
1
 50
0
 71
    0
 42
1
  3
arial
  4

  0
ENDTAB
  0
TABLE
  2
VIEW
  5
6
330
0
100
AcDbSymbolTable
 70
    0
  0
ENDTAB
  0
TABLE
  2
UCS
  5
7
330
0
100
AcDbSymbolTable
 70
    0
  0
ENDTAB
  0
TABLE
  2
APPID
  5
9
330
0
100
AcDbSymbolTable
 70
    1
  0
APPID
  5
12
330
9
100
AcDbSymbolTableRecord
100
AcDbRegAppTableRecord
  2
ACAD
 70
    0
  0
APPID
  5
5E
330
9
100
AcDbSymbolTableRecord
100
AcDbRegAppTableRecord
  2
LibreCad
 70
    0
  0
ENDTAB
  0
TABLE
  2
DIMSTYLE
  5
A
330
0
100
AcDbSymbolTable
 70
    1
100
AcDbDimStyleTable
 71
    1
  0
DIMSTYLE
105
5F
330
A
100
AcDbSymbolTableRecord
100
AcDbDimStyleTableRecord
  2
Standard
 70
    0
 40
1
 41
12
 42
0.06
 43
0.38
 44
0.3
 45
0
 46
0
 47
0
 48
0
 49
1
140
12
141
0.09
142
0
143
25.4
144
1
145
0
146
1
147
3
148
0
 71
    0
 72
    0
 73
    1
 74
    1
 75
    0
 76
    0
 77
    0
 78
    0
 79
    0
170
    0
171
    2
172
    0
173
    0
174
    0
175
    0
176
    7
177
    0
178
    7
179
    0
271
    2
272
    4
273
    2
274
    2
275
    0
276
    0
277
    2
278
   46
279
    0
280
    0
281
    0
282
    0
283
    1
284
    0
285
    0
286
    0
288
    0
289
    3
340
ARIAL
341

371
   -2
372
   -2
  0
ENDTAB
  0
TABLE
  2
BLOCK_RECORD
  5
1
330
0
100
AcDbSymbolTable
 70
    2
  0
BLOCK_RECORD
  5
1F
330
1
100
AcDbSymbolTableRecord
100
AcDbBlockTableRecord
  2
*Model_Space
 70
    0
280
    1
281
    0
  0
BLOCK_RECORD
  5
1E
330
1
100
AcDbSymbolTableRecord
100
AcDbBlockTableRecord
  2
*Paper_Space
 70
    0
280
    1
281
    0
  0
BLOCK_RECORD
  5
60
330
1
100
AcDbSymbolTableRecord
100
AcDbBlockTableRecord
  2
AME_NIL
 70
    0
280
    1
281
    0
  0
BLOCK_RECORD
  5
63
330
1
100
AcDbSymbolTableRecord
100
AcDbBlockTableRecord
  2
AME_SOL
 70
    0
280
    1
281
    0
  0
BLOCK_RECORD
  5
66
330
1
100
AcDbSymbolTableRecord
100
AcDbBlockTableRecord
  2
AVE_RENDER
 70
    0
280
    1
281
    0
  0
BLOCK_RECORD
  5
69
330
1
100
AcDbSymbolTableRecord
100
AcDbBlockTableRecord
  2
AVE_GLOBAL
 70
    0
280
    1
281
    0
  0
BLOCK_RECORD
  5
6C
330
1
100
AcDbSymbolTableRecord
100
AcDbBlockTableRecord
  2
Remote valve
 70
    0
280
    1
281
    0
  0
BLOCK_RECORD
  5
6F
330
1
100
AcDbSymbolTableRecord
100
AcDbBlockTableRecord
  2
Valve
 70
    0
280
    1
281
    0
  0
BLOCK_RECORD
  5
72
330
1
100
AcDbSymbolTableRecord
100
AcDbBlockTableRecord
  2
Pump
 70
    0
280
    1
281
    0
  0
ENDTAB
  0
ENDSEC
  0
SECTION
  2
BLOCKS
  0
BLOCK
  5
20
330
1F
100
AcDbEntity
  8
0
100
AcDbBlockBegin
  2
*Model_Space
 70
    0
 10
0
 20
0
 30
0
  3
*Model_Space
  1

  0
ENDBLK
  5
21
330
1F
100
AcDbEntity
  8
0
100
AcDbBlockEnd
  0
BLOCK
  5
1C
330
1B
100
AcDbEntity
  8
0
100
AcDbBlockBegin
  2
*Paper_Space
 70
    0
 10
0
 20
0
 30
0
  3
*Paper_Space
  1

  0
ENDBLK
  5
1D
330
1F
100
AcDbEntity
  8
0
100
AcDbBlockEnd
  0
BLOCK
  5
61
330
60
100
AcDbEntity
  8
0
100
AcDbBlockBegin
  2
AME_NIL
 70
    0
 10
0
 20
0
  3
AME_NIL
  1

  0
ENDBLK
  5
62
330
60
100
AcDbEntity
  8
0
100
AcDbBlockEnd
  0
BLOCK
  5
64
330
63
100
AcDbEntity
  8
0
100
AcDbBlockBegin
  2
AME_SOL
 70
    0
 10
0
 20
0
  3
AME_SOL
  1

  0
ENDBLK
  5
65
330
63
100
AcDbEntity
  8
0
100
AcDbBlockEnd
  0
BLOCK
  5
67
330
66
100
AcDbEntity
  8
0
100
AcDbBlockBegin
  2
AVE_RENDER
 70
    0
 10
0
 20
0
  3
AVE_RENDER
  1

  0
ENDBLK
  5
68
330
66
100
AcDbEntity
  8
0
100
AcDbBlockEnd
  0
BLOCK
  5
6A
330
69
100
AcDbEntity
  8
0
100
AcDbBlockBegin
  2
AVE_GLOBAL
 70
    0
 10
0
 20
0
  3
AVE_GLOBAL
  1

  0
ENDBLK
  5
6B
330
69
100
AcDbEntity
  8
0
100
AcDbBlockEnd
  0
BLOCK
  5
6D
330
6C
100
AcDbEntity
  8
0
100
AcDbBlockBegin
  2
Remote valve
 70
    0
 10
0
 20
0
  3
Remote valve
  1

  0
LWPOLYLINE
  5
75
100
AcDbEntity
  8
Symboler
  6
CONTINUOUS
 62
   42
370
   -1
100
AcDbPolyline
 90
   11
 70
    1
 43
0
 10
99.55549390193482
 20
4.047891041245748
 10
99.55549390193482
 20
108.252917159445
 10
35.32556182437111
 20
108.252917159445
 42
-0.8846768105770847
 10
178.7854259795131
 20
108.252917159445
 10
114.5554939019348
 20
108.252917159445
 10
114.5554939019348
 20
4.047891041245748
 10
214.1109878038696
 20
57.77986329090801
 10
214.1109878038696
 20
-57.77986329090801
 10
107.0554939019348
 20
0
 10
0
 20
-57.77986329090801
 10
0
 20
57.77986329090801
  0
ENDBLK
  5
6E
330
6C
100
AcDbEntity
  8
0
100
AcDbBlockEnd
  0
BLOCK
  5
70
330
6F
100
AcDbEntity
  8
0
100
AcDbBlockBegin
  2
Valve
 70
    0
 10
0
 20
0
  3
Valve
  1

  0
LWPOLYLINE
  5
76
100
AcDbEntity
  8
Symboler
  6
CONTINUOUS
 62
   42
370
   -1
100
AcDbPolyline
 90
    6
 70
    1
 43
0
 10
0
 20
57.77986329090801
 10
0
 20
-57.77986329090801
 10
107.0554939019348
 20
-1.137e-013
 10
214.1109878038696
 20
57.77986329090801
 10
214.1109878038696
 20
-57.77986329090801
 10
107.0554939019348
 20
0
  0
ENDBLK
  5
71
330
6F
100
AcDbEntity
  8
0
100
AcDbBlockEnd
  0
BLOCK
  5
73
330
72
100
AcDbEntity
  8
0
100
AcDbBlockBegin
  2
Pump
 70
    0
 10
0
 20
0
  3
Pump
  1

  0
LWPOLYLINE
  5
77
100
AcDbEntity
  8
Symboler
  6
CONTINUOUS
 62
   42
370
   -1
100
AcDbPolyline
 90
    9
 70
    0
 43
0
 10
269.0715011075663
 20
-143.35237931923
 10
269.0715011075663
 20
-243.3523793192299
 10
219.0715011075663
 20
-243.3523793192299
 10
219.0715011075662
 20
-143.35237931923
 42
-0.3158256435085338
 10
99.99999999999997
 20
-24.99999999999998
 10
0
 20
-25
 10
0
 20
25
 10
100
 20
25
 42
-1.932117675131443
 10
268.3523793192288
 20
-143.35237931923
 42
-1.932117675131443
  0
LWPOLYLINE
  5
78
100
AcDbEntity
  8
Symboler
  6
CONTINUOUS
 62
   42
370
   -1
100
AcDbPolyline
 90
    3
 70
    1
 43
0
 10
243.7119402133976
 20
145.1685901043904
 10
117.5387971735762
 20
-72.79796378022206
 10
368.9862636105972
 20
-72.54495371094345
  0
ENDBLK
  5
74
330
72
100
AcDbEntity
  8
0
100
AcDbBlockEnd
  0
ENDSEC
  0
SECTION
  2
ENTITIES
  0
INSERT
  5
79
100
AcDbEntity
  8
LAYER1
  6
ByLayer
 62
  256
370
   -1
100
AcDbBlockReference
  2
AME_NIL
 10
0
 20
0
 30
0
 41
1
 42
1
 43
0
 50
0
 70
    1
 71
    1
 44
0
 45
0
  0
INSERT
  5
7A
100
AcDbEntity
  8
LAYER1
  6
ByLayer
 62
  256
370
   -1
100
AcDbBlockReference
  2
AME_SOL
 10
0
 20
0
 30
0
 41
1
 42
1
 43
0
 50
0
 70
    1
 71
    1
 44
0
 45
0
  0
INSERT
  5
7B
100
AcDbEntity
  8
ASHADE
  6
ByLayer
 62
    1
370
   -1
100
AcDbBlockReference
  2
AVE_RENDER
 10
0
 20
0
 30
0
 41
1
 42
1
 43
0
 50
0
 70
    1
 71
    1
 44
0
 45
0
  0
INSERT
  5
7C
100
AcDbEntity
  8
ASHADE
  6
ByLayer
 62
    3
370
   -1
100
AcDbBlockReference
  2
AVE_RENDER
 10
0
 20
0
 30
0
 41
1
 42
1
 43
0
 50
0
 70
    1
 71
    1
 44
0
 45
0
  0
INSERT
  5
7D
100
AcDbEntity
  8
ASHADE
  6
ByLayer
 62
    4
370
   -1
100
AcDbBlockReference
  2
AVE_RENDER
 10
0
 20
0
 30
0
 41
1
 42
1
 43
0
 50
0
 70
    1
 71
    1
 44
0
 45
0
  0
INSERT
  5
7E
100
AcDbEntity
  8
ASHADE
  6
ByLayer
 62
    5
370
   -1
100
AcDbBlockReference
  2
AVE_RENDER
 10
0
 20
0
 30
0
 41
1
 42
1
 43
0
 50
0
 70
    1
 71
    1
 44
0
 45
0
  0
INSERT
  5
7F
100
AcDbEntity
  8
ASHADE
  6
ByLayer
 62
    6
370
   -1
100
AcDbBlockReference
  2
AVE_RENDER
 10
0
 20
0
 30
0
 41
1
 42
1
 43
0
 50
0
 70
    1
 71
    1
 44
0
 45
0
  0
INSERT
  5
80
100
AcDbEntity
  8
ASHADE
  6
ByLayer
 62
    7
370
   -1
100
AcDbBlockReference
  2
AVE_RENDER
 10
0
 20
0
 30
0
 41
1
 42
1
 43
0
 50
0
 70
    1
 71
    1
 44
0
 45
0
  0
INSERT
  5
81
100
AcDbEntity
  8
ASHADE
  6
ByLayer
 62
    8
370
   -1
100
AcDbBlockReference
  2
AVE_RENDER
 10
0
 20
0
 30
0
 41
1
 42
1
 43
0
 50
0
 70
    1
 71
    1
 44
0
 45
0
  0
INSERT
  5
82
100
AcDbEntity
  8
ASHADE
  6
ByLayer
 62
    9
370
   -1
100
AcDbBlockReference
  2
AVE_RENDER
 10
0
 20
0
 30
0
 41
1
 42
1
 43
0
 50
0
 70
    1
 71
    1
 44
0
 45
0
  0
INSERT
  5
83
100
AcDbEntity
  8
ASHADE
  6
ByLayer
 62
    1
370
   -1
100
AcDbBlockReference
  2
AVE_GLOBAL
 10
0
 20
0
 30
0
 41
1
 42
1
 43
0
 50
0
 70
    1
 71
    1
 44
0
 45
0
  0
INSERT
  5
84
100
AcDbEntity
  8
LAYER1
  6
ByLayer
 62
  256
370
   -1
100
AcDbBlockReference
  2
AME_NIL
 10
436.8103605630293
 20
-215.6608172053943
 30
0
 41
1
 42
1
 43
0
 50
0
 70
    1
 71
    1
 44
0
 45
0
  0
INSERT
  5
85
100
AcDbEntity
  8
LAYER1
  6
ByLayer
 62
  256
370
   -1
100
AcDbBlockReference
  2
AME_SOL
 10
436.8103605630293
 20
-215.6608172053943
 30
0
 41
1
 42
1
 43
0
 50
0
 70
    1
 71
    1
 44
0
 45
0
  0
INSERT
  5
86
100
AcDbEntity
  8
ASHADE
  6
ByLayer
 62
    1
370
   -1
100
AcDbBlockReference
  2
AVE_RENDER
 10
436.8103605630293
 20
-215.6608172053943
 30
0
 41
1
 42
1
 43
0
 50
0
 70
    1
 71
    1
 44
0
 45
0
  0
INSERT
  5
87
100
AcDbEntity
  8
ASHADE
  6
ByLayer
 62
    3
370
   -1
100
AcDbBlockReference
  2
AVE_RENDER
 10
436.8103605630293
 20
-215.6608172053943
 30
0
 41
1
 42
1
 43
0
 50
0
 70
    1
 71
    1
 44
0
 45
0
  0
INSERT
  5
88
100
AcDbEntity
  8
ASHADE
  6
ByLayer
 62
    4
370
   -1
100
AcDbBlockReference
  2
AVE_RENDER
 10
436.8103605630293
 20
-215.6608172053943
 30
0
 41
1
 42
1
 43
0
 50
0
 70
    1
 71
    1
 44
0
 45
0
  0
INSERT
  5
89
100
AcDbEntity
  8
ASHADE
  6
ByLayer
 62
    5
370
   -1
100
AcDbBlockReference
  2
AVE_RENDER
 10
436.8103605630293
 20
-215.6608172053943
 30
0
 41
1
 42
1
 43
0
 50
0
 70
    1
 71
    1
 44
0
 45
0
  0
INSERT
  5
8A
100
AcDbEntity
  8
ASHADE
  6
ByLayer
 62
    6
370
   -1
100
AcDbBlockReference
  2
AVE_RENDER
 10
436.8103605630293
 20
-215.6608172053943
 30
0
 41
1
 42
1
 43
0
 50
0
 70
    1
 71
    1
 44
0
 45
0
  0
INSERT
  5
8B
100
AcDbEntity
  8
ASHADE
  6
ByLayer
 62
    7
370
   -1
100
AcDbBlockReference
  2
AVE_RENDER
 10
436.8103605630293
 20
-215.6608172053943
 30
0
 41
1
 42
1
 43
0
 50
0
 70
    1
 71
    1
 44
0
 45
0
  0
INSERT
  5
8C
100
AcDbEntity
  8
ASHADE
  6
ByLayer
 62
    8
370
   -1
100
AcDbBlockReference
  2
AVE_RENDER
 10
436.8103605630293
 20
-215.6608172053943
 30
0
 41
1
 42
1
 43
0
 50
0
 70
    1
 71
    1
 44
0
 45
0
  0
INSERT
  5
8D
100
AcDbEntity
  8
ASHADE
  6
ByLayer
 62
    9
370
   -1
100
AcDbBlockReference
  2
AVE_RENDER
 10
436.8103605630293
 20
-215.6608172053943
 30
0
 41
1
 42
1
 43
0
 50
0
 70
    1
 71
    1
 44
0
 45
0
  0
INSERT
  5
8E
100
AcDbEntity
  8
ASHADE
  6
ByLayer
 62
    1
370
   -1
100
AcDbBlockReference
  2
AVE_GLOBAL
 10
436.8103605630293
 20
-215.6608172053943
 30
0
 41
1
 42
1
 43
0
 50
0
 70
    1
 71
    1
 44
0
 45
0
  0
TEXT
  5
8F
100
AcDbEntity
  8
0
  6
ByLayer
 62
    7
370
   -1
100
AcDbText
 10
-1248.752895886679
 20
165.3686324960031
 30
0
 40
3.809829827610412
  1
 
 50
0
 41
0.75
 51
0
  7
standard
 71
    0
210
0
220
0
230
1
100
AcDbText
  0
INSERT
  5
90
100
AcDbEntity
  8
LAYER1
  6
ByLayer
 62
  256
370
   -1
100
AcDbBlockReference
  2
AME_NIL
 10
-2402.748217515968
 20
517.4898289907482
 30
0
 41
1
 42
1
 43
0
 50
0
 70
    1
 71
    1
 44
0
 45
0
  0
INSERT
  5
91
100
AcDbEntity
  8
LAYER1
  6
ByLayer
 62
  256
370
   -1
100
AcDbBlockReference
  2
AME_SOL
 10
-2402.748217515968
 20
517.4898289907482
 30
0
 41
1
 42
1
 43
0
 50
0
 70
    1
 71
    1
 44
0
 45
0
  0
INSERT
  5
92
100
AcDbEntity
  8
ASHADE
  6
ByLayer
 62
    1
370
   -1
100
AcDbBlockReference
  2
AVE_RENDER
 10
-2402.748217515968
 20
517.4898289907482
 30
0
 41
1
 42
1
 43
0
 50
0
 70
    1
 71
    1
 44
0
 45
0
  0
INSERT
  5
93
100
AcDbEntity
  8
ASHADE
  6
ByLayer
 62
    3
370
   -1
100
AcDbBlockReference
  2
AVE_RENDER
 10
-2402.748217515968
 20
517.4898289907482
 30
0
 41
1
 42
1
 43
0
 50
0
 70
    1
 71
    1
 44
0
 45
0
  0
INSERT
  5
94
100
AcDbEntity
  8
ASHADE
  6
ByLayer
 62
    4
370
   -1
100
AcDbBlockReference
  2
AVE_RENDER
 10
-2402.748217515968
 20
517.4898289907482
 30
0
 41
1
 42
1
 43
0
 50
0
 70
    1
 71
    1
 44
0
 45
0
  0
INSERT
  5
95
100
AcDbEntity
  8
ASHADE
  6
ByLayer
 62
    5
370
   -1
100
AcDbBlockReference
  2
AVE_RENDER
 10
-2402.748217515968
 20
517.4898289907482
 30
0
 41
1
 42
1
 43
0
 50
0
 70
    1
 71
    1
 44
0
 45
0
  0
INSERT
  5
96
100
AcDbEntity
  8
ASHADE
  6
ByLayer
 62
    6
370
   -1
100
AcDbBlockReference
  2
AVE_RENDER
 10
-2402.748217515968
 20
517.4898289907482
 30
0
 41
1
 42
1
 43
0
 50
0
 70
    1
 71
    1
 44
0
 45
0
  0
INSERT
  5
97
100
AcDbEntity
  8
ASHADE
  6
ByLayer
 62
    7
370
   -1
100
AcDbBlockReference
  2
AVE_RENDER
 10
-2402.748217515968
 20
517.4898289907482
 30
0
 41
1
 42
1
 43
0
 50
0
 70
    1
 71
    1
 44
0
 45
0
  0
INSERT
  5
98
100
AcDbEntity
  8
ASHADE
  6
ByLayer
 62
    8
370
   -1
100
AcDbBlockReference
  2
AVE_RENDER
 10
-2402.748217515968
 20
517.4898289907482
 30
0
 41
1
 42
1
 43
0
 50
0
 70
    1
 71
    1
 44
0
 45
0
  0
INSERT
  5
99
100
AcDbEntity
  8
ASHADE
  6
ByLayer
 62
    9
370
   -1
100
AcDbBlockReference
  2
AVE_RENDER
 10
-2402.748217515968
 20
517.4898289907482
 30
0
 41
1
 42
1
 43
0
 50
0
 70
    1
 71
    1
 44
0
 45
0
  0
INSERT
  5
9A
100
AcDbEntity
  8
ASHADE
  6
ByLayer
 62
    1
370
   -1
100
AcDbBlockReference
  2
AVE_GLOBAL
 10
-2402.748217515968
 20
517.4898289907482
 30
0
 41
1
 42
1
 43
0
 50
0
 70
    1
 71
    1
 44
0
 45
0
  0
INSERT
  5
9B
100
AcDbEntity
  8
LAYER1
  6
ByLayer
 62
  256
370
   -1
100
AcDbBlockReference
  2
AME_NIL
 10
-484.0180840161846
 20
686.0103158393807
 30
0
 41
1
 42
1
 43
0
 50
0
 70
    1
 71
    1
 44
0
 45
0
  0
INSERT
  5
9C
100
AcDbEntity
  8
LAYER1
  6
ByLayer
 62
  256
370
   -1
100
AcDbBlockReference
  2
AME_SOL
 10
-484.0180840161846
 20
686.0103158393807
 30
0
 41
1
 42
1
 43
0
 50
0
 70
    1
 71
    1
 44
0
 45
0
  0
INSERT
  5
9D
100
AcDbEntity
  8
ASHADE
  6
ByLayer
 62
    1
370
   -1
100
AcDbBlockReference
  2
AVE_RENDER
 10
-484.0180840161846
 20
686.0103158393807
 30
0
 41
1
 42
1
 43
0
 50
0
 70
    1
 71
    1
 44
0
 45
0
  0
INSERT
  5
9E
100
AcDbEntity
  8
ASHADE
  6
ByLayer
 62
    3
370
   -1
100
AcDbBlockReference
  2
AVE_RENDER
 10
-484.0180840161846
 20
686.0103158393807
 30
0
 41
1
 42
1
 43
0
 50
0
 70
    1
 71
    1
 44
0
 45
0
  0
INSERT
  5
9F
100
AcDbEntity
  8
ASHADE
  6
ByLayer
 62
    4
370
   -1
100
AcDbBlockReference
  2
AVE_RENDER
 10
-484.0180840161846
 20
686.0103158393807
 30
0
 41
1
 42
1
 43
0
 50
0
 70
    1
 71
    1
 44
0
 45
0
  0
INSERT
  5
A0
100
AcDbEntity
  8
ASHADE
  6
ByLayer
 62
    5
370
   -1
100
AcDbBlockReference
  2
AVE_RENDER
 10
-484.0180840161846
 20
686.0103158393807
 30
0
 41
1
 42
1
 43
0
 50
0
 70
    1
 71
    1
 44
0
 45
0
  0
INSERT
  5
A1
100
AcDbEntity
  8
ASHADE
  6
ByLayer
 62
    6
370
   -1
100
AcDbBlockReference
  2
AVE_RENDER
 10
-484.0180840161846
 20
686.0103158393807
 30
0
 41
1
 42
1
 43
0
 50
0
 70
    1
 71
    1
 44
0
 45
0
  0
INSERT
  5
A2
100
AcDbEntity
  8
ASHADE
  6
ByLayer
 62
    7
370
   -1
100
AcDbBlockReference
  2
AVE_RENDER
 10
-484.0180840161846
 20
686.0103158393807
 30
0
 41
1
 42
1
 43
0
 50
0
 70
    1
 71
    1
 44
0
 45
0
  0
INSERT
  5
A3
100
AcDbEntity
  8
ASHADE
  6
ByLayer
 62
    8
370
   -1
100
AcDbBlockReference
  2
AVE_RENDER
 10
-484.0180840161846
 20
686.0103158393807
 30
0
 41
1
 42
1
 43
0
 50
0
 70
    1
 71
    1
 44
0
 45
0
  0
INSERT
  5
A4
100
AcDbEntity
  8
ASHADE
  6
ByLayer
 62
    9
370
   -1
100
AcDbBlockReference
  2
AVE_RENDER
 10
-484.0180840161846
 20
686.0103158393807
 30
0
 41
1
 42
1
 43
0
 50
0
 70
    1
 71
    1
 44
0
 45
0
  0
INSERT
  5
A5
100
AcDbEntity
  8
ASHADE
  6
ByLayer
 62
    1
370
   -1
100
AcDbBlockReference
  2
AVE_GLOBAL
 10
-484.0180840161846
 20
686.0103158393807
 30
0
 41
1
 42
1
 43
0
 50
0
 70
    1
 71
    1
 44
0
 45
0
  0
TEXT
  5
A6
100
AcDbEntity
  8
0
  6
ByLayer
 62
    7
370
   -1
100
AcDbText
 10
-2169.581340465893
 20
1067.039765540778
 30
0
 40
3.809829827610412
  1
 
 50
0
 41
0.75
 51
0
  7
standard
 71
    0
210
0
220
0
230
1
100
AcDbText
  0
INSERT
  5
A7
100
AcDbEntity
  8
LAYER1
  6
ByLayer
 62
  256
370
   -1
100
AcDbBlockReference
  2
AME_NIL
 10
1127.527252663858
 20
-264.6230569512117
 30
0
 41
1
 42
1
 43
0
 50
0
 70
    1
 71
    1
 44
0
 45
0
  0
INSERT
  5
A8
100
AcDbEntity
  8
LAYER1
  6
ByLayer
 62
  256
370
   -1
100
AcDbBlockReference
  2
AME_SOL
 10
1127.527252663858
 20
-264.6230569512117
 30
0
 41
1
 42
1
 43
0
 50
0
 70
    1
 71
    1
 44
0
 45
0
  0
INSERT
  5
A9
100
AcDbEntity
  8
ASHADE
  6
ByLayer
 62
    1
370
   -1
100
AcDbBlockReference
  2
AVE_RENDER
 10
1127.527252663858
 20
-264.6230569512117
 30
0
 41
1
 42
1
 43
0
 50
0
 70
    1
 71
    1
 44
0
 45
0
  0
INSERT
  5
AA
100
AcDbEntity
  8
ASHADE
  6
ByLayer
 62
    3
370
   -1
100
AcDbBlockReference
  2
AVE_RENDER
 10
1127.527252663858
 20
-264.6230569512117
 30
0
 41
1
 42
1
 43
0
 50
0
 70
    1
 71
    1
 44
0
 45
0
  0
INSERT
  5
AB
100
AcDbEntity
  8
ASHADE
  6
ByLayer
 62
    4
370
   -1
100
AcDbBlockReference
  2
AVE_RENDER
 10
1127.527252663858
 20
-264.6230569512117
 30
0
 41
1
 42
1
 43
0
 50
0
 70
    1
 71
    1
 44
0
 45
0
  0
INSERT
  5
AC
100
AcDbEntity
  8
ASHADE
  6
ByLayer
 62
    5
370
   -1
100
AcDbBlockReference
  2
AVE_RENDER
 10
1127.527252663858
 20
-264.6230569512117
 30
0
 41
1
 42
1
 43
0
 50
0
 70
    1
 71
    1
 44
0
 45
0
  0
INSERT
  5
AD
100
AcDbEntity
  8
ASHADE
  6
ByLayer
 62
    6
370
   -1
100
AcDbBlockReference
  2
AVE_RENDER
 10
1127.527252663858
 20
-264.6230569512117
 30
0
 41
1
 42
1
 43
0
 50
0
 70
    1
 71
    1
 44
0
 45
0
  0
INSERT
  5
AE
100
AcDbEntity
  8
ASHADE
  6
ByLayer
 62
    7
370
   -1
100
AcDbBlockReference
  2
AVE_RENDER
 10
1127.527252663858
 20
-264.6230569512117
 30
0
 41
1
 42
1
 43
0
 50
0
 70
    1
 71
    1
 44
0
 45
0
  0
INSERT
  5
AF
100
AcDbEntity
  8
ASHADE
  6
ByLayer
 62
    8
370
   -1
100
AcDbBlockReference
  2
AVE_RENDER
 10
1127.527252663858
 20
-264.6230569512117
 30
0
 41
1
 42
1
 43
0
 50
0
 70
    1
 71
    1
 44
0
 45
0
  0
INSERT
  5
B0
100
AcDbEntity
  8
ASHADE
  6
ByLayer
 62
    9
370
   -1
100
AcDbBlockReference
  2
AVE_RENDER
 10
1127.527252663858
 20
-264.6230569512117
 30
0
 41
1
 42
1
 43
0
 50
0
 70
    1
 71
    1
 44
0
 45
0
  0
INSERT
  5
B1
100
AcDbEntity
  8
ASHADE
  6
ByLayer
 62
    1
370
   -1
100
AcDbBlockReference
  2
AVE_GLOBAL
 10
1127.527252663858
 20
-264.6230569512117
 30
0
 41
1
 42
1
 43
0
 50
0
 70
    1
 71
    1
 44
0
 45
0
  0
TEXT
  5
B2
100
AcDbEntity
  8
0
  6
ByLayer
 62
    7
370
   -1
100
AcDbText
 10
-558.0360037858501
 20
116.4063927501858
 30
0
 40
3.809829827610412
  1
 
 50
0
 41
0.75
 51
0
  7
standard
 71
    0
210
0
220
0
230
1
100
AcDbText
  0
INSERT
  5
B3
100
AcDbEntity
  8
LAYER1
  6
ByLayer
 62
  256
370
   -1
100
AcDbBlockReference
  2
AME_NIL
 10
-1712.031325415138
 20
468.5275892449308
 30
0
 41
1
 42
1
 43
0
 50
0
 70
    1
 71
    1
 44
0
 45
0
  0
INSERT
  5
B4
100
AcDbEntity
  8
LAYER1
  6
ByLayer
 62
  256
370
   -1
100
AcDbBlockReference
  2
AME_SOL
 10
-1712.031325415138
 20
468.5275892449308
 30
0
 41
1
 42
1
 43
0
 50
0
 70
    1
 71
    1
 44
0
 45
0
  0
INSERT
  5
B5
100
AcDbEntity
  8
ASHADE
  6
ByLayer
 62
    1
370
   -1
100
AcDbBlockReference
  2
AVE_RENDER
 10
-1712.031325415138
 20
468.5275892449308
 30
0
 41
1
 42
1
 43
0
 50
0
 70
    1
 71
    1
 44
0
 45
0
  0
INSERT
  5
B6
100
AcDbEntity
  8
ASHADE
  6
ByLayer
 62
    3
370
   -1
100
AcDbBlockReference
  2
AVE_RENDER
 10
-1712.031325415138
 20
468.5275892449308
 30
0
 41
1
 42
1
 43
0
 50
0
 70
    1
 71
    1
 44
0
 45
0
  0
INSERT
  5
B7
100
AcDbEntity
  8
ASHADE
  6
ByLayer
 62
    4
370
   -1
100
AcDbBlockReference
  2
AVE_RENDER
 10
-1712.031325415138
 20
468.5275892449308
 30
0
 41
1
 42
1
 43
0
 50
0
 70
    1
 71
    1
 44
0
 45
0
  0
INSERT
  5
B8
100
AcDbEntity
  8
ASHADE
  6
ByLayer
 62
    5
370
   -1
100
AcDbBlockReference
  2
AVE_RENDER
 10
-1712.031325415138
 20
468.5275892449308
 30
0
 41
1
 42
1
 43
0
 50
0
 70
    1
 71
    1
 44
0
 45
0
  0
INSERT
  5
B9
100
AcDbEntity
  8
ASHADE
  6
ByLayer
 62
    6
370
   -1
100
AcDbBlockReference
  2
AVE_RENDER
 10
-1712.031325415138
 20
468.5275892449308
 30
0
 41
1
 42
1
 43
0
 50
0
 70
    1
 71
    1
 44
0
 45
0
  0
INSERT
  5
BA
100
AcDbEntity
  8
ASHADE
  6
ByLayer
 62
    7
370
   -1
100
AcDbBlockReference
  2
AVE_RENDER
 10
-1712.031325415138
 20
468.5275892449308
 30
0
 41
1
 42
1
 43
0
 50
0
 70
    1
 71
    1
 44
0
 45
0
  0
INSERT
  5
BB
100
AcDbEntity
  8
ASHADE
  6
ByLayer
 62
    8
370
   -1
100
AcDbBlockReference
  2
AVE_RENDER
 10
-1712.031325415138
 20
468.5275892449308
 30
0
 41
1
 42
1
 43
0
 50
0
 70
    1
 71
    1
 44
0
 45
0
  0
INSERT
  5
BC
100
AcDbEntity
  8
ASHADE
  6
ByLayer
 62
    9
370
   -1
100
AcDbBlockReference
  2
AVE_RENDER
 10
-1712.031325415138
 20
468.5275892449308
 30
0
 41
1
 42
1
 43
0
 50
0
 70
    1
 71
    1
 44
0
 45
0
  0
INSERT
  5
BD
100
AcDbEntity
  8
ASHADE
  6
ByLayer
 62
    1
370
   -1
100
AcDbBlockReference
  2
AVE_GLOBAL
 10
-1712.031325415138
 20
468.5275892449308
 30
0
 41
1
 42
1
 43
0
 50
0
 70
    1
 71
    1
 44
0
 45
0
  0
INSERT
  5
BE
100
AcDbEntity
  8
LAYER1
  6
ByLayer
 62
  256
370
   -1
100
AcDbBlockReference
  2
AME_NIL
 10
206.698808084644
 20
637.0480760935634
 30
0
 41
1
 42
1
 43
0
 50
0
 70
    1
 71
    1
 44
0
 45
0
  0
INSERT
  5
BF
100
AcDbEntity
  8
LAYER1
  6
ByLayer
 62
  256
370
   -1
100
AcDbBlockReference
  2
AME_SOL
 10
206.698808084644
 20
637.0480760935634
 30
0
 41
1
 42
1
 43
0
 50
0
 70
    1
 71
    1
 44
0
 45
0
  0
INSERT
  5
C0
100
AcDbEntity
  8
ASHADE
  6
ByLayer
 62
    1
370
   -1
100
AcDbBlockReference
  2
AVE_RENDER
 10
206.698808084644
 20
637.0480760935634
 30
0
 41
1
 42
1
 43
0
 50
0
 70
    1
 71
    1
 44
0
 45
0
  0
INSERT
  5
C1
100
AcDbEntity
  8
ASHADE
  6
ByLayer
 62
    3
370
   -1
100
AcDbBlockReference
  2
AVE_RENDER
 10
206.698808084644
 20
637.0480760935634
 30
0
 41
1
 42
1
 43
0
 50
0
 70
    1
 71
    1
 44
0
 45
0
  0
INSERT
  5
C2
100
AcDbEntity
  8
ASHADE
  6
ByLayer
 62
    4
370
   -1
100
AcDbBlockReference
  2
AVE_RENDER
 10
206.698808084644
 20
637.0480760935634
 30
0
 41
1
 42
1
 43
0
 50
0
 70
    1
 71
    1
 44
0
 45
0
  0
INSERT
  5
C3
100
AcDbEntity
  8
ASHADE
  6
ByLayer
 62
    5
370
   -1
100
AcDbBlockReference
  2
AVE_RENDER
 10
206.698808084644
 20
637.0480760935634
 30
0
 41
1
 42
1
 43
0
 50
0
 70
    1
 71
    1
 44
0
 45
0
  0
INSERT
  5
C4
100
AcDbEntity
  8
ASHADE
  6
ByLayer
 62
    6
370
   -1
100
AcDbBlockReference
  2
AVE_RENDER
 10
206.698808084644
 20
637.0480760935634
 30
0
 41
1
 42
1
 43
0
 50
0
 70
    1
 71
    1
 44
0
 45
0
  0
INSERT
  5
C5
100
AcDbEntity
  8
ASHADE
  6
ByLayer
 62
    7
370
   -1
100
AcDbBlockReference
  2
AVE_RENDER
 10
206.698808084644
 20
637.0480760935634
 30
0
 41
1
 42
1
 43
0
 50
0
 70
    1
 71
    1
 44
0
 45
0
  0
INSERT
  5
C6
100
AcDbEntity
  8
ASHADE
  6
ByLayer
 62
    8
370
   -1
100
AcDbBlockReference
  2
AVE_RENDER
 10
206.698808084644
 20
637.0480760935634
 30
0
 41
1
 42
1
 43
0
 50
0
 70
    1
 71
    1
 44
0
 45
0
  0
INSERT
  5
C7
100
AcDbEntity
  8
ASHADE
  6
ByLayer
 62
    9
370
   -1
100
AcDbBlockReference
  2
AVE_RENDER
 10
206.698808084644
 20
637.0480760935634
 30
0
 41
1
 42
1
 43
0
 50
0
 70
    1
 71
    1
 44
0
 45
0
  0
INSERT
  5
C8
100
AcDbEntity
  8
ASHADE
  6
ByLayer
 62
    1
370
   -1
100
AcDbBlockReference
  2
AVE_GLOBAL
 10
206.698808084644
 20
637.0480760935634
 30
0
 41
1
 42
1
 43
0
 50
0
 70
    1
 71
    1
 44
0
 45
0
  0
TEXT
  5
C9
100
AcDbEntity
  8
0
  6
ByLayer
 62
    7
370
   -1
100
AcDbText
 10
-1478.864448365064
 20
1018.077525794961
 30
0
 40
3.809829827610412
  1
 
 50
0
 41
0.75
 51
0
  7
standard
 71
    0
210
0
220
0
230
1
100
AcDbText
  0
MTEXT
  5
CA
100
AcDbEntity
  8
OMRISS
  6
CONTINUOUS
 62
  256
370
   -1
100
AcDbMText
 10
-2395.176181831748
 20
2489.102319280084
 30
0
 40
4
 41
0
 71
    1
 72
    1
  1

  7
arial
210
0
220
0
230
1
 50
0
 73
    1
 44
1
  0
LWPOLYLINE
  5
CB
100
AcDbEntity
  8
Omriss tanker
  6
CONTINUOUS
 62
  256
370
   -1
100
AcDbPolyline
 90
    4
 70
    1
 43
0
 10
79609.61856841306
 20
3241.810156602118
 10
83905.05004229934
 20
3241.810156602118
 10
83905.05004229934
 20
593.2677675487611
 10
79609.61856841306
 20
593.2677675487611
  0
LWPOLYLINE
  5
CC
100
AcDbEntity
  8
Suction PS
  6
CONTINUOUS
 62
  256
370
   -1
100
AcDbPolyline
 90
    6
 70
    1
 43
0
 10
80245.62527663333
 20
3648.083453421968
 10
80245.62527663333
 20
1121.17936876407
 10
79845.62527663332
 20
721.1793687640712
 10
80245.62527663333
 20
1121.17936876407
 10
80645.62527663328
 20
721.1793687640712
 10
80245.62527663333
 20
1121.17936876407
  0
LWPOLYLINE
  5
CD
100
AcDbEntity
  8
Symboler
  6
CONTINUOUS
 62
   42
370
   -1
100
AcDbPolyline
 90
   11
 70
    1
 43
0
 10
81731.62811178491
 20
4124.480059587084
 10
81731.62811178491
 20
4333.932162084309
 10
81602.5259483093
 20
4333.932162084309
 42
-0.8846768105770839
 10
81890.88027526061
 20
4333.932162084309
 10
81761.77811178492
 20
4333.932162084309
 10
81761.77811178492
 20
4124.480059587084
 10
81961.88465452747
 20
4232.481323808723
 10
81961.88465452747
 20
4000.206273379669
 10
81746.70311178493
 20
4116.343798594198
 10
81531.52156904242
 20
4000.206273379669
 10
81531.52156904242
 20
4232.481323808723
  0
TEXT
  5
CE
100
AcDbEntity
  8
TEKST
  6
CONTINUOUS
 62
  256
370
   -1
100
AcDbText
 10
80359.03985951463
 20
4171.655750465764
 30
0
 40
100
  1
_Col 0-3
 50
0
 41
1
 51
0
  7
arial
 71
    0
210
0
220
0
230
1
100
AcDbText
  0
LWPOLYLINE
  5
CF
100
AcDbEntity
  8
Symboler
  6
CONTINUOUS
 62
   42
370
   -1
100
AcDbPolyline
 90
    6
 70
    1
 43
0
 10
77804.50001441711
 20
4333.743447174751
 10
77573.38056125345
 20
4333.743447174751
 10
77688.94028783527
 20
4119.632459370879
 10
77804.50001441711
 20
3905.521471567027
 10
77573.38056125345
 20
3905.521471567027
 10
77688.94028783527
 20
4119.632459370879
  0
TEXT
  5
D0
100
AcDbEntity
  8
TEKST
  6
CONTINUOUS
 62
  256
370
   -1
100
AcDbText
 10
82405.5743060664
 20
3715.075793082771
 30
0
 40
200
  1
_Cov 0-0
 50
0
 41
1
 51
0
  7
arial
 71
    0
210
0
220
0
230
1
100
AcDbText
  0
MTEXT
  5
D1
100
AcDbEntity
  8
Omriss tanker
  6
CONTINUOUS
 62
  256
370
   -1
100
AcDbMText
 10
77997.08717761688
 20
4171.735085686242
 30
0
 40
200
 41
1044.444444444463
 71
    1
 72
    5
  1
Manifold
  7
arial bold
210
0
220
0
230
1
 50
0
 73
    1
 44
1
  0
TEXT
  5
D2
100
AcDbEntity
  8
TEKST
  6
CONTINUOUS
 62
  256
370
   -1
100
AcDbText
 10
81926.57555180127
 20
4169.663343301584
 30
0
 40
100
  1
_Col 0-0
 50
0
 41
1
 51
0
  7
arial
 71
    0
210
0
220
0
230
1
100
AcDbText
  0
LWPOLYLINE
  5
D3
100
AcDbEntity
  8
Symboler
  6
CONTINUOUS
 62
   42
370
   -1
100
AcDbPolyline
 90
    6
 70
    1
 43
0
 10
77804.50001441711
 20
5660.884570003963
 10
77573.38056125345
 20
5660.884570003963
 10
77688.94028783527
 20
5446.773582200094
 10
77804.50001441711
 20
5232.662594396239
 10
77573.38056125345
 20
5232.662594396239
 10
77688.94028783527
 20
5446.773582200094
  0
TEXT
  5
D4
100
AcDbEntity
  8
TEKST
  6
CONTINUOUS
 62
  256
370
   -1
100
AcDbText
 10
79077.52607832367
 20
5780.211033777969
 30
0
 40
200
  1
_Fv 100
 50
0
 41
1
 51
0
  7
arial
 71
    0
210
0
220
0
230
1
100
AcDbText
  0
LWPOLYLINE
  5
D5
100
AcDbEntity
  8
Suction PS
  6
CONTINUOUS
 62
  256
370
   -1
100
AcDbPolyline
 90
    2
 70
    1
 43
0
 10
80612.44743309935
 20
4117.930077706058
 10
81531.52156904242
 20
4117.930077706058
  0
LWPOLYLINE
  5
D6
100
AcDbEntity
  8
Symboler
  6
CONTINUOUS
 62
  256
370
   -1
100
AcDbPolyline
 90
    4
 70
    1
 43
0
 10
78781.54467618036
 20
5255.161907194072
 10
78827.64497352582
 20
5255.161907194072
 10
78827.64497352582
 20
5552.407641532282
 42
9.824837950879669
 10
78781.54467618038
 20
5552.407641532279
  0
LWPOLYLINE
  5
D7
100
AcDbEntity
  8
Symboler
  6
CONTINUOUS
 62
  256
370
   -1
100
AcDbPolyline
 90
   20
 70
    1
 43
0
 10
80612.44743309935
 20
4082.656640206058
 10
80612.44743309935
 20
4153.203515206057
 10
80566.05879433893
 20
4153.203515206057
 10
80495.30064590577
 20
4212.326013411776
 10
80495.30064590577
 20
4153.203515206057
 10
80448.90116022727
 20
4153.203515206057
 42
1.92620841781756
 10
80210.35183913335
 20
3915.845412048263
 10
80210.35183913335
 20
3870.415808244736
 10
80151.22934092763
 20
3799.657659811588
 10
80210.35183913335
 20
3799.657659811588
 10
80210.35183913335
 20
3648.083453421968
 10
80280.89871413332
 20
3648.083453421968
 10
80280.89871413332
 20
3799.046811689123
 10
80339.40444231102
 20
3799.046811689123
 10
80280.89871413332
 20
3869.900803828142
 10
80280.89871413332
 20
3915.668830010328
 42
0.3158256435086089
 10
80448.90116022727
 20
4082.656640206055
 10
80494.68979778334
 20
4082.656640206056
 10
80494.68979778334
 20
4024.150912028424
 10
80565.54378992235
 20
4082.656640206056
  0
TEXT
  5
D8
100
AcDbEntity
  8
TEKST
  6
CONTINUOUS
 62
  256
370
   -1
100
AcDbText
 10
78829.57610659664
 20
5638.259910092128
 30
0
 40
100
  1
_Col 0-3
 50
0
 41
1
 51
0
  7
arial
 71
    0
210
0
220
0
230
1
100
AcDbText
  0
TEXT
  5
D9
100
AcDbEntity
  8
TEKST
  6
CONTINUOUS
 62
  256
370
   -1
100
AcDbText
 10
77715.6874449264
 20
5627.554757346143
 30
0
 40
100
  1
_Col 0-3
 50
0
 41
1
 51
0
  7
arial
 71
    0
210
0
220
0
230
1
100
AcDbText
  0
TEXT
  5
DA
100
AcDbEntity
  8
TEKST
  6
CONTINUOUS
 62
  256
370
   -1
100
AcDbText
 10
77694.26649524459
 20
4289.412299118244
 30
0
 40
100
  1
_Col 0-3
 50
0
 41
1
 51
0
  7
arial
 71
    0
210
0
220
0
230
1
100
AcDbText
  0
LWPOLYLINE
  5
DB
100
AcDbEntity
  8
Suction PS
  6
CONTINUOUS
 62
  256
370
   -1
100
AcDbPolyline
 90
   13
 70
    1
 43
0
 10
77688.94028783527
 20
5232.662594396239
 10
77688.94028783527
 20
4808.779269077639
 10
78804.59482485309
 20
4808.779269077639
 10
78804.59482485309
 20
5255.161907194072
 10
78804.59482485309
 20
4808.779269077639
 10
82628.11184170876
 20
4808.779269077639
 10
82628.11184170876
 20
4116.343798594196
 10
81961.88465452747
 20
4116.343798594196
 10
82628.11184170876
 20
4116.343798594196
 10
82628.11184170876
 20
4808.779269077639
 10
77688.94028783527
 20
4808.779269077639
 10
77688.94028783527
 20
4333.743447174751
 10
77688.94028783527
 20
5232.662594396239
  0
LWPOLYLINE
  5
DC
100
AcDbEntity
  8
Symboler
  6
CONTINUOUS
 62
   42
370
   -1
100
AcDbPolyline
 90
    7
 70
    1
 43
0
 10
81116.97423999531
 20
3682.181603218835
 10
80996.24321564897
 20
3905.874057726928
 10
81237.70526434168
 20
3905.874057726928
 10
81116.97423999531
 20
3682.181603218835
 10
81237.70526434168
 20
3458.489148710746
 10
80996.24321564897
 20
3458.489148710746
 10
81116.97423999531
 20
3682.181603218835
  0
LWPOLYLINE
  5
DD
100
AcDbEntity
  8
Suction PS
  6
CONTINUOUS
 62
  256
370
   -1
100
AcDbPolyline
 90
    3
 70
    1
 43
0
 10
81116.97423999532
 20
3905.874057726928
 10
81116.97423999532
 20
4117.930077706058
 10
81116.97423999532
 20
3905.874057726928
  0
LWPOLYLINE
  5
DE
100
AcDbEntity
  8
Suction PS
  6
CONTINUOUS
 62
  256
370
   -1
100
AcDbPolyline
 90
    3
 70
    1
 43
0
 10
81116.97423999532
 20
3458.489148710746
 10
81116.97423999532
 20
2815.912144879018
 10
81116.97423999532
 20
3458.489148710746
  0
TEXT
  5
DF
100
AcDbEntity
  8
TEKST
  6
CONTINUOUS
 62
  256
370
   -1
100
AcDbText
 10
81162.04645802655
 20
3554.249466089036
 30
0
 40
100
  1
_Col 0-3
 50
0
 41
1
 51
0
  7
arial
 71
    0
210
0
220
0
230
1
100
AcDbText
  0
ENDSEC
  0
SECTION
  2
OBJECTS
  0
DICTIONARY
  5
C
330
0
100
AcDbDictionary
281
    1
  3
ACAD_GROUP
350
D
  0
DICTIONARY
  5
D
330
C
100
AcDbDictionary
281
    1
  0
ENDSEC
  0
EOF
