  0
SECTION
  2
HEADER
  9
$ACADVER
  1
AC1018
  9
$ACADMAINTVER
 70
   104
  9
$DWGCODEPAGE
  3
ANSI_1252
  9
$LASTSAVEDBY
  1
pki
  9
$INSBASE
 10
0.0
 20
0.0
 30
0.0
  9
$EXTMIN
 10
2653.100753140457
 20
-524.6155896163659
 30
0.0
  9
$EXTMAX
 10
20943.67330777817
 20
16495.38085566738
 30
2.0
  9
$LIMMIN
 10
0.0
 20
0.0
  9
$LIMMAX
 10
420.0
 20
297.0
  9
$ORTHOMODE
 70
     0
  9
$REGENMODE
 70
     1
  9
$FILLMODE
 70
     1
  9
$QTEXTMODE
 70
     0
  9
$MIRRTEXT
 70
     0
  9
$LTSCALE
 40
1.0
  9
$ATTMODE
 70
     1
  9
$TEXTSIZE
 40
2.5
  9
$TRACEWID
 40
1.0
  9
$TEXTSTYLE
  7
Standard
  9
$CLAYER
  8
0
  9
$CELTYPE
  6
ByLayer
  9
$CECOLOR
 62
   256
  9
$CELTSCALE
 40
1.0
  9
$DISPSILH
 70
     0
  9
$DIMSCALE
 40
1.0
  9
$DIMASZ
 40
2.5
  9
$DIMEXO
 40
0.625
  9
$DIMDLI
 40
3.75
  9
$DIMRND
 40
0.0
  9
$DIMDLE
 40
0.0
  9
$DIMEXE
 40
1.25
  9
$DIMTP
 40
0.0
  9
$DIMTM
 40
0.0
  9
$DIMTXT
 40
2.5
  9
$DIMCEN
 40
2.5
  9
$DIMTSZ
 40
0.0
  9
$DIMTOL
 70
     0
  9
$DIMLIM
 70
     0
  9
$DIMTIH
 70
     0
  9
$DIMTOH
 70
     0
  9
$DIMSE1
 70
     0
  9
$DIMSE2
 70
     0
  9
$DIMTAD
 70
     1
  9
$DIMZIN
 70
     8
  9
$DIMBLK
  1

  9
$DIMASO
 70
     1
  9
$DIMSHO
 70
     1
  9
$DIMPOST
  1

  9
$DIMAPOST
  1

  9
$DIMALT
 70
     0
  9
$DIMALTD
 70
     3
  9
$DIMALTF
 40
0.03937007874016
  9
$DIMLFAC
 40
1.0
  9
$DIMTOFL
 70
     1
  9
$DIMTVP
 40
0.0
  9
$DIMTIX
 70
     0
  9
$DIMSOXD
 70
     0
  9
$DIMSAH
 70
     0
  9
$DIMBLK1
  1

  9
$DIMBLK2
  1

  9
$DIMSTYLE
  2
ISO-25
  9
$DIMCLRD
 70
     0
  9
$DIMCLRE
 70
     0
  9
$DIMCLRT
 70
     0
  9
$DIMTFAC
 40
1.0
  9
$DIMGAP
 40
0.625
  9
$DIMJUST
 70
     0
  9
$DIMSD1
 70
     0
  9
$DIMSD2
 70
     0
  9
$DIMTOLJ
 70
     0
  9
$DIMTZIN
 70
     8
  9
$DIMALTZ
 70
     0
  9
$DIMALTTZ
 70
     0
  9
$DIMUPT
 70
     0
  9
$DIMDEC
 70
     2
  9
$DIMTDEC
 70
     2
  9
$DIMALTU
 70
     2
  9
$DIMALTTD
 70
     3
  9
$DIMTXSTY
  7
Standard
  9
$DIMAUNIT
 70
     0
  9
$DIMADEC
 70
     0
  9
$DIMALTRND
 40
0.0
  9
$DIMAZIN
 70
     0
  9
$DIMDSEP
 70
    44
  9
$DIMATFIT
 70
     3
  9
$DIMFRAC
 70
     0
  9
$DIMLDRBLK
  1

  9
$DIMLUNIT
 70
     2
  9
$DIMLWD
 70
    -2
  9
$DIMLWE
 70
    -2
  9
$DIMTMOVE
 70
     0
  9
$LUNITS
 70
     2
  9
$LUPREC
 70
     4
  9
$SKETCHINC
 40
1.0
  9
$FILLETRAD
 40
0.0
  9
$AUNITS
 70
     0
  9
$AUPREC
 70
     0
  9
$MENU
  1
.
  9
$ELEVATION
 40
0.0
  9
$PELEVATION
 40
0.0
  9
$THICKNESS
 40
0.0
  9
$LIMCHECK
 70
     0
  9
$CHAMFERA
 40
0.0
  9
$CHAMFERB
 40
0.0
  9
$CHAMFERC
 40
0.0
  9
$CHAMFERD
 40
0.0
  9
$SKPOLY
 70
     0
  9
$TDCREATE
 40
2457428.494360266
  9
$TDUCREATE
 40
2457428.452693600
  9
$TDUPDATE
 40
2457428.495663021
  9
$TDUUPDATE
 40
2457428.453996354
  9
$TDINDWG
 40
0.0011859259
  9
$TDUSRTIMER
 40
0.0011859259
  9
$USRTIMER
 70
     1
  9
$ANGBASE
 50
0.0
  9
$ANGDIR
 70
     0
  9
$PDMODE
 70
     0
  9
$PDSIZE
 40
0.0
  9
$PLINEWID
 40
0.0
  9
$SPLFRAME
 70
     0
  9
$SPLINETYPE
 70
     6
  9
$SPLINESEGS
 70
     8
  9
$HANDSEED
  5
1C6
  9
$SURFTAB1
 70
     6
  9
$SURFTAB2
 70
     6
  9
$SURFTYPE
 70
     6
  9
$SURFU
 70
     6
  9
$SURFV
 70
     6
  9
$UCSBASE
  2

  9
$UCSNAME
  2

  9
$UCSORG
 10
0.0
 20
0.0
 30
0.0
  9
$UCSXDIR
 10
1.0
 20
0.0
 30
0.0
  9
$UCSYDIR
 10
0.0
 20
1.0
 30
0.0
  9
$UCSORTHOREF
  2

  9
$UCSORTHOVIEW
 70
     0
  9
$UCSORGTOP
 10
0.0
 20
0.0
 30
0.0
  9
$UCSORGBOTTOM
 10
0.0
 20
0.0
 30
0.0
  9
$UCSORGLEFT
 10
0.0
 20
0.0
 30
0.0
  9
$UCSORGRIGHT
 10
0.0
 20
0.0
 30
0.0
  9
$UCSORGFRONT
 10
0.0
 20
0.0
 30
0.0
  9
$UCSORGBACK
 10
0.0
 20
0.0
 30
0.0
  9
$PUCSBASE
  2

  9
$PUCSNAME
  2

  9
$PUCSORG
 10
0.0
 20
0.0
 30
0.0
  9
$PUCSXDIR
 10
1.0
 20
0.0
 30
0.0
  9
$PUCSYDIR
 10
0.0
 20
1.0
 30
0.0
  9
$PUCSORTHOREF
  2

  9
$PUCSORTHOVIEW
 70
     0
  9
$PUCSORGTOP
 10
0.0
 20
0.0
 30
0.0
  9
$PUCSORGBOTTOM
 10
0.0
 20
0.0
 30
0.0
  9
$PUCSORGLEFT
 10
0.0
 20
0.0
 30
0.0
  9
$PUCSORGRIGHT
 10
0.0
 20
0.0
 30
0.0
  9
$PUCSORGFRONT
 10
0.0
 20
0.0
 30
0.0
  9
$PUCSORGBACK
 10
0.0
 20
0.0
 30
0.0
  9
$USERI1
 70
     0
  9
$USERI2
 70
     0
  9
$USERI3
 70
     0
  9
$USERI4
 70
     0
  9
$USERI5
 70
     0
  9
$USERR1
 40
0.0
  9
$USERR2
 40
0.0
  9
$USERR3
 40
0.0
  9
$USERR4
 40
0.0
  9
$USERR5
 40
0.0
  9
$WORLDVIEW
 70
     1
  9
$SHADEDGE
 70
     3
  9
$SHADEDIF
 70
    70
  9
$TILEMODE
 70
     1
  9
$MAXACTVP
 70
    64
  9
$PINSBASE
 10
0.0
 20
0.0
 30
0.0
  9
$PLIMCHECK
 70
     0
  9
$PEXTMIN
 10
0.0
 20
0.0
 30
0.0
  9
$PEXTMAX
 10
0.0
 20
0.0
 30
0.0
  9
$PLIMMIN
 10
0.0
 20
0.0
  9
$PLIMMAX
 10
12.0
 20
9.0
  9
$UNITMODE
 70
     0
  9
$VISRETAIN
 70
     1
  9
$PLINEGEN
 70
     0
  9
$PSLTSCALE
 70
     1
  9
$TREEDEPTH
 70
  3020
  9
$CMLSTYLE
  2
Standard
  9
$CMLJUST
 70
     0
  9
$CMLSCALE
 40
20.0
  9
$PROXYGRAPHICS
 70
     1
  9
$MEASUREMENT
 70
     1
  9
$CELWEIGHT
370
    -1
  9
$ENDCAPS
280
     0
  9
$JOINSTYLE
280
     0
  9
$LWDISPLAY
290
     0
  9
$INSUNITS
 70
     4
  9
$HYPERLINKBASE
  1

  9
$STYLESHEET
  1

  9
$XEDIT
290
     1
  9
$CEPSNTYPE
380
     0
  9
$PSTYLEMODE
290
     1
  9
$FINGERPRINTGUID
  2
{36C4C5B4-988A-46F0-9F0F-89D61C8BA0F3}
  9
$VERSIONGUID
  2
{8099C1D1-ACDE-4319-9569-D15D3C3C8251}
  9
$EXTNAMES
290
     1
  9
$PSVPSCALE
 40
0.0
  9
$OLESTARTUP
290
     0
  9
$SORTENTS
280
   127
  9
$INDEXCTL
280
     0
  9
$HIDETEXT
280
     1
  9
$XCLIPFRAME
290
     0
  9
$HALOGAP
280
     0
  9
$OBSCOLOR
 70
   257
  9
$OBSLTYPE
280
     0
  9
$INTERSECTIONDISPLAY
280
     0
  9
$INTERSECTIONCOLOR
 70
   257
  9
$DIMASSOC
280
     2
  9
$PROJECTNAME
  1

  0
ENDSEC
  0
SECTION
  2
CLASSES
  0
CLASS
  1
ACDBDICTIONARYWDFLT
  2
AcDbDictionaryWithDefault
  3
ObjectDBX Classes
 90
        0
 91
        1
280
     0
281
     0
  0
CLASS
  1
DICTIONARYVAR
  2
AcDbDictionaryVar
  3
ObjectDBX Classes
 90
        0
 91
        5
280
     0
281
     0
  0
CLASS
  1
TABLESTYLE
  2
AcDbTableStyle
  3
ObjectDBX Classes
 90
     4095
 91
        1
280
     0
281
     0
  0
CLASS
  1
MATERIAL
  2
AcDbMaterial
  3
ObjectDBX Classes
 90
     1024
 91
        3
280
     0
281
     0
  0
CLASS
  1
VISUALSTYLE
  2
AcDbVisualStyle
  3
ObjectDBX Classes
 90
     4095
 91
       17
280
     0
281
     0
  0
ENDSEC
  0
SECTION
  2
TABLES
  0
TABLE
  2
VPORT
  5
8
330
0
100
AcDbSymbolTable
 70
     1
  0
VPORT
  5
EA
330
8
100
AcDbSymbolTableRecord
100
AcDbViewportTableRecord
  2
*Active
 70
     0
 10
0.0
 20
0.0
 11
1.0
 21
1.0
 12
11688.2890864975
 22
9738.419949299798
 13
0.0
 23
0.0
 14
10.0
 24
10.0
 15
10.0
 25
10.0
 16
0.0
 26
0.0
 36
1.0
 17
0.0
 27
0.0
 37
0.0
 40
21701.2585428794
 41
2.098072087175188
 42
50.0
 43
0.0
 44
0.0
 50
0.0
 51
0.0
 71
     0
 72
  1000
 73
     1
 74
     3
 75
     0
 76
     0
 77
     0
 78
     0
281
     0
 65
     1
110
0.0
120
0.0
130
0.0
111
1.0
121
0.0
131
0.0
112
0.0
122
1.0
132
0.0
 79
     0
146
0.0
  0
ENDTAB
  0
TABLE
  2
LTYPE
  5
5
330
0
100
AcDbSymbolTable
 70
     1
  0
LTYPE
  5
14
330
5
100
AcDbSymbolTableRecord
100
AcDbLinetypeTableRecord
  2
ByBlock
 70
     0
  3

 72
    65
 73
     0
 40
0.0
  0
LTYPE
  5
15
330
5
100
AcDbSymbolTableRecord
100
AcDbLinetypeTableRecord
  2
ByLayer
 70
     0
  3

 72
    65
 73
     0
 40
0.0
  0
LTYPE
  5
16
330
5
100
AcDbSymbolTableRecord
100
AcDbLinetypeTableRecord
  2
Continuous
 70
     0
  3
Solid line
 72
    65
 73
     0
 40
0.0
  0
ENDTAB
  0
TABLE
  2
LAYER
  5
2
102
{ACAD_XDICTIONARY
360
128
102
}
330
0
100
AcDbSymbolTable
 70
     7
  0
LAYER
  5
10
330
2
100
AcDbSymbolTableRecord
100
AcDbLayerTableRecord
  2
0
 70
     0
 62
     7
  6
Continuous
370
    -3
390
F
  0
LAYER
  5
10F
102
{ACAD_XDICTIONARY
360
110
102
}
330
2
100
AcDbSymbolTableRecord
100
AcDbLayerTableRecord
  2
TEKST
 70
     0
 62
     7
  6
Continuous
370
    -3
390
F
  0
LAYER
  5
112
102
{ACAD_XDICTIONARY
360
113
102
}
330
2
100
AcDbSymbolTableRecord
100
AcDbLayerTableRecord
  2
LAYER01
 70
     0
 62
     7
  6
Continuous
370
    -3
390
F
  0
LAYER
  5
115
102
{ACAD_XDICTIONARY
360
116
102
}
330
2
100
AcDbSymbolTableRecord
100
AcDbLayerTableRecord
  2
Symboler
 70
     0
 62
    42
  6
Continuous
370
    -3
390
F
  0
LAYER
  5
118
102
{ACAD_XDICTIONARY
360
119
102
}
330
2
100
AcDbSymbolTableRecord
100
AcDbLayerTableRecord
  2
Suction PS
 70
     0
 62
   131
  6
Continuous
370
    -3
390
F
  0
LAYER
  5
11B
102
{ACAD_XDICTIONARY
360
11C
102
}
330
2
100
AcDbSymbolTableRecord
100
AcDbLayerTableRecord
  2
Suction SB
 70
     0
 62
   211
  6
Continuous
370
    -3
390
F
  0
LAYER
  5
11E
102
{ACAD_XDICTIONARY
360
11F
102
}
330
2
100
AcDbSymbolTableRecord
100
AcDbLayerTableRecord
  2
Suction C
 70
     0
 62
   201
  6
Continuous
370
    -3
390
F
  0
ENDTAB
  0
TABLE
  2
STYLE
  5
3
330
0
100
AcDbSymbolTable
 70
     3
  0
STYLE
  5
11
330
3
100
AcDbSymbolTableRecord
100
AcDbTextStyleTableRecord
  2
Standard
 70
     0
 40
0.0
 41
1.0
 50
0.0
 71
     0
 42
2.5
  3
txt
  4

  0
STYLE
  5
121
330
3
100
AcDbSymbolTableRecord
100
AcDbTextStyleTableRecord
  2
ROMANS
 70
     0
 40
3.0
 41
1.0
 50
0.0
 71
     0
 42
3.0
  3
romans
  4

  0
STYLE
  5
122
330
3
100
AcDbSymbolTableRecord
100
AcDbTextStyleTableRecord
  2
ARIAL
 70
     0
 40
12.0
 41
1.0
 50
0.0
 71
     0
 42
12.0
  3
arial.ttf
  4

1001
ACAD
1000
Arial
1071
       34
  0
ENDTAB
  0
TABLE
  2
VIEW
  5
6
330
0
100
AcDbSymbolTable
 70
     0
  0
ENDTAB
  0
TABLE
  2
UCS
  5
7
330
0
100
AcDbSymbolTable
 70
     0
  0
ENDTAB
  0
TABLE
  2
APPID
  5
9
330
0
100
AcDbSymbolTable
 70
     3
  0
APPID
  5
12
330
9
100
AcDbSymbolTableRecord
100
AcDbRegAppTableRecord
  2
ACAD
 70
     0
  0
APPID
  5
9E
330
9
100
AcDbSymbolTableRecord
100
AcDbRegAppTableRecord
  2
ACAD_PSEXT
 70
     0
  0
APPID
  5
124
330
9
100
AcDbSymbolTableRecord
100
AcDbRegAppTableRecord
  2
ACAD_NAV_VCDISPLAY
 70
     0
  0
ENDTAB
  0
TABLE
  2
DIMSTYLE
  5
A
330
0
100
AcDbSymbolTable
 70
     2
100
AcDbDimStyleTable
 71
     1
340
27
  0
DIMSTYLE
105
27
330
A
100
AcDbSymbolTableRecord
100
AcDbDimStyleTableRecord
  2
ISO-25
 70
     0
 41
2.5
 42
0.625
 43
3.75
 44
1.25
 73
     0
 74
     0
 77
     1
 78
     8
140
2.5
141
2.5
143
0.03937007874016
147
0.625
171
     3
172
     1
271
     2
272
     2
274
     3
278
    44
283
     0
284
     8
340
11
  0
DIMSTYLE
105
123
330
A
100
AcDbSymbolTableRecord
100
AcDbDimStyleTableRecord
  2
TST
 70
     0
 41
1.0
 42
0.06
140
2.5
146
0.072
147
3.0
271
     2
272
     2
279
     2
340
121
  0
ENDTAB
  0
TABLE
  2
BLOCK_RECORD
  5
1
330
0
100
AcDbSymbolTable
 70
     1
  0
BLOCK_RECORD
  5
1F
330
1
100
AcDbSymbolTableRecord
100
AcDbBlockTableRecord
  2
*Model_Space
340
22
  0
BLOCK_RECORD
  5
D2
330
1
100
AcDbSymbolTableRecord
100
AcDbBlockTableRecord
  2
*Paper_Space
340
D3
  0
BLOCK_RECORD
  5
D6
330
1
100
AcDbSymbolTableRecord
100
AcDbBlockTableRecord
  2
*Paper_Space0
340
D7
  0
ENDTAB
  0
ENDSEC
  0
SECTION
  2
BLOCKS
  0
BLOCK
  5
20
330
1F
100
AcDbEntity
  8
0
100
AcDbBlockBegin
  2
*Model_Space
 70
     0
 10
0.0
 20
0.0
 30
0.0
  3
*Model_Space
  1

  0
ENDBLK
  5
21
330
1F
100
AcDbEntity
  8
0
100
AcDbBlockEnd
  0
BLOCK
  5
D4
330
D2
100
AcDbEntity
 67
     1
  8
0
100
AcDbBlockBegin
  2
*Paper_Space
 70
     0
 10
0.0
 20
0.0
 30
0.0
  3
*Paper_Space
  1

  0
ENDBLK
  5
D5
330
D2
100
AcDbEntity
 67
     1
  8
0
100
AcDbBlockEnd
  0
BLOCK
  5
D8
330
D6
100
AcDbEntity
 67
     1
  8
0
100
AcDbBlockBegin
  2
*Paper_Space0
 70
     0
 10
0.0
 20
0.0
 30
0.0
  3
*Paper_Space0
  1

  0
ENDBLK
  5
D9
330
D6
100
AcDbEntity
 67
     1
  8
0
100
AcDbBlockEnd
  0
ENDSEC
  0
SECTION
  2
ENTITIES
  0
LWPOLYLINE
  5
173
330
1F
100
AcDbEntity
  8
Symboler
  6
Continuous
 62
    42
100
AcDbPolyline
 90
       11
 70
     1
 39
1.399999999999999
 10
8802.255583637103
 20
6689.272861974638
 40
0.84
 41
0.84
 10
8802.255583637103
 20
7126.93397167113
 40
0.84
 41
0.84
 10
8532.489868911332
 20
7126.93397167113
 40
0.84
 41
0.84
 42
-0.8846768105770848
 10
9135.021298362902
 20
7126.93397167113
 40
0.84
 41
0.84
 10
8865.255583637029
 20
7126.93397167113
 40
0.84
 41
0.84
 10
8865.255583637029
 20
6689.272861974638
 40
0.84
 41
0.84
 10
9283.388658025215
 20
6914.947145423244
 40
0.0
 41
0.0
 10
9283.388658025215
 20
6429.596293779617
 40
0.84
 41
0.84
 10
8833.75558363703
 20
6672.271719601416
 40
0.84
 41
0.84
 10
8384.122509248904
 20
6429.596293779617
 40
0.0
 41
0.0
 10
8384.122509248904
 20
6914.947145423244
 40
0.84
 41
0.84
  0
LWPOLYLINE
  5
174
330
1F
100
AcDbEntity
  8
Symboler
  6
Continuous
 62
    42
100
AcDbPolyline
 90
       11
 70
     1
 39
1.399999999999999
 10
15791.88186927365
 20
14485.36973202662
 40
0.84
 41
0.84
 10
15791.88186927365
 20
14047.70862233022
 40
0.84
 41
0.84
 10
16061.64758399945
 20
14047.70862233022
 40
0.84
 41
0.84
 42
-0.8846768105770848
 10
15459.11615454785
 20
14047.70862233022
 40
0.84
 41
0.84
 10
15728.88186927365
 20
14047.70862233022
 40
0.84
 41
0.84
 10
15728.88186927365
 20
14485.36973202662
 40
0.84
 41
0.84
 10
15310.74879488544
 20
14259.69544857802
 40
0.0
 41
0.0
 10
15310.74879488544
 20
14745.04630022164
 40
0.84
 41
0.84
 10
15760.38186927365
 20
14502.37087439982
 40
0.84
 41
0.84
 10
16210.01494366175
 20
14745.04630022164
 40
0.0
 41
0.0
 10
16210.01494366175
 20
14259.69544857802
 40
0.84
 41
0.84
  0
LWPOLYLINE
  5
175
330
1F
100
AcDbEntity
  8
Symboler
  6
Continuous
 62
    42
100
AcDbPolyline
 90
       11
 70
     1
 39
1.399999999999999
 10
12026.35679810875
 20
14485.36973202662
 40
0.84
 41
0.84
 10
12026.35679810875
 20
14047.70862233022
 40
0.84
 41
0.84
 10
12296.12251283454
 20
14047.70862233022
 40
0.84
 41
0.84
 42
-0.8846768105770848
 10
11693.59108338294
 20
14047.70862233022
 40
0.84
 41
0.84
 10
11963.35679810875
 20
14047.70862233022
 40
0.84
 41
0.84
 10
11963.35679810875
 20
14485.36973202662
 40
0.84
 41
0.84
 10
11545.22372372064
 20
14259.69544857802
 40
0.0
 41
0.0
 10
11545.22372372064
 20
14745.04630022164
 40
0.84
 41
0.84
 10
11994.85679810875
 20
14502.37087439982
 40
0.84
 41
0.84
 10
12444.48987249685
 20
14745.04630022164
 40
0.0
 41
0.0
 10
12444.48987249685
 20
14259.69544857802
 40
0.84
 41
0.84
  0
LWPOLYLINE
  5
176
330
1F
100
AcDbEntity
  8
Symboler
  6
Continuous
 62
    42
100
AcDbPolyline
 90
       11
 70
     1
 39
1.399999999999999
 10
11083.44245983964
 20
12354.48558478194
 40
0.84
 41
0.84
 10
10645.78135014324
 20
12354.48558478194
 40
0.84
 41
0.84
 10
10645.78135014324
 20
12084.71987005614
 40
0.84
 41
0.84
 42
-0.8846768105770848
 10
10645.78135014324
 20
12687.25129950774
 40
0.84
 41
0.84
 10
10645.78135014324
 20
12417.48558478194
 40
0.84
 41
0.84
 10
11083.44245983964
 20
12417.48558478194
 40
0.84
 41
0.84
 10
10857.76817639115
 20
12835.61865917003
 40
0.0
 41
0.0
 10
11343.11902803473
 20
12835.61865917003
 40
0.84
 41
0.84
 10
11100.44360221295
 20
12385.98558478194
 40
0.84
 41
0.84
 10
11343.11902803473
 20
11936.35251039383
 40
0.0
 41
0.0
 10
10857.76817639115
 20
11936.35251039383
 40
0.84
 41
0.84
  0
LWPOLYLINE
  5
177
330
1F
100
AcDbEntity
  8
Symboler
  6
Continuous
 62
    42
100
AcDbPolyline
 90
       11
 70
     1
 39
1.399999999999999
 10
9289.310005908323
 20
9067.619621541123
 40
0.84
 41
0.84
 10
9289.310005908323
 20
8629.958511844717
 40
0.84
 41
0.84
 10
9559.075720634123
 20
8629.958511844717
 40
0.84
 41
0.84
 42
-0.8846768105770848
 10
8956.544291182522
 20
8629.958511844717
 40
0.84
 41
0.84
 10
9226.310005908322
 20
8629.958511844717
 40
0.84
 41
0.84
 10
9226.310005908322
 20
9067.619621541123
 40
0.84
 41
0.84
 10
8808.176931520211
 20
8841.945338092545
 40
0.0
 41
0.0
 10
8808.176931520211
 20
9327.296189736143
 40
0.84
 41
0.84
 10
9257.810005908323
 20
9084.620763914342
 40
0.84
 41
0.84
 10
9707.443080296506
 20
9327.296189736143
 40
0.0
 41
0.0
 10
9707.443080296506
 20
8841.945338092545
 40
0.84
 41
0.84
  0
LWPOLYLINE
  5
178
330
1F
100
AcDbEntity
  8
Symboler
  6
Continuous
 62
    42
100
AcDbPolyline
 90
       11
 70
     1
 39
1.399999999999999
 10
7564.562270290785
 20
10519.11127136962
 40
0.84
 41
0.84
 10
7126.901160594512
 20
10519.11127136962
 40
0.84
 41
0.84
 10
7126.901160594512
 20
10249.34555664382
 40
0.84
 41
0.84
 42
-0.8846768105770848
 10
7126.901160594512
 20
10851.87698609542
 40
0.84
 41
0.84
 10
7126.901160594512
 20
10582.11127136962
 40
0.84
 41
0.84
 10
7564.562270290785
 20
10582.11127136962
 40
0.84
 41
0.84
 10
7338.887986842294
 20
11000.24434575782
 40
0.0
 41
0.0
 10
7824.238838485921
 20
11000.24434575782
 40
0.84
 41
0.84
 10
7581.563412664123
 20
10550.61127136962
 40
0.84
 41
0.84
 10
7824.238838485921
 20
10100.97819698151
 40
0.0
 41
0.0
 10
7338.887986842294
 20
10100.97819698151
 40
0.84
 41
0.84
  0
LWPOLYLINE
  5
179
330
1F
100
AcDbEntity
  8
Symboler
  6
Continuous
 62
    42
100
AcDbPolyline
 90
       11
 70
     1
 39
1.399999999999999
 10
7598.564555037373
 20
2260.180835090042
 40
0.84
 41
0.84
 10
8036.225664733791
 20
2260.180835090042
 40
0.84
 41
0.84
 10
8036.225664733791
 20
2529.946549815842
 40
0.84
 41
0.84
 42
-0.8846768105770848
 10
8036.225664733791
 20
1927.415120364243
 40
0.84
 41
0.84
 10
8036.225664733791
 20
2197.180835090042
 40
0.84
 41
0.84
 10
7598.564555037373
 20
2197.180835090042
 40
0.84
 41
0.84
 10
7824.238838485921
 20
1779.047760701829
 40
0.0
 41
0.0
 10
7338.887986842294
 20
1779.047760701829
 40
0.84
 41
0.84
 10
7581.563412664209
 20
2228.680835090043
 40
0.84
 41
0.84
 10
7338.887986842294
 20
2678.313909478125
 40
0.0
 41
0.0
 10
7824.238838485921
 20
2678.313909478125
 40
0.84
 41
0.84
  0
LWPOLYLINE
  5
17A
330
1F
100
AcDbEntity
  8
Symboler
  6
Continuous
 62
    42
100
AcDbPolyline
 90
       11
 70
     1
 39
1.399999999999999
 10
11750.92987681605
 20
2752.719510187733
 40
0.84
 41
0.84
 10
12188.59098651255
 20
2752.719510187733
 40
0.84
 41
0.84
 10
12188.59098651255
 20
3022.485224913533
 40
0.84
 41
0.84
 42
-0.8846768105770848
 10
12188.59098651255
 20
2419.953795461933
 40
0.84
 41
0.84
 10
12188.59098651255
 20
2689.719510187733
 40
0.84
 41
0.84
 10
11750.92987681605
 20
2689.719510187733
 40
0.84
 41
0.84
 10
11976.60416026464
 20
2271.586435799621
 40
0.0
 41
0.0
 10
11491.25330862104
 20
2271.586435799621
 40
0.84
 41
0.84
 10
11733.92873444284
 20
2721.219510187733
 40
0.84
 41
0.84
 10
11491.25330862104
 20
3170.852584575845
 40
0.0
 41
0.0
 10
11976.60416026464
 20
3170.852584575845
 40
0.84
 41
0.84
  0
LWPOLYLINE
  5
17B
330
1F
100
AcDbEntity
  8
Symboler
  6
Continuous
 62
    42
100
AcDbPolyline
 90
        7
 70
     1
 39
1.399999999999999
 10
10187.35056178309
 20
14502.37087439982
 40
0.84
 41
0.84
 10
9737.717487394926
 20
14259.69544857802
 40
0.0
 41
0.0
 10
9737.717487394926
 20
14745.04630022164
 40
0.84
 41
0.84
 10
10187.35056178309
 20
14502.37087439982
 40
0.84
 41
0.84
 10
10636.98363617115
 20
14745.04630022164
 40
0.0
 41
0.0
 10
10636.98363617115
 20
14259.69544857802
 40
0.84
 41
0.84
 10
10187.35056178309
 20
14502.37087439982
 40
0.84
 41
0.84
  0
LWPOLYLINE
  5
17C
330
1F
100
AcDbEntity
  8
Symboler
  6
Continuous
 62
    42
100
AcDbPolyline
 90
        7
 70
     1
 39
1.399999999999999
 10
14185.20922413845
 20
14502.37087439982
 40
0.84
 41
0.84
 10
13735.57614975035
 20
14259.69544857802
 40
0.0
 41
0.0
 10
13735.57614975035
 20
14745.04630022164
 40
0.84
 41
0.84
 10
14185.20922413845
 20
14502.37087439982
 40
0.84
 41
0.84
 10
14634.84229852665
 20
14745.04630022164
 40
0.0
 41
0.0
 10
14634.84229852665
 20
14259.69544857802
 40
0.84
 41
0.84
 10
14185.20922413845
 20
14502.37087439982
 40
0.84
 41
0.84
  0
LWPOLYLINE
  5
17D
330
1F
100
AcDbEntity
  8
Symboler
  6
Continuous
 62
    42
100
AcDbPolyline
 90
        7
 70
     1
 39
1.399999999999999
 10
7581.563412664123
 20
12396.17070285173
 40
0.84
 41
0.84
 10
7338.887986842294
 20
12845.80377723981
 40
0.0
 41
0.0
 10
7824.238838485921
 20
12845.80377723981
 40
0.84
 41
0.84
 10
7581.563412664123
 20
12396.17070285173
 40
0.84
 41
0.84
 10
7824.238838485921
 20
11946.53762846362
 40
0.0
 41
0.0
 10
7338.887986842294
 20
11946.53762846362
 40
0.84
 41
0.84
 10
7581.563412664123
 20
12396.17070285173
 40
0.84
 41
0.84
  0
LWPOLYLINE
  5
17E
330
1F
100
AcDbEntity
  8
LAYER01
  6
Continuous
 62
     7
100
AcDbPolyline
 90
        9
 70
     1
 43
0.0
 39
2.0
 10
12993.78508708704
 20
1896.531756049622
 10
13548.47177467974
 20
1896.531756049622
 10
13335.89468754336
 20
2290.398126778924
 10
13751.12843088346
 20
2290.398126778924
 10
13751.12843088346
 20
2530.398126778924
 10
13321.44279451984
 20
2530.398126778924
 10
13788.47177467974
 20
3644.26449750824
 10
12753.78508708704
 20
3644.26449750824
 10
13271.12843088346
 20
2410.398126778924
  0
LWPOLYLINE
  5
17F
330
1F
100
AcDbEntity
  8
Suction PS
  6
Continuous
100
AcDbPolyline
 90
        3
 70
     1
 43
0.3
 39
0.1
 10
5721.003227454435
 20
4378.51607085513
 10
18835.57126322474
 20
4378.51607085513
 10
5721.003227454435
 20
4378.51607085513
  0
LWPOLYLINE
  5
180
330
1F
100
AcDbEntity
  8
Suction PS
  6
Continuous
100
AcDbPolyline
 90
        3
 70
     1
 43
0.3
 39
0.1
 10
15310.74879488544
 20
14502.37087439993
 10
14634.84229852665
 20
14502.37087439993
 10
15310.74879488544
 20
14502.37087439993
  0
LWPOLYLINE
  5
181
330
1F
100
AcDbEntity
  8
Suction PS
  6
Continuous
100
AcDbPolyline
 90
        3
 70
     1
 43
0.3
 39
0.1
 10
13735.57614975035
 20
14502.37087439993
 10
12444.48987249685
 20
14502.37087439993
 10
13735.57614975035
 20
14502.37087439993
  0
LWPOLYLINE
  5
182
330
1F
100
AcDbEntity
  8
Suction PS
  6
Continuous
100
AcDbPolyline
 90
        3
 70
     1
 43
0.3
 39
0.1
 10
11545.22372372064
 20
14502.37087439993
 10
10636.98363617115
 20
14502.37087439993
 10
11545.22372372064
 20
14502.37087439993
  0
LWPOLYLINE
  5
183
330
1F
100
AcDbEntity
  8
Suction PS
  6
Continuous
100
AcDbPolyline
 90
        3
 70
     1
 43
0.3
 39
0.1
 10
9737.717487394926
 20
14502.37087439993
 10
8466.954426801109
 20
14502.37087439993
 10
9737.717487394926
 20
14502.37087439993
  0
LWPOLYLINE
  5
184
330
1F
100
AcDbEntity
  8
Suction PS
  6
Continuous
100
AcDbPolyline
 90
        5
 70
     1
 43
0.3
 39
0.1
 10
11545.22372372064
 20
14502.37087439993
 10
11100.44360221295
 20
14502.37087439982
 10
11100.44360221295
 20
12835.61865917003
 10
11100.44360221295
 20
14502.37087439982
 10
11545.22372372064
 20
14502.37087439993
  0
LWPOLYLINE
  5
185
330
1F
100
AcDbEntity
  8
Suction PS
  6
Continuous
100
AcDbPolyline
 90
        3
 70
     1
 43
0.3
 39
0.1
 10
7581.563412664123
 20
13515.69296340333
 10
7581.563412664123
 20
12845.80377723981
 10
7581.563412664123
 20
13515.69296340333
  0
LWPOLYLINE
  5
186
330
1F
100
AcDbEntity
  8
Suction PS
  6
Continuous
100
AcDbPolyline
 90
        3
 70
     1
 43
0.3
 39
0.1
 10
7581.563412664123
 20
11946.53762846362
 10
7581.563412664123
 20
11000.24434575782
 10
7581.563412664123
 20
11946.53762846362
  0
LWPOLYLINE
  5
187
330
1F
100
AcDbEntity
  8
Suction PS
  6
Continuous
100
AcDbPolyline
 90
        5
 70
     1
 43
0.3
 39
0.1
 10
8808.176931520211
 20
9084.620763914342
 10
7581.563412664123
 20
9084.620763914342
 10
7581.563412664123
 20
10100.97819698151
 10
7581.563412664123
 20
9084.620763914342
 10
8808.176931520211
 20
9084.620763914342
  0
LWPOLYLINE
  5
188
330
1F
100
AcDbEntity
  8
Suction PS
  6
Continuous
100
AcDbPolyline
 90
        5
 70
     1
 43
0.3
 39
0.1
 10
8384.122509248904
 20
6672.271719601416
 10
7581.563412664123
 20
6672.271719601416
 10
7581.563412664123
 20
9084.620763914342
 10
7581.563412664123
 20
6672.271719601416
 10
8384.122509248904
 20
6672.271719601416
  0
LWPOLYLINE
  5
189
330
1F
100
AcDbEntity
  8
Suction PS
  6
Continuous
100
AcDbPolyline
 90
        3
 70
     1
 43
0.3
 39
0.1
 10
11100.44360221295
 20
11936.35251039383
 10
11100.44360221295
 20
4378.51607085513
 10
11100.44360221295
 20
11936.35251039383
  0
LWPOLYLINE
  5
18A
330
1F
100
AcDbEntity
  8
Suction PS
  6
Continuous
100
AcDbPolyline
 90
        3
 70
     1
 43
0.3
 39
0.1
 10
9707.443080296506
 20
9084.620763914342
 10
11100.44360221295
 20
9084.620763914342
 10
9707.443080296506
 20
9084.620763914342
  0
LWPOLYLINE
  5
18B
330
1F
100
AcDbEntity
  8
Suction PS
  6
Continuous
100
AcDbPolyline
 90
        3
 70
     1
 43
0.3
 39
0.1
 10
11733.92873444276
 20
-524.6155896163659
 10
11733.92873444284
 20
2271.586435799621
 10
11733.92873444276
 20
-524.6155896163659
  0
LWPOLYLINE
  5
18C
330
1F
100
AcDbEntity
  8
Symboler
  6
Continuous
 62
    42
100
AcDbPolyline
 90
        7
 70
     1
 39
1.399999999999999
 10
13271.12843088346
 20
847.6949092406171
 40
0.84
 41
0.84
 10
13028.45300506166
 20
1297.327983628729
 40
0.0
 41
0.0
 10
13513.80385670525
 20
1297.327983628729
 40
0.84
 41
0.84
 10
13271.12843088346
 20
847.6949092406171
 40
0.84
 41
0.84
 10
13513.80385670525
 20
398.0618348525345
 40
0.0
 41
0.0
 10
13028.45300506166
 20
398.0618348525345
 40
0.84
 41
0.84
 10
13271.12843088346
 20
847.6949092406171
 40
0.84
 41
0.84
  0
LWPOLYLINE
  5
18D
330
1F
100
AcDbEntity
  8
Suction PS
  6
Continuous
100
AcDbPolyline
 90
        3
 70
     1
 43
0.3
 39
0.1
 10
13271.12843088346
 20
1896.531756049622
 10
13271.12843088346
 20
1297.327983628729
 10
13271.12843088346
 20
1896.531756049622
  0
LWPOLYLINE
  5
18E
330
1F
100
AcDbEntity
  8
Suction PS
  6
Continuous
100
AcDbPolyline
 90
        5
 70
     1
 43
0.3
 39
0.1
 10
13271.12843088346
 20
398.0618348525345
 10
13271.12843088346
 20
270.5758664659402
 10
11733.92873444284
 20
270.5758664659402
 10
13271.12843088346
 20
270.5758664659402
 10
13271.12843088346
 20
398.0618348525345
  0
TEXT
  5
18F
330
1F
100
AcDbEntity
  8
TEKST
  6
Continuous
100
AcDbText
 10
15952.78005870165
 20
14575.30143830483
 30
0.0
 40
280.0
  1
_Col 53-1
  7
ARIAL
100
AcDbText
  0
TEXT
  5
190
330
1F
100
AcDbEntity
  8
TEKST
  6
Continuous
100
AcDbText
 10
12168.25738320904
 20
14553.69963965813
 30
0.0
 40
280.0
  1
_Col 53-2
  7
ARIAL
100
AcDbText
  0
TEXT
  5
191
330
1F
100
AcDbEntity
  8
TEKST
  6
Continuous
100
AcDbText
 10
7491.786998430426
 20
10970.71160825843
 30
0.0
 40
280.0
  1
_Col 53-3
  7
ARIAL
100
AcDbText
  0
TEXT
  5
192
330
1F
100
AcDbEntity
  8
TEKST
  6
Continuous
100
AcDbText
 10
11006.63056814785
 20
12823.57339150075
 30
0.0
 40
280.0
  1
_Col 53-4
  7
ARIAL
100
AcDbText
  0
TEXT
  5
193
330
1F
100
AcDbEntity
  8
TEKST
  6
Continuous
100
AcDbText
 10
9429.365150664976
 20
9139.655652434248
 30
0.0
 40
280.0
  1
_Col 53-5
  7
ARIAL
100
AcDbText
  0
TEXT
  5
194
330
1F
100
AcDbEntity
  8
TEKST
  6
Continuous
100
AcDbText
 10
8775.321677639222
 20
7302.990530081737
 30
0.0
 40
280.0
  1
_Col 53-6
  7
ARIAL
100
AcDbText
  0
TEXT
  5
195
330
1F
100
AcDbEntity
  8
TEKST
  6
Continuous
100
AcDbText
 10
7502.126687192284
 20
2642.566468288441
 30
0.0
 40
280.0
  1
_Col 53-7
  7
ARIAL
100
AcDbText
  0
TEXT
  5
196
330
1F
100
AcDbEntity
  8
TEKST
  6
Continuous
100
AcDbText
 10
11627.44283461915
 20
3104.623800211037
 30
0.0
 40
280.0
  1
_Col 53-8
  7
ARIAL
100
AcDbText
  0
LWPOLYLINE
  5
197
330
1F
100
AcDbEntity
  8
Suction PS
  6
Continuous
100
AcDbPolyline
 90
        5
 70
     1
 43
0.3
 39
0.1
 10
16210.01494366175
 20
14502.37087439993
 10
17083.16802884415
 20
14502.37087439993
 10
17083.16802884415
 20
16357.81153247995
 10
17083.16802884415
 20
14502.37087439993
 10
16210.01494366175
 20
14502.37087439993
  0
LWPOLYLINE
  5
198
330
1F
100
AcDbEntity
  8
Suction PS
  6
Continuous
100
AcDbPolyline
 90
        3
 70
     1
 43
0.3
 39
0.1
 10
7581.563412664123
 20
1779.047760701829
 10
7581.563412664209
 20
-524.6155896163659
 10
7581.563412664123
 20
1779.047760701829
  0
MTEXT
  5
199
330
1F
100
AcDbEntity
  8
Suction C
  6
Continuous
100
AcDbMText
 10
3522.216186636302
 20
4267.103980833333
 30
0.0
 40
300.0
 41
2243.821741514199
 71
     1
 72
     5
  1
Ballast line port side
  7
ARIAL
 73
     1
 44
1.0
  0
MTEXT
  5
19A
330
1F
100
AcDbEntity
  8
Suction C
  6
Continuous
100
AcDbMText
 10
4073.098597701012
 20
627.2160855427387
 30
0.0
 40
300.0
 41
4068.098605582111
 71
     1
 72
     5
  1
To ballast system st.b. side
  7
ARIAL
 73
     1
 44
1.0
1001
ACAD
1000
ACAD_MTEXT_DEFINED_HEIGHT_BEGIN
1070
    46
1040
383.4980784758129
1000
ACAD_MTEXT_DEFINED_HEIGHT_END
  0
MTEXT
  5
19B
330
1F
100
AcDbEntity
  8
Suction C
  6
Continuous
100
AcDbMText
 10
8141.197203283097
 20
631.9171885130231
 30
0.0
 40
300.0
 41
3299.697224019445
 71
     1
 72
     5
  1
To ballast line  st.b. side (WB5S)
  7
ARIAL
 73
     1
 44
1.0
  0
LWPOLYLINE
  5
19C
330
1F
100
AcDbEntity
  8
Symboler
  6
Continuous
 62
    42
100
AcDbPolyline
 90
       11
 70
     1
 39
1.399999999999999
 10
2913.146925045598
 20
14485.56611698354
 40
0.84
 41
0.84
 10
3350.808034742105
 20
14485.56611698354
 40
0.84
 41
0.84
 10
3350.808034742105
 20
14755.33183170934
 40
0.84
 41
0.84
 42
-0.8846768105770848
 10
3350.808034742105
 20
14152.80040225774
 40
0.84
 41
0.84
 10
3350.808034742105
 20
14422.56611698363
 40
0.84
 41
0.84
 10
2913.146925045598
 20
14422.56611698363
 40
0.84
 41
0.84
 10
3138.82120849422
 20
14004.43304259543
 40
0.0
 41
0.0
 10
2653.470356850622
 20
14004.43304259543
 40
0.84
 41
0.84
 10
2896.145782672377
 20
14454.06611698354
 40
0.84
 41
0.84
 10
2653.470356850622
 20
14903.69919137165
 40
0.0
 41
0.0
 10
3138.82120849422
 20
14903.69919137165
 40
0.84
 41
0.84
  0
TEXT
  5
19D
330
1F
100
AcDbEntity
  8
TEKST
  6
Continuous
100
AcDbText
 10
2812.854558637932
 20
14179.21489714782
 30
0.0
 40
280.0
  1
_Col 53-9
  7
ARIAL
100
AcDbText
  0
LWPOLYLINE
  5
19E
330
1F
100
AcDbEntity
  8
Suction PS
  6
Continuous
100
AcDbPolyline
 90
        9
 70
     1
 43
0.3
 39
0.1
 10
2896.145782672377
 20
14004.43304259543
 10
2896.145782672377
 20
13447.55674862632
 10
6505.292258808316
 20
13447.55674862632
 10
6505.292258808316
 20
9535.01315650414
 10
7581.563412664123
 20
9535.01315650414
 10
6505.292258808316
 20
9535.01315650414
 10
6505.292258808316
 20
13447.55674862632
 10
2896.145782672377
 20
13447.55674862632
 10
2896.145782672377
 20
14004.43304259543
  0
LWPOLYLINE
  5
19F
330
1F
100
AcDbEntity
  8
Suction PS
  6
Continuous
100
AcDbPolyline
 90
        3
 70
     1
 43
0.3
 39
0.1
 10
2896.145782672377
 20
14903.69919137165
 10
2896.145782672377
 20
16357.81153247995
 10
2896.145782672377
 20
14903.69919137165
  0
MTEXT
  5
1A0
330
1F
100
AcDbEntity
  8
Suction C
  6
Continuous
100
AcDbMText
 10
3689.547096016816
 20
16421.30172879153
 30
0.0
 40
300.0
 41
4020.837189646466
 71
     1
 72
     5
  1
Overboard above deep load line
  7
ARIAL
 73
     1
 44
1.0
  0
MTEXT
  5
1A1
330
1F
100
AcDbEntity
  8
Suction C
  6
Continuous
100
AcDbMText
 10
17427.90771929205
 20
15946.42382350954
 30
0.0
 40
300.0
 41
3420.335160543618
 71
     1
 72
     5
  1
Sea Chest
  7
ARIAL
 73
     1
 44
1.0
  0
LWPOLYLINE
  5
1A2
330
1F
100
AcDbEntity
  8
Symboler
  6
Continuous
 62
    42
100
AcDbPolyline
 90
       11
 70
     1
 39
1.399999999999999
 10
17394.50691684175
 20
2831.121561576528
 40
0.84
 41
0.84
 10
17832.16802653824
 20
2831.121561576528
 40
0.84
 41
0.84
 10
17832.16802653824
 20
3100.887276302328
 40
0.84
 41
0.84
 42
-0.8846768105770848
 10
17832.16802653824
 20
2498.355846850743
 40
0.84
 41
0.84
 10
17832.16802653824
 20
2768.121561576645
 40
0.84
 41
0.84
 10
17394.50691684175
 20
2768.121561576645
 40
0.84
 41
0.84
 10
17620.18120029044
 20
2349.988487188431
 40
0.0
 41
0.0
 10
17134.83034864675
 20
2349.988487188431
 40
0.84
 41
0.84
 10
17377.50577446855
 20
2799.621561576528
 40
0.84
 41
0.84
 10
17134.83034864675
 20
3249.254635964727
 40
0.0
 41
0.0
 10
17620.18120029044
 20
3249.254635964727
 40
0.84
 41
0.84
  0
TEXT
  5
1A3
330
1F
100
AcDbEntity
  8
TEKST
  6
Continuous
100
AcDbText
 10
17301.89813680435
 20
3209.654867164634
 30
0.0
 40
280.0
  1
_Col 53-10
  7
ARIAL
100
AcDbText
  0
LWPOLYLINE
  5
1A4
330
1F
100
AcDbEntity
  8
Suction PS
  6
Continuous
100
AcDbPolyline
 90
        3
 70
     1
 43
0.3
 39
0.1
 10
17394.50691684175
 20
3249.254635964727
 10
17394.50691684175
 20
4378.516070855043
 10
17394.50691684175
 20
3249.254635964727
  0
LWPOLYLINE
  5
1A5
330
1F
100
AcDbEntity
  8
Suction SB
  6
Continuous
100
AcDbPolyline
 90
        3
 70
     1
 43
0.3
 39
0.1
 10
17377.50577446855
 20
2349.988487188431
 10
17377.50577446846
 20
-524.6155896163659
 10
17377.50577446855
 20
2349.988487188431
  0
MTEXT
  5
1A6
330
1F
100
AcDbEntity
  8
Suction C
  6
Continuous
100
AcDbMText
 10
17696.06075661855
 20
631.9171885130231
 30
0.0
 40
300.0
 41
3405.871548494702
 71
     1
 72
     5
  1
To ballast line st.b. side (WB3S)
  7
ARIAL
 73
     1
 44
1.0
  0
LWPOLYLINE
  5
1A7
330
1F
100
AcDbEntity
  8
Suction PS
  6
Continuous
100
AcDbPolyline
 90
        2
 70
     1
 43
0.3
 39
0.1
 10
7581.563412664123
 20
10100.97819698151
 10
7581.563412664123
 20
4505.012696396738
  0
LWPOLYLINE
  5
1A8
330
1F
100
AcDbEntity
  8
Suction PS
  6
Continuous
100
AcDbPolyline
 90
        2
 70
     1
 43
0.3
 39
0.1
 10
7581.563412664123
 20
4288.780985533438
 10
7581.563412664123
 20
2678.313909478125
  0
LWPOLYLINE
  5
1A9
330
1F
100
AcDbEntity
  8
Suction PS
  6
Continuous
100
AcDbPolyline
 90
        4
 70
     1
 43
0.3
 39
0.1
 10
11100.44360221295
 20
5902.134377481332
 10
11733.92873444284
 20
5902.134377481332
 10
11733.92873444294
 20
4505.012696396738
 10
11733.92873444284
 20
5902.134377481332
  0
LWPOLYLINE
  5
1AA
330
1F
100
AcDbEntity
  8
Suction PS
  6
Continuous
100
AcDbPolyline
 90
        2
 70
     1
 43
0.3
 39
0.1
 10
11733.92873444294
 20
4288.780985533438
 10
11733.92873444284
 20
3170.852584575845
  0
LWPOLYLINE
  5
1AB
330
1F
100
AcDbEntity
  8
Suction PS
  6
Continuous
100
AcDbPolyline
 90
        2
 70
     1
 43
0.3
 39
0.1
 10
9283.388658025215
 20
6672.271719601416
 10
10954.22973063384
 20
6672.271719601416
  0
LWPOLYLINE
  5
1AC
330
1F
100
AcDbEntity
  8
Suction PS
  6
Continuous
100
AcDbPolyline
 90
        4
 70
     1
 43
0.3
 39
0.1
 10
11237.52214553255
 20
6672.271719601416
 10
13271.12843088346
 20
6672.271719601416
 10
13271.12843088335
 20
4505.012696396738
 10
13271.12843088346
 20
6672.271719601416
  0
LWPOLYLINE
  5
1AD
330
1F
100
AcDbEntity
  8
Suction PS
  6
Continuous
100
AcDbPolyline
 90
        2
 70
     1
 43
0.3
 39
0.1
 10
13271.12843088335
 20
4288.780985533438
 10
13271.12843088346
 20
3644.26449750824
  0
LWPOLYLINE
  5
1AE
330
1F
100
AcDbEntity
  8
Symboler
  6
Continuous
100
AcDbPolyline
 90
       20
 70
     1
 43
0.63
 39
1.399999999999999
 10
8466.954426801109
 20
14428.29665564982
 10
8466.954426801109
 20
14576.44509315005
 10
8369.53828540421
 20
14576.44509315005
 10
8369.53828540421
 20
14745.04630022164
 10
8105.881688136301
 20
14576.44509315005
 10
8008.442768211402
 20
14576.44509315005
 42
1.926208417817558
 10
7507.48919391421
 20
14077.99307651853
 10
7507.48919391421
 20
13982.59090853113
 10
7338.887986842294
 20
13982.59090853104
 10
7507.48919391421
 20
13682.63252065392
 10
7507.48919391421
 20
13515.69296340333
 10
7655.637631414123
 20
13515.69296340333
 10
7655.637631414123
 20
13681.34973959663
 10
7824.238838485921
 20
13981.50939925623
 10
7655.637631414123
 20
13981.50939925623
 10
7655.637631414123
 20
14077.62225423893
 42
0.3158256435086028
 10
8008.442768211402
 20
14428.29665564982
 10
8104.598907079125
 20
14428.29665564982
 10
8368.456776129503
 20
14259.69544857802
 10
8368.456776129315
 20
14428.29665564982
  0
LWPOLYLINE
  5
1AF
330
1F
100
AcDbEntity
  8
Symboler
  6
Continuous
 62
    42
100
AcDbPolyline
 90
       11
 70
     1
 39
1.399999999999999
 10
15415.84345220984
 20
6127.263874846529
 40
0.84
 41
0.84
 10
15853.50456190634
 20
6127.263874846529
 40
0.84
 41
0.84
 10
15853.50456190634
 20
6397.029589572328
 40
0.84
 41
0.84
 42
-0.8846768105770848
 10
15853.50456190634
 20
5794.498160120744
 40
0.84
 41
0.84
 10
15853.50456190634
 20
6064.263874846645
 40
0.84
 41
0.84
 10
15415.84345220984
 20
6064.263874846645
 40
0.84
 41
0.84
 10
15641.51773565846
 20
5646.130800458432
 40
0.0
 41
0.0
 10
15156.16688401483
 20
5646.130800458432
 40
0.84
 41
0.84
 10
15398.84230983666
 20
6095.763874846529
 40
0.84
 41
0.84
 10
15156.16688401483
 20
6545.396949234713
 40
0.0
 41
0.0
 10
15641.51773565846
 20
6545.396949234713
 40
0.84
 41
0.84
  0
TEXT
  5
1B0
330
1F
100
AcDbEntity
  8
TEKST
  6
Continuous
100
AcDbText
 10
15289.79525566516
 20
6510.286413554019
 30
0.0
 40
280.0
  1
_Col 53-12
  7
ARIAL
100
AcDbText
  0
LWPOLYLINE
  5
1B1
330
1F
100
AcDbEntity
  8
Suction PS
  6
Continuous
100
AcDbPolyline
 90
        5
 70
     1
 43
0.3
 39
2.0
 10
17117.20678653064
 20
9351.123352829224
 10
15398.84230983666
 20
9351.123352829224
 10
15398.84230983666
 20
6545.396949234713
 10
15398.84230983666
 20
9351.123352829224
 10
17117.20678653064
 20
9351.123352829224
  0
LWPOLYLINE
  5
1B2
330
1F
100
AcDbEntity
  8
Suction PS
  6
Continuous
100
AcDbPolyline
 90
        3
 70
     1
 43
0.3
 39
2.0
 10
15398.84230983666
 20
5646.130800458432
 10
15398.84230983666
 20
4505.012696396738
 10
15398.84230983666
 20
5646.130800458432
  0
LWPOLYLINE
  5
1B3
330
1F
100
AcDbEntity
  8
Suction PS
  6
Continuous
100
AcDbPolyline
 90
        6
 70
     1
 43
0.3
 39
2.0
 10
15398.84230983666
 20
4288.780985533438
 10
15398.84230983666
 20
2530.398126778924
 10
15398.84230983634
 20
2410.398126778822
 10
13751.12843088346
 20
2410.398126778924
 10
15398.84230983634
 20
2410.398126778822
 10
15398.84230983666
 20
4288.780985533438
  0
MTEXT
  5
1B4
330
1F
100
AcDbEntity
  8
Suction C
  6
Continuous
100
AcDbMText
 10
17696.06075661855
 20
9557.901871492537
 30
0.0
 40
300.0
 41
3405.871548494702
 71
     1
 72
     5
  1
Fire pump line
  7
ARIAL
 73
     1
 44
1.0
  0
ENDSEC
  0
SECTION
  2
OBJECTS
  0
DICTIONARY
  5
C
330
0
100
AcDbDictionary
281
     1
  3
ACAD_COLOR
350
6B
  3
ACAD_GROUP
350
D
  3
ACAD_LAYOUT
350
1A
  3
ACAD_MATERIAL
350
6A
  3
ACAD_MLINESTYLE
350
17
  3
ACAD_PLOTSETTINGS
350
19
  3
ACAD_PLOTSTYLENAME
350
E
  3
ACAD_TABLESTYLE
350
7E
  3
ACAD_VISUALSTYLE
350
EF
  3
AcDbVariableDictionary
350
5E
  0
DICTIONARY
  5
128
330
2
100
AcDbDictionary
280
     1
281
     1
  3
ACAD_LAYERSTATES
360
129
  0
DICTIONARY
  5
110
330
10F
100
AcDbDictionary
280
     1
281
     1
  3
ADSK_XREC_LAYER_RECONCILED
360
111
  0
DICTIONARY
  5
113
330
112
100
AcDbDictionary
280
     1
281
     1
  3
ADSK_XREC_LAYER_RECONCILED
360
114
  0
DICTIONARY
  5
116
330
115
100
AcDbDictionary
280
     1
281
     1
  3
ADSK_XREC_LAYER_RECONCILED
360
117
  0
DICTIONARY
  5
119
330
118
100
AcDbDictionary
280
     1
281
     1
  3
ADSK_XREC_LAYER_RECONCILED
360
11A
  0
DICTIONARY
  5
11C
330
11B
100
AcDbDictionary
280
     1
281
     1
  3
ADSK_XREC_LAYER_RECONCILED
360
11D
  0
DICTIONARY
  5
11F
330
11E
100
AcDbDictionary
280
     1
281
     1
  3
ADSK_XREC_LAYER_RECONCILED
360
120
  0
DICTIONARY
  5
6B
102
{ACAD_REACTORS
330
C
102
}
330
C
100
AcDbDictionary
281
     1
  0
DICTIONARY
  5
D
102
{ACAD_REACTORS
330
C
102
}
330
C
100
AcDbDictionary
281
     1
  0
DICTIONARY
  5
1A
102
{ACAD_REACTORS
330
C
102
}
330
C
100
AcDbDictionary
281
     1
  3
Layout1
350
D3
  3
Layout2
350
D7
  3
Model
350
22
  0
DICTIONARY
  5
6A
102
{ACAD_REACTORS
330
C
102
}
330
C
100
AcDbDictionary
281
     1
  3
ByBlock
350
ED
  3
ByLayer
350
EC
  3
Global
350
EE
  0
DICTIONARY
  5
17
102
{ACAD_REACTORS
330
C
102
}
330
C
100
AcDbDictionary
281
     1
  3
Standard
350
18
  0
DICTIONARY
  5
19
102
{ACAD_REACTORS
330
C
102
}
330
C
100
AcDbDictionary
281
     1
  0
ACDBDICTIONARYWDFLT
  5
E
102
{ACAD_REACTORS
330
C
102
}
330
C
100
AcDbDictionary
281
     1
  3
Normal
350
F
100
AcDbDictionaryWithDefault
340
F
  0
DICTIONARY
  5
7E
102
{ACAD_REACTORS
330
C
102
}
330
C
100
AcDbDictionary
281
     1
  3
Standard
350
7F
  0
DICTIONARY
  5
EF
102
{ACAD_REACTORS
330
C
102
}
330
C
100
AcDbDictionary
281
     1
  3
2dWireframe
350
F5
  3
3D Hidden
350
F7
  3
3dWireframe
350
F6
  3
Basic
350
F4
  3
Brighten
350
FB
  3
ColorChange
350
FF
  3
Conceptual
350
F8
  3
Dim
350
FA
  3
Facepattern
350
FE
  3
Flat
350
F0
  3
FlatWithEdges
350
F1
  3
Gouraud
350
F2
  3
GouraudWithEdges
350
F3
  3
Linepattern
350
FD
  3
Realistic
350
F9
  3
Thicken
350
FC
  3
Wireframe
350
125
  0
DICTIONARY
  5
5E
102
{ACAD_REACTORS
330
C
102
}
330
C
100
AcDbDictionary
281
     1
  3
CTABLESTYLE
350
84
  3
DIMASSOC
350
5F
  3
HIDETEXT
350
63
  3
PSOLHEIGHT
350
1BD
  3
PSOLWIDTH
350
1BC
  0
DICTIONARY
  5
129
102
{ACAD_REACTORS
330
128
102
}
330
128
100
AcDbDictionary
281
     1
  0
XRECORD
  5
111
102
{ACAD_REACTORS
330
110
102
}
330
110
100
AcDbXrecord
280
     1
290
     1
  0
XRECORD
  5
114
102
{ACAD_REACTORS
330
113
102
}
330
113
100
AcDbXrecord
280
     1
290
     1
  0
XRECORD
  5
117
102
{ACAD_REACTORS
330
116
102
}
330
116
100
AcDbXrecord
280
     1
290
     1
  0
XRECORD
  5
11A
102
{ACAD_REACTORS
330
119
102
}
330
119
100
AcDbXrecord
280
     1
290
     1
  0
XRECORD
  5
11D
102
{ACAD_REACTORS
330
11C
102
}
330
11C
100
AcDbXrecord
280
     1
290
     1
  0
XRECORD
  5
120
102
{ACAD_REACTORS
330
11F
102
}
330
11F
100
AcDbXrecord
280
     1
290
     1
  0
LAYOUT
  5
D3
102
{ACAD_REACTORS
330
1A
102
}
330
1A
100
AcDbPlotSettings
  1

  2
C:\Documents and Settings\basas\Application Data\Autodesk\AutoCAD 2005\R16.1\enu\plotters\Default Windows System Printer.pc3
  4

  6

 40
0.0
 41
0.0
 42
0.0
 43
0.0
 44
0.0
 45
0.0
 46
0.0
 47
0.0
 48
0.0
 49
0.0
140
0.0
141
0.0
142
1.0
143
1.0
 70
   688
 72
     0
 73
     0
 74
     5
  7

 75
    16
147
1.0
 76
     0
 77
     2
 78
   300
148
0.0
149
0.0
100
AcDbLayout
  1
Layout1
 70
     1
 71
     1
 10
0.0
 20
0.0
 11
12.0
 21
9.0
 12
0.0
 22
0.0
 32
0.0
 14
0.0
 24
0.0
 34
0.0
 15
0.0
 25
0.0
 35
0.0
146
0.0
 13
0.0
 23
0.0
 33
0.0
 16
1.0
 26
0.0
 36
0.0
 17
0.0
 27
1.0
 37
0.0
 76
     0
330
D2
  0
LAYOUT
  5
D7
102
{ACAD_REACTORS
330
1A
102
}
330
1A
100
AcDbPlotSettings
  1

  2
C:\Documents and Settings\basas\Application Data\Autodesk\AutoCAD 2005\R16.1\enu\plotters\Default Windows System Printer.pc3
  4

  6

 40
0.0
 41
0.0
 42
0.0
 43
0.0
 44
0.0
 45
0.0
 46
0.0
 47
0.0
 48
0.0
 49
0.0
140
0.0
141
0.0
142
1.0
143
1.0
 70
   688
 72
     0
 73
     0
 74
     5
  7

 75
    16
147
1.0
 76
     0
 77
     2
 78
   300
148
0.0
149
0.0
100
AcDbLayout
  1
Layout2
 70
     1
 71
     2
 10
0.0
 20
0.0
 11
12.0
 21
9.0
 12
0.0
 22
0.0
 32
0.0
 14
0.0
 24
0.0
 34
0.0
 15
0.0
 25
0.0
 35
0.0
146
0.0
 13
0.0
 23
0.0
 33
0.0
 16
1.0
 26
0.0
 36
0.0
 17
0.0
 27
1.0
 37
0.0
 76
     0
330
D6
  0
LAYOUT
  5
22
102
{ACAD_REACTORS
330
1A
102
}
330
1A
100
AcDbPlotSettings
  1

  2
none_device
  4
ISO_A4_(210.00_x_297.00_MM)
  6

 40
7.5
 41
20.0
 42
7.5
 43
20.0
 44
210.0
 45
297.0
 46
11.54999923706054
 47
-13.65000009536743
 48
0.0
 49
0.0
140
0.0
141
0.0
142
1.0
143
8.704084754739808
 70
 11952
 72
     1
 73
     0
 74
     0
  7

 75
     0
147
0.1148885871608098
 76
     0
 77
     2
 78
   300
148
0.0
149
0.0
100
AcDbLayout
  1
Model
 70
     1
 71
     0
 10
0.0
 20
0.0
 11
12.0
 21
9.0
 12
0.0
 22
0.0
 32
0.0
 14
0.0
 24
0.0
 34
0.0
 15
0.0
 25
0.0
 35
0.0
146
0.0
 13
0.0
 23
0.0
 33
0.0
 16
1.0
 26
0.0
 36
0.0
 17
0.0
 27
1.0
 37
0.0
 76
     0
330
1F
331
EA
1001
ACAD_PSEXT
1000
None
1000
None
1000
Not applicable
1000
The layout will not be plotted unless a new plotter configuration name is selected.
1070
     0
  0
MATERIAL
  5
ED
102
{ACAD_XDICTIONARY
360
1C2
102
}
102
{ACAD_REACTORS
330
6A
102
}
330
6A
100
AcDbMaterial
  1
ByBlock
  0
MATERIAL
  5
EC
102
{ACAD_XDICTIONARY
360
1C0
102
}
102
{ACAD_REACTORS
330
6A
102
}
330
6A
100
AcDbMaterial
  1
ByLayer
  0
MATERIAL
  5
EE
102
{ACAD_XDICTIONARY
360
1C4
102
}
102
{ACAD_REACTORS
330
6A
102
}
330
6A
100
AcDbMaterial
  1
Global
  0
MLINESTYLE
  5
18
102
{ACAD_REACTORS
330
17
102
}
330
17
100
AcDbMlineStyle
  2
STANDARD
 70
     0
  3

 62
   256
 51
90.0
 52
90.0
 71
     2
 49
0.5
 62
   256
  6
BYLAYER
 49
-0.5
 62
   256
  6
BYLAYER
  0
ACDBPLACEHOLDER
  5
F
102
{ACAD_REACTORS
330
E
102
}
330
E
  0
TABLESTYLE
  5
7F
102
{ACAD_XDICTIONARY
360
1BE
102
}
102
{ACAD_REACTORS
330
7E
102
}
330
7E
100
AcDbTableStyle
  3
Standard
 70
     0
 71
     0
 40
1.5
 41
1.5
280
     0
281
     0
  7
Standard
140
4.5
170
     2
 62
     0
 63
     7
283
     0
274
    -2
284
     1
 64
     0
275
    -2
285
     1
 65
     0
276
    -2
286
     1
 66
     0
277
    -2
287
     1
 67
     0
278
    -2
288
     1
 68
     0
279
    -2
289
     1
 69
     0
  7
Standard
140
6.0
170
     5
 62
     0
 63
     7
283
     0
274
    -2
284
     1
 64
     0
275
    -2
285
     1
 65
     0
276
    -2
286
     1
 66
     0
277
    -2
287
     1
 67
     0
278
    -2
288
     1
 68
     0
279
    -2
289
     1
 69
     0
  7
Standard
140
4.5
170
     5
 62
     0
 63
     7
283
     0
274
    -2
284
     1
 64
     0
275
    -2
285
     1
 65
     0
276
    -2
286
     1
 66
     0
277
    -2
287
     1
 67
     0
278
    -2
288
     1
 68
     0
279
    -2
289
     1
 69
     0
  0
VISUALSTYLE
  5
F5
102
{ACAD_REACTORS
330
EF
102
}
330
EF
100
AcDbVisualStyle
  2
2dWireframe
 70
     4
 71
     0
 72
     2
 73
     1
 90
        0
 40
-0.6
 41
-30.0
 62
     5
 63
     7
421
 16777215
 74
     1
 91
        4
 64
     7
 65
   257
 75
     1
175
     1
 42
1.0
 92
        0
 66
   257
 43
1.0
 76
     1
 77
     6
 78
     2
 67
     7
 79
     5
170
     0
171
     0
290
     0
174
     0
 93
        1
 44
0.0
173
     0
291
     0
 45
0.0
1001
ACAD
1000
AcDbSavedByObjectVersion
1070
     0
  0
VISUALSTYLE
  5
F7
102
{ACAD_REACTORS
330
EF
102
}
330
EF
100
AcDbVisualStyle
  2
3D Hidden
 70
     6
 71
     1
 72
     2
 73
     2
 90
        0
 40
-0.6
 41
-30.0
 62
     5
 63
     7
421
 16777215
 74
     2
 91
        2
 64
     7
 65
   257
 75
     2
175
     1
 42
40.0
 92
        0
 66
   257
 43
1.0
 76
     1
 77
     6
 78
     2
 67
     7
 79
     3
170
     0
171
     0
290
     0
174
     0
 93
        1
 44
0.0
173
     0
291
     0
 45
0.0
1001
ACAD
1000
AcDbSavedByObjectVersion
1070
     0
  0
VISUALSTYLE
  5
F6
102
{ACAD_REACTORS
330
EF
102
}
330
EF
100
AcDbVisualStyle
  2
3dWireframe
 70
     5
 71
     0
 72
     2
 73
     1
 90
        0
 40
-0.6
 41
-30.0
 62
     5
 63
     7
421
 16777215
 74
     1
 91
        4
 64
     7
 65
   257
 75
     1
175
     1
 42
1.0
 92
        0
 66
   257
 43
1.0
 76
     1
 77
     6
 78
     2
 67
     7
 79
     5
170
     0
171
     0
290
     0
174
     0
 93
        1
 44
0.0
173
     0
291
     0
 45
0.0
1001
ACAD
1000
AcDbSavedByObjectVersion
1070
     0
  0
VISUALSTYLE
  5
F4
102
{ACAD_REACTORS
330
EF
102
}
330
EF
100
AcDbVisualStyle
  2
Basic
 70
     7
 71
     1
 72
     0
 73
     1
 90
        0
 40
-0.6
 41
-30.0
 62
     5
 63
     7
421
 16777215
 74
     0
 91
        4
 64
     7
 65
   257
 75
     1
175
     1
 42
1.0
 92
        8
 66
     7
 43
1.0
 76
     1
 77
     6
 78
     2
 67
     7
 79
     5
170
     0
171
     0
290
     0
174
     0
 93
        1
 44
0.0
173
     0
291
     1
 45
0.0
1001
ACAD
1000
AcDbSavedByObjectVersion
1070
     0
  0
VISUALSTYLE
  5
FB
102
{ACAD_REACTORS
330
EF
102
}
330
EF
100
AcDbVisualStyle
  2
Brighten
 70
    12
 71
     2
 72
     2
 73
     1
 90
        0
 40
-0.6
 41
-30.0
 62
     5
 63
     7
421
 16777215
 74
     1
 91
        4
 64
     7
 65
   257
 75
     1
175
     1
 42
1.0
 92
        8
 66
     7
 43
1.0
 76
     1
 77
     6
 78
     2
 67
     7
 79
     5
170
     0
171
     0
290
     0
174
     0
 93
        1
 44
50.0
173
     0
291
     1
 45
0.0
1001
ACAD
1000
AcDbSavedByObjectVersion
1070
     0
  0
VISUALSTYLE
  5
FF
102
{ACAD_REACTORS
330
EF
102
}
330
EF
100
AcDbVisualStyle
  2
ColorChange
 70
    16
 71
     2
 72
     2
 73
     3
 90
        0
 40
-0.6
 41
-30.0
 62
     5
 63
     8
421
  8421504
 74
     1
 91
        4
 64
     7
 65
   257
 75
     1
175
     1
 42
1.0
 92
        8
 66
     8
424
  8421504
 43
1.0
 76
     1
 77
     6
 78
     2
 67
     7
 79
     5
170
     0
171
     0
290
     0
174
     0
 93
        1
 44
0.0
173
     0
291
     1
 45
0.0
1001
ACAD
1000
AcDbSavedByObjectVersion
1070
     0
  0
VISUALSTYLE
  5
F8
102
{ACAD_REACTORS
330
EF
102
}
330
EF
100
AcDbVisualStyle
  2
Conceptual
 70
     9
 71
     3
 72
     2
 73
     1
 90
        0
 40
-0.6
 41
-30.0
 62
     5
 63
     7
421
 16777215
 74
     2
 91
        2
 64
     7
 65
   257
 75
     1
175
     1
 42
40.0
 92
        8
 66
     7
 43
1.0
 76
     1
 77
     6
 78
     2
 67
     7
 79
     3
170
     0
171
     0
290
     0
174
     0
 93
        1
 44
0.0
173
     0
291
     0
 45
0.0
1001
ACAD
1000
AcDbSavedByObjectVersion
1070
     0
  0
VISUALSTYLE
  5
FA
102
{ACAD_REACTORS
330
EF
102
}
330
EF
100
AcDbVisualStyle
  2
Dim
 70
    11
 71
     2
 72
     2
 73
     1
 90
        0
 40
-0.6
 41
-30.0
 62
     5
 63
     7
421
 16777215
 74
     1
 91
        4
 64
     7
 65
   257
 75
     1
175
     1
 42
1.0
 92
        8
 66
     7
 43
1.0
 76
     1
 77
     6
 78
     2
 67
     7
 79
     5
170
     0
171
     0
290
     0
174
     0
 93
        1
 44
-50.0
173
     0
291
     1
 45
0.0
1001
ACAD
1000
AcDbSavedByObjectVersion
1070
     0
  0
VISUALSTYLE
  5
FE
102
{ACAD_REACTORS
330
EF
102
}
330
EF
100
AcDbVisualStyle
  2
Facepattern
 70
    15
 71
     2
 72
     2
 73
     1
 90
        0
 40
-0.6
 41
-30.0
 62
     5
 63
     7
421
 16777215
 74
     1
 91
        4
 64
     7
 65
   257
 75
     1
175
     1
 42
1.0
 92
        8
 66
     7
 43
1.0
 76
     1
 77
     6
 78
     2
 67
     7
 79
     5
170
     0
171
     0
290
     0
174
     0
 93
        1
 44
0.0
173
     0
291
     1
 45
0.0
1001
ACAD
1000
AcDbSavedByObjectVersion
1070
     0
  0
VISUALSTYLE
  5
F0
102
{ACAD_REACTORS
330
EF
102
}
330
EF
100
AcDbVisualStyle
  2
Flat
 70
     0
 71
     2
 72
     1
 73
     1
 90
        2
 40
-0.6
 41
30.0
 62
     5
 63
     7
421
 16777215
 74
     0
 91
        4
 64
     7
 65
   257
 75
     1
175
     1
 42
1.0
 92
        8
 66
     7
 43
1.0
 76
     1
 77
     6
 78
     2
 67
     7
 79
     5
170
     0
171
     0
290
     0
174
     0
 93
        1
 44
0.0
173
     0
291
     1
 45
0.0
1001
ACAD
1000
AcDbSavedByObjectVersion
1070
     0
  0
VISUALSTYLE
  5
F1
102
{ACAD_REACTORS
330
EF
102
}
330
EF
100
AcDbVisualStyle
  2
FlatWithEdges
 70
     1
 71
     2
 72
     1
 73
     1
 90
        2
 40
-0.6
 41
30.0
 62
     5
 63
     7
421
 16777215
 74
     1
 91
        4
 64
     7
 65
   257
 75
     1
175
     1
 42
1.0
 92
        0
 66
   257
 43
1.0
 76
     1
 77
     6
 78
     2
 67
     7
 79
     5
170
     0
171
     0
290
     0
174
     0
 93
        1
 44
0.0
173
     0
291
     1
 45
0.0
1001
ACAD
1000
AcDbSavedByObjectVersion
1070
     0
  0
VISUALSTYLE
  5
F2
102
{ACAD_REACTORS
330
EF
102
}
330
EF
100
AcDbVisualStyle
  2
Gouraud
 70
     2
 71
     2
 72
     2
 73
     1
 90
        2
 40
-0.6
 41
30.0
 62
     5
 63
     7
421
 16777215
 74
     0
 91
        4
 64
     7
 65
   257
 75
     1
175
     1
 42
1.0
 92
        0
 66
     7
 43
1.0
 76
     1
 77
     6
 78
     2
 67
     7
 79
     5
170
     0
171
     0
290
     0
174
     0
 93
        1
 44
0.0
173
     0
291
     1
 45
0.0
1001
ACAD
1000
AcDbSavedByObjectVersion
1070
     0
  0
VISUALSTYLE
  5
F3
102
{ACAD_REACTORS
330
EF
102
}
330
EF
100
AcDbVisualStyle
  2
GouraudWithEdges
 70
     3
 71
     2
 72
     2
 73
     1
 90
        2
 40
-0.6
 41
30.0
 62
     5
 63
     7
421
 16777215
 74
     1
 91
        4
 64
     7
 65
   257
 75
     1
175
     1
 42
1.0
 92
        0
 66
   257
 43
1.0
 76
     1
 77
     6
 78
     2
 67
     7
 79
     5
170
     0
171
     0
290
     0
174
     0
 93
        1
 44
0.0
173
     0
291
     1
 45
0.0
1001
ACAD
1000
AcDbSavedByObjectVersion
1070
     0
  0
VISUALSTYLE
  5
FD
102
{ACAD_REACTORS
330
EF
102
}
330
EF
100
AcDbVisualStyle
  2
Linepattern
 70
    14
 71
     2
 72
     2
 73
     1
 90
        0
 40
-0.6
 41
-30.0
 62
     5
 63
     7
421
 16777215
 74
     1
 91
        4
 64
     7
 65
   257
 75
     7
175
     7
 42
1.0
 92
        8
 66
     7
 43
1.0
 76
     1
 77
     6
 78
     2
 67
     7
 79
     5
170
     0
171
     0
290
     0
174
     0
 93
        1
 44
0.0
173
     0
291
     1
 45
0.0
1001
ACAD
1000
AcDbSavedByObjectVersion
1070
     0
  0
VISUALSTYLE
  5
F9
102
{ACAD_REACTORS
330
EF
102
}
330
EF
100
AcDbVisualStyle
  2
Realistic
 70
     8
 71
     2
 72
     2
 73
     1
 90
        0
 40
-0.6
 41
-30.0
 62
     5
 63
     7
421
 16777215
 74
     1
 91
        0
 64
     7
 65
   257
 75
     1
175
     1
 42
1.0
 92
        8
 66
     8
424
  7895160
 43
1.0
 76
     1
 77
     6
 78
     2
 67
     7
 79
     5
170
     0
171
     0
290
     0
174
     0
 93
       13
 44
0.0
173
     0
291
     0
 45
0.0
1001
ACAD
1000
AcDbSavedByObjectVersion
1070
     0
  0
VISUALSTYLE
  5
FC
102
{ACAD_REACTORS
330
EF
102
}
330
EF
100
AcDbVisualStyle
  2
Thicken
 70
    13
 71
     2
 72
     2
 73
     1
 90
        0
 40
-0.6
 41
-30.0
 62
     5
 63
     7
421
 16777215
 74
     1
 91
        4
 64
     7
 65
   257
 75
     1
175
     1
 42
1.0
 92
       12
 66
     7
 43
1.0
 76
     1
 77
     6
 78
     2
 67
     7
 79
     5
170
     0
171
     0
290
     0
174
     0
 93
        1
 44
0.0
173
     0
291
     1
 45
0.0
1001
ACAD
1000
AcDbSavedByObjectVersion
1070
     0
  0
VISUALSTYLE
  5
125
102
{ACAD_XDICTIONARY
360
126
102
}
102
{ACAD_REACTORS
330
EF
102
}
330
EF
100
AcDbVisualStyle
  2

 70
     5
 71
     0
 72
     2
 73
     0
 90
        0
 40
-0.6
 41
-30.0
 62
     5
 63
     7
421
 16777215
 74
     1
 91
        4
 64
     7
 65
   257
 75
     1
175
     1
 42
1.0
 92
        0
 66
   257
 43
1.0
 76
     1
 77
     6
 78
     2
 67
     7
 79
     3
170
     0
171
     0
290
     0
174
     0
 93
        1
 44
0.0
173
     0
291
     0
 45
0.0
1001
ACAD
1000
AcDbSavedByObjectVersion
1070
     0
  0
DICTIONARYVAR
  5
84
102
{ACAD_REACTORS
330
5E
102
}
330
5E
100
DictionaryVariables
280
     0
  1
STANDARD
  0
DICTIONARYVAR
  5
5F
102
{ACAD_REACTORS
330
5E
102
}
330
5E
100
DictionaryVariables
280
     0
  1
2
  0
DICTIONARYVAR
  5
63
102
{ACAD_REACTORS
330
5E
102
}
330
5E
100
DictionaryVariables
280
     0
  1
1
  0
DICTIONARYVAR
  5
1BD
102
{ACAD_REACTORS
330
5E
102
}
330
5E
100
DictionaryVariables
280
     0
  1
80.000000
  0
DICTIONARYVAR
  5
1BC
102
{ACAD_REACTORS
330
5E
102
}
330
5E
100
DictionaryVariables
280
     0
  1
5.000000
  0
DICTIONARY
  5
1C2
330
ED
100
AcDbDictionary
280
     1
281
     1
  3
ACAD_XREC_ROUNDTRIP
360
1C3
  0
DICTIONARY
  5
1C0
330
EC
100
AcDbDictionary
280
     1
281
     1
  3
ACAD_XREC_ROUNDTRIP
360
1C1
  0
DICTIONARY
  5
1C4
330
EE
100
AcDbDictionary
280
     1
281
     1
  3
ACAD_XREC_ROUNDTRIP
360
1C5
  0
DICTIONARY
  5
1BE
330
7F
100
AcDbDictionary
280
     1
281
     1
  3
ACAD_XREC_ROUNDTRIP
360
1BF
  0
DICTIONARY
  5
126
330
125
100
AcDbDictionary
280
     1
281
     1
  3
ACAD_XREC_ROUNDTRIP
360
127
  0
XRECORD
  5
1C3
102
{ACAD_REACTORS
330
1C2
102
}
330
1C2
100
AcDbXrecord
280
     1
102
MATERIAL
148
0.0
149
0.0
149
0.0
 93
        0
 94
       63
282
     0
 72
     1
 77
     1
171
     1
175
     1
179
     1
273
     0
  0
XRECORD
  5
1C1
102
{ACAD_REACTORS
330
1C0
102
}
330
1C0
100
AcDbXrecord
280
     1
102
MATERIAL
148
0.0
149
0.0
149
0.0
 93
        0
 94
       63
282
     0
 72
     1
 77
     1
171
     1
175
     1
179
     1
273
     0
  0
XRECORD
  5
1C5
102
{ACAD_REACTORS
330
1C4
102
}
330
1C4
100
AcDbXrecord
280
     1
102
MATERIAL
148
0.0
149
0.0
149
0.0
 93
        0
 94
       63
282
     0
 72
     1
 77
     1
171
     1
175
     1
179
     1
273
     0
  0
XRECORD
  5
1BF
102
{ACAD_REACTORS
330
1BE
102
}
330
1BE
100
AcDbXrecord
280
     1
102
ACAD_ROUNDTRIP_PRE2007_TABLESTYLE
 90
      512
 91
        0
  1

 92
      512
 93
        0
  2

 94
      512
 95
        0
  3

  0
XRECORD
  5
127
102
{ACAD_REACTORS
330
126
102
}
330
126
100
AcDbXrecord
280
     1
102
RTVSPost2010Prop28
280
     0
102
RTVSPost2010PropOp28
 70
     1
102
RTVSPost2010Prop29
280
     1
102
RTVSPost2010PropOp29
 70
     1
102
RTVSPost2010Prop30
280
     1
102
RTVSPost2010PropOp30
 70
     1
102
RTVSPost2010Prop31
280
     0
102
RTVSPost2010PropOp31
 70
     1
102
RTVSPost2010Prop32
280
     0
102
RTVSPost2010PropOp32
 70
     1
102
RTVSPost2010Prop33
280
     0
102
RTVSPost2010PropOp33
 70
     1
102
RTVSPost2010Prop34
280
     0
102
RTVSPost2010PropOp34
 70
     1
102
RTVSPost2010Prop35
280
     0
102
RTVSPost2010PropOp35
 70
     1
102
RTVSPost2010Prop36
280
     0
102
RTVSPost2010PropOp36
 70
     1
102
RTVSPost2010Prop37
 90
       50
102
RTVSPost2010PropOp37
 70
     1
102
RTVSPost2010Prop38
140
0.0
102
RTVSPost2010PropOp38
 70
     1
102
RTVSPost2010Prop39
140
1.0
102
RTVSPost2010PropOp39
 70
     1
102
RTVSPost2010Prop40
 90
        0
102
RTVSPost2010PropOp40
 70
     1
102
RTVSPost2010Prop41ColorIndex
 90
       18
102
RTVSPost2010Prop41ColorRGB
 90
        0
102
RTVSPost2010PropOp41
 70
     1
102
RTVSPost2010Prop42
 90
       50
102
RTVSPost2010PropOp42
 70
     1
102
RTVSPost2010Prop43
 90
        3
102
RTVSPost2010PropOp43
 70
     1
102
RTVSPost2010Prop44ColorIndex
 90
        5
102
RTVSPost2010Prop44ColorRGB
 90
      255
102
RTVSPost2010PropOp44
 70
     1
102
RTVSPost2010Prop45
280
     0
102
RTVSPost2010PropOp45
 70
     1
102
RTVSPost2010Prop46
 90
       50
102
RTVSPost2010PropOp46
 70
     1
102
RTVSPost2010Prop47
 90
       50
102
RTVSPost2010PropOp47
 70
     1
102
RTVSPost2010Prop48
 90
       50
102
RTVSPost2010PropOp48
 70
     1
102
RTVSPost2010Prop49
280
     0
102
RTVSPost2010PropOp49
 70
     1
102
RTVSPost2010Prop50
 90
       50
102
RTVSPost2010PropOp50
 70
     1
102
RTVSPost2010Prop51ColorIndex
 90
      256
102
RTVSPost2010Prop51ColorRGB
 90
-16777216
102
RTVSPost2010PropOp51
 70
     0
102
RTVSPost2010Prop52
140
1.0
102
RTVSPost2010PropOp52
 70
     0
102
RTVSPost2010Prop53
 90
        2
102
RTVSPost2010PropOp53
 70
     1
102
RTVSPost2010Prop54
  1
strokes_ogs.tif
102
RTVSPost2010PropOp54
 70
     1
102
RTVSPost2010Prop55
280
     0
102
RTVSPost2010PropOp55
 70
     1
102
RTVSPost2010Prop56
140
1.0
102
RTVSPost2010PropOp56
 70
     1
102
RTVSPost2010Prop57
140
1.0
102
RTVSPost2010PropOp57
 70
     1
102
RTVSPropertyOp0
 70
     1
102
RTVSPropertyOp1
 70
     1
102
RTVSPropertyOp2
 70
     1
102
RTVSPropertyOp3
 70
     1
102
RTVSPropertyOp4
 70
     1
102
RTVSPropertyOp5
 70
     1
102
RTVSPropertyOp6
 70
     1
102
RTVSPropertyOp7
 70
     1
102
RTVSPropertyOp8
 70
     1
102
RTVSPropertyOp9
 70
     1
102
RTVSPropertyOp10
 70
     1
102
RTVSPropertyOp11
 70
     1
102
RTVSPropertyOp12
 70
     1
102
RTVSPropertyOp13
 70
     1
102
RTVSPropertyOp14
 70
     1
102
RTVSPropertyOp15
 70
     1
102
RTVSPropertyOp16
 70
     1
102
RTVSPropertyOp17
 70
     1
102
RTVSPropertyOp18
 70
     1
102
RTVSPropertyOp19
 70
     1
102
RTVSPropertyOp20
 70
     1
102
RTVSPropertyOp21
 70
     1
102
RTVSPropertyOp22
 70
     1
102
RTVSPropertyOp23
 70
     1
102
RTVSPropertyOp24
 70
     1
102
RTVSPropertyOp25
 70
     1
102
RTVSPropertyOp26
 70
     1
102
RTVSPropertyOp27
 70
     1
102
RTVSPropertyOp28
 70
     1
102
RTVSPropertyOp29
 70
     1
102
RTVSPropertyOp30
 70
     1
102
RTVSPropertyOp31
 70
     1
102
RTVSPropertyOp32
 70
     1
102
RTVSPropertyOp33
 70
     1
102
RTVSPropertyOp34
 70
     1
102
RTVSPropertyOp35
 70
     1
102
RTVSPropertyOp36
 70
     1
102
RTVSPropertyOp37
 70
     1
102
RTVSPropertyOp38
 70
     1
102
RTVSPropertyOp39
 70
     1
102
RTVSPropertyOp40
 70
     1
102
RTVSPropertyOp41
 70
     1
102
RTVSPropertyOp42
 70
     1
102
RTVSPropertyOp43
 70
     1
102
RTVSPropertyOp44
 70
     1
102
RTVSPropertyOp45
 70
     1
102
RTVSPropertyOp46
 70
     1
102
RTVSPropertyOp47
 70
     1
102
RTVSPropertyOp48
 70
     1
102
RTVSPropertyOp49
 70
     1
102
RTVSPropertyOp50
 70
     1
102
RTVSPropertyOp51
 70
     0
102
RTVSPropertyOp52
 70
     0
102
RTVSPropertyOp53
 70
     1
102
RTVSPropertyOp54
 70
     1
102
RTVSPropertyOp55
 70
     1
102
RTVSPropertyOp56
 70
     1
102
RTVSPropertyOp57
 70
     1
102
RTVSPropertyOp58
 70
     1
102
RTVSPropertyOp59
 70
     1
102
RTVSPropertyOp60
 70
     1
102
RTVSPropertyOp61
 70
     1
102
RTVSPropertyOp62
 70
     1
  0
ENDSEC
  0
EOF
