  0
SECTION
  2
HEADER
  9
$ACADVER
  1
AC1021
  9
$ACADMAINTVER
 70
     1
  9
$DWGCODEPAGE
  3
ANSI_1252
  9
$LASTSAVEDBY
  1
roger
  9
$INSBASE
 10
0.0
 20
0.0
 30
0.0
  9
$EXTMIN
 10
-76448.66653936531
 20
1977.78754085213
 30
0.0
  9
$EXTMAX
 10
103755.0103354919
 20
67057.38373132516
 30
0.1
  9
$LIMMIN
 10
0.0
 20
0.0
  9
$LIMMAX
 10
12.0
 20
9.0
  9
$ORTHOMODE
 70
     1
  9
$REGENMODE
 70
     1
  9
$FILLMODE
 70
     1
  9
$QTEXTMODE
 70
     0
  9
$MIRRTEXT
 70
     1
  9
$LTSCALE
 40
1.0
  9
$ATTMODE
 70
     1
  9
$TEXTSIZE
 40
12.0
  9
$TRACEWID
 40
0.05
  9
$TEXTSTYLE
  7
ARIAL
  9
$CLAYER
  8
Omriss tanker
  9
$CELTYPE
  6
CONTINUOUS
  9
$CECOLOR
 62
   256
  9
$CELTSCALE
 40
1.0
  9
$DISPSILH
 70
     0
  9
$DIMSCALE
 40
1.0
  9
$DIMASZ
 40
12.0
  9
$DIMEXO
 40
0.06
  9
$DIMDLI
 40
0.15
  9
$DIMRND
 40
0.0
  9
$DIMDLE
 40
0.0
  9
$DIMEXE
 40
0.3
  9
$DIMTP
 40
0.0
  9
$DIMTM
 40
0.0
  9
$DIMTXT
 40
12.0
  9
$DIMCEN
 40
0.09
  9
$DIMTSZ
 40
0.0
  9
$DIMTOL
 70
     0
  9
$DIMLIM
 70
     0
  9
$DIMTIH
 70
     1
  9
$DIMTOH
 70
     1
  9
$DIMSE1
 70
     0
  9
$DIMSE2
 70
     0
  9
$DIMTAD
 70
     0
  9
$DIMZIN
 70
     0
  9
$DIMBLK
  1

  9
$DIMASO
 70
     1
  9
$DIMSHO
 70
     1
  9
$DIMPOST
  1

  9
$DIMAPOST
  1

  9
$DIMALT
 70
     0
  9
$DIMALTD
 70
     2
  9
$DIMALTF
 40
25.4
  9
$DIMLFAC
 40
1.0
  9
$DIMTOFL
 70
     0
  9
$DIMTVP
 40
0.0
  9
$DIMTIX
 70
     0
  9
$DIMSOXD
 70
     0
  9
$DIMSAH
 70
     0
  9
$DIMBLK1
  1

  9
$DIMBLK2
  1

  9
$DIMSTYLE
  2
TST
  9
$DIMCLRD
 70
     7
  9
$DIMCLRE
 70
     0
  9
$DIMCLRT
 70
     7
  9
$DIMTFAC
 40
0.072
  9
$DIMGAP
 40
3.0
  9
$DIMJUST
 70
     0
  9
$DIMSD1
 70
     0
  9
$DIMSD2
 70
     0
  9
$DIMTOLJ
 70
     1
  9
$DIMTZIN
 70
     0
  9
$DIMALTZ
 70
     0
  9
$DIMALTTZ
 70
     0
  9
$DIMUPT
 70
     0
  9
$DIMDEC
 70
     1
  9
$DIMTDEC
 70
     1
  9
$DIMALTU
 70
     2
  9
$DIMALTTD
 70
     2
  9
$DIMTXSTY
  7
ARIAL
  9
$DIMAUNIT
 70
     0
  9
$DIMADEC
 70
     0
  9
$DIMALTRND
 40
0.0
  9
$DIMAZIN
 70
     0
  9
$DIMDSEP
 70
    46
  9
$DIMATFIT
 70
     3
  9
$DIMFRAC
 70
     0
  9
$DIMLDRBLK
  1

  9
$DIMLUNIT
 70
     2
  9
$DIMLWD
 70
    -2
  9
$DIMLWE
 70
    -2
  9
$DIMTMOVE
 70
     0
  9
$DIMFXL
 40
1.0
  9
$DIMFXLON
 70
     0
  9
$DIMJOGANG
 40
0.7853981633974483
  9
$DIMTFILL
 70
     0
  9
$DIMTFILLCLR
 70
     0
  9
$DIMARCSYM
 70
     0
  9
$DIMLTYPE
  6

  9
$DIMLTEX1
  6

  9
$DIMLTEX2
  6

  9
$LUNITS
 70
     2
  9
$LUPREC
 70
     2
  9
$SKETCHINC
 40
0.1
  9
$FILLETRAD
 40
3.0
  9
$AUNITS
 70
     0
  9
$AUPREC
 70
     0
  9
$MENU
  1
acad
  9
$ELEVATION
 40
0.0
  9
$PELEVATION
 40
0.0
  9
$THICKNESS
 40
0.1
  9
$LIMCHECK
 70
     0
  9
$CHAMFERA
 40
0.0
  9
$CHAMFERB
 40
0.0
  9
$CHAMFERC
 40
10.0
  9
$CHAMFERD
 40
0.174532925199433
  9
$SKPOLY
 70
     0
  9
$TDCREATE
 40
2450830.359786921
  9
$TDUCREATE
 40
2450830.276453588
  9
$TDUPDATE
 40
2454361.486798137
  9
$TDUUPDATE
 40
2454361.403464804
  9
$TDINDWG
 40
1.2698378472
  9
$TDUSRTIMER
 40
1.2698288079
  9
$USRTIMER
 70
     1
  9
$ANGBASE
 50
0.0
  9
$ANGDIR
 70
     0
  9
$PDMODE
 70
     0
  9
$PDSIZE
 40
0.0
  9
$PLINEWID
 40
0.3
  9
$SPLFRAME
 70
     1
  9
$SPLINETYPE
 70
     6
  9
$SPLINESEGS
 70
     8
  9
$HANDSEED
  5
16BB1
  9
$SURFTAB1
 70
     6
  9
$SURFTAB2
 70
     6
  9
$SURFTYPE
 70
     6
  9
$SURFU
 70
     6
  9
$SURFV
 70
     6
  9
$UCSBASE
  2

  9
$UCSNAME
  2

  9
$UCSORG
 10
-1376.91011567699
 20
669.2683454919897
 30
0.0
  9
$UCSXDIR
 10
1.0
 20
0.0
 30
0.0
  9
$UCSYDIR
 10
0.0
 20
1.0
 30
0.0
  9
$UCSORTHOREF
  2

  9
$UCSORTHOVIEW
 70
     0
  9
$UCSORGTOP
 10
0.0
 20
0.0
 30
0.0
  9
$UCSORGBOTTOM
 10
0.0
 20
0.0
 30
0.0
  9
$UCSORGLEFT
 10
0.0
 20
0.0
 30
0.0
  9
$UCSORGRIGHT
 10
0.0
 20
0.0
 30
0.0
  9
$UCSORGFRONT
 10
0.0
 20
0.0
 30
0.0
  9
$UCSORGBACK
 10
0.0
 20
0.0
 30
0.0
  9
$PUCSBASE
  2

  9
$PUCSNAME
  2

  9
$PUCSORG
 10
0.0
 20
0.0
 30
0.0
  9
$PUCSXDIR
 10
1.0
 20
0.0
 30
0.0
  9
$PUCSYDIR
 10
0.0
 20
1.0
 30
0.0
  9
$PUCSORTHOREF
  2

  9
$PUCSORTHOVIEW
 70
     0
  9
$PUCSORGTOP
 10
0.0
 20
0.0
 30
0.0
  9
$PUCSORGBOTTOM
 10
0.0
 20
0.0
 30
0.0
  9
$PUCSORGLEFT
 10
0.0
 20
0.0
 30
0.0
  9
$PUCSORGRIGHT
 10
0.0
 20
0.0
 30
0.0
  9
$PUCSORGFRONT
 10
0.0
 20
0.0
 30
0.0
  9
$PUCSORGBACK
 10
0.0
 20
0.0
 30
0.0
  9
$USERI1
 70
     0
  9
$USERI2
 70
     0
  9
$USERI3
 70
     0
  9
$USERI4
 70
     0
  9
$USERI5
 70
     0
  9
$USERR1
 40
0.0
  9
$USERR2
 40
0.0
  9
$USERR3
 40
0.0
  9
$USERR4
 40
0.0
  9
$USERR5
 40
0.0
  9
$WORLDVIEW
 70
     1
  9
$SHADEDGE
 70
     3
  9
$SHADEDIF
 70
    70
  9
$TILEMODE
 70
     1
  9
$MAXACTVP
 70
    16
  9
$PINSBASE
 10
0.0
 20
0.0
 30
0.0
  9
$PLIMCHECK
 70
     0
  9
$PEXTMIN
 10
1.000000000000000E+20
 20
1.000000000000000E+20
 30
1.000000000000000E+20
  9
$PEXTMAX
 10
-1.000000000000000E+20
 20
-1.000000000000000E+20
 30
-1.000000000000000E+20
  9
$PLIMMIN
 10
0.0
 20
0.0
  9
$PLIMMAX
 10
12.0
 20
9.0
  9
$UNITMODE
 70
     0
  9
$VISRETAIN
 70
     0
  9
$PLINEGEN
 70
     0
  9
$PSLTSCALE
 70
     0
  9
$TREEDEPTH
 70
  3020
  9
$CMLSTYLE
  2
STANDARD
  9
$CMLJUST
 70
     0
  9
$CMLSCALE
 40
1.0
  9
$PROXYGRAPHICS
 70
     1
  9
$MEASUREMENT
 70
     0
  9
$CELWEIGHT
370
    -1
  9
$ENDCAPS
280
     0
  9
$JOINSTYLE
280
     0
  9
$LWDISPLAY
290
     0
  9
$INSUNITS
 70
     0
  9
$HYPERLINKBASE
  1

  9
$STYLESHEET
  1

  9
$XEDIT
290
     1
  9
$CEPSNTYPE
380
     0
  9
$PSTYLEMODE
290
     1
  9
$FINGERPRINTGUID
  2
{8CB4EE96-A2FC-4BAD-8A58-F7B03F62799B}
  9
$VERSIONGUID
  2
{06C2A7B3-E56C-4AC3-9C48-41A2EF4CDAF7}
  9
$EXTNAMES
290
     1
  9
$PSVPSCALE
 40
0.0
  9
$OLESTARTUP
290
     0
  9
$SORTENTS
280
    96
  9
$INDEXCTL
280
     0
  9
$HIDETEXT
280
     0
  9
$XCLIPFRAME
290
     0
  9
$HALOGAP
280
     0
  9
$OBSCOLOR
 70
   257
  9
$OBSLTYPE
280
     0
  9
$INTERSECTIONDISPLAY
280
     0
  9
$INTERSECTIONCOLOR
 70
   257
  9
$DIMASSOC
280
     1
  9
$PROJECTNAME
  1

  9
$CAMERADISPLAY
290
     0
  9
$LENSLENGTH
 40
50.0
  9
$CAMERAHEIGHT
 40
0.0
  9
$STEPSPERSEC
 40
2.0
  9
$STEPSIZE
 40
6.0
  9
$3DDWFPREC
 40
2.0
  9
$PSOLWIDTH
 40
0.25
  9
$PSOLHEIGHT
 40
4.0
  9
$LOFTANG1
 40
1.570796326794896
  9
$LOFTANG2
 40
1.570796326794896
  9
$LOFTMAG1
 40
0.0
  9
$LOFTMAG2
 40
0.0
  9
$LOFTPARAM
 70
     7
  9
$LOFTNORMALS
280
     1
  9
$LATITUDE
 40
37.795
  9
$LONGITUDE
 40
-122.394
  9
$NORTHDIRECTION
 40
0.0
  9
$TIMEZONE
 70
 -8000
  9
$LIGHTGLYPHDISPLAY
280
     1
  9
$TILEMODELIGHTSYNCH
280
     1
  9
$CMATERIAL
347
16079
  9
$SOLIDHIST
280
     1
  9
$SHOWHIST
280
     1
  9
$DWFFRAME
280
     2
  9
$DGNFRAME
280
     0
  9
$REALWORLDSCALE
290
     1
  9
$INTERFERECOLOR
 62
     1
  9
$INTERFEREOBJVS
345
16086
  9
$INTERFEREVPVS
346
16083
  9
$CSHADOW
280
     0
  9
$SHADOWPLANELOCATION
 40
0.0
  0
ENDSEC
  0
SECTION
  2
CLASSES
  0
CLASS
  1
DICTIONARYVAR
  2
AcDbDictionaryVar
  3
ObjectDBX Classes
 90
        0
 91
        2
280
     0
281
     0
  0
CLASS
  1
ACDBDICTIONARYWDFLT
  2
AcDbDictionaryWithDefault
  3
ObjectDBX Classes
 90
        0
 91
        1
280
     0
281
     0
  0
CLASS
  1
MATERIAL
  2
AcDbMaterial
  3
ObjectDBX Classes
 90
     1024
 91
        3
280
     0
281
     0
  0
CLASS
  1
VISUALSTYLE
  2
AcDbVisualStyle
  3
ObjectDBX Classes
 90
     4095
 91
       16
280
     0
281
     0
  0
CLASS
  1
TABLESTYLE
  2
AcDbTableStyle
  3
ObjectDBX Classes
 90
     4095
 91
        1
280
     0
281
     0
  0
CLASS
  1
SORTENTSTABLE
  2
AcDbSortentsTable
  3
ObjectDBX Classes
 90
        0
 91
        1
280
     0
281
     0
  0
ENDSEC
  0
SECTION
  2
TABLES
  0
TABLE
  2
VPORT
  5
2E2A
330
0
100
AcDbSymbolTable
 70
     1
  0
VPORT
  5
16072
330
2E2A
100
AcDbSymbolTableRecord
100
AcDbViewportTableRecord
  2
*Active
 70
     0
 10
0.0
 20
0.0
 11
1.0
 21
1.0
 12
-52924.18499128904
 22
21341.88458334224
 13
0.0
 23
0.0
 14
0.5
 24
0.5
 15
1.0
 25
1.0
 16
0.0
 26
0.0
 36
1.0
 17
0.0
 27
0.0
 37
0.0
 40
31654.07775182859
 41
1.569570871261378
 42
50.0
 43
0.0
 44
0.0
 50
0.0
 51
0.0
 71
     0
 72
   100
 73
     1
 74
     1
 75
     0
 76
     0
 77
     0
 78
     0
281
     0
 65
     1
110
-1376.91011567699
120
669.2683454919897
130
0.0
111
1.0
121
0.0
131
0.0
112
0.0
122
1.0
132
0.0
 79
     0
146
0.0
348
16082
 60
     3
 61
     5
292
     1
282
     1
141
0.0
142
0.0
 63
   250
421
  3355443
  0
ENDTAB
  0
TABLE
  2
LTYPE
  5
2E27
330
0
100
AcDbSymbolTable
 70
     2
  0
LTYPE
  5
2E34
330
2E27
100
AcDbSymbolTableRecord
100
AcDbLinetypeTableRecord
  2
BYBLOCK
 70
     0
  3

 72
    65
 73
     0
 40
0.0
  0
LTYPE
  5
2E35
330
2E27
100
AcDbSymbolTableRecord
100
AcDbLinetypeTableRecord
  2
BYLAYER
 70
     0
  3

 72
    65
 73
     0
 40
0.0
  0
LTYPE
  5
2E36
330
2E27
100
AcDbSymbolTableRecord
100
AcDbLinetypeTableRecord
  2
CONTINUOUS
 70
     0
  3
Solid line
 72
    65
 73
     0
 40
0.0
  0
ENDTAB
  0
TABLE
  2
LAYER
  5
2E24
102
{ACAD_XDICTIONARY
360
15B01
102
}
330
0
100
AcDbSymbolTable
 70
     8
  0
LAYER
  5
2E31
330
2E24
100
AcDbSymbolTableRecord
100
AcDbLayerTableRecord
  2
0
 70
     0
 62
     7
  6
CONTINUOUS
370
    -3
390
158BF
347
1607B
  0
LAYER
  5
2E5D
330
2E24
100
AcDbSymbolTableRecord
100
AcDbLayerTableRecord
  2
LAYER1
 70
     0
 62
     7
  6
CONTINUOUS
370
    -3
390
158BF
347
1607B
  0
LAYER
  5
2E5F
330
2E24
100
AcDbSymbolTableRecord
100
AcDbLayerTableRecord
  2
TEKST
 70
     0
 62
     7
  6
CONTINUOUS
370
    -3
390
158BF
347
1607B
  0
LAYER
  5
2E60
330
2E24
100
AcDbSymbolTableRecord
100
AcDbLayerTableRecord
  2
DEFPOINTS
 70
     0
 62
     7
  6
CONTINUOUS
290
     0
370
    -3
390
158BF
347
1607B
  0
LAYER
  5
2E7C
330
2E24
100
AcDbSymbolTableRecord
100
AcDbLayerTableRecord
  2
ASHADE
 70
     4
 62
     7
  6
CONTINUOUS
370
    -3
390
158BF
347
1607B
  0
LAYER
  5
30B2
330
2E24
100
AcDbSymbolTableRecord
100
AcDbLayerTableRecord
  2
OMRISS
 70
     0
 62
     8
  6
CONTINUOUS
370
    -3
390
158BF
347
1607B
  0
LAYER
  5
15BDA
330
2E24
100
AcDbSymbolTableRecord
100
AcDbLayerTableRecord
  2
Omriss tanker
 70
     0
 62
    20
  6
CONTINUOUS
370
    -3
390
158BF
347
1607B
  0
LAYER
  5
16B09
330
2E24
100
AcDbSymbolTableRecord
100
AcDbLayerTableRecord
  2
Tankomriss
 70
     0
 62
   240
  6
CONTINUOUS
370
    -3
390
158BF
347
1607B
1001
AcAecLayerStandard
1000

1000

  0
ENDTAB
  0
TABLE
  2
STYLE
  5
2E25
330
0
100
AcDbSymbolTable
 70
     5
  0
STYLE
  5
2E32
330
2E25
100
AcDbSymbolTableRecord
100
AcDbTextStyleTableRecord
  2
STANDARD
 70
     0
 40
3.0
 41
1.0
 50
0.0
 71
     0
 42
3.0
  3
txt
  4

  0
STYLE
  5
2E40
330
2E25
100
AcDbSymbolTableRecord
100
AcDbTextStyleTableRecord
  2
ROMANS
 70
     0
 40
3.0
 41
1.0
 50
0.0
 71
     0
 42
3.0
  3
romans
  4

  0
STYLE
  5
5980
330
2E25
100
AcDbSymbolTableRecord
100
AcDbTextStyleTableRecord
  2
ARIAL
 70
     0
 40
12.0
 41
1.0
 50
0.0
 71
     0
 42
12.0
  3
ARIAL.TTF
  4

1001
ACAD
1000
Arial
1071
       34
  0
STYLE
  5
16B0A
330
2E25
100
AcDbSymbolTableRecord
100
AcDbTextStyleTableRecord
  2
SIMPLEX
 70
     0
 40
0.0
 41
0.85
 50
0.0
 71
     0
 42
2.5
  3
SIMPLEX
  4

  0
STYLE
  5
16B0B
330
2E25
100
AcDbSymbolTableRecord
100
AcDbTextStyleTableRecord
  2
18
 70
     0
 40
540.0
 41
0.9
 50
0.0
 71
     0
 42
540.0
  3
romans
  4

  0
ENDTAB
  0
TABLE
  2
VIEW
  5
2E28
330
0
100
AcDbSymbolTable
 70
     0
  0
ENDTAB
  0
TABLE
  2
UCS
  5
2E29
330
0
100
AcDbSymbolTable
 70
     0
  0
ENDTAB
  0
TABLE
  2
APPID
  5
2E2B
330
0
100
AcDbSymbolTable
 70
    10
  0
APPID
  5
2E33
330
2E2B
100
AcDbSymbolTableRecord
100
AcDbRegAppTableRecord
  2
ACAD
 70
     0
  0
APPID
  5
2E5B
330
2E2B
100
AcDbSymbolTableRecord
100
AcDbRegAppTableRecord
  2
AME_SOL
 70
     0
  0
APPID
  5
2E7A
330
2E2B
100
AcDbSymbolTableRecord
100
AcDbRegAppTableRecord
  2
AVE_RENDER
 70
     0
  0
APPID
  5
2E7B
330
2E2B
100
AcDbSymbolTableRecord
100
AcDbRegAppTableRecord
  2
AVE_ENTITY_MATERIAL
 70
     0
  0
APPID
  5
2E88
330
2E2B
100
AcDbSymbolTableRecord
100
AcDbRegAppTableRecord
  2
AVE_FINISH
 70
     0
  0
APPID
  5
2E89
330
2E2B
100
AcDbSymbolTableRecord
100
AcDbRegAppTableRecord
  2
AVE_MATERIAL
 70
     0
  0
APPID
  5
2E8A
330
2E2B
100
AcDbSymbolTableRecord
100
AcDbRegAppTableRecord
  2
AVE_GLOBAL
 70
     0
  0
APPID
  5
15AF6
330
2E2B
100
AcDbSymbolTableRecord
100
AcDbRegAppTableRecord
  2
DCO15
 70
     0
  0
APPID
  5
16A18
330
2E2B
100
AcDbSymbolTableRecord
100
AcDbRegAppTableRecord
  2
ACAD_EXEMPT_FROM_CAD_STANDARDS
 70
     0
  0
APPID
  5
16B0E
330
2E2B
100
AcDbSymbolTableRecord
100
AcDbRegAppTableRecord
  2
AcAecLayerStandard
 70
     0
  0
ENDTAB
  0
TABLE
  2
DIMSTYLE
  5
2E2C
330
0
100
AcDbSymbolTable
 70
     5
100
AcDbDimStyleTable
 71
     1
340
2E5C
  0
DIMSTYLE
105
2E5C
330
2E2C
100
AcDbSymbolTableRecord
100
AcDbDimStyleTableRecord
  2
TST
 70
     0
 41
1.0
 42
0.06
140
2.5
146
0.072
147
3.0
271
     2
272
     2
279
     2
340
2E40
  0
DIMSTYLE
105
10DF2
330
2E2C
100
AcDbSymbolTableRecord
100
AcDbDimStyleTableRecord
  2
STANDARD
 70
     0
340
2E32
  0
DIMSTYLE
105
16B0C
330
2E2C
100
AcDbSymbolTableRecord
100
AcDbDimStyleTableRecord
  2
KORT
 70
     0
 40
300.0
 41
0.0025
 42
1.0
 43
8.0
 44
1.0
 73
     0
 74
     0
 77
     1
140
2.5
141
2.0
147
1.0
172
     1
173
     1
176
     4
177
     4
178
   256
271
     2
272
     0
289
     0
340
16B0A
341
16B01
343
16B01
344
16B05
  0
DIMSTYLE
105
16B0D
330
2E2C
100
AcDbSymbolTableRecord
100
AcDbDimStyleTableRecord
  2
FCL
 70
     0
 40
300.0
 41
2.5
 42
1.0
 43
8.0
 44
1.0
 73
     0
 74
     0
 77
     1
140
2.5
141
2.0
147
1.0
172
     1
176
     4
177
     4
178
   256
271
     2
272
     0
279
     2
340
16B0A
  0
ENDTAB
  0
TABLE
  2
BLOCK_RECORD
  5
2E23
330
0
100
AcDbSymbolTable
 70
     9
  0
BLOCK_RECORD
  5
2E3A
330
2E23
100
AcDbSymbolTableRecord
100
AcDbBlockTableRecord
  2
*MODEL_SPACE
340
158C2
 70
     0
280
     1
281
     0
  0
BLOCK_RECORD
  5
2E37
330
2E23
100
AcDbSymbolTableRecord
100
AcDbBlockTableRecord
  2
*PAPER_SPACE
340
158C3
 70
     0
280
     1
281
     0
  0
BLOCK_RECORD
  5
2E3E
330
2E23
100
AcDbSymbolTableRecord
100
AcDbBlockTableRecord
  2
AME_NIL
340
0
102
{BLKREFS
331
17
331
10E9D
331
10EAA
331
10EB6
331
13A16
331
13A23
331
13A2F
102
}
 70
     0
280
     1
281
     0
  0
BLOCK_RECORD
  5
2E3F
330
2E23
100
AcDbSymbolTableRecord
100
AcDbBlockTableRecord
  2
AME_SOL
340
0
102
{BLKREFS
331
29
331
10E9E
331
10EAB
331
10EB7
331
13A17
331
13A24
331
13A30
102
}
 70
     0
280
     1
281
     0
  0
BLOCK_RECORD
  5
2E7D
330
2E23
100
AcDbSymbolTableRecord
100
AcDbBlockTableRecord
  2
AVE_RENDER
340
0
102
{BLKREFS
331
2E80
331
2E81
331
2E82
331
2E83
331
2E84
331
2E85
331
2E86
331
2E87
331
10EA0
331
10EA1
331
10EA2
331
10EA3
331
10EA4
331
10EA5
331
10EA6
331
10EA7
331
10EAD
331
10EAE
331
10EAF
331
10EB0
331
10EB1
331
10EB2
331
10EB3
331
10EB4
331
10EB9
331
10EBA
331
10EBB
331
10EBC
331
10EBD
331
10EBE
331
10EBF
331
10EC0
331
13A19
331
13A1A
331
13A1B
331
13A1C
331
13A1D
331
13A1E
331
13A1F
331
13A20
331
13A26
331
13A27
331
13A28
331
13A29
331
13A2A
331
13A2B
331
13A2C
331
13A2D
331
13A32
331
13A33
331
13A34
331
13A35
331
13A36
331
13A37
331
13A38
331
13A39
102
}
 70
     0
280
     1
281
     0
  0
BLOCK_RECORD
  5
2E8B
330
2E23
100
AcDbSymbolTableRecord
100
AcDbBlockTableRecord
  2
AVE_GLOBAL
340
0
102
{BLKREFS
331
2E8E
331
10EA8
331
10EB5
331
10EC1
331
13A21
331
13A2E
331
13A3A
102
}
 70
     0
280
     1
281
     0
  0
BLOCK_RECORD
  5
16B01
330
2E23
100
AcDbSymbolTableRecord
100
AcDbBlockTableRecord
  2
PIL1
340
0
 70
     0
280
     1
281
     0
  0
BLOCK_RECORD
  5
16B05
330
2E23
100
AcDbSymbolTableRecord
100
AcDbBlockTableRecord
  2
PIL2
340
0
 70
     0
280
     1
281
     0
  0
ENDTAB
  0
ENDSEC
  0
SECTION
  2
BLOCKS
  0
BLOCK
  5
2E63
330
2E3A
100
AcDbEntity
  8
0
100
AcDbBlockBegin
  2
*MODEL_SPACE
 70
     0
 10
0.0
 20
0.0
 30
0.0
  3
*MODEL_SPACE
  1

  0
ENDBLK
  5
2E64
330
2E3A
100
AcDbEntity
  8
0
100
AcDbBlockEnd
  0
BLOCK
  5
2E61
330
2E37
100
AcDbEntity
 67
     1
  8
0
100
AcDbBlockBegin
  2
*PAPER_SPACE
 70
     0
 10
0.0
 20
0.0
 30
0.0
  3
*PAPER_SPACE
  1

  0
ENDBLK
  5
2E62
330
2E37
100
AcDbEntity
 67
     1
  8
0
100
AcDbBlockEnd
  0
BLOCK
  5
E
330
2E3E
100
AcDbEntity
  8
0
100
AcDbBlockBegin
  2
AME_NIL
 70
     0
 10
0.0
 20
0.0
 30
0.0
  3
AME_NIL
  1
AME_NIL
  0
ENDBLK
  5
F
330
2E3E
100
AcDbEntity
  8
0
100
AcDbBlockEnd
  0
BLOCK
  5
11
330
2E3F
100
AcDbEntity
  8
0
100
AcDbBlockBegin
  2
AME_SOL
 70
     0
 10
0.0
 20
0.0
 30
0.0
  3
AME_SOL
  1
AME_SOL
  0
ENDBLK
  5
12
330
2E3F
100
AcDbEntity
  8
0
100
AcDbBlockEnd
  0
BLOCK
  5
2E7E
330
2E7D
100
AcDbEntity
  8
0
100
AcDbBlockBegin
  2
AVE_RENDER
 70
     0
 10
0.0
 20
0.0
 30
0.0
  3
AVE_RENDER
  1
AVE_RENDER
  0
ENDBLK
  5
2E7F
330
2E7D
100
AcDbEntity
  8
0
100
AcDbBlockEnd
  0
BLOCK
  5
2E8C
330
2E8B
100
AcDbEntity
  8
0
100
AcDbBlockBegin
  2
AVE_GLOBAL
 70
     0
 10
0.0
 20
0.0
 30
0.0
  3
AVE_GLOBAL
  1
AVE_GLOBAL
  0
ENDBLK
  5
2E8D
330
2E8B
100
AcDbEntity
  8
0
100
AcDbBlockEnd
  0
BLOCK
  5
16B02
330
16B01
100
AcDbEntity
  8
0
100
AcDbBlockBegin
  2
PIL1
 70
     0
 10
0.0
 20
0.0
 30
0.0
  3
PIL1
  1

  0
LWPOLYLINE
  5
16B03
330
16B01
100
AcDbEntity
  8
0
  6
ByBlock
 62
     0
100
AcDbPolyline
 90
        3
 70
     0
 43
0.0
 10
866.0254037844385
 20
866.0254037844385
 10
0.0
 20
0.0
 10
866.0254037844387
 20
-866.0254037844387
  0
ENDBLK
  5
16B04
330
16B01
100
AcDbEntity
  8
0
100
AcDbBlockEnd
  0
BLOCK
  5
16B06
330
16B05
100
AcDbEntity
  8
0
100
AcDbBlockBegin
  2
PIL2
 70
     0
 10
0.0
 20
0.0
 30
0.0
  3
PIL2
  1

  0
SOLID
  5
16B07
330
16B05
100
AcDbEntity
  8
0
  6
ByBlock
 62
     0
100
AcDbTrace
 10
-1000.0
 20
166.6666666666669
 30
0.0
 11
-1000.0
 21
-166.6666666666665
 31
0.0
 12
-0.0000000000000002
 22
0.0
 32
0.0
 13
-0.0000000000000002
 23
0.0
 33
0.0
  0
ENDBLK
  5
16B08
330
16B05
100
AcDbEntity
  8
0
100
AcDbBlockEnd
  0
ENDSEC
  0
SECTION
  2
ENTITIES
  0
INSERT
  5
17
330
2E3A
100
AcDbEntity
  8
LAYER1
100
AcDbBlockReference
  2
AME_NIL
 10
0.0
 20
0.0
 30
0.0
  0
INSERT
  5
29
330
2E3A
100
AcDbEntity
  8
LAYER1
100
AcDbBlockReference
  2
AME_SOL
 10
0.0
 20
0.0
 30
0.0
1001
AME_SOL
1000
R2.1
1000
AME2
1000
sq m
1070
     3
1070
     0
1070
     3
1000
mesh
1040
45.0
1000
U
1040
1.0
1000
m
1000
gm
1000
MILD_STEEL
1070
    25
1000
CSG
1070
     1
1070
     3
1070
     3
1070
     3
1070
     0
1000
cu cm
1070
     1
1070
     0
1005
17
  0
TEXT
  5
50
330
2E3A
100
AcDbEntity
  8
TEKST
100
AcDbText
 10
11.52210026922298
 20
20.64189715824095
 30
0.0
 40
2.5
  1

  7
ROMANS
100
AcDbText
  0
INSERT
  5
2E80
330
2E3A
100
AcDbEntity
  8
ASHADE
 62
     1
100
AcDbBlockReference
  2
AVE_RENDER
 10
0.0
 20
0.0
 30
0.0
1001
AVE_RENDER
1002
{
1070
     6
1000
Pref
1070
    30
1070
    20
1070
     1
1070
     0
1000

1070
    10
1070
     1
1070
    30
1040
1.0
1070
     1
1040
0.3
1040
0.7
1040
0.0
1040
10.0
1010
-1.0
1020
-1.0
1030
-1.0
1040
0.3
1070
    49
1070
     0
1070
     0
1010
1.0
1020
1.0
1030
1.0
1040
45.0
1070
     1
1070
     0
1000
WCS
1040
0.0
1002
}
  0
INSERT
  5
2E81
330
2E3A
100
AcDbEntity
  8
ASHADE
 62
     3
100
AcDbBlockReference
  2
AVE_RENDER
 10
0.0
 20
0.0
 30
0.0
1001
AVE_RENDER
1002
{
1070
     0
1000
Full Opt
1070
     0
1070
     1
1070
     1
1070
     1
1070
     0
1070
     0
1070
     0
1070
     1
1070
     1
1040
0.0001
1040
0.0001
1002
}
  0
INSERT
  5
2E82
330
2E3A
100
AcDbEntity
  8
ASHADE
 62
     4
100
AcDbBlockReference
  2
AVE_RENDER
 10
0.0
 20
0.0
 30
0.0
1001
AVE_RENDER
1002
{
1070
     0
1000
Quick Opt
1070
     0
1070
     1
1070
     1
1070
     1
1070
     0
1070
     0
1070
     1
1002
}
  0
INSERT
  5
2E83
330
2E3A
100
AcDbEntity
  8
ASHADE
 62
     5
100
AcDbBlockReference
  2
AVE_RENDER
 10
0.0
 20
0.0
 30
0.0
1001
AVE_RENDER
1002
{
1070
     1
1000
Scanl Opt
1070
     2
1070
     0
1070
     2
1040
2.0
1040
4.0
1070
     0
1070
     1
1070
     0
1040
0.03
1002
}
  0
INSERT
  5
2E84
330
2E3A
100
AcDbEntity
  8
ASHADE
 62
     6
100
AcDbBlockReference
  2
AVE_RENDER
 10
0.0
 20
0.0
 30
0.0
1001
AVE_RENDER
1002
{
1070
     2
1000
Raytr Opt
1070
     2
1070
     0
1070
     2
1040
2.0
1040
4.0
1070
     0
1070
     1
1070
     1
1040
0.03
1070
     3
1040
0.03
1002
}
  0
INSERT
  5
2E85
330
2E3A
100
AcDbEntity
  8
ASHADE
 62
     7
100
AcDbBlockReference
  2
AVE_RENDER
 10
0.0
 20
0.0
 30
0.0
1001
AVE_RENDER
1002
{
1070
     0
1000
RFile Opt
1070
     5
1070
   640
1070
   480
1070
 10000
1070
     3
1070
    32
1070
    24
1070
     0
1070
     0
1070
     0
1070
     1
1070
     0
1070
     0
1070
     0
1002
}
  0
INSERT
  5
2E86
330
2E3A
100
AcDbEntity
  8
ASHADE
 62
     8
100
AcDbBlockReference
  2
AVE_RENDER
 10
0.0
 20
0.0
 30
0.0
1001
AVE_RENDER
1002
{
1070
     0
1000
Fog Opt
1070
     0
1070
     0
1040
0.0
1040
1.0
1040
0.0
1040
1.0
1010
0.5
1020
0.5
1030
0.5
1002
}
  0
INSERT
  5
2E87
330
2E3A
100
AcDbEntity
  8
ASHADE
 62
     9
100
AcDbBlockReference
  2
AVE_RENDER
 10
0.0
 20
0.0
 30
0.0
1001
AVE_RENDER
1002
{
1070
     0
1000
BG Opt
1070
     0
1070
     1
1010
0.0
1020
0.0
1030
0.0
1010
1.0
1020
0.0
1030
0.0
1010
0.0
1020
1.0
1030
0.0
1010
0.0
1020
0.0
1030
1.0
1040
0.5
1040
0.33
1040
0.0
1000

1070
     1
1000

1070
     1
1070
     1
1040
1.0
1040
1.0
1040
0.0
1040
0.0
1070
     0
1002
}
  0
INSERT
  5
2E8E
330
2E3A
100
AcDbEntity
  8
ASHADE
 62
     1
100
AcDbBlockReference
  2
AVE_GLOBAL
 10
0.0
 20
0.0
 30
0.0
1001
AVE_MATERIAL
1002
{
1000
*GLOBAL*
1000
1
1000
Global finish.
1002
{
1002
}
1002
{
1070
    63
1002
{
1002
{
1010
-1.0
1020
-1.0
1030
-1.0
1002
}
1040
0.1000000014901161
1000

1040
0.0
1002
{
1002
}
1040
0.0
1002
{
1002
}
1040
0.0
1002
}
1002
{
1002
{
1010
-1.0
1020
-1.0
1030
-1.0
1002
}
1040
0.6999999880790711
1000

1040
0.0
1002
{
1002
}
1040
0.0
1002
{
1002
}
1040
0.0
1002
}
1002
{
1002
{
1010
-1.0
1020
-1.0
1030
-1.0
1002
}
1040
0.2000000029802322
1000

1040
0.0
1002
{
1002
}
1040
0.0
1002
{
1002
}
1040
0.0
1002
}
1002
{
1070
     0
1002
{
1070
     1
1002
{
1040
1.0
1040
1.0
1000

1040
0.0
1002
{
1002
}
1040
0.0
1002
{
1002
}
1040
0.0
1002
}
1002
}
1040
1.0
1040
0.0
1040
0.0
1002
}
1002
{
1040
1.0
1040
1.0
1000

1040
0.0
1002
{
1002
}
1040
0.0
1002
{
1002
}
1040
0.0
1002
}
1002
{
1040
0.5
1040
1.0
1000

1040
0.0
1002
{
1002
}
1040
0.0
1002
{
1002
}
1040
0.0
1002
}
1002
{
1070
     0
1040
0.0
1002
{
1002
}
1040
1.0
1002
{
1002
}
1040
0.0
1002
}
1002
{
1040
0.0
1002
{
1002
{
1010
0.0
1020
0.0
1030
0.0
1002
}
1040
1.0
1000

1040
0.0
1002
{
1002
}
1040
0.0
1002
{
1002
}
1040
0.0
1002
}
1002
}
1002
{
1002
{
1070
     1
1002
{
1040
0.0
1040
1.0
1000

1040
0.0
1002
{
1002
}
1040
0.0
1002
{
1002
}
1040
0.0
1002
}
1002
}
1040
0.0
1002
{
1002
}
1010
1.0
1020
0.0
1030
0.0
1010
0.0
1020
1.0
1030
0.0
1010
0.0
1020
0.0
1030
1.0
1070
     0
1002
}
1002
{
1002
{
1040
1.0
1040
1.0
1002
{
1070
     1
1002
{
1040
1.0
1040
1.0
1000

1040
0.0
1002
{
1002
}
1040
0.0
1002
{
1002
}
1040
0.0
1002
}
1002
}
1002
}
1070
     0
1040
0.0
1002
{
1002
}
1002
}
1002
{
1002
}
1002
}
1002
{
1071
        3
1070
     3
1070
     0
1002
{
1070
     2
1070
     0
1070
     0
1040
0.0
1002
}
1070
     0
1070
     2
1002
{
1002
}
1002
}
1002
{
1040
8030.0
1040
190.3000030517578
1040
0.3050000071525574
1040
228.0
1040
545.0
1040
14.0
1040
17.39999961853027
1040
0.4560000002384186
1002
}
1002
}
  0
INSERT
  5
10E9D
330
2E3A
100
AcDbEntity
  8
LAYER1
100
AcDbBlockReference
  2
AME_NIL
 10
436.8103605630293
 20
-215.6608172053943
 30
0.0
  0
INSERT
  5
10E9E
330
2E3A
100
AcDbEntity
  8
LAYER1
100
AcDbBlockReference
  2
AME_SOL
 10
436.8103605630293
 20
-215.6608172053943
 30
0.0
1001
AME_SOL
1000
R2.1
1000
AME2
1000
sq m
1070
     3
1070
     0
1070
     3
1000
mesh
1040
45.0
1000
U
1040
1.0
1000
m
1000
gm
1000
MILD_STEEL
1070
    25
1000
CSG
1070
     1
1070
     3
1070
     3
1070
     3
1070
     0
1000
cu cm
1070
     1
1070
     0
1005
10E9D
  0
TEXT
  5
10E9F
330
2E3A
100
AcDbEntity
  8
TEKST
100
AcDbText
 10
448.3324608322523
 20
-195.0189200471533
 30
0.0
 40
2.5
  1

  7
ROMANS
100
AcDbText
  0
INSERT
  5
10EA0
330
2E3A
100
AcDbEntity
  8
ASHADE
 62
     1
100
AcDbBlockReference
  2
AVE_RENDER
 10
436.8103605630293
 20
-215.6608172053943
 30
0.0
1001
AVE_RENDER
1002
{
1070
     6
1000
Pref
1070
    30
1070
    20
1070
     1
1070
     0
1000

1070
    10
1070
     1
1070
    30
1040
1.0
1070
     1
1040
0.3
1040
0.7
1040
0.0
1040
10.0
1010
-1.0
1020
-1.0
1030
-1.0
1040
0.3
1070
    49
1070
     0
1070
     0
1010
1.0
1020
1.0
1030
1.0
1040
45.0
1070
     1
1070
     0
1000
WCS
1040
0.0
1002
}
  0
INSERT
  5
10EA1
330
2E3A
100
AcDbEntity
  8
ASHADE
 62
     3
100
AcDbBlockReference
  2
AVE_RENDER
 10
436.8103605630293
 20
-215.6608172053943
 30
0.0
1001
AVE_RENDER
1002
{
1070
     0
1000
Full Opt
1070
     0
1070
     1
1070
     1
1070
     1
1070
     0
1070
     0
1070
     0
1070
     1
1070
     1
1040
0.0001
1040
0.0001
1002
}
  0
INSERT
  5
10EA2
330
2E3A
100
AcDbEntity
  8
ASHADE
 62
     4
100
AcDbBlockReference
  2
AVE_RENDER
 10
436.8103605630293
 20
-215.6608172053943
 30
0.0
1001
AVE_RENDER
1002
{
1070
     0
1000
Quick Opt
1070
     0
1070
     1
1070
     1
1070
     1
1070
     0
1070
     0
1070
     1
1002
}
  0
INSERT
  5
10EA3
330
2E3A
100
AcDbEntity
  8
ASHADE
 62
     5
100
AcDbBlockReference
  2
AVE_RENDER
 10
436.8103605630293
 20
-215.6608172053943
 30
0.0
1001
AVE_RENDER
1002
{
1070
     1
1000
Scanl Opt
1070
     2
1070
     0
1070
     2
1040
2.0
1040
4.0
1070
     0
1070
     1
1070
     0
1040
0.03
1002
}
  0
INSERT
  5
10EA4
330
2E3A
100
AcDbEntity
  8
ASHADE
 62
     6
100
AcDbBlockReference
  2
AVE_RENDER
 10
436.8103605630293
 20
-215.6608172053943
 30
0.0
1001
AVE_RENDER
1002
{
1070
     2
1000
Raytr Opt
1070
     2
1070
     0
1070
     2
1040
2.0
1040
4.0
1070
     0
1070
     1
1070
     1
1040
0.03
1070
     3
1040
0.03
1002
}
  0
INSERT
  5
10EA5
330
2E3A
100
AcDbEntity
  8
ASHADE
 62
     7
100
AcDbBlockReference
  2
AVE_RENDER
 10
436.8103605630293
 20
-215.6608172053943
 30
0.0
1001
AVE_RENDER
1002
{
1070
     0
1000
RFile Opt
1070
     5
1070
   640
1070
   480
1070
 10000
1070
     3
1070
    32
1070
    24
1070
     0
1070
     0
1070
     0
1070
     1
1070
     0
1070
     0
1070
     0
1002
}
  0
INSERT
  5
10EA6
330
2E3A
100
AcDbEntity
  8
ASHADE
 62
     8
100
AcDbBlockReference
  2
AVE_RENDER
 10
436.8103605630293
 20
-215.6608172053943
 30
0.0
1001
AVE_RENDER
1002
{
1070
     0
1000
Fog Opt
1070
     0
1070
     0
1040
0.0
1040
1.0
1040
0.0
1040
1.0
1010
0.5
1020
0.5
1030
0.5
1002
}
  0
INSERT
  5
10EA7
330
2E3A
100
AcDbEntity
  8
ASHADE
 62
     9
100
AcDbBlockReference
  2
AVE_RENDER
 10
436.8103605630293
 20
-215.6608172053943
 30
0.0
1001
AVE_RENDER
1002
{
1070
     0
1000
BG Opt
1070
     0
1070
     1
1010
0.0
1020
0.0
1030
0.0
1010
1.0
1020
0.0
1030
0.0
1010
0.0
1020
1.0
1030
0.0
1010
0.0
1020
0.0
1030
1.0
1040
0.5
1040
0.33
1040
0.0
1000

1070
     1
1000

1070
     1
1070
     1
1040
1.0
1040
1.0
1040
0.0
1040
0.0
1070
     0
1002
}
  0
INSERT
  5
10EA8
330
2E3A
100
AcDbEntity
  8
ASHADE
 62
     1
100
AcDbBlockReference
  2
AVE_GLOBAL
 10
436.8103605630293
 20
-215.6608172053943
 30
0.0
1001
AVE_MATERIAL
1002
{
1000
*GLOBAL*
1000
1
1000
Global finish.
1002
{
1002
}
1002
{
1070
    63
1002
{
1002
{
1010
-1.0
1020
-1.0
1030
-1.0
1002
}
1040
0.1000000014901161
1000

1040
0.0
1002
{
1002
}
1040
0.0
1002
{
1002
}
1040
0.0
1002
}
1002
{
1002
{
1010
-1.0
1020
-1.0
1030
-1.0
1002
}
1040
0.6999999880790711
1000

1040
0.0
1002
{
1002
}
1040
0.0
1002
{
1002
}
1040
0.0
1002
}
1002
{
1002
{
1010
-1.0
1020
-1.0
1030
-1.0
1002
}
1040
0.2000000029802322
1000

1040
0.0
1002
{
1002
}
1040
0.0
1002
{
1002
}
1040
0.0
1002
}
1002
{
1070
     0
1002
{
1070
     1
1002
{
1040
1.0
1040
1.0
1000

1040
0.0
1002
{
1002
}
1040
0.0
1002
{
1002
}
1040
0.0
1002
}
1002
}
1040
1.0
1040
0.0
1040
0.0
1002
}
1002
{
1040
1.0
1040
1.0
1000

1040
0.0
1002
{
1002
}
1040
0.0
1002
{
1002
}
1040
0.0
1002
}
1002
{
1040
0.5
1040
1.0
1000

1040
0.0
1002
{
1002
}
1040
0.0
1002
{
1002
}
1040
0.0
1002
}
1002
{
1070
     0
1040
0.0
1002
{
1002
}
1040
1.0
1002
{
1002
}
1040
0.0
1002
}
1002
{
1040
0.0
1002
{
1002
{
1010
0.0
1020
0.0
1030
0.0
1002
}
1040
1.0
1000

1040
0.0
1002
{
1002
}
1040
0.0
1002
{
1002
}
1040
0.0
1002
}
1002
}
1002
{
1002
{
1070
     1
1002
{
1040
0.0
1040
1.0
1000

1040
0.0
1002
{
1002
}
1040
0.0
1002
{
1002
}
1040
0.0
1002
}
1002
}
1040
0.0
1002
{
1002
}
1010
1.0
1020
0.0
1030
0.0
1010
0.0
1020
1.0
1030
0.0
1010
0.0
1020
0.0
1030
1.0
1070
     0
1002
}
1002
{
1002
{
1040
1.0
1040
1.0
1002
{
1070
     1
1002
{
1040
1.0
1040
1.0
1000

1040
0.0
1002
{
1002
}
1040
0.0
1002
{
1002
}
1040
0.0
1002
}
1002
}
1002
}
1070
     0
1040
0.0
1002
{
1002
}
1002
}
1002
{
1002
}
1002
}
1002
{
1071
        3
1070
     3
1070
     0
1002
{
1070
     2
1070
     0
1070
     0
1040
0.0
1002
}
1070
     0
1070
     2
1002
{
1002
}
1002
}
1002
{
1040
8030.0
1040
190.3000030517578
1040
0.3050000071525574
1040
228.0
1040
545.0
1040
14.0
1040
17.39999961853027
1040
0.4560000002384186
1002
}
1002
}
  0
TEXT
  5
10EA9
330
2E3A
100
AcDbEntity
  8
0
 62
     7
 48
5.0
100
AcDbText
 10
-1248.752895886679
 20
165.3686324960031
 30
0.0
 40
3.809829827610412
  1
 
 41
0.75
100
AcDbText
  0
INSERT
  5
10EAA
330
2E3A
100
AcDbEntity
  8
LAYER1
100
AcDbBlockReference
  2
AME_NIL
 10
-2402.748217515968
 20
517.4898289907482
 30
0.0
  0
INSERT
  5
10EAB
330
2E3A
100
AcDbEntity
  8
LAYER1
100
AcDbBlockReference
  2
AME_SOL
 10
-2402.748217515968
 20
517.4898289907482
 30
0.0
1001
AME_SOL
1000
R2.1
1000
AME2
1000
sq m
1070
     3
1070
     0
1070
     3
1000
mesh
1040
45.0
1000
U
1040
1.0
1000
m
1000
gm
1000
MILD_STEEL
1070
    25
1000
CSG
1070
     1
1070
     3
1070
     3
1070
     3
1070
     0
1000
cu cm
1070
     1
1070
     0
1005
10EAA
  0
TEXT
  5
10EAC
330
2E3A
100
AcDbEntity
  8
TEKST
100
AcDbText
 10
-2391.226117246745
 20
538.1317261489892
 30
0.0
 40
2.5
  1

  7
ROMANS
100
AcDbText
  0
INSERT
  5
10EAD
330
2E3A
100
AcDbEntity
  8
ASHADE
 62
     1
100
AcDbBlockReference
  2
AVE_RENDER
 10
-2402.748217515968
 20
517.4898289907482
 30
0.0
1001
AVE_RENDER
1002
{
1070
     6
1000
Pref
1070
    30
1070
    20
1070
     1
1070
     0
1000

1070
    10
1070
     1
1070
    30
1040
1.0
1070
     1
1040
0.3
1040
0.7
1040
0.0
1040
10.0
1010
-1.0
1020
-1.0
1030
-1.0
1040
0.3
1070
    49
1070
     0
1070
     0
1010
1.0
1020
1.0
1030
1.0
1040
45.0
1070
     1
1070
     0
1000
WCS
1040
0.0
1002
}
  0
INSERT
  5
10EAE
330
2E3A
100
AcDbEntity
  8
ASHADE
 62
     3
100
AcDbBlockReference
  2
AVE_RENDER
 10
-2402.748217515968
 20
517.4898289907482
 30
0.0
1001
AVE_RENDER
1002
{
1070
     0
1000
Full Opt
1070
     0
1070
     1
1070
     1
1070
     1
1070
     0
1070
     0
1070
     0
1070
     1
1070
     1
1040
0.0001
1040
0.0001
1002
}
  0
INSERT
  5
10EAF
330
2E3A
100
AcDbEntity
  8
ASHADE
 62
     4
100
AcDbBlockReference
  2
AVE_RENDER
 10
-2402.748217515968
 20
517.4898289907482
 30
0.0
1001
AVE_RENDER
1002
{
1070
     0
1000
Quick Opt
1070
     0
1070
     1
1070
     1
1070
     1
1070
     0
1070
     0
1070
     1
1002
}
  0
INSERT
  5
10EB0
330
2E3A
100
AcDbEntity
  8
ASHADE
 62
     5
100
AcDbBlockReference
  2
AVE_RENDER
 10
-2402.748217515968
 20
517.4898289907482
 30
0.0
1001
AVE_RENDER
1002
{
1070
     1
1000
Scanl Opt
1070
     2
1070
     0
1070
     2
1040
2.0
1040
4.0
1070
     0
1070
     1
1070
     0
1040
0.03
1002
}
  0
INSERT
  5
10EB1
330
2E3A
100
AcDbEntity
  8
ASHADE
 62
     6
100
AcDbBlockReference
  2
AVE_RENDER
 10
-2402.748217515968
 20
517.4898289907482
 30
0.0
1001
AVE_RENDER
1002
{
1070
     2
1000
Raytr Opt
1070
     2
1070
     0
1070
     2
1040
2.0
1040
4.0
1070
     0
1070
     1
1070
     1
1040
0.03
1070
     3
1040
0.03
1002
}
  0
INSERT
  5
10EB2
330
2E3A
100
AcDbEntity
  8
ASHADE
 62
     7
100
AcDbBlockReference
  2
AVE_RENDER
 10
-2402.748217515968
 20
517.4898289907482
 30
0.0
1001
AVE_RENDER
1002
{
1070
     0
1000
RFile Opt
1070
     5
1070
   640
1070
   480
1070
 10000
1070
     3
1070
    32
1070
    24
1070
     0
1070
     0
1070
     0
1070
     1
1070
     0
1070
     0
1070
     0
1002
}
  0
INSERT
  5
10EB3
330
2E3A
100
AcDbEntity
  8
ASHADE
 62
     8
100
AcDbBlockReference
  2
AVE_RENDER
 10
-2402.748217515968
 20
517.4898289907482
 30
0.0
1001
AVE_RENDER
1002
{
1070
     0
1000
Fog Opt
1070
     0
1070
     0
1040
0.0
1040
1.0
1040
0.0
1040
1.0
1010
0.5
1020
0.5
1030
0.5
1002
}
  0
INSERT
  5
10EB4
330
2E3A
100
AcDbEntity
  8
ASHADE
 62
     9
100
AcDbBlockReference
  2
AVE_RENDER
 10
-2402.748217515968
 20
517.4898289907482
 30
0.0
1001
AVE_RENDER
1002
{
1070
     0
1000
BG Opt
1070
     0
1070
     1
1010
0.0
1020
0.0
1030
0.0
1010
1.0
1020
0.0
1030
0.0
1010
0.0
1020
1.0
1030
0.0
1010
0.0
1020
0.0
1030
1.0
1040
0.5
1040
0.33
1040
0.0
1000

1070
     1
1000

1070
     1
1070
     1
1040
1.0
1040
1.0
1040
0.0
1040
0.0
1070
     0
1002
}
  0
INSERT
  5
10EB5
330
2E3A
100
AcDbEntity
  8
ASHADE
 62
     1
100
AcDbBlockReference
  2
AVE_GLOBAL
 10
-2402.748217515968
 20
517.4898289907482
 30
0.0
1001
AVE_MATERIAL
1002
{
1000
*GLOBAL*
1000
1
1000
Global finish.
1002
{
1002
}
1002
{
1070
    63
1002
{
1002
{
1010
-1.0
1020
-1.0
1030
-1.0
1002
}
1040
0.1000000014901161
1000

1040
0.0
1002
{
1002
}
1040
0.0
1002
{
1002
}
1040
0.0
1002
}
1002
{
1002
{
1010
-1.0
1020
-1.0
1030
-1.0
1002
}
1040
0.6999999880790711
1000

1040
0.0
1002
{
1002
}
1040
0.0
1002
{
1002
}
1040
0.0
1002
}
1002
{
1002
{
1010
-1.0
1020
-1.0
1030
-1.0
1002
}
1040
0.2000000029802322
1000

1040
0.0
1002
{
1002
}
1040
0.0
1002
{
1002
}
1040
0.0
1002
}
1002
{
1070
     0
1002
{
1070
     1
1002
{
1040
1.0
1040
1.0
1000

1040
0.0
1002
{
1002
}
1040
0.0
1002
{
1002
}
1040
0.0
1002
}
1002
}
1040
1.0
1040
0.0
1040
0.0
1002
}
1002
{
1040
1.0
1040
1.0
1000

1040
0.0
1002
{
1002
}
1040
0.0
1002
{
1002
}
1040
0.0
1002
}
1002
{
1040
0.5
1040
1.0
1000

1040
0.0
1002
{
1002
}
1040
0.0
1002
{
1002
}
1040
0.0
1002
}
1002
{
1070
     0
1040
0.0
1002
{
1002
}
1040
1.0
1002
{
1002
}
1040
0.0
1002
}
1002
{
1040
0.0
1002
{
1002
{
1010
0.0
1020
0.0
1030
0.0
1002
}
1040
1.0
1000

1040
0.0
1002
{
1002
}
1040
0.0
1002
{
1002
}
1040
0.0
1002
}
1002
}
1002
{
1002
{
1070
     1
1002
{
1040
0.0
1040
1.0
1000

1040
0.0
1002
{
1002
}
1040
0.0
1002
{
1002
}
1040
0.0
1002
}
1002
}
1040
0.0
1002
{
1002
}
1010
1.0
1020
0.0
1030
0.0
1010
0.0
1020
1.0
1030
0.0
1010
0.0
1020
0.0
1030
1.0
1070
     0
1002
}
1002
{
1002
{
1040
1.0
1040
1.0
1002
{
1070
     1
1002
{
1040
1.0
1040
1.0
1000

1040
0.0
1002
{
1002
}
1040
0.0
1002
{
1002
}
1040
0.0
1002
}
1002
}
1002
}
1070
     0
1040
0.0
1002
{
1002
}
1002
}
1002
{
1002
}
1002
}
1002
{
1071
        3
1070
     3
1070
     0
1002
{
1070
     2
1070
     0
1070
     0
1040
0.0
1002
}
1070
     0
1070
     2
1002
{
1002
}
1002
}
1002
{
1040
8030.0
1040
190.3000030517578
1040
0.3050000071525574
1040
228.0
1040
545.0
1040
14.0
1040
17.39999961853027
1040
0.4560000002384186
1002
}
1002
}
  0
INSERT
  5
10EB6
330
2E3A
100
AcDbEntity
  8
LAYER1
100
AcDbBlockReference
  2
AME_NIL
 10
-484.0180840161846
 20
686.0103158393807
 30
0.0
  0
INSERT
  5
10EB7
330
2E3A
100
AcDbEntity
  8
LAYER1
100
AcDbBlockReference
  2
AME_SOL
 10
-484.0180840161846
 20
686.0103158393807
 30
0.0
1001
AME_SOL
1000
R2.1
1000
AME2
1000
sq m
1070
     3
1070
     0
1070
     3
1000
mesh
1040
45.0
1000
U
1040
1.0
1000
m
1000
gm
1000
MILD_STEEL
1070
    25
1000
CSG
1070
     1
1070
     3
1070
     3
1070
     3
1070
     0
1000
cu cm
1070
     1
1070
     0
1005
10EB6
  0
TEXT
  5
10EB8
330
2E3A
100
AcDbEntity
  8
TEKST
100
AcDbText
 10
-472.4959837469618
 20
706.6522129976217
 30
0.0
 40
2.5
  1

  7
ROMANS
100
AcDbText
  0
INSERT
  5
10EB9
330
2E3A
100
AcDbEntity
  8
ASHADE
 62
     1
100
AcDbBlockReference
  2
AVE_RENDER
 10
-484.0180840161846
 20
686.0103158393807
 30
0.0
1001
AVE_RENDER
1002
{
1070
     6
1000
Pref
1070
    30
1070
    20
1070
     1
1070
     0
1000

1070
    10
1070
     1
1070
    30
1040
1.0
1070
     1
1040
0.3
1040
0.7
1040
0.0
1040
10.0
1010
-1.0
1020
-1.0
1030
-1.0
1040
0.3
1070
    49
1070
     0
1070
     0
1010
1.0
1020
1.0
1030
1.0
1040
45.0
1070
     1
1070
     0
1000
WCS
1040
0.0
1002
}
  0
INSERT
  5
10EBA
330
2E3A
100
AcDbEntity
  8
ASHADE
 62
     3
100
AcDbBlockReference
  2
AVE_RENDER
 10
-484.0180840161846
 20
686.0103158393807
 30
0.0
1001
AVE_RENDER
1002
{
1070
     0
1000
Full Opt
1070
     0
1070
     1
1070
     1
1070
     1
1070
     0
1070
     0
1070
     0
1070
     1
1070
     1
1040
0.0001
1040
0.0001
1002
}
  0
INSERT
  5
10EBB
330
2E3A
100
AcDbEntity
  8
ASHADE
 62
     4
100
AcDbBlockReference
  2
AVE_RENDER
 10
-484.0180840161846
 20
686.0103158393807
 30
0.0
1001
AVE_RENDER
1002
{
1070
     0
1000
Quick Opt
1070
     0
1070
     1
1070
     1
1070
     1
1070
     0
1070
     0
1070
     1
1002
}
  0
INSERT
  5
10EBC
330
2E3A
100
AcDbEntity
  8
ASHADE
 62
     5
100
AcDbBlockReference
  2
AVE_RENDER
 10
-484.0180840161846
 20
686.0103158393807
 30
0.0
1001
AVE_RENDER
1002
{
1070
     1
1000
Scanl Opt
1070
     2
1070
     0
1070
     2
1040
2.0
1040
4.0
1070
     0
1070
     1
1070
     0
1040
0.03
1002
}
  0
INSERT
  5
10EBD
330
2E3A
100
AcDbEntity
  8
ASHADE
 62
     6
100
AcDbBlockReference
  2
AVE_RENDER
 10
-484.0180840161846
 20
686.0103158393807
 30
0.0
1001
AVE_RENDER
1002
{
1070
     2
1000
Raytr Opt
1070
     2
1070
     0
1070
     2
1040
2.0
1040
4.0
1070
     0
1070
     1
1070
     1
1040
0.03
1070
     3
1040
0.03
1002
}
  0
INSERT
  5
10EBE
330
2E3A
100
AcDbEntity
  8
ASHADE
 62
     7
100
AcDbBlockReference
  2
AVE_RENDER
 10
-484.0180840161846
 20
686.0103158393807
 30
0.0
1001
AVE_RENDER
1002
{
1070
     0
1000
RFile Opt
1070
     5
1070
   640
1070
   480
1070
 10000
1070
     3
1070
    32
1070
    24
1070
     0
1070
     0
1070
     0
1070
     1
1070
     0
1070
     0
1070
     0
1002
}
  0
INSERT
  5
10EBF
330
2E3A
100
AcDbEntity
  8
ASHADE
 62
     8
100
AcDbBlockReference
  2
AVE_RENDER
 10
-484.0180840161846
 20
686.0103158393807
 30
0.0
1001
AVE_RENDER
1002
{
1070
     0
1000
Fog Opt
1070
     0
1070
     0
1040
0.0
1040
1.0
1040
0.0
1040
1.0
1010
0.5
1020
0.5
1030
0.5
1002
}
  0
INSERT
  5
10EC0
330
2E3A
100
AcDbEntity
  8
ASHADE
 62
     9
100
AcDbBlockReference
  2
AVE_RENDER
 10
-484.0180840161846
 20
686.0103158393807
 30
0.0
1001
AVE_RENDER
1002
{
1070
     0
1000
BG Opt
1070
     0
1070
     1
1010
0.0
1020
0.0
1030
0.0
1010
1.0
1020
0.0
1030
0.0
1010
0.0
1020
1.0
1030
0.0
1010
0.0
1020
0.0
1030
1.0
1040
0.5
1040
0.33
1040
0.0
1000

1070
     1
1000

1070
     1
1070
     1
1040
1.0
1040
1.0
1040
0.0
1040
0.0
1070
     0
1002
}
  0
INSERT
  5
10EC1
330
2E3A
100
AcDbEntity
  8
ASHADE
 62
     1
100
AcDbBlockReference
  2
AVE_GLOBAL
 10
-484.0180840161846
 20
686.0103158393807
 30
0.0
1001
AVE_MATERIAL
1002
{
1000
*GLOBAL*
1000
1
1000
Global finish.
1002
{
1002
}
1002
{
1070
    63
1002
{
1002
{
1010
-1.0
1020
-1.0
1030
-1.0
1002
}
1040
0.1000000014901161
1000

1040
0.0
1002
{
1002
}
1040
0.0
1002
{
1002
}
1040
0.0
1002
}
1002
{
1002
{
1010
-1.0
1020
-1.0
1030
-1.0
1002
}
1040
0.6999999880790711
1000

1040
0.0
1002
{
1002
}
1040
0.0
1002
{
1002
}
1040
0.0
1002
}
1002
{
1002
{
1010
-1.0
1020
-1.0
1030
-1.0
1002
}
1040
0.2000000029802322
1000

1040
0.0
1002
{
1002
}
1040
0.0
1002
{
1002
}
1040
0.0
1002
}
1002
{
1070
     0
1002
{
1070
     1
1002
{
1040
1.0
1040
1.0
1000

1040
0.0
1002
{
1002
}
1040
0.0
1002
{
1002
}
1040
0.0
1002
}
1002
}
1040
1.0
1040
0.0
1040
0.0
1002
}
1002
{
1040
1.0
1040
1.0
1000

1040
0.0
1002
{
1002
}
1040
0.0
1002
{
1002
}
1040
0.0
1002
}
1002
{
1040
0.5
1040
1.0
1000

1040
0.0
1002
{
1002
}
1040
0.0
1002
{
1002
}
1040
0.0
1002
}
1002
{
1070
     0
1040
0.0
1002
{
1002
}
1040
1.0
1002
{
1002
}
1040
0.0
1002
}
1002
{
1040
0.0
1002
{
1002
{
1010
0.0
1020
0.0
1030
0.0
1002
}
1040
1.0
1000

1040
0.0
1002
{
1002
}
1040
0.0
1002
{
1002
}
1040
0.0
1002
}
1002
}
1002
{
1002
{
1070
     1
1002
{
1040
0.0
1040
1.0
1000

1040
0.0
1002
{
1002
}
1040
0.0
1002
{
1002
}
1040
0.0
1002
}
1002
}
1040
0.0
1002
{
1002
}
1010
1.0
1020
0.0
1030
0.0
1010
0.0
1020
1.0
1030
0.0
1010
0.0
1020
0.0
1030
1.0
1070
     0
1002
}
1002
{
1002
{
1040
1.0
1040
1.0
1002
{
1070
     1
1002
{
1040
1.0
1040
1.0
1000

1040
0.0
1002
{
1002
}
1040
0.0
1002
{
1002
}
1040
0.0
1002
}
1002
}
1002
}
1070
     0
1040
0.0
1002
{
1002
}
1002
}
1002
{
1002
}
1002
}
1002
{
1071
        3
1070
     3
1070
     0
1002
{
1070
     2
1070
     0
1070
     0
1040
0.0
1002
}
1070
     0
1070
     2
1002
{
1002
}
1002
}
1002
{
1040
8030.0
1040
190.3000030517578
1040
0.3050000071525574
1040
228.0
1040
545.0
1040
14.0
1040
17.39999961853027
1040
0.4560000002384186
1002
}
1002
}
  0
TEXT
  5
10EC2
330
2E3A
100
AcDbEntity
  8
0
 62
     7
 48
5.0
100
AcDbText
 10
-2169.581340465893
 20
1067.039765540778
 30
0.0
 40
3.809829827610412
  1
 
 41
0.75
100
AcDbText
  0
INSERT
  5
13A16
330
2E3A
100
AcDbEntity
  8
LAYER1
100
AcDbBlockReference
  2
AME_NIL
 10
1127.527252663858
 20
-264.6230569512117
 30
0.0
  0
INSERT
  5
13A17
330
2E3A
100
AcDbEntity
  8
LAYER1
100
AcDbBlockReference
  2
AME_SOL
 10
1127.527252663858
 20
-264.6230569512117
 30
0.0
1001
AME_SOL
1000
R2.1
1000
AME2
1000
sq m
1070
     3
1070
     0
1070
     3
1000
mesh
1040
45.0
1000
U
1040
1.0
1000
m
1000
gm
1000
MILD_STEEL
1070
    25
1000
CSG
1070
     1
1070
     3
1070
     3
1070
     3
1070
     0
1000
cu cm
1070
     1
1070
     0
1005
13A16
  0
TEXT
  5
13A18
330
2E3A
100
AcDbEntity
  8
TEKST
100
AcDbText
 10
1139.049352933081
 20
-243.9811597929708
 30
0.0
 40
2.5
  1

  7
ROMANS
100
AcDbText
  0
INSERT
  5
13A19
330
2E3A
100
AcDbEntity
  8
ASHADE
 62
     1
100
AcDbBlockReference
  2
AVE_RENDER
 10
1127.527252663858
 20
-264.6230569512117
 30
0.0
1001
AVE_RENDER
1002
{
1070
     6
1000
Pref
1070
    30
1070
    20
1070
     1
1070
     0
1000

1070
    10
1070
     1
1070
    30
1040
1.0
1070
     1
1040
0.3
1040
0.7
1040
0.0
1040
10.0
1010
-1.0
1020
-1.0
1030
-1.0
1040
0.3
1070
    49
1070
     0
1070
     0
1010
1.0
1020
1.0
1030
1.0
1040
45.0
1070
     1
1070
     0
1000
WCS
1040
0.0
1002
}
  0
INSERT
  5
13A1A
330
2E3A
100
AcDbEntity
  8
ASHADE
 62
     3
100
AcDbBlockReference
  2
AVE_RENDER
 10
1127.527252663858
 20
-264.6230569512117
 30
0.0
1001
AVE_RENDER
1002
{
1070
     0
1000
Full Opt
1070
     0
1070
     1
1070
     1
1070
     1
1070
     0
1070
     0
1070
     0
1070
     1
1070
     1
1040
0.0001
1040
0.0001
1002
}
  0
INSERT
  5
13A1B
330
2E3A
100
AcDbEntity
  8
ASHADE
 62
     4
100
AcDbBlockReference
  2
AVE_RENDER
 10
1127.527252663858
 20
-264.6230569512117
 30
0.0
1001
AVE_RENDER
1002
{
1070
     0
1000
Quick Opt
1070
     0
1070
     1
1070
     1
1070
     1
1070
     0
1070
     0
1070
     1
1002
}
  0
INSERT
  5
13A1C
330
2E3A
100
AcDbEntity
  8
ASHADE
 62
     5
100
AcDbBlockReference
  2
AVE_RENDER
 10
1127.527252663858
 20
-264.6230569512117
 30
0.0
1001
AVE_RENDER
1002
{
1070
     1
1000
Scanl Opt
1070
     2
1070
     0
1070
     2
1040
2.0
1040
4.0
1070
     0
1070
     1
1070
     0
1040
0.03
1002
}
  0
INSERT
  5
13A1D
330
2E3A
100
AcDbEntity
  8
ASHADE
 62
     6
100
AcDbBlockReference
  2
AVE_RENDER
 10
1127.527252663858
 20
-264.6230569512117
 30
0.0
1001
AVE_RENDER
1002
{
1070
     2
1000
Raytr Opt
1070
     2
1070
     0
1070
     2
1040
2.0
1040
4.0
1070
     0
1070
     1
1070
     1
1040
0.03
1070
     3
1040
0.03
1002
}
  0
INSERT
  5
13A1E
330
2E3A
100
AcDbEntity
  8
ASHADE
 62
     7
100
AcDbBlockReference
  2
AVE_RENDER
 10
1127.527252663858
 20
-264.6230569512117
 30
0.0
1001
AVE_RENDER
1002
{
1070
     0
1000
RFile Opt
1070
     5
1070
   640
1070
   480
1070
 10000
1070
     3
1070
    32
1070
    24
1070
     0
1070
     0
1070
     0
1070
     1
1070
     0
1070
     0
1070
     0
1002
}
  0
INSERT
  5
13A1F
330
2E3A
100
AcDbEntity
  8
ASHADE
 62
     8
100
AcDbBlockReference
  2
AVE_RENDER
 10
1127.527252663858
 20
-264.6230569512117
 30
0.0
1001
AVE_RENDER
1002
{
1070
     0
1000
Fog Opt
1070
     0
1070
     0
1040
0.0
1040
1.0
1040
0.0
1040
1.0
1010
0.5
1020
0.5
1030
0.5
1002
}
  0
INSERT
  5
13A20
330
2E3A
100
AcDbEntity
  8
ASHADE
 62
     9
100
AcDbBlockReference
  2
AVE_RENDER
 10
1127.527252663858
 20
-264.6230569512117
 30
0.0
1001
AVE_RENDER
1002
{
1070
     0
1000
BG Opt
1070
     0
1070
     1
1010
0.0
1020
0.0
1030
0.0
1010
1.0
1020
0.0
1030
0.0
1010
0.0
1020
1.0
1030
0.0
1010
0.0
1020
0.0
1030
1.0
1040
0.5
1040
0.33
1040
0.0
1000

1070
     1
1000

1070
     1
1070
     1
1040
1.0
1040
1.0
1040
0.0
1040
0.0
1070
     0
1002
}
  0
INSERT
  5
13A21
330
2E3A
100
AcDbEntity
  8
ASHADE
 62
     1
100
AcDbBlockReference
  2
AVE_GLOBAL
 10
1127.527252663858
 20
-264.6230569512117
 30
0.0
1001
AVE_MATERIAL
1002
{
1000
*GLOBAL*
1000
1
1000
Global finish.
1002
{
1002
}
1002
{
1070
    63
1002
{
1002
{
1010
-1.0
1020
-1.0
1030
-1.0
1002
}
1040
0.1000000014901161
1000

1040
0.0
1002
{
1002
}
1040
0.0
1002
{
1002
}
1040
0.0
1002
}
1002
{
1002
{
1010
-1.0
1020
-1.0
1030
-1.0
1002
}
1040
0.6999999880790711
1000

1040
0.0
1002
{
1002
}
1040
0.0
1002
{
1002
}
1040
0.0
1002
}
1002
{
1002
{
1010
-1.0
1020
-1.0
1030
-1.0
1002
}
1040
0.2000000029802322
1000

1040
0.0
1002
{
1002
}
1040
0.0
1002
{
1002
}
1040
0.0
1002
}
1002
{
1070
     0
1002
{
1070
     1
1002
{
1040
1.0
1040
1.0
1000

1040
0.0
1002
{
1002
}
1040
0.0
1002
{
1002
}
1040
0.0
1002
}
1002
}
1040
1.0
1040
0.0
1040
0.0
1002
}
1002
{
1040
1.0
1040
1.0
1000

1040
0.0
1002
{
1002
}
1040
0.0
1002
{
1002
}
1040
0.0
1002
}
1002
{
1040
0.5
1040
1.0
1000

1040
0.0
1002
{
1002
}
1040
0.0
1002
{
1002
}
1040
0.0
1002
}
1002
{
1070
     0
1040
0.0
1002
{
1002
}
1040
1.0
1002
{
1002
}
1040
0.0
1002
}
1002
{
1040
0.0
1002
{
1002
{
1010
0.0
1020
0.0
1030
0.0
1002
}
1040
1.0
1000

1040
0.0
1002
{
1002
}
1040
0.0
1002
{
1002
}
1040
0.0
1002
}
1002
}
1002
{
1002
{
1070
     1
1002
{
1040
0.0
1040
1.0
1000

1040
0.0
1002
{
1002
}
1040
0.0
1002
{
1002
}
1040
0.0
1002
}
1002
}
1040
0.0
1002
{
1002
}
1010
1.0
1020
0.0
1030
0.0
1010
0.0
1020
1.0
1030
0.0
1010
0.0
1020
0.0
1030
1.0
1070
     0
1002
}
1002
{
1002
{
1040
1.0
1040
1.0
1002
{
1070
     1
1002
{
1040
1.0
1040
1.0
1000

1040
0.0
1002
{
1002
}
1040
0.0
1002
{
1002
}
1040
0.0
1002
}
1002
}
1002
}
1070
     0
1040
0.0
1002
{
1002
}
1002
}
1002
{
1002
}
1002
}
1002
{
1071
        3
1070
     3
1070
     0
1002
{
1070
     2
1070
     0
1070
     0
1040
0.0
1002
}
1070
     0
1070
     2
1002
{
1002
}
1002
}
1002
{
1040
8030.0
1040
190.3000030517578
1040
0.3050000071525574
1040
228.0
1040
545.0
1040
14.0
1040
17.39999961853027
1040
0.4560000002384186
1002
}
1002
}
  0
TEXT
  5
13A22
330
2E3A
100
AcDbEntity
  8
0
 62
     7
 48
5.0
100
AcDbText
 10
-558.0360037858501
 20
116.4063927501858
 30
0.0
 40
3.809829827610412
  1
 
 41
0.75
100
AcDbText
  0
INSERT
  5
13A23
330
2E3A
100
AcDbEntity
  8
LAYER1
100
AcDbBlockReference
  2
AME_NIL
 10
-1712.031325415138
 20
468.5275892449308
 30
0.0
  0
INSERT
  5
13A24
330
2E3A
100
AcDbEntity
  8
LAYER1
100
AcDbBlockReference
  2
AME_SOL
 10
-1712.031325415138
 20
468.5275892449308
 30
0.0
1001
AME_SOL
1000
R2.1
1000
AME2
1000
sq m
1070
     3
1070
     0
1070
     3
1000
mesh
1040
45.0
1000
U
1040
1.0
1000
m
1000
gm
1000
MILD_STEEL
1070
    25
1000
CSG
1070
     1
1070
     3
1070
     3
1070
     3
1070
     0
1000
cu cm
1070
     1
1070
     0
1005
13A23
  0
TEXT
  5
13A25
330
2E3A
100
AcDbEntity
  8
TEKST
100
AcDbText
 10
-1700.509225145916
 20
489.1694864031718
 30
0.0
 40
2.5
  1

  7
ROMANS
100
AcDbText
  0
INSERT
  5
13A26
330
2E3A
100
AcDbEntity
  8
ASHADE
 62
     1
100
AcDbBlockReference
  2
AVE_RENDER
 10
-1712.031325415138
 20
468.5275892449308
 30
0.0
1001
AVE_RENDER
1002
{
1070
     6
1000
Pref
1070
    30
1070
    20
1070
     1
1070
     0
1000

1070
    10
1070
     1
1070
    30
1040
1.0
1070
     1
1040
0.3
1040
0.7
1040
0.0
1040
10.0
1010
-1.0
1020
-1.0
1030
-1.0
1040
0.3
1070
    49
1070
     0
1070
     0
1010
1.0
1020
1.0
1030
1.0
1040
45.0
1070
     1
1070
     0
1000
WCS
1040
0.0
1002
}
  0
INSERT
  5
13A27
330
2E3A
100
AcDbEntity
  8
ASHADE
 62
     3
100
AcDbBlockReference
  2
AVE_RENDER
 10
-1712.031325415138
 20
468.5275892449308
 30
0.0
1001
AVE_RENDER
1002
{
1070
     0
1000
Full Opt
1070
     0
1070
     1
1070
     1
1070
     1
1070
     0
1070
     0
1070
     0
1070
     1
1070
     1
1040
0.0001
1040
0.0001
1002
}
  0
INSERT
  5
13A28
330
2E3A
100
AcDbEntity
  8
ASHADE
 62
     4
100
AcDbBlockReference
  2
AVE_RENDER
 10
-1712.031325415138
 20
468.5275892449308
 30
0.0
1001
AVE_RENDER
1002
{
1070
     0
1000
Quick Opt
1070
     0
1070
     1
1070
     1
1070
     1
1070
     0
1070
     0
1070
     1
1002
}
  0
INSERT
  5
13A29
330
2E3A
100
AcDbEntity
  8
ASHADE
 62
     5
100
AcDbBlockReference
  2
AVE_RENDER
 10
-1712.031325415138
 20
468.5275892449308
 30
0.0
1001
AVE_RENDER
1002
{
1070
     1
1000
Scanl Opt
1070
     2
1070
     0
1070
     2
1040
2.0
1040
4.0
1070
     0
1070
     1
1070
     0
1040
0.03
1002
}
  0
INSERT
  5
13A2A
330
2E3A
100
AcDbEntity
  8
ASHADE
 62
     6
100
AcDbBlockReference
  2
AVE_RENDER
 10
-1712.031325415138
 20
468.5275892449308
 30
0.0
1001
AVE_RENDER
1002
{
1070
     2
1000
Raytr Opt
1070
     2
1070
     0
1070
     2
1040
2.0
1040
4.0
1070
     0
1070
     1
1070
     1
1040
0.03
1070
     3
1040
0.03
1002
}
  0
INSERT
  5
13A2B
330
2E3A
100
AcDbEntity
  8
ASHADE
 62
     7
100
AcDbBlockReference
  2
AVE_RENDER
 10
-1712.031325415138
 20
468.5275892449308
 30
0.0
1001
AVE_RENDER
1002
{
1070
     0
1000
RFile Opt
1070
     5
1070
   640
1070
   480
1070
 10000
1070
     3
1070
    32
1070
    24
1070
     0
1070
     0
1070
     0
1070
     1
1070
     0
1070
     0
1070
     0
1002
}
  0
INSERT
  5
13A2C
330
2E3A
100
AcDbEntity
  8
ASHADE
 62
     8
100
AcDbBlockReference
  2
AVE_RENDER
 10
-1712.031325415138
 20
468.5275892449308
 30
0.0
1001
AVE_RENDER
1002
{
1070
     0
1000
Fog Opt
1070
     0
1070
     0
1040
0.0
1040
1.0
1040
0.0
1040
1.0
1010
0.5
1020
0.5
1030
0.5
1002
}
  0
INSERT
  5
13A2D
330
2E3A
100
AcDbEntity
  8
ASHADE
 62
     9
100
AcDbBlockReference
  2
AVE_RENDER
 10
-1712.031325415138
 20
468.5275892449308
 30
0.0
1001
AVE_RENDER
1002
{
1070
     0
1000
BG Opt
1070
     0
1070
     1
1010
0.0
1020
0.0
1030
0.0
1010
1.0
1020
0.0
1030
0.0
1010
0.0
1020
1.0
1030
0.0
1010
0.0
1020
0.0
1030
1.0
1040
0.5
1040
0.33
1040
0.0
1000

1070
     1
1000

1070
     1
1070
     1
1040
1.0
1040
1.0
1040
0.0
1040
0.0
1070
     0
1002
}
  0
INSERT
  5
13A2E
330
2E3A
100
AcDbEntity
  8
ASHADE
 62
     1
100
AcDbBlockReference
  2
AVE_GLOBAL
 10
-1712.031325415138
 20
468.5275892449308
 30
0.0
1001
AVE_MATERIAL
1002
{
1000
*GLOBAL*
1000
1
1000
Global finish.
1002
{
1002
}
1002
{
1070
    63
1002
{
1002
{
1010
-1.0
1020
-1.0
1030
-1.0
1002
}
1040
0.1000000014901161
1000

1040
0.0
1002
{
1002
}
1040
0.0
1002
{
1002
}
1040
0.0
1002
}
1002
{
1002
{
1010
-1.0
1020
-1.0
1030
-1.0
1002
}
1040
0.6999999880790711
1000

1040
0.0
1002
{
1002
}
1040
0.0
1002
{
1002
}
1040
0.0
1002
}
1002
{
1002
{
1010
-1.0
1020
-1.0
1030
-1.0
1002
}
1040
0.2000000029802322
1000

1040
0.0
1002
{
1002
}
1040
0.0
1002
{
1002
}
1040
0.0
1002
}
1002
{
1070
     0
1002
{
1070
     1
1002
{
1040
1.0
1040
1.0
1000

1040
0.0
1002
{
1002
}
1040
0.0
1002
{
1002
}
1040
0.0
1002
}
1002
}
1040
1.0
1040
0.0
1040
0.0
1002
}
1002
{
1040
1.0
1040
1.0
1000

1040
0.0
1002
{
1002
}
1040
0.0
1002
{
1002
}
1040
0.0
1002
}
1002
{
1040
0.5
1040
1.0
1000

1040
0.0
1002
{
1002
}
1040
0.0
1002
{
1002
}
1040
0.0
1002
}
1002
{
1070
     0
1040
0.0
1002
{
1002
}
1040
1.0
1002
{
1002
}
1040
0.0
1002
}
1002
{
1040
0.0
1002
{
1002
{
1010
0.0
1020
0.0
1030
0.0
1002
}
1040
1.0
1000

1040
0.0
1002
{
1002
}
1040
0.0
1002
{
1002
}
1040
0.0
1002
}
1002
}
1002
{
1002
{
1070
     1
1002
{
1040
0.0
1040
1.0
1000

1040
0.0
1002
{
1002
}
1040
0.0
1002
{
1002
}
1040
0.0
1002
}
1002
}
1040
0.0
1002
{
1002
}
1010
1.0
1020
0.0
1030
0.0
1010
0.0
1020
1.0
1030
0.0
1010
0.0
1020
0.0
1030
1.0
1070
     0
1002
}
1002
{
1002
{
1040
1.0
1040
1.0
1002
{
1070
     1
1002
{
1040
1.0
1040
1.0
1000

1040
0.0
1002
{
1002
}
1040
0.0
1002
{
1002
}
1040
0.0
1002
}
1002
}
1002
}
1070
     0
1040
0.0
1002
{
1002
}
1002
}
1002
{
1002
}
1002
}
1002
{
1071
        3
1070
     3
1070
     0
1002
{
1070
     2
1070
     0
1070
     0
1040
0.0
1002
}
1070
     0
1070
     2
1002
{
1002
}
1002
}
1002
{
1040
8030.0
1040
190.3000030517578
1040
0.3050000071525574
1040
228.0
1040
545.0
1040
14.0
1040
17.39999961853027
1040
0.4560000002384186
1002
}
1002
}
  0
INSERT
  5
13A2F
330
2E3A
100
AcDbEntity
  8
LAYER1
100
AcDbBlockReference
  2
AME_NIL
 10
206.698808084644
 20
637.0480760935634
 30
0.0
  0
INSERT
  5
13A30
330
2E3A
100
AcDbEntity
  8
LAYER1
100
AcDbBlockReference
  2
AME_SOL
 10
206.698808084644
 20
637.0480760935634
 30
0.0
1001
AME_SOL
1000
R2.1
1000
AME2
1000
sq m
1070
     3
1070
     0
1070
     3
1000
mesh
1040
45.0
1000
U
1040
1.0
1000
m
1000
gm
1000
MILD_STEEL
1070
    25
1000
CSG
1070
     1
1070
     3
1070
     3
1070
     3
1070
     0
1000
cu cm
1070
     1
1070
     0
1005
13A2F
  0
TEXT
  5
13A31
330
2E3A
100
AcDbEntity
  8
TEKST
100
AcDbText
 10
218.220908353867
 20
657.6899732518043
 30
0.0
 40
2.5
  1

  7
ROMANS
100
AcDbText
  0
INSERT
  5
13A32
330
2E3A
100
AcDbEntity
  8
ASHADE
 62
     1
100
AcDbBlockReference
  2
AVE_RENDER
 10
206.698808084644
 20
637.0480760935634
 30
0.0
1001
AVE_RENDER
1002
{
1070
     6
1000
Pref
1070
    30
1070
    20
1070
     1
1070
     0
1000

1070
    10
1070
     1
1070
    30
1040
1.0
1070
     1
1040
0.3
1040
0.7
1040
0.0
1040
10.0
1010
-1.0
1020
-1.0
1030
-1.0
1040
0.3
1070
    49
1070
     0
1070
     0
1010
1.0
1020
1.0
1030
1.0
1040
45.0
1070
     1
1070
     0
1000
WCS
1040
0.0
1002
}
  0
INSERT
  5
13A33
330
2E3A
100
AcDbEntity
  8
ASHADE
 62
     3
100
AcDbBlockReference
  2
AVE_RENDER
 10
206.698808084644
 20
637.0480760935634
 30
0.0
1001
AVE_RENDER
1002
{
1070
     0
1000
Full Opt
1070
     0
1070
     1
1070
     1
1070
     1
1070
     0
1070
     0
1070
     0
1070
     1
1070
     1
1040
0.0001
1040
0.0001
1002
}
  0
INSERT
  5
13A34
330
2E3A
100
AcDbEntity
  8
ASHADE
 62
     4
100
AcDbBlockReference
  2
AVE_RENDER
 10
206.698808084644
 20
637.0480760935634
 30
0.0
1001
AVE_RENDER
1002
{
1070
     0
1000
Quick Opt
1070
     0
1070
     1
1070
     1
1070
     1
1070
     0
1070
     0
1070
     1
1002
}
  0
INSERT
  5
13A35
330
2E3A
100
AcDbEntity
  8
ASHADE
 62
     5
100
AcDbBlockReference
  2
AVE_RENDER
 10
206.698808084644
 20
637.0480760935634
 30
0.0
1001
AVE_RENDER
1002
{
1070
     1
1000
Scanl Opt
1070
     2
1070
     0
1070
     2
1040
2.0
1040
4.0
1070
     0
1070
     1
1070
     0
1040
0.03
1002
}
  0
INSERT
  5
13A36
330
2E3A
100
AcDbEntity
  8
ASHADE
 62
     6
100
AcDbBlockReference
  2
AVE_RENDER
 10
206.698808084644
 20
637.0480760935634
 30
0.0
1001
AVE_RENDER
1002
{
1070
     2
1000
Raytr Opt
1070
     2
1070
     0
1070
     2
1040
2.0
1040
4.0
1070
     0
1070
     1
1070
     1
1040
0.03
1070
     3
1040
0.03
1002
}
  0
INSERT
  5
13A37
330
2E3A
100
AcDbEntity
  8
ASHADE
 62
     7
100
AcDbBlockReference
  2
AVE_RENDER
 10
206.698808084644
 20
637.0480760935634
 30
0.0
1001
AVE_RENDER
1002
{
1070
     0
1000
RFile Opt
1070
     5
1070
   640
1070
   480
1070
 10000
1070
     3
1070
    32
1070
    24
1070
     0
1070
     0
1070
     0
1070
     1
1070
     0
1070
     0
1070
     0
1002
}
  0
INSERT
  5
13A38
330
2E3A
100
AcDbEntity
  8
ASHADE
 62
     8
100
AcDbBlockReference
  2
AVE_RENDER
 10
206.698808084644
 20
637.0480760935634
 30
0.0
1001
AVE_RENDER
1002
{
1070
     0
1000
Fog Opt
1070
     0
1070
     0
1040
0.0
1040
1.0
1040
0.0
1040
1.0
1010
0.5
1020
0.5
1030
0.5
1002
}
  0
INSERT
  5
13A39
330
2E3A
100
AcDbEntity
  8
ASHADE
 62
     9
100
AcDbBlockReference
  2
AVE_RENDER
 10
206.698808084644
 20
637.0480760935634
 30
0.0
1001
AVE_RENDER
1002
{
1070
     0
1000
BG Opt
1070
     0
1070
     1
1010
0.0
1020
0.0
1030
0.0
1010
1.0
1020
0.0
1030
0.0
1010
0.0
1020
1.0
1030
0.0
1010
0.0
1020
0.0
1030
1.0
1040
0.5
1040
0.33
1040
0.0
1000

1070
     1
1000

1070
     1
1070
     1
1040
1.0
1040
1.0
1040
0.0
1040
0.0
1070
     0
1002
}
  0
INSERT
  5
13A3A
330
2E3A
100
AcDbEntity
  8
ASHADE
 62
     1
100
AcDbBlockReference
  2
AVE_GLOBAL
 10
206.698808084644
 20
637.0480760935634
 30
0.0
1001
AVE_MATERIAL
1002
{
1000
*GLOBAL*
1000
1
1000
Global finish.
1002
{
1002
}
1002
{
1070
    63
1002
{
1002
{
1010
-1.0
1020
-1.0
1030
-1.0
1002
}
1040
0.1000000014901161
1000

1040
0.0
1002
{
1002
}
1040
0.0
1002
{
1002
}
1040
0.0
1002
}
1002
{
1002
{
1010
-1.0
1020
-1.0
1030
-1.0
1002
}
1040
0.6999999880790711
1000

1040
0.0
1002
{
1002
}
1040
0.0
1002
{
1002
}
1040
0.0
1002
}
1002
{
1002
{
1010
-1.0
1020
-1.0
1030
-1.0
1002
}
1040
0.2000000029802322
1000

1040
0.0
1002
{
1002
}
1040
0.0
1002
{
1002
}
1040
0.0
1002
}
1002
{
1070
     0
1002
{
1070
     1
1002
{
1040
1.0
1040
1.0
1000

1040
0.0
1002
{
1002
}
1040
0.0
1002
{
1002
}
1040
0.0
1002
}
1002
}
1040
1.0
1040
0.0
1040
0.0
1002
}
1002
{
1040
1.0
1040
1.0
1000

1040
0.0
1002
{
1002
}
1040
0.0
1002
{
1002
}
1040
0.0
1002
}
1002
{
1040
0.5
1040
1.0
1000

1040
0.0
1002
{
1002
}
1040
0.0
1002
{
1002
}
1040
0.0
1002
}
1002
{
1070
     0
1040
0.0
1002
{
1002
}
1040
1.0
1002
{
1002
}
1040
0.0
1002
}
1002
{
1040
0.0
1002
{
1002
{
1010
0.0
1020
0.0
1030
0.0
1002
}
1040
1.0
1000

1040
0.0
1002
{
1002
}
1040
0.0
1002
{
1002
}
1040
0.0
1002
}
1002
}
1002
{
1002
{
1070
     1
1002
{
1040
0.0
1040
1.0
1000

1040
0.0
1002
{
1002
}
1040
0.0
1002
{
1002
}
1040
0.0
1002
}
1002
}
1040
0.0
1002
{
1002
}
1010
1.0
1020
0.0
1030
0.0
1010
0.0
1020
1.0
1030
0.0
1010
0.0
1020
0.0
1030
1.0
1070
     0
1002
}
1002
{
1002
{
1040
1.0
1040
1.0
1002
{
1070
     1
1002
{
1040
1.0
1040
1.0
1000

1040
0.0
1002
{
1002
}
1040
0.0
1002
{
1002
}
1040
0.0
1002
}
1002
}
1002
}
1070
     0
1040
0.0
1002
{
1002
}
1002
}
1002
{
1002
}
1002
}
1002
{
1071
        3
1070
     3
1070
     0
1002
{
1070
     2
1070
     0
1070
     0
1040
0.0
1002
}
1070
     0
1070
     2
1002
{
1002
}
1002
}
1002
{
1040
8030.0
1040
190.3000030517578
1040
0.3050000071525574
1040
228.0
1040
545.0
1040
14.0
1040
17.39999961853027
1040
0.4560000002384186
1002
}
1002
}
  0
TEXT
  5
13A3B
330
2E3A
100
AcDbEntity
  8
0
 62
     7
 48
5.0
100
AcDbText
 10
-1478.864448365064
 20
1018.077525794961
 30
0.0
 40
3.809829827610412
  1
 
 41
0.75
100
AcDbText
  0
MTEXT
  5
1592D
330
2E3A
100
AcDbEntity
  8
OMRISS
  6
Continuous
100
AcDbMText
 10
-2395.176181831748
 20
2489.102319280084
 30
0.0
 40
4.0
 41
0.0
 46
0.0
 71
     1
 72
     1
  1

  7
ARIAL
 73
     1
 44
1.0
  0
LWPOLYLINE
  5
16B25
330
2E3A
100
AcDbEntity
  8
Tankomriss
100
AcDbPolyline
 90
       12
 70
     1
 43
0.0
 10
70826.5850040047
 20
25265.33320560225
 10
70178.30353187624
 20
25604.66026132862
 10
69278.4279002932
 20
26065.26234021144
 10
68430.64750400476
 20
26480.68754085202
 10
67842.11625400477
 20
26759.50004085201
 10
67226.58500400471
 20
27016.1619321514
 10
67226.58500400476
 20
9113.888824569309
 10
68136.58500400476
 20
9535.32816585213
 10
69278.4279002932
 20
10090.61274149277
 10
70173.3035318763
 20
10551.21482037552
 10
70826.585004005
 20
10890.54187610205
 10
70826.5850040047
 20
25265.33320560225
  0
LWPOLYLINE
  5
16B32
330
2E3A
100
AcDbEntity
  8
Tankomriss
100
AcDbPolyline
 90
        8
 70
     1
 43
0.0
 10
-68048.16653936531
 20
24707.93754085188
 10
-76448.66653936531
 20
24707.93754085206
 10
-76448.66653936531
 20
21427.93754085194
 10
-70448.66653936531
 20
21427.93754085194
 10
-70448.66653936531
 20
14727.93754085192
 10
-76448.66653936531
 20
14727.93754085191
 10
-76448.66653936531
 20
11447.93754085182
 10
-68048.66653936531
 20
11447.93754085194
  0
TEXT
  5
16B33
330
2E3A
100
AcDbEntity
  8
TEKST
  6
Continuous
100
AcDbText
 10
67800.94104621841
 20
18535.68703191075
 30
0.0
 40
600.0
  1
_tn 53
  7
ARIAL
100
AcDbText
  0
TEXT
  5
16B34
330
2E3A
100
AcDbEntity
  8
TEKST
  6
Continuous
100
AcDbText
 10
69357.10299858401
 20
17011.50127704544
 30
0.0
 40
600.0
  1
_tv 53
  7
ARIAL
100
AcDbText
  0
TEXT
  5
16B3B
330
2E3A
100
AcDbEntity
  8
TEKST
  6
Continuous
100
AcDbText
 10
-73773.19779544158
 20
23760.94748723006
 30
0.0
 40
600.0
  1
_tn 54
  7
ARIAL
100
AcDbText
  0
TEXT
  5
16B3C
330
2E3A
100
AcDbEntity
  8
TEKST
  6
Continuous
100
AcDbText
 10
-72217.03584307598
 20
22236.76173236475
 30
0.0
 40
600.0
  1
_tv 54
  7
ARIAL
100
AcDbText
  0
TEXT
  5
16B87
330
2E3A
100
AcDbEntity
  8
TEKST
  6
Continuous
100
AcDbText
 10
76015.93660750301
 20
18535.68703191075
 30
0.0
 40
600.0
  1
_tn 39
  7
ARIAL
100
AcDbText
  0
TEXT
  5
16B88
330
2E3A
100
AcDbEntity
  8
TEKST
  6
Continuous
100
AcDbText
 10
77572.09855986863
 20
17011.50127704543
 30
0.0
 40
600.0
  1
_tv 39
  7
ARIAL
100
AcDbText
  0
LWPOLYLINE
  5
16B89
330
2E3A
100
AcDbEntity
  8
Tankomriss
100
AcDbPolyline
 90
       15
 70
     1
 43
0.0
 10
82678.49474384384
 20
18077.93754085196
 10
81719.97711454764
 20
18780.62019491411
 10
80486.33122197404
 20
19647.16337790286
 10
79463.03595319364
 20
20338.24568144165
 10
77457.88475372202
 20
21605.24329688632
 10
75956.87733060468
 20
22495.24530178129
 10
74426.80442896961
 20
23349.18183207344
 10
74431.31387661847
 20
12806.42532381696
 10
75130.96000400469
 20
13193.04056785216
 10
76028.67875419987
 20
13701.8750409644
 10
77210.64817467233
 20
14397.83046365372
 10
78630.41397927203
 20
15281.26277070716
 10
79463.03595319364
 20
15817.62940026253
 10
80750.25194969834
 20
16687.14185329037
 10
82678.49474384384
 20
18077.93754085196
  0
LWPOLYLINE
  5
16B8A
330
2E3A
100
AcDbEntity
  8
Tankomriss
100
AcDbPolyline
 90
       16
 70
     1
 43
0.0
 10
67226.58500400469
 20
27016.1619321514
 10
66080.95219150476
 20
27566.96097785201
 10
63981.72562900477
 20
28475.17191585201
 10
62321.83500400476
 20
29152.38285385202
 10
61293.51469150477
 20
29552.53519735202
 10
59890.08500400476
 20
30075.41019685201
 10
57743.61625400477
 20
30814.12113435201
 10
55126.58500400472
 20
31561.30308201893
 10
55126.58500400472
 20
4548.15581885624
 10
56658.11625400476
 20
4998.054728852133
 10
59368.78812900476
 20
5893.681681352129
 10
61072.52250400475
 20
6519.195352852126
 10
63382.13187900477
 20
7431.87504085213
 10
65151.06937900476
 20
8179.351602852127
 10
67226.58500400478
 20
9113.888824569306
 10
67226.58500400469
 20
27016.1619321514
  0
LWPOLYLINE
  5
16B8B
330
2E3A
100
AcDbEntity
  8
Tankomriss
100
AcDbPolyline
 90
       17
 70
     1
 43
0.0
 10
55100.95219150477
 20
31614.87894735202
 10
54357.11625400476
 20
31817.46879085201
 10
52359.66312901978
 20
32338.20707184837
 10
49364.30375400476
 20
32992.03910285201
 10
46997.74391640595
 20
33412.82205927063
 10
44358.98377286311
 20
33794.288058352
 10
42585.83472926186
 20
33983.51819160202
 10
41502.20779731735
 20
34060.84837675827
 10
38882.08500400477
 20
34154.20218885202
 10
36261.87406650477
 20
34177.75004085202
 10
35006.99933473476
 20
34177.93754085207
 10
32077.07894512231
 20
34177.93754085207
 10
28314.07894512242
 20
34177.93754085207
 10
26161.58500400489
 20
34177.93754085207
 10
26161.58500400477
 20
18077.93754085195
 10
55126.5850040037
 20
18077.93754085195
 10
55126.58500400267
 20
31561.30308201803
  0
LWPOLYLINE
  5
16B8C
330
2E3A
100
AcDbEntity
  8
Tankomriss
100
AcDbPolyline
 90
       14
 70
     1
 43
0.0
 10
55126.5850040037
 20
18077.93754085195
 10
26161.58500414336
 20
18077.93754085206
 10
26161.58500400506
 20
1977.93754085213
 10
35006.99933473476
 20
1977.937540852072
 10
40754.03728559054
 20
2056.964531234939
 10
43847.33500400477
 20
2299.62504085213
 10
46123.4974175723
 20
2606.64095300057
 10
48614.89860709378
 20
3022.136744164636
 10
50112.06085442681
 20
3313.646667195885
 10
51609.90214964846
 20
3640.300497586497
 10
53107.11963016993
 20
4004.412595547445
 10
54252.08500400347
 20
4310.640665851773
 10
55126.58500400472
 20
4548.15581885624
 10
55126.58500400166
 20
18077.93754085195
  0
LWPOLYLINE
  5
16B8D
330
2E3A
100
AcDbEntity
  8
Tankomriss
100
AcDbPolyline
 90
        5
 70
     1
 43
0.0
 10
26161.58500400489
 20
34177.9375408519
 10
10261.58500400476
 20
34177.93754085201
 10
10261.58500400476
 20
18077.93754085207
 10
26161.5850039869
 20
18077.93754085195
 10
26161.58500400459
 20
34177.93754085207
  0
LWPOLYLINE
  5
16B8E
330
2E3A
100
AcDbEntity
  8
Tankomriss
100
AcDbPolyline
 90
        5
 70
     1
 43
0.0
 10
26161.5850039869
 20
18077.93754085206
 10
10261.58500400476
 20
18077.93754085194
 10
10261.58500400476
 20
1977.93754085213
 10
26161.58500400459
 20
1977.93754085213
 10
26161.58500400477
 20
18057.93754085207
  0
LWPOLYLINE
  5
16B8F
330
2E3A
100
AcDbEntity
  8
Tankomriss
100
AcDbPolyline
 90
        5
 70
     1
 43
0.0
 10
10261.58500400474
 20
26127.93754085209
 10
-8818.414995995205
 20
26127.93754085199
 10
-8818.414995995263
 20
10027.93754085215
 10
10261.58500400468
 20
10027.93754085214
 10
10261.58500400456
 20
26127.93754085209
  0
LWPOLYLINE
  5
16B90
330
2E3A
100
AcDbEntity
  8
Tankomriss
100
AcDbPolyline
 90
        4
 70
     1
 43
0.0
 10
-8818.414995995233
 20
18077.93754085204
 10
-31078.41499599524
 20
18077.93754085207
 10
-31078.41499599535
 20
1977.93754085213
 10
-8818.414995995292
 20
1977.93754085213
  0
LWPOLYLINE
  5
16B91
330
2E3A
100
AcDbEntity
  8
Tankomriss
100
AcDbPolyline
 90
        4
 70
     1
 43
0.0
 10
-8818.414995995174
 20
34177.93754085191
 10
-31078.41499599529
 20
34177.93754085207
 10
-31078.41499599529
 20
18077.93754085207
 10
-8818.414995995233
 20
18077.93754085204
  0
LWPOLYLINE
  5
16B92
330
2E3A
100
AcDbEntity
  8
Tankomriss
100
AcDbPolyline
 90
       12
 70
     1
 43
0.0
 10
-31078.41499599529
 20
34177.93754085201
 10
-34210.78218399524
 20
34177.502970852
 10
-38400.39741799527
 20
34169.14066585202
 10
-40935.97358999529
 20
34141.00004085201
 10
-42685.03608999529
 20
34110.10941585201
 10
-44338.83687099523
 20
34067.96879085201
 10
-45994.87593399524
 20
34010.82816585201
 10
-47913.97749599523
 20
33905.93754085201
 10
-49303.99507399526
 20
33799.31644685201
 10
-50158.41499599535
 20
33704.89847885202
 10
-50161.90881475665
 20
18077.93832198733
 10
-31078.41499599524
 20
18077.93754085207
  0
LWPOLYLINE
  5
16B93
330
2E3A
100
AcDbEntity
  8
Tankomriss
100
AcDbPolyline
 90
        9
 70
     1
 43
0.0
 10
-31078.41499599524
 20
18077.93754085194
 10
-50161.90881475652
 20
18077.93832198718
 10
-50165.40718399523
 20
2430.62504085213
 10
-47322.24702749523
 20
2208.773477852126
 10
-43082.50874599523
 20
2054.60941585213
 10
-40856.46773049526
 20
2013.71879085213
 10
-37938.42866799526
 20
1983.45316585213
 10
-34257.91499599523
 20
1977.93754085213
 10
-31078.41499599535
 20
1977.93754085213
  0
LWPOLYLINE
  5
16B94
330
2E3A
100
AcDbEntity
  8
Tankomriss
100
AcDbPolyline
 90
       16
 70
     1
 43
0.0
 10
-50158.41499599535
 20
33704.89847885202
 10
-51647.54780799523
 20
33596.15629085201
 10
-53232.34077749523
 20
33434.88285285201
 10
-54890.74702699529
 20
33240.43754085201
 10
-56335.44624599523
 20
33053.57816585202
 10
-57854.11421449523
 20
32842.17191585201
 10
-58865.94624599523
 20
32690.24222885202
 10
-60138.52827699523
 20
32484.11523782811
 10
-60697.91499599523
 20
32391.97262280421
 10
-60697.91499599523
 20
3763.902458899931
 10
-59103.77827699528
 20
3502.98441585213
 10
-57377.49312099523
 20
3245.38285335213
 10
-55020.03999599523
 20
2931.57816585213
 10
-53021.18257399526
 20
2698.082072352132
 10
-51173.70405799523
 20
2516.320352852126
 10
-50165.40718399523
 20
2430.62504085213
  0
TEXT
  5
16B95
330
2E3A
100
AcDbEntity
  8
TEKST
  6
Continuous
100
AcDbText
 10
59454.15462860072
 20
18535.68703191075
 30
0.0
 40
600.0
  1
_tn 40
  7
ARIAL
100
AcDbText
  0
TEXT
  5
16B96
330
2E3A
100
AcDbEntity
  8
TEKST
  6
Continuous
100
AcDbText
 10
61010.31658096632
 20
17011.50127704543
 30
0.0
 40
600.0
  1
_tv 40
  7
ARIAL
100
AcDbText
  0
TEXT
  5
16B97
330
2E3A
100
AcDbEntity
  8
TEKST
  6
Continuous
100
AcDbText
 10
36517.20509687383
 20
27317.63768260874
 30
0.0
 40
600.0
  1
_tn 41
  7
ARIAL
100
AcDbText
  0
TEXT
  5
16B98
330
2E3A
100
AcDbEntity
  8
TEKST
  6
Continuous
100
AcDbText
 10
38073.36704923943
 20
25793.45192774342
 30
0.0
 40
600.0
  1
_tv 41
  7
ARIAL
100
AcDbText
  0
TEXT
  5
16B99
330
2E3A
100
AcDbEntity
  8
TEKST
  6
Continuous
100
AcDbText
 10
-75476.38209880012
 20
18535.68703191075
 30
0.0
 40
600.0
  1
_tn 52
  7
ARIAL
100
AcDbText
  0
TEXT
  5
16B9A
330
2E3A
100
AcDbEntity
  8
TEKST
  6
Continuous
100
AcDbText
 10
-73920.22014643453
 20
17011.50127704543
 30
0.0
 40
600.0
  1
_tv 52
  7
ARIAL
100
AcDbText
  0
TEXT
  5
16B9B
330
2E3A
100
AcDbEntity
  8
TEKST
  6
Continuous
100
AcDbText
 10
36517.20509687383
 20
9973.285158705259
 30
0.0
 40
600.0
  1
_tn 42
  7
ARIAL
100
AcDbText
  0
TEXT
  5
16B9C
330
2E3A
100
AcDbEntity
  8
TEKST
  6
Continuous
100
AcDbText
 10
38073.36704923943
 20
8449.099403839943
 30
0.0
 40
600.0
  1
_tv 42
  7
ARIAL
100
AcDbText
  0
TEXT
  5
16B9D
330
2E3A
100
AcDbEntity
  8
TEKST
  6
Continuous
100
AcDbText
 10
16608.49098517166
 20
27317.63768260874
 30
0.0
 40
600.0
  1
_tn 43
  7
ARIAL
100
AcDbText
  0
TEXT
  5
16B9E
330
2E3A
100
AcDbEntity
  8
TEKST
  6
Continuous
100
AcDbText
 10
18164.65293753726
 20
25793.45192774342
 30
0.0
 40
600.0
  1
_tv 43
  7
ARIAL
100
AcDbText
  0
TEXT
  5
16B9F
330
2E3A
100
AcDbEntity
  8
TEKST
  6
Continuous
100
AcDbText
 10
16608.49098517166
 20
9973.285158705259
 30
0.0
 40
600.0
  1
_tn 44
  7
ARIAL
100
AcDbText
  0
TEXT
  5
16BA0
330
2E3A
100
AcDbEntity
  8
TEKST
  6
Continuous
100
AcDbText
 10
18164.65293753726
 20
8449.099403839943
 30
0.0
 40
600.0
  1
_tv 44
  7
ARIAL
100
AcDbText
  0
TEXT
  5
16BA1
330
2E3A
100
AcDbEntity
  8
TEKST
  6
Continuous
100
AcDbText
 10
-766.0473175514198
 20
30529.07544823748
 30
0.0
 40
600.0
  1
_tn 46
  7
ARIAL
100
AcDbText
  0
TEXT
  5
16BA2
330
2E3A
100
AcDbEntity
  8
TEKST
  6
Continuous
100
AcDbText
 10
790.1146348141773
 20
29004.88969337216
 30
0.0
 40
600.0
  1
_tv 46
  7
ARIAL
100
AcDbText
  0
TEXT
  5
16BA3
330
2E3A
100
AcDbEntity
  8
TEKST
  6
Continuous
100
AcDbText
 10
-766.0473175514198
 20
6761.847393076576
 30
0.0
 40
600.0
  1
_tn 47
  7
ARIAL
100
AcDbText
  0
TEXT
  5
16BA4
330
2E3A
100
AcDbEntity
  8
TEKST
  6
Continuous
100
AcDbText
 10
790.1146348141773
 20
5237.661638211262
 30
0.0
 40
600.0
  1
_tv 46
  7
ARIAL
100
AcDbText
  0
TEXT
  5
16BA5
330
2E3A
100
AcDbEntity
  8
TEKST
  6
Continuous
100
AcDbText
 10
-22132.03470394397
 20
27317.63768260874
 30
0.0
 40
600.0
  1
_tn 48
  7
ARIAL
100
AcDbText
  0
TEXT
  5
16BA6
330
2E3A
100
AcDbEntity
  8
TEKST
  6
Continuous
100
AcDbText
 10
-20575.87275157837
 20
25793.45192774342
 30
0.0
 40
600.0
  1
_tv 48
  7
ARIAL
100
AcDbText
  0
TEXT
  5
16BA7
330
2E3A
100
AcDbEntity
  8
TEKST
  6
Continuous
100
AcDbText
 10
-22132.03470394397
 20
9973.285158705259
 30
0.0
 40
600.0
  1
_tn 49
  7
ARIAL
100
AcDbText
  0
TEXT
  5
16BA8
330
2E3A
100
AcDbEntity
  8
TEKST
  6
Continuous
100
AcDbText
 10
-20575.87275157837
 20
8449.099403839943
 30
0.0
 40
600.0
  1
_tv 49
  7
ARIAL
100
AcDbText
  0
TEXT
  5
16BA9
330
2E3A
100
AcDbEntity
  8
TEKST
  6
Continuous
100
AcDbText
 10
-43498.02138559517
 20
27317.63768260874
 30
0.0
 40
600.0
  1
_tn 50
  7
ARIAL
100
AcDbText
  0
TEXT
  5
16BAA
330
2E3A
100
AcDbEntity
  8
TEKST
  6
Continuous
100
AcDbText
 10
-41941.85943322957
 20
25793.45192774342
 30
0.0
 40
600.0
  1
_tv 50
  7
ARIAL
100
AcDbText
  0
TEXT
  5
16BAB
330
2E3A
100
AcDbEntity
  8
TEKST
  6
Continuous
100
AcDbText
 10
-43498.02138559517
 20
9973.285158705259
 30
0.0
 40
600.0
  1
_tn 51
  7
ARIAL
100
AcDbText
  0
TEXT
  5
16BAC
330
2E3A
100
AcDbEntity
  8
TEKST
  6
Continuous
100
AcDbText
 10
-41941.85943322957
 20
8449.099403839943
 30
0.0
 40
600.0
  1
_tv 51
  7
ARIAL
100
AcDbText
  0
LWPOLYLINE
  5
16BAD
330
2E3A
100
AcDbEntity
  8
Omriss tanker
  6
Continuous
100
AcDbPolyline
 90
        4
 70
     1
 43
0.3
 39
0.1
 10
10261.58500400476
 20
34177.93754085201
 10
-8818.414995995174
 20
34177.93754085191
 10
-8818.414995995205
 20
26127.93754085198
 10
10261.58500400476
 20
26127.93754085209
  0
LWPOLYLINE
  5
16BAE
330
2E3A
100
AcDbEntity
  8
Omriss tanker
  6
Continuous
100
AcDbPolyline
 90
        4
 70
     1
 43
0.3
 39
0.1
 10
10261.58500400476
 20
10027.93754085214
 10
-8818.414995995263
 20
10027.93754085208
 10
-8818.414995995292
 20
1977.93754085213
 10
10261.58500400476
 20
1977.93754085213
  0
TEXT
  5
16BAF
330
2E3A
100
AcDbEntity
  8
TEKST
  6
Continuous
100
AcDbText
 10
-766.0473175514198
 20
18420.76213489898
 30
0.0
 40
600.0
  1
_tn 45
  7
ARIAL
100
AcDbText
  0
TEXT
  5
16BB0
330
2E3A
100
AcDbEntity
  8
TEKST
  6
Continuous
100
AcDbText
 10
790.1146348141773
 20
16896.57638003366
 30
0.0
 40
600.0
  1
_tv 45
  7
ARIAL
100
AcDbText
  0
ENDSEC
  0
SECTION
  2
OBJECTS
  0
DICTIONARY
  5
2E2E
330
0
100
AcDbDictionary
281
     1
  3
ACAD_COLOR
350
1608D
  3
ACAD_GROUP
350
2E2F
  3
ACAD_LAYOUT
350
158C0
  3
ACAD_MATERIAL
350
16078
  3
ACAD_MLINESTYLE
350
2E30
  3
ACAD_PLOTSETTINGS
350
158C1
  3
ACAD_PLOTSTYLENAME
350
158BE
  3
ACAD_TABLESTYLE
350
1608E
  3
ACAD_VISUALSTYLE
350
1607C
  3
ACDBVARIABLEDICTIONARY
350
15033
  3
ASE_INDEX_DICTIONARY
350
15AF5
  0
DICTIONARY
  5
15B01
330
2E24
100
AcDbDictionary
280
     1
281
     1
  3
ACAD_LAYERFILTERS
360
16A5D
  3
ACAD_LAYERSTATES
360
15BDD
  3
ACLYDICTIONARY
360
16A5C
  0
DICTIONARY
  5
1608D
102
{ACAD_REACTORS
330
2E2E
102
}
330
2E2E
100
AcDbDictionary
281
     1
  0
DICTIONARY
  5
2E2F
102
{ACAD_REACTORS
330
2E2E
102
}
330
2E2E
100
AcDbDictionary
281
     1
  0
DICTIONARY
  5
158C0
102
{ACAD_REACTORS
330
2E2E
102
}
330
2E2E
100
AcDbDictionary
281
     1
  3
Layout1
350
158C3
  3
Model
350
158C2
  0
DICTIONARY
  5
16078
102
{ACAD_REACTORS
330
2E2E
102
}
330
2E2E
100
AcDbDictionary
281
     1
  3
ByBlock
350
1607A
  3
ByLayer
350
16079
  3
Global
350
1607B
  0
DICTIONARY
  5
2E30
102
{ACAD_REACTORS
330
2E2E
102
}
330
2E2E
100
AcDbDictionary
281
     1
  3
STANDARD
350
2E3D
  0
DICTIONARY
  5
158C1
102
{ACAD_REACTORS
330
2E2E
102
}
330
2E2E
100
AcDbDictionary
281
     1
  0
ACDBDICTIONARYWDFLT
  5
158BE
102
{ACAD_REACTORS
330
2E2E
102
}
330
2E2E
100
AcDbDictionary
281
     1
  3
Normal
350
158BF
100
AcDbDictionaryWithDefault
340
158BF
  0
DICTIONARY
  5
1608E
102
{ACAD_REACTORS
330
2E2E
102
}
330
2E2E
100
AcDbDictionary
281
     1
  3
Standard
350
1608F
  0
DICTIONARY
  5
1607C
102
{ACAD_REACTORS
330
2E2E
102
}
330
2E2E
100
AcDbDictionary
281
     1
  3
2dWireframe
350
16082
  3
3D Hidden
350
16084
  3
3dWireframe
350
16083
  3
Basic
350
16081
  3
Brighten
350
16088
  3
ColorChange
350
1608C
  3
Conceptual
350
16085
  3
Dim
350
16087
  3
Facepattern
350
1608B
  3
Flat
350
1607D
  3
FlatWithEdges
350
1607E
  3
Gouraud
350
1607F
  3
GouraudWithEdges
350
16080
  3
Linepattern
350
1608A
  3
Realistic
350
16086
  3
Thicken
350
16089
  0
DICTIONARY
  5
15033
102
{ACAD_REACTORS
330
2E2E
102
}
330
2E2E
100
AcDbDictionary
281
     1
  3
CTABLESTYLE
350
16094
  3
SORTENTS
350
15034
  0
DICTIONARY
  5
15AF5
102
{ACAD_REACTORS
330
2E2E
102
}
330
2E2E
100
AcDbDictionary
281
     1
  3
ASEBlockHierarchyIndexRecord
350
15AF7
1001
DCO15
1040
1538987196.419
  0
DICTIONARY
  5
16A5D
102
{ACAD_REACTORS
330
15B01
102
}
330
15B01
100
AcDbDictionary
281
     1
  0
DICTIONARY
  5
15BDD
102
{ACAD_REACTORS
330
15B01
102
}
330
15B01
100
AcDbDictionary
281
     1
  0
DICTIONARY
  5
16A5C
102
{ACAD_REACTORS
330
15B01
102
}
330
15B01
100
AcDbDictionary
281
     1
1001
ACAD
1000
<All
  0
LAYOUT
  5
158C3
102
{ACAD_REACTORS
330
158C0
102
}
330
158C0
100
AcDbPlotSettings
  1

  2
\\TSN_SERVER\HP LaserJet 6P
  4

  6

 40
0.0
 41
0.0
 42
0.0
 43
0.0
 44
0.0
 45
0.0
 46
0.0
 47
0.0
 48
0.0
 49
0.0
140
0.0
141
0.0
142
1.0
143
1.0
 70
   688
 72
     0
 73
     0
 74
     5
  7

 75
    16
147
1.0
 76
     0
 77
     2
 78
   300
148
0.0
149
0.0
100
AcDbLayout
  1
Layout1
 70
     0
 71
     1
 10
0.0
 20
0.0
 11
12.0
 21
9.0
 12
0.0
 22
0.0
 32
0.0
 14
1.000000000000000E+20
 24
1.000000000000000E+20
 34
1.000000000000000E+20
 15
-1.000000000000000E+20
 25
-1.000000000000000E+20
 35
-1.000000000000000E+20
146
0.0
 13
0.0
 23
0.0
 33
0.0
 16
1.0
 26
0.0
 36
0.0
 17
0.0
 27
1.0
 37
0.0
 76
     0
330
2E37
  0
LAYOUT
  5
158C2
102
{ACAD_REACTORS
330
158C0
102
}
330
158C0
100
AcDbPlotSettings
  1

  2
\\S01-TSN\iR 3170C
  4
A4
  6

 40
6.297083377838132
 41
6.297093868255615
 42
6.297073364257812
 43
6.297088623046875
 44
210.0579986572264
 45
296.9259948730469
 46
66.56
 47
0.0
 48
-10887.64392972915
 49
-8843.561620960944
140
40032.15823510553
141
2680.457608696015
142
1.0
143
179.0858424820558
 70
 11956
 72
     1
 73
     1
 74
     4
  7

 75
     0
147
0.0055839143180746
 76
     0
 77
     2
 78
   300
148
10887.64392972915
149
8843.561620960944
100
AcDbLayout
  1
Model
 70
     1
 71
     0
 10
0.0
 20
0.0
 11
12.0
 21
9.0
 12
0.0
 22
0.0
 32
0.0
 14
0.0
 24
0.0
 34
0.0
 15
0.0
 25
0.0
 35
0.0
146
0.0
 13
0.0
 23
0.0
 33
0.0
 16
1.0
 26
0.0
 36
0.0
 17
0.0
 27
1.0
 37
0.0
 76
     0
330
2E3A
331
16072
  0
MATERIAL
  5
1607A
102
{ACAD_REACTORS
330
16078
102
}
330
16078
100
AcDbMaterial
  1
ByBlock
  0
MATERIAL
  5
16079
102
{ACAD_REACTORS
330
16078
102
}
330
16078
100
AcDbMaterial
  1
ByLayer
  0
MATERIAL
  5
1607B
102
{ACAD_REACTORS
330
16078
102
}
330
16078
100
AcDbMaterial
  1
Global
  0
MLINESTYLE
  5
2E3D
102
{ACAD_REACTORS
330
2E30
102
}
330
2E30
100
AcDbMlineStyle
  2
STANDARD
 70
     0
  3

 62
     0
 51
90.0
 52
90.0
 71
     2
 49
0.5
 62
   256
  6
BYLAYER
 49
-0.5
 62
   256
  6
BYLAYER
  0
ACDBPLACEHOLDER
  5
158BF
102
{ACAD_REACTORS
330
158BE
102
}
330
158BE
  0
TABLESTYLE
  5
1608F
102
{ACAD_REACTORS
330
1608E
102
}
330
1608E
100
AcDbTableStyle
  3
Standard
 70
     0
 71
     0
 40
0.06
 41
0.06
280
     0
281
     0
  7
STANDARD
140
0.18
170
     2
 62
     0
 63
     7
283
     0
 90
      512
 91
        0
  1

274
    -2
284
     1
 64
     0
275
    -2
285
     1
 65
     0
276
    -2
286
     1
 66
     0
277
    -2
287
     1
 67
     0
278
    -2
288
     1
 68
     0
279
    -2
289
     1
 69
     0
  7
STANDARD
140
0.25
170
     5
 62
     0
 63
     7
283
     0
 90
      512
 91
        0
  1

274
    -2
284
     1
 64
     0
275
    -2
285
     1
 65
     0
276
    -2
286
     1
 66
     0
277
    -2
287
     1
 67
     0
278
    -2
288
     1
 68
     0
279
    -2
289
     1
 69
     0
  7
STANDARD
140
0.18
170
     5
 62
     0
 63
     7
283
     0
 90
      512
 91
        0
  1

274
    -2
284
     1
 64
     0
275
    -2
285
     1
 65
     0
276
    -2
286
     1
 66
     0
277
    -2
287
     1
 67
     0
278
    -2
288
     1
 68
     0
279
    -2
289
     1
 69
     0
  0
VISUALSTYLE
  5
16082
102
{ACAD_REACTORS
330
1607C
102
}
330
1607C
100
AcDbVisualStyle
  2
2dWireframe
 70
     4
 71
     0
 72
     2
 73
     0
 90
        0
 40
-0.6
 41
-30.0
 62
     5
 63
     7
421
 16777215
 74
     1
 91
        4
 64
     7
 65
   257
 75
     1
175
     1
 42
1.0
 92
        0
 66
   257
 43
1.0
 76
     1
 77
     6
 78
     2
 67
     7
 79
     5
170
     0
171
     0
290
     0
174
     0
 93
        1
 44
0.0
173
     0
291
     0
 45
0.0
  0
VISUALSTYLE
  5
16084
102
{ACAD_REACTORS
330
1607C
102
}
330
1607C
100
AcDbVisualStyle
  2
3D Hidden
 70
     6
 71
     1
 72
     2
 73
     2
 90
        0
 40
-0.6
 41
-30.0
 62
     5
 63
     7
421
 16777215
 74
     2
 91
        2
 64
     7
 65
   257
 75
     2
175
     1
 42
40.0
 92
        0
 66
   257
 43
1.0
 76
     1
 77
     6
 78
     2
 67
     7
 79
     3
170
     0
171
     0
290
     0
174
     0
 93
        1
 44
0.0
173
     0
291
     0
 45
0.0
  0
VISUALSTYLE
  5
16083
102
{ACAD_REACTORS
330
1607C
102
}
330
1607C
100
AcDbVisualStyle
  2
3dWireframe
 70
     5
 71
     0
 72
     2
 73
     0
 90
        0
 40
-0.6
 41
-30.0
 62
     5
 63
     7
421
 16777215
 74
     1
 91
        4
 64
     7
 65
   257
 75
     1
175
     1
 42
1.0
 92
        0
 66
   257
 43
1.0
 76
     1
 77
     6
 78
     2
 67
     7
 79
     5
170
     0
171
     0
290
     0
174
     0
 93
        1
 44
0.0
173
     0
291
     0
 45
0.0
  0
VISUALSTYLE
  5
16081
102
{ACAD_REACTORS
330
1607C
102
}
330
1607C
100
AcDbVisualStyle
  2
Basic
 70
     7
 71
     1
 72
     0
 73
     1
 90
        0
 40
-0.6
 41
-30.0
 62
     5
 63
     7
421
 16777215
 74
     0
 91
        4
 64
     7
 65
   257
 75
     1
175
     1
 42
1.0
 92
        8
 66
     7
 43
1.0
 76
     1
 77
     6
 78
     2
 67
     7
 79
     5
170
     0
171
     0
290
     0
174
     0
 93
        1
 44
0.0
173
     0
291
     1
 45
0.0
  0
VISUALSTYLE
  5
16088
102
{ACAD_REACTORS
330
1607C
102
}
330
1607C
100
AcDbVisualStyle
  2
Brighten
 70
    12
 71
     2
 72
     2
 73
     0
 90
        0
 40
-0.6
 41
-30.0
 62
     5
 63
     7
421
 16777215
 74
     1
 91
        4
 64
     7
 65
   257
 75
     1
175
     1
 42
1.0
 92
        8
 66
     7
 43
1.0
 76
     1
 77
     6
 78
     2
 67
     7
 79
     5
170
     0
171
     0
290
     0
174
     0
 93
        1
 44
50.0
173
     0
291
     1
 45
0.0
  0
VISUALSTYLE
  5
1608C
102
{ACAD_REACTORS
330
1607C
102
}
330
1607C
100
AcDbVisualStyle
  2
ColorChange
 70
    16
 71
     2
 72
     2
 73
     3
 90
        0
 40
-0.6
 41
-30.0
 62
     5
 63
     8
421
  8421504
 74
     1
 91
        4
 64
     7
 65
   257
 75
     1
175
     1
 42
1.0
 92
        8
 66
     8
424
  8421504
 43
1.0
 76
     1
 77
     6
 78
     2
 67
     7
 79
     5
170
     0
171
     0
290
     0
174
     0
 93
        1
 44
0.0
173
     0
291
     1
 45
0.0
  0
VISUALSTYLE
  5
16085
102
{ACAD_REACTORS
330
1607C
102
}
330
1607C
100
AcDbVisualStyle
  2
Conceptual
 70
     9
 71
     3
 72
     2
 73
     0
 90
        0
 40
-0.6
 41
-30.0
 62
     5
 63
     7
421
 16777215
 74
     2
 91
        2
 64
     7
 65
   257
 75
     1
175
     1
 42
40.0
 92
        8
 66
     7
 43
1.0
 76
     1
 77
     6
 78
     2
 67
     7
 79
     3
170
     0
171
     0
290
     0
174
     0
 93
        1
 44
0.0
173
     0
291
     0
 45
0.0
  0
VISUALSTYLE
  5
16087
102
{ACAD_REACTORS
330
1607C
102
}
330
1607C
100
AcDbVisualStyle
  2
Dim
 70
    11
 71
     2
 72
     2
 73
     0
 90
        0
 40
-0.6
 41
-30.0
 62
     5
 63
     7
421
 16777215
 74
     1
 91
        4
 64
     7
 65
   257
 75
     1
175
     1
 42
1.0
 92
        8
 66
     7
 43
1.0
 76
     1
 77
     6
 78
     2
 67
     7
 79
     5
170
     0
171
     0
290
     0
174
     0
 93
        1
 44
-50.0
173
     0
291
     1
 45
0.0
  0
VISUALSTYLE
  5
1608B
102
{ACAD_REACTORS
330
1607C
102
}
330
1607C
100
AcDbVisualStyle
  2
Facepattern
 70
    15
 71
     2
 72
     2
 73
     0
 90
        0
 40
-0.6
 41
-30.0
 62
     5
 63
     7
421
 16777215
 74
     1
 91
        4
 64
     7
 65
   257
 75
     1
175
     1
 42
1.0
 92
        8
 66
     7
 43
1.0
 76
     1
 77
     6
 78
     2
 67
     7
 79
     5
170
     0
171
     0
290
     0
174
     0
 93
        1
 44
0.0
173
     0
291
     1
 45
0.0
  0
VISUALSTYLE
  5
1607D
102
{ACAD_REACTORS
330
1607C
102
}
330
1607C
100
AcDbVisualStyle
  2
Flat
 70
     0
 71
     2
 72
     1
 73
     1
 90
        2
 40
-0.6
 41
30.0
 62
     5
 63
     7
421
 16777215
 74
     0
 91
        4
 64
     7
 65
   257
 75
     1
175
     1
 42
1.0
 92
        8
 66
     7
 43
1.0
 76
     1
 77
     6
 78
     2
 67
     7
 79
     5
170
     0
171
     0
290
     0
174
     0
 93
       13
 44
0.0
173
     0
291
     1
 45
0.0
  0
VISUALSTYLE
  5
1607E
102
{ACAD_REACTORS
330
1607C
102
}
330
1607C
100
AcDbVisualStyle
  2
FlatWithEdges
 70
     1
 71
     2
 72
     1
 73
     1
 90
        2
 40
-0.6
 41
30.0
 62
     5
 63
     7
421
 16777215
 74
     1
 91
        4
 64
     7
 65
   257
 75
     1
175
     1
 42
1.0
 92
        0
 66
   257
 43
1.0
 76
     1
 77
     6
 78
     2
 67
     7
 79
     5
170
     0
171
     0
290
     0
174
     0
 93
       13
 44
0.0
173
     0
291
     1
 45
0.0
  0
VISUALSTYLE
  5
1607F
102
{ACAD_REACTORS
330
1607C
102
}
330
1607C
100
AcDbVisualStyle
  2
Gouraud
 70
     2
 71
     2
 72
     2
 73
     1
 90
        2
 40
-0.6
 41
30.0
 62
     5
 63
     7
421
 16777215
 74
     0
 91
        4
 64
     7
 65
   257
 75
     1
175
     1
 42
1.0
 92
        0
 66
     7
 43
1.0
 76
     1
 77
     6
 78
     2
 67
     7
 79
     5
170
     0
171
     0
290
     0
174
     0
 93
       13
 44
0.0
173
     0
291
     1
 45
0.0
  0
VISUALSTYLE
  5
16080
102
{ACAD_REACTORS
330
1607C
102
}
330
1607C
100
AcDbVisualStyle
  2
GouraudWithEdges
 70
     3
 71
     2
 72
     2
 73
     1
 90
        2
 40
-0.6
 41
30.0
 62
     5
 63
     7
421
 16777215
 74
     1
 91
        4
 64
     7
 65
   257
 75
     1
175
     1
 42
1.0
 92
        0
 66
   257
 43
1.0
 76
     1
 77
     6
 78
     2
 67
     7
 79
     5
170
     0
171
     0
290
     0
174
     0
 93
       13
 44
0.0
173
     0
291
     1
 45
0.0
  0
VISUALSTYLE
  5
1608A
102
{ACAD_REACTORS
330
1607C
102
}
330
1607C
100
AcDbVisualStyle
  2
Linepattern
 70
    14
 71
     2
 72
     2
 73
     0
 90
        0
 40
-0.6
 41
-30.0
 62
     5
 63
     7
421
 16777215
 74
     1
 91
        4
 64
     7
 65
   257
 75
     7
175
     7
 42
1.0
 92
        8
 66
     7
 43
1.0
 76
     1
 77
     6
 78
     2
 67
     7
 79
     5
170
     0
171
     0
290
     0
174
     0
 93
        1
 44
0.0
173
     0
291
     1
 45
0.0
  0
VISUALSTYLE
  5
16086
102
{ACAD_REACTORS
330
1607C
102
}
330
1607C
100
AcDbVisualStyle
  2
Realistic
 70
     8
 71
     2
 72
     2
 73
     0
 90
        0
 40
-0.6
 41
-30.0
 62
     5
 63
     7
421
 16777215
 74
     1
 91
        0
 64
     7
 65
   257
 75
     1
175
     1
 42
1.0
 92
        8
 66
     8
424
  7895160
 43
1.0
 76
     1
 77
     6
 78
     2
 67
     7
 79
     5
170
     0
171
     0
290
     0
174
     0
 93
       13
 44
0.0
173
     0
291
     0
 45
0.0
  0
VISUALSTYLE
  5
16089
102
{ACAD_REACTORS
330
1607C
102
}
330
1607C
100
AcDbVisualStyle
  2
Thicken
 70
    13
 71
     2
 72
     2
 73
     0
 90
        0
 40
-0.6
 41
-30.0
 62
     5
 63
     7
421
 16777215
 74
     1
 91
        4
 64
     7
 65
   257
 75
     1
175
     1
 42
1.0
 92
       12
 66
     7
 43
1.0
 76
     1
 77
     6
 78
     2
 67
     7
 79
     5
170
     0
171
     0
290
     0
174
     0
 93
        1
 44
0.0
173
     0
291
     1
 45
0.0
  0
DICTIONARYVAR
  5
16094
102
{ACAD_REACTORS
330
15033
102
}
330
15033
100
DictionaryVariables
280
     0
  1
STANDARD
  0
DICTIONARYVAR
  5
15034
102
{ACAD_REACTORS
330
15033
102
}
330
15033
100
DictionaryVariables
280
     0
  1
96
  0
XRECORD
  5
15AF7
102
{ACAD_REACTORS
330
15AF5
102
}
330
15AF5
100
AcDbXrecord
280
     1
330
17
330
29
330
2E80
330
2E81
330
2E82
330
2E83
330
2E84
330
2E85
330
2E86
330
2E87
330
2E8E
330
10E9D
330
10E9E
330
10EA0
330
10EA1
330
10EA2
330
10EA3
330
10EA4
330
10EA5
330
10EA6
330
10EA7
330
10EA8
330
10EAA
330
10EAB
330
10EAD
330
10EAE
330
10EAF
330
10EB0
330
10EB1
330
10EB2
330
10EB3
330
10EB4
330
10EB5
330
10EB6
330
10EB7
330
10EB9
330
10EBA
330
10EBB
330
10EBC
330
10EBD
330
10EBE
330
10EBF
330
10EC0
330
10EC1
330
13A16
330
13A17
330
13A19
330
13A1A
330
13A1B
330
13A1C
330
13A1D
330
13A1E
330
13A1F
330
13A20
330
13A21
330
13A23
330
13A24
330
13A26
330
13A27
330
13A28
330
13A29
330
13A2A
330
13A2B
330
13A2C
330
13A2D
330
13A2E
330
13A2F
330
13A30
330
13A32
330
13A33
330
13A34
330
13A35
330
13A36
330
13A37
330
13A38
330
13A39
330
13A3A
  0
ENDSEC
  0
EOF
