  0
SECTION
  2
HEADER
  9
$ACADVER
  1
AC1021
  9
$ACADMAINTVER
 70
     1
  9
$DWGCODEPAGE
  3
ANSI_1252
  9
$LASTSAVEDBY
  1
roger
  9
$INSBASE
 10
0.0
 20
0.0
 30
0.0
  9
$EXTMIN
 10
-35432.51182485036
 20
38828.22368058709
 30
0.0
  9
$EXTMAX
 10
91193.76595027375
 20
67057.38373132516
 30
0.1
  9
$LIMMIN
 10
0.0
 20
0.0
  9
$LIMMAX
 10
12.0
 20
9.0
  9
$ORTHOMODE
 70
     1
  9
$REGENMODE
 70
     1
  9
$FILLMODE
 70
     1
  9
$QTEXTMODE
 70
     0
  9
$MIRRTEXT
 70
     1
  9
$LTSCALE
 40
1.0
  9
$ATTMODE
 70
     1
  9
$TEXTSIZE
 40
12.0
  9
$TRACEWID
 40
0.05
  9
$TEXTSTYLE
  7
ARIAL
  9
$CLAYER
  8
Omriss tanker
  9
$CELTYPE
  6
CONTINUOUS
  9
$CECOLOR
 62
   256
  9
$CELTSCALE
 40
1.0
  9
$DISPSILH
 70
     0
  9
$DIMSCALE
 40
1.0
  9
$DIMASZ
 40
12.0
  9
$DIMEXO
 40
0.06
  9
$DIMDLI
 40
0.15
  9
$DIMRND
 40
0.0
  9
$DIMDLE
 40
0.0
  9
$DIMEXE
 40
0.3
  9
$DIMTP
 40
0.0
  9
$DIMTM
 40
0.0
  9
$DIMTXT
 40
12.0
  9
$DIMCEN
 40
0.09
  9
$DIMTSZ
 40
0.0
  9
$DIMTOL
 70
     0
  9
$DIMLIM
 70
     0
  9
$DIMTIH
 70
     1
  9
$DIMTOH
 70
     1
  9
$DIMSE1
 70
     0
  9
$DIMSE2
 70
     0
  9
$DIMTAD
 70
     0
  9
$DIMZIN
 70
     0
  9
$DIMBLK
  1

  9
$DIMASO
 70
     1
  9
$DIMSHO
 70
     1
  9
$DIMPOST
  1

  9
$DIMAPOST
  1

  9
$DIMALT
 70
     0
  9
$DIMALTD
 70
     2
  9
$DIMALTF
 40
25.4
  9
$DIMLFAC
 40
1.0
  9
$DIMTOFL
 70
     0
  9
$DIMTVP
 40
0.0
  9
$DIMTIX
 70
     0
  9
$DIMSOXD
 70
     0
  9
$DIMSAH
 70
     0
  9
$DIMBLK1
  1

  9
$DIMBLK2
  1

  9
$DIMSTYLE
  2
TST
  9
$DIMCLRD
 70
     7
  9
$DIMCLRE
 70
     0
  9
$DIMCLRT
 70
     7
  9
$DIMTFAC
 40
0.072
  9
$DIMGAP
 40
3.0
  9
$DIMJUST
 70
     0
  9
$DIMSD1
 70
     0
  9
$DIMSD2
 70
     0
  9
$DIMTOLJ
 70
     1
  9
$DIMTZIN
 70
     0
  9
$DIMALTZ
 70
     0
  9
$DIMALTTZ
 70
     0
  9
$DIMUPT
 70
     0
  9
$DIMDEC
 70
     1
  9
$DIMTDEC
 70
     1
  9
$DIMALTU
 70
     2
  9
$DIMALTTD
 70
     2
  9
$DIMTXSTY
  7
ARIAL
  9
$DIMAUNIT
 70
     0
  9
$DIMADEC
 70
     0
  9
$DIMALTRND
 40
0.0
  9
$DIMAZIN
 70
     0
  9
$DIMDSEP
 70
    46
  9
$DIMATFIT
 70
     3
  9
$DIMFRAC
 70
     0
  9
$DIMLDRBLK
  1

  9
$DIMLUNIT
 70
     2
  9
$DIMLWD
 70
    -2
  9
$DIMLWE
 70
    -2
  9
$DIMTMOVE
 70
     0
  9
$DIMFXL
 40
1.0
  9
$DIMFXLON
 70
     0
  9
$DIMJOGANG
 40
0.7853981633974483
  9
$DIMTFILL
 70
     0
  9
$DIMTFILLCLR
 70
     0
  9
$DIMARCSYM
 70
     0
  9
$DIMLTYPE
  6

  9
$DIMLTEX1
  6

  9
$DIMLTEX2
  6

  9
$LUNITS
 70
     2
  9
$LUPREC
 70
     2
  9
$SKETCHINC
 40
0.1
  9
$FILLETRAD
 40
3.0
  9
$AUNITS
 70
     0
  9
$AUPREC
 70
     0
  9
$MENU
  1
acad
  9
$ELEVATION
 40
0.0
  9
$PELEVATION
 40
0.0
  9
$THICKNESS
 40
0.1
  9
$LIMCHECK
 70
     0
  9
$CHAMFERA
 40
0.0
  9
$CHAMFERB
 40
0.0
  9
$CHAMFERC
 40
10.0
  9
$CHAMFERD
 40
0.174532925199433
  9
$SKPOLY
 70
     0
  9
$TDCREATE
 40
2450830.359786921
  9
$TDUCREATE
 40
2450830.276453588
  9
$TDUPDATE
 40
2454358.638954711
  9
$TDUUPDATE
 40
2454358.555621377
  9
$TDINDWG
 40
1.2454039005
  9
$TDUSRTIMER
 40
1.2453963079
  9
$USRTIMER
 70
     1
  9
$ANGBASE
 50
0.0
  9
$ANGDIR
 70
     0
  9
$PDMODE
 70
     0
  9
$PDSIZE
 40
0.0
  9
$PLINEWID
 40
0.3
  9
$SPLFRAME
 70
     1
  9
$SPLINETYPE
 70
     6
  9
$SPLINESEGS
 70
     8
  9
$HANDSEED
  5
16AFA
  9
$SURFTAB1
 70
     6
  9
$SURFTAB2
 70
     6
  9
$SURFTYPE
 70
     6
  9
$SURFU
 70
     6
  9
$SURFV
 70
     6
  9
$UCSBASE
  2

  9
$UCSNAME
  2

  9
$UCSORG
 10
-1376.91011567699
 20
669.2683454919897
 30
0.0
  9
$UCSXDIR
 10
1.0
 20
0.0
 30
0.0
  9
$UCSYDIR
 10
0.0
 20
1.0
 30
0.0
  9
$UCSORTHOREF
  2

  9
$UCSORTHOVIEW
 70
     0
  9
$UCSORGTOP
 10
0.0
 20
0.0
 30
0.0
  9
$UCSORGBOTTOM
 10
0.0
 20
0.0
 30
0.0
  9
$UCSORGLEFT
 10
0.0
 20
0.0
 30
0.0
  9
$UCSORGRIGHT
 10
0.0
 20
0.0
 30
0.0
  9
$UCSORGFRONT
 10
0.0
 20
0.0
 30
0.0
  9
$UCSORGBACK
 10
0.0
 20
0.0
 30
0.0
  9
$PUCSBASE
  2

  9
$PUCSNAME
  2

  9
$PUCSORG
 10
0.0
 20
0.0
 30
0.0
  9
$PUCSXDIR
 10
1.0
 20
0.0
 30
0.0
  9
$PUCSYDIR
 10
0.0
 20
1.0
 30
0.0
  9
$PUCSORTHOREF
  2

  9
$PUCSORTHOVIEW
 70
     0
  9
$PUCSORGTOP
 10
0.0
 20
0.0
 30
0.0
  9
$PUCSORGBOTTOM
 10
0.0
 20
0.0
 30
0.0
  9
$PUCSORGLEFT
 10
0.0
 20
0.0
 30
0.0
  9
$PUCSORGRIGHT
 10
0.0
 20
0.0
 30
0.0
  9
$PUCSORGFRONT
 10
0.0
 20
0.0
 30
0.0
  9
$PUCSORGBACK
 10
0.0
 20
0.0
 30
0.0
  9
$USERI1
 70
     0
  9
$USERI2
 70
     0
  9
$USERI3
 70
     0
  9
$USERI4
 70
     0
  9
$USERI5
 70
     0
  9
$USERR1
 40
0.0
  9
$USERR2
 40
0.0
  9
$USERR3
 40
0.0
  9
$USERR4
 40
0.0
  9
$USERR5
 40
0.0
  9
$WORLDVIEW
 70
     1
  9
$SHADEDGE
 70
     3
  9
$SHADEDIF
 70
    70
  9
$TILEMODE
 70
     1
  9
$MAXACTVP
 70
    16
  9
$PINSBASE
 10
0.0
 20
0.0
 30
0.0
  9
$PLIMCHECK
 70
     0
  9
$PEXTMIN
 10
1.000000000000000E+20
 20
1.000000000000000E+20
 30
1.000000000000000E+20
  9
$PEXTMAX
 10
-1.000000000000000E+20
 20
-1.000000000000000E+20
 30
-1.000000000000000E+20
  9
$PLIMMIN
 10
0.0
 20
0.0
  9
$PLIMMAX
 10
12.0
 20
9.0
  9
$UNITMODE
 70
     0
  9
$VISRETAIN
 70
     0
  9
$PLINEGEN
 70
     0
  9
$PSLTSCALE
 70
     0
  9
$TREEDEPTH
 70
  3020
  9
$CMLSTYLE
  2
STANDARD
  9
$CMLJUST
 70
     0
  9
$CMLSCALE
 40
1.0
  9
$PROXYGRAPHICS
 70
     1
  9
$MEASUREMENT
 70
     0
  9
$CELWEIGHT
370
    -1
  9
$ENDCAPS
280
     0
  9
$JOINSTYLE
280
     0
  9
$LWDISPLAY
290
     0
  9
$INSUNITS
 70
     0
  9
$HYPERLINKBASE
  1

  9
$STYLESHEET
  1

  9
$XEDIT
290
     1
  9
$CEPSNTYPE
380
     0
  9
$PSTYLEMODE
290
     1
  9
$FINGERPRINTGUID
  2
{8CB4EE96-A2FC-4BAD-8A58-F7B03F62799B}
  9
$VERSIONGUID
  2
{BA1DFEF4-B4B1-45AB-B25F-3749CA9FCA63}
  9
$EXTNAMES
290
     1
  9
$PSVPSCALE
 40
0.0
  9
$OLESTARTUP
290
     0
  9
$SORTENTS
280
    96
  9
$INDEXCTL
280
     0
  9
$HIDETEXT
280
     0
  9
$XCLIPFRAME
290
     0
  9
$HALOGAP
280
     0
  9
$OBSCOLOR
 70
   257
  9
$OBSLTYPE
280
     0
  9
$INTERSECTIONDISPLAY
280
     0
  9
$INTERSECTIONCOLOR
 70
   257
  9
$DIMASSOC
280
     1
  9
$PROJECTNAME
  1

  9
$CAMERADISPLAY
290
     0
  9
$LENSLENGTH
 40
50.0
  9
$CAMERAHEIGHT
 40
0.0
  9
$STEPSPERSEC
 40
2.0
  9
$STEPSIZE
 40
6.0
  9
$3DDWFPREC
 40
2.0
  9
$PSOLWIDTH
 40
0.25
  9
$PSOLHEIGHT
 40
4.0
  9
$LOFTANG1
 40
1.570796326794896
  9
$LOFTANG2
 40
1.570796326794896
  9
$LOFTMAG1
 40
0.0
  9
$LOFTMAG2
 40
0.0
  9
$LOFTPARAM
 70
     7
  9
$LOFTNORMALS
280
     1
  9
$LATITUDE
 40
37.795
  9
$LONGITUDE
 40
-122.394
  9
$NORTHDIRECTION
 40
0.0
  9
$TIMEZONE
 70
 -8000
  9
$LIGHTGLYPHDISPLAY
280
     1
  9
$TILEMODELIGHTSYNCH
280
     1
  9
$CMATERIAL
347
16079
  9
$SOLIDHIST
280
     1
  9
$SHOWHIST
280
     1
  9
$DWFFRAME
280
     2
  9
$DGNFRAME
280
     0
  9
$REALWORLDSCALE
290
     1
  9
$INTERFERECOLOR
 62
     1
  9
$INTERFEREOBJVS
345
16086
  9
$INTERFEREVPVS
346
16083
  9
$CSHADOW
280
     0
  9
$SHADOWPLANELOCATION
 40
0.0
  0
ENDSEC
  0
SECTION
  2
CLASSES
  0
CLASS
  1
DICTIONARYVAR
  2
AcDbDictionaryVar
  3
ObjectDBX Classes
 90
        0
 91
        2
280
     0
281
     0
  0
CLASS
  1
ACDBDICTIONARYWDFLT
  2
AcDbDictionaryWithDefault
  3
ObjectDBX Classes
 90
        0
 91
        1
280
     0
281
     0
  0
CLASS
  1
MATERIAL
  2
AcDbMaterial
  3
ObjectDBX Classes
 90
     1024
 91
        3
280
     0
281
     0
  0
CLASS
  1
VISUALSTYLE
  2
AcDbVisualStyle
  3
ObjectDBX Classes
 90
     4095
 91
       16
280
     0
281
     0
  0
CLASS
  1
TABLESTYLE
  2
AcDbTableStyle
  3
ObjectDBX Classes
 90
     4095
 91
        1
280
     0
281
     0
  0
CLASS
  1
SORTENTSTABLE
  2
AcDbSortentsTable
  3
ObjectDBX Classes
 90
        0
 91
        0
280
     0
281
     0
  0
ENDSEC
  0
SECTION
  2
TABLES
  0
TABLE
  2
VPORT
  5
2E2A
330
0
100
AcDbSymbolTable
 70
     1
  0
VPORT
  5
16072
330
2E2A
100
AcDbSymbolTableRecord
100
AcDbViewportTableRecord
  2
*Active
 70
     0
 10
0.0
 20
0.0
 11
1.0
 21
1.0
 12
63038.1793763345
 22
48507.3967346166
 13
0.0
 23
0.0
 14
0.5
 24
0.5
 15
1.0
 25
1.0
 16
0.0
 26
0.0
 36
1.0
 17
0.0
 27
0.0
 37
0.0
 40
43221.60325285867
 41
1.569570871261378
 42
50.0
 43
0.0
 44
0.0
 50
0.0
 51
0.0
 71
     0
 72
   100
 73
     1
 74
     1
 75
     0
 76
     0
 77
     0
 78
     0
281
     0
 65
     1
110
-1376.91011567699
120
669.2683454919897
130
0.0
111
1.0
121
0.0
131
0.0
112
0.0
122
1.0
132
0.0
 79
     0
146
0.0
348
16082
 60
     3
 61
     5
292
     1
282
     1
141
0.0
142
0.0
 63
   250
421
  3355443
  0
ENDTAB
  0
TABLE
  2
LTYPE
  5
2E27
330
0
100
AcDbSymbolTable
 70
     1
  0
LTYPE
  5
2E34
330
2E27
100
AcDbSymbolTableRecord
100
AcDbLinetypeTableRecord
  2
BYBLOCK
 70
     0
  3

 72
    65
 73
     0
 40
0.0
  0
LTYPE
  5
2E35
330
2E27
100
AcDbSymbolTableRecord
100
AcDbLinetypeTableRecord
  2
BYLAYER
 70
     0
  3

 72
    65
 73
     0
 40
0.0
  0
LTYPE
  5
2E36
330
2E27
100
AcDbSymbolTableRecord
100
AcDbLinetypeTableRecord
  2
CONTINUOUS
 70
     0
  3
Solid line
 72
    65
 73
     0
 40
0.0
  0
ENDTAB
  0
TABLE
  2
LAYER
  5
2E24
102
{ACAD_XDICTIONARY
360
15B01
102
}
330
0
100
AcDbSymbolTable
 70
     7
  0
LAYER
  5
2E31
330
2E24
100
AcDbSymbolTableRecord
100
AcDbLayerTableRecord
  2
0
 70
     0
 62
     7
  6
CONTINUOUS
370
    -3
390
158BF
347
1607B
  0
LAYER
  5
2E5D
330
2E24
100
AcDbSymbolTableRecord
100
AcDbLayerTableRecord
  2
LAYER1
 70
     0
 62
     7
  6
CONTINUOUS
370
    -3
390
158BF
347
1607B
  0
LAYER
  5
2E5F
330
2E24
100
AcDbSymbolTableRecord
100
AcDbLayerTableRecord
  2
TEKST
 70
     0
 62
     7
  6
CONTINUOUS
370
    -3
390
158BF
347
1607B
  0
LAYER
  5
2E60
330
2E24
100
AcDbSymbolTableRecord
100
AcDbLayerTableRecord
  2
DEFPOINTS
 70
     0
 62
     7
  6
CONTINUOUS
290
     0
370
    -3
390
158BF
347
1607B
  0
LAYER
  5
2E7C
330
2E24
100
AcDbSymbolTableRecord
100
AcDbLayerTableRecord
  2
ASHADE
 70
     4
 62
     7
  6
CONTINUOUS
370
    -3
390
158BF
347
1607B
  0
LAYER
  5
30B2
330
2E24
100
AcDbSymbolTableRecord
100
AcDbLayerTableRecord
  2
OMRISS
 70
     0
 62
     8
  6
CONTINUOUS
370
    -3
390
158BF
347
1607B
  0
LAYER
  5
15BDA
330
2E24
100
AcDbSymbolTableRecord
100
AcDbLayerTableRecord
  2
Omriss tanker
 70
     0
 62
    20
  6
CONTINUOUS
370
    -3
390
158BF
347
1607B
  0
ENDTAB
  0
TABLE
  2
STYLE
  5
2E25
330
0
100
AcDbSymbolTable
 70
     3
  0
STYLE
  5
2E32
330
2E25
100
AcDbSymbolTableRecord
100
AcDbTextStyleTableRecord
  2
STANDARD
 70
     0
 40
3.0
 41
1.0
 50
0.0
 71
     0
 42
3.0
  3
txt
  4

  0
STYLE
  5
2E40
330
2E25
100
AcDbSymbolTableRecord
100
AcDbTextStyleTableRecord
  2
ROMANS
 70
     0
 40
3.0
 41
1.0
 50
0.0
 71
     0
 42
3.0
  3
romans
  4

  0
STYLE
  5
5980
330
2E25
100
AcDbSymbolTableRecord
100
AcDbTextStyleTableRecord
  2
ARIAL
 70
     0
 40
12.0
 41
1.0
 50
0.0
 71
     0
 42
12.0
  3
ARIAL.TTF
  4

1001
ACAD
1000
Arial
1071
       34
  0
ENDTAB
  0
TABLE
  2
VIEW
  5
2E28
330
0
100
AcDbSymbolTable
 70
     0
  0
ENDTAB
  0
TABLE
  2
UCS
  5
2E29
330
0
100
AcDbSymbolTable
 70
     0
  0
ENDTAB
  0
TABLE
  2
APPID
  5
2E2B
330
0
100
AcDbSymbolTable
 70
     9
  0
APPID
  5
2E33
330
2E2B
100
AcDbSymbolTableRecord
100
AcDbRegAppTableRecord
  2
ACAD
 70
     0
  0
APPID
  5
2E5B
330
2E2B
100
AcDbSymbolTableRecord
100
AcDbRegAppTableRecord
  2
AME_SOL
 70
     0
  0
APPID
  5
2E7A
330
2E2B
100
AcDbSymbolTableRecord
100
AcDbRegAppTableRecord
  2
AVE_RENDER
 70
     0
  0
APPID
  5
2E7B
330
2E2B
100
AcDbSymbolTableRecord
100
AcDbRegAppTableRecord
  2
AVE_ENTITY_MATERIAL
 70
     0
  0
APPID
  5
2E88
330
2E2B
100
AcDbSymbolTableRecord
100
AcDbRegAppTableRecord
  2
AVE_FINISH
 70
     0
  0
APPID
  5
2E89
330
2E2B
100
AcDbSymbolTableRecord
100
AcDbRegAppTableRecord
  2
AVE_MATERIAL
 70
     0
  0
APPID
  5
2E8A
330
2E2B
100
AcDbSymbolTableRecord
100
AcDbRegAppTableRecord
  2
AVE_GLOBAL
 70
     0
  0
APPID
  5
15AF6
330
2E2B
100
AcDbSymbolTableRecord
100
AcDbRegAppTableRecord
  2
DCO15
 70
     0
  0
APPID
  5
16A18
330
2E2B
100
AcDbSymbolTableRecord
100
AcDbRegAppTableRecord
  2
ACAD_EXEMPT_FROM_CAD_STANDARDS
 70
     0
  0
ENDTAB
  0
TABLE
  2
DIMSTYLE
  5
2E2C
330
0
100
AcDbSymbolTable
 70
     2
100
AcDbDimStyleTable
 71
     1
340
2E5C
  0
DIMSTYLE
105
2E5C
330
2E2C
100
AcDbSymbolTableRecord
100
AcDbDimStyleTableRecord
  2
TST
 70
     0
 41
1.0
 42
0.06
140
2.5
146
0.072
147
3.0
271
     2
272
     2
279
     2
340
2E40
  0
DIMSTYLE
105
10DF2
330
2E2C
100
AcDbSymbolTableRecord
100
AcDbDimStyleTableRecord
  2
STANDARD
 70
     0
340
2E32
  0
ENDTAB
  0
TABLE
  2
BLOCK_RECORD
  5
2E23
330
0
100
AcDbSymbolTable
 70
     4
  0
BLOCK_RECORD
  5
2E3A
330
2E23
100
AcDbSymbolTableRecord
100
AcDbBlockTableRecord
  2
*MODEL_SPACE
340
158C2
 70
     0
280
     1
281
     0
  0
BLOCK_RECORD
  5
2E37
330
2E23
100
AcDbSymbolTableRecord
100
AcDbBlockTableRecord
  2
*PAPER_SPACE
340
158C3
 70
     0
280
     1
281
     0
  0
BLOCK_RECORD
  5
2E3E
330
2E23
100
AcDbSymbolTableRecord
100
AcDbBlockTableRecord
  2
AME_NIL
340
0
102
{BLKREFS
331
17
331
10E9D
331
10EAA
331
10EB6
331
13A16
331
13A23
331
13A2F
102
}
 70
     0
280
     1
281
     0
  0
BLOCK_RECORD
  5
2E3F
330
2E23
100
AcDbSymbolTableRecord
100
AcDbBlockTableRecord
  2
AME_SOL
340
0
102
{BLKREFS
331
29
331
10E9E
331
10EAB
331
10EB7
331
13A17
331
13A24
331
13A30
102
}
 70
     0
280
     1
281
     0
  0
BLOCK_RECORD
  5
2E7D
330
2E23
100
AcDbSymbolTableRecord
100
AcDbBlockTableRecord
  2
AVE_RENDER
340
0
102
{BLKREFS
331
2E80
331
2E81
331
2E82
331
2E83
331
2E84
331
2E85
331
2E86
331
2E87
331
10EA0
331
10EA1
331
10EA2
331
10EA3
331
10EA4
331
10EA5
331
10EA6
331
10EA7
331
10EAD
331
10EAE
331
10EAF
331
10EB0
331
10EB1
331
10EB2
331
10EB3
331
10EB4
331
10EB9
331
10EBA
331
10EBB
331
10EBC
331
10EBD
331
10EBE
331
10EBF
331
10EC0
331
13A19
331
13A1A
331
13A1B
331
13A1C
331
13A1D
331
13A1E
331
13A1F
331
13A20
331
13A26
331
13A27
331
13A28
331
13A29
331
13A2A
331
13A2B
331
13A2C
331
13A2D
331
13A32
331
13A33
331
13A34
331
13A35
331
13A36
331
13A37
331
13A38
331
13A39
102
}
 70
     0
280
     1
281
     0
  0
BLOCK_RECORD
  5
2E8B
330
2E23
100
AcDbSymbolTableRecord
100
AcDbBlockTableRecord
  2
AVE_GLOBAL
340
0
102
{BLKREFS
331
2E8E
331
10EA8
331
10EB5
331
10EC1
331
13A21
331
13A2E
331
13A3A
102
}
 70
     0
280
     1
281
     0
  0
ENDTAB
  0
ENDSEC
  0
SECTION
  2
BLOCKS
  0
BLOCK
  5
2E63
330
2E3A
100
AcDbEntity
  8
0
100
AcDbBlockBegin
  2
*MODEL_SPACE
 70
     0
 10
0.0
 20
0.0
 30
0.0
  3
*MODEL_SPACE
  1

  0
ENDBLK
  5
2E64
330
2E3A
100
AcDbEntity
  8
0
100
AcDbBlockEnd
  0
BLOCK
  5
2E61
330
2E37
100
AcDbEntity
 67
     1
  8
0
100
AcDbBlockBegin
  2
*PAPER_SPACE
 70
     0
 10
0.0
 20
0.0
 30
0.0
  3
*PAPER_SPACE
  1

  0
ENDBLK
  5
2E62
330
2E37
100
AcDbEntity
 67
     1
  8
0
100
AcDbBlockEnd
  0
BLOCK
  5
E
330
2E3E
100
AcDbEntity
  8
0
100
AcDbBlockBegin
  2
AME_NIL
 70
     0
 10
0.0
 20
0.0
 30
0.0
  3
AME_NIL
  1
AME_NIL
  0
ENDBLK
  5
F
330
2E3E
100
AcDbEntity
  8
0
100
AcDbBlockEnd
  0
BLOCK
  5
11
330
2E3F
100
AcDbEntity
  8
0
100
AcDbBlockBegin
  2
AME_SOL
 70
     0
 10
0.0
 20
0.0
 30
0.0
  3
AME_SOL
  1
AME_SOL
  0
ENDBLK
  5
12
330
2E3F
100
AcDbEntity
  8
0
100
AcDbBlockEnd
  0
BLOCK
  5
2E7E
330
2E7D
100
AcDbEntity
  8
0
100
AcDbBlockBegin
  2
AVE_RENDER
 70
     0
 10
0.0
 20
0.0
 30
0.0
  3
AVE_RENDER
  1
AVE_RENDER
  0
ENDBLK
  5
2E7F
330
2E7D
100
AcDbEntity
  8
0
100
AcDbBlockEnd
  0
BLOCK
  5
2E8C
330
2E8B
100
AcDbEntity
  8
0
100
AcDbBlockBegin
  2
AVE_GLOBAL
 70
     0
 10
0.0
 20
0.0
 30
0.0
  3
AVE_GLOBAL
  1
AVE_GLOBAL
  0
ENDBLK
  5
2E8D
330
2E8B
100
AcDbEntity
  8
0
100
AcDbBlockEnd
  0
ENDSEC
  0
SECTION
  2
ENTITIES
  0
INSERT
  5
17
330
2E3A
100
AcDbEntity
  8
LAYER1
100
AcDbBlockReference
  2
AME_NIL
 10
0.0
 20
0.0
 30
0.0
  0
INSERT
  5
29
330
2E3A
100
AcDbEntity
  8
LAYER1
100
AcDbBlockReference
  2
AME_SOL
 10
0.0
 20
0.0
 30
0.0
1001
AME_SOL
1000
R2.1
1000
AME2
1000
sq m
1070
     3
1070
     0
1070
     3
1000
mesh
1040
45.0
1000
U
1040
1.0
1000
m
1000
gm
1000
MILD_STEEL
1070
    25
1000
CSG
1070
     1
1070
     3
1070
     3
1070
     3
1070
     0
1000
cu cm
1070
     1
1070
     0
1005
17
  0
TEXT
  5
50
330
2E3A
100
AcDbEntity
  8
TEKST
100
AcDbText
 10
11.52210026922298
 20
20.64189715824095
 30
0.0
 40
2.5
  1

  7
ROMANS
100
AcDbText
  0
INSERT
  5
2E80
330
2E3A
100
AcDbEntity
  8
ASHADE
 62
     1
100
AcDbBlockReference
  2
AVE_RENDER
 10
0.0
 20
0.0
 30
0.0
1001
AVE_RENDER
1002
{
1070
     6
1000
Pref
1070
    30
1070
    20
1070
     1
1070
     0
1000

1070
    10
1070
     1
1070
    30
1040
1.0
1070
     1
1040
0.3
1040
0.7
1040
0.0
1040
10.0
1010
-1.0
1020
-1.0
1030
-1.0
1040
0.3
1070
    49
1070
     0
1070
     0
1010
1.0
1020
1.0
1030
1.0
1040
45.0
1070
     1
1070
     0
1000
WCS
1040
0.0
1002
}
  0
INSERT
  5
2E81
330
2E3A
100
AcDbEntity
  8
ASHADE
 62
     3
100
AcDbBlockReference
  2
AVE_RENDER
 10
0.0
 20
0.0
 30
0.0
1001
AVE_RENDER
1002
{
1070
     0
1000
Full Opt
1070
     0
1070
     1
1070
     1
1070
     1
1070
     0
1070
     0
1070
     0
1070
     1
1070
     1
1040
0.0001
1040
0.0001
1002
}
  0
INSERT
  5
2E82
330
2E3A
100
AcDbEntity
  8
ASHADE
 62
     4
100
AcDbBlockReference
  2
AVE_RENDER
 10
0.0
 20
0.0
 30
0.0
1001
AVE_RENDER
1002
{
1070
     0
1000
Quick Opt
1070
     0
1070
     1
1070
     1
1070
     1
1070
     0
1070
     0
1070
     1
1002
}
  0
INSERT
  5
2E83
330
2E3A
100
AcDbEntity
  8
ASHADE
 62
     5
100
AcDbBlockReference
  2
AVE_RENDER
 10
0.0
 20
0.0
 30
0.0
1001
AVE_RENDER
1002
{
1070
     1
1000
Scanl Opt
1070
     2
1070
     0
1070
     2
1040
2.0
1040
4.0
1070
     0
1070
     1
1070
     0
1040
0.03
1002
}
  0
INSERT
  5
2E84
330
2E3A
100
AcDbEntity
  8
ASHADE
 62
     6
100
AcDbBlockReference
  2
AVE_RENDER
 10
0.0
 20
0.0
 30
0.0
1001
AVE_RENDER
1002
{
1070
     2
1000
Raytr Opt
1070
     2
1070
     0
1070
     2
1040
2.0
1040
4.0
1070
     0
1070
     1
1070
     1
1040
0.03
1070
     3
1040
0.03
1002
}
  0
INSERT
  5
2E85
330
2E3A
100
AcDbEntity
  8
ASHADE
 62
     7
100
AcDbBlockReference
  2
AVE_RENDER
 10
0.0
 20
0.0
 30
0.0
1001
AVE_RENDER
1002
{
1070
     0
1000
RFile Opt
1070
     5
1070
   640
1070
   480
1070
 10000
1070
     3
1070
    32
1070
    24
1070
     0
1070
     0
1070
     0
1070
     1
1070
     0
1070
     0
1070
     0
1002
}
  0
INSERT
  5
2E86
330
2E3A
100
AcDbEntity
  8
ASHADE
 62
     8
100
AcDbBlockReference
  2
AVE_RENDER
 10
0.0
 20
0.0
 30
0.0
1001
AVE_RENDER
1002
{
1070
     0
1000
Fog Opt
1070
     0
1070
     0
1040
0.0
1040
1.0
1040
0.0
1040
1.0
1010
0.5
1020
0.5
1030
0.5
1002
}
  0
INSERT
  5
2E87
330
2E3A
100
AcDbEntity
  8
ASHADE
 62
     9
100
AcDbBlockReference
  2
AVE_RENDER
 10
0.0
 20
0.0
 30
0.0
1001
AVE_RENDER
1002
{
1070
     0
1000
BG Opt
1070
     0
1070
     1
1010
0.0
1020
0.0
1030
0.0
1010
1.0
1020
0.0
1030
0.0
1010
0.0
1020
1.0
1030
0.0
1010
0.0
1020
0.0
1030
1.0
1040
0.5
1040
0.33
1040
0.0
1000

1070
     1
1000

1070
     1
1070
     1
1040
1.0
1040
1.0
1040
0.0
1040
0.0
1070
     0
1002
}
  0
INSERT
  5
2E8E
330
2E3A
100
AcDbEntity
  8
ASHADE
 62
     1
100
AcDbBlockReference
  2
AVE_GLOBAL
 10
0.0
 20
0.0
 30
0.0
1001
AVE_MATERIAL
1002
{
1000
*GLOBAL*
1000
1
1000
Global finish.
1002
{
1002
}
1002
{
1070
    63
1002
{
1002
{
1010
-1.0
1020
-1.0
1030
-1.0
1002
}
1040
0.1000000014901161
1000

1040
0.0
1002
{
1002
}
1040
0.0
1002
{
1002
}
1040
0.0
1002
}
1002
{
1002
{
1010
-1.0
1020
-1.0
1030
-1.0
1002
}
1040
0.6999999880790711
1000

1040
0.0
1002
{
1002
}
1040
0.0
1002
{
1002
}
1040
0.0
1002
}
1002
{
1002
{
1010
-1.0
1020
-1.0
1030
-1.0
1002
}
1040
0.2000000029802322
1000

1040
0.0
1002
{
1002
}
1040
0.0
1002
{
1002
}
1040
0.0
1002
}
1002
{
1070
     0
1002
{
1070
     1
1002
{
1040
1.0
1040
1.0
1000

1040
0.0
1002
{
1002
}
1040
0.0
1002
{
1002
}
1040
0.0
1002
}
1002
}
1040
1.0
1040
0.0
1040
0.0
1002
}
1002
{
1040
1.0
1040
1.0
1000

1040
0.0
1002
{
1002
}
1040
0.0
1002
{
1002
}
1040
0.0
1002
}
1002
{
1040
0.5
1040
1.0
1000

1040
0.0
1002
{
1002
}
1040
0.0
1002
{
1002
}
1040
0.0
1002
}
1002
{
1070
     0
1040
0.0
1002
{
1002
}
1040
1.0
1002
{
1002
}
1040
0.0
1002
}
1002
{
1040
0.0
1002
{
1002
{
1010
0.0
1020
0.0
1030
0.0
1002
}
1040
1.0
1000

1040
0.0
1002
{
1002
}
1040
0.0
1002
{
1002
}
1040
0.0
1002
}
1002
}
1002
{
1002
{
1070
     1
1002
{
1040
0.0
1040
1.0
1000

1040
0.0
1002
{
1002
}
1040
0.0
1002
{
1002
}
1040
0.0
1002
}
1002
}
1040
0.0
1002
{
1002
}
1010
1.0
1020
0.0
1030
0.0
1010
0.0
1020
1.0
1030
0.0
1010
0.0
1020
0.0
1030
1.0
1070
     0
1002
}
1002
{
1002
{
1040
1.0
1040
1.0
1002
{
1070
     1
1002
{
1040
1.0
1040
1.0
1000

1040
0.0
1002
{
1002
}
1040
0.0
1002
{
1002
}
1040
0.0
1002
}
1002
}
1002
}
1070
     0
1040
0.0
1002
{
1002
}
1002
}
1002
{
1002
}
1002
}
1002
{
1071
        3
1070
     3
1070
     0
1002
{
1070
     2
1070
     0
1070
     0
1040
0.0
1002
}
1070
     0
1070
     2
1002
{
1002
}
1002
}
1002
{
1040
8030.0
1040
190.3000030517578
1040
0.3050000071525574
1040
228.0
1040
545.0
1040
14.0
1040
17.39999961853027
1040
0.4560000002384186
1002
}
1002
}
  0
INSERT
  5
10E9D
330
2E3A
100
AcDbEntity
  8
LAYER1
100
AcDbBlockReference
  2
AME_NIL
 10
436.8103605630293
 20
-215.6608172053943
 30
0.0
  0
INSERT
  5
10E9E
330
2E3A
100
AcDbEntity
  8
LAYER1
100
AcDbBlockReference
  2
AME_SOL
 10
436.8103605630293
 20
-215.6608172053943
 30
0.0
1001
AME_SOL
1000
R2.1
1000
AME2
1000
sq m
1070
     3
1070
     0
1070
     3
1000
mesh
1040
45.0
1000
U
1040
1.0
1000
m
1000
gm
1000
MILD_STEEL
1070
    25
1000
CSG
1070
     1
1070
     3
1070
     3
1070
     3
1070
     0
1000
cu cm
1070
     1
1070
     0
1005
10E9D
  0
TEXT
  5
10E9F
330
2E3A
100
AcDbEntity
  8
TEKST
100
AcDbText
 10
448.3324608322523
 20
-195.0189200471533
 30
0.0
 40
2.5
  1

  7
ROMANS
100
AcDbText
  0
INSERT
  5
10EA0
330
2E3A
100
AcDbEntity
  8
ASHADE
 62
     1
100
AcDbBlockReference
  2
AVE_RENDER
 10
436.8103605630293
 20
-215.6608172053943
 30
0.0
1001
AVE_RENDER
1002
{
1070
     6
1000
Pref
1070
    30
1070
    20
1070
     1
1070
     0
1000

1070
    10
1070
     1
1070
    30
1040
1.0
1070
     1
1040
0.3
1040
0.7
1040
0.0
1040
10.0
1010
-1.0
1020
-1.0
1030
-1.0
1040
0.3
1070
    49
1070
     0
1070
     0
1010
1.0
1020
1.0
1030
1.0
1040
45.0
1070
     1
1070
     0
1000
WCS
1040
0.0
1002
}
  0
INSERT
  5
10EA1
330
2E3A
100
AcDbEntity
  8
ASHADE
 62
     3
100
AcDbBlockReference
  2
AVE_RENDER
 10
436.8103605630293
 20
-215.6608172053943
 30
0.0
1001
AVE_RENDER
1002
{
1070
     0
1000
Full Opt
1070
     0
1070
     1
1070
     1
1070
     1
1070
     0
1070
     0
1070
     0
1070
     1
1070
     1
1040
0.0001
1040
0.0001
1002
}
  0
INSERT
  5
10EA2
330
2E3A
100
AcDbEntity
  8
ASHADE
 62
     4
100
AcDbBlockReference
  2
AVE_RENDER
 10
436.8103605630293
 20
-215.6608172053943
 30
0.0
1001
AVE_RENDER
1002
{
1070
     0
1000
Quick Opt
1070
     0
1070
     1
1070
     1
1070
     1
1070
     0
1070
     0
1070
     1
1002
}
  0
INSERT
  5
10EA3
330
2E3A
100
AcDbEntity
  8
ASHADE
 62
     5
100
AcDbBlockReference
  2
AVE_RENDER
 10
436.8103605630293
 20
-215.6608172053943
 30
0.0
1001
AVE_RENDER
1002
{
1070
     1
1000
Scanl Opt
1070
     2
1070
     0
1070
     2
1040
2.0
1040
4.0
1070
     0
1070
     1
1070
     0
1040
0.03
1002
}
  0
INSERT
  5
10EA4
330
2E3A
100
AcDbEntity
  8
ASHADE
 62
     6
100
AcDbBlockReference
  2
AVE_RENDER
 10
436.8103605630293
 20
-215.6608172053943
 30
0.0
1001
AVE_RENDER
1002
{
1070
     2
1000
Raytr Opt
1070
     2
1070
     0
1070
     2
1040
2.0
1040
4.0
1070
     0
1070
     1
1070
     1
1040
0.03
1070
     3
1040
0.03
1002
}
  0
INSERT
  5
10EA5
330
2E3A
100
AcDbEntity
  8
ASHADE
 62
     7
100
AcDbBlockReference
  2
AVE_RENDER
 10
436.8103605630293
 20
-215.6608172053943
 30
0.0
1001
AVE_RENDER
1002
{
1070
     0
1000
RFile Opt
1070
     5
1070
   640
1070
   480
1070
 10000
1070
     3
1070
    32
1070
    24
1070
     0
1070
     0
1070
     0
1070
     1
1070
     0
1070
     0
1070
     0
1002
}
  0
INSERT
  5
10EA6
330
2E3A
100
AcDbEntity
  8
ASHADE
 62
     8
100
AcDbBlockReference
  2
AVE_RENDER
 10
436.8103605630293
 20
-215.6608172053943
 30
0.0
1001
AVE_RENDER
1002
{
1070
     0
1000
Fog Opt
1070
     0
1070
     0
1040
0.0
1040
1.0
1040
0.0
1040
1.0
1010
0.5
1020
0.5
1030
0.5
1002
}
  0
INSERT
  5
10EA7
330
2E3A
100
AcDbEntity
  8
ASHADE
 62
     9
100
AcDbBlockReference
  2
AVE_RENDER
 10
436.8103605630293
 20
-215.6608172053943
 30
0.0
1001
AVE_RENDER
1002
{
1070
     0
1000
BG Opt
1070
     0
1070
     1
1010
0.0
1020
0.0
1030
0.0
1010
1.0
1020
0.0
1030
0.0
1010
0.0
1020
1.0
1030
0.0
1010
0.0
1020
0.0
1030
1.0
1040
0.5
1040
0.33
1040
0.0
1000

1070
     1
1000

1070
     1
1070
     1
1040
1.0
1040
1.0
1040
0.0
1040
0.0
1070
     0
1002
}
  0
INSERT
  5
10EA8
330
2E3A
100
AcDbEntity
  8
ASHADE
 62
     1
100
AcDbBlockReference
  2
AVE_GLOBAL
 10
436.8103605630293
 20
-215.6608172053943
 30
0.0
1001
AVE_MATERIAL
1002
{
1000
*GLOBAL*
1000
1
1000
Global finish.
1002
{
1002
}
1002
{
1070
    63
1002
{
1002
{
1010
-1.0
1020
-1.0
1030
-1.0
1002
}
1040
0.1000000014901161
1000

1040
0.0
1002
{
1002
}
1040
0.0
1002
{
1002
}
1040
0.0
1002
}
1002
{
1002
{
1010
-1.0
1020
-1.0
1030
-1.0
1002
}
1040
0.6999999880790711
1000

1040
0.0
1002
{
1002
}
1040
0.0
1002
{
1002
}
1040
0.0
1002
}
1002
{
1002
{
1010
-1.0
1020
-1.0
1030
-1.0
1002
}
1040
0.2000000029802322
1000

1040
0.0
1002
{
1002
}
1040
0.0
1002
{
1002
}
1040
0.0
1002
}
1002
{
1070
     0
1002
{
1070
     1
1002
{
1040
1.0
1040
1.0
1000

1040
0.0
1002
{
1002
}
1040
0.0
1002
{
1002
}
1040
0.0
1002
}
1002
}
1040
1.0
1040
0.0
1040
0.0
1002
}
1002
{
1040
1.0
1040
1.0
1000

1040
0.0
1002
{
1002
}
1040
0.0
1002
{
1002
}
1040
0.0
1002
}
1002
{
1040
0.5
1040
1.0
1000

1040
0.0
1002
{
1002
}
1040
0.0
1002
{
1002
}
1040
0.0
1002
}
1002
{
1070
     0
1040
0.0
1002
{
1002
}
1040
1.0
1002
{
1002
}
1040
0.0
1002
}
1002
{
1040
0.0
1002
{
1002
{
1010
0.0
1020
0.0
1030
0.0
1002
}
1040
1.0
1000

1040
0.0
1002
{
1002
}
1040
0.0
1002
{
1002
}
1040
0.0
1002
}
1002
}
1002
{
1002
{
1070
     1
1002
{
1040
0.0
1040
1.0
1000

1040
0.0
1002
{
1002
}
1040
0.0
1002
{
1002
}
1040
0.0
1002
}
1002
}
1040
0.0
1002
{
1002
}
1010
1.0
1020
0.0
1030
0.0
1010
0.0
1020
1.0
1030
0.0
1010
0.0
1020
0.0
1030
1.0
1070
     0
1002
}
1002
{
1002
{
1040
1.0
1040
1.0
1002
{
1070
     1
1002
{
1040
1.0
1040
1.0
1000

1040
0.0
1002
{
1002
}
1040
0.0
1002
{
1002
}
1040
0.0
1002
}
1002
}
1002
}
1070
     0
1040
0.0
1002
{
1002
}
1002
}
1002
{
1002
}
1002
}
1002
{
1071
        3
1070
     3
1070
     0
1002
{
1070
     2
1070
     0
1070
     0
1040
0.0
1002
}
1070
     0
1070
     2
1002
{
1002
}
1002
}
1002
{
1040
8030.0
1040
190.3000030517578
1040
0.3050000071525574
1040
228.0
1040
545.0
1040
14.0
1040
17.39999961853027
1040
0.4560000002384186
1002
}
1002
}
  0
TEXT
  5
10EA9
330
2E3A
100
AcDbEntity
  8
0
 62
     7
 48
5.0
100
AcDbText
 10
-1248.752895886679
 20
165.3686324960031
 30
0.0
 40
3.809829827610412
  1
 
 41
0.75
100
AcDbText
  0
INSERT
  5
10EAA
330
2E3A
100
AcDbEntity
  8
LAYER1
100
AcDbBlockReference
  2
AME_NIL
 10
-2402.748217515968
 20
517.4898289907482
 30
0.0
  0
INSERT
  5
10EAB
330
2E3A
100
AcDbEntity
  8
LAYER1
100
AcDbBlockReference
  2
AME_SOL
 10
-2402.748217515968
 20
517.4898289907482
 30
0.0
1001
AME_SOL
1000
R2.1
1000
AME2
1000
sq m
1070
     3
1070
     0
1070
     3
1000
mesh
1040
45.0
1000
U
1040
1.0
1000
m
1000
gm
1000
MILD_STEEL
1070
    25
1000
CSG
1070
     1
1070
     3
1070
     3
1070
     3
1070
     0
1000
cu cm
1070
     1
1070
     0
1005
10EAA
  0
TEXT
  5
10EAC
330
2E3A
100
AcDbEntity
  8
TEKST
100
AcDbText
 10
-2391.226117246745
 20
538.1317261489892
 30
0.0
 40
2.5
  1

  7
ROMANS
100
AcDbText
  0
INSERT
  5
10EAD
330
2E3A
100
AcDbEntity
  8
ASHADE
 62
     1
100
AcDbBlockReference
  2
AVE_RENDER
 10
-2402.748217515968
 20
517.4898289907482
 30
0.0
1001
AVE_RENDER
1002
{
1070
     6
1000
Pref
1070
    30
1070
    20
1070
     1
1070
     0
1000

1070
    10
1070
     1
1070
    30
1040
1.0
1070
     1
1040
0.3
1040
0.7
1040
0.0
1040
10.0
1010
-1.0
1020
-1.0
1030
-1.0
1040
0.3
1070
    49
1070
     0
1070
     0
1010
1.0
1020
1.0
1030
1.0
1040
45.0
1070
     1
1070
     0
1000
WCS
1040
0.0
1002
}
  0
INSERT
  5
10EAE
330
2E3A
100
AcDbEntity
  8
ASHADE
 62
     3
100
AcDbBlockReference
  2
AVE_RENDER
 10
-2402.748217515968
 20
517.4898289907482
 30
0.0
1001
AVE_RENDER
1002
{
1070
     0
1000
Full Opt
1070
     0
1070
     1
1070
     1
1070
     1
1070
     0
1070
     0
1070
     0
1070
     1
1070
     1
1040
0.0001
1040
0.0001
1002
}
  0
INSERT
  5
10EAF
330
2E3A
100
AcDbEntity
  8
ASHADE
 62
     4
100
AcDbBlockReference
  2
AVE_RENDER
 10
-2402.748217515968
 20
517.4898289907482
 30
0.0
1001
AVE_RENDER
1002
{
1070
     0
1000
Quick Opt
1070
     0
1070
     1
1070
     1
1070
     1
1070
     0
1070
     0
1070
     1
1002
}
  0
INSERT
  5
10EB0
330
2E3A
100
AcDbEntity
  8
ASHADE
 62
     5
100
AcDbBlockReference
  2
AVE_RENDER
 10
-2402.748217515968
 20
517.4898289907482
 30
0.0
1001
AVE_RENDER
1002
{
1070
     1
1000
Scanl Opt
1070
     2
1070
     0
1070
     2
1040
2.0
1040
4.0
1070
     0
1070
     1
1070
     0
1040
0.03
1002
}
  0
INSERT
  5
10EB1
330
2E3A
100
AcDbEntity
  8
ASHADE
 62
     6
100
AcDbBlockReference
  2
AVE_RENDER
 10
-2402.748217515968
 20
517.4898289907482
 30
0.0
1001
AVE_RENDER
1002
{
1070
     2
1000
Raytr Opt
1070
     2
1070
     0
1070
     2
1040
2.0
1040
4.0
1070
     0
1070
     1
1070
     1
1040
0.03
1070
     3
1040
0.03
1002
}
  0
INSERT
  5
10EB2
330
2E3A
100
AcDbEntity
  8
ASHADE
 62
     7
100
AcDbBlockReference
  2
AVE_RENDER
 10
-2402.748217515968
 20
517.4898289907482
 30
0.0
1001
AVE_RENDER
1002
{
1070
     0
1000
RFile Opt
1070
     5
1070
   640
1070
   480
1070
 10000
1070
     3
1070
    32
1070
    24
1070
     0
1070
     0
1070
     0
1070
     1
1070
     0
1070
     0
1070
     0
1002
}
  0
INSERT
  5
10EB3
330
2E3A
100
AcDbEntity
  8
ASHADE
 62
     8
100
AcDbBlockReference
  2
AVE_RENDER
 10
-2402.748217515968
 20
517.4898289907482
 30
0.0
1001
AVE_RENDER
1002
{
1070
     0
1000
Fog Opt
1070
     0
1070
     0
1040
0.0
1040
1.0
1040
0.0
1040
1.0
1010
0.5
1020
0.5
1030
0.5
1002
}
  0
INSERT
  5
10EB4
330
2E3A
100
AcDbEntity
  8
ASHADE
 62
     9
100
AcDbBlockReference
  2
AVE_RENDER
 10
-2402.748217515968
 20
517.4898289907482
 30
0.0
1001
AVE_RENDER
1002
{
1070
     0
1000
BG Opt
1070
     0
1070
     1
1010
0.0
1020
0.0
1030
0.0
1010
1.0
1020
0.0
1030
0.0
1010
0.0
1020
1.0
1030
0.0
1010
0.0
1020
0.0
1030
1.0
1040
0.5
1040
0.33
1040
0.0
1000

1070
     1
1000

1070
     1
1070
     1
1040
1.0
1040
1.0
1040
0.0
1040
0.0
1070
     0
1002
}
  0
INSERT
  5
10EB5
330
2E3A
100
AcDbEntity
  8
ASHADE
 62
     1
100
AcDbBlockReference
  2
AVE_GLOBAL
 10
-2402.748217515968
 20
517.4898289907482
 30
0.0
1001
AVE_MATERIAL
1002
{
1000
*GLOBAL*
1000
1
1000
Global finish.
1002
{
1002
}
1002
{
1070
    63
1002
{
1002
{
1010
-1.0
1020
-1.0
1030
-1.0
1002
}
1040
0.1000000014901161
1000

1040
0.0
1002
{
1002
}
1040
0.0
1002
{
1002
}
1040
0.0
1002
}
1002
{
1002
{
1010
-1.0
1020
-1.0
1030
-1.0
1002
}
1040
0.6999999880790711
1000

1040
0.0
1002
{
1002
}
1040
0.0
1002
{
1002
}
1040
0.0
1002
}
1002
{
1002
{
1010
-1.0
1020
-1.0
1030
-1.0
1002
}
1040
0.2000000029802322
1000

1040
0.0
1002
{
1002
}
1040
0.0
1002
{
1002
}
1040
0.0
1002
}
1002
{
1070
     0
1002
{
1070
     1
1002
{
1040
1.0
1040
1.0
1000

1040
0.0
1002
{
1002
}
1040
0.0
1002
{
1002
}
1040
0.0
1002
}
1002
}
1040
1.0
1040
0.0
1040
0.0
1002
}
1002
{
1040
1.0
1040
1.0
1000

1040
0.0
1002
{
1002
}
1040
0.0
1002
{
1002
}
1040
0.0
1002
}
1002
{
1040
0.5
1040
1.0
1000

1040
0.0
1002
{
1002
}
1040
0.0
1002
{
1002
}
1040
0.0
1002
}
1002
{
1070
     0
1040
0.0
1002
{
1002
}
1040
1.0
1002
{
1002
}
1040
0.0
1002
}
1002
{
1040
0.0
1002
{
1002
{
1010
0.0
1020
0.0
1030
0.0
1002
}
1040
1.0
1000

1040
0.0
1002
{
1002
}
1040
0.0
1002
{
1002
}
1040
0.0
1002
}
1002
}
1002
{
1002
{
1070
     1
1002
{
1040
0.0
1040
1.0
1000

1040
0.0
1002
{
1002
}
1040
0.0
1002
{
1002
}
1040
0.0
1002
}
1002
}
1040
0.0
1002
{
1002
}
1010
1.0
1020
0.0
1030
0.0
1010
0.0
1020
1.0
1030
0.0
1010
0.0
1020
0.0
1030
1.0
1070
     0
1002
}
1002
{
1002
{
1040
1.0
1040
1.0
1002
{
1070
     1
1002
{
1040
1.0
1040
1.0
1000

1040
0.0
1002
{
1002
}
1040
0.0
1002
{
1002
}
1040
0.0
1002
}
1002
}
1002
}
1070
     0
1040
0.0
1002
{
1002
}
1002
}
1002
{
1002
}
1002
}
1002
{
1071
        3
1070
     3
1070
     0
1002
{
1070
     2
1070
     0
1070
     0
1040
0.0
1002
}
1070
     0
1070
     2
1002
{
1002
}
1002
}
1002
{
1040
8030.0
1040
190.3000030517578
1040
0.3050000071525574
1040
228.0
1040
545.0
1040
14.0
1040
17.39999961853027
1040
0.4560000002384186
1002
}
1002
}
  0
INSERT
  5
10EB6
330
2E3A
100
AcDbEntity
  8
LAYER1
100
AcDbBlockReference
  2
AME_NIL
 10
-484.0180840161846
 20
686.0103158393807
 30
0.0
  0
INSERT
  5
10EB7
330
2E3A
100
AcDbEntity
  8
LAYER1
100
AcDbBlockReference
  2
AME_SOL
 10
-484.0180840161846
 20
686.0103158393807
 30
0.0
1001
AME_SOL
1000
R2.1
1000
AME2
1000
sq m
1070
     3
1070
     0
1070
     3
1000
mesh
1040
45.0
1000
U
1040
1.0
1000
m
1000
gm
1000
MILD_STEEL
1070
    25
1000
CSG
1070
     1
1070
     3
1070
     3
1070
     3
1070
     0
1000
cu cm
1070
     1
1070
     0
1005
10EB6
  0
TEXT
  5
10EB8
330
2E3A
100
AcDbEntity
  8
TEKST
100
AcDbText
 10
-472.4959837469618
 20
706.6522129976217
 30
0.0
 40
2.5
  1

  7
ROMANS
100
AcDbText
  0
INSERT
  5
10EB9
330
2E3A
100
AcDbEntity
  8
ASHADE
 62
     1
100
AcDbBlockReference
  2
AVE_RENDER
 10
-484.0180840161846
 20
686.0103158393807
 30
0.0
1001
AVE_RENDER
1002
{
1070
     6
1000
Pref
1070
    30
1070
    20
1070
     1
1070
     0
1000

1070
    10
1070
     1
1070
    30
1040
1.0
1070
     1
1040
0.3
1040
0.7
1040
0.0
1040
10.0
1010
-1.0
1020
-1.0
1030
-1.0
1040
0.3
1070
    49
1070
     0
1070
     0
1010
1.0
1020
1.0
1030
1.0
1040
45.0
1070
     1
1070
     0
1000
WCS
1040
0.0
1002
}
  0
INSERT
  5
10EBA
330
2E3A
100
AcDbEntity
  8
ASHADE
 62
     3
100
AcDbBlockReference
  2
AVE_RENDER
 10
-484.0180840161846
 20
686.0103158393807
 30
0.0
1001
AVE_RENDER
1002
{
1070
     0
1000
Full Opt
1070
     0
1070
     1
1070
     1
1070
     1
1070
     0
1070
     0
1070
     0
1070
     1
1070
     1
1040
0.0001
1040
0.0001
1002
}
  0
INSERT
  5
10EBB
330
2E3A
100
AcDbEntity
  8
ASHADE
 62
     4
100
AcDbBlockReference
  2
AVE_RENDER
 10
-484.0180840161846
 20
686.0103158393807
 30
0.0
1001
AVE_RENDER
1002
{
1070
     0
1000
Quick Opt
1070
     0
1070
     1
1070
     1
1070
     1
1070
     0
1070
     0
1070
     1
1002
}
  0
INSERT
  5
10EBC
330
2E3A
100
AcDbEntity
  8
ASHADE
 62
     5
100
AcDbBlockReference
  2
AVE_RENDER
 10
-484.0180840161846
 20
686.0103158393807
 30
0.0
1001
AVE_RENDER
1002
{
1070
     1
1000
Scanl Opt
1070
     2
1070
     0
1070
     2
1040
2.0
1040
4.0
1070
     0
1070
     1
1070
     0
1040
0.03
1002
}
  0
INSERT
  5
10EBD
330
2E3A
100
AcDbEntity
  8
ASHADE
 62
     6
100
AcDbBlockReference
  2
AVE_RENDER
 10
-484.0180840161846
 20
686.0103158393807
 30
0.0
1001
AVE_RENDER
1002
{
1070
     2
1000
Raytr Opt
1070
     2
1070
     0
1070
     2
1040
2.0
1040
4.0
1070
     0
1070
     1
1070
     1
1040
0.03
1070
     3
1040
0.03
1002
}
  0
INSERT
  5
10EBE
330
2E3A
100
AcDbEntity
  8
ASHADE
 62
     7
100
AcDbBlockReference
  2
AVE_RENDER
 10
-484.0180840161846
 20
686.0103158393807
 30
0.0
1001
AVE_RENDER
1002
{
1070
     0
1000
RFile Opt
1070
     5
1070
   640
1070
   480
1070
 10000
1070
     3
1070
    32
1070
    24
1070
     0
1070
     0
1070
     0
1070
     1
1070
     0
1070
     0
1070
     0
1002
}
  0
INSERT
  5
10EBF
330
2E3A
100
AcDbEntity
  8
ASHADE
 62
     8
100
AcDbBlockReference
  2
AVE_RENDER
 10
-484.0180840161846
 20
686.0103158393807
 30
0.0
1001
AVE_RENDER
1002
{
1070
     0
1000
Fog Opt
1070
     0
1070
     0
1040
0.0
1040
1.0
1040
0.0
1040
1.0
1010
0.5
1020
0.5
1030
0.5
1002
}
  0
INSERT
  5
10EC0
330
2E3A
100
AcDbEntity
  8
ASHADE
 62
     9
100
AcDbBlockReference
  2
AVE_RENDER
 10
-484.0180840161846
 20
686.0103158393807
 30
0.0
1001
AVE_RENDER
1002
{
1070
     0
1000
BG Opt
1070
     0
1070
     1
1010
0.0
1020
0.0
1030
0.0
1010
1.0
1020
0.0
1030
0.0
1010
0.0
1020
1.0
1030
0.0
1010
0.0
1020
0.0
1030
1.0
1040
0.5
1040
0.33
1040
0.0
1000

1070
     1
1000

1070
     1
1070
     1
1040
1.0
1040
1.0
1040
0.0
1040
0.0
1070
     0
1002
}
  0
INSERT
  5
10EC1
330
2E3A
100
AcDbEntity
  8
ASHADE
 62
     1
100
AcDbBlockReference
  2
AVE_GLOBAL
 10
-484.0180840161846
 20
686.0103158393807
 30
0.0
1001
AVE_MATERIAL
1002
{
1000
*GLOBAL*
1000
1
1000
Global finish.
1002
{
1002
}
1002
{
1070
    63
1002
{
1002
{
1010
-1.0
1020
-1.0
1030
-1.0
1002
}
1040
0.1000000014901161
1000

1040
0.0
1002
{
1002
}
1040
0.0
1002
{
1002
}
1040
0.0
1002
}
1002
{
1002
{
1010
-1.0
1020
-1.0
1030
-1.0
1002
}
1040
0.6999999880790711
1000

1040
0.0
1002
{
1002
}
1040
0.0
1002
{
1002
}
1040
0.0
1002
}
1002
{
1002
{
1010
-1.0
1020
-1.0
1030
-1.0
1002
}
1040
0.2000000029802322
1000

1040
0.0
1002
{
1002
}
1040
0.0
1002
{
1002
}
1040
0.0
1002
}
1002
{
1070
     0
1002
{
1070
     1
1002
{
1040
1.0
1040
1.0
1000

1040
0.0
1002
{
1002
}
1040
0.0
1002
{
1002
}
1040
0.0
1002
}
1002
}
1040
1.0
1040
0.0
1040
0.0
1002
}
1002
{
1040
1.0
1040
1.0
1000

1040
0.0
1002
{
1002
}
1040
0.0
1002
{
1002
}
1040
0.0
1002
}
1002
{
1040
0.5
1040
1.0
1000

1040
0.0
1002
{
1002
}
1040
0.0
1002
{
1002
}
1040
0.0
1002
}
1002
{
1070
     0
1040
0.0
1002
{
1002
}
1040
1.0
1002
{
1002
}
1040
0.0
1002
}
1002
{
1040
0.0
1002
{
1002
{
1010
0.0
1020
0.0
1030
0.0
1002
}
1040
1.0
1000

1040
0.0
1002
{
1002
}
1040
0.0
1002
{
1002
}
1040
0.0
1002
}
1002
}
1002
{
1002
{
1070
     1
1002
{
1040
0.0
1040
1.0
1000

1040
0.0
1002
{
1002
}
1040
0.0
1002
{
1002
}
1040
0.0
1002
}
1002
}
1040
0.0
1002
{
1002
}
1010
1.0
1020
0.0
1030
0.0
1010
0.0
1020
1.0
1030
0.0
1010
0.0
1020
0.0
1030
1.0
1070
     0
1002
}
1002
{
1002
{
1040
1.0
1040
1.0
1002
{
1070
     1
1002
{
1040
1.0
1040
1.0
1000

1040
0.0
1002
{
1002
}
1040
0.0
1002
{
1002
}
1040
0.0
1002
}
1002
}
1002
}
1070
     0
1040
0.0
1002
{
1002
}
1002
}
1002
{
1002
}
1002
}
1002
{
1071
        3
1070
     3
1070
     0
1002
{
1070
     2
1070
     0
1070
     0
1040
0.0
1002
}
1070
     0
1070
     2
1002
{
1002
}
1002
}
1002
{
1040
8030.0
1040
190.3000030517578
1040
0.3050000071525574
1040
228.0
1040
545.0
1040
14.0
1040
17.39999961853027
1040
0.4560000002384186
1002
}
1002
}
  0
TEXT
  5
10EC2
330
2E3A
100
AcDbEntity
  8
0
 62
     7
 48
5.0
100
AcDbText
 10
-2169.581340465893
 20
1067.039765540778
 30
0.0
 40
3.809829827610412
  1
 
 41
0.75
100
AcDbText
  0
INSERT
  5
13A16
330
2E3A
100
AcDbEntity
  8
LAYER1
100
AcDbBlockReference
  2
AME_NIL
 10
1127.527252663858
 20
-264.6230569512117
 30
0.0
  0
INSERT
  5
13A17
330
2E3A
100
AcDbEntity
  8
LAYER1
100
AcDbBlockReference
  2
AME_SOL
 10
1127.527252663858
 20
-264.6230569512117
 30
0.0
1001
AME_SOL
1000
R2.1
1000
AME2
1000
sq m
1070
     3
1070
     0
1070
     3
1000
mesh
1040
45.0
1000
U
1040
1.0
1000
m
1000
gm
1000
MILD_STEEL
1070
    25
1000
CSG
1070
     1
1070
     3
1070
     3
1070
     3
1070
     0
1000
cu cm
1070
     1
1070
     0
1005
13A16
  0
TEXT
  5
13A18
330
2E3A
100
AcDbEntity
  8
TEKST
100
AcDbText
 10
1139.049352933081
 20
-243.9811597929708
 30
0.0
 40
2.5
  1

  7
ROMANS
100
AcDbText
  0
INSERT
  5
13A19
330
2E3A
100
AcDbEntity
  8
ASHADE
 62
     1
100
AcDbBlockReference
  2
AVE_RENDER
 10
1127.527252663858
 20
-264.6230569512117
 30
0.0
1001
AVE_RENDER
1002
{
1070
     6
1000
Pref
1070
    30
1070
    20
1070
     1
1070
     0
1000

1070
    10
1070
     1
1070
    30
1040
1.0
1070
     1
1040
0.3
1040
0.7
1040
0.0
1040
10.0
1010
-1.0
1020
-1.0
1030
-1.0
1040
0.3
1070
    49
1070
     0
1070
     0
1010
1.0
1020
1.0
1030
1.0
1040
45.0
1070
     1
1070
     0
1000
WCS
1040
0.0
1002
}
  0
INSERT
  5
13A1A
330
2E3A
100
AcDbEntity
  8
ASHADE
 62
     3
100
AcDbBlockReference
  2
AVE_RENDER
 10
1127.527252663858
 20
-264.6230569512117
 30
0.0
1001
AVE_RENDER
1002
{
1070
     0
1000
Full Opt
1070
     0
1070
     1
1070
     1
1070
     1
1070
     0
1070
     0
1070
     0
1070
     1
1070
     1
1040
0.0001
1040
0.0001
1002
}
  0
INSERT
  5
13A1B
330
2E3A
100
AcDbEntity
  8
ASHADE
 62
     4
100
AcDbBlockReference
  2
AVE_RENDER
 10
1127.527252663858
 20
-264.6230569512117
 30
0.0
1001
AVE_RENDER
1002
{
1070
     0
1000
Quick Opt
1070
     0
1070
     1
1070
     1
1070
     1
1070
     0
1070
     0
1070
     1
1002
}
  0
INSERT
  5
13A1C
330
2E3A
100
AcDbEntity
  8
ASHADE
 62
     5
100
AcDbBlockReference
  2
AVE_RENDER
 10
1127.527252663858
 20
-264.6230569512117
 30
0.0
1001
AVE_RENDER
1002
{
1070
     1
1000
Scanl Opt
1070
     2
1070
     0
1070
     2
1040
2.0
1040
4.0
1070
     0
1070
     1
1070
     0
1040
0.03
1002
}
  0
INSERT
  5
13A1D
330
2E3A
100
AcDbEntity
  8
ASHADE
 62
     6
100
AcDbBlockReference
  2
AVE_RENDER
 10
1127.527252663858
 20
-264.6230569512117
 30
0.0
1001
AVE_RENDER
1002
{
1070
     2
1000
Raytr Opt
1070
     2
1070
     0
1070
     2
1040
2.0
1040
4.0
1070
     0
1070
     1
1070
     1
1040
0.03
1070
     3
1040
0.03
1002
}
  0
INSERT
  5
13A1E
330
2E3A
100
AcDbEntity
  8
ASHADE
 62
     7
100
AcDbBlockReference
  2
AVE_RENDER
 10
1127.527252663858
 20
-264.6230569512117
 30
0.0
1001
AVE_RENDER
1002
{
1070
     0
1000
RFile Opt
1070
     5
1070
   640
1070
   480
1070
 10000
1070
     3
1070
    32
1070
    24
1070
     0
1070
     0
1070
     0
1070
     1
1070
     0
1070
     0
1070
     0
1002
}
  0
INSERT
  5
13A1F
330
2E3A
100
AcDbEntity
  8
ASHADE
 62
     8
100
AcDbBlockReference
  2
AVE_RENDER
 10
1127.527252663858
 20
-264.6230569512117
 30
0.0
1001
AVE_RENDER
1002
{
1070
     0
1000
Fog Opt
1070
     0
1070
     0
1040
0.0
1040
1.0
1040
0.0
1040
1.0
1010
0.5
1020
0.5
1030
0.5
1002
}
  0
INSERT
  5
13A20
330
2E3A
100
AcDbEntity
  8
ASHADE
 62
     9
100
AcDbBlockReference
  2
AVE_RENDER
 10
1127.527252663858
 20
-264.6230569512117
 30
0.0
1001
AVE_RENDER
1002
{
1070
     0
1000
BG Opt
1070
     0
1070
     1
1010
0.0
1020
0.0
1030
0.0
1010
1.0
1020
0.0
1030
0.0
1010
0.0
1020
1.0
1030
0.0
1010
0.0
1020
0.0
1030
1.0
1040
0.5
1040
0.33
1040
0.0
1000

1070
     1
1000

1070
     1
1070
     1
1040
1.0
1040
1.0
1040
0.0
1040
0.0
1070
     0
1002
}
  0
INSERT
  5
13A21
330
2E3A
100
AcDbEntity
  8
ASHADE
 62
     1
100
AcDbBlockReference
  2
AVE_GLOBAL
 10
1127.527252663858
 20
-264.6230569512117
 30
0.0
1001
AVE_MATERIAL
1002
{
1000
*GLOBAL*
1000
1
1000
Global finish.
1002
{
1002
}
1002
{
1070
    63
1002
{
1002
{
1010
-1.0
1020
-1.0
1030
-1.0
1002
}
1040
0.1000000014901161
1000

1040
0.0
1002
{
1002
}
1040
0.0
1002
{
1002
}
1040
0.0
1002
}
1002
{
1002
{
1010
-1.0
1020
-1.0
1030
-1.0
1002
}
1040
0.6999999880790711
1000

1040
0.0
1002
{
1002
}
1040
0.0
1002
{
1002
}
1040
0.0
1002
}
1002
{
1002
{
1010
-1.0
1020
-1.0
1030
-1.0
1002
}
1040
0.2000000029802322
1000

1040
0.0
1002
{
1002
}
1040
0.0
1002
{
1002
}
1040
0.0
1002
}
1002
{
1070
     0
1002
{
1070
     1
1002
{
1040
1.0
1040
1.0
1000

1040
0.0
1002
{
1002
}
1040
0.0
1002
{
1002
}
1040
0.0
1002
}
1002
}
1040
1.0
1040
0.0
1040
0.0
1002
}
1002
{
1040
1.0
1040
1.0
1000

1040
0.0
1002
{
1002
}
1040
0.0
1002
{
1002
}
1040
0.0
1002
}
1002
{
1040
0.5
1040
1.0
1000

1040
0.0
1002
{
1002
}
1040
0.0
1002
{
1002
}
1040
0.0
1002
}
1002
{
1070
     0
1040
0.0
1002
{
1002
}
1040
1.0
1002
{
1002
}
1040
0.0
1002
}
1002
{
1040
0.0
1002
{
1002
{
1010
0.0
1020
0.0
1030
0.0
1002
}
1040
1.0
1000

1040
0.0
1002
{
1002
}
1040
0.0
1002
{
1002
}
1040
0.0
1002
}
1002
}
1002
{
1002
{
1070
     1
1002
{
1040
0.0
1040
1.0
1000

1040
0.0
1002
{
1002
}
1040
0.0
1002
{
1002
}
1040
0.0
1002
}
1002
}
1040
0.0
1002
{
1002
}
1010
1.0
1020
0.0
1030
0.0
1010
0.0
1020
1.0
1030
0.0
1010
0.0
1020
0.0
1030
1.0
1070
     0
1002
}
1002
{
1002
{
1040
1.0
1040
1.0
1002
{
1070
     1
1002
{
1040
1.0
1040
1.0
1000

1040
0.0
1002
{
1002
}
1040
0.0
1002
{
1002
}
1040
0.0
1002
}
1002
}
1002
}
1070
     0
1040
0.0
1002
{
1002
}
1002
}
1002
{
1002
}
1002
}
1002
{
1071
        3
1070
     3
1070
     0
1002
{
1070
     2
1070
     0
1070
     0
1040
0.0
1002
}
1070
     0
1070
     2
1002
{
1002
}
1002
}
1002
{
1040
8030.0
1040
190.3000030517578
1040
0.3050000071525574
1040
228.0
1040
545.0
1040
14.0
1040
17.39999961853027
1040
0.4560000002384186
1002
}
1002
}
  0
TEXT
  5
13A22
330
2E3A
100
AcDbEntity
  8
0
 62
     7
 48
5.0
100
AcDbText
 10
-558.0360037858501
 20
116.4063927501858
 30
0.0
 40
3.809829827610412
  1
 
 41
0.75
100
AcDbText
  0
INSERT
  5
13A23
330
2E3A
100
AcDbEntity
  8
LAYER1
100
AcDbBlockReference
  2
AME_NIL
 10
-1712.031325415138
 20
468.5275892449308
 30
0.0
  0
INSERT
  5
13A24
330
2E3A
100
AcDbEntity
  8
LAYER1
100
AcDbBlockReference
  2
AME_SOL
 10
-1712.031325415138
 20
468.5275892449308
 30
0.0
1001
AME_SOL
1000
R2.1
1000
AME2
1000
sq m
1070
     3
1070
     0
1070
     3
1000
mesh
1040
45.0
1000
U
1040
1.0
1000
m
1000
gm
1000
MILD_STEEL
1070
    25
1000
CSG
1070
     1
1070
     3
1070
     3
1070
     3
1070
     0
1000
cu cm
1070
     1
1070
     0
1005
13A23
  0
TEXT
  5
13A25
330
2E3A
100
AcDbEntity
  8
TEKST
100
AcDbText
 10
-1700.509225145916
 20
489.1694864031718
 30
0.0
 40
2.5
  1

  7
ROMANS
100
AcDbText
  0
INSERT
  5
13A26
330
2E3A
100
AcDbEntity
  8
ASHADE
 62
     1
100
AcDbBlockReference
  2
AVE_RENDER
 10
-1712.031325415138
 20
468.5275892449308
 30
0.0
1001
AVE_RENDER
1002
{
1070
     6
1000
Pref
1070
    30
1070
    20
1070
     1
1070
     0
1000

1070
    10
1070
     1
1070
    30
1040
1.0
1070
     1
1040
0.3
1040
0.7
1040
0.0
1040
10.0
1010
-1.0
1020
-1.0
1030
-1.0
1040
0.3
1070
    49
1070
     0
1070
     0
1010
1.0
1020
1.0
1030
1.0
1040
45.0
1070
     1
1070
     0
1000
WCS
1040
0.0
1002
}
  0
INSERT
  5
13A27
330
2E3A
100
AcDbEntity
  8
ASHADE
 62
     3
100
AcDbBlockReference
  2
AVE_RENDER
 10
-1712.031325415138
 20
468.5275892449308
 30
0.0
1001
AVE_RENDER
1002
{
1070
     0
1000
Full Opt
1070
     0
1070
     1
1070
     1
1070
     1
1070
     0
1070
     0
1070
     0
1070
     1
1070
     1
1040
0.0001
1040
0.0001
1002
}
  0
INSERT
  5
13A28
330
2E3A
100
AcDbEntity
  8
ASHADE
 62
     4
100
AcDbBlockReference
  2
AVE_RENDER
 10
-1712.031325415138
 20
468.5275892449308
 30
0.0
1001
AVE_RENDER
1002
{
1070
     0
1000
Quick Opt
1070
     0
1070
     1
1070
     1
1070
     1
1070
     0
1070
     0
1070
     1
1002
}
  0
INSERT
  5
13A29
330
2E3A
100
AcDbEntity
  8
ASHADE
 62
     5
100
AcDbBlockReference
  2
AVE_RENDER
 10
-1712.031325415138
 20
468.5275892449308
 30
0.0
1001
AVE_RENDER
1002
{
1070
     1
1000
Scanl Opt
1070
     2
1070
     0
1070
     2
1040
2.0
1040
4.0
1070
     0
1070
     1
1070
     0
1040
0.03
1002
}
  0
INSERT
  5
13A2A
330
2E3A
100
AcDbEntity
  8
ASHADE
 62
     6
100
AcDbBlockReference
  2
AVE_RENDER
 10
-1712.031325415138
 20
468.5275892449308
 30
0.0
1001
AVE_RENDER
1002
{
1070
     2
1000
Raytr Opt
1070
     2
1070
     0
1070
     2
1040
2.0
1040
4.0
1070
     0
1070
     1
1070
     1
1040
0.03
1070
     3
1040
0.03
1002
}
  0
INSERT
  5
13A2B
330
2E3A
100
AcDbEntity
  8
ASHADE
 62
     7
100
AcDbBlockReference
  2
AVE_RENDER
 10
-1712.031325415138
 20
468.5275892449308
 30
0.0
1001
AVE_RENDER
1002
{
1070
     0
1000
RFile Opt
1070
     5
1070
   640
1070
   480
1070
 10000
1070
     3
1070
    32
1070
    24
1070
     0
1070
     0
1070
     0
1070
     1
1070
     0
1070
     0
1070
     0
1002
}
  0
INSERT
  5
13A2C
330
2E3A
100
AcDbEntity
  8
ASHADE
 62
     8
100
AcDbBlockReference
  2
AVE_RENDER
 10
-1712.031325415138
 20
468.5275892449308
 30
0.0
1001
AVE_RENDER
1002
{
1070
     0
1000
Fog Opt
1070
     0
1070
     0
1040
0.0
1040
1.0
1040
0.0
1040
1.0
1010
0.5
1020
0.5
1030
0.5
1002
}
  0
INSERT
  5
13A2D
330
2E3A
100
AcDbEntity
  8
ASHADE
 62
     9
100
AcDbBlockReference
  2
AVE_RENDER
 10
-1712.031325415138
 20
468.5275892449308
 30
0.0
1001
AVE_RENDER
1002
{
1070
     0
1000
BG Opt
1070
     0
1070
     1
1010
0.0
1020
0.0
1030
0.0
1010
1.0
1020
0.0
1030
0.0
1010
0.0
1020
1.0
1030
0.0
1010
0.0
1020
0.0
1030
1.0
1040
0.5
1040
0.33
1040
0.0
1000

1070
     1
1000

1070
     1
1070
     1
1040
1.0
1040
1.0
1040
0.0
1040
0.0
1070
     0
1002
}
  0
INSERT
  5
13A2E
330
2E3A
100
AcDbEntity
  8
ASHADE
 62
     1
100
AcDbBlockReference
  2
AVE_GLOBAL
 10
-1712.031325415138
 20
468.5275892449308
 30
0.0
1001
AVE_MATERIAL
1002
{
1000
*GLOBAL*
1000
1
1000
Global finish.
1002
{
1002
}
1002
{
1070
    63
1002
{
1002
{
1010
-1.0
1020
-1.0
1030
-1.0
1002
}
1040
0.1000000014901161
1000

1040
0.0
1002
{
1002
}
1040
0.0
1002
{
1002
}
1040
0.0
1002
}
1002
{
1002
{
1010
-1.0
1020
-1.0
1030
-1.0
1002
}
1040
0.6999999880790711
1000

1040
0.0
1002
{
1002
}
1040
0.0
1002
{
1002
}
1040
0.0
1002
}
1002
{
1002
{
1010
-1.0
1020
-1.0
1030
-1.0
1002
}
1040
0.2000000029802322
1000

1040
0.0
1002
{
1002
}
1040
0.0
1002
{
1002
}
1040
0.0
1002
}
1002
{
1070
     0
1002
{
1070
     1
1002
{
1040
1.0
1040
1.0
1000

1040
0.0
1002
{
1002
}
1040
0.0
1002
{
1002
}
1040
0.0
1002
}
1002
}
1040
1.0
1040
0.0
1040
0.0
1002
}
1002
{
1040
1.0
1040
1.0
1000

1040
0.0
1002
{
1002
}
1040
0.0
1002
{
1002
}
1040
0.0
1002
}
1002
{
1040
0.5
1040
1.0
1000

1040
0.0
1002
{
1002
}
1040
0.0
1002
{
1002
}
1040
0.0
1002
}
1002
{
1070
     0
1040
0.0
1002
{
1002
}
1040
1.0
1002
{
1002
}
1040
0.0
1002
}
1002
{
1040
0.0
1002
{
1002
{
1010
0.0
1020
0.0
1030
0.0
1002
}
1040
1.0
1000

1040
0.0
1002
{
1002
}
1040
0.0
1002
{
1002
}
1040
0.0
1002
}
1002
}
1002
{
1002
{
1070
     1
1002
{
1040
0.0
1040
1.0
1000

1040
0.0
1002
{
1002
}
1040
0.0
1002
{
1002
}
1040
0.0
1002
}
1002
}
1040
0.0
1002
{
1002
}
1010
1.0
1020
0.0
1030
0.0
1010
0.0
1020
1.0
1030
0.0
1010
0.0
1020
0.0
1030
1.0
1070
     0
1002
}
1002
{
1002
{
1040
1.0
1040
1.0
1002
{
1070
     1
1002
{
1040
1.0
1040
1.0
1000

1040
0.0
1002
{
1002
}
1040
0.0
1002
{
1002
}
1040
0.0
1002
}
1002
}
1002
}
1070
     0
1040
0.0
1002
{
1002
}
1002
}
1002
{
1002
}
1002
}
1002
{
1071
        3
1070
     3
1070
     0
1002
{
1070
     2
1070
     0
1070
     0
1040
0.0
1002
}
1070
     0
1070
     2
1002
{
1002
}
1002
}
1002
{
1040
8030.0
1040
190.3000030517578
1040
0.3050000071525574
1040
228.0
1040
545.0
1040
14.0
1040
17.39999961853027
1040
0.4560000002384186
1002
}
1002
}
  0
INSERT
  5
13A2F
330
2E3A
100
AcDbEntity
  8
LAYER1
100
AcDbBlockReference
  2
AME_NIL
 10
206.698808084644
 20
637.0480760935634
 30
0.0
  0
INSERT
  5
13A30
330
2E3A
100
AcDbEntity
  8
LAYER1
100
AcDbBlockReference
  2
AME_SOL
 10
206.698808084644
 20
637.0480760935634
 30
0.0
1001
AME_SOL
1000
R2.1
1000
AME2
1000
sq m
1070
     3
1070
     0
1070
     3
1000
mesh
1040
45.0
1000
U
1040
1.0
1000
m
1000
gm
1000
MILD_STEEL
1070
    25
1000
CSG
1070
     1
1070
     3
1070
     3
1070
     3
1070
     0
1000
cu cm
1070
     1
1070
     0
1005
13A2F
  0
TEXT
  5
13A31
330
2E3A
100
AcDbEntity
  8
TEKST
100
AcDbText
 10
218.220908353867
 20
657.6899732518043
 30
0.0
 40
2.5
  1

  7
ROMANS
100
AcDbText
  0
INSERT
  5
13A32
330
2E3A
100
AcDbEntity
  8
ASHADE
 62
     1
100
AcDbBlockReference
  2
AVE_RENDER
 10
206.698808084644
 20
637.0480760935634
 30
0.0
1001
AVE_RENDER
1002
{
1070
     6
1000
Pref
1070
    30
1070
    20
1070
     1
1070
     0
1000

1070
    10
1070
     1
1070
    30
1040
1.0
1070
     1
1040
0.3
1040
0.7
1040
0.0
1040
10.0
1010
-1.0
1020
-1.0
1030
-1.0
1040
0.3
1070
    49
1070
     0
1070
     0
1010
1.0
1020
1.0
1030
1.0
1040
45.0
1070
     1
1070
     0
1000
WCS
1040
0.0
1002
}
  0
INSERT
  5
13A33
330
2E3A
100
AcDbEntity
  8
ASHADE
 62
     3
100
AcDbBlockReference
  2
AVE_RENDER
 10
206.698808084644
 20
637.0480760935634
 30
0.0
1001
AVE_RENDER
1002
{
1070
     0
1000
Full Opt
1070
     0
1070
     1
1070
     1
1070
     1
1070
     0
1070
     0
1070
     0
1070
     1
1070
     1
1040
0.0001
1040
0.0001
1002
}
  0
INSERT
  5
13A34
330
2E3A
100
AcDbEntity
  8
ASHADE
 62
     4
100
AcDbBlockReference
  2
AVE_RENDER
 10
206.698808084644
 20
637.0480760935634
 30
0.0
1001
AVE_RENDER
1002
{
1070
     0
1000
Quick Opt
1070
     0
1070
     1
1070
     1
1070
     1
1070
     0
1070
     0
1070
     1
1002
}
  0
INSERT
  5
13A35
330
2E3A
100
AcDbEntity
  8
ASHADE
 62
     5
100
AcDbBlockReference
  2
AVE_RENDER
 10
206.698808084644
 20
637.0480760935634
 30
0.0
1001
AVE_RENDER
1002
{
1070
     1
1000
Scanl Opt
1070
     2
1070
     0
1070
     2
1040
2.0
1040
4.0
1070
     0
1070
     1
1070
     0
1040
0.03
1002
}
  0
INSERT
  5
13A36
330
2E3A
100
AcDbEntity
  8
ASHADE
 62
     6
100
AcDbBlockReference
  2
AVE_RENDER
 10
206.698808084644
 20
637.0480760935634
 30
0.0
1001
AVE_RENDER
1002
{
1070
     2
1000
Raytr Opt
1070
     2
1070
     0
1070
     2
1040
2.0
1040
4.0
1070
     0
1070
     1
1070
     1
1040
0.03
1070
     3
1040
0.03
1002
}
  0
INSERT
  5
13A37
330
2E3A
100
AcDbEntity
  8
ASHADE
 62
     7
100
AcDbBlockReference
  2
AVE_RENDER
 10
206.698808084644
 20
637.0480760935634
 30
0.0
1001
AVE_RENDER
1002
{
1070
     0
1000
RFile Opt
1070
     5
1070
   640
1070
   480
1070
 10000
1070
     3
1070
    32
1070
    24
1070
     0
1070
     0
1070
     0
1070
     1
1070
     0
1070
     0
1070
     0
1002
}
  0
INSERT
  5
13A38
330
2E3A
100
AcDbEntity
  8
ASHADE
 62
     8
100
AcDbBlockReference
  2
AVE_RENDER
 10
206.698808084644
 20
637.0480760935634
 30
0.0
1001
AVE_RENDER
1002
{
1070
     0
1000
Fog Opt
1070
     0
1070
     0
1040
0.0
1040
1.0
1040
0.0
1040
1.0
1010
0.5
1020
0.5
1030
0.5
1002
}
  0
INSERT
  5
13A39
330
2E3A
100
AcDbEntity
  8
ASHADE
 62
     9
100
AcDbBlockReference
  2
AVE_RENDER
 10
206.698808084644
 20
637.0480760935634
 30
0.0
1001
AVE_RENDER
1002
{
1070
     0
1000
BG Opt
1070
     0
1070
     1
1010
0.0
1020
0.0
1030
0.0
1010
1.0
1020
0.0
1030
0.0
1010
0.0
1020
1.0
1030
0.0
1010
0.0
1020
0.0
1030
1.0
1040
0.5
1040
0.33
1040
0.0
1000

1070
     1
1000

1070
     1
1070
     1
1040
1.0
1040
1.0
1040
0.0
1040
0.0
1070
     0
1002
}
  0
INSERT
  5
13A3A
330
2E3A
100
AcDbEntity
  8
ASHADE
 62
     1
100
AcDbBlockReference
  2
AVE_GLOBAL
 10
206.698808084644
 20
637.0480760935634
 30
0.0
1001
AVE_MATERIAL
1002
{
1000
*GLOBAL*
1000
1
1000
Global finish.
1002
{
1002
}
1002
{
1070
    63
1002
{
1002
{
1010
-1.0
1020
-1.0
1030
-1.0
1002
}
1040
0.1000000014901161
1000

1040
0.0
1002
{
1002
}
1040
0.0
1002
{
1002
}
1040
0.0
1002
}
1002
{
1002
{
1010
-1.0
1020
-1.0
1030
-1.0
1002
}
1040
0.6999999880790711
1000

1040
0.0
1002
{
1002
}
1040
0.0
1002
{
1002
}
1040
0.0
1002
}
1002
{
1002
{
1010
-1.0
1020
-1.0
1030
-1.0
1002
}
1040
0.2000000029802322
1000

1040
0.0
1002
{
1002
}
1040
0.0
1002
{
1002
}
1040
0.0
1002
}
1002
{
1070
     0
1002
{
1070
     1
1002
{
1040
1.0
1040
1.0
1000

1040
0.0
1002
{
1002
}
1040
0.0
1002
{
1002
}
1040
0.0
1002
}
1002
}
1040
1.0
1040
0.0
1040
0.0
1002
}
1002
{
1040
1.0
1040
1.0
1000

1040
0.0
1002
{
1002
}
1040
0.0
1002
{
1002
}
1040
0.0
1002
}
1002
{
1040
0.5
1040
1.0
1000

1040
0.0
1002
{
1002
}
1040
0.0
1002
{
1002
}
1040
0.0
1002
}
1002
{
1070
     0
1040
0.0
1002
{
1002
}
1040
1.0
1002
{
1002
}
1040
0.0
1002
}
1002
{
1040
0.0
1002
{
1002
{
1010
0.0
1020
0.0
1030
0.0
1002
}
1040
1.0
1000

1040
0.0
1002
{
1002
}
1040
0.0
1002
{
1002
}
1040
0.0
1002
}
1002
}
1002
{
1002
{
1070
     1
1002
{
1040
0.0
1040
1.0
1000

1040
0.0
1002
{
1002
}
1040
0.0
1002
{
1002
}
1040
0.0
1002
}
1002
}
1040
0.0
1002
{
1002
}
1010
1.0
1020
0.0
1030
0.0
1010
0.0
1020
1.0
1030
0.0
1010
0.0
1020
0.0
1030
1.0
1070
     0
1002
}
1002
{
1002
{
1040
1.0
1040
1.0
1002
{
1070
     1
1002
{
1040
1.0
1040
1.0
1000

1040
0.0
1002
{
1002
}
1040
0.0
1002
{
1002
}
1040
0.0
1002
}
1002
}
1002
}
1070
     0
1040
0.0
1002
{
1002
}
1002
}
1002
{
1002
}
1002
}
1002
{
1071
        3
1070
     3
1070
     0
1002
{
1070
     2
1070
     0
1070
     0
1040
0.0
1002
}
1070
     0
1070
     2
1002
{
1002
}
1002
}
1002
{
1040
8030.0
1040
190.3000030517578
1040
0.3050000071525574
1040
228.0
1040
545.0
1040
14.0
1040
17.39999961853027
1040
0.4560000002384186
1002
}
1002
}
  0
TEXT
  5
13A3B
330
2E3A
100
AcDbEntity
  8
0
 62
     7
 48
5.0
100
AcDbText
 10
-1478.864448365064
 20
1018.077525794961
 30
0.0
 40
3.809829827610412
  1
 
 41
0.75
100
AcDbText
  0
MTEXT
  5
1592D
330
2E3A
100
AcDbEntity
  8
OMRISS
  6
Continuous
100
AcDbMText
 10
-2395.176181831748
 20
2489.102319280084
 30
0.0
 40
4.0
 41
0.0
 46
0.0
 71
     1
 72
     1
  1

  7
ARIAL
 73
     1
 44
1.0
  0
LWPOLYLINE
  5
16A14
330
2E3A
100
AcDbEntity
  8
Omriss tanker
  6
Continuous
100
AcDbPolyline
 90
       38
 70
     1
 43
0.3
 39
0.1
 10
91178.09816873524
 20
62648.3638485769
 10
90643.04452232955
 20
62822.80837875818
 10
89489.60926013512
 20
63181.45924145471
 10
88902.55897908005
 20
63355.55813403338
 10
87691.32088200713
 20
63707.63710308941
 10
87067.13306598928
 20
63885.61717956682
 10
86419.25198712334
 20
64065.03268071338
 10
85771.37090825743
 20
64244.44818185991
 10
85156.08766764227
 20
64408.71065410809
 10
84540.80442702714
 20
64572.9731263563
 10
83359.87703514705
 20
64873.49270891594
 10
82785.24723311297
 20
65011.00595074684
 10
81643.49179264547
 20
65274.80636225806
 10
81096.90787256084
 20
65401.09353193837
 10
80254.11642628329
 20
65569.08003549355
 10
80254.11642628329
 20
64031.07648742543
 10
79104.11642628329
 20
63481.07648742542
 10
79104.11642628329
 20
62256.07648742541
 10
80254.11642628329
 20
61706.07648742543
 10
80254.11642628329
 20
60481.07648742543
 10
79104.11642628329
 20
59931.0764874254
 10
79104.11642628329
 20
58706.07648742543
 10
80254.11642628329
 20
58156.07648742543
 10
80254.11642628329
 20
56906.07648742543
 10
81354.11642628328
 20
56906.07648742549
 10
81904.11642628326
 20
58056.07648742548
 10
83004.11642628331
 20
58056.07648742548
 10
83554.11642628332
 20
56906.07648742549
 10
84654.11642628328
 20
56906.07648742549
 10
85204.11642628326
 20
58056.07648742548
 10
86304.11642628331
 20
58056.07648742548
 10
86854.11642628332
 20
56906.07648742549
 10
87954.11642628328
 20
56906.07648742549
 10
88504.11642628326
 20
58056.07648742548
 10
89604.11642628331
 20
58056.07648742548
 10
90154.11642628333
 20
56906.07648742549
 10
91193.61554438128
 20
56906.07648742549
 10
91178.09816873524
 20
62648.3638485769
  0
LWPOLYLINE
  5
16A15
330
2E3A
100
AcDbEntity
  8
Omriss tanker
  6
Continuous
100
AcDbPolyline
 90
       36
 70
     1
 43
0.3
 39
0.1
 10
91193.61554438128
 20
56906.07648742549
 10
90154.11642628333
 20
56906.07648742549
 10
89604.11642628331
 20
58056.07648742548
 10
88504.11642628326
 20
58056.07648742548
 10
87954.11642628328
 20
56906.07648742549
 10
86854.11642628332
 20
56906.07648742549
 10
86304.11642628331
 20
58056.07648742548
 10
85204.11642628326
 20
58056.07648742548
 10
84654.11642628328
 20
56906.07648742549
 10
83554.11642628332
 20
56906.07648742549
 10
83004.11642628331
 20
58056.07648742548
 10
81904.11642628326
 20
58056.07648742548
 10
81377.12933196583
 20
56906.07648742549
 10
80254.11642628329
 20
56906.07648742552
 10
80254.11642628329
 20
55756.07648742555
 10
79104.11642628329
 20
55206.07648742553
 10
79104.11642628329
 20
54056.07648742554
 10
80254.11642628325
 20
53506.07648742553
 10
80254.11642628329
 20
52356.07648742542
 10
79104.11642628329
 20
51806.0764874254
 10
79104.11642628329
 20
50656.07648742542
 10
80254.11642628329
 20
50106.07648742543
 10
80254.11642628329
 20
48956.07648742553
 10
81377.12933196576
 20
48956.07648742553
 10
81904.11642628326
 20
47806.07648742546
 10
83004.11642628331
 20
47806.07648742546
 10
83554.11642628332
 20
48956.07648742549
 10
84654.11642628328
 20
48956.07648742549
 10
85204.11642628326
 20
47806.07648742546
 10
86304.11642628331
 20
47806.07648742546
 10
86854.11642628332
 20
48956.07648742549
 10
87954.11642628328
 20
48956.07648742549
 10
88504.11642628326
 20
47806.07648742546
 10
89604.11642628331
 20
47806.07648742546
 10
90154.11642628333
 20
48956.07648742549
 10
91189.11642628283
 20
48956.07648742549
  0
LWPOLYLINE
  5
16A16
330
2E3A
100
AcDbEntity
  8
Omriss tanker
  6
Continuous
100
AcDbPolyline
 90
       34
 70
     1
 43
0.3
 39
0.1
 10
91189.11642628283
 20
48956.07648742549
 10
90154.11642628333
 20
48956.07648742549
 10
89604.11642628331
 20
47806.07648742546
 10
88504.11642628326
 20
47806.07648742546
 10
87954.11642628328
 20
48956.07648742549
 10
86854.11642628332
 20
48956.07648742549
 10
86304.11642628331
 20
47806.07648742546
 10
85204.11642628326
 20
47806.07648742546
 10
84654.11642628328
 20
48956.07648742549
 10
83554.11642628332
 20
48956.07648742549
 10
83004.11642628331
 20
47806.07648742546
 10
81904.11642628326
 20
47806.07648742546
 10
81377.12933196583
 20
48956.07648742549
 10
80254.11642628329
 20
48956.07648742541
 10
80254.11642628329
 20
47706.07648742553
 10
79104.11642628329
 20
47156.07648742552
 10
79104.11642628329
 20
45931.07648742554
 10
80254.11642628329
 20
45381.07648742553
 10
80254.11642628329
 20
44156.07648742552
 10
79104.11642628329
 20
43606.07648742553
 10
79104.11642628329
 20
42381.07648742553
 10
80254.11642628329
 20
41831.07648742553
 10
80254.11642628329
 20
40284.48147528036
 10
81126.65152652134
 20
40468.8388266061
 10
81693.77716495899
 20
40595.12599628733
 10
82835.53260542891
 20
40858.92640779865
 10
83675.19308261872
 20
41052.92835564251
 10
84591.08979934271
 20
41296.95923219027
 10
85821.65628057479
 20
41625.48417668655
 10
86917.22322076815
 20
41928.87579904576
 10
87928.70135369213
 20
42208.98099432898
 10
88952.84435139247
 20
42514.37422451278
 10
90116.61226356867
 20
42867.79854844565
 10
91189.04045312731
 20
43208.74404375096
  0
LWPOLYLINE
  5
16A1E
330
2E3A
100
AcDbEntity
  8
Omriss tanker
  6
Continuous
100
AcDbPolyline
 90
       45
 70
     1
 43
0.3
 39
0.1
 10
80254.11642628148
 20
65569.08003549392
 10
79359.88699212317
 20
65741.01067295848
 10
78181.60437983574
 20
65948.7965521085
 10
76993.65868838897
 20
66137.32117163521
 10
75831.28646146168
 20
66302.37814411588
 10
74126.98347899815
 20
66510.81405246968
 10
72417.99438748599
 20
66671.57519118959
 10
71246.2103056515
 20
66760.18898086372
 10
70650.60615659313
 20
66800.88516963756
 10
70003.62311611624
 20
66838.3236095932
 10
69184.49709867124
 20
66879.89659063037
 10
68214.09010147016
 20
66921.65054035458
 10
68164.11642628329
 20
65806.07648742542
 10
69314.11642628328
 20
65256.07648742543
 10
69314.11642628328
 20
64031.07648742543
 10
68164.11642628329
 20
63481.07648742542
 10
68164.11642628329
 20
62256.07648742541
 10
69314.11642628328
 20
61706.07648742543
 10
69314.11642628328
 20
60481.07648742543
 10
68164.11642628329
 20
59931.0764874254
 10
68164.11642628329
 20
58706.07648742543
 10
69314.11642628328
 20
58156.07648742543
 10
69314.11642628328
 20
56906.07648742543
 10
70314.11642628329
 20
56906.07648742543
 10
70864.11642628329
 20
58056.0764874254
 10
71914.11642628329
 20
58056.0764874254
 10
72464.11642628329
 20
56906.07648742543
 10
73514.11642628328
 20
56906.07648742543
 10
74064.11642628329
 20
58056.0764874254
 10
75114.11642628329
 20
58056.0764874254
 10
75664.11642628329
 20
56906.07648742543
 10
76714.11642628329
 20
56906.07648742543
 10
77264.11642628329
 20
58056.0764874254
 10
78314.11642628329
 20
58056.0764874254
 10
78864.11642628329
 20
56906.0764874255
 10
80254.11642628329
 20
56906.07648742543
 10
80254.11642628329
 20
58156.07648742543
 10
79104.11642628329
 20
58706.07648742543
 10
79104.11642628329
 20
59931.0764874254
 10
80254.11642628329
 20
60481.07648742543
 10
80254.11642628329
 20
61706.07648742543
 10
79104.11642628329
 20
62256.07648742541
 10
79104.11642628329
 20
63481.07648742542
 10
80254.11642628329
 20
64031.07648742543
 10
80254.11642628148
 20
65569.08003549392
  0
LWPOLYLINE
  5
16A1F
330
2E3A
100
AcDbEntity
  8
Omriss tanker
  6
Continuous
100
AcDbPolyline
 90
       45
 70
     1
 43
0.3
 39
0.1
 10
80254.11642628329
 20
56906.07648742543
 10
78864.11642628335
 20
56906.07648742534
 10
78314.11642628329
 20
58056.0764874254
 10
77264.11642628329
 20
58056.0764874254
 10
76714.11642628329
 20
56906.07648742543
 10
75664.11642628329
 20
56906.07648742543
 10
75114.11642628329
 20
58056.0764874254
 10
74064.11642628329
 20
58056.0764874254
 10
73514.11642628328
 20
56906.07648742543
 10
72464.11642628329
 20
56906.07648742543
 10
71914.11642628329
 20
58056.0764874254
 10
70864.11642628329
 20
58056.0764874254
 10
70314.11642628329
 20
56906.07648742543
 10
69314.11642628328
 20
56906.07648742543
 10
69314.11642628328
 20
55756.07648742555
 10
68164.11642628329
 20
55206.07648742553
 10
68164.11642628329
 20
54056.07648742554
 10
69314.11642628328
 20
53506.07648742553
 10
69314.11642628328
 20
52356.07648742542
 10
68164.11642628329
 20
51806.0764874254
 10
68164.11642628329
 20
50656.07648742542
 10
69314.11642628328
 20
50106.07648742543
 10
69314.11642628328
 20
48956.07648742553
 10
70314.11642628329
 20
48956.07648742553
 10
70864.11642628329
 20
47806.07648742554
 10
71914.11642628329
 20
47806.07648742554
 10
72464.11642628329
 20
48956.07648742553
 10
73514.11642628328
 20
48956.07648742553
 10
74064.11642628329
 20
47806.07648742554
 10
75114.11642628329
 20
47806.07648742554
 10
75664.11642628329
 20
48956.07648742553
 10
76714.11642628329
 20
48956.07648742553
 10
77264.11642628329
 20
47806.07648742554
 10
78314.11642628329
 20
47806.07648742554
 10
78864.11642628333
 20
48956.07648742549
 10
80254.11642628329
 20
48956.07648742553
 10
80254.11642628329
 20
50106.07648742543
 10
79104.11642628329
 20
50656.07648742542
 10
79104.11642628329
 20
51806.0764874254
 10
80254.11642628329
 20
52356.07648742542
 10
80254.11642628325
 20
53506.07648742553
 10
79104.11642628329
 20
54056.07648742554
 10
79104.11642628329
 20
55206.07648742553
 10
80254.11642628329
 20
55756.07648742555
 10
80254.11642628329
 20
56906.07648742552
  0
LWPOLYLINE
  5
16A20
330
2E3A
100
AcDbEntity
  8
Omriss tanker
  6
Continuous
100
AcDbPolyline
 90
       46
 70
     1
 43
0.3
 39
0.1
 10
80254.11642628329
 20
48956.07648742541
 10
78864.11642628333
 20
48956.07648742549
 10
78314.11642628329
 20
47806.07648742554
 10
77264.11642628329
 20
47806.07648742554
 10
76714.11642628329
 20
48956.07648742553
 10
75664.11642628329
 20
48956.07648742553
 10
75114.11642628329
 20
47806.07648742554
 10
74064.11642628329
 20
47806.07648742554
 10
73514.11642628328
 20
48956.07648742553
 10
72464.11642628329
 20
48956.07648742553
 10
71914.11642628329
 20
47806.07648742554
 10
70864.11642628329
 20
47806.07648742554
 10
70314.11642628329
 20
48956.07648742553
 10
69314.11642628328
 20
48956.07648742553
 10
69314.11642628328
 20
47706.07648742553
 10
68164.11642628329
 20
47156.07648742552
 10
68164.11642628329
 20
45931.07648742554
 10
69314.11642628328
 20
45381.07648742553
 10
69314.11642628328
 20
44156.07648742552
 10
68164.11642628329
 20
43606.07648742553
 10
68164.11642628329
 20
42381.07648742553
 10
69314.11642628328
 20
41831.07648742553
 10
69314.11642628328
 20
40606.07648742553
 10
68164.11642628329
 20
40056.07648742553
 10
68151.75578036307
 20
38943.51135540538
 10
69051.75736386788
 20
38981.25758531818
 10
70053.90848843842
 20
39031.6087489535
 10
71296.49567796954
 20
39109.74337768183
 10
72468.27975980365
 20
39198.35716735561
 10
73610.86427194363
 20
39302.6965371657
 10
74742.72410804115
 20
39424.9739556613
 10
75475.95759934512
 20
39490.82960524625
 10
76454.96430278498
 20
39644.27882361338
 10
77632.92381861101
 20
39820.9435502055
 10
78830.85568568155
 20
40021.32806266576
 10
79410.17236443779
 20
40128.92168558678
 10
80241.609861517
 20
40283.34046174773
 10
80241.60986151697
 20
41831.07648742553
 10
79104.11642628329
 20
42381.07648742553
 10
79104.11642628329
 20
43606.07648742553
 10
80254.11642628329
 20
44156.07648742552
 10
80254.11642628329
 20
45381.07648742553
 10
79104.11642628329
 20
45931.07648742554
 10
79104.11642628329
 20
47156.07648742552
 10
80254.11642628329
 20
47706.07648742553
 10
80254.11642628329
 20
48956.07648742541
  0
LWPOLYLINE
  5
16A2A
330
2E3A
100
AcDbEntity
  8
Omriss tanker
  6
Continuous
100
AcDbPolyline
 90
       24
 70
     1
 43
0.3
 39
0.1
 10
68214.19409258105
 20
66921.64633064447
 10
67758.8386886145
 20
66940.07977397565
 10
66874.78926946376
 20
66967.21513856871
 10
65990.73985031302
 20
66994.35050316178
 10
65118.03236529378
 20
67011.06790370549
 10
63844.1164262832
 20
67027.78530424921
 10
63844.1164262832
 20
67027.78530424921
 10
63844.11642628319
 20
56906.07648742549
 10
65144.11642628322
 20
56906.07648742545
 10
65744.1164262832
 20
58056.07648742544
 10
67044.1164262832
 20
58056.07648742544
 10
67644.1164262832
 20
56906.07648742549
 10
69314.11642628328
 20
56906.07648742543
 10
69314.11642628328
 20
58156.07648742543
 10
68164.11642628329
 20
58706.07648742543
 10
68164.11642628329
 20
59931.0764874254
 10
69314.11642628328
 20
60481.07648742543
 10
69314.11642628328
 20
61706.07648742543
 10
68164.11642628329
 20
62256.07648742541
 10
68164.11642628329
 20
63481.07648742542
 10
69314.11642628328
 20
64031.07648742543
 10
69314.11642628328
 20
65256.07648742543
 10
68164.11642628329
 20
65806.07648742542
 10
68214.19409258105
 20
66921.64633064447
  0
LWPOLYLINE
  5
16A31
330
2E3A
100
AcDbEntity
  8
Omriss tanker
  6
Continuous
100
AcDbPolyline
 90
       21
 70
     1
 43
0.3
 39
0.1
 10
69314.11642628328
 20
56906.07648742543
 10
67644.11642628322
 20
56906.07648742543
 10
67044.1164262832
 20
58056.07648742544
 10
65744.1164262832
 20
58056.07648742544
 10
65144.11642628322
 20
56906.07648742545
 10
63844.1164262832
 20
56906.07648742139
 10
63844.11642628333
 20
48956.07648742549
 10
65144.11642628322
 20
48956.07648742549
 10
65744.1164262832
 20
47806.0764874255
 10
67044.1164262832
 20
47806.0764874255
 10
67644.1164262832
 20
48956.07648742549
 10
69314.11642628328
 20
48956.07648742553
 10
69314.11642628328
 20
50106.07648742543
 10
68164.11642628329
 20
50656.07648742542
 10
68164.11642628329
 20
51806.0764874254
 10
69314.11642628328
 20
52356.07648742542
 10
69314.11642628328
 20
53506.07648742553
 10
68164.11642628329
 20
54056.07648742554
 10
68164.11642628329
 20
55206.07648742553
 10
69314.11642628328
 20
55756.07648742555
 10
69314.11642628328
 20
56906.07648742543
  0
LWPOLYLINE
  5
16A32
330
2E3A
100
AcDbEntity
  8
Omriss tanker
  6
Continuous
100
AcDbPolyline
 90
       24
 70
     1
 43
0.3
 39
0.1
 10
69314.11642628328
 20
48956.07648742553
 10
67644.1164262832
 20
48956.07648742549
 10
67044.1164262832
 20
47806.0764874255
 10
65744.1164262832
 20
47806.0764874255
 10
65144.11642628322
 20
48956.07648742549
 10
63844.11642628319
 20
48956.07648742549
 10
63844.11642628355
 20
38831.66488070454
 10
64295.61025259525
 20
38842.14705429594
 10
65015.67113229932
 20
38858.86445483956
 10
66041.02522262677
 20
38875.58185538319
 10
66925.07464177749
 20
38902.71721997656
 10
67559.80859059264
 20
38922.19999633248
 10
68151.75578036307
 20
38943.51135540538
 10
68164.11642628329
 20
40056.07648742553
 10
69314.11642628328
 20
40606.07648742553
 10
69314.11642628328
 20
41831.07648742553
 10
68164.11642628329
 20
42381.07648742553
 10
68164.11642628329
 20
43606.07648742553
 10
69314.11642628328
 20
44156.07648742552
 10
69314.11642628328
 20
45381.07648742553
 10
68164.11642628329
 20
45931.07648742554
 10
68164.11642628329
 20
47156.07648742552
 10
69314.11642628328
 20
47706.07648742553
 10
69314.11642628328
 20
48956.07648742541
  0
LWPOLYLINE
  5
16A33
330
2E3A
100
AcDbEntity
  8
Omriss tanker
  6
Continuous
100
AcDbPolyline
 90
       15
 70
     1
 43
0.3
 39
0.1
 10
62047.13825505075
 20
67027.78530424921
 10
58817.13825505102
 20
67028.3736975282
 10
58817.13825505102
 20
65803.37369752821
 10
59967.13825505103
 20
65253.3736975282
 10
59967.13825505103
 20
64028.37369752822
 10
58817.13825505102
 20
63478.37369752821
 10
58817.13825505102
 20
62253.3736975282
 10
59967.13825505103
 20
61703.37369752822
 10
59967.13825505103
 20
60478.3736975282
 10
58817.13825505102
 20
59928.3736975282
 10
58817.13825505102
 20
58703.37369752821
 10
59967.13825505103
 20
58153.3736975282
 10
59962.13825505101
 20
56903.3736975282
 10
62047.13825505093
 20
56903.37369752824
 10
62047.13825505075
 20
67027.78530424921
  0
LWPOLYLINE
  5
16A34
330
2E3A
100
AcDbEntity
  8
Omriss tanker
  6
Continuous
100
AcDbPolyline
 90
       13
 70
     1
 43
0.3
 39
0.1
 10
62047.13825505094
 20
56903.37369752824
 10
59962.13825505101
 20
56903.3736975282
 10
59967.13825505103
 20
55753.37369752833
 10
58817.13825505102
 20
55203.37369752832
 10
58817.13825505102
 20
54053.37369752833
 10
59967.13825505103
 20
53503.37369752831
 10
59967.13825505103
 20
52303.37369752832
 10
58817.13825505102
 20
51803.3736975282
 10
58817.13825505102
 20
50653.37369752819
 10
59967.13825505103
 20
50087.4146182444
 10
59967.1382550509
 20
48953.37369752832
 10
62047.13825505107
 20
48953.37369752827
 10
62047.13825505094
 20
56903.37369752824
  0
LWPOLYLINE
  5
16A35
330
2E3A
100
AcDbEntity
  8
Omriss tanker
  6
Continuous
100
AcDbPolyline
 90
       19
 70
     1
 43
0.3
 39
0.1
 10
62047.13825505093
 20
48953.37369752827
 10
59967.13825505103
 20
48953.37369752819
 10
59967.13825505103
 20
47703.37369752831
 10
58817.13825505102
 20
47153.3736975283
 10
58817.13825505102
 20
45928.37369752833
 10
59967.13825505103
 20
45378.37369752831
 10
59967.13825505103
 20
44153.37369752831
 10
58817.13825505102
 20
43603.37369752832
 10
58817.13825505102
 20
42378.3736975283
 10
59967.13825505103
 20
41828.37369752832
 10
59967.13825505103
 20
40603.37369752831
 10
58817.13825505102
 20
40053.3736975283
 10
58817.13825505102
 20
38828.96209080733
 10
59418.06625339586
 20
38828.96209080747
 10
60077.04582925804
 20
38828.96209080766
 10
60801.92331807164
 20
38828.96209080734
 10
61548.76648030372
 20
38828.96209080733
 10
62047.13825505133
 20
38828.96209080733
 10
62047.13825505093
 20
48953.37369752827
  0
LWPOLYLINE
  5
16A37
330
2E3A
100
AcDbEntity
  8
Omriss tanker
  6
Continuous
100
AcDbPolyline
 90
       32
 70
     1
 43
0.3
 39
0.1
 10
58817.13825505102
 20
67028.3736975282
 10
57936.85178227349
 20
67027.78530424921
 10
56402.43888897646
 20
67027.78530424921
 10
54888.48479854887
 20
67027.78530424921
 10
53607.13825505102
 20
67028.3736975282
 10
53607.13825505102
 20
65803.37369752821
 10
54757.13825505102
 20
65253.3736975282
 10
54757.13825505102
 20
64028.37369752822
 10
53607.13825505102
 20
63478.37369752821
 10
53607.13825505102
 20
62253.3736975282
 10
54757.13825505102
 20
61703.37369752822
 10
54757.13825505102
 20
60478.3736975282
 10
53607.13825505102
 20
59928.3736975282
 10
53607.13825505102
 20
58703.37369752821
 10
54757.13825505102
 20
58153.3736975282
 10
54757.13825505102
 20
56903.37369752832
 10
56092.13825505102
 20
56903.3736975282
 10
56692.13825505101
 20
58053.3736975282
 10
58027.13825505102
 20
58053.3736975282
 10
58627.13825505101
 20
56903.3736975282
 10
59962.13825505101
 20
56903.3736975282
 10
59967.13825505103
 20
58153.3736975282
 10
58817.13825505102
 20
58703.37369752821
 10
58817.13825505102
 20
59928.3736975282
 10
59967.13825505103
 20
60478.3736975282
 10
59967.13825505103
 20
61703.37369752822
 10
58817.13825505102
 20
62253.3736975282
 10
58817.13825505102
 20
63478.37369752821
 10
59967.13825505103
 20
64028.37369752822
 10
59967.13825505103
 20
65253.3736975282
 10
58817.13825505102
 20
65803.37369752821
 10
58817.13825505102
 20
67027.78530424921
  0
LWPOLYLINE
  5
16A38
330
2E3A
100
AcDbEntity
  8
Omriss tanker
  6
Continuous
100
AcDbPolyline
 90
       29
 70
     0
 43
0.3
 39
0.1
 10
60000.50723900812
 20
56903.3736975282
 10
58627.13825505101
 20
56903.3736975282
 10
58027.13825505102
 20
58053.3736975282
 10
56692.13825505101
 20
58053.3736975282
 10
56092.13825505102
 20
56903.3736975282
 10
54757.13825505102
 20
56903.3736975282
 10
54757.13825505102
 20
55753.37369752833
 10
53607.13825505102
 20
55203.37369752832
 10
53607.13825505102
 20
54053.37369752833
 10
54757.13825505096
 20
53503.37369752831
 10
54757.13825505102
 20
52353.3736975282
 10
53607.13825505102
 20
51803.3736975282
 10
53607.13825505102
 20
50653.37369752819
 10
54757.13825505102
 20
50103.37369752821
 10
54757.13825505102
 20
48953.37369752832
 10
56092.13825505102
 20
48953.37369752832
 10
56692.13825505101
 20
47803.37369752833
 10
58027.13825505102
 20
47803.37369752833
 10
58627.13825505101
 20
48953.37369752832
 10
59967.13825505103
 20
48953.37369752819
 10
59967.13825505103
 20
50087.41461824438
 10
58817.13825505102
 20
50653.37369752819
 10
58817.13825505102
 20
51803.3736975282
 10
59967.13825505103
 20
52303.37369752832
 10
59967.13825505103
 20
53503.37369752831
 10
58817.13825505102
 20
54053.37369752833
 10
58817.13825505102
 20
55203.37369752832
 10
59967.13825505103
 20
55753.37369752833
 10
59962.13825505101
 20
56903.3736975282
  0
LWPOLYLINE
  5
16A39
330
2E3A
100
AcDbEntity
  8
Omriss tanker
  6
Continuous
100
AcDbPolyline
 90
       29
 70
     1
 43
0.3
 39
0.1
 10
59967.13825505103
 20
48953.37369752832
 10
58627.13825505101
 20
48953.37369752832
 10
58027.13825505102
 20
47803.37369752833
 10
56692.13825505101
 20
47803.37369752833
 10
56092.13825505102
 20
48953.37369752832
 10
54757.13825505102
 20
48953.37369752832
 10
54757.13825505102
 20
47703.37369752831
 10
53607.13825505102
 20
47153.3736975283
 10
53607.13825505102
 20
45928.37369752833
 10
54757.13825505102
 20
45378.37369752831
 10
54757.13825505102
 20
44153.37369752831
 10
53607.13825505102
 20
43603.37369752832
 10
53607.13825505102
 20
42378.3736975283
 10
54757.13825505102
 20
41828.37369752832
 10
54757.13825505102
 20
40603.37369752831
 10
53607.13825505102
 20
40053.3736975283
 10
53607.13825505102
 20
38828.96209080744
 10
58817.13825505102
 20
38828.37369752834
 10
58817.13825505102
 20
40053.3736975283
 10
59967.13825505103
 20
40603.37369752831
 10
59967.13825505103
 20
41828.37369752832
 10
58817.13825505102
 20
42378.3736975283
 10
58817.13825505102
 20
43603.37369752832
 10
59967.13825505103
 20
44153.37369752831
 10
59967.13825505103
 20
45378.37369752831
 10
58817.13825505102
 20
45928.37369752833
 10
58817.13825505102
 20
47153.3736975283
 10
59967.13825505103
 20
47703.37369752831
 10
59967.13825505103
 20
48953.37369752832
  0
LWPOLYLINE
  5
16A3A
330
2E3A
100
AcDbEntity
  8
Omriss tanker
  6
Continuous
100
AcDbPolyline
 90
       41
 70
     1
 43
0.3
 39
0.1
 10
53607.13825505102
 20
67028.37369752809
 10
36557.13825505102
 20
67028.37369752809
 10
36557.13825505102
 20
65803.37369752809
 10
37707.13825505102
 20
65253.37369752808
 10
37707.13825505102
 20
64028.37369752807
 10
36557.13825505102
 20
63478.37369752808
 10
36557.13825505102
 20
62253.37369752807
 10
37707.13825505102
 20
61703.37369752807
 10
37707.13825505102
 20
60478.37369752809
 10
36557.13825505102
 20
59928.37369752807
 10
36557.13825505102
 20
58703.37369752808
 10
37707.13825505102
 20
58153.37369752808
 10
37707.13825505102
 20
56903.37369752804
 10
39042.13825505102
 20
56903.37369752804
 10
39642.13825505102
 20
58053.37369752805
 10
40977.13825505102
 20
58053.37369752805
 10
41577.138255051
 20
56903.37369752804
 10
42912.13825505101
 20
56903.37369752804
 10
43512.13825505102
 20
58053.37369752805
 10
44847.13825505101
 20
58053.37369752805
 10
45447.13825505102
 20
56903.37369752804
 10
46782.13825505102
 20
56903.37369752804
 10
47382.13825505101
 20
58053.37369752805
 10
48717.13825505102
 20
58053.37369752805
 10
49317.13825505101
 20
56903.37369752804
 10
50652.13825505101
 20
56903.37369752804
 10
51252.13825505102
 20
58053.37369752805
 10
52587.13825505101
 20
58053.37369752805
 10
53187.13825505102
 20
56903.37369752804
 10
54757.13825505102
 20
56903.3736975282
 10
54757.13825505102
 20
58153.37369752808
 10
53607.13825505102
 20
58703.37369752808
 10
53607.13825505102
 20
59928.37369752807
 10
54757.13825505102
 20
60478.37369752809
 10
54757.13825505102
 20
61703.37369752807
 10
53607.13825505102
 20
62253.37369752807
 10
53607.13825505102
 20
63478.37369752808
 10
54757.13825505102
 20
64028.37369752807
 10
54757.13825505102
 20
65253.37369752808
 10
53607.13825505102
 20
65803.37369752809
 10
53607.13825505102
 20
67027.78530424909
  0
LWPOLYLINE
  5
16A3C
330
2E3A
100
AcDbEntity
  8
Omriss tanker
  6
Continuous
100
AcDbPolyline
 90
       41
 70
     1
 43
0.3
 39
0.1
 10
54757.13825505102
 20
48953.37369752819
 10
53187.13825505102
 20
48953.37369752823
 10
52587.13825505101
 20
47803.37369752823
 10
51252.13825505102
 20
47803.37369752823
 10
50652.13825505101
 20
48953.37369752823
 10
49317.13825505101
 20
48953.37369752823
 10
48717.13825505102
 20
47803.37369752823
 10
47382.13825505101
 20
47803.37369752823
 10
46782.13825505102
 20
48953.37369752823
 10
45447.13825505102
 20
48953.37369752823
 10
44847.13825505101
 20
47803.37369752823
 10
43512.13825505102
 20
47803.37369752823
 10
42912.13825505101
 20
48953.37369752823
 10
41577.138255051
 20
48953.37369752823
 10
40977.13825505102
 20
47803.37369752823
 10
39642.13825505102
 20
47803.37369752823
 10
39042.13825505102
 20
48953.37369752823
 10
37707.13825505102
 20
48953.37369752823
 10
37707.13825505102
 20
47703.37369752819
 10
36557.13825505102
 20
47153.3736975282
 10
36557.13825505102
 20
45928.37369752821
 10
37707.13825505102
 20
45378.3736975282
 10
37707.13825505102
 20
44153.3736975282
 10
36557.13825505102
 20
43603.3736975282
 10
36557.13825505102
 20
42378.3736975282
 10
37707.13825505102
 20
41828.3736975282
 10
37707.13825505102
 20
40603.3736975282
 10
36557.13825505102
 20
40053.3736975282
 10
36557.13825505102
 20
38888.05220696082
 10
53607.13825505102
 20
38828.96209080732
 10
53607.13825505102
 20
40053.3736975282
 10
54757.13825505102
 20
40603.3736975282
 10
54757.13825505102
 20
41828.3736975282
 10
53607.13825505102
 20
42378.3736975282
 10
53607.13825505102
 20
43603.3736975282
 10
54757.13825505102
 20
44153.3736975282
 10
54757.13825505102
 20
45378.3736975282
 10
53607.13825505102
 20
45928.37369752821
 10
53607.13825505102
 20
47153.3736975282
 10
54757.13825505102
 20
47703.37369752819
 10
54757.13825505102
 20
48953.37369752808
  0
LWPOLYLINE
  5
16A3D
330
2E3A
100
AcDbEntity
  8
Omriss tanker
  6
Continuous
100
AcDbPolyline
 90
       33
 70
     1
 43
0.3
 39
0.1
 10
36607.13825505107
 20
67027.78530424921
 10
27017.13825505102
 20
67028.3736975282
 10
27017.13825505102
 20
65803.37369752821
 10
28167.13825505102
 20
65253.3736975282
 10
28167.13825505102
 20
64028.37369752822
 10
27017.13825505102
 20
63478.37369752821
 10
27017.13825505102
 20
62253.3736975282
 10
28167.13825505102
 20
61703.37369752822
 10
28167.13825505102
 20
60478.3736975282
 10
27017.13825505102
 20
59928.3736975282
 10
27017.13825505102
 20
58703.37369752821
 10
28167.13825505102
 20
58153.3736975282
 10
28167.13825505102
 20
56903.37369752832
 10
29502.13825505102
 20
56903.37369752817
 10
30102.13825505102
 20
58053.37369752817
 10
31437.13825505102
 20
58053.37369752817
 10
32037.13825505102
 20
56903.37369752817
 10
33372.13825505102
 20
56903.37369752817
 10
33972.13825505102
 20
58053.37369752817
 10
35307.13825505102
 20
58053.37369752817
 10
35907.13825505107
 20
56903.37369752817
 10
37707.13825505102
 20
56903.37369752817
 10
37707.13825505102
 20
58153.3736975282
 10
36557.13825505102
 20
58703.37369752821
 10
36557.13825505102
 20
59928.3736975282
 10
37707.13825505102
 20
60478.3736975282
 10
37707.13825505102
 20
61703.37369752822
 10
36557.13825505102
 20
62253.3736975282
 10
36557.13825505102
 20
63478.37369752821
 10
37707.13825505102
 20
64028.37369752822
 10
37707.13825505102
 20
65253.3736975282
 10
36557.13825505102
 20
65803.37369752821
 10
36557.13825505102
 20
67057.1218089748
  0
LWPOLYLINE
  5
16A3E
330
2E3A
100
AcDbEntity
  8
Omriss tanker
  6
Continuous
100
AcDbPolyline
 90
       37
 70
     1
 43
0.3
 39
0.1
 10
37707.13825505102
 20
56903.37369752817
 10
35907.13825505107
 20
56903.37369752817
 10
35307.13825505102
 20
58053.37369752817
 10
33972.13825505102
 20
58053.37369752817
 10
33372.13825505102
 20
56903.37369752817
 10
32037.13825505102
 20
56903.37369752817
 10
31437.13825505102
 20
58053.37369752817
 10
30102.13825505102
 20
58053.37369752817
 10
29502.13825505102
 20
56903.37369752817
 10
28167.13825505102
 20
56903.37369752817
 10
28167.13825505102
 20
55753.37369752833
 10
27017.13825505102
 20
55203.37369752832
 10
27017.13825505102
 20
54053.37369752833
 10
28167.138255051
 20
53503.37369752831
 10
28167.13825505102
 20
52353.3736975282
 10
27017.13825505102
 20
51803.3736975282
 10
27017.13825505102
 20
50653.37369752819
 10
28167.13825505102
 20
50103.37369752821
 10
28167.13825505102
 20
48953.37369752819
 10
29502.13825505102
 20
48953.37369752835
 10
30102.13825505102
 20
47803.37369752833
 10
31437.13825505102
 20
47803.37369752833
 10
32037.13825505102
 20
48953.37369752835
 10
33372.13825505102
 20
48953.37369752835
 10
33972.13825505102
 20
47803.37369752833
 10
35307.13825505102
 20
47803.37369752833
 10
35907.13825505107
 20
48953.37369752835
 10
37707.13825505102
 20
48953.37369752819
 10
37707.13825505102
 20
50103.37369752821
 10
36557.13825505102
 20
50653.37369752819
 10
36557.13825505102
 20
51803.3736975282
 10
37707.13825505102
 20
52303.37369752832
 10
37707.13825505102
 20
53503.37369752831
 10
36557.13825505102
 20
54053.37369752833
 10
36557.13825505102
 20
55203.37369752832
 10
37707.13825505102
 20
55753.37369752833
 10
37707.13825505102
 20
56903.37369752817
  0
LWPOLYLINE
  5
16A40
330
2E3A
100
AcDbEntity
  8
Omriss tanker
  6
Continuous
100
AcDbPolyline
 90
       34
 70
     1
 43
0.3
 39
0.1
 10
37707.13825505102
 20
48953.37369752819
 10
35907.13825505107
 20
48953.37369752835
 10
35307.13825505102
 20
47803.37369752833
 10
33972.13825505102
 20
47803.37369752833
 10
33372.13825505102
 20
48953.37369752835
 10
32037.13825505102
 20
48953.37369752835
 10
31496.10870220219
 20
47916.40038790143
 10
31437.13825505102
 20
47803.37369752833
 10
30102.13825505102
 20
47803.37369752833
 10
29502.13825505102
 20
48953.37369752835
 10
28167.13825505102
 20
48953.37369752835
 10
28167.13825505102
 20
47703.37369752831
 10
27017.13825505102
 20
47153.3736975283
 10
27017.13825505102
 20
45928.37369752833
 10
28167.13825505102
 20
45378.37369752831
 10
28167.13825505102
 20
44153.37369752831
 10
27017.13825505102
 20
43603.37369752832
 10
27017.13825505102
 20
42378.3736975283
 10
28167.13825505102
 20
41828.37369752832
 10
28167.13825505102
 20
40603.37369752831
 10
27017.13825505102
 20
40053.3736975283
 10
27017.13825505102
 20
38828.96209080735
 10
36557.13825505102
 20
38828.37369752834
 10
36557.13825505102
 20
40053.3736975283
 10
37707.13825505102
 20
40603.37369752831
 10
37707.13825505102
 20
41828.37369752832
 10
36557.13825505102
 20
42378.3736975283
 10
36557.13825505102
 20
43603.37369752832
 10
37707.13825505102
 20
44153.37369752831
 10
37707.13825505102
 20
45378.37369752831
 10
36557.13825505102
 20
45928.37369752833
 10
36557.13825505102
 20
47153.3736975283
 10
37707.13825505102
 20
47703.37369752831
 10
37707.13825505102
 20
48953.37369752819
  0
LWPOLYLINE
  5
16A41
330
2E3A
100
AcDbEntity
  8
Omriss tanker
  6
Continuous
100
AcDbPolyline
 90
       29
 70
     0
 43
0.3
 39
0.1
 10
27017.13825505102
 20
67027.78530424921
 10
21807.13825505102
 20
67028.3736975282
 10
21807.13825505102
 20
65803.37369752821
 10
22957.13825505102
 20
65253.3736975282
 10
22957.13825505102
 20
64028.37369752822
 10
21807.13825505102
 20
63478.37369752821
 10
21807.13825505102
 20
62253.3736975282
 10
22957.13825505102
 20
61703.37369752822
 10
22957.13825505102
 20
60478.3736975282
 10
21807.13825505102
 20
59928.3736975282
 10
21807.13825505102
 20
58703.37369752821
 10
22957.13825505102
 20
58153.3736975282
 10
22957.13825505102
 20
56903.37369752832
 10
24292.13825505102
 20
56903.3736975282
 10
24892.13825505102
 20
58053.3736975282
 10
26227.13825505102
 20
58053.3736975282
 10
26827.13825505102
 20
56903.3736975282
 10
28162.13825505102
 20
56903.3736975282
 10
28167.13825505102
 20
58153.3736975282
 10
27017.13825505102
 20
58703.37369752821
 10
27017.13825505102
 20
59928.3736975282
 10
28167.13825505102
 20
60478.3736975282
 10
28167.13825505102
 20
61703.37369752822
 10
27017.13825505102
 20
62253.3736975282
 10
27017.13825505102
 20
63478.37369752821
 10
28167.13825505102
 20
64028.37369752822
 10
28167.13825505102
 20
65253.3736975282
 10
27017.13825505102
 20
65803.37369752821
 10
27017.13825505102
 20
67028.3736975282
  0
LWPOLYLINE
  5
16A42
330
2E3A
100
AcDbEntity
  8
Omriss tanker
  6
Continuous
100
AcDbPolyline
 90
       29
 70
     1
 43
0.3
 39
0.1
 10
28162.13825505102
 20
56903.3736975282
 10
26827.13825505102
 20
56903.3736975282
 10
26227.13825505102
 20
58053.3736975282
 10
24892.13825505102
 20
58053.3736975282
 10
24292.13825505102
 20
56903.3736975282
 10
22957.13825505102
 20
56903.3736975282
 10
22957.13825505102
 20
55753.37369752833
 10
21807.13825505102
 20
55203.37369752832
 10
21807.13825505102
 20
54053.37369752833
 10
22957.13825505102
 20
53508.37369752825
 10
22957.13825505102
 20
52353.3736975282
 10
21807.13825505102
 20
51803.3736975282
 10
21807.13825505102
 20
50653.37369752819
 10
22957.13825505102
 20
50103.37369752821
 10
22957.13825505102
 20
48953.37369752819
 10
24292.13825505102
 20
48953.37369752832
 10
24892.13825505102
 20
47803.37369752833
 10
26227.13825505102
 20
47803.37369752833
 10
26827.13825505102
 20
48953.37369752832
 10
28167.13825505102
 20
48953.37369752819
 10
28167.13825505102
 20
50103.37369752821
 10
27017.13825505102
 20
50653.37369752819
 10
27017.13825505102
 20
51803.3736975282
 10
28167.13825505102
 20
52303.37369752832
 10
28167.13825505102
 20
53503.37369752831
 10
27017.13825505102
 20
54053.37369752833
 10
27017.13825505102
 20
55203.37369752832
 10
28167.13825505102
 20
55753.37369752833
 10
28167.13825505102
 20
56903.37369752832
  0
LWPOLYLINE
  5
16A43
330
2E3A
100
AcDbEntity
  8
Omriss tanker
  6
Continuous
100
AcDbPolyline
 90
       29
 70
     1
 43
0.3
 39
0.1
 10
28162.13825505102
 20
48953.37369752832
 10
26827.13825505102
 20
48953.37369752832
 10
26227.13825505102
 20
47803.37369752833
 10
24892.13825505102
 20
47803.37369752833
 10
24292.13825505102
 20
48953.37369752832
 10
22957.13825505102
 20
48953.37369752832
 10
22957.13825505102
 20
47703.37369752831
 10
21807.13825505102
 20
47153.3736975283
 10
21807.13825505102
 20
45928.37369752833
 10
22957.13825505102
 20
45378.37369752831
 10
22957.13825505102
 20
44153.37369752831
 10
21807.13825505102
 20
43603.37369752832
 10
21807.13825505102
 20
42378.3736975283
 10
22957.13825505102
 20
41828.37369752832
 10
22957.13825505102
 20
40603.37369752831
 10
21807.13825505102
 20
40053.3736975283
 10
21807.13825505102
 20
38828.96209080739
 10
27017.13825505102
 20
38828.37369752834
 10
27017.13825505102
 20
40053.3736975283
 10
28167.13825505102
 20
40603.37369752831
 10
28167.13825505102
 20
41828.37369752832
 10
27017.13825505102
 20
42378.3736975283
 10
27017.13825505102
 20
43603.37369752832
 10
28167.13825505102
 20
44153.37369752831
 10
28167.13825505102
 20
45378.37369752831
 10
27017.13825505102
 20
45928.37369752833
 10
27017.13825505102
 20
47153.3736975283
 10
28167.13825505102
 20
47703.37369752831
 10
28162.13825505102
 20
48953.37369752832
  0
LWPOLYLINE
  5
16A44
330
2E3A
100
AcDbEntity
  8
Omriss tanker
  6
Continuous
100
AcDbPolyline
 90
       41
 70
     1
 43
0.3
 39
0.1
 10
21807.13825505102
 20
67027.78530424921
 10
4757.138255051017
 20
67028.3736975282
 10
4757.138255051017
 20
65803.37369752821
 10
5907.138255051017
 20
65253.3736975282
 10
5907.138255051017
 20
64028.37369752822
 10
4757.138255051017
 20
63478.37369752821
 10
4757.138255051017
 20
62253.3736975282
 10
5907.138255051017
 20
61703.37369752822
 10
5907.138255051017
 20
60478.3736975282
 10
4757.138255051017
 20
59928.3736975282
 10
4757.138255051017
 20
58703.37369752821
 10
5907.138255051017
 20
58153.3736975282
 10
5907.138255051017
 20
56903.37369752817
 10
7242.138255051017
 20
56903.37369752817
 10
7842.138255051017
 20
58053.37369752817
 10
9177.138255051016
 20
58053.37369752817
 10
9777.138255051015
 20
56903.37369752817
 10
11112.13825505102
 20
56903.37369752817
 10
11712.13825505101
 20
58053.37369752817
 10
13047.13825505102
 20
58053.37369752817
 10
13647.13825505101
 20
56903.37369752817
 10
14982.13825505102
 20
56903.37369752817
 10
15582.13825505101
 20
58053.37369752817
 10
16917.13825505102
 20
58053.37369752817
 10
17517.13825505101
 20
56903.37369752817
 10
18852.13825505102
 20
56903.37369752817
 10
19452.13825505101
 20
58053.37369752817
 10
20787.13825505102
 20
58053.37369752817
 10
21387.13825505102
 20
56903.37369752817
 10
22957.13825505102
 20
56903.3736975282
 10
22957.13825505102
 20
58153.3736975282
 10
21807.13825505102
 20
58703.37369752821
 10
21807.13825505102
 20
59928.3736975282
 10
22957.13825505102
 20
60478.3736975282
 10
22957.13825505102
 20
61703.37369752822
 10
21807.13825505102
 20
62253.3736975282
 10
21807.13825505102
 20
63478.37369752821
 10
22957.13825505102
 20
64028.37369752822
 10
22957.13825505102
 20
65253.3736975282
 10
21807.13825505102
 20
65803.37369752821
 10
21807.13825505102
 20
67027.78530424921
  0
LWPOLYLINE
  5
16A45
330
2E3A
100
AcDbEntity
  8
Omriss tanker
  6
Continuous
100
AcDbPolyline
 90
       54
 70
     1
 43
0.3
 39
0.1
 10
22957.13825505102
 20
56903.3736975282
 10
21387.13825505102
 20
56903.37369752817
 10
20787.13825505102
 20
58053.37369752817
 10
19452.13825505101
 20
58053.37369752817
 10
18852.13825505102
 20
56903.37369752817
 10
17517.13825505101
 20
56903.37369752817
 10
16917.13825505102
 20
58053.37369752817
 10
15582.13825505101
 20
58053.37369752817
 10
14982.13825505102
 20
56903.37369752817
 10
13647.13825505101
 20
56903.37369752817
 10
13047.13825505102
 20
58053.37369752817
 10
11712.13825505101
 20
58053.37369752817
 10
11112.13825505102
 20
56903.37369752817
 10
9777.138255051015
 20
56903.37369752817
 10
9177.138255051016
 20
58053.37369752817
 10
7842.138255051017
 20
58053.37369752817
 10
7242.138255051017
 20
56903.37369752817
 10
5907.138255051017
 20
56903.37369752817
 10
5907.138255051017
 20
55753.37369752833
 10
4757.138255051017
 20
55203.37369752832
 10
4757.138255051017
 20
54053.37369752833
 10
5907.138255051017
 20
53503.37369752831
 10
5907.138255051017
 20
52353.3736975282
 10
4757.138255051017
 20
51803.3736975282
 10
4757.138255051017
 20
50653.37369752819
 10
5907.138255051017
 20
50103.37369752821
 10
5907.138255051017
 20
48953.37369752835
 10
7242.138255051017
 20
48953.37369752835
 10
7842.138255051017
 20
47803.37369752833
 10
9177.138255051016
 20
47803.37369752833
 10
9777.138255051015
 20
48953.37369752835
 10
11112.13825505102
 20
48953.37369752835
 10
11712.13825505101
 20
47803.37369752833
 10
13047.13825505102
 20
47803.37369752833
 10
13647.13825505101
 20
48953.37369752835
 10
14982.13825505102
 20
48953.37369752835
 10
15582.13825505101
 20
47803.37369752833
 10
16917.13825505102
 20
47803.37369752833
 10
17517.13825505101
 20
48953.37369752835
 10
18852.13825505102
 20
48953.37369752835
 10
19452.13825505101
 20
47803.37369752833
 10
20787.13825505102
 20
47803.37369752833
 10
21387.13825505102
 20
48953.37369752835
 10
22957.13825505102
 20
48953.37369752832
 10
22957.13825505102
 20
50103.37369752821
 10
21807.13825505102
 20
50653.37369752819
 10
21807.13825505102
 20
51803.3736975282
 10
22957.13825505102
 20
52353.3736975282
 10
22957.13825505101
 20
53215.8736975283
 10
22957.13825505102
 20
53503.37369752831
 10
21807.13825505102
 20
54053.37369752833
 10
21807.13825505102
 20
55203.37369752832
 10
22957.13825505102
 20
55753.37369752833
 10
22957.13825505102
 20
56903.3736975282
  0
LWPOLYLINE
  5
16A46
330
2E3A
100
AcDbEntity
  8
Omriss tanker
  6
Continuous
100
AcDbPolyline
 90
       41
 70
     1
 43
0.3
 39
0.1
 10
22957.13825505102
 20
48953.37369752832
 10
21387.13825505102
 20
48953.37369752835
 10
20787.13825505102
 20
47803.37369752833
 10
19452.13825505101
 20
47803.37369752833
 10
18852.13825505102
 20
48953.37369752835
 10
17517.13825505101
 20
48953.37369752835
 10
16917.13825505102
 20
47803.37369752833
 10
15582.13825505101
 20
47803.37369752833
 10
14982.13825505102
 20
48953.37369752835
 10
13647.13825505101
 20
48953.37369752835
 10
13047.13825505102
 20
47803.37369752833
 10
11712.13825505101
 20
47803.37369752833
 10
11112.13825505102
 20
48953.37369752835
 10
9777.138255051015
 20
48953.37369752835
 10
9177.138255051016
 20
47803.37369752833
 10
7842.138255051017
 20
47803.37369752833
 10
7242.138255051017
 20
48953.37369752835
 10
5907.138255051017
 20
48953.37369752835
 10
5907.138255051017
 20
47703.37369752831
 10
4757.138255051017
 20
47153.3736975283
 10
4757.138255051017
 20
45928.37369752833
 10
5907.138255051017
 20
45378.37369752831
 10
5907.138255051017
 20
44153.37369752831
 10
4757.138255051017
 20
43603.37369752832
 10
4757.138255051017
 20
42378.3736975283
 10
5907.138255051017
 20
41828.37369752832
 10
5907.138255051017
 20
40603.37369752831
 10
4757.138255051017
 20
40053.3736975283
 10
4757.138255051017
 20
38828.96209080736
 10
21807.1382553445
 20
38828.96209080735
 10
21807.13825505102
 20
40053.3736975283
 10
22957.13825505102
 20
40603.37369752831
 10
22957.13825505102
 20
41828.37369752832
 10
21807.13825505102
 20
42378.3736975283
 10
21807.13825505102
 20
43603.37369752832
 10
22957.13825505102
 20
44153.37369752831
 10
22957.13825505102
 20
45378.37369752831
 10
21807.13825505102
 20
45928.37369752833
 10
21807.13825505102
 20
47153.3736975283
 10
22957.13825505102
 20
47703.37369752831
 10
22957.13825505102
 20
48953.37369752832
  0
LWPOLYLINE
  5
16A47
330
2E3A
100
AcDbEntity
  8
Omriss tanker
  6
Continuous
100
AcDbPolyline
 90
       41
 70
     1
 43
0.3
 39
0.1
 10
23002.77461868738
 20
48953.37369752832
 10
21387.13825505102
 20
48953.37369752835
 10
20787.13825505102
 20
47803.37369752833
 10
19452.13825505101
 20
47803.37369752833
 10
18852.13825505102
 20
48953.37369752835
 10
17517.13825505101
 20
48953.37369752835
 10
16917.13825505102
 20
47803.37369752833
 10
15582.13825505101
 20
47803.37369752833
 10
14982.13825505102
 20
48953.37369752835
 10
13647.13825505101
 20
48953.37369752835
 10
13047.13825505102
 20
47803.37369752833
 10
11712.13825505101
 20
47803.37369752833
 10
11112.13825505102
 20
48953.37369752835
 10
9777.138255051015
 20
48953.37369752835
 10
9177.138255051016
 20
47803.37369752833
 10
7842.138255051017
 20
47803.37369752833
 10
7242.138255051017
 20
48953.37369752835
 10
5907.138255051017
 20
48953.37369752835
 10
5907.138255051017
 20
47703.37369752831
 10
4757.138255051017
 20
47153.3736975283
 10
4757.138255051017
 20
45928.37369752833
 10
5907.138255051017
 20
45378.37369752831
 10
5907.138255051017
 20
44153.37369752831
 10
4757.138255051017
 20
43603.37369752832
 10
4757.138255051017
 20
42378.3736975283
 10
5907.138255051017
 20
41828.37369752832
 10
5907.138255051017
 20
40603.37369752831
 10
4757.138255051017
 20
40053.3736975283
 10
4757.138255051017
 20
38828.37369752834
 10
21807.13825505102
 20
38828.37369752834
 10
21807.13825505102
 20
40053.3736975283
 10
22957.13825505102
 20
40603.37369752831
 10
22957.13825505102
 20
41828.37369752832
 10
21807.13825505102
 20
42378.3736975283
 10
21807.13825505102
 20
43603.37369752832
 10
22957.13825505102
 20
44153.37369752831
 10
22957.13825505102
 20
45378.37369752831
 10
21807.13825505102
 20
45928.37369752833
 10
21807.13825505102
 20
47153.3736975283
 10
22957.13825505102
 20
47703.37369752831
 10
22957.13825505102
 20
48953.37369752832
  0
LWPOLYLINE
  5
16A48
330
2E3A
100
AcDbEntity
  8
Omriss tanker
  6
Continuous
100
AcDbPolyline
 90
       33
 70
     1
 43
0.3
 39
0.1
 10
4757.138255051017
 20
67028.3736975282
 10
-4782.861744948983
 20
67027.78530424921
 10
-4782.861744948983
 20
65803.37369752821
 10
-3632.861744948983
 20
65253.3736975282
 10
-3632.861744948983
 20
64028.37369752822
 10
-4782.861744948983
 20
63478.37369752821
 10
-4782.861744948983
 20
62253.3736975282
 10
-3632.861744948983
 20
61703.37369752822
 10
-3632.861744948983
 20
60478.3736975282
 10
-4782.861744948983
 20
59928.3736975282
 10
-4782.861744948983
 20
58703.37369752821
 10
-3632.861744948983
 20
58153.3736975282
 10
-3632.861744948983
 20
56903.37369752832
 10
-2297.861744948983
 20
56903.37369752817
 10
-1697.861744948983
 20
58053.37369752817
 10
-362.861744948983
 20
58053.37369752817
 10
237.138255051017
 20
56903.37369752817
 10
1572.138255051017
 20
56903.37369752817
 10
2172.138255051017
 20
58053.37369752817
 10
3507.138255051017
 20
58053.37369752817
 10
4107.13825505103
 20
56903.37369752817
 10
5907.138255051017
 20
56903.37369752817
 10
5907.138255051017
 20
58153.3736975282
 10
4757.138255051017
 20
58703.37369752821
 10
4757.138255051017
 20
59928.3736975282
 10
5907.138255051017
 20
60478.3736975282
 10
5907.138255051017
 20
61703.37369752822
 10
4757.138255051017
 20
62253.3736975282
 10
4757.138255051017
 20
63478.37369752821
 10
5907.138255051017
 20
64028.37369752822
 10
5907.138255051017
 20
65253.3736975282
 10
4757.138255051017
 20
65803.37369752821
 10
4757.138255051017
 20
67028.3736975282
  0
LWPOLYLINE
  5
16A49
330
2E3A
100
AcDbEntity
  8
Omriss tanker
  6
Continuous
100
AcDbPolyline
 90
       37
 70
     1
 43
0.3
 39
0.1
 10
5907.138255051017
 20
56903.37369752817
 10
4107.13825505103
 20
56903.37369752817
 10
3507.138255051017
 20
58053.37369752817
 10
2172.138255051017
 20
58053.37369752817
 10
1572.138255051017
 20
56903.37369752817
 10
237.138255051017
 20
56903.37369752817
 10
-362.861744948983
 20
58053.37369752817
 10
-1697.861744948983
 20
58053.37369752817
 10
-2297.861744948983
 20
56903.37369752817
 10
-3632.861744948983
 20
56903.37369752817
 10
-3632.861744948983
 20
55753.37369752833
 10
-4782.861744948983
 20
55203.37369752832
 10
-4782.861744948983
 20
54053.37369752833
 10
-3632.861744948983
 20
53503.37369752831
 10
-3632.861744948983
 20
52353.3736975282
 10
-4782.861744948983
 20
51803.3736975282
 10
-4782.861744948983
 20
50653.37369752819
 10
-3632.861744948983
 20
50103.37369752821
 10
-3632.861744948983
 20
48953.37369752835
 10
-2297.861744948983
 20
48953.37369752835
 10
-1697.861744948983
 20
47803.37369752833
 10
-362.861744948983
 20
47803.37369752833
 10
237.138255051017
 20
48953.37369752835
 10
1572.138255051017
 20
48953.37369752835
 10
2172.138255051017
 20
47803.37369752833
 10
3507.138255051017
 20
47803.37369752833
 10
4107.13825505103
 20
48953.37369752835
 10
5907.138255051017
 20
48953.37369752835
 10
5907.138255051017
 20
50103.37369752821
 10
4757.138255051017
 20
50653.37369752819
 10
4757.138255051017
 20
51803.3736975282
 10
5907.138255051017
 20
52353.3736975282
 10
5907.138255051017
 20
53503.37369752831
 10
4757.138255051017
 20
54053.37369752833
 10
4757.138255051017
 20
55203.37369752832
 10
5907.138255051017
 20
55753.37369752833
 10
5907.138255051017
 20
56903.37369752817
  0
LWPOLYLINE
  5
16A4A
330
2E3A
100
AcDbEntity
  8
Omriss tanker
  6
Continuous
100
AcDbPolyline
 90
       33
 70
     1
 43
0.3
 39
0.1
 10
5907.138255051017
 20
48953.37369752835
 10
4107.13825505103
 20
48953.37369752835
 10
3507.138255051017
 20
47803.37369752833
 10
2172.138255051017
 20
47803.37369752833
 10
1572.138255051017
 20
48953.37369752835
 10
237.138255051017
 20
48953.37369752835
 10
-362.861744948983
 20
47803.37369752833
 10
-1697.861744948983
 20
47803.37369752833
 10
-2297.861744948983
 20
48953.37369752835
 10
-3632.861744948983
 20
48953.37369752819
 10
-3632.861744948983
 20
47703.37369752831
 10
-4782.861744948983
 20
47153.3736975283
 10
-4782.861744948983
 20
45928.37369752833
 10
-3632.861744948983
 20
45378.37369752831
 10
-3632.861744948983
 20
44153.37369752831
 10
-4782.861744948983
 20
43603.37369752832
 10
-4782.861744948983
 20
42378.3736975283
 10
-3632.861744948983
 20
41828.37369752832
 10
-3632.861744948983
 20
40603.37369752831
 10
-4782.861744948983
 20
40053.3736975283
 10
-4782.861744948983
 20
38828.96209080737
 10
4757.138255051017
 20
38828.37369752834
 10
4757.138255051017
 20
40053.3736975283
 10
5907.138255051017
 20
40603.37369752831
 10
5907.138255051017
 20
41828.37369752832
 10
4757.138255051017
 20
42378.3736975283
 10
4757.138255051017
 20
43603.37369752832
 10
5907.138255051017
 20
44153.37369752831
 10
5907.138255051017
 20
45378.37369752831
 10
4757.138255051017
 20
45928.37369752833
 10
4757.138255051017
 20
47153.3736975283
 10
5907.138255051017
 20
47703.37369752831
 10
5907.138255051017
 20
48953.37369752819
  0
LWPOLYLINE
  5
16A4B
330
2E3A
100
AcDbEntity
  8
Omriss tanker
  6
Continuous
100
AcDbPolyline
 90
       17
 70
     1
 43
0.3
 39
0.1
 10
-4782.861744948983
 20
67028.3736975282
 10
-7912.86174494872
 20
67027.78530424921
 10
-7912.861744948867
 20
58053.37369752822
 10
-5522.952654039895
 20
58053.37369752817
 10
-4922.952654039924
 20
56903.37369752817
 10
-3632.861744948983
 20
56903.37369752817
 10
-3632.861744948983
 20
58153.3736975282
 10
-4782.861744948983
 20
58703.37369752821
 10
-4782.861744948983
 20
59928.3736975282
 10
-3632.861744948983
 20
60478.3736975282
 10
-3632.861744948983
 20
61703.37369752822
 10
-4782.861744948983
 20
62253.3736975282
 10
-4782.861744948983
 20
63478.37369752821
 10
-3632.861744948983
 20
64028.37369752822
 10
-3632.861744948983
 20
65253.3736975282
 10
-4782.861744948983
 20
65803.37369752821
 10
-4782.861744948983
 20
67028.3736975282
  0
LWPOLYLINE
  5
16A4C
330
2E3A
100
AcDbEntity
  8
Omriss tanker
  6
Continuous
100
AcDbPolyline
 90
       19
 70
     1
 43
0.3
 39
0.1
 10
-3632.861744948983
 20
56903.37369752832
 10
-4922.952654039924
 20
56903.37369752817
 10
-5522.952654039895
 20
58053.37369752817
 10
-7912.861744948867
 20
58053.37369752822
 10
-7912.861744948867
 20
47803.37369752828
 10
-6836.299918567188
 20
47803.37369752825
 10
-5522.952654039895
 20
47803.37369752833
 10
-4922.952654039924
 20
48953.37369752835
 10
-3632.861744948983
 20
48953.37369752835
 10
-3632.861744948983
 20
50103.37369752821
 10
-4782.861744948983
 20
50653.37369752819
 10
-4782.861744948983
 20
51803.3736975282
 10
-3632.861744948983
 20
52353.3736975282
 10
-3632.861744948983
 20
53503.37369752831
 10
-4782.861744948983
 20
54053.37369752833
 10
-4782.861744948983
 20
55203.37369752832
 10
-3632.861744948983
 20
55753.37369752833
 10
-3632.861744948983
 20
56903.37369752832
 10
-3632.861744948983
 20
56903.37369752832
  0
LWPOLYLINE
  5
16A4D
330
2E3A
100
AcDbEntity
  8
Omriss tanker
  6
Continuous
100
AcDbPolyline
 90
       17
 70
     1
 43
0.3
 39
0.1
 10
-3603.952654039896
 20
48953.37369752835
 10
-4922.952654039924
 20
48953.37369752835
 10
-5522.952654039895
 20
47803.37369752833
 10
-7912.861744948867
 20
47803.37369752828
 10
-7912.861744949187
 20
38828.96209080739
 10
-4782.861744948983
 20
38828.96209080737
 10
-4782.861744948983
 20
40053.3736975283
 10
-3632.861744948983
 20
40603.37369752831
 10
-3632.861744948983
 20
41828.37369752832
 10
-4782.861744948983
 20
42378.3736975283
 10
-4782.861744948983
 20
43603.37369752832
 10
-3632.861744948983
 20
44153.37369752831
 10
-3632.861744948983
 20
45378.37369752831
 10
-4782.861744948983
 20
45928.37369752833
 10
-4782.861744948983
 20
47153.3736975283
 10
-3632.861744948983
 20
47703.37369752831
 10
-3632.861744948983
 20
48953.37369752819
  0
LWPOLYLINE
  5
16A4E
330
2E3A
100
AcDbEntity
  8
Omriss tanker
  6
Continuous
100
AcDbPolyline
 90
       25
 70
     1
 43
0.3
 39
0.1
 10
-7912.86174494872
 20
67027.78530424921
 10
-19532.86174494898
 20
67028.3736975282
 10
-19532.86174494898
 20
65803.37369752821
 10
-18382.86174494898
 20
65253.3736975282
 10
-18382.86174494898
 20
64028.37369752822
 10
-19532.86174494898
 20
63478.37369752821
 10
-19532.86174494898
 20
62253.3736975282
 10
-18382.86174494898
 20
61703.37369752822
 10
-18382.86174494898
 20
60478.3736975282
 10
-19532.86174494898
 20
59928.3736975282
 10
-19532.86174494898
 20
58703.37369752821
 10
-18382.86174494898
 20
58153.3736975282
 10
-18382.86174494898
 20
56903.3736975282
 10
-17182.86174494898
 20
56903.3736975282
 10
-16582.86174494898
 20
58053.3736975282
 10
-15332.86174494898
 20
58053.3736975282
 10
-14732.86174494898
 20
56903.3736975282
 10
-13482.86174494898
 20
56903.3736975282
 10
-12882.86174494898
 20
58053.3736975282
 10
-11632.86174494898
 20
58053.3736975282
 10
-11032.86174494898
 20
56903.3736975282
 10
-9782.861744948981
 20
56903.3736975282
 10
-9182.861744948985
 20
58053.3736975282
 10
-7912.861744948867
 20
58053.37369752822
 10
-7912.861744948867
 20
67027.78530424906
  0
LWPOLYLINE
  5
16A4F
330
2E3A
100
AcDbEntity
  8
Omriss tanker
  6
Continuous
100
AcDbPolyline
 90
       33
 70
     1
 43
0.3
 39
0.1
 10
-7912.861744948867
 20
58053.37369752822
 10
-9182.861744948985
 20
58053.3736975282
 10
-9782.861744948981
 20
56903.3736975282
 10
-11032.86174494898
 20
56903.3736975282
 10
-11632.86174494898
 20
58053.3736975282
 10
-12882.86174494898
 20
58053.3736975282
 10
-13482.86174494898
 20
56903.3736975282
 10
-14732.86174494898
 20
56903.3736975282
 10
-15332.86174494898
 20
58053.3736975282
 10
-16582.86174494898
 20
58053.3736975282
 10
-17182.86174494898
 20
56903.3736975282
 10
-18382.86174494898
 20
56903.3736975282
 10
-18382.86174494898
 20
55753.37369752833
 10
-19532.86174494898
 20
55203.37369752832
 10
-19532.86174494898
 20
54053.37369752833
 10
-18382.86174494898
 20
53503.37369752831
 10
-18382.86174494898
 20
52353.3736975282
 10
-19532.86174494898
 20
51803.3736975282
 10
-19532.86174494898
 20
50653.37369752819
 10
-18382.86174494898
 20
50103.37369752821
 10
-18382.86174494898
 20
48953.37369752832
 10
-17182.86174494898
 20
48953.37369752832
 10
-16582.86174494898
 20
47803.37369752833
 10
-15332.86174494898
 20
47803.37369752833
 10
-14732.86174494898
 20
48953.37369752832
 10
-13482.86174494898
 20
48953.37369752832
 10
-12882.86174494898
 20
47803.37369752833
 10
-11632.86174494898
 20
47803.37369752833
 10
-11032.86174494898
 20
48953.37369752832
 10
-9782.861744948981
 20
48953.37369752832
 10
-9182.861744948985
 20
47803.37369752833
 10
-7912.861744948867
 20
47803.37369752828
 10
-7912.861744948869
 20
58053.37369752822
  0
LWPOLYLINE
  5
16A50
330
2E3A
100
AcDbEntity
  8
Omriss tanker
  6
Continuous
100
AcDbPolyline
 90
       33
 70
     1
 43
0.3
 39
0.1
 10
-19532.86174494898
 20
67027.78530424915
 10
-35427.51024996032
 20
67027.78530424921
 10
-35432.36174494898
 20
57428.37369752827
 10
-34303.07457982103
 20
57487.46962884902
 10
-33693.74978902453
 20
56367.78224201527
 10
-32495.38949799509
 20
56430.49279044166
 10
-32006.21735534801
 20
57607.66484666632
 10
-30807.85706431862
 20
57670.37539509273
 10
-30198.5322735221
 20
56550.68800825898
 10
-29000.17198249271
 20
56613.39855668539
 10
-28510.99983984561
 20
57790.57061291003
 10
-27312.63954881621
 20
57853.28116133642
 10
-26703.31475801968
 20
56733.59377450267
 10
-25504.95446699028
 20
56796.30432292909
 10
-25015.78232434321
 20
57973.47637915369
 10
-23817.42203331379
 20
58036.1869275801
 10
-23232.86174494904
 20
56903.3736975282
 10
-22032.86174494897
 20
56903.3736975282
 10
-21482.86174494904
 20
58053.3736975282
 10
-20282.86174494904
 20
58053.3736975282
 10
-19732.86174494904
 20
56903.3736975282
 10
-18382.86174494898
 20
56903.3736975282
 10
-18382.86174494898
 20
58153.3736975282
 10
-19532.86174494898
 20
58703.37369752821
 10
-19532.86174494898
 20
59928.3736975282
 10
-18382.86174494898
 20
60478.3736975282
 10
-18382.86174494898
 20
61703.37369752822
 10
-19532.86174494898
 20
62253.3736975282
 10
-19532.86174494898
 20
63478.37369752821
 10
-18382.86174494898
 20
64028.37369752822
 10
-18382.86174494898
 20
65253.3736975282
 10
-19532.86174494898
 20
65803.37369752821
 10
-19532.86174494898
 20
67027.78530424915
  0
LWPOLYLINE
  5
16A51
330
2E3A
100
AcDbEntity
  8
Omriss tanker
  6
Continuous
100
AcDbPolyline
 90
       48
 70
     1
 43
0.3
 39
0.1
 10
-18382.86174494898
 20
56903.37369752832
 10
-19732.86174494904
 20
56903.3736975282
 10
-20282.86174494904
 20
58053.3736975282
 10
-21482.86174494904
 20
58053.3736975282
 10
-22032.86174494897
 20
56903.3736975282
 10
-23232.86174494904
 20
56903.3736975282
 10
-23817.42203331379
 20
58036.1869275801
 10
-25015.78232434321
 20
57973.47637915369
 10
-25504.95446699028
 20
56796.30432292909
 10
-26703.31475801968
 20
56733.59377450267
 10
-27312.63954881621
 20
57853.28116133642
 10
-28510.99983984561
 20
57790.57061291003
 10
-29000.17198249271
 20
56613.39855668539
 10
-30198.5322735221
 20
56550.68800825898
 10
-30807.85706431862
 20
57670.37539509273
 10
-32006.21735534801
 20
57607.66484666632
 10
-32495.38949799509
 20
56430.49279044166
 10
-33693.74978902453
 20
56367.78224201527
 10
-34299.49701107854
 20
57487.68760459507
 10
-35432.36174494898
 20
57428.37369752537
 10
-35432.36174494901
 20
48428.37369752828
 10
-34303.07457982103
 20
48369.27776620751
 10
-33693.74978902453
 20
49488.96515304124
 10
-32495.38949799509
 20
49426.25460461486
 10
-32006.21735534801
 20
48249.08254839018
 10
-30807.85706431862
 20
48186.3719999638
 10
-30198.5322735221
 20
49306.05938679754
 10
-29000.17198249271
 20
49243.34883837112
 10
-28510.99983984561
 20
48066.1767821465
 10
-27312.63954881621
 20
48003.4662337201
 10
-26703.31475801968
 20
49123.15362055383
 10
-25504.95446699028
 20
49060.44307212744
 10
-25015.78232434321
 20
47883.27101590283
 10
-23817.42203331379
 20
47820.56046747643
 10
-23233.60835302346
 20
48928.38484848756
 10
-22032.86174494904
 20
48928.38484848756
 10
-21482.86174494904
 20
47803.37369752833
 10
-20282.86174494904
 20
47803.37369752833
 10
-19732.86174494904
 20
48953.37369752832
 10
-18382.86174494898
 20
48953.37369752819
 10
-18382.86174494898
 20
50103.37369752821
 10
-19532.86174494898
 20
50653.37369752819
 10
-19532.86174494898
 20
51803.3736975282
 10
-18382.86174494898
 20
52353.3736975282
 10
-18382.86174494898
 20
53503.37369752831
 10
-19532.86174494898
 20
54053.37369752833
 10
-19532.86174494898
 20
55203.37369752832
 10
-18382.86174494898
 20
55753.37369752833
  0
LWPOLYLINE
  5
16A52
330
2E3A
100
AcDbEntity
  8
Omriss tanker
  6
Continuous
100
AcDbPolyline
 90
       34
 70
     1
 43
0.3
 39
0.1
 10
-18382.86174494898
 20
48953.37369752832
 10
-19732.86174494904
 20
48953.37369752832
 10
-20282.86174494904
 20
47803.37369752833
 10
-21482.86174494904
 20
47803.37369752833
 10
-22032.86174494904
 20
48953.37369752832
 10
-23232.86174494904
 20
48953.37369752832
 10
-23817.42203331379
 20
47820.56046747643
 10
-25015.78232434321
 20
47883.27101590283
 10
-25504.95446699028
 20
49060.44307212744
 10
-26703.31475801968
 20
49123.15362055383
 10
-27242.32885374517
 20
48132.66826130811
 10
-27312.63954881621
 20
48003.4662337201
 10
-28510.99983984561
 20
48066.1767821465
 10
-29000.17198249271
 20
49243.34883837112
 10
-30198.5322735221
 20
49306.05938679754
 10
-30807.85706431862
 20
48186.3719999638
 10
-32006.21735534801
 20
48249.08254839018
 10
-32495.38949799509
 20
49426.25460461486
 10
-33693.74978902453
 20
49488.96515304124
 10
-34299.49701107854
 20
48369.05979046146
 10
-35432.36174494897
 20
48428.37369752828
 10
-35432.36174494898
 20
38828.96209080739
 10
-19532.86174494897
 20
38828.96209080739
 10
-19532.86174494898
 20
40053.3736975283
 10
-18382.86174494898
 20
40603.37369752831
 10
-18382.86174494898
 20
41828.37369752832
 10
-19532.86174494898
 20
42378.3736975283
 10
-19532.86174494898
 20
43603.37369752832
 10
-18382.86174494898
 20
44153.37369752831
 10
-18382.86174494898
 20
45378.37369752831
 10
-19532.86174494898
 20
45928.37369752833
 10
-19532.86174494898
 20
47153.3736975283
 10
-18382.86174494898
 20
47703.37369752831
 10
-18382.86174494898
 20
48953.37369752832
  0
LWPOLYLINE
  5
16A55
330
2E3A
100
AcDbEntity
  8
Omriss tanker
  6
Continuous
100
AcDbPolyline
 90
       25
 70
     1
 43
0.3
 39
0.1
 10
-7912.861744948867
 20
47803.37369752828
 10
-9182.861744948985
 20
47803.37369752833
 10
-9782.861744948981
 20
48953.37369752832
 10
-11032.86174494898
 20
48953.37369752832
 10
-11632.86174494898
 20
47803.37369752833
 10
-12882.86174494898
 20
47803.37369752833
 10
-13482.86174494898
 20
48953.37369752832
 10
-14732.86174494898
 20
48953.37369752832
 10
-15332.86174494898
 20
47803.37369752833
 10
-16582.86174494898
 20
47803.37369752833
 10
-17182.86174494898
 20
48953.37369752832
 10
-18382.86174494898
 20
48953.37369752819
 10
-18382.86174494898
 20
47703.37369752831
 10
-19532.86174494898
 20
47153.3736975283
 10
-19532.86174494898
 20
45928.37369752833
 10
-18382.86174494898
 20
45378.37369752831
 10
-18382.86174494898
 20
44153.37369752831
 10
-19532.86174494898
 20
43603.37369752832
 10
-19532.86174494898
 20
42378.3736975283
 10
-18382.86174494898
 20
41828.37369752832
 10
-18382.86174494898
 20
40603.37369752831
 10
-19532.86174494898
 20
40053.3736975283
 10
-19532.86174494897
 20
38828.96209080739
 10
-7912.861744949187
 20
38828.96209080739
 10
-7912.861744948867
 20
47803.37369752828
  0
TEXT
  5
16A65
330
2E3A
100
AcDbEntity
  8
TEKST
  6
Continuous
100
AcDbText
 10
85187.29786097145
 20
60956.86078018114
 30
0.0
 40
600.0
  1
_tn 0
  7
ARIAL
100
AcDbText
  0
TEXT
  5
16A66
330
2E3A
100
AcDbEntity
  8
TEKST
  6
Continuous
100
AcDbText
 10
86743.45981333704
 20
59432.67502531583
 30
0.0
 40
600.0
  1
_tv 0
  7
ARIAL
100
AcDbText
  0
TEXT
  5
16A71
330
2E3A
100
AcDbEntity
  8
TEKST
  6
Continuous
100
AcDbText
 10
85187.29786097145
 20
53408.49106484525
 30
0.0
 40
600.0
  1
_tn 1
  7
ARIAL
100
AcDbText
  0
TEXT
  5
16A72
330
2E3A
100
AcDbEntity
  8
TEKST
  6
Continuous
100
AcDbText
 10
86743.45981333704
 20
51884.30530997995
 30
0.0
 40
600.0
  1
_tv 1
  7
ARIAL
100
AcDbText
  0
TEXT
  5
16A74
330
2E3A
100
AcDbEntity
  8
TEKST
  6
Continuous
100
AcDbText
 10
85187.29786097145
 20
44923.4626103671
 30
0.0
 40
600.0
  1
_tn 2
  7
ARIAL
100
AcDbText
  0
TEXT
  5
16A75
330
2E3A
100
AcDbEntity
  8
TEKST
  6
Continuous
100
AcDbText
 10
86743.45981333704
 20
43399.27685550183
 30
0.0
 40
600.0
  1
_tv 2
  7
ARIAL
100
AcDbText
  0
TEXT
  5
16A77
330
2E3A
100
AcDbEntity
  8
TEKST
  6
Continuous
100
AcDbText
 10
73170.36026705959
 20
60956.86078018114
 30
0.0
 40
600.0
  1
_tn 3
  7
ARIAL
100
AcDbText
  0
TEXT
  5
16A78
330
2E3A
100
AcDbEntity
  8
TEKST
  6
Continuous
100
AcDbText
 10
74726.52221942521
 20
59432.67502531583
 30
0.0
 40
600.0
  1
_tv 3
  7
ARIAL
100
AcDbText
  0
TEXT
  5
16A7A
330
2E3A
100
AcDbEntity
  8
TEKST
  6
Continuous
100
AcDbText
 10
73170.36026705959
 20
53408.49106484525
 30
0.0
 40
600.0
  1
_tn 4
  7
ARIAL
100
AcDbText
  0
TEXT
  5
16A7B
330
2E3A
100
AcDbEntity
  8
TEKST
  6
Continuous
100
AcDbText
 10
74726.52221942521
 20
51884.30530997995
 30
0.0
 40
600.0
  1
_tv 4
  7
ARIAL
100
AcDbText
  0
TEXT
  5
16A7D
330
2E3A
100
AcDbEntity
  8
TEKST
  6
Continuous
100
AcDbText
 10
73170.36026705959
 20
44923.4626103671
 30
0.0
 40
600.0
  1
_tn 5
  7
ARIAL
100
AcDbText
  0
TEXT
  5
16A7E
330
2E3A
100
AcDbEntity
  8
TEKST
  6
Continuous
100
AcDbText
 10
74726.52221942521
 20
43399.27685550183
 30
0.0
 40
600.0
  1
_tv 5
  7
ARIAL
100
AcDbText
  0
TEXT
  5
16A80
330
2E3A
100
AcDbEntity
  8
TEKST
  6
Continuous
100
AcDbText
 10
64963.14102449805
 20
60956.86078018114
 30
0.0
 40
600.0
  1
_tn 6
  7
ARIAL
100
AcDbText
  0
TEXT
  5
16A81
330
2E3A
100
AcDbEntity
  8
TEKST
  6
Continuous
100
AcDbText
 10
66519.30297686366
 20
59432.67502531583
 30
0.0
 40
600.0
  1
_tv 6
  7
ARIAL
100
AcDbText
  0
TEXT
  5
16A83
330
2E3A
100
AcDbEntity
  8
TEKST
  6
Continuous
100
AcDbText
 10
64963.14102449805
 20
53408.49106484525
 30
0.0
 40
600.0
  1
_tn 7
  7
ARIAL
100
AcDbText
  0
TEXT
  5
16A84
330
2E3A
100
AcDbEntity
  8
TEKST
  6
Continuous
100
AcDbText
 10
66519.30297686366
 20
51884.30530997995
 30
0.0
 40
600.0
  1
_tv 7
  7
ARIAL
100
AcDbText
  0
TEXT
  5
16A86
330
2E3A
100
AcDbEntity
  8
TEKST
  6
Continuous
100
AcDbText
 10
64963.14102449805
 20
44923.4626103671
 30
0.0
 40
600.0
  1
_tn 8
  7
ARIAL
100
AcDbText
  0
TEXT
  5
16A87
330
2E3A
100
AcDbEntity
  8
TEKST
  6
Continuous
100
AcDbText
 10
66519.30297686366
 20
43399.27685550183
 30
0.0
 40
600.0
  1
_tv 8
  7
ARIAL
100
AcDbText
  0
TEXT
  5
16A89
330
2E3A
100
AcDbEntity
  8
TEKST
  6
Continuous
100
AcDbText
 10
60401.32106192767
 20
60954.15799028393
 30
0.0
 40
600.0
  1
_tn 9
  7
ARIAL
100
AcDbText
  0
TEXT
  5
16A8A
330
2E3A
100
AcDbEntity
  8
TEKST
  6
Continuous
100
AcDbText
 10
60467.36291889593
 20
59429.97223541862
 30
0.0
 40
600.0
  1
_tv 9
  7
ARIAL
100
AcDbText
  0
TEXT
  5
16A8C
330
2E3A
100
AcDbEntity
  8
TEKST
  6
Continuous
100
AcDbText
 10
60401.32106192767
 20
53405.78827494804
 30
0.0
 40
600.0
  1
_tn 10
  7
ARIAL
100
AcDbText
  0
TEXT
  5
16A8D
330
2E3A
100
AcDbEntity
  8
TEKST
  6
Continuous
100
AcDbText
 10
60467.36291889593
 20
51881.60252008273
 30
0.0
 40
600.0
  1
_tv 10
  7
ARIAL
100
AcDbText
  0
TEXT
  5
16A8F
330
2E3A
100
AcDbEntity
  8
TEKST
  6
Continuous
100
AcDbText
 10
60401.32106192767
 20
44920.75982046989
 30
0.0
 40
600.0
  1
_tn 11
  7
ARIAL
100
AcDbText
  0
TEXT
  5
16A90
330
2E3A
100
AcDbEntity
  8
TEKST
  6
Continuous
100
AcDbText
 10
60467.36291889593
 20
43396.57406560461
 30
0.0
 40
600.0
  1
_tv 11
  7
ARIAL
100
AcDbText
  0
TEXT
  5
16A92
330
2E3A
100
AcDbEntity
  8
TEKST
  6
Continuous
100
AcDbText
 10
55550.44718975612
 20
60954.15799028393
 30
0.0
 40
600.0
  1
_tn 12
  7
ARIAL
100
AcDbText
  0
TEXT
  5
16A93
330
2E3A
100
AcDbEntity
  8
TEKST
  6
Continuous
100
AcDbText
 10
56173.05427022233
 20
59429.97223541862
 30
0.0
 40
600.0
  1
_tv 12
  7
ARIAL
100
AcDbText
  0
TEXT
  5
16A95
330
2E3A
100
AcDbEntity
  8
TEKST
  6
Continuous
100
AcDbText
 10
55550.44718975612
 20
53405.78827494804
 30
0.0
 40
600.0
  1
_tn 13
  7
ARIAL
100
AcDbText
  0
TEXT
  5
16A96
330
2E3A
100
AcDbEntity
  8
TEKST
  6
Continuous
100
AcDbText
 10
56173.05427022233
 20
51881.60252008273
 30
0.0
 40
600.0
  1
_tv 13
  7
ARIAL
100
AcDbText
  0
TEXT
  5
16A98
330
2E3A
100
AcDbEntity
  8
TEKST
  6
Continuous
100
AcDbText
 10
55550.44718975612
 20
44920.75982046989
 30
0.0
 40
600.0
  1
_tn 14
  7
ARIAL
100
AcDbText
  0
TEXT
  5
16A99
330
2E3A
100
AcDbEntity
  8
TEKST
  6
Continuous
100
AcDbText
 10
56173.05427022233
 20
43396.57406560461
 30
0.0
 40
600.0
  1
_tv 14
  7
ARIAL
100
AcDbText
  0
TEXT
  5
16A9B
330
2E3A
100
AcDbEntity
  8
TEKST
  6
Continuous
100
AcDbText
 10
45487.09407429499
 20
60954.15799028393
 30
0.0
 40
600.0
  1
_tn 15
  7
ARIAL
100
AcDbText
  0
TEXT
  5
16A9C
330
2E3A
100
AcDbEntity
  8
TEKST
  6
Continuous
100
AcDbText
 10
47043.25602666059
 20
59429.97223541862
 30
0.0
 40
600.0
  1
_tv 15
  7
ARIAL
100
AcDbText
  0
TEXT
  5
16A9E
330
2E3A
100
AcDbEntity
  8
TEKST
  6
Continuous
100
AcDbText
 10
45487.09407429499
 20
53405.78827494804
 30
0.0
 40
600.0
  1
_tn 16
  7
ARIAL
100
AcDbText
  0
TEXT
  5
16A9F
330
2E3A
100
AcDbEntity
  8
TEKST
  6
Continuous
100
AcDbText
 10
47043.25602666059
 20
51881.60252008273
 30
0.0
 40
600.0
  1
_tv 16
  7
ARIAL
100
AcDbText
  0
TEXT
  5
16AA1
330
2E3A
100
AcDbEntity
  8
TEKST
  6
Continuous
100
AcDbText
 10
45487.09407429499
 20
44920.75982046989
 30
0.0
 40
600.0
  1
_tn 17
  7
ARIAL
100
AcDbText
  0
TEXT
  5
16AA2
330
2E3A
100
AcDbEntity
  8
TEKST
  6
Continuous
100
AcDbText
 10
47043.25602666059
 20
43396.57406560461
 30
0.0
 40
600.0
  1
_tv 17
  7
ARIAL
100
AcDbText
  0
TEXT
  5
16AA4
330
2E3A
100
AcDbEntity
  8
TEKST
  6
Continuous
100
AcDbText
 10
31265.21392387323
 20
60954.15799028393
 30
0.0
 40
600.0
  1
_tn 18
  7
ARIAL
100
AcDbText
  0
TEXT
  5
16AA5
330
2E3A
100
AcDbEntity
  8
TEKST
  6
Continuous
100
AcDbText
 10
32821.37587623883
 20
59429.97223541862
 30
0.0
 40
600.0
  1
_tv 18
  7
ARIAL
100
AcDbText
  0
TEXT
  5
16AA7
330
2E3A
100
AcDbEntity
  8
TEKST
  6
Continuous
100
AcDbText
 10
31265.21392387323
 20
53405.78827494804
 30
0.0
 40
600.0
  1
_tn 19
  7
ARIAL
100
AcDbText
  0
TEXT
  5
16AA8
330
2E3A
100
AcDbEntity
  8
TEKST
  6
Continuous
100
AcDbText
 10
32821.37587623883
 20
51881.60252008273
 30
0.0
 40
600.0
  1
_tv 19
  7
ARIAL
100
AcDbText
  0
TEXT
  5
16AAA
330
2E3A
100
AcDbEntity
  8
TEKST
  6
Continuous
100
AcDbText
 10
31265.21392387323
 20
44920.75982046989
 30
0.0
 40
600.0
  1
_tn 20
  7
ARIAL
100
AcDbText
  0
TEXT
  5
16AAB
330
2E3A
100
AcDbEntity
  8
TEKST
  6
Continuous
100
AcDbText
 10
32821.37587623883
 20
43396.57406560461
 30
0.0
 40
600.0
  1
_tv 20
  7
ARIAL
100
AcDbText
  0
TEXT
  5
16AAD
330
2E3A
100
AcDbEntity
  8
TEKST
  6
Continuous
100
AcDbText
 10
23823.53258911081
 20
60954.15799028393
 30
0.0
 40
600.0
  1
_tn 21
  7
ARIAL
100
AcDbText
  0
TEXT
  5
16AAE
330
2E3A
100
AcDbEntity
  8
TEKST
  6
Continuous
100
AcDbText
 10
25379.69454147641
 20
59429.97223541862
 30
0.0
 40
600.0
  1
_tv 21
  7
ARIAL
100
AcDbText
  0
TEXT
  5
16AB0
330
2E3A
100
AcDbEntity
  8
TEKST
  6
Continuous
100
AcDbText
 10
23823.53258911081
 20
53405.78827494804
 30
0.0
 40
600.0
  1
_tn 22
  7
ARIAL
100
AcDbText
  0
TEXT
  5
16AB1
330
2E3A
100
AcDbEntity
  8
TEKST
  6
Continuous
100
AcDbText
 10
25379.69454147641
 20
51881.60252008273
 30
0.0
 40
600.0
  1
_tv 22
  7
ARIAL
100
AcDbText
  0
TEXT
  5
16AB3
330
2E3A
100
AcDbEntity
  8
TEKST
  6
Continuous
100
AcDbText
 10
23823.53258911081
 20
44920.75982046989
 30
0.0
 40
600.0
  1
_tn 23
  7
ARIAL
100
AcDbText
  0
TEXT
  5
16AB4
330
2E3A
100
AcDbEntity
  8
TEKST
  6
Continuous
100
AcDbText
 10
25379.69454147641
 20
43396.57406560461
 30
0.0
 40
600.0
  1
_tv 23
  7
ARIAL
100
AcDbText
  0
TEXT
  5
16AB6
330
2E3A
100
AcDbEntity
  8
TEKST
  6
Continuous
100
AcDbText
 10
11727.34792453571
 20
60954.15799028393
 30
0.0
 40
600.0
  1
_tn 24
  7
ARIAL
100
AcDbText
  0
TEXT
  5
16AB7
330
2E3A
100
AcDbEntity
  8
TEKST
  6
Continuous
100
AcDbText
 10
13283.50987690131
 20
59429.97223541862
 30
0.0
 40
600.0
  1
_tv 24
  7
ARIAL
100
AcDbText
  0
TEXT
  5
16AB9
330
2E3A
100
AcDbEntity
  8
TEKST
  6
Continuous
100
AcDbText
 10
11727.34792453571
 20
53405.78827494804
 30
0.0
 40
600.0
  1
_tn 25
  7
ARIAL
100
AcDbText
  0
TEXT
  5
16ABA
330
2E3A
100
AcDbEntity
  8
TEKST
  6
Continuous
100
AcDbText
 10
13283.50987690131
 20
51881.60252008273
 30
0.0
 40
600.0
  1
_tv 25
  7
ARIAL
100
AcDbText
  0
TEXT
  5
16ABC
330
2E3A
100
AcDbEntity
  8
TEKST
  6
Continuous
100
AcDbText
 10
11727.34792453571
 20
44920.75982046989
 30
0.0
 40
600.0
  1
_tn 26
  7
ARIAL
100
AcDbText
  0
TEXT
  5
16ABD
330
2E3A
100
AcDbEntity
  8
TEKST
  6
Continuous
100
AcDbText
 10
13283.50987690131
 20
43396.57406560461
 30
0.0
 40
600.0
  1
_tv 26
  7
ARIAL
100
AcDbText
  0
TEXT
  5
16ABF
330
2E3A
100
AcDbEntity
  8
TEKST
  6
Continuous
100
AcDbText
 10
-1116.443334608775
 20
60954.15799028393
 30
0.0
 40
600.0
  1
_tn 27
  7
ARIAL
100
AcDbText
  0
TEXT
  5
16AC0
330
2E3A
100
AcDbEntity
  8
TEKST
  6
Continuous
100
AcDbText
 10
439.7186177568219
 20
59429.97223541862
 30
0.0
 40
600.0
  1
_tv 27
  7
ARIAL
100
AcDbText
  0
TEXT
  5
16AC2
330
2E3A
100
AcDbEntity
  8
TEKST
  6
Continuous
100
AcDbText
 10
-1116.443334608775
 20
53405.78827494804
 30
0.0
 40
600.0
  1
_tn 28
  7
ARIAL
100
AcDbText
  0
TEXT
  5
16AC3
330
2E3A
100
AcDbEntity
  8
TEKST
  6
Continuous
100
AcDbText
 10
439.7186177568219
 20
51881.60252008273
 30
0.0
 40
600.0
  1
_tv 28
  7
ARIAL
100
AcDbText
  0
TEXT
  5
16AC5
330
2E3A
100
AcDbEntity
  8
TEKST
  6
Continuous
100
AcDbText
 10
-1116.443334608775
 20
44920.75982046989
 30
0.0
 40
600.0
  1
_tn 29
  7
ARIAL
100
AcDbText
  0
TEXT
  5
16AC6
330
2E3A
100
AcDbEntity
  8
TEKST
  6
Continuous
100
AcDbText
 10
439.7186177568219
 20
43396.57406560461
 30
0.0
 40
600.0
  1
_tv 29
  7
ARIAL
100
AcDbText
  0
TEXT
  5
16AC8
330
2E3A
100
AcDbEntity
  8
TEKST
  6
Continuous
100
AcDbText
 10
-7180.035365011106
 20
60954.15799028393
 30
0.0
 40
600.0
  1
_tn 30
  7
ARIAL
100
AcDbText
  0
TEXT
  5
16AC9
330
2E3A
100
AcDbEntity
  8
TEKST
  6
Continuous
100
AcDbText
 10
-5623.873412645509
 20
59429.97223541862
 30
0.0
 40
600.0
  1
_tv 30
  7
ARIAL
100
AcDbText
  0
TEXT
  5
16ACB
330
2E3A
100
AcDbEntity
  8
TEKST
  6
Continuous
100
AcDbText
 10
-7180.035365011106
 20
53405.78827494804
 30
0.0
 40
600.0
  1
_tn 31
  7
ARIAL
100
AcDbText
  0
TEXT
  5
16ACC
330
2E3A
100
AcDbEntity
  8
TEKST
  6
Continuous
100
AcDbText
 10
-5623.873412645509
 20
51881.60252008273
 30
0.0
 40
600.0
  1
_tv 31
  7
ARIAL
100
AcDbText
  0
TEXT
  5
16ACE
330
2E3A
100
AcDbEntity
  8
TEKST
  6
Continuous
100
AcDbText
 10
-7180.035365011106
 20
44920.75982046989
 30
0.0
 40
600.0
  1
_tn 32
  7
ARIAL
100
AcDbText
  0
TEXT
  5
16ACF
330
2E3A
100
AcDbEntity
  8
TEKST
  6
Continuous
100
AcDbText
 10
-5623.873412645509
 20
43396.57406560461
 30
0.0
 40
600.0
  1
_tv 32
  7
ARIAL
100
AcDbText
  0
TEXT
  5
16AD1
330
2E3A
100
AcDbEntity
  8
TEKST
  6
Continuous
100
AcDbText
 10
-15100.18777883189
 20
60954.15799028393
 30
0.0
 40
600.0
  1
_tn 33
  7
ARIAL
100
AcDbText
  0
TEXT
  5
16AD2
330
2E3A
100
AcDbEntity
  8
TEKST
  6
Continuous
100
AcDbText
 10
-13544.0258264663
 20
59429.97223541862
 30
0.0
 40
600.0
  1
_tv 33
  7
ARIAL
100
AcDbText
  0
TEXT
  5
16AD4
330
2E3A
100
AcDbEntity
  8
TEKST
  6
Continuous
100
AcDbText
 10
-15100.18777883189
 20
53405.78827494804
 30
0.0
 40
600.0
  1
_tn 34
  7
ARIAL
100
AcDbText
  0
TEXT
  5
16AD5
330
2E3A
100
AcDbEntity
  8
TEKST
  6
Continuous
100
AcDbText
 10
-13544.0258264663
 20
51881.60252008273
 30
0.0
 40
600.0
  1
_tv 34
  7
ARIAL
100
AcDbText
  0
TEXT
  5
16AD7
330
2E3A
100
AcDbEntity
  8
TEKST
  6
Continuous
100
AcDbText
 10
-15100.18777883189
 20
44920.75982046989
 30
0.0
 40
600.0
  1
_tn 35
  7
ARIAL
100
AcDbText
  0
TEXT
  5
16AD8
330
2E3A
100
AcDbEntity
  8
TEKST
  6
Continuous
100
AcDbText
 10
-13544.0258264663
 20
43396.57406560461
 30
0.0
 40
600.0
  1
_tv 35
  7
ARIAL
100
AcDbText
  0
TEXT
  5
16ADA
330
2E3A
100
AcDbEntity
  8
TEKST
  6
Continuous
100
AcDbText
 10
-27602.21156202034
 20
60954.15799028393
 30
0.0
 40
600.0
  1
_tn 36
  7
ARIAL
100
AcDbText
  0
TEXT
  5
16ADB
330
2E3A
100
AcDbEntity
  8
TEKST
  6
Continuous
100
AcDbText
 10
-26046.04960965474
 20
59429.97223541862
 30
0.0
 40
600.0
  1
_tv 36
  7
ARIAL
100
AcDbText
  0
TEXT
  5
16ADD
330
2E3A
100
AcDbEntity
  8
TEKST
  6
Continuous
100
AcDbText
 10
-27602.21156202034
 20
53405.78827494804
 30
0.0
 40
600.0
  1
_tn 37
  7
ARIAL
100
AcDbText
  0
TEXT
  5
16ADE
330
2E3A
100
AcDbEntity
  8
TEKST
  6
Continuous
100
AcDbText
 10
-26046.04960965474
 20
51881.60252008273
 30
0.0
 40
600.0
  1
_tv 37
  7
ARIAL
100
AcDbText
  0
TEXT
  5
16AE0
330
2E3A
100
AcDbEntity
  8
TEKST
  6
Continuous
100
AcDbText
 10
-27602.21156202034
 20
44920.75982046989
 30
0.0
 40
600.0
  1
_tn 38
  7
ARIAL
100
AcDbText
  0
TEXT
  5
16AE1
330
2E3A
100
AcDbEntity
  8
TEKST
  6
Continuous
100
AcDbText
 10
-26046.04960965474
 20
43396.57406560461
 30
0.0
 40
600.0
  1
_tv 38
  7
ARIAL
100
AcDbText
  0
LWPOLYLINE
  5
16AF2
330
2E3A
100
AcDbEntity
  8
Omriss tanker
  6
Continuous
100
AcDbPolyline
 90
       53
 70
     1
 43
0.3
 39
0.1
 10
54757.13825505102
 20
56903.37369752832
 10
53187.13825505102
 20
56903.37369752817
 10
52587.13825505101
 20
58053.37369752817
 10
51252.13825505102
 20
58053.37369752817
 10
50652.13825505101
 20
56903.37369752817
 10
49317.13825505101
 20
56903.37369752817
 10
48717.13825505102
 20
58053.37369752817
 10
47382.13825505101
 20
58053.37369752817
 10
46782.13825505102
 20
56903.37369752817
 10
45447.13825505102
 20
56903.37369752817
 10
44847.13825505101
 20
58053.37369752817
 10
43512.13825505102
 20
58053.37369752817
 10
42912.13825505101
 20
56903.37369752817
 10
41577.138255051
 20
56903.37369752817
 10
40977.13825505102
 20
58053.37369752817
 10
39642.13825505102
 20
58053.37369752817
 10
39042.13825505102
 20
56903.37369752817
 10
37707.13825505102
 20
56903.37369752817
 10
37707.13825505102
 20
55753.37369752833
 10
36557.13825505102
 20
55203.37369752832
 10
36557.13825505102
 20
54053.37369752833
 10
37707.13825505099
 20
53503.37369752831
 10
37707.13825505102
 20
52303.37369752832
 10
36557.13825505102
 20
51803.3736975282
 10
36557.13825505102
 20
50653.37369752819
 10
37707.13825505102
 20
50103.37369752821
 10
37707.13825505102
 20
48953.37369752835
 10
39042.13825505102
 20
48953.37369752835
 10
39642.13825505102
 20
47803.37369752833
 10
40977.13825505102
 20
47803.37369752833
 10
41577.138255051
 20
48953.37369752835
 10
42912.13825505101
 20
48953.37369752835
 10
43512.13825505102
 20
47803.37369752833
 10
44847.13825505101
 20
47803.37369752833
 10
45447.13825505102
 20
48953.37369752835
 10
46782.13825505102
 20
48953.37369752835
 10
47382.13825505101
 20
47803.37369752833
 10
48717.13825505102
 20
47803.37369752833
 10
49317.13825505101
 20
48953.37369752835
 10
50652.13825505101
 20
48953.37369752835
 10
51252.13825505102
 20
47803.37369752833
 10
52587.13825505101
 20
47803.37369752833
 10
53187.13825505102
 20
48953.37369752835
 10
54757.13825505102
 20
48953.37369752819
 10
54757.13825505102
 20
50103.37369752821
 10
53607.13825505102
 20
50653.37369752819
 10
53607.13825505102
 20
51803.3736975282
 10
54757.13825505102
 20
52353.3736975282
 10
54757.13825505102
 20
53503.37369752828
 10
53607.13825505102
 20
54053.37369752833
 10
53607.13825505102
 20
55203.37369752832
 10
54757.13825505102
 20
55753.37369752833
 10
54757.13825505102
 20
56903.3736975282
  0
ENDSEC
  0
SECTION
  2
OBJECTS
  0
DICTIONARY
  5
2E2E
330
0
100
AcDbDictionary
281
     1
  3
ACAD_COLOR
350
1608D
  3
ACAD_GROUP
350
2E2F
  3
ACAD_LAYOUT
350
158C0
  3
ACAD_MATERIAL
350
16078
  3
ACAD_MLINESTYLE
350
2E30
  3
ACAD_PLOTSETTINGS
350
158C1
  3
ACAD_PLOTSTYLENAME
350
158BE
  3
ACAD_TABLESTYLE
350
1608E
  3
ACAD_VISUALSTYLE
350
1607C
  3
ACDBVARIABLEDICTIONARY
350
15033
  3
ASE_INDEX_DICTIONARY
350
15AF5
  0
DICTIONARY
  5
15B01
330
2E24
100
AcDbDictionary
280
     1
281
     1
  3
ACAD_LAYERFILTERS
360
16A5D
  3
ACAD_LAYERSTATES
360
15BDD
  3
ACLYDICTIONARY
360
16A5C
  0
DICTIONARY
  5
1608D
102
{ACAD_REACTORS
330
2E2E
102
}
330
2E2E
100
AcDbDictionary
281
     1
  0
DICTIONARY
  5
2E2F
102
{ACAD_REACTORS
330
2E2E
102
}
330
2E2E
100
AcDbDictionary
281
     1
  0
DICTIONARY
  5
158C0
102
{ACAD_REACTORS
330
2E2E
102
}
330
2E2E
100
AcDbDictionary
281
     1
  3
Layout1
350
158C3
  3
Model
350
158C2
  0
DICTIONARY
  5
16078
102
{ACAD_REACTORS
330
2E2E
102
}
330
2E2E
100
AcDbDictionary
281
     1
  3
ByBlock
350
1607A
  3
ByLayer
350
16079
  3
Global
350
1607B
  0
DICTIONARY
  5
2E30
102
{ACAD_REACTORS
330
2E2E
102
}
330
2E2E
100
AcDbDictionary
281
     1
  3
STANDARD
350
2E3D
  0
DICTIONARY
  5
158C1
102
{ACAD_REACTORS
330
2E2E
102
}
330
2E2E
100
AcDbDictionary
281
     1
  0
ACDBDICTIONARYWDFLT
  5
158BE
102
{ACAD_REACTORS
330
2E2E
102
}
330
2E2E
100
AcDbDictionary
281
     1
  3
Normal
350
158BF
100
AcDbDictionaryWithDefault
340
158BF
  0
DICTIONARY
  5
1608E
102
{ACAD_REACTORS
330
2E2E
102
}
330
2E2E
100
AcDbDictionary
281
     1
  3
Standard
350
1608F
  0
DICTIONARY
  5
1607C
102
{ACAD_REACTORS
330
2E2E
102
}
330
2E2E
100
AcDbDictionary
281
     1
  3
2dWireframe
350
16082
  3
3D Hidden
350
16084
  3
3dWireframe
350
16083
  3
Basic
350
16081
  3
Brighten
350
16088
  3
ColorChange
350
1608C
  3
Conceptual
350
16085
  3
Dim
350
16087
  3
Facepattern
350
1608B
  3
Flat
350
1607D
  3
FlatWithEdges
350
1607E
  3
Gouraud
350
1607F
  3
GouraudWithEdges
350
16080
  3
Linepattern
350
1608A
  3
Realistic
350
16086
  3
Thicken
350
16089
  0
DICTIONARY
  5
15033
102
{ACAD_REACTORS
330
2E2E
102
}
330
2E2E
100
AcDbDictionary
281
     1
  3
CTABLESTYLE
350
16094
  3
SORTENTS
350
15034
  0
DICTIONARY
  5
15AF5
102
{ACAD_REACTORS
330
2E2E
102
}
330
2E2E
100
AcDbDictionary
281
     1
  3
ASEBlockHierarchyIndexRecord
350
15AF7
1001
DCO15
1040
1538987196.419
  0
DICTIONARY
  5
16A5D
102
{ACAD_REACTORS
330
15B01
102
}
330
15B01
100
AcDbDictionary
281
     1
  0
DICTIONARY
  5
15BDD
102
{ACAD_REACTORS
330
15B01
102
}
330
15B01
100
AcDbDictionary
281
     1
  0
DICTIONARY
  5
16A5C
102
{ACAD_REACTORS
330
15B01
102
}
330
15B01
100
AcDbDictionary
281
     1
1001
ACAD
1000
<All
  0
LAYOUT
  5
158C3
102
{ACAD_REACTORS
330
158C0
102
}
330
158C0
100
AcDbPlotSettings
  1

  2
\\TSN_SERVER\HP LaserJet 6P
  4

  6

 40
0.0
 41
0.0
 42
0.0
 43
0.0
 44
0.0
 45
0.0
 46
0.0
 47
0.0
 48
0.0
 49
0.0
140
0.0
141
0.0
142
1.0
143
1.0
 70
   688
 72
     0
 73
     0
 74
     5
  7

 75
    16
147
1.0
 76
     0
 77
     2
 78
   300
148
0.0
149
0.0
100
AcDbLayout
  1
Layout1
 70
     0
 71
     1
 10
0.0
 20
0.0
 11
12.0
 21
9.0
 12
0.0
 22
0.0
 32
0.0
 14
1.000000000000000E+20
 24
1.000000000000000E+20
 34
1.000000000000000E+20
 15
-1.000000000000000E+20
 25
-1.000000000000000E+20
 35
-1.000000000000000E+20
146
0.0
 13
0.0
 23
0.0
 33
0.0
 16
1.0
 26
0.0
 36
0.0
 17
0.0
 27
1.0
 37
0.0
 76
     0
330
2E37
  0
LAYOUT
  5
158C2
102
{ACAD_REACTORS
330
158C0
102
}
330
158C0
100
AcDbPlotSettings
  1

  2
\\S01-TSN\iR 3170C
  4
A4
  6

 40
6.297083377838132
 41
6.297093868255615
 42
6.297073364257812
 43
6.297088623046875
 44
210.0579986572264
 45
296.9259948730469
 46
66.56
 47
0.0
 48
-10887.64392972915
 49
-8843.561620960944
140
40032.15823510553
141
2680.457608696015
142
1.0
143
179.0858424820558
 70
 11956
 72
     1
 73
     1
 74
     4
  7

 75
     0
147
0.0055839143180746
 76
     0
 77
     2
 78
   300
148
10887.64392972915
149
8843.561620960944
100
AcDbLayout
  1
Model
 70
     1
 71
     0
 10
0.0
 20
0.0
 11
12.0
 21
9.0
 12
0.0
 22
0.0
 32
0.0
 14
0.0
 24
0.0
 34
0.0
 15
0.0
 25
0.0
 35
0.0
146
0.0
 13
0.0
 23
0.0
 33
0.0
 16
1.0
 26
0.0
 36
0.0
 17
0.0
 27
1.0
 37
0.0
 76
     0
330
2E3A
331
16072
  0
MATERIAL
  5
1607A
102
{ACAD_REACTORS
330
16078
102
}
330
16078
100
AcDbMaterial
  1
ByBlock
  0
MATERIAL
  5
16079
102
{ACAD_REACTORS
330
16078
102
}
330
16078
100
AcDbMaterial
  1
ByLayer
  0
MATERIAL
  5
1607B
102
{ACAD_REACTORS
330
16078
102
}
330
16078
100
AcDbMaterial
  1
Global
  0
MLINESTYLE
  5
2E3D
102
{ACAD_REACTORS
330
2E30
102
}
330
2E30
100
AcDbMlineStyle
  2
STANDARD
 70
     0
  3

 62
     0
 51
90.0
 52
90.0
 71
     2
 49
0.5
 62
   256
  6
BYLAYER
 49
-0.5
 62
   256
  6
BYLAYER
  0
ACDBPLACEHOLDER
  5
158BF
102
{ACAD_REACTORS
330
158BE
102
}
330
158BE
  0
TABLESTYLE
  5
1608F
102
{ACAD_REACTORS
330
1608E
102
}
330
1608E
100
AcDbTableStyle
  3
Standard
 70
     0
 71
     0
 40
0.06
 41
0.06
280
     0
281
     0
  7
STANDARD
140
0.18
170
     2
 62
     0
 63
     7
283
     0
 90
      512
 91
        0
  1

274
    -2
284
     1
 64
     0
275
    -2
285
     1
 65
     0
276
    -2
286
     1
 66
     0
277
    -2
287
     1
 67
     0
278
    -2
288
     1
 68
     0
279
    -2
289
     1
 69
     0
  7
STANDARD
140
0.25
170
     5
 62
     0
 63
     7
283
     0
 90
      512
 91
        0
  1

274
    -2
284
     1
 64
     0
275
    -2
285
     1
 65
     0
276
    -2
286
     1
 66
     0
277
    -2
287
     1
 67
     0
278
    -2
288
     1
 68
     0
279
    -2
289
     1
 69
     0
  7
STANDARD
140
0.18
170
     5
 62
     0
 63
     7
283
     0
 90
      512
 91
        0
  1

274
    -2
284
     1
 64
     0
275
    -2
285
     1
 65
     0
276
    -2
286
     1
 66
     0
277
    -2
287
     1
 67
     0
278
    -2
288
     1
 68
     0
279
    -2
289
     1
 69
     0
  0
VISUALSTYLE
  5
16082
102
{ACAD_REACTORS
330
1607C
102
}
330
1607C
100
AcDbVisualStyle
  2
2dWireframe
 70
     4
 71
     0
 72
     2
 73
     0
 90
        0
 40
-0.6
 41
-30.0
 62
     5
 63
     7
421
 16777215
 74
     1
 91
        4
 64
     7
 65
   257
 75
     1
175
     1
 42
1.0
 92
        0
 66
   257
 43
1.0
 76
     1
 77
     6
 78
     2
 67
     7
 79
     5
170
     0
171
     0
290
     0
174
     0
 93
        1
 44
0.0
173
     0
291
     0
 45
0.0
  0
VISUALSTYLE
  5
16084
102
{ACAD_REACTORS
330
1607C
102
}
330
1607C
100
AcDbVisualStyle
  2
3D Hidden
 70
     6
 71
     1
 72
     2
 73
     2
 90
        0
 40
-0.6
 41
-30.0
 62
     5
 63
     7
421
 16777215
 74
     2
 91
        2
 64
     7
 65
   257
 75
     2
175
     1
 42
40.0
 92
        0
 66
   257
 43
1.0
 76
     1
 77
     6
 78
     2
 67
     7
 79
     3
170
     0
171
     0
290
     0
174
     0
 93
        1
 44
0.0
173
     0
291
     0
 45
0.0
  0
VISUALSTYLE
  5
16083
102
{ACAD_REACTORS
330
1607C
102
}
330
1607C
100
AcDbVisualStyle
  2
3dWireframe
 70
     5
 71
     0
 72
     2
 73
     0
 90
        0
 40
-0.6
 41
-30.0
 62
     5
 63
     7
421
 16777215
 74
     1
 91
        4
 64
     7
 65
   257
 75
     1
175
     1
 42
1.0
 92
        0
 66
   257
 43
1.0
 76
     1
 77
     6
 78
     2
 67
     7
 79
     5
170
     0
171
     0
290
     0
174
     0
 93
        1
 44
0.0
173
     0
291
     0
 45
0.0
  0
VISUALSTYLE
  5
16081
102
{ACAD_REACTORS
330
1607C
102
}
330
1607C
100
AcDbVisualStyle
  2
Basic
 70
     7
 71
     1
 72
     0
 73
     1
 90
        0
 40
-0.6
 41
-30.0
 62
     5
 63
     7
421
 16777215
 74
     0
 91
        4
 64
     7
 65
   257
 75
     1
175
     1
 42
1.0
 92
        8
 66
     7
 43
1.0
 76
     1
 77
     6
 78
     2
 67
     7
 79
     5
170
     0
171
     0
290
     0
174
     0
 93
        1
 44
0.0
173
     0
291
     1
 45
0.0
  0
VISUALSTYLE
  5
16088
102
{ACAD_REACTORS
330
1607C
102
}
330
1607C
100
AcDbVisualStyle
  2
Brighten
 70
    12
 71
     2
 72
     2
 73
     0
 90
        0
 40
-0.6
 41
-30.0
 62
     5
 63
     7
421
 16777215
 74
     1
 91
        4
 64
     7
 65
   257
 75
     1
175
     1
 42
1.0
 92
        8
 66
     7
 43
1.0
 76
     1
 77
     6
 78
     2
 67
     7
 79
     5
170
     0
171
     0
290
     0
174
     0
 93
        1
 44
50.0
173
     0
291
     1
 45
0.0
  0
VISUALSTYLE
  5
1608C
102
{ACAD_REACTORS
330
1607C
102
}
330
1607C
100
AcDbVisualStyle
  2
ColorChange
 70
    16
 71
     2
 72
     2
 73
     3
 90
        0
 40
-0.6
 41
-30.0
 62
     5
 63
     8
421
  8421504
 74
     1
 91
        4
 64
     7
 65
   257
 75
     1
175
     1
 42
1.0
 92
        8
 66
     8
424
  8421504
 43
1.0
 76
     1
 77
     6
 78
     2
 67
     7
 79
     5
170
     0
171
     0
290
     0
174
     0
 93
        1
 44
0.0
173
     0
291
     1
 45
0.0
  0
VISUALSTYLE
  5
16085
102
{ACAD_REACTORS
330
1607C
102
}
330
1607C
100
AcDbVisualStyle
  2
Conceptual
 70
     9
 71
     3
 72
     2
 73
     0
 90
        0
 40
-0.6
 41
-30.0
 62
     5
 63
     7
421
 16777215
 74
     2
 91
        2
 64
     7
 65
   257
 75
     1
175
     1
 42
40.0
 92
        8
 66
     7
 43
1.0
 76
     1
 77
     6
 78
     2
 67
     7
 79
     3
170
     0
171
     0
290
     0
174
     0
 93
        1
 44
0.0
173
     0
291
     0
 45
0.0
  0
VISUALSTYLE
  5
16087
102
{ACAD_REACTORS
330
1607C
102
}
330
1607C
100
AcDbVisualStyle
  2
Dim
 70
    11
 71
     2
 72
     2
 73
     0
 90
        0
 40
-0.6
 41
-30.0
 62
     5
 63
     7
421
 16777215
 74
     1
 91
        4
 64
     7
 65
   257
 75
     1
175
     1
 42
1.0
 92
        8
 66
     7
 43
1.0
 76
     1
 77
     6
 78
     2
 67
     7
 79
     5
170
     0
171
     0
290
     0
174
     0
 93
        1
 44
-50.0
173
     0
291
     1
 45
0.0
  0
VISUALSTYLE
  5
1608B
102
{ACAD_REACTORS
330
1607C
102
}
330
1607C
100
AcDbVisualStyle
  2
Facepattern
 70
    15
 71
     2
 72
     2
 73
     0
 90
        0
 40
-0.6
 41
-30.0
 62
     5
 63
     7
421
 16777215
 74
     1
 91
        4
 64
     7
 65
   257
 75
     1
175
     1
 42
1.0
 92
        8
 66
     7
 43
1.0
 76
     1
 77
     6
 78
     2
 67
     7
 79
     5
170
     0
171
     0
290
     0
174
     0
 93
        1
 44
0.0
173
     0
291
     1
 45
0.0
  0
VISUALSTYLE
  5
1607D
102
{ACAD_REACTORS
330
1607C
102
}
330
1607C
100
AcDbVisualStyle
  2
Flat
 70
     0
 71
     2
 72
     1
 73
     1
 90
        2
 40
-0.6
 41
30.0
 62
     5
 63
     7
421
 16777215
 74
     0
 91
        4
 64
     7
 65
   257
 75
     1
175
     1
 42
1.0
 92
        8
 66
     7
 43
1.0
 76
     1
 77
     6
 78
     2
 67
     7
 79
     5
170
     0
171
     0
290
     0
174
     0
 93
       13
 44
0.0
173
     0
291
     1
 45
0.0
  0
VISUALSTYLE
  5
1607E
102
{ACAD_REACTORS
330
1607C
102
}
330
1607C
100
AcDbVisualStyle
  2
FlatWithEdges
 70
     1
 71
     2
 72
     1
 73
     1
 90
        2
 40
-0.6
 41
30.0
 62
     5
 63
     7
421
 16777215
 74
     1
 91
        4
 64
     7
 65
   257
 75
     1
175
     1
 42
1.0
 92
        0
 66
   257
 43
1.0
 76
     1
 77
     6
 78
     2
 67
     7
 79
     5
170
     0
171
     0
290
     0
174
     0
 93
       13
 44
0.0
173
     0
291
     1
 45
0.0
  0
VISUALSTYLE
  5
1607F
102
{ACAD_REACTORS
330
1607C
102
}
330
1607C
100
AcDbVisualStyle
  2
Gouraud
 70
     2
 71
     2
 72
     2
 73
     1
 90
        2
 40
-0.6
 41
30.0
 62
     5
 63
     7
421
 16777215
 74
     0
 91
        4
 64
     7
 65
   257
 75
     1
175
     1
 42
1.0
 92
        0
 66
     7
 43
1.0
 76
     1
 77
     6
 78
     2
 67
     7
 79
     5
170
     0
171
     0
290
     0
174
     0
 93
       13
 44
0.0
173
     0
291
     1
 45
0.0
  0
VISUALSTYLE
  5
16080
102
{ACAD_REACTORS
330
1607C
102
}
330
1607C
100
AcDbVisualStyle
  2
GouraudWithEdges
 70
     3
 71
     2
 72
     2
 73
     1
 90
        2
 40
-0.6
 41
30.0
 62
     5
 63
     7
421
 16777215
 74
     1
 91
        4
 64
     7
 65
   257
 75
     1
175
     1
 42
1.0
 92
        0
 66
   257
 43
1.0
 76
     1
 77
     6
 78
     2
 67
     7
 79
     5
170
     0
171
     0
290
     0
174
     0
 93
       13
 44
0.0
173
     0
291
     1
 45
0.0
  0
VISUALSTYLE
  5
1608A
102
{ACAD_REACTORS
330
1607C
102
}
330
1607C
100
AcDbVisualStyle
  2
Linepattern
 70
    14
 71
     2
 72
     2
 73
     0
 90
        0
 40
-0.6
 41
-30.0
 62
     5
 63
     7
421
 16777215
 74
     1
 91
        4
 64
     7
 65
   257
 75
     7
175
     7
 42
1.0
 92
        8
 66
     7
 43
1.0
 76
     1
 77
     6
 78
     2
 67
     7
 79
     5
170
     0
171
     0
290
     0
174
     0
 93
        1
 44
0.0
173
     0
291
     1
 45
0.0
  0
VISUALSTYLE
  5
16086
102
{ACAD_REACTORS
330
1607C
102
}
330
1607C
100
AcDbVisualStyle
  2
Realistic
 70
     8
 71
     2
 72
     2
 73
     0
 90
        0
 40
-0.6
 41
-30.0
 62
     5
 63
     7
421
 16777215
 74
     1
 91
        0
 64
     7
 65
   257
 75
     1
175
     1
 42
1.0
 92
        8
 66
     8
424
  7895160
 43
1.0
 76
     1
 77
     6
 78
     2
 67
     7
 79
     5
170
     0
171
     0
290
     0
174
     0
 93
       13
 44
0.0
173
     0
291
     0
 45
0.0
  0
VISUALSTYLE
  5
16089
102
{ACAD_REACTORS
330
1607C
102
}
330
1607C
100
AcDbVisualStyle
  2
Thicken
 70
    13
 71
     2
 72
     2
 73
     0
 90
        0
 40
-0.6
 41
-30.0
 62
     5
 63
     7
421
 16777215
 74
     1
 91
        4
 64
     7
 65
   257
 75
     1
175
     1
 42
1.0
 92
       12
 66
     7
 43
1.0
 76
     1
 77
     6
 78
     2
 67
     7
 79
     5
170
     0
171
     0
290
     0
174
     0
 93
        1
 44
0.0
173
     0
291
     1
 45
0.0
  0
DICTIONARYVAR
  5
16094
102
{ACAD_REACTORS
330
15033
102
}
330
15033
100
DictionaryVariables
280
     0
  1
STANDARD
  0
DICTIONARYVAR
  5
15034
102
{ACAD_REACTORS
330
15033
102
}
330
15033
100
DictionaryVariables
280
     0
  1
96
  0
XRECORD
  5
15AF7
102
{ACAD_REACTORS
330
15AF5
102
}
330
15AF5
100
AcDbXrecord
280
     1
330
17
330
29
330
2E80
330
2E81
330
2E82
330
2E83
330
2E84
330
2E85
330
2E86
330
2E87
330
2E8E
330
10E9D
330
10E9E
330
10EA0
330
10EA1
330
10EA2
330
10EA3
330
10EA4
330
10EA5
330
10EA6
330
10EA7
330
10EA8
330
10EAA
330
10EAB
330
10EAD
330
10EAE
330
10EAF
330
10EB0
330
10EB1
330
10EB2
330
10EB3
330
10EB4
330
10EB5
330
10EB6
330
10EB7
330
10EB9
330
10EBA
330
10EBB
330
10EBC
330
10EBD
330
10EBE
330
10EBF
330
10EC0
330
10EC1
330
13A16
330
13A17
330
13A19
330
13A1A
330
13A1B
330
13A1C
330
13A1D
330
13A1E
330
13A1F
330
13A20
330
13A21
330
13A23
330
13A24
330
13A26
330
13A27
330
13A28
330
13A29
330
13A2A
330
13A2B
330
13A2C
330
13A2D
330
13A2E
330
13A2F
330
13A30
330
13A32
330
13A33
330
13A34
330
13A35
330
13A36
330
13A37
330
13A38
330
13A39
330
13A3A
  0
ENDSEC
  0
EOF
