M72
M48
T1F00S00C0.024
T2F00S00C0.050
T3F00S00C0.030
T4F00S00C0.032
T5F00S00C0.126
%
T01
X-00860Y00280
X00880Y-00220
X00880Y-00270
X00880Y-00320
X-00860Y00330
X-00860Y00380
T02
X-00295Y-00003
X-00295Y00197
X-00308Y-00315
X-00508Y-00315
X-00508Y-00515
X-00308Y-00515
X-00108Y-00515
X-00108Y-00315
X00092Y-00315
X00292Y-00315
X00492Y-00315
X00492Y-00515
X00292Y-00515
X00092Y-00515
X00105Y-00003
X00305Y-00003
X00305Y00197
X00105Y00197
X-00095Y00197
X-00095Y-00003
T03
X-00866Y-00600
X00866Y-00600
X00866Y00600
X-00866Y00600
T04
X-00860Y00040
X-00860Y-00360
X00880Y00040
X00880Y00440
T05
X00000Y-01112
X00000Y01112
M30
