%FSLAX23Y23*%
%MOIN*%
G70*
G01*
G75*
%ADD10C,0.020*%
%ADD11C,0.009*%
%ADD12C,0.010*%
%ADD13C,0.008*%
%ADD14C,0.025*%
%ADD15C,0.005*%
%ADD16C,0.090*%
%ADD17O,0.060X0.040*%
%ADD18C,0.060*%
%ADD19C,0.062*%
%ADD20C,0.118*%
%ADD21C,0.012*%
D11*
X11493Y5555D02*
X11488Y5551D01*
X11493Y5547D01*
X11497Y5551D01*
X11493Y5555D01*
X11581Y5615D02*
X11577Y5624D01*
X11568Y5633D01*
X11560Y5637D01*
X11542D01*
X11534Y5633D01*
X11525Y5624D01*
X11521Y5615D01*
X11517Y5603D01*
Y5581D01*
X11521Y5568D01*
X11525Y5560D01*
X11534Y5551D01*
X11542Y5547D01*
X11560D01*
X11568Y5551D01*
X11577Y5560D01*
X11581Y5568D01*
Y5581D01*
X11560D02*
X11581D01*
X11632Y5637D02*
Y5547D01*
X11602Y5637D02*
X11662D01*
X11698D02*
X11689Y5633D01*
X11681Y5624D01*
X11677Y5615D01*
X11672Y5603D01*
Y5581D01*
X11677Y5568D01*
X11681Y5560D01*
X11689Y5551D01*
X11698Y5547D01*
X11715D01*
X11724Y5551D01*
X11732Y5560D01*
X11737Y5568D01*
X11741Y5581D01*
Y5603D01*
X11737Y5615D01*
X11732Y5624D01*
X11724Y5633D01*
X11715Y5637D01*
X11698D01*
X6495Y11499D02*
X6491Y11507D01*
X6478Y11512D01*
X6469D01*
X6456Y11507D01*
X6448Y11495D01*
X6443Y11473D01*
Y11452D01*
X6448Y11435D01*
X6456Y11426D01*
X6469Y11422D01*
X6473D01*
X6486Y11426D01*
X6495Y11435D01*
X6499Y11448D01*
Y11452D01*
X6495Y11465D01*
X6486Y11473D01*
X6473Y11478D01*
X6469D01*
X6456Y11473D01*
X6448Y11465D01*
X6443Y11452D01*
X6523Y11430D02*
X6519Y11426D01*
X6523Y11422D01*
X6527Y11426D01*
X6523Y11430D01*
X6573Y11512D02*
X6560Y11507D01*
X6551Y11495D01*
X6547Y11473D01*
Y11460D01*
X6551Y11439D01*
X6560Y11426D01*
X6573Y11422D01*
X6581D01*
X6594Y11426D01*
X6603Y11439D01*
X6607Y11460D01*
Y11473D01*
X6603Y11495D01*
X6594Y11507D01*
X6581Y11512D01*
X6573D01*
X6486Y9512D02*
X6443Y9452D01*
X6508D01*
X6486Y9512D02*
Y9422D01*
X6528Y9430D02*
X6524Y9426D01*
X6528Y9422D01*
X6532Y9426D01*
X6528Y9430D01*
X6578Y9512D02*
X6565Y9507D01*
X6556Y9495D01*
X6552Y9473D01*
Y9460D01*
X6556Y9439D01*
X6565Y9426D01*
X6578Y9422D01*
X6586D01*
X6599Y9426D01*
X6608Y9439D01*
X6612Y9460D01*
Y9473D01*
X6608Y9495D01*
X6599Y9507D01*
X6586Y9512D01*
X6578D01*
X6448Y7490D02*
Y7495D01*
X6452Y7503D01*
X6456Y7508D01*
X6465Y7512D01*
X6482D01*
X6491Y7508D01*
X6495Y7503D01*
X6499Y7495D01*
Y7486D01*
X6495Y7478D01*
X6486Y7465D01*
X6443Y7422D01*
X6503D01*
X6528Y7430D02*
X6524Y7426D01*
X6528Y7422D01*
X6532Y7426D01*
X6528Y7430D01*
X6578Y7512D02*
X6565Y7508D01*
X6556Y7495D01*
X6552Y7473D01*
Y7460D01*
X6556Y7439D01*
X6565Y7426D01*
X6578Y7422D01*
X6586D01*
X6599Y7426D01*
X6608Y7439D01*
X6612Y7460D01*
Y7473D01*
X6608Y7495D01*
X6599Y7508D01*
X6586Y7512D01*
X6578D01*
X6582Y5512D02*
X6569Y5508D01*
X6560Y5495D01*
X6556Y5473D01*
Y5460D01*
X6560Y5439D01*
X6569Y5426D01*
X6582Y5422D01*
X6590D01*
X6603Y5426D01*
X6612Y5439D01*
X6616Y5460D01*
Y5473D01*
X6612Y5495D01*
X6603Y5508D01*
X6590Y5512D01*
X6582D01*
X6468Y6495D02*
X6477Y6499D01*
X6490Y6512D01*
Y6422D01*
X6539Y6430D02*
X6534Y6426D01*
X6539Y6422D01*
X6543Y6426D01*
X6539Y6430D01*
X6588Y6512D02*
X6576Y6508D01*
X6567Y6495D01*
X6563Y6473D01*
Y6460D01*
X6567Y6439D01*
X6576Y6426D01*
X6588Y6422D01*
X6597D01*
X6610Y6426D01*
X6618Y6439D01*
X6623Y6460D01*
Y6473D01*
X6618Y6495D01*
X6610Y6508D01*
X6597Y6512D01*
X6588D01*
X6452Y8512D02*
X6499D01*
X6473Y8478D01*
X6486D01*
X6495Y8473D01*
X6499Y8469D01*
X6503Y8456D01*
Y8448D01*
X6499Y8435D01*
X6491Y8426D01*
X6478Y8422D01*
X6465D01*
X6452Y8426D01*
X6448Y8430D01*
X6443Y8439D01*
X6528Y8430D02*
X6524Y8426D01*
X6528Y8422D01*
X6532Y8426D01*
X6528Y8430D01*
X6578Y8512D02*
X6565Y8507D01*
X6556Y8495D01*
X6552Y8473D01*
Y8460D01*
X6556Y8439D01*
X6565Y8426D01*
X6578Y8422D01*
X6586D01*
X6599Y8426D01*
X6608Y8439D01*
X6612Y8460D01*
Y8473D01*
X6608Y8495D01*
X6599Y8507D01*
X6586Y8512D01*
X6578D01*
X6495Y10512D02*
X6452D01*
X6448Y10473D01*
X6452Y10478D01*
X6465Y10482D01*
X6478D01*
X6491Y10478D01*
X6499Y10469D01*
X6503Y10456D01*
Y10448D01*
X6499Y10435D01*
X6491Y10426D01*
X6478Y10422D01*
X6465D01*
X6452Y10426D01*
X6448Y10430D01*
X6443Y10439D01*
X6528Y10430D02*
X6524Y10426D01*
X6528Y10422D01*
X6532Y10426D01*
X6528Y10430D01*
X6578Y10512D02*
X6565Y10507D01*
X6556Y10495D01*
X6552Y10473D01*
Y10460D01*
X6556Y10439D01*
X6565Y10426D01*
X6578Y10422D01*
X6586D01*
X6599Y10426D01*
X6608Y10439D01*
X6612Y10460D01*
Y10473D01*
X6608Y10495D01*
X6599Y10507D01*
X6586Y10512D01*
X6578D01*
X14208Y4862D02*
X14118Y4905D01*
X14208Y4922D02*
Y4862D01*
X14127Y4837D02*
X14123Y4842D01*
X14118Y4837D01*
X14123Y4833D01*
X14127Y4837D01*
X14208Y4788D02*
X14204Y4801D01*
X14191Y4809D01*
X14170Y4813D01*
X14157D01*
X14136Y4809D01*
X14123Y4801D01*
X14118Y4788D01*
Y4779D01*
X14123Y4766D01*
X14136Y4758D01*
X14157Y4753D01*
X14170D01*
X14191Y4758D01*
X14204Y4766D01*
X14208Y4779D01*
Y4788D01*
X12208Y4870D02*
Y4913D01*
X12170Y4918D01*
X12174Y4913D01*
X12178Y4900D01*
Y4888D01*
X12174Y4875D01*
X12166Y4866D01*
X12153Y4862D01*
X12144D01*
X12131Y4866D01*
X12123Y4875D01*
X12118Y4888D01*
Y4900D01*
X12123Y4913D01*
X12127Y4918D01*
X12136Y4922D01*
X12127Y4837D02*
X12123Y4842D01*
X12118Y4837D01*
X12123Y4833D01*
X12127Y4837D01*
X12208Y4788D02*
X12204Y4801D01*
X12191Y4809D01*
X12170Y4813D01*
X12157D01*
X12136Y4809D01*
X12123Y4801D01*
X12118Y4788D01*
Y4779D01*
X12123Y4766D01*
X12136Y4758D01*
X12157Y4753D01*
X12170D01*
X12191Y4758D01*
X12204Y4766D01*
X12208Y4779D01*
Y4788D01*
X10208Y4913D02*
Y4866D01*
X10174Y4892D01*
Y4879D01*
X10170Y4870D01*
X10166Y4866D01*
X10153Y4862D01*
X10144D01*
X10131Y4866D01*
X10123Y4875D01*
X10118Y4888D01*
Y4900D01*
X10123Y4913D01*
X10127Y4918D01*
X10136Y4922D01*
X10127Y4837D02*
X10123Y4842D01*
X10118Y4837D01*
X10123Y4833D01*
X10127Y4837D01*
X10208Y4788D02*
X10204Y4801D01*
X10191Y4809D01*
X10170Y4813D01*
X10157D01*
X10136Y4809D01*
X10123Y4801D01*
X10118Y4788D01*
Y4779D01*
X10123Y4766D01*
X10136Y4758D01*
X10157Y4753D01*
X10170D01*
X10191Y4758D01*
X10204Y4766D01*
X10208Y4779D01*
Y4788D01*
X8191Y4922D02*
X8196Y4913D01*
X8208Y4900D01*
X8118D01*
X8127Y4852D02*
X8123Y4856D01*
X8118Y4852D01*
X8123Y4847D01*
X8127Y4852D01*
X8208Y4802D02*
X8204Y4815D01*
X8191Y4823D01*
X8170Y4828D01*
X8157D01*
X8136Y4823D01*
X8123Y4815D01*
X8118Y4802D01*
Y4793D01*
X8123Y4780D01*
X8136Y4772D01*
X8157Y4768D01*
X8170D01*
X8191Y4772D01*
X8204Y4780D01*
X8208Y4793D01*
Y4802D01*
X7208Y4896D02*
X7204Y4909D01*
X7191Y4918D01*
X7170Y4922D01*
X7157D01*
X7136Y4918D01*
X7123Y4909D01*
X7118Y4896D01*
Y4888D01*
X7123Y4875D01*
X7136Y4866D01*
X7157Y4862D01*
X7170D01*
X7191Y4866D01*
X7204Y4875D01*
X7208Y4888D01*
Y4896D01*
X9187Y4918D02*
X9191D01*
X9200Y4913D01*
X9204Y4909D01*
X9208Y4900D01*
Y4883D01*
X9204Y4875D01*
X9200Y4870D01*
X9191Y4866D01*
X9183D01*
X9174Y4870D01*
X9161Y4879D01*
X9118Y4922D01*
Y4862D01*
X9127Y4837D02*
X9123Y4842D01*
X9118Y4837D01*
X9123Y4833D01*
X9127Y4837D01*
X9208Y4788D02*
X9204Y4801D01*
X9191Y4809D01*
X9170Y4813D01*
X9157D01*
X9136Y4809D01*
X9123Y4801D01*
X9118Y4788D01*
Y4779D01*
X9123Y4766D01*
X9136Y4758D01*
X9157Y4753D01*
X9170D01*
X9191Y4758D01*
X9204Y4766D01*
X9208Y4779D01*
Y4788D01*
X11208Y4879D02*
X11148Y4922D01*
Y4858D01*
X11208Y4879D02*
X11118D01*
X11127Y4837D02*
X11123Y4842D01*
X11118Y4837D01*
X11123Y4833D01*
X11127Y4837D01*
X11208Y4788D02*
X11204Y4801D01*
X11191Y4809D01*
X11170Y4813D01*
X11157D01*
X11136Y4809D01*
X11123Y4801D01*
X11118Y4788D01*
Y4779D01*
X11123Y4766D01*
X11136Y4758D01*
X11157Y4753D01*
X11170D01*
X11191Y4758D01*
X11204Y4766D01*
X11208Y4779D01*
Y4788D01*
X13196Y4870D02*
X13204Y4875D01*
X13208Y4888D01*
Y4896D01*
X13204Y4909D01*
X13191Y4918D01*
X13170Y4922D01*
X13148D01*
X13131Y4918D01*
X13123Y4909D01*
X13118Y4896D01*
Y4892D01*
X13123Y4879D01*
X13131Y4870D01*
X13144Y4866D01*
X13148D01*
X13161Y4870D01*
X13170Y4879D01*
X13174Y4892D01*
Y4896D01*
X13170Y4909D01*
X13161Y4918D01*
X13148Y4922D01*
X13127Y4842D02*
X13123Y4846D01*
X13118Y4842D01*
X13123Y4838D01*
X13127Y4842D01*
X13208Y4792D02*
X13204Y4805D01*
X13191Y4814D01*
X13170Y4818D01*
X13157D01*
X13136Y4814D01*
X13123Y4805D01*
X13118Y4792D01*
Y4784D01*
X13123Y4771D01*
X13136Y4762D01*
X13157Y4758D01*
X13170D01*
X13191Y4762D01*
X13204Y4771D01*
X13208Y4784D01*
Y4792D01*
X6981Y5212D02*
X7041Y5122D01*
Y5212D02*
X6981Y5122D01*
X6908Y5334D02*
X6866Y5300D01*
X6818D01*
X6908Y5266D02*
X6866Y5300D01*
X10898Y5878D02*
Y5882D01*
X10902Y5891D01*
X10906Y5895D01*
X10915Y5899D01*
X10932D01*
X10941Y5895D01*
X10945Y5891D01*
X10949Y5882D01*
Y5874D01*
X10945Y5865D01*
X10936Y5852D01*
X10893Y5809D01*
X10953D01*
X10995Y5899D02*
X10982Y5895D01*
X10978Y5886D01*
Y5878D01*
X10982Y5869D01*
X10991Y5865D01*
X11008Y5861D01*
X11021Y5856D01*
X11029Y5848D01*
X11034Y5839D01*
Y5826D01*
X11029Y5818D01*
X11025Y5814D01*
X11012Y5809D01*
X10995D01*
X10982Y5814D01*
X10978Y5818D01*
X10974Y5826D01*
Y5839D01*
X10978Y5848D01*
X10986Y5856D01*
X10999Y5861D01*
X11016Y5865D01*
X11025Y5869D01*
X11029Y5878D01*
Y5886D01*
X11025Y5895D01*
X11012Y5899D01*
X10995D01*
X11054Y5848D02*
X11131D01*
X11157Y5899D02*
Y5809D01*
Y5899D02*
X11192Y5809D01*
X11226Y5899D02*
X11192Y5809D01*
X11226Y5899D02*
Y5809D01*
X11303Y5869D02*
Y5809D01*
Y5856D02*
X11295Y5865D01*
X11286Y5869D01*
X11273D01*
X11265Y5865D01*
X11256Y5856D01*
X11252Y5844D01*
Y5835D01*
X11256Y5822D01*
X11265Y5814D01*
X11273Y5809D01*
X11286D01*
X11295Y5814D01*
X11303Y5822D01*
X11327Y5869D02*
Y5809D01*
Y5844D02*
X11331Y5856D01*
X11340Y5865D01*
X11349Y5869D01*
X11361D01*
X11370Y5848D02*
X11447D01*
X11478Y5878D02*
Y5882D01*
X11482Y5891D01*
X11486Y5895D01*
X11495Y5899D01*
X11512D01*
X11520Y5895D01*
X11525Y5891D01*
X11529Y5882D01*
Y5874D01*
X11525Y5865D01*
X11516Y5852D01*
X11473Y5809D01*
X11533D01*
X11579Y5899D02*
X11566Y5895D01*
X11558Y5882D01*
X11553Y5861D01*
Y5848D01*
X11558Y5826D01*
X11566Y5814D01*
X11579Y5809D01*
X11588D01*
X11600Y5814D01*
X11609Y5826D01*
X11613Y5848D01*
Y5861D01*
X11609Y5882D01*
X11600Y5895D01*
X11588Y5899D01*
X11579D01*
X11659D02*
X11646Y5895D01*
X11638Y5882D01*
X11633Y5861D01*
Y5848D01*
X11638Y5826D01*
X11646Y5814D01*
X11659Y5809D01*
X11668D01*
X11681Y5814D01*
X11689Y5826D01*
X11693Y5848D01*
Y5861D01*
X11689Y5882D01*
X11681Y5895D01*
X11668Y5899D01*
X11659D01*
X11714Y5882D02*
X11722Y5886D01*
X11735Y5899D01*
Y5809D01*
X10988Y6277D02*
Y6187D01*
X11048Y6277D02*
Y6187D01*
X10988Y6234D02*
X11048D01*
X11129Y6277D02*
X11073D01*
Y6187D01*
X11129D01*
X11073Y6234D02*
X11108D01*
X11144Y6277D02*
Y6187D01*
Y6277D02*
X11183D01*
X11195Y6273D01*
X11200Y6268D01*
X11204Y6260D01*
Y6251D01*
X11200Y6243D01*
X11195Y6238D01*
X11183Y6234D01*
X11144D01*
X11174D02*
X11204Y6187D01*
X11280Y6277D02*
X11224D01*
Y6187D01*
X11280D01*
X11224Y6234D02*
X11258D01*
X10988Y6437D02*
Y6347D01*
X11040D01*
X11075Y6437D02*
X11067Y6432D01*
X11058Y6424D01*
X11054Y6415D01*
X11050Y6403D01*
Y6381D01*
X11054Y6368D01*
X11058Y6360D01*
X11067Y6351D01*
X11075Y6347D01*
X11093D01*
X11101Y6351D01*
X11110Y6360D01*
X11114Y6368D01*
X11118Y6381D01*
Y6403D01*
X11114Y6415D01*
X11110Y6424D01*
X11101Y6432D01*
X11093Y6437D01*
X11075D01*
X11204Y6415D02*
X11199Y6424D01*
X11191Y6432D01*
X11182Y6437D01*
X11165D01*
X11156Y6432D01*
X11148Y6424D01*
X11144Y6415D01*
X11139Y6403D01*
Y6381D01*
X11144Y6368D01*
X11148Y6360D01*
X11156Y6351D01*
X11165Y6347D01*
X11182D01*
X11191Y6351D01*
X11199Y6360D01*
X11204Y6368D01*
Y6381D01*
X11182D02*
X11204D01*
X11250Y6437D02*
X11241Y6432D01*
X11233Y6424D01*
X11228Y6415D01*
X11224Y6403D01*
Y6381D01*
X11228Y6368D01*
X11233Y6360D01*
X11241Y6351D01*
X11250Y6347D01*
X11267D01*
X11276Y6351D01*
X11284Y6360D01*
X11288Y6368D01*
X11293Y6381D01*
Y6403D01*
X11288Y6415D01*
X11284Y6424D01*
X11276Y6432D01*
X11267Y6437D01*
X11250D01*
X10988Y6530D02*
X11027D01*
X11040Y6534D01*
X11044Y6538D01*
X11048Y6547D01*
Y6560D01*
X11044Y6568D01*
X11040Y6573D01*
X11027Y6577D01*
X10988D01*
Y6487D01*
X11069Y6577D02*
Y6487D01*
X11120D01*
X11198D02*
X11164Y6577D01*
X11130Y6487D01*
X11143Y6517D02*
X11186D01*
X11284Y6555D02*
X11279Y6564D01*
X11271Y6573D01*
X11262Y6577D01*
X11245D01*
X11237Y6573D01*
X11228Y6564D01*
X11224Y6555D01*
X11219Y6543D01*
Y6521D01*
X11224Y6508D01*
X11228Y6500D01*
X11237Y6491D01*
X11245Y6487D01*
X11262D01*
X11271Y6491D01*
X11279Y6500D01*
X11284Y6508D01*
X11365Y6577D02*
X11309D01*
Y6487D01*
X11365D01*
X11309Y6534D02*
X11343D01*
X10407Y5899D02*
X10394Y5895D01*
X10385Y5882D01*
X10381Y5861D01*
Y5848D01*
X10385Y5826D01*
X10394Y5814D01*
X10407Y5809D01*
X10415D01*
X10428Y5814D01*
X10437Y5826D01*
X10441Y5848D01*
Y5861D01*
X10437Y5882D01*
X10428Y5895D01*
X10415Y5899D01*
X10407D01*
X10461Y5882D02*
X10470Y5886D01*
X10483Y5899D01*
Y5809D01*
X9678Y5637D02*
Y5547D01*
X9648Y5637D02*
X9708D01*
X9741Y5607D02*
X9732Y5603D01*
X9723Y5594D01*
X9719Y5581D01*
Y5573D01*
X9723Y5560D01*
X9732Y5551D01*
X9741Y5547D01*
X9753D01*
X9762Y5551D01*
X9771Y5560D01*
X9775Y5573D01*
Y5581D01*
X9771Y5594D01*
X9762Y5603D01*
X9753Y5607D01*
X9741D01*
X9795D02*
Y5517D01*
Y5594D02*
X9803Y5603D01*
X9812Y5607D01*
X9825D01*
X9833Y5603D01*
X9842Y5594D01*
X9846Y5581D01*
Y5573D01*
X9842Y5560D01*
X9833Y5551D01*
X9825Y5547D01*
X9812D01*
X9803Y5551D01*
X9795Y5560D01*
X9962Y5637D02*
X9953Y5633D01*
X9945Y5624D01*
X9940Y5615D01*
X9936Y5603D01*
Y5581D01*
X9940Y5568D01*
X9945Y5560D01*
X9953Y5551D01*
X9962Y5547D01*
X9979D01*
X9987Y5551D01*
X9996Y5560D01*
X10000Y5568D01*
X10005Y5581D01*
Y5603D01*
X10000Y5615D01*
X9996Y5624D01*
X9987Y5633D01*
X9979Y5637D01*
X9962D01*
X10026Y5607D02*
X10051Y5547D01*
X10077Y5607D02*
X10051Y5547D01*
X10092Y5581D02*
X10143D01*
Y5590D01*
X10139Y5598D01*
X10134Y5603D01*
X10126Y5607D01*
X10113D01*
X10104Y5603D01*
X10096Y5594D01*
X10092Y5581D01*
Y5573D01*
X10096Y5560D01*
X10104Y5551D01*
X10113Y5547D01*
X10126D01*
X10134Y5551D01*
X10143Y5560D01*
X10162Y5607D02*
Y5547D01*
Y5581D02*
X10167Y5594D01*
X10175Y5603D01*
X10184Y5607D01*
X10197D01*
X10205Y5637D02*
Y5547D01*
X10275Y5607D02*
Y5547D01*
Y5594D02*
X10266Y5603D01*
X10258Y5607D01*
X10245D01*
X10236Y5603D01*
X10228Y5594D01*
X10224Y5581D01*
Y5573D01*
X10228Y5560D01*
X10236Y5551D01*
X10245Y5547D01*
X10258D01*
X10266Y5551D01*
X10275Y5560D01*
X10303Y5607D02*
X10329Y5547D01*
X10355Y5607D02*
X10329Y5547D01*
X10320Y5530D01*
X10312Y5521D01*
X10303Y5517D01*
X10299D01*
X7981Y5637D02*
Y5564D01*
X7986Y5551D01*
X7994Y5547D01*
X8003D01*
X7968Y5607D02*
X7998D01*
X8063Y5594D02*
X8058Y5603D01*
X8046Y5607D01*
X8033D01*
X8020Y5603D01*
X8016Y5594D01*
X8020Y5585D01*
X8028Y5581D01*
X8050Y5577D01*
X8058Y5573D01*
X8063Y5564D01*
Y5560D01*
X8058Y5551D01*
X8046Y5547D01*
X8033D01*
X8020Y5551D01*
X8016Y5560D01*
X8082Y5607D02*
Y5547D01*
Y5590D02*
X8094Y5603D01*
X8103Y5607D01*
X8116D01*
X8124Y5603D01*
X8129Y5590D01*
Y5547D01*
X8152Y5517D02*
X8221D01*
X8232Y5637D02*
Y5547D01*
Y5590D02*
X8245Y5603D01*
X8254Y5607D01*
X8267D01*
X8275Y5603D01*
X8280Y5590D01*
Y5547D01*
X8316Y5637D02*
Y5564D01*
X8320Y5551D01*
X8329Y5547D01*
X8337D01*
X8303Y5607D02*
X8333D01*
X8350Y5581D02*
X8402D01*
Y5590D01*
X8397Y5598D01*
X8393Y5603D01*
X8385Y5607D01*
X8372D01*
X8363Y5603D01*
X8355Y5594D01*
X8350Y5581D01*
Y5573D01*
X8355Y5560D01*
X8363Y5551D01*
X8372Y5547D01*
X8385D01*
X8393Y5551D01*
X8402Y5560D01*
X8421Y5607D02*
Y5547D01*
Y5581D02*
X8425Y5594D01*
X8434Y5603D01*
X8442Y5607D01*
X8455D01*
X8463D02*
Y5547D01*
Y5590D02*
X8476Y5603D01*
X8485Y5607D01*
X8498D01*
X8506Y5603D01*
X8511Y5590D01*
Y5547D01*
Y5590D02*
X8523Y5603D01*
X8532Y5607D01*
X8545D01*
X8553Y5603D01*
X8558Y5590D01*
Y5547D01*
X8590Y5555D02*
X8586Y5551D01*
X8590Y5547D01*
X8595Y5551D01*
X8590Y5555D01*
X8614Y5590D02*
X8653D01*
X8666Y5594D01*
X8670Y5598D01*
X8674Y5607D01*
Y5620D01*
X8670Y5628D01*
X8666Y5633D01*
X8653Y5637D01*
X8614D01*
Y5547D01*
X8759Y5615D02*
X8754Y5624D01*
X8746Y5633D01*
X8737Y5637D01*
X8720D01*
X8711Y5633D01*
X8703Y5624D01*
X8699Y5615D01*
X8694Y5603D01*
Y5581D01*
X8699Y5568D01*
X8703Y5560D01*
X8711Y5551D01*
X8720Y5547D01*
X8737D01*
X8746Y5551D01*
X8754Y5560D01*
X8759Y5568D01*
X8784Y5637D02*
Y5547D01*
Y5637D02*
X8822D01*
X8835Y5633D01*
X8840Y5628D01*
X8844Y5620D01*
Y5611D01*
X8840Y5603D01*
X8835Y5598D01*
X8822Y5594D01*
X8784D02*
X8822D01*
X8835Y5590D01*
X8840Y5585D01*
X8844Y5577D01*
Y5564D01*
X8840Y5555D01*
X8835Y5551D01*
X8822Y5547D01*
X8784D01*
X9158Y6265D02*
X9153Y6274D01*
X9145Y6282D01*
X9136Y6287D01*
X9119D01*
X9111Y6282D01*
X9102Y6274D01*
X9098Y6265D01*
X9093Y6253D01*
Y6231D01*
X9098Y6218D01*
X9102Y6210D01*
X9111Y6201D01*
X9119Y6197D01*
X9136D01*
X9145Y6201D01*
X9153Y6210D01*
X9158Y6218D01*
X9183Y6257D02*
Y6214D01*
X9187Y6201D01*
X9196Y6197D01*
X9209D01*
X9217Y6201D01*
X9230Y6214D01*
Y6257D02*
Y6197D01*
X9301Y6244D02*
X9297Y6253D01*
X9284Y6257D01*
X9271D01*
X9258Y6253D01*
X9254Y6244D01*
X9258Y6235D01*
X9267Y6231D01*
X9288Y6227D01*
X9297Y6223D01*
X9301Y6214D01*
Y6210D01*
X9297Y6201D01*
X9284Y6197D01*
X9271D01*
X9258Y6201D01*
X9254Y6210D01*
X9333Y6287D02*
Y6214D01*
X9337Y6201D01*
X9345Y6197D01*
X9354D01*
X9320Y6257D02*
X9350D01*
X9388D02*
X9380Y6253D01*
X9371Y6244D01*
X9367Y6231D01*
Y6223D01*
X9371Y6210D01*
X9380Y6201D01*
X9388Y6197D01*
X9401D01*
X9410Y6201D01*
X9418Y6210D01*
X9423Y6223D01*
Y6231D01*
X9418Y6244D01*
X9410Y6253D01*
X9401Y6257D01*
X9388D01*
X9442D02*
Y6197D01*
Y6240D02*
X9455Y6253D01*
X9464Y6257D01*
X9477D01*
X9485Y6253D01*
X9489Y6240D01*
Y6197D01*
Y6240D02*
X9502Y6253D01*
X9511Y6257D01*
X9524D01*
X9532Y6253D01*
X9537Y6240D01*
Y6197D01*
X9636Y6287D02*
Y6197D01*
Y6287D02*
X9670Y6197D01*
X9704Y6287D02*
X9670Y6197D01*
X9704Y6287D02*
Y6197D01*
X9781Y6257D02*
Y6197D01*
Y6244D02*
X9773Y6253D01*
X9764Y6257D01*
X9751D01*
X9743Y6253D01*
X9734Y6244D01*
X9730Y6231D01*
Y6223D01*
X9734Y6210D01*
X9743Y6201D01*
X9751Y6197D01*
X9764D01*
X9773Y6201D01*
X9781Y6210D01*
X9857Y6287D02*
Y6197D01*
Y6244D02*
X9848Y6253D01*
X9839Y6257D01*
X9827D01*
X9818Y6253D01*
X9809Y6244D01*
X9805Y6231D01*
Y6223D01*
X9809Y6210D01*
X9818Y6201D01*
X9827Y6197D01*
X9839D01*
X9848Y6201D01*
X9857Y6210D01*
X9881Y6231D02*
X9932D01*
Y6240D01*
X9928Y6248D01*
X9923Y6253D01*
X9915Y6257D01*
X9902D01*
X9893Y6253D01*
X9885Y6244D01*
X9881Y6231D01*
Y6223D01*
X9885Y6210D01*
X9893Y6201D01*
X9902Y6197D01*
X9915D01*
X9923Y6201D01*
X9932Y6210D01*
X10022Y6287D02*
Y6197D01*
Y6287D02*
X10061D01*
X10073Y6282D01*
X10078Y6278D01*
X10082Y6270D01*
Y6261D01*
X10078Y6253D01*
X10073Y6248D01*
X10061Y6244D01*
X10022D02*
X10061D01*
X10073Y6240D01*
X10078Y6235D01*
X10082Y6227D01*
Y6214D01*
X10078Y6205D01*
X10073Y6201D01*
X10061Y6197D01*
X10022D01*
X10124Y6257D02*
X10115Y6253D01*
X10106Y6244D01*
X10102Y6231D01*
Y6223D01*
X10106Y6210D01*
X10115Y6201D01*
X10124Y6197D01*
X10136D01*
X10145Y6201D01*
X10154Y6210D01*
X10158Y6223D01*
Y6231D01*
X10154Y6244D01*
X10145Y6253D01*
X10136Y6257D01*
X10124D01*
X10229D02*
Y6197D01*
Y6244D02*
X10220Y6253D01*
X10212Y6257D01*
X10199D01*
X10190Y6253D01*
X10182Y6244D01*
X10178Y6231D01*
Y6223D01*
X10182Y6210D01*
X10190Y6201D01*
X10199Y6197D01*
X10212D01*
X10220Y6201D01*
X10229Y6210D01*
X10253Y6257D02*
Y6197D01*
Y6231D02*
X10257Y6244D01*
X10266Y6253D01*
X10274Y6257D01*
X10287D01*
X10347Y6287D02*
Y6197D01*
Y6244D02*
X10338Y6253D01*
X10330Y6257D01*
X10317D01*
X10308Y6253D01*
X10300Y6244D01*
X10295Y6231D01*
Y6223D01*
X10300Y6210D01*
X10308Y6201D01*
X10317Y6197D01*
X10330D01*
X10338Y6201D01*
X10347Y6210D01*
D12*
X10071Y8217D02*
Y8817D01*
X8871Y8217D02*
X10071D01*
X8871D02*
Y8817D01*
X10071D01*
X8871Y8777D02*
X10071D01*
X8272Y8652D02*
Y9212D01*
X8192D02*
X8272D01*
X8192Y8652D02*
Y9212D01*
Y8652D02*
X8272D01*
X8232Y8612D02*
Y8652D01*
Y8612D02*
X8512Y8332D01*
X8552D01*
X8232Y9212D02*
Y9252D01*
X8512Y9532D01*
X8552D01*
X10685Y8652D02*
Y9212D01*
Y8652D02*
X10765D01*
Y9212D01*
X10685D02*
X10765D01*
X10725D02*
Y9252D01*
X10445Y9532D02*
X10725Y9252D01*
X10405Y9532D02*
X10445D01*
X10725Y8612D02*
Y8652D01*
X10445Y8332D02*
X10725Y8612D01*
X10405Y8332D02*
X10445D01*
X10128Y8347D02*
X10108D01*
X10118D01*
Y8297D01*
X10108Y8287D01*
X10098D01*
X10088Y8297D01*
X10148Y8287D02*
X10168D01*
X10158D01*
Y8347D01*
X10148Y8337D01*
X8568Y8432D02*
Y8492D01*
X8598D01*
X8608Y8482D01*
Y8462D01*
X8598Y8452D01*
X8568D01*
X8588D02*
X8608Y8432D01*
X8628D02*
X8648D01*
X8638D01*
Y8492D01*
X8628Y8482D01*
X10298Y8842D02*
Y8902D01*
X10328D01*
X10338Y8892D01*
Y8872D01*
X10328Y8862D01*
X10298D01*
X10318D02*
X10338Y8842D01*
X10398D02*
X10358D01*
X10398Y8882D01*
Y8892D01*
X10388Y8902D01*
X10368D01*
X10358Y8892D01*
X8348Y8672D02*
Y8732D01*
X8378D01*
X8388Y8722D01*
Y8702D01*
X8378Y8692D01*
X8348D01*
X8368D02*
X8388Y8672D01*
X8408Y8732D02*
Y8672D01*
X8448D01*
X8468D02*
X8488D01*
X8478D01*
Y8732D01*
X8468Y8722D01*
X10488Y8852D02*
Y8912D01*
X10518D01*
X10528Y8902D01*
Y8882D01*
X10518Y8872D01*
X10488D01*
X10508D02*
X10528Y8852D01*
X10548Y8912D02*
Y8852D01*
X10588D01*
X10648D02*
X10608D01*
X10648Y8892D01*
Y8902D01*
X10638Y8912D01*
X10618D01*
X10608Y8902D01*
X8588Y9142D02*
Y9092D01*
X8598Y9082D01*
X8618D01*
X8628Y9092D01*
Y9142D01*
X8648Y9082D02*
X8668D01*
X8658D01*
Y9142D01*
X8648Y9132D01*
X10278Y8532D02*
Y8482D01*
X10288Y8472D01*
X10308D01*
X10318Y8482D01*
Y8532D01*
X10378Y8472D02*
X10338D01*
X10378Y8512D01*
Y8522D01*
X10368Y8532D01*
X10348D01*
X10338Y8522D01*
X10067Y9802D02*
X10033D01*
X10067Y9835D01*
Y9843D01*
X10058Y9852D01*
X10042D01*
X10033Y9843D01*
X10083D02*
X10092Y9852D01*
X10108D01*
X10117Y9843D01*
Y9810D01*
X10108Y9802D01*
X10092D01*
X10083Y9810D01*
Y9843D01*
X10133D02*
X10142Y9852D01*
X10158D01*
X10167Y9843D01*
Y9810D01*
X10158Y9802D01*
X10142D01*
X10133Y9810D01*
Y9843D01*
X10183Y9802D02*
X10200D01*
X10192D01*
Y9852D01*
X10183Y9843D01*
X9938Y8142D02*
X9958D01*
X9948D01*
Y8202D01*
X9938Y8192D01*
X9773Y8137D02*
X9733D01*
X9773Y8177D01*
Y8187D01*
X9763Y8197D01*
X9743D01*
X9733Y8187D01*
X9538D02*
X9548Y8197D01*
X9568D01*
X9578Y8187D01*
Y8177D01*
X9568Y8167D01*
X9558D01*
X9568D01*
X9578Y8157D01*
Y8147D01*
X9568Y8137D01*
X9548D01*
X9538Y8147D01*
X9363Y8137D02*
Y8197D01*
X9333Y8167D01*
X9373D01*
X9183Y8197D02*
X9143D01*
Y8167D01*
X9163Y8177D01*
X9173D01*
X9183Y8167D01*
Y8147D01*
X9173Y8137D01*
X9153D01*
X9143Y8147D01*
X8983Y8202D02*
X8963Y8192D01*
X8943Y8172D01*
Y8152D01*
X8953Y8142D01*
X8973D01*
X8983Y8152D01*
Y8162D01*
X8973Y8172D01*
X8943D01*
X9678Y7918D02*
X9695Y7902D01*
X9728D01*
X9745Y7918D01*
Y7985D01*
X9728Y8002D01*
X9695D01*
X9678Y7985D01*
Y7968D01*
X9695Y7952D01*
X9745D01*
X9845Y8002D02*
X9778D01*
Y7952D01*
X9812Y7968D01*
X9828D01*
X9845Y7952D01*
Y7918D01*
X9828Y7902D01*
X9795D01*
X9778Y7918D01*
X9878D02*
X9962Y8002D01*
X9878D02*
Y8018D01*
X9895D01*
Y8002D01*
X9878D01*
X9945Y7902D02*
Y7918D01*
X9962D01*
Y7902D01*
X9945D01*
X8338Y9595D02*
X8352Y9582D01*
X8378D01*
X8392Y9595D01*
Y9648D01*
X8378Y9662D01*
X8352D01*
X8338Y9648D01*
Y9635D01*
X8352Y9622D01*
X8392D01*
X8472Y9662D02*
X8418D01*
Y9622D01*
X8445Y9635D01*
X8458D01*
X8472Y9622D01*
Y9595D01*
X8458Y9582D01*
X8432D01*
X8418Y9595D01*
X8498D02*
X8565Y9662D01*
X8498D02*
Y9675D01*
X8512D01*
Y9662D01*
X8498D01*
X8552Y9582D02*
Y9595D01*
X8565D01*
Y9582D01*
X8552D01*
X8685Y9648D02*
Y9635D01*
X8672D01*
X8698D01*
X8685D01*
Y9595D01*
X8698Y9582D01*
X8778D02*
X8752D01*
X8738Y9595D01*
Y9622D01*
X8752Y9635D01*
X8778D01*
X8792Y9622D01*
Y9608D01*
X8738D01*
X8818Y9582D02*
X8858D01*
X8872Y9595D01*
X8858Y9608D01*
X8832D01*
X8818Y9622D01*
X8832Y9635D01*
X8872D01*
X8912Y9648D02*
Y9635D01*
X8898D01*
X8925D01*
X8912D01*
Y9595D01*
X8925Y9582D01*
X10033Y9580D02*
X10047Y9567D01*
X10073D01*
X10087Y9580D01*
Y9633D01*
X10073Y9647D01*
X10047D01*
X10033Y9633D01*
Y9620D01*
X10047Y9607D01*
X10087D01*
X10113Y9633D02*
X10127Y9647D01*
X10153D01*
X10167Y9633D01*
Y9620D01*
X10153Y9607D01*
X10167Y9593D01*
Y9580D01*
X10153Y9567D01*
X10127D01*
X10113Y9580D01*
Y9593D01*
X10127Y9607D01*
X10113Y9620D01*
Y9633D01*
X10127Y9607D02*
X10153D01*
X10193Y9580D02*
X10260Y9647D01*
X10193D02*
Y9660D01*
X10207D01*
Y9647D01*
X10193D01*
X10247Y9567D02*
Y9580D01*
X10260D01*
Y9567D01*
X10247D01*
X10380Y9633D02*
Y9620D01*
X10367D01*
X10393D01*
X10380D01*
Y9580D01*
X10393Y9567D01*
X10473D02*
X10447D01*
X10433Y9580D01*
Y9607D01*
X10447Y9620D01*
X10473D01*
X10487Y9607D01*
Y9593D01*
X10433D01*
X10513Y9567D02*
X10553D01*
X10567Y9580D01*
X10553Y9593D01*
X10527D01*
X10513Y9607D01*
X10527Y9620D01*
X10567D01*
X10607Y9633D02*
Y9620D01*
X10593D01*
X10620D01*
X10607D01*
Y9580D01*
X10620Y9567D01*
X9908Y8072D02*
X9975D01*
X9942Y8105D02*
Y8038D01*
X9713Y8072D02*
X9780D01*
X9308Y8077D02*
X9375D01*
X9342Y8110D02*
Y8043D01*
X9108Y8077D02*
X9175D01*
X9053Y7918D02*
X9070Y7902D01*
X9103D01*
X9120Y7918D01*
Y7985D01*
X9103Y8002D01*
X9070D01*
X9053Y7985D01*
Y7968D01*
X9070Y7952D01*
X9120D01*
X9153Y7985D02*
X9170Y8002D01*
X9203D01*
X9220Y7985D01*
Y7968D01*
X9203Y7952D01*
X9220Y7935D01*
Y7918D01*
X9203Y7902D01*
X9170D01*
X9153Y7918D01*
Y7935D01*
X9170Y7952D01*
X9153Y7968D01*
Y7985D01*
X9170Y7952D02*
X9203D01*
X9253Y7918D02*
X9337Y8002D01*
X9253D02*
Y8018D01*
X9270D01*
Y8002D01*
X9253D01*
X9320Y7902D02*
Y7918D01*
X9337D01*
Y7902D01*
X9320D01*
X9018Y9952D02*
X9052D01*
X9035D01*
Y9902D01*
X9077Y9935D02*
X9093D01*
X9102Y9927D01*
Y9902D01*
X9077D01*
X9068Y9910D01*
X9077Y9918D01*
X9102D01*
X9118Y9902D02*
Y9935D01*
X9143D01*
X9152Y9927D01*
Y9902D01*
X9168D02*
Y9952D01*
Y9918D02*
X9193Y9935D01*
X9168Y9918D02*
X9193Y9902D01*
X9218D02*
X9243D01*
X9252Y9910D01*
X9243Y9918D01*
X9227D01*
X9218Y9927D01*
X9227Y9935D01*
X9252D01*
X9268D02*
Y9910D01*
X9277Y9902D01*
X9302D01*
Y9893D01*
X9293Y9885D01*
X9285D01*
X9302Y9902D02*
Y9935D01*
X9318Y9902D02*
X9343D01*
X9352Y9910D01*
X9343Y9918D01*
X9327D01*
X9318Y9927D01*
X9327Y9935D01*
X9352D01*
X9377Y9943D02*
Y9935D01*
X9368D01*
X9385D01*
X9377D01*
Y9910D01*
X9385Y9902D01*
X9435D02*
X9418D01*
X9410Y9910D01*
Y9927D01*
X9418Y9935D01*
X9435D01*
X9443Y9927D01*
Y9918D01*
X9410D01*
X9460Y9902D02*
Y9935D01*
X9468D01*
X9477Y9927D01*
Y9902D01*
Y9927D01*
X9485Y9935D01*
X9493Y9927D01*
Y9902D01*
X9560D02*
Y9952D01*
X9593Y9902D01*
Y9952D01*
X9618Y9902D02*
X9635D01*
X9643Y9910D01*
Y9927D01*
X9635Y9935D01*
X9618D01*
X9610Y9927D01*
Y9910D01*
X9618Y9902D01*
X9660Y9935D02*
Y9902D01*
Y9918D01*
X9668Y9927D01*
X9677Y9935D01*
X9685D01*
X9710D02*
Y9910D01*
X9718Y9902D01*
X9727Y9910D01*
X9735Y9902D01*
X9743Y9910D01*
Y9935D01*
X9768D02*
X9785D01*
X9793Y9927D01*
Y9902D01*
X9768D01*
X9760Y9910D01*
X9768Y9918D01*
X9793D01*
X9810Y9935D02*
Y9910D01*
X9818Y9902D01*
X9843D01*
Y9893D01*
X9835Y9885D01*
X9827D01*
X9843Y9902D02*
Y9935D01*
X9910Y9902D02*
Y9935D01*
X9927Y9952D01*
X9943Y9935D01*
Y9902D01*
Y9927D01*
X9910D01*
X9993Y9943D02*
X9985Y9952D01*
X9968D01*
X9960Y9943D01*
Y9935D01*
X9968Y9927D01*
X9985D01*
X9993Y9918D01*
Y9910D01*
X9985Y9902D01*
X9968D01*
X9960Y9910D01*
X9088Y9852D02*
X9122D01*
X9105D01*
Y9802D01*
X9172Y9843D02*
X9163Y9852D01*
X9147D01*
X9138Y9843D01*
Y9835D01*
X9147Y9827D01*
X9163D01*
X9172Y9818D01*
Y9810D01*
X9163Y9802D01*
X9147D01*
X9138Y9810D01*
X9188Y9802D02*
Y9852D01*
X9222Y9802D01*
Y9852D01*
X9238Y9793D02*
X9272D01*
X9288Y9852D02*
Y9802D01*
Y9827D01*
X9322D01*
Y9852D01*
Y9802D01*
X9338Y9852D02*
X9372D01*
X9355D01*
Y9802D01*
X9413D02*
X9397D01*
X9388Y9810D01*
Y9827D01*
X9397Y9835D01*
X9413D01*
X9422Y9827D01*
Y9818D01*
X9388D01*
X9438Y9835D02*
Y9802D01*
Y9818D01*
X9447Y9827D01*
X9455Y9835D01*
X9463D01*
X9488Y9802D02*
Y9835D01*
X9497D01*
X9505Y9827D01*
Y9802D01*
Y9827D01*
X9513Y9835D01*
X9522Y9827D01*
Y9802D01*
X9588D02*
Y9852D01*
X9613D01*
X9622Y9843D01*
Y9827D01*
X9613Y9818D01*
X9588D01*
X9605D02*
X9622Y9802D01*
X9663D02*
X9647D01*
X9638Y9810D01*
Y9827D01*
X9647Y9835D01*
X9663D01*
X9672Y9827D01*
Y9818D01*
X9638D01*
X9688Y9835D02*
X9705Y9802D01*
X9722Y9835D01*
X9738Y9802D02*
Y9810D01*
X9747D01*
Y9802D01*
X9738D01*
X9780Y9843D02*
X9788Y9852D01*
X9805D01*
X9813Y9843D01*
Y9810D01*
X9805Y9802D01*
X9788D01*
X9780Y9810D01*
Y9843D01*
X8867Y10145D02*
X8876Y10141D01*
X8886Y10138D01*
X8895Y10135D01*
X8905Y10132D01*
X8915Y10131D01*
X8925Y10129D01*
X8936Y10129D01*
X8946Y10129D01*
X8956Y10129D01*
X8966Y10130D01*
X8976Y10132D01*
X8986Y10134D01*
X8996Y10136D01*
X9005Y10140D01*
X9015Y10143D01*
X9024Y10147D01*
X9033Y10152D01*
X9042Y10157D01*
X9051Y10163D01*
X9059Y10169D01*
X9066Y10175D01*
X9074Y10182D01*
X9081Y10190D01*
X9088Y10197D01*
X9094Y10205D01*
X9100Y10214D01*
X9105Y10222D01*
X9110Y10231D01*
X9114Y10241D01*
X7568Y6747D02*
X7559Y6746D01*
X7549Y6745D01*
X7539Y6742D01*
X7530Y6739D01*
X7521Y6735D01*
X7513Y6730D01*
X7505Y6724D01*
X7498Y6718D01*
X7491Y6710D01*
X7485Y6702D01*
X7480Y6694D01*
X7476Y6685D01*
X7473Y6676D01*
X7470Y6666D01*
X7469Y6657D01*
X7468Y6647D01*
Y5548D02*
X7469Y5538D01*
X7470Y5528D01*
X7473Y5519D01*
X7476Y5510D01*
X7480Y5501D01*
X7485Y5492D01*
X7491Y5484D01*
X7497Y5477D01*
X7505Y5470D01*
X7512Y5464D01*
X7521Y5459D01*
X7530Y5455D01*
X7539Y5452D01*
X7548Y5449D01*
X7558Y5447D01*
X7568Y5447D01*
X11768Y5447D02*
X11778Y5447D01*
X11788Y5449D01*
X11798Y5451D01*
X11807Y5454D01*
X11816Y5459D01*
X11824Y5464D01*
X11832Y5470D01*
X11839Y5476D01*
X11846Y5483D01*
X11852Y5491D01*
X11857Y5500D01*
X11861Y5509D01*
X11864Y5518D01*
X11867Y5527D01*
X11868Y5537D01*
X11868Y5547D01*
Y6647D02*
X11868Y6657D01*
X11867Y6666D01*
X11864Y6676D01*
X11861Y6685D01*
X11857Y6694D01*
X11852Y6702D01*
X11846Y6710D01*
X11839Y6718D01*
X11832Y6724D01*
X11824Y6730D01*
X11816Y6735D01*
X11807Y6739D01*
X11798Y6742D01*
X11788Y6745D01*
X11778Y6746D01*
X11768Y6747D01*
X8867Y10145D02*
X8858Y10140D01*
X8849Y10136D01*
X8840Y10131D01*
X8831Y10126D01*
X8822Y10121D01*
X8814Y10117D01*
X8805Y10112D01*
X8796Y10107D01*
X8788Y10102D01*
X8779Y10096D01*
X8770Y10091D01*
X8762Y10086D01*
X8754Y10081D01*
X8745Y10075D01*
X8737Y10070D01*
X8728Y10064D01*
X8720Y10059D01*
X8712Y10053D01*
X8703Y10048D01*
X8695Y10042D01*
X8687Y10036D01*
X8679Y10030D01*
X8671Y10024D01*
X8663Y10018D01*
X8655Y10012D01*
X8647Y10006D01*
X8639Y10000D01*
X8631Y9994D01*
X8624Y9988D01*
X8616Y9981D01*
X8608Y9975D01*
X8600Y9968D01*
X8593Y9962D01*
X8585Y9955D01*
X8578Y9949D01*
X8570Y9942D01*
X8563Y9935D01*
X8556Y9929D01*
X8548Y9922D01*
X8541Y9915D01*
X8534Y9908D01*
X8527Y9901D01*
X8520Y9894D01*
X8512Y9887D01*
X8505Y9880D01*
X8499Y9873D01*
X8492Y9865D01*
X8485Y9858D01*
X8478Y9851D01*
X8471Y9843D01*
X8465Y9836D01*
X8458Y9828D01*
X8451Y9821D01*
X8445Y9813D01*
X8438Y9806D01*
X8432Y9798D01*
X8426Y9790D01*
X8419Y9783D01*
X8413Y9775D01*
X8407Y9767D01*
X8401Y9759D01*
X8395Y9751D01*
X8389Y9743D01*
X8383Y9735D01*
X8377Y9727D01*
X8371Y9719D01*
X8365Y9711D01*
X8360Y9702D01*
X8354Y9694D01*
X8348Y9686D01*
X8343Y9677D01*
X8337Y9669D01*
X8332Y9661D01*
X8327Y9652D01*
X8321Y9644D01*
X8316Y9635D01*
X8311Y9627D01*
X8306Y9618D01*
X8301Y9609D01*
X8296Y9601D01*
X8291Y9592D01*
X8286Y9583D01*
X8282Y9574D01*
X8277Y9566D01*
X8272Y9557D01*
X8268Y9548D01*
X8263Y9539D01*
X8259Y9530D01*
X8254Y9521D01*
X8250Y9512D01*
X8246Y9503D01*
X8242Y9494D01*
X8238Y9485D01*
X8234Y9475D01*
X8230Y9466D01*
X8226Y9457D01*
X8222Y9448D01*
X8218Y9439D01*
X8214Y9429D01*
X8211Y9420D01*
X8207Y9411D01*
X8204Y9401D01*
X8200Y9392D01*
X8197Y9382D01*
X8194Y9373D01*
X8190Y9364D01*
X8187Y9354D01*
X8184Y9345D01*
X8181Y9335D01*
X8178Y9325D01*
X8175Y9316D01*
X8173Y9306D01*
X8170Y9297D01*
X8167Y9287D01*
X8165Y9277D01*
X8162Y9268D01*
X8160Y9258D01*
X8157Y9248D01*
X8155Y9239D01*
X8153Y9229D01*
X8151Y9219D01*
X8149Y9209D01*
X8147Y9199D01*
X8145Y9190D01*
X8143Y9180D01*
X8141Y9170D01*
X8139Y9160D01*
X8138Y9150D01*
X8136Y9140D01*
X8135Y9131D01*
X8133Y9121D01*
X8132Y9111D01*
X8131Y9101D01*
X8129Y9091D01*
X8128Y9081D01*
X8127Y9071D01*
X8126Y9061D01*
X8125Y9051D01*
X8125Y9041D01*
X8124Y9031D01*
X8123Y9021D01*
X8122Y9011D01*
X8122Y9001D01*
X8121Y8991D01*
X8121Y8981D01*
X8121Y8971D01*
X8120Y8961D01*
X8120Y8951D01*
X8120Y8941D01*
X8120Y8931D01*
X8120Y8921D01*
X8120Y8911D01*
X8120Y8901D01*
X8121Y8891D01*
X8121Y8881D01*
X8121Y8871D01*
X8122Y8861D01*
X8123Y8851D01*
X8123Y8841D01*
X8124Y8831D01*
X8125Y8821D01*
X8125Y8811D01*
X8126Y8801D01*
X8127Y8792D01*
X8128Y8782D01*
X8130Y8772D01*
X8131Y8762D01*
X8132Y8752D01*
X8133Y8742D01*
X8135Y8732D01*
X8136Y8722D01*
X8138Y8712D01*
X8140Y8702D01*
X8141Y8693D01*
X8143Y8683D01*
X8145Y8673D01*
X8147Y8663D01*
X8149Y8653D01*
X8151Y8644D01*
X8153Y8634D01*
X8156Y8624D01*
X8158Y8614D01*
X8160Y8605D01*
X8163Y8595D01*
X8165Y8585D01*
X8168Y8576D01*
X8170Y8566D01*
X8173Y8556D01*
X8176Y8547D01*
X8179Y8537D01*
X8182Y8528D01*
X8185Y8518D01*
X8188Y8509D01*
X8191Y8499D01*
X8194Y8490D01*
X8197Y8480D01*
X8201Y8471D01*
X8204Y8461D01*
X8208Y8452D01*
X8211Y8443D01*
X8215Y8433D01*
X8219Y8424D01*
X8222Y8415D01*
X8226Y8406D01*
X8230Y8396D01*
X8234Y8387D01*
X8238Y8378D01*
X8242Y8369D01*
X8247Y8360D01*
X8251Y8351D01*
X8255Y8342D01*
X8259Y8333D01*
X8264Y8324D01*
X8268Y8315D01*
X8273Y8306D01*
X8278Y8297D01*
X8282Y8288D01*
X8287Y8280D01*
X8292Y8271D01*
X8297Y8262D01*
X8302Y8253D01*
X8307Y8245D01*
X8312Y8236D01*
X8317Y8228D01*
X8322Y8219D01*
X8328Y8211D01*
X8333Y8202D01*
X8338Y8194D01*
X8344Y8185D01*
X8349Y8177D01*
X8355Y8169D01*
X8361Y8160D01*
X8366Y8152D01*
X8372Y8144D01*
X8378Y8136D01*
X8384Y8128D01*
X8390Y8120D01*
X8396Y8112D01*
X8402Y8104D01*
X8408Y8096D01*
X8414Y8088D01*
X8420Y8080D01*
X8427Y8073D01*
X8433Y8065D01*
X8439Y8057D01*
X8446Y8050D01*
X8452Y8042D01*
X8459Y8034D01*
X8466Y8027D01*
X8472Y8020D01*
X8479Y8012D01*
X8486Y8005D01*
X8493Y7998D01*
X8500Y7990D01*
X8507Y7983D01*
X8514Y7976D01*
X8521Y7969D01*
X8528Y7962D01*
X8535Y7955D01*
X8542Y7948D01*
X8549Y7941D01*
X8557Y7934D01*
X8564Y7928D01*
X8571Y7921D01*
X8579Y7914D01*
X8586Y7908D01*
X8594Y7901D01*
X8602Y7895D01*
X8609Y7888D01*
X8617Y7882D01*
X8625Y7876D01*
X8633Y7869D01*
X8640Y7863D01*
X8648Y7857D01*
X8656Y7851D01*
X8664Y7845D01*
X8672Y7839D01*
X8680Y7833D01*
X8688Y7827D01*
X8697Y7821D01*
X8705Y7816D01*
X8713Y7810D01*
X8721Y7804D01*
X8730Y7799D01*
X8738Y7793D01*
X8746Y7788D01*
X8755Y7783D01*
X8763Y7777D01*
X8772Y7772D01*
X8780Y7767D01*
X8789Y7762D01*
X8798Y7757D01*
X8806Y7752D01*
X8815Y7747D01*
X8824Y7742D01*
X8832Y7737D01*
X8841Y7732D01*
X8850Y7728D01*
X8859Y7723D01*
X8868Y7719D01*
X8877Y7714D01*
X8886Y7710D01*
X8895Y7705D01*
X8904Y7701D01*
X8913Y7697D01*
X8922Y7693D01*
X8931Y7689D01*
X8940Y7685D01*
X8950Y7681D01*
X8959Y7677D01*
X8968Y7673D01*
X8977Y7670D01*
X8987Y7666D01*
X8996Y7662D01*
X9005Y7659D01*
X9015Y7655D01*
X9024Y7652D01*
X9034Y7649D01*
X9043Y7645D01*
X9053Y7642D01*
X9062Y7639D01*
X9072Y7636D01*
X9081Y7633D01*
X9091Y7630D01*
X9100Y7627D01*
X9110Y7625D01*
X9120Y7622D01*
X9129Y7619D01*
X9139Y7617D01*
X9149Y7614D01*
X9158Y7612D01*
X9168Y7610D01*
X9178Y7607D01*
X9187Y7605D01*
X9197Y7603D01*
X9207Y7601D01*
X9217Y7599D01*
X9227Y7597D01*
X9236Y7595D01*
X9246Y7594D01*
X9256Y7592D01*
X9266Y7590D01*
X9276Y7589D01*
X9286Y7587D01*
X9296Y7586D01*
X9306Y7585D01*
X9316Y7584D01*
X9325Y7582D01*
X9335Y7581D01*
X9345Y7580D01*
X9355Y7579D01*
X9365Y7578D01*
X9375Y7578D01*
X9385Y7577D01*
X9395Y7576D01*
X9405Y7576D01*
X9415Y7575D01*
X9425Y7575D01*
X9435Y7574D01*
X9445Y7574D01*
X9455Y7574D01*
X9465Y7574D01*
X9475Y7574D01*
X9485Y7574D01*
X9495Y7574D01*
X9505Y7574D01*
X9515Y7574D01*
X9525Y7575D01*
X9535Y7575D01*
X9545Y7575D01*
X9555Y7576D01*
X9565Y7577D01*
X9575Y7577D01*
X9585Y7578D01*
X9595Y7579D01*
X9605Y7580D01*
X9615Y7581D01*
X9625Y7582D01*
X9635Y7583D01*
X9645Y7584D01*
X9655Y7585D01*
X9665Y7587D01*
X9674Y7588D01*
X9684Y7589D01*
X9694Y7591D01*
X9704Y7593D01*
X9714Y7594D01*
X9724Y7596D01*
X9734Y7598D01*
X9743Y7600D01*
X9753Y7602D01*
X9763Y7604D01*
X9773Y7606D01*
X9782Y7608D01*
X9792Y7611D01*
X9802Y7613D01*
X9812Y7615D01*
X9821Y7618D01*
X9831Y7620D01*
X9841Y7623D01*
X9850Y7626D01*
X9860Y7628D01*
X9869Y7631D01*
X9879Y7634D01*
X9889Y7637D01*
X9898Y7640D01*
X9908Y7643D01*
X9917Y7647D01*
X9927Y7650D01*
X9936Y7653D01*
X9945Y7657D01*
X9955Y7660D01*
X9964Y7664D01*
X9973Y7667D01*
X9983Y7671D01*
X9992Y7675D01*
X10001Y7678D01*
X10010Y7682D01*
X10020Y7686D01*
X10029Y7690D01*
X10038Y7694D01*
X10047Y7699D01*
X10056Y7703D01*
X10065Y7707D01*
X10074Y7711D01*
X10083Y7716D01*
X10092Y7720D01*
X10101Y7725D01*
X10110Y7729D01*
X10119Y7734D01*
X10127Y7739D01*
X10136Y7744D01*
X10145Y7749D01*
X10154Y7753D01*
X10162Y7758D01*
X10171Y7764D01*
X10179Y7769D01*
X10188Y7774D01*
X10196Y7779D01*
X10205Y7784D01*
X10213Y7790D01*
X10222Y7795D01*
X10230Y7801D01*
X10238Y7806D01*
X10247Y7812D01*
X10255Y7818D01*
X10263Y7823D01*
X10271Y7829D01*
X10279Y7835D01*
X10287Y7841D01*
X10295Y7847D01*
X10303Y7853D01*
X10311Y7859D01*
X10319Y7865D01*
X10327Y7871D01*
X10335Y7878D01*
X10342Y7884D01*
X10350Y7890D01*
X10358Y7897D01*
X10365Y7903D01*
X10373Y7910D01*
X10380Y7917D01*
X10388Y7923D01*
X10395Y7930D01*
X10403Y7937D01*
X10410Y7944D01*
X10417Y7950D01*
X10424Y7957D01*
X10432Y7964D01*
X10439Y7971D01*
X10446Y7979D01*
X10453Y7986D01*
X10460Y7993D01*
X10467Y8000D01*
X10473Y8007D01*
X10480Y8015D01*
X10487Y8022D01*
X10494Y8030D01*
X10500Y8037D01*
X10507Y8045D01*
X10513Y8052D01*
X10520Y8060D01*
X10526Y8068D01*
X10532Y8075D01*
X10539Y8083D01*
X10545Y8091D01*
X10551Y8099D01*
X10557Y8107D01*
X10563Y8115D01*
X10569Y8123D01*
X10575Y8131D01*
X10581Y8139D01*
X10587Y8147D01*
X10593Y8155D01*
X10598Y8163D01*
X10604Y8172D01*
X10609Y8180D01*
X10615Y8188D01*
X10620Y8197D01*
X10626Y8205D01*
X10631Y8214D01*
X10636Y8222D01*
X10642Y8231D01*
X10647Y8239D01*
X10652Y8248D01*
X10657Y8256D01*
X10662Y8265D01*
X10667Y8274D01*
X10671Y8283D01*
X10676Y8291D01*
X10681Y8300D01*
X10685Y8309D01*
X10690Y8318D01*
X10694Y8327D01*
X10699Y8336D01*
X10703Y8345D01*
X10708Y8354D01*
X10712Y8363D01*
X10716Y8372D01*
X10720Y8381D01*
X10724Y8390D01*
X10728Y8400D01*
X10732Y8409D01*
X10736Y8418D01*
X10739Y8427D01*
X10743Y8437D01*
X10747Y8446D01*
X10750Y8455D01*
X10754Y8465D01*
X10757Y8474D01*
X10760Y8484D01*
X10764Y8493D01*
X10767Y8502D01*
X10770Y8512D01*
X10773Y8521D01*
X10776Y8531D01*
X10779Y8541D01*
X10782Y8550D01*
X10785Y8560D01*
X10787Y8569D01*
X10790Y8579D01*
X10793Y8589D01*
X10795Y8598D01*
X10797Y8608D01*
X10800Y8618D01*
X10802Y8628D01*
X10804Y8637D01*
X10806Y8647D01*
X10808Y8657D01*
X10810Y8667D01*
X10812Y8676D01*
X10814Y8686D01*
X10816Y8696D01*
X10818Y8706D01*
X10819Y8716D01*
X10821Y8726D01*
X10822Y8736D01*
X10824Y8745D01*
X10825Y8755D01*
X10826Y8765D01*
X10828Y8775D01*
X10829Y8785D01*
X10830Y8795D01*
X10831Y8805D01*
X10832Y8815D01*
X10832Y8825D01*
X10833Y8835D01*
X10834Y8845D01*
X10834Y8855D01*
X10835Y8865D01*
X10835Y8875D01*
X10836Y8885D01*
X10836Y8895D01*
X10836Y8905D01*
X10837Y8915D01*
X10837Y8925D01*
X10837Y8935D01*
X10837Y8945D01*
X10836Y8955D01*
X10836Y8965D01*
X10836Y8975D01*
X10836Y8985D01*
X10835Y8995D01*
X10835Y9005D01*
X10834Y9015D01*
X10833Y9025D01*
X10833Y9035D01*
X10832Y9045D01*
X10831Y9055D01*
X10830Y9065D01*
X10829Y9075D01*
X10828Y9084D01*
X10827Y9094D01*
X10826Y9104D01*
X10824Y9114D01*
X10823Y9124D01*
X10822Y9134D01*
X10820Y9144D01*
X10818Y9154D01*
X10817Y9164D01*
X10815Y9174D01*
X10813Y9183D01*
X10811Y9193D01*
X10809Y9203D01*
X10807Y9213D01*
X10805Y9223D01*
X10803Y9232D01*
X10801Y9242D01*
X10798Y9252D01*
X10796Y9261D01*
X10794Y9271D01*
X10791Y9281D01*
X10789Y9290D01*
X10786Y9300D01*
X10783Y9310D01*
X10780Y9319D01*
X10777Y9329D01*
X10774Y9338D01*
X10771Y9348D01*
X10768Y9357D01*
X10765Y9367D01*
X10762Y9376D01*
X10759Y9386D01*
X10755Y9395D01*
X10752Y9405D01*
X10748Y9414D01*
X10745Y9423D01*
X10741Y9433D01*
X10737Y9442D01*
X10734Y9451D01*
X10730Y9460D01*
X10726Y9470D01*
X10722Y9479D01*
X10718Y9488D01*
X10714Y9497D01*
X10709Y9506D01*
X10705Y9515D01*
X10701Y9524D01*
X10696Y9533D01*
X10692Y9542D01*
X10687Y9551D01*
X10683Y9560D01*
X10678Y9569D01*
X10673Y9578D01*
X10669Y9586D01*
X10664Y9595D01*
X10659Y9604D01*
X10654Y9612D01*
X10649Y9621D01*
X10644Y9630D01*
X10639Y9638D01*
X10633Y9647D01*
X10628Y9655D01*
X10623Y9664D01*
X10617Y9672D01*
X10612Y9680D01*
X10606Y9689D01*
X10601Y9697D01*
X10595Y9705D01*
X10589Y9714D01*
X10584Y9722D01*
X10578Y9730D01*
X10572Y9738D01*
X10566Y9746D01*
X10560Y9754D01*
X10554Y9762D01*
X10548Y9770D01*
X10541Y9778D01*
X10535Y9785D01*
X10529Y9793D01*
X10522Y9801D01*
X10516Y9808D01*
X10510Y9816D01*
X10503Y9824D01*
X10496Y9831D01*
X10490Y9839D01*
X10483Y9846D01*
X10476Y9853D01*
X10470Y9861D01*
X10463Y9868D01*
X10456Y9875D01*
X10449Y9882D01*
X10442Y9890D01*
X10435Y9897D01*
X10428Y9904D01*
X10420Y9911D01*
X10413Y9917D01*
X10406Y9924D01*
X10399Y9931D01*
X10391Y9938D01*
X10384Y9945D01*
X10376Y9951D01*
X10369Y9958D01*
X10361Y9964D01*
X10354Y9971D01*
X10346Y9977D01*
X10338Y9984D01*
X10330Y9990D01*
X10323Y9996D01*
X10315Y10002D01*
X10307Y10008D01*
X10299Y10014D01*
X10291Y10020D01*
X10283Y10026D01*
X10275Y10032D01*
X10267Y10038D01*
X10259Y10044D01*
X10250Y10050D01*
X10242Y10055D01*
X10234Y10061D01*
X10225Y10066D01*
X10217Y10072D01*
X10209Y10077D01*
X10200Y10083D01*
X10192Y10088D01*
X10183Y10093D01*
X10175Y10098D01*
X10166Y10103D01*
X10157Y10108D01*
X10149Y10113D01*
X10140Y10118D01*
X10131Y10123D01*
X10122Y10128D01*
X10114Y10133D01*
X10105Y10137D01*
X10096Y10142D01*
X10087Y10146D01*
X10078Y10151D01*
X10069Y10155D01*
X10060Y10159D01*
X10051Y10164D01*
X10042Y10168D01*
X10033Y10172D01*
X10024Y10176D01*
X10014Y10180D01*
X10005Y10184D01*
X9996Y10188D01*
X9987Y10192D01*
X9977Y10195D01*
X9968Y10199D01*
X9959Y10203D01*
X9949Y10206D01*
X9940Y10209D01*
X9931Y10213D01*
X9921Y10216D01*
X9912Y10219D01*
X9902Y10222D01*
X9893Y10226D01*
X9883Y10229D01*
X9874Y10232D01*
X9864Y10234D01*
X9854Y10237D01*
X9845Y10240D01*
X9835Y10243D01*
X9826Y10245D01*
X9816Y10248D01*
X9806Y10250D01*
X9796Y10253D01*
X9787Y10255D01*
X9777Y10257D01*
X9767Y10259D01*
X9757Y10261D01*
X9748Y10263D01*
X9738Y10265D01*
X9728Y10267D01*
X9718Y10269D01*
X9708Y10271D01*
X9699Y10272D01*
X9689Y10274D01*
X9679Y10275D01*
X9669Y10277D01*
X9659Y10278D01*
X9649Y10280D01*
X9639Y10281D01*
X9629Y10282D01*
X9619Y10283D01*
X9609Y10284D01*
X9599Y10285D01*
X9589Y10286D01*
X9579Y10287D01*
X9569Y10287D01*
X9559Y10288D01*
X9549Y10288D01*
X9540Y10289D01*
X9530Y10289D01*
X9520Y10290D01*
X9510Y10290D01*
X9500Y10290D01*
X9490Y10290D01*
X9480Y10290D01*
X9470Y10290D01*
X9460Y10290D01*
X9450Y10290D01*
X9440Y10290D01*
X9430Y10289D01*
X9420Y10289D01*
X9410Y10289D01*
X9400Y10288D01*
X9390Y10287D01*
X9380Y10287D01*
X9370Y10286D01*
X9360Y10285D01*
X9350Y10284D01*
X9340Y10283D01*
X9330Y10282D01*
X9320Y10281D01*
X9310Y10280D01*
X9300Y10279D01*
X9290Y10277D01*
X9280Y10276D01*
X9270Y10274D01*
X9261Y10273D01*
X9251Y10271D01*
X9241Y10269D01*
X9231Y10268D01*
X9221Y10266D01*
X9211Y10264D01*
X9202Y10262D01*
X9192Y10260D01*
X9182Y10258D01*
X9172Y10255D01*
X9163Y10253D01*
X9153Y10251D01*
X9143Y10248D01*
X9133Y10246D01*
X9124Y10243D01*
X9114Y10241D01*
X7568Y5447D02*
X11768D01*
X7568Y6747D02*
X11768D01*
X11868Y5547D02*
Y6647D01*
X7468Y5547D02*
Y6647D01*
X8125Y6625D02*
Y6608D01*
X8108D01*
X8142D01*
X8125D01*
Y6558D01*
X8142Y6542D01*
X8192D02*
X8242D01*
X8258Y6558D01*
X8242Y6575D01*
X8208D01*
X8192Y6592D01*
X8208Y6608D01*
X8258D01*
X8292Y6542D02*
Y6608D01*
X8342D01*
X8358Y6592D01*
Y6542D01*
X8392Y6525D02*
X8458D01*
X8492Y6642D02*
Y6542D01*
Y6592D01*
X8508Y6608D01*
X8542D01*
X8558Y6592D01*
Y6542D01*
X8608Y6625D02*
Y6608D01*
X8592D01*
X8625D01*
X8608D01*
Y6558D01*
X8625Y6542D01*
X8725D02*
X8692D01*
X8675Y6558D01*
Y6592D01*
X8692Y6608D01*
X8725D01*
X8742Y6592D01*
Y6575D01*
X8675D01*
X8775Y6608D02*
Y6542D01*
Y6575D01*
X8792Y6592D01*
X8808Y6608D01*
X8825D01*
X8875Y6542D02*
Y6608D01*
X8892D01*
X8908Y6592D01*
Y6542D01*
Y6592D01*
X8925Y6608D01*
X8942Y6592D01*
Y6542D01*
X8975D02*
Y6558D01*
X8992D01*
Y6542D01*
X8975D01*
X9058D02*
Y6642D01*
X9108D01*
X9125Y6625D01*
Y6592D01*
X9108Y6575D01*
X9058D01*
X9225Y6625D02*
X9208Y6642D01*
X9175D01*
X9158Y6625D01*
Y6558D01*
X9175Y6542D01*
X9208D01*
X9225Y6558D01*
X9258Y6642D02*
Y6542D01*
X9308D01*
X9325Y6558D01*
Y6575D01*
X9308Y6592D01*
X9258D01*
X9308D01*
X9325Y6608D01*
Y6625D01*
X9308Y6642D01*
X9258D01*
D13*
X8578Y9172D02*
Y9352D01*
X8658D01*
X8708Y9302D01*
Y9222D02*
Y9302D01*
X8658Y9172D02*
X8708Y9222D01*
X8578Y9172D02*
X8658D01*
X10398Y8572D02*
Y8752D01*
X10318Y8572D02*
X10398D01*
X10268Y8622D02*
X10318Y8572D01*
X10268Y8622D02*
Y8702D01*
X10318Y8752D01*
X10398D01*
X14219Y5472D02*
X14217Y5482D01*
X14214Y5492D01*
X14210Y5500D01*
X14203Y5508D01*
X14195Y5514D01*
X14186Y5519D01*
X14176Y5521D01*
X14166Y5522D01*
X14156Y5520D01*
X14146Y5517D01*
X14138Y5511D01*
X14131Y5504D01*
X14125Y5496D01*
X14121Y5487D01*
X14119Y5477D01*
Y5467D01*
X14121Y5457D01*
X14125Y5448D01*
X14131Y5439D01*
X14138Y5432D01*
X14146Y5427D01*
X14156Y5423D01*
X14166Y5422D01*
X14176Y5422D01*
X14186Y5425D01*
X14195Y5429D01*
X14203Y5436D01*
X14210Y5443D01*
X14214Y5452D01*
X14217Y5462D01*
X14219Y5472D01*
X14244D02*
X14243Y5482D01*
X14241Y5492D01*
X14238Y5501D01*
X14233Y5510D01*
X14227Y5518D01*
X14221Y5526D01*
X14213Y5532D01*
X14205Y5538D01*
X14195Y5542D01*
X14186Y5545D01*
X14176Y5546D01*
X14166Y5547D01*
X14156Y5546D01*
X14146Y5543D01*
X14137Y5540D01*
X14128Y5535D01*
X14120Y5529D01*
X14113Y5522D01*
X14107Y5514D01*
X14102Y5506D01*
X14098Y5496D01*
X14095Y5487D01*
X14094Y5477D01*
Y5467D01*
X14095Y5457D01*
X14098Y5447D01*
X14102Y5438D01*
X14107Y5429D01*
X14113Y5421D01*
X14120Y5415D01*
X14128Y5409D01*
X14137Y5404D01*
X14146Y5400D01*
X14156Y5398D01*
X14166Y5397D01*
X14176Y5397D01*
X14186Y5399D01*
X14195Y5402D01*
X14205Y5406D01*
X14213Y5411D01*
X14221Y5418D01*
X14227Y5425D01*
X14233Y5434D01*
X14238Y5443D01*
X14241Y5452D01*
X14243Y5462D01*
X14244Y5472D01*
X14171D02*
X14166D01*
X14171D01*
X14174D02*
X14166Y5476D01*
Y5467D01*
X14174Y5472D01*
X14189D02*
X14186Y5481D01*
X14180Y5488D01*
X14171Y5492D01*
X14161Y5490D01*
X14154Y5485D01*
X14149Y5477D01*
Y5467D01*
X14154Y5459D01*
X14161Y5453D01*
X14171Y5452D01*
X14180Y5455D01*
X14186Y5462D01*
X14189Y5472D01*
X14184D02*
X14180Y5481D01*
X14171Y5487D01*
X14161Y5485D01*
X14154Y5477D01*
Y5467D01*
X14161Y5459D01*
X14171Y5457D01*
X14180Y5462D01*
X14184Y5472D01*
X14179D02*
X14174Y5480D01*
X14164D01*
X14159Y5472D01*
X14164Y5463D01*
X14174D01*
X14179Y5472D01*
X7243Y11472D02*
X7243Y11482D01*
X7241Y11492D01*
X7238Y11501D01*
X7233Y11510D01*
X7227Y11518D01*
X7221Y11526D01*
X7213Y11532D01*
X7205Y11538D01*
X7195Y11542D01*
X7186Y11545D01*
X7176Y11546D01*
X7166Y11547D01*
X7156Y11546D01*
X7146Y11543D01*
X7137Y11540D01*
X7128Y11535D01*
X7120Y11529D01*
X7113Y11522D01*
X7107Y11514D01*
X7102Y11506D01*
X7098Y11496D01*
X7095Y11487D01*
X7094Y11477D01*
Y11467D01*
X7095Y11457D01*
X7098Y11447D01*
X7102Y11438D01*
X7107Y11429D01*
X7113Y11421D01*
X7120Y11415D01*
X7128Y11409D01*
X7137Y11404D01*
X7146Y11400D01*
X7156Y11398D01*
X7166Y11397D01*
X7176Y11397D01*
X7186Y11399D01*
X7195Y11402D01*
X7205Y11406D01*
X7213Y11411D01*
X7221Y11418D01*
X7227Y11425D01*
X7233Y11434D01*
X7238Y11443D01*
X7241Y11452D01*
X7243Y11462D01*
X7243Y11472D01*
X7171D02*
X7166D01*
X7171D01*
X7173D02*
X7166Y11476D01*
Y11467D01*
X7173Y11472D01*
X7178D02*
X7173Y11480D01*
X7163D01*
X7158Y11472D01*
X7163Y11463D01*
X7173D01*
X7178Y11472D01*
X7183D02*
X7180Y11481D01*
X7171Y11487D01*
X7161Y11485D01*
X7154Y11477D01*
Y11467D01*
X7161Y11459D01*
X7171Y11457D01*
X7180Y11462D01*
X7183Y11472D01*
X7188D02*
X7186Y11481D01*
X7180Y11488D01*
X7171Y11492D01*
X7161Y11491D01*
X7154Y11485D01*
X7149Y11477D01*
Y11467D01*
X7154Y11459D01*
X7161Y11453D01*
X7171Y11452D01*
X7180Y11455D01*
X7186Y11463D01*
X7188Y11472D01*
X7218D02*
X7217Y11482D01*
X7214Y11492D01*
X7210Y11500D01*
X7203Y11508D01*
X7195Y11514D01*
X7186Y11519D01*
X7176Y11521D01*
X7166Y11522D01*
X7156Y11520D01*
X7146Y11517D01*
X7138Y11511D01*
X7131Y11504D01*
X7125Y11496D01*
X7121Y11487D01*
X7119Y11477D01*
Y11467D01*
X7121Y11457D01*
X7125Y11448D01*
X7131Y11439D01*
X7138Y11432D01*
X7146Y11427D01*
X7156Y11423D01*
X7166Y11422D01*
X7176Y11422D01*
X7186Y11425D01*
X7195Y11429D01*
X7203Y11436D01*
X7210Y11443D01*
X7214Y11452D01*
X7217Y11462D01*
X7218Y11472D01*
X7219Y5472D02*
X7217Y5482D01*
X7214Y5492D01*
X7210Y5500D01*
X7203Y5508D01*
X7195Y5514D01*
X7186Y5519D01*
X7176Y5521D01*
X7166Y5522D01*
X7156Y5520D01*
X7146Y5517D01*
X7138Y5511D01*
X7131Y5504D01*
X7125Y5496D01*
X7121Y5487D01*
X7119Y5477D01*
Y5467D01*
X7121Y5457D01*
X7125Y5448D01*
X7131Y5439D01*
X7138Y5432D01*
X7146Y5427D01*
X7156Y5423D01*
X7166Y5422D01*
X7176Y5422D01*
X7186Y5425D01*
X7195Y5429D01*
X7203Y5436D01*
X7210Y5443D01*
X7214Y5452D01*
X7217Y5462D01*
X7219Y5472D01*
X7244D02*
X7243Y5482D01*
X7241Y5492D01*
X7238Y5501D01*
X7233Y5510D01*
X7227Y5518D01*
X7221Y5526D01*
X7213Y5532D01*
X7205Y5538D01*
X7195Y5542D01*
X7186Y5545D01*
X7176Y5546D01*
X7166Y5547D01*
X7156Y5546D01*
X7146Y5543D01*
X7137Y5540D01*
X7128Y5535D01*
X7120Y5529D01*
X7113Y5522D01*
X7107Y5514D01*
X7102Y5506D01*
X7098Y5496D01*
X7095Y5487D01*
X7094Y5477D01*
Y5467D01*
X7095Y5457D01*
X7098Y5447D01*
X7102Y5438D01*
X7107Y5429D01*
X7113Y5421D01*
X7120Y5415D01*
X7128Y5409D01*
X7137Y5404D01*
X7146Y5400D01*
X7156Y5398D01*
X7166Y5397D01*
X7176Y5397D01*
X7186Y5399D01*
X7195Y5402D01*
X7205Y5406D01*
X7213Y5411D01*
X7221Y5418D01*
X7227Y5425D01*
X7233Y5434D01*
X7238Y5443D01*
X7241Y5452D01*
X7243Y5462D01*
X7244Y5472D01*
X7171D02*
X7166D01*
X7171D01*
X7174D02*
X7166Y5476D01*
Y5467D01*
X7174Y5472D01*
X7189D02*
X7186Y5481D01*
X7180Y5488D01*
X7171Y5492D01*
X7161Y5490D01*
X7154Y5485D01*
X7149Y5477D01*
Y5467D01*
X7154Y5459D01*
X7161Y5453D01*
X7171Y5452D01*
X7180Y5455D01*
X7186Y5462D01*
X7189Y5472D01*
X7179D02*
X7174Y5480D01*
X7164D01*
X7159Y5472D01*
X7164Y5463D01*
X7174D01*
X7179Y5472D01*
X7184D02*
X7180Y5481D01*
X7171Y5487D01*
X7161Y5485D01*
X7154Y5477D01*
Y5467D01*
X7161Y5459D01*
X7171Y5457D01*
X7180Y5462D01*
X7184Y5472D01*
X7244D02*
X7294D01*
X6944D02*
X7094D01*
X6868Y5172D02*
X6943D01*
X6843Y5397D02*
X6893D01*
X6854Y5405D02*
X6883D01*
X6859Y5408D02*
X6878D01*
X6849Y5401D02*
X6888D01*
X6864Y5412D02*
X6873D01*
X7068Y5172D02*
X7093D01*
X6668Y5472D02*
X6868D01*
X6793Y5572D02*
X6868D01*
X6793Y5672D02*
X6868D01*
X6793Y5772D02*
X6868D01*
X6793Y5872D02*
X6868D01*
X6718Y5972D02*
X6868D01*
X6793Y6072D02*
X6868D01*
X6793Y6172D02*
X6868D01*
X6793Y6272D02*
X6868D01*
X6793Y6372D02*
X6868D01*
X6668Y6472D02*
X6868D01*
X6793Y6572D02*
X6868D01*
X6793Y6672D02*
X6868D01*
X6793Y6772D02*
X6868D01*
X6793Y6872D02*
X6868D01*
X6718Y6972D02*
X6868D01*
X6793Y7072D02*
X6868D01*
X6793Y7172D02*
X6868D01*
X6793Y7272D02*
X6868D01*
X6793Y7372D02*
X6868D01*
X6668Y7472D02*
X6868D01*
X6793Y7572D02*
X6868D01*
X6793Y7672D02*
X6868D01*
X6793Y7772D02*
X6868D01*
X6793Y7872D02*
X6868D01*
X6718Y7972D02*
X6868D01*
X6793Y8072D02*
X6868D01*
X6793Y8172D02*
X6868D01*
X6793Y8272D02*
X6868D01*
X6793Y8372D02*
X6868D01*
X6668Y8472D02*
X6868D01*
X6793Y8572D02*
X6868D01*
X6793Y8672D02*
X6868D01*
X6793Y8772D02*
X6868D01*
X6793Y8872D02*
X6868D01*
X6718Y8972D02*
X6868D01*
X6793Y9072D02*
X6868D01*
X6793Y9172D02*
X6868D01*
X6793Y9272D02*
X6868D01*
X6793Y9372D02*
X6868D01*
X6668Y9472D02*
X6868D01*
X6793Y9572D02*
X6868D01*
X6793Y9672D02*
X6868D01*
X6793Y9772D02*
X6868D01*
X6793Y9872D02*
X6868D01*
X6718Y9972D02*
X6868D01*
X6793Y10072D02*
X6868D01*
X6793Y10172D02*
X6868D01*
X6793Y10272D02*
X6868D01*
X6793Y10372D02*
X6868D01*
X6668Y10472D02*
X6868D01*
X6793Y10572D02*
X6868D01*
X6793Y10672D02*
X6868D01*
X6793Y10772D02*
X6868D01*
X6793Y10872D02*
X6868D01*
X6718Y10972D02*
X6868D01*
X6793Y11072D02*
X6868D01*
X6793Y11172D02*
X6868D01*
X6793Y11272D02*
X6868D01*
X6793Y11372D02*
X6868D01*
X6668Y11472D02*
X6868D01*
X7168D02*
X7218D01*
X7118D02*
X7168D01*
X6943D02*
X7093D01*
X7243D02*
X7293D01*
X14044Y5472D02*
X14094D01*
X14244D02*
X14294D01*
X7169Y5247D02*
Y5397D01*
Y5547D02*
Y5597D01*
X6868Y5172D02*
Y5247D01*
X7093Y5147D02*
Y5197D01*
X7101Y5157D02*
Y5186D01*
X6868Y5372D02*
Y5397D01*
X7105Y5162D02*
Y5181D01*
X7098Y5152D02*
Y5191D01*
X7108Y5167D02*
Y5176D01*
X7168Y4972D02*
Y5172D01*
X7268Y5097D02*
Y5172D01*
X7368Y5097D02*
Y5172D01*
X7468Y5097D02*
Y5172D01*
X7568Y5097D02*
Y5172D01*
X7668Y5022D02*
Y5172D01*
X7768Y5097D02*
Y5172D01*
X7868Y5097D02*
Y5172D01*
X7968Y5097D02*
Y5172D01*
X8068Y5097D02*
Y5172D01*
X8168Y4972D02*
Y5172D01*
X8268Y5097D02*
Y5172D01*
X8368Y5097D02*
Y5172D01*
X8468Y5097D02*
Y5172D01*
X8568Y5097D02*
Y5172D01*
X8668Y5022D02*
Y5172D01*
X8768Y5097D02*
Y5172D01*
X8868Y5097D02*
Y5172D01*
X8968Y5097D02*
Y5172D01*
X9068Y5097D02*
Y5172D01*
X9168Y4972D02*
Y5172D01*
X9268Y5097D02*
Y5172D01*
X9368Y5097D02*
Y5172D01*
X9468Y5097D02*
Y5172D01*
X9568Y5097D02*
Y5172D01*
X9668Y5022D02*
Y5172D01*
X9768Y5097D02*
Y5172D01*
X9868Y5097D02*
Y5172D01*
X9968Y5097D02*
Y5172D01*
X10068Y5097D02*
Y5172D01*
X10168Y4972D02*
Y5172D01*
X10268Y5097D02*
Y5172D01*
X10368Y5097D02*
Y5172D01*
X10468Y5097D02*
Y5172D01*
X10568Y5097D02*
Y5172D01*
X10668Y5022D02*
Y5172D01*
X10768Y5097D02*
Y5172D01*
X10868Y5097D02*
Y5172D01*
X10968Y5097D02*
Y5172D01*
X11068Y5097D02*
Y5172D01*
X11168Y4972D02*
Y5172D01*
X11268Y5097D02*
Y5172D01*
X11368Y5097D02*
Y5172D01*
X11468Y5097D02*
Y5172D01*
X11568Y5097D02*
Y5172D01*
X11668Y5022D02*
Y5172D01*
X11768Y5097D02*
Y5172D01*
X11868Y5097D02*
Y5172D01*
X11968Y5097D02*
Y5172D01*
X12068Y5097D02*
Y5172D01*
X12168Y4972D02*
Y5172D01*
X12268Y5097D02*
Y5172D01*
X12368Y5097D02*
Y5172D01*
X12468Y5097D02*
Y5172D01*
X12568Y5097D02*
Y5172D01*
X12668Y5022D02*
Y5172D01*
X12768Y5097D02*
Y5172D01*
X12868Y5097D02*
Y5172D01*
X12968Y5097D02*
Y5172D01*
X13068Y5097D02*
Y5172D01*
X13168Y4972D02*
Y5172D01*
X13268Y5097D02*
Y5172D01*
X13368Y5097D02*
Y5172D01*
X13468Y5097D02*
Y5172D01*
X13568Y5097D02*
Y5172D01*
X13668Y5022D02*
Y5172D01*
X13768Y5097D02*
Y5172D01*
X13868Y5097D02*
Y5172D01*
X13968Y5097D02*
Y5172D01*
X14068Y5097D02*
Y5172D01*
X14168Y4972D02*
Y5172D01*
X7168Y11422D02*
Y11472D01*
Y11522D01*
Y11547D02*
Y11597D01*
Y11347D02*
Y11397D01*
X14169Y5547D02*
Y5597D01*
Y5247D02*
Y5397D01*
X7168Y5472D02*
X7203Y5507D01*
X7133Y5437D02*
X7168Y5472D01*
X14133Y5437D02*
X14168Y5472D01*
X14203Y5507D01*
X7168Y5472D02*
X7203Y5437D01*
X7133Y5507D02*
X7168Y5472D01*
X14168D02*
X14203Y5437D01*
X14133Y5507D02*
X14168Y5472D01*
X7093Y5147D02*
X7168Y5172D01*
X7093Y5197D02*
X7168Y5172D01*
X7101Y5186D02*
X7144Y5172D01*
X7101Y5157D02*
X7144Y5172D01*
X6868Y5472D02*
X6893Y5397D01*
X6843D02*
X6868Y5472D01*
X6854Y5405D02*
X6868Y5448D01*
X6883Y5405D01*
X6859Y5408D02*
X6868Y5436D01*
X6878Y5408D01*
X6849Y5401D02*
X6868Y5459D01*
X6888Y5401D01*
X6864Y5412D02*
X6868Y5425D01*
X6873Y5412D01*
X7105Y5181D02*
X7133Y5172D01*
X7105Y5162D02*
X7133Y5172D01*
X7098Y5191D02*
X7156Y5172D01*
X7098Y5152D02*
X7156Y5172D01*
X7108Y5176D02*
X7121Y5172D01*
X7108Y5167D02*
X7121Y5172D01*
D14*
X11818Y5923D02*
X11818Y5932D01*
X11815Y5942D01*
X11810Y5950D01*
X11804Y5957D01*
X11797Y5964D01*
X11788Y5968D01*
X11779Y5971D01*
X11769Y5972D01*
X10668D02*
X10659Y5971D01*
X10649Y5968D01*
X10641Y5963D01*
X10633Y5957D01*
X10627Y5950D01*
X10622Y5941D01*
X10619Y5932D01*
X10618Y5922D01*
X11768Y6022D02*
X11778Y6023D01*
X11788Y6026D01*
X11796Y6030D01*
X11804Y6036D01*
X11810Y6044D01*
X11815Y6053D01*
X11818Y6062D01*
X11818Y6072D01*
X10618D02*
X10619Y6062D01*
X10622Y6053D01*
X10627Y6044D01*
X10633Y6036D01*
X10641Y6030D01*
X10649Y6026D01*
X10659Y6023D01*
X10668Y6022D01*
X11818Y6648D02*
X11818Y6658D01*
X11815Y6667D01*
X11810Y6676D01*
X11804Y6683D01*
X11796Y6689D01*
X11787Y6694D01*
X11778Y6696D01*
X11768Y6697D01*
X11768Y5747D02*
X11778Y5748D01*
X11788Y5751D01*
X11796Y5755D01*
X11804Y5761D01*
X11810Y5769D01*
X11815Y5778D01*
X11818Y5787D01*
X11818Y5797D01*
X11818Y5648D02*
X11817Y5657D01*
X11814Y5667D01*
X11810Y5675D01*
X11804Y5682D01*
X11796Y5689D01*
X11787Y5693D01*
X11778Y5696D01*
X11768Y5697D01*
Y5497D02*
X11778Y5498D01*
X11788Y5501D01*
X11796Y5505D01*
X11804Y5511D01*
X11810Y5519D01*
X11815Y5528D01*
X11818Y5537D01*
X11818Y5547D01*
X10518Y5747D02*
X10528Y5748D01*
X10538Y5751D01*
X10546Y5755D01*
X10554Y5761D01*
X10560Y5769D01*
X10565Y5778D01*
X10568Y5787D01*
X10568Y5797D01*
X10618Y5796D02*
X10619Y5786D01*
X10622Y5777D01*
X10627Y5768D01*
X10633Y5761D01*
X10641Y5755D01*
X10649Y5750D01*
X10659Y5748D01*
X10668Y5747D01*
X10568Y5923D02*
X10568Y5932D01*
X10565Y5942D01*
X10560Y5950D01*
X10554Y5957D01*
X10547Y5964D01*
X10538Y5968D01*
X10529Y5971D01*
X10519Y5972D01*
X7518Y5547D02*
X7519Y5537D01*
X7522Y5528D01*
X7527Y5519D01*
X7533Y5512D01*
X7540Y5506D01*
X7549Y5501D01*
X7558Y5498D01*
X7568Y5497D01*
X10519Y6022D02*
X10529Y6023D01*
X10538Y6026D01*
X10547Y6031D01*
X10554Y6037D01*
X10560Y6044D01*
X10565Y6053D01*
X10568Y6062D01*
X10569Y6072D01*
X7568Y5697D02*
X7559Y5696D01*
X7549Y5693D01*
X7541Y5688D01*
X7533Y5682D01*
X7527Y5675D01*
X7522Y5666D01*
X7519Y5657D01*
X7518Y5647D01*
X10568Y6397D02*
X10568Y6407D01*
X10565Y6416D01*
X10560Y6425D01*
X10554Y6432D01*
X10546Y6438D01*
X10538Y6443D01*
X10528Y6446D01*
X10518Y6447D01*
Y6497D02*
X10528Y6498D01*
X10538Y6501D01*
X10546Y6505D01*
X10554Y6511D01*
X10560Y6519D01*
X10565Y6528D01*
X10568Y6537D01*
X10568Y6547D01*
X10668Y6697D02*
X10659Y6696D01*
X10649Y6693D01*
X10641Y6688D01*
X10633Y6682D01*
X10627Y6675D01*
X10622Y6666D01*
X10619Y6657D01*
X10618Y6647D01*
X10568D02*
X10568Y6657D01*
X10565Y6666D01*
X10560Y6675D01*
X10554Y6682D01*
X10546Y6688D01*
X10538Y6693D01*
X10528Y6696D01*
X10518Y6697D01*
X7568D02*
X7559Y6696D01*
X7549Y6693D01*
X7541Y6688D01*
X7533Y6682D01*
X7527Y6675D01*
X7522Y6666D01*
X7519Y6657D01*
X7518Y6647D01*
Y6547D02*
X7519Y6537D01*
X7522Y6528D01*
X7527Y6519D01*
X7533Y6511D01*
X7541Y6505D01*
X7549Y6501D01*
X7559Y6498D01*
X7568Y6497D01*
Y6447D02*
X7559Y6446D01*
X7549Y6443D01*
X7541Y6438D01*
X7533Y6432D01*
X7527Y6425D01*
X7522Y6416D01*
X7519Y6407D01*
X7518Y6397D01*
Y6172D02*
X7519Y6162D01*
X7522Y6153D01*
X7527Y6144D01*
X7533Y6136D01*
X7541Y6130D01*
X7549Y6126D01*
X7559Y6123D01*
X7568Y6122D01*
Y6072D02*
X7559Y6071D01*
X7549Y6068D01*
X7541Y6063D01*
X7533Y6057D01*
X7527Y6050D01*
X7522Y6041D01*
X7519Y6032D01*
X7518Y6022D01*
Y5797D02*
X7519Y5787D01*
X7522Y5778D01*
X7527Y5769D01*
X7533Y5762D01*
X7540Y5756D01*
X7549Y5751D01*
X7558Y5748D01*
X7568Y5747D01*
X8468Y6447D02*
X8459Y6446D01*
X8449Y6443D01*
X8441Y6438D01*
X8433Y6432D01*
X8427Y6425D01*
X8422Y6416D01*
X8419Y6407D01*
X8418Y6397D01*
X8468Y5972D02*
X8459Y5971D01*
X8449Y5968D01*
X8441Y5963D01*
X8433Y5957D01*
X8427Y5950D01*
X8422Y5941D01*
X8419Y5932D01*
X8418Y5922D01*
X10216Y5972D02*
X10207Y5971D01*
X10198Y5968D01*
X10189Y5963D01*
X10182Y5957D01*
X10176Y5949D01*
X10171Y5940D01*
X10169Y5931D01*
X10169Y5921D01*
X10168Y5798D02*
X10169Y5788D01*
X10172Y5778D01*
X10177Y5770D01*
X10183Y5762D01*
X10191Y5756D01*
X10199Y5751D01*
X10209Y5748D01*
X10219Y5747D01*
X10069Y5747D02*
X10079Y5748D01*
X10088Y5751D01*
X10097Y5755D01*
X10104Y5761D01*
X10111Y5769D01*
X10115Y5778D01*
X10118Y5787D01*
X10118Y5797D01*
X10118Y5923D02*
X10118Y5932D01*
X10115Y5942D01*
X10110Y5950D01*
X10104Y5957D01*
X10097Y5964D01*
X10088Y5968D01*
X10079Y5971D01*
X10069Y5972D01*
X8319Y5747D02*
X8329Y5748D01*
X8338Y5751D01*
X8347Y5755D01*
X8354Y5761D01*
X8360Y5769D01*
X8365Y5777D01*
X8368Y5786D01*
X8368Y5796D01*
X8418D02*
X8419Y5786D01*
X8422Y5777D01*
X8427Y5769D01*
X8433Y5761D01*
X8440Y5755D01*
X8449Y5751D01*
X8458Y5748D01*
X8467Y5747D01*
X8418Y6071D02*
X8419Y6061D01*
X8422Y6052D01*
X8427Y6044D01*
X8433Y6036D01*
X8440Y6030D01*
X8449Y6026D01*
X8458Y6023D01*
X8467Y6022D01*
X8368Y6023D02*
X8368Y6033D01*
X8365Y6042D01*
X8360Y6051D01*
X8354Y6058D01*
X8346Y6064D01*
X8337Y6069D01*
X8328Y6071D01*
X8318Y6072D01*
X8320Y6122D02*
X8330Y6123D01*
X8339Y6125D01*
X8347Y6130D01*
X8354Y6136D01*
X8360Y6143D01*
X8365Y6151D01*
X8368Y6160D01*
X8368Y6170D01*
Y6398D02*
X8368Y6407D01*
X8365Y6417D01*
X8360Y6425D01*
X8354Y6432D01*
X8347Y6439D01*
X8338Y6443D01*
X8329Y6446D01*
X8319Y6447D01*
X11218Y5697D02*
X11209Y5696D01*
X11199Y5693D01*
X11191Y5688D01*
X11183Y5682D01*
X11177Y5675D01*
X11172Y5666D01*
X11169Y5657D01*
X11168Y5647D01*
Y5546D02*
X11169Y5536D01*
X11172Y5527D01*
X11177Y5518D01*
X11183Y5511D01*
X11191Y5505D01*
X11199Y5500D01*
X11209Y5498D01*
X11218Y5497D01*
X11070Y5497D02*
X11079Y5498D01*
X11089Y5500D01*
X11097Y5505D01*
X11105Y5511D01*
X11111Y5519D01*
X11115Y5527D01*
X11118Y5537D01*
X11118Y5546D01*
X11118Y5647D02*
X11118Y5657D01*
X11115Y5666D01*
X11110Y5675D01*
X11104Y5682D01*
X11096Y5688D01*
X11088Y5693D01*
X11078Y5696D01*
X11068Y5697D01*
X9343Y5547D02*
X9344Y5537D01*
X9347Y5528D01*
X9352Y5519D01*
X9358Y5512D01*
X9365Y5506D01*
X9374Y5501D01*
X9383Y5498D01*
X9393Y5497D01*
X9393Y5697D02*
X9384Y5696D01*
X9374Y5693D01*
X9366Y5688D01*
X9358Y5682D01*
X9352Y5675D01*
X9347Y5666D01*
X9344Y5657D01*
X9343Y5647D01*
X9245Y5497D02*
X9254Y5498D01*
X9264Y5500D01*
X9272Y5505D01*
X9280Y5511D01*
X9286Y5519D01*
X9290Y5527D01*
X9293Y5537D01*
X9293Y5546D01*
X9293Y5647D02*
X9293Y5657D01*
X9290Y5666D01*
X9285Y5675D01*
X9279Y5682D01*
X9271Y5688D01*
X9263Y5693D01*
X9253Y5696D01*
X9243Y5697D01*
X9393Y5497D02*
X11068D01*
X7568D02*
X9243D01*
X7568Y5697D02*
X9243D01*
X9393D02*
X11068D01*
X11218Y5497D02*
X11768D01*
X11218Y5697D02*
X11768D01*
X7568Y6697D02*
X10518D01*
X7568Y5747D02*
X8318D01*
X7568Y6072D02*
X8318D01*
X7568Y6122D02*
X8318D01*
X7568Y6447D02*
X8318D01*
X7568Y6497D02*
X10518D01*
X8468Y6447D02*
X10518D01*
X8468Y5972D02*
X10068D01*
X8468Y5747D02*
X10068D01*
X10218D02*
X10518D01*
X10218Y5972D02*
X10518D01*
X10668Y5747D02*
X11768D01*
X10668Y6697D02*
X11768D01*
X8468Y6022D02*
X10518D01*
X10668D02*
X11768D01*
X10668Y5972D02*
X11768D01*
X9293Y5547D02*
Y5647D01*
X9343Y5547D02*
Y5647D01*
X11118Y5547D02*
Y5647D01*
X11168Y5547D02*
Y5647D01*
X7518Y5797D02*
Y6022D01*
X8368Y5797D02*
Y6022D01*
X7518Y6172D02*
Y6397D01*
X8368Y6172D02*
Y6397D01*
X7518Y6547D02*
Y6647D01*
X10568Y6547D02*
Y6647D01*
Y6072D02*
Y6397D01*
X8418Y6072D02*
Y6397D01*
X10118Y5797D02*
Y5922D01*
X8418Y5797D02*
Y5922D01*
X10168Y5797D02*
Y5922D01*
X10568Y5797D02*
Y5922D01*
X11818Y5547D02*
Y5647D01*
Y5797D02*
Y5897D01*
X7518Y5547D02*
Y5647D01*
X10618Y6072D02*
Y6647D01*
X11818Y6072D02*
Y6647D01*
X10618Y5797D02*
Y5922D01*
D15*
X10668Y5929D02*
Y5884D01*
Y5929D02*
X10683D01*
X10690Y5927D01*
X10694Y5923D01*
X10696Y5919D01*
X10698Y5912D01*
Y5901D01*
X10696Y5895D01*
X10694Y5891D01*
X10690Y5886D01*
X10683Y5884D01*
X10668D01*
X10743D02*
X10726Y5929D01*
X10709Y5884D01*
X10715Y5899D02*
X10736D01*
X10768Y5929D02*
Y5884D01*
X10753Y5929D02*
X10783D01*
X10817D02*
X10789D01*
Y5884D01*
X10817D01*
X10789Y5908D02*
X10806D01*
X10826Y5914D02*
X10824Y5912D01*
X10826Y5910D01*
X10828Y5912D01*
X10826Y5914D01*
Y5889D02*
X10824Y5886D01*
X10826Y5884D01*
X10828Y5886D01*
X10826Y5889D01*
X10206Y5929D02*
Y5884D01*
Y5929D02*
X10225D01*
X10232Y5927D01*
X10234Y5925D01*
X10236Y5921D01*
Y5916D01*
X10234Y5912D01*
X10232Y5910D01*
X10225Y5908D01*
X10206D01*
X10221D02*
X10236Y5884D01*
X10274Y5929D02*
X10246D01*
Y5884D01*
X10274D01*
X10246Y5908D02*
X10263D01*
X10281Y5929D02*
X10299Y5884D01*
X10316Y5929D02*
X10299Y5884D01*
X10324Y5914D02*
X10321Y5912D01*
X10324Y5910D01*
X10326Y5912D01*
X10324Y5914D01*
Y5889D02*
X10321Y5886D01*
X10324Y5884D01*
X10326Y5886D01*
X10324Y5889D01*
X7568Y6181D02*
X7588D01*
X7594Y6183D01*
X7596Y6185D01*
X7598Y6189D01*
Y6196D01*
X7596Y6200D01*
X7594Y6202D01*
X7588Y6204D01*
X7568D01*
Y6159D01*
X7609Y6204D02*
Y6159D01*
X7639Y6204D02*
Y6159D01*
X7609Y6183D02*
X7639D01*
X7664Y6204D02*
X7660Y6202D01*
X7655Y6198D01*
X7653Y6194D01*
X7651Y6187D01*
Y6176D01*
X7653Y6170D01*
X7655Y6166D01*
X7660Y6161D01*
X7664Y6159D01*
X7672D01*
X7677Y6161D01*
X7681Y6166D01*
X7683Y6170D01*
X7685Y6176D01*
Y6187D01*
X7683Y6194D01*
X7681Y6198D01*
X7677Y6202D01*
X7672Y6204D01*
X7664D01*
X7696D02*
Y6159D01*
Y6204D02*
X7726Y6159D01*
Y6204D02*
Y6159D01*
X7766Y6204D02*
X7738D01*
Y6159D01*
X7766D01*
X7738Y6183D02*
X7755D01*
X7776Y6189D02*
X7774Y6187D01*
X7776Y6185D01*
X7778Y6187D01*
X7776Y6189D01*
Y6164D02*
X7774Y6161D01*
X7776Y6159D01*
X7778Y6161D01*
X7776Y6164D01*
X7568Y5806D02*
X7588D01*
X7594Y5808D01*
X7596Y5810D01*
X7598Y5814D01*
Y5821D01*
X7596Y5825D01*
X7594Y5827D01*
X7588Y5829D01*
X7568D01*
Y5784D01*
X7609Y5829D02*
Y5784D01*
X7639Y5829D02*
Y5784D01*
X7609Y5808D02*
X7639D01*
X7664Y5829D02*
X7660Y5827D01*
X7655Y5823D01*
X7653Y5819D01*
X7651Y5812D01*
Y5801D01*
X7653Y5795D01*
X7655Y5791D01*
X7660Y5786D01*
X7664Y5784D01*
X7672D01*
X7677Y5786D01*
X7681Y5791D01*
X7683Y5795D01*
X7685Y5801D01*
Y5812D01*
X7683Y5819D01*
X7681Y5823D01*
X7677Y5827D01*
X7672Y5829D01*
X7664D01*
X7696D02*
Y5784D01*
Y5829D02*
X7726Y5784D01*
Y5829D02*
Y5784D01*
X7766Y5829D02*
X7738D01*
Y5784D01*
X7766D01*
X7738Y5808D02*
X7755D01*
X7776Y5814D02*
X7774Y5812D01*
X7776Y5810D01*
X7778Y5812D01*
X7776Y5814D01*
Y5789D02*
X7774Y5786D01*
X7776Y5784D01*
X7778Y5786D01*
X7776Y5789D01*
X9408Y5652D02*
Y5607D01*
X9434D01*
X9473D02*
X9456Y5652D01*
X9439Y5607D01*
X9446Y5622D02*
X9467D01*
X9484Y5652D02*
X9501Y5630D01*
Y5607D01*
X9518Y5652D02*
X9501Y5630D01*
X9552Y5652D02*
X9524D01*
Y5607D01*
X9552D01*
X9524Y5630D02*
X9541D01*
X9559Y5652D02*
Y5607D01*
Y5652D02*
X9579D01*
X9585Y5650D01*
X9587Y5648D01*
X9589Y5643D01*
Y5639D01*
X9587Y5635D01*
X9585Y5633D01*
X9579Y5630D01*
X9559D01*
X9574D02*
X9589Y5607D01*
X9602Y5637D02*
X9599Y5635D01*
X9602Y5633D01*
X9604Y5635D01*
X9602Y5637D01*
Y5611D02*
X9599Y5609D01*
X9602Y5607D01*
X9604Y5609D01*
X9602Y5611D01*
X7596Y6392D02*
X7568D01*
Y6347D01*
X7596D01*
X7568Y6370D02*
X7586D01*
X7604Y6392D02*
Y6347D01*
Y6392D02*
X7634Y6347D01*
Y6392D02*
Y6347D01*
X7678Y6381D02*
X7676Y6385D01*
X7672Y6390D01*
X7668Y6392D01*
X7659D01*
X7655Y6390D01*
X7651Y6385D01*
X7648Y6381D01*
X7646Y6375D01*
Y6364D01*
X7648Y6358D01*
X7651Y6353D01*
X7655Y6349D01*
X7659Y6347D01*
X7668D01*
X7672Y6349D01*
X7676Y6353D01*
X7678Y6358D01*
Y6364D01*
X7668D02*
X7678D01*
X7689Y6392D02*
Y6347D01*
X7698Y6392D02*
Y6347D01*
Y6392D02*
X7728Y6347D01*
Y6392D02*
Y6347D01*
X7768Y6392D02*
X7741D01*
Y6347D01*
X7768D01*
X7741Y6370D02*
X7758D01*
X7804Y6392D02*
X7776D01*
Y6347D01*
X7804D01*
X7776Y6370D02*
X7793D01*
X7811Y6392D02*
Y6347D01*
Y6392D02*
X7831D01*
X7837Y6390D01*
X7839Y6388D01*
X7841Y6383D01*
Y6379D01*
X7839Y6375D01*
X7837Y6373D01*
X7831Y6370D01*
X7811D01*
X7826D02*
X7841Y6347D01*
X7853Y6377D02*
X7851Y6375D01*
X7853Y6373D01*
X7856Y6375D01*
X7853Y6377D01*
Y6351D02*
X7851Y6349D01*
X7853Y6347D01*
X7856Y6349D01*
X7853Y6351D01*
X8468Y5906D02*
X8488D01*
X8494Y5908D01*
X8496Y5910D01*
X8498Y5914D01*
Y5921D01*
X8496Y5925D01*
X8494Y5927D01*
X8488Y5929D01*
X8468D01*
Y5884D01*
X8543D02*
X8526Y5929D01*
X8509Y5884D01*
X8515Y5899D02*
X8536D01*
X8553Y5929D02*
Y5884D01*
Y5929D02*
X8573D01*
X8579Y5927D01*
X8581Y5925D01*
X8583Y5921D01*
Y5916D01*
X8581Y5912D01*
X8579Y5910D01*
X8573Y5908D01*
X8553D01*
X8568D02*
X8583Y5884D01*
X8608Y5929D02*
Y5884D01*
X8593Y5929D02*
X8623D01*
X8664D02*
Y5884D01*
Y5929D02*
X8694Y5884D01*
Y5929D02*
Y5884D01*
X8719Y5929D02*
X8715Y5927D01*
X8711Y5923D01*
X8709Y5919D01*
X8707Y5912D01*
Y5901D01*
X8709Y5895D01*
X8711Y5891D01*
X8715Y5886D01*
X8719Y5884D01*
X8728D01*
X8732Y5886D01*
X8737Y5891D01*
X8739Y5895D01*
X8741Y5901D01*
Y5912D01*
X8739Y5919D01*
X8737Y5923D01*
X8732Y5927D01*
X8728Y5929D01*
X8719D01*
X8753Y5889D02*
X8751Y5886D01*
X8753Y5884D01*
X8756Y5886D01*
X8753Y5889D01*
X8768Y5914D02*
X8765Y5912D01*
X8768Y5910D01*
X8770Y5912D01*
X8768Y5914D01*
Y5889D02*
X8765Y5886D01*
X8768Y5884D01*
X8770Y5886D01*
X8768Y5889D01*
X8471Y6404D02*
Y6359D01*
X8456Y6404D02*
X8486D01*
X8491D02*
Y6359D01*
X8516Y6404D02*
Y6359D01*
X8501Y6404D02*
X8531D01*
X8536D02*
Y6359D01*
X8562D01*
X8595Y6404D02*
X8567D01*
Y6359D01*
X8595D01*
X8567Y6383D02*
X8584D01*
X8604Y6389D02*
X8602Y6387D01*
X8604Y6385D01*
X8606Y6387D01*
X8604Y6389D01*
Y6364D02*
X8602Y6361D01*
X8604Y6359D01*
X8606Y6361D01*
X8604Y6364D01*
X7596Y6012D02*
X7568D01*
Y5967D01*
X7596D01*
X7568Y5990D02*
X7586D01*
X7604Y6012D02*
Y5967D01*
Y6012D02*
X7634Y5967D01*
Y6012D02*
Y5967D01*
X7678Y6001D02*
X7676Y6005D01*
X7672Y6010D01*
X7668Y6012D01*
X7659D01*
X7655Y6010D01*
X7651Y6005D01*
X7648Y6001D01*
X7646Y5995D01*
Y5984D01*
X7648Y5978D01*
X7651Y5973D01*
X7655Y5969D01*
X7659Y5967D01*
X7668D01*
X7672Y5969D01*
X7676Y5973D01*
X7678Y5978D01*
Y5984D01*
X7668D02*
X7678D01*
X7689Y6012D02*
Y5967D01*
X7698Y6012D02*
Y5967D01*
Y6012D02*
X7728Y5967D01*
Y6012D02*
Y5967D01*
X7768Y6012D02*
X7741D01*
Y5967D01*
X7768D01*
X7741Y5990D02*
X7758D01*
X7804Y6012D02*
X7776D01*
Y5967D01*
X7804D01*
X7776Y5990D02*
X7793D01*
X7811Y6012D02*
Y5967D01*
Y6012D02*
X7831D01*
X7837Y6010D01*
X7839Y6008D01*
X7841Y6003D01*
Y5999D01*
X7839Y5995D01*
X7837Y5993D01*
X7831Y5990D01*
X7811D01*
X7826D02*
X7841Y5967D01*
X7853Y5997D02*
X7851Y5995D01*
X7853Y5993D01*
X7856Y5995D01*
X7853Y5997D01*
Y5971D02*
X7851Y5969D01*
X7853Y5967D01*
X7856Y5969D01*
X7853Y5971D01*
X7568Y5652D02*
Y5607D01*
Y5652D02*
X7596D01*
X7568Y5630D02*
X7586D01*
X7601Y5652D02*
Y5607D01*
X7611Y5652D02*
Y5607D01*
X7637D01*
X7669Y5652D02*
X7642D01*
Y5607D01*
X7669D01*
X7642Y5630D02*
X7659D01*
X7712Y5652D02*
Y5607D01*
Y5652D02*
X7742Y5607D01*
Y5652D02*
Y5607D01*
X7789D02*
X7772Y5652D01*
X7755Y5607D01*
X7761Y5622D02*
X7783D01*
X7799Y5652D02*
Y5607D01*
Y5652D02*
X7817Y5607D01*
X7834Y5652D02*
X7817Y5607D01*
X7834Y5652D02*
Y5607D01*
X7874Y5652D02*
X7847D01*
Y5607D01*
X7874D01*
X7847Y5630D02*
X7864D01*
X7884Y5637D02*
X7882Y5635D01*
X7884Y5633D01*
X7886Y5635D01*
X7884Y5637D01*
Y5611D02*
X7882Y5609D01*
X7884Y5607D01*
X7886Y5609D01*
X7884Y5611D01*
X11261Y5641D02*
X11258Y5645D01*
X11254Y5650D01*
X11250Y5652D01*
X11241D01*
X11237Y5650D01*
X11233Y5645D01*
X11231Y5641D01*
X11228Y5635D01*
Y5624D01*
X11231Y5618D01*
X11233Y5613D01*
X11237Y5609D01*
X11241Y5607D01*
X11250D01*
X11254Y5609D01*
X11258Y5613D01*
X11261Y5618D01*
Y5624D01*
X11250D02*
X11261D01*
X11299Y5652D02*
X11271D01*
Y5607D01*
X11299D01*
X11271Y5630D02*
X11288D01*
X11306Y5652D02*
Y5607D01*
Y5652D02*
X11326D01*
X11332Y5650D01*
X11334Y5648D01*
X11336Y5643D01*
Y5639D01*
X11334Y5635D01*
X11332Y5633D01*
X11326Y5630D01*
X11306D01*
X11321D02*
X11336Y5607D01*
X11346Y5652D02*
Y5607D01*
Y5652D02*
X11366D01*
X11372Y5650D01*
X11374Y5648D01*
X11376Y5643D01*
Y5639D01*
X11374Y5635D01*
X11372Y5633D01*
X11366Y5630D01*
X11346D02*
X11366D01*
X11372Y5628D01*
X11374Y5626D01*
X11376Y5622D01*
Y5615D01*
X11374Y5611D01*
X11372Y5609D01*
X11366Y5607D01*
X11346D01*
X11414Y5652D02*
X11386D01*
Y5607D01*
X11414D01*
X11386Y5630D02*
X11404D01*
X11422Y5652D02*
Y5607D01*
Y5652D02*
X11441D01*
X11447Y5650D01*
X11450Y5648D01*
X11452Y5643D01*
Y5639D01*
X11450Y5635D01*
X11447Y5633D01*
X11441Y5630D01*
X11422D01*
X11437D02*
X11452Y5607D01*
X11464Y5637D02*
X11462Y5635D01*
X11464Y5633D01*
X11466Y5635D01*
X11464Y5637D01*
Y5611D02*
X11462Y5609D01*
X11464Y5607D01*
X11466Y5609D01*
X11464Y5611D01*
D21*
X8578Y8652D02*
X8658D01*
X8578D02*
Y8892D01*
X8658D01*
Y8652D02*
Y8892D01*
X8618Y8612D02*
Y8652D01*
Y8892D02*
Y8932D01*
X10318Y9052D02*
X10398D01*
X10318D02*
Y9292D01*
X10398D01*
Y9052D02*
Y9292D01*
X10358Y9012D02*
Y9052D01*
Y9292D02*
Y9332D01*
M02*
